M48
; DRILL file {KiCad (5.1.5)-3} date 7/18/2023 10:41:32 PM
; FORMAT={-:-/ absolute / inch / decimal}
; #@! TF.CreationDate,2023-07-18T22:41:32-04:00
; #@! TF.GenerationSoftware,Kicad,Pcbnew,(5.1.5)-3
FMAT,2
INCH
T1C0.0157
T2C0.0315
T3C0.0394
T4C0.0433
T5C0.0433
T6C0.0630
T7C0.1378
%
G90
G05
T1
X-0.0949Y-6.6801
X0.0365Y-6.6738
X1.55Y-4.525
X1.575Y-4.725
X1.9Y-6.6759
X2.3242Y-3.1485
X2.331Y-2.4127
X2.3625Y-2.3884
X2.3645Y-3.1419
X2.4086Y-2.3908
X2.4104Y-3.3847
X2.4183Y-3.219
X2.4381Y-4.197
X2.4468Y-4.6509
X2.4568Y-3.385
X2.4571Y-4.4018
X2.4807Y-2.3514
X2.4814Y-4.5548
X2.4868Y-4.3291
X2.5043Y-4.5875
X2.5088Y-3.042
X2.5128Y-2.3177
X2.5208Y-4.5468
X2.5515Y-3.1701
X2.5535Y-3.2401
X2.5675Y-4.3868
X2.5866Y-4.1382
X2.616Y-4.1657
X2.6187Y-2.2596
X2.6227Y-4.2903
X2.6274Y-3.8531
X2.6315Y-3.1451
X2.6492Y-5.1477
X2.6561Y-3.0424
X2.6602Y-2.9653
X2.6888Y-2.4116
X2.7064Y-4.4125
X2.7137Y-3.5077
X2.7284Y-4.2204
X2.7369Y-4.0427
X2.7509Y-4.1633
X2.7521Y-3.4125
X2.7842Y-4.0425
X2.7855Y-4.2196
X2.7968Y-3.4127
X2.7985Y-3.5077
X2.7986Y-4.7973
X2.8018Y-4.5076
X2.8065Y-2.4111
X2.8118Y-4.1377
X2.8308Y-3.8246
X2.8394Y-4.3075
X2.8501Y-3.5075
X2.8518Y-3.5469
X2.8686Y-2.259
X2.9081Y-3.1385
X2.9195Y-2.3335
X2.9299Y-2.5087
X2.9301Y-4.5095
X2.9387Y-3.4147
X2.9398Y-3.9088
X2.9873Y-5.4351
X3.003Y-4.0626
X3.0209Y-4.5955
X3.0258Y-2.1101
X3.0317Y-4.4214
X3.0328Y-2.9363
X3.0328Y-3.1694
X3.0328Y-3.3916
X3.0388Y-4.2744
X3.0451Y-3.9461
X3.0545Y-2.1391
X3.0763Y-2.9078
X3.0764Y-4.2459
X3.1189Y-4.0307
X3.1454Y-5.0358
X3.2129Y-4.1659
X3.2216Y-4.6834
X3.2226Y-3.5884
X3.3592Y-3.7201
X3.4925Y-5.6556
X3.5299Y-6.2759
X3.5499Y-3.645
X3.5812Y-3.6206
X3.5953Y-3.4066
X3.6052Y-6.2367
X3.641Y-6.2985
X3.642Y-6.2569
X3.898Y-5.2118
X4.0065Y-3.8027
X4.024Y-3.9713
X4.1786Y-2.368
X4.209Y-2.6172
X4.2372Y-3.2391
X4.2532Y-2.6142
X4.2577Y-2.4476
X4.3792Y-2.6349
X4.384Y-3.5616
X4.4098Y-5.2893
X4.4105Y-1.65
X4.4718Y-2.6527
X4.4806Y-5.3229
X4.522Y-2.662
X4.6059Y-5.2451
X4.6325Y-6.49
X4.6348Y-2.6881
X4.6785Y-2.7037
X4.7128Y-6.4356
X4.7156Y-2.4181
X4.7369Y-2.7105
X4.8007Y-2.7278
X4.8929Y-4.4531
X4.8981Y-4.0513
X4.8981Y-4.2866
X4.9283Y-4.4876
X4.9623Y-4.5206
X5.0281Y-5.2423
X5.0871Y-2.7451
X5.0875Y-5.0113
X5.1375Y-2.7547
X5.143Y-5.7454
X5.1844Y-4.725
X5.205Y-6.6822
X5.2064Y-5.125
X5.2702Y-6.4733
X5.2739Y-4.8518
X5.3346Y-2.7809
X5.3778Y-3.403
X5.3863Y-4.6058
X5.3875Y-4.9705
X5.3881Y-3.3446
X5.5913Y-6.6877
X5.6662Y-5.9649
X5.7182Y-6.6853
X5.7248Y-5.0092
X5.8416Y-6.5367
X5.8483Y-6.6807
X5.8819Y-6.5495
X5.9247Y-6.4796
X6.0732Y-4.075
X6.1Y-6.7
X7.2496Y-3.5123
X7.2772Y-3.4141
X7.3818Y-3.3079
X7.3957Y-3.173
X7.4271Y-3.2975
X7.4513Y-6.6086
X7.4549Y-3.2697
X7.482Y-3.8867
X7.4931Y-6.6756
X7.5255Y-3.8581
X7.924Y-2.0636
X7.9988Y-6.6751
X8.0251Y-5.59
X8.0576Y-5.542
X8.1346Y-5.1252
X8.1818Y-6.6853
X8.3233Y-5.2357
X8.3903Y-5.3566
X8.4997Y-6.113
X8.6375Y-6.6754
X8.6859Y-4.925
X8.8458Y-2.1892
X8.8784Y-5.4508
X8.901Y-6.2784
X9.1311Y-6.46
X9.1529Y-6.4939
X9.1828Y-6.6836
X9.1856Y-2.3956
X9.1919Y-4.0192
X9.2056Y-4.4542
X9.2179Y-6.4523
X9.3051Y-6.6461
X9.355Y-6.665
X9.3978Y-5.5325
X9.43Y-6.665
X9.4321Y-4.9167
X9.4322Y-4.8463
X9.4324Y-5.0209
X9.4327Y-4.7018
X9.433Y-5.1696
X9.5263Y-5.5585
X9.5264Y-6.2549
X9.5667Y-6.262
X9.5744Y-4.2845
X9.5844Y-5.5763
X9.6115Y-2.8587
X9.6128Y-5.6036
X9.635Y-6.675
X9.6492Y-2.8183
X9.6639Y-2.3175
X9.6668Y-6.2779
X9.6699Y-5.6229
X9.7141Y-5.9063
X9.7143Y-5.6593
X9.7307Y-6.5144
X9.7365Y-5.6929
X9.742Y-5.8784
X9.7571Y-5.7743
X9.7645Y-5.0609
X9.7732Y-6.3237
X9.7732Y-5.8422
X9.7828Y-6.1808
X9.7897Y-5.7512
X9.7921Y-6.5492
X9.803Y-5.4474
X9.8077Y-6.4883
X9.808Y-6.685
X9.8236Y-6.1182
X9.831Y-6.2004
X9.8539Y-5.8046
X9.8798Y-5.2826
X9.8958Y-5.509
X9.9122Y-5.3931
X9.9396Y-3.69
X10.0119Y-5.4945
X10.0204Y-6.598
X10.034Y-5.136
X10.0778Y-5.3876
X10.0941Y-6.6332
X10.1448Y-6.0019
X10.19Y-6.4969
X10.193Y-5.8739
X10.2304Y-5.5954
X10.2308Y-5.7617
X10.2441Y-5.9793
X10.2581Y-5.3922
X10.2588Y-5.2215
X10.267Y-5.2873
X10.2841Y-5.8589
X10.288Y-5.9374
X10.3146Y-3.0909
X10.3837Y-5.3922
X10.3928Y-6.6235
X10.4004Y-5.3205
X10.4186Y-5.5189
X10.423Y-5.3916
X10.4624Y-5.3822
X10.5413Y-6.5567
X10.5637Y-6.6872
X10.5875Y-5.3875
X10.6168Y-6.0788
X10.6213Y-6.4978
X10.6585Y-5.489
X10.6831Y-6.5129
X10.6891Y-6.4539
X10.6999Y-2.1249
X10.7078Y-1.9358
X10.7527Y-2.1372
X10.764Y-6.4308
X10.8663Y-1.9182
X11.029Y-6.5331
X11.0298Y-6.4074
X11.0817Y-3.7347
X11.0999Y-4.8508
X11.1018Y-1.9455
X11.1083Y-1.906
X11.125Y-6.625
X11.1851Y-5.8719
X11.2421Y-1.8273
X11.3175Y-6.6834
X11.3614Y-1.9055
X11.3735Y-5.8406
X11.378Y-6.5929
X11.4148Y-5.0836
X11.4309Y-6.2563
X11.4479Y-4.5472
X11.4492Y-2.0166
X11.4772Y-4.4
X11.5323Y-3.5557
X11.5609Y-3.7243
X11.5854Y-2.099
X11.6237Y-3.4028
X11.6694Y-2.4689
X11.7822Y-5.45
X11.9328Y-5.5438
X12.1666Y-2.0469
X12.1725Y-5.985
X12.4095Y-5.8768
X13.375Y-6.6759
X13.4949Y-6.6801
T2
X2.2516Y-5.925
X2.35Y-5.925
X3.975Y-4.9
X4.575Y-4.9
X11.9516Y-3.95
X12.05Y-3.95
X2.15Y-5.175
X2.15Y-5.275
X2.15Y-5.375
X2.15Y-5.475
X2.15Y-5.575
X2.15Y-5.675
X2.15Y-5.775
X2.45Y-5.175
X2.45Y-5.275
X2.45Y-5.375
X2.45Y-5.475
X2.45Y-5.575
X2.45Y-5.675
X2.45Y-5.775
X3.175Y-2.2766
X3.175Y-2.375
X11.85Y-3.2
X11.85Y-3.3
X11.85Y-3.4
X11.85Y-3.5
X11.85Y-3.6
X11.85Y-3.7
X11.85Y-3.8
X12.15Y-3.2
X12.15Y-3.3
X12.15Y-3.4
X12.15Y-3.5
X12.15Y-3.6
X12.15Y-3.7
X12.15Y-3.8
X10.9516Y-2.95
X11.05Y-2.95
X3.975Y-5.8
X4.575Y-5.8
X1.15Y-5.475
X1.15Y-5.5734
X10.85Y-2.2
X10.85Y-2.3
X10.85Y-2.4
X10.85Y-2.5
X10.85Y-2.6
X10.85Y-2.7
X10.85Y-2.8
X11.15Y-2.2
X11.15Y-2.3
X11.15Y-2.4
X11.15Y-2.5
X11.15Y-2.6
X11.15Y-2.7
X11.15Y-2.8
X3.4Y-4.225
X3.4Y-4.3234
X11.85Y-5.2
X11.85Y-5.3
X11.85Y-5.4
X11.85Y-5.5
X11.85Y-5.6
X11.85Y-5.7
X11.85Y-5.8
X12.15Y-5.2
X12.15Y-5.3
X12.15Y-5.4
X12.15Y-5.5
X12.15Y-5.6
X12.15Y-5.7
X12.15Y-5.8
X10.9516Y-3.95
X11.05Y-3.95
X3.975Y-5.55
X4.575Y-5.55
X9.9516Y-2.95
X10.05Y-2.95
X4.25Y-3.675
X4.3484Y-3.675
X10.85Y-3.2
X10.85Y-3.3
X10.85Y-3.4
X10.85Y-3.5
X10.85Y-3.6
X10.85Y-3.7
X10.85Y-3.8
X11.15Y-3.2
X11.15Y-3.3
X11.15Y-3.4
X11.15Y-3.5
X11.15Y-3.6
X11.15Y-3.7
X11.15Y-3.8
X10.9516Y-4.95
X11.05Y-4.95
X4.15Y-2.925
X4.15Y-3.025
X4.15Y-3.125
X4.15Y-3.225
X4.15Y-3.325
X4.15Y-3.425
X4.15Y-3.525
X4.45Y-2.925
X4.45Y-3.025
X4.45Y-3.125
X4.45Y-3.225
X4.45Y-3.325
X4.45Y-3.425
X4.45Y-3.525
X1.15Y-5.2766
X1.15Y-5.375
X11.9516Y-2.95
X12.05Y-2.95
X1.4Y-4.875
X1.4Y-4.975
X1.4Y-5.075
X1.4Y-5.175
X1.4Y-5.275
X1.4Y-5.375
X1.4Y-5.475
X1.4Y-5.575
X1.4Y-5.675
X1.4Y-5.775
X1.7Y-4.875
X1.7Y-4.975
X1.7Y-5.075
X1.7Y-5.175
X1.7Y-5.275
X1.7Y-5.375
X1.7Y-5.475
X1.7Y-5.575
X1.7Y-5.675
X1.7Y-5.775
X10.85Y-4.2
X10.85Y-4.3
X10.85Y-4.4
X10.85Y-4.5
X10.85Y-4.6
X10.85Y-4.7
X10.85Y-4.8
X11.15Y-4.2
X11.15Y-4.3
X11.15Y-4.4
X11.15Y-4.5
X11.15Y-4.6
X11.15Y-4.7
X11.15Y-4.8
X9.85Y-2.2
X9.85Y-2.3
X9.85Y-2.4
X9.85Y-2.5
X9.85Y-2.6
X9.85Y-2.7
X9.85Y-2.8
X10.15Y-2.2
X10.15Y-2.3
X10.15Y-2.4
X10.15Y-2.5
X10.15Y-2.6
X10.15Y-2.7
X10.15Y-2.8
X10.925Y-5.55
X10.925Y-5.6484
X11.85Y-2.2
X11.85Y-2.3
X11.85Y-2.4
X11.85Y-2.5
X11.85Y-2.6
X11.85Y-2.7
X11.85Y-2.8
X12.15Y-2.2
X12.15Y-2.3
X12.15Y-2.4
X12.15Y-2.5
X12.15Y-2.6
X12.15Y-2.7
X12.15Y-2.8
X11.9516Y-5.95
X12.05Y-5.95
X3.975Y-5.35
X4.575Y-5.35
X1.15Y-4.8766
X1.15Y-4.975
X2.9Y-5.175
X2.9Y-5.275
X2.9Y-5.375
X2.9Y-5.475
X2.9Y-5.575
X2.9Y-5.675
X2.9Y-5.775
X3.2Y-5.175
X3.2Y-5.275
X3.2Y-5.375
X3.2Y-5.475
X3.2Y-5.575
X3.2Y-5.675
X3.2Y-5.775
X3.175Y-3.225
X3.175Y-3.3234
X11.85Y-4.2
X11.85Y-4.3
X11.85Y-4.4
X11.85Y-4.5
X11.85Y-4.6
X11.85Y-4.7
X11.85Y-4.8
X12.15Y-4.2
X12.15Y-4.3
X12.15Y-4.4
X12.15Y-4.5
X12.15Y-4.6
X12.15Y-4.7
X12.15Y-4.8
X9.9516Y-3.95
X10.05Y-3.95
X3.975Y-5.1
X4.575Y-5.1
X11.9516Y-4.95
X12.05Y-4.95
X9.85Y-3.2
X9.85Y-3.3
X9.85Y-3.4
X9.85Y-3.5
X9.85Y-3.6
X9.85Y-3.7
X9.85Y-3.8
X10.15Y-3.2
X10.15Y-3.3
X10.15Y-3.4
X10.15Y-3.5
X10.15Y-3.6
X10.15Y-3.7
X10.15Y-3.8
X9.9516Y-4.95
X10.05Y-4.95
X3.975Y-6.0
X4.575Y-6.0
X1.15Y-5.0766
X1.15Y-5.175
X4.2516Y-4.675
X4.35Y-4.675
X9.85Y-4.2
X9.85Y-4.3
X9.85Y-4.4
X9.85Y-4.5
X9.85Y-4.6
X9.85Y-4.7
X9.85Y-4.8
X10.15Y-4.2
X10.15Y-4.3
X10.15Y-4.4
X10.15Y-4.5
X10.15Y-4.6
X10.15Y-4.7
X10.15Y-4.8
X3.0016Y-5.95
X3.1Y-5.95
X4.15Y-3.925
X4.15Y-4.025
X4.15Y-4.125
X4.15Y-4.225
X4.15Y-4.325
X4.15Y-4.425
X4.15Y-4.525
X4.45Y-3.925
X4.45Y-4.025
X4.45Y-4.125
X4.45Y-4.225
X4.45Y-4.325
X4.45Y-4.425
X4.45Y-4.525
T3
X-0.1Y-3.425
X-0.1Y-3.525
X0.0Y-3.425
X0.0Y-3.525
X0.1Y-3.425
X0.1Y-3.525
X0.2Y-3.425
X0.2Y-3.525
X0.3Y-3.425
X0.3Y-3.525
X0.4Y-3.425
X0.4Y-3.525
X0.5Y-3.425
X0.5Y-3.525
X0.6Y-3.425
X0.6Y-3.525
X0.7Y-3.425
X0.7Y-3.525
X0.8Y-3.425
X0.8Y-3.525
X0.9Y-3.425
X0.9Y-3.525
X1.0Y-3.425
X1.0Y-3.525
X1.1Y-3.425
X1.1Y-3.525
X1.2Y-3.425
X1.2Y-3.525
X1.3Y-3.425
X1.3Y-3.525
X1.4Y-3.425
X1.4Y-3.525
X10.85Y-6.2
X10.85Y-6.3
X5.2Y-6.325
X5.3Y-6.325
X5.4Y-6.325
X2.025Y-4.275
X2.025Y-4.375
X-0.1Y-2.825
X-0.1Y-2.925
X0.0Y-2.825
X0.0Y-2.925
X0.1Y-2.825
X0.1Y-2.925
X0.2Y-2.825
X0.2Y-2.925
X0.3Y-2.825
X0.3Y-2.925
X0.4Y-2.825
X0.4Y-2.925
X0.5Y-2.825
X0.5Y-2.925
X0.6Y-2.825
X0.6Y-2.925
X0.7Y-2.825
X0.7Y-2.925
X0.8Y-2.825
X0.8Y-2.925
X0.9Y-2.825
X0.9Y-2.925
X1.0Y-2.825
X1.0Y-2.925
X1.1Y-2.825
X1.1Y-2.925
X1.2Y-2.825
X1.2Y-2.925
X1.3Y-2.825
X1.3Y-2.925
X1.4Y-2.825
X1.4Y-2.925
X1.9Y-3.025
X1.9Y-3.125
X1.9Y-3.225
X1.9Y-3.325
X1.9Y-3.425
X1.9Y-3.525
X2.95Y-6.125
X3.05Y-6.125
X3.15Y-6.125
X-0.1Y-4.225
X-0.1Y-4.325
X0.0Y-4.225
X0.0Y-4.325
X0.1Y-4.225
X0.1Y-4.325
X0.2Y-4.225
X0.2Y-4.325
X0.3Y-4.225
X0.3Y-4.325
X0.4Y-4.225
X0.4Y-4.325
X0.5Y-4.225
X0.5Y-4.325
X0.6Y-4.225
X0.6Y-4.325
X0.7Y-4.225
X0.7Y-4.325
X0.8Y-4.225
X0.8Y-4.325
X0.9Y-4.225
X0.9Y-4.325
X1.0Y-4.225
X1.0Y-4.325
X1.1Y-4.225
X1.1Y-4.325
X1.2Y-4.225
X1.2Y-4.325
X1.3Y-4.225
X1.3Y-4.325
X1.4Y-4.225
X1.4Y-4.325
X1.9Y-2.4
X1.9Y-2.5
X-0.1Y-3.825
X-0.1Y-3.925
X0.0Y-3.825
X0.0Y-3.925
X0.1Y-3.825
X0.1Y-3.925
X0.2Y-3.825
X0.2Y-3.925
X0.3Y-3.825
X0.3Y-3.925
X0.4Y-3.825
X0.4Y-3.925
X0.5Y-3.825
X0.5Y-3.925
X0.6Y-3.825
X0.6Y-3.925
X0.7Y-3.825
X0.7Y-3.925
X0.8Y-3.825
X0.8Y-3.925
X0.9Y-3.825
X0.9Y-3.925
X1.0Y-3.825
X1.0Y-3.925
X1.1Y-3.825
X1.1Y-3.925
X1.2Y-3.825
X1.2Y-3.925
X1.3Y-3.825
X1.3Y-3.925
X1.4Y-3.825
X1.4Y-3.925
X10.45Y-6.2
X10.45Y-6.3
X6.0Y-5.775
X7.875Y-2.175
X7.875Y-2.275
X7.875Y-2.375
X7.875Y-2.475
X7.875Y-2.575
X7.875Y-2.675
X7.875Y-2.775
X7.875Y-2.875
X7.875Y-2.975
X7.875Y-3.075
X7.875Y-3.175
X7.875Y-3.275
X7.875Y-3.375
X7.875Y-3.475
X7.875Y-3.575
X7.875Y-3.675
X7.875Y-3.775
X7.875Y-3.875
X7.875Y-3.975
X7.875Y-4.075
X7.875Y-4.175
X7.875Y-4.275
X7.875Y-4.375
X7.875Y-4.475
X7.875Y-4.575
X7.875Y-4.675
X7.875Y-4.775
X7.875Y-4.875
X7.875Y-4.975
X7.875Y-5.075
X7.875Y-5.175
X7.875Y-5.275
X7.975Y-2.175
X7.975Y-2.275
X7.975Y-2.375
X7.975Y-2.475
X7.975Y-2.575
X7.975Y-2.675
X7.975Y-2.775
X7.975Y-2.875
X7.975Y-2.975
X7.975Y-3.075
X7.975Y-3.175
X7.975Y-3.275
X7.975Y-3.375
X7.975Y-3.475
X7.975Y-3.575
X7.975Y-3.675
X7.975Y-3.775
X7.975Y-3.875
X7.975Y-3.975
X7.975Y-4.075
X7.975Y-4.175
X7.975Y-4.275
X7.975Y-4.375
X7.975Y-4.475
X7.975Y-4.575
X7.975Y-4.675
X7.975Y-4.775
X7.975Y-4.875
X7.975Y-4.975
X7.975Y-5.075
X7.975Y-5.175
X7.975Y-5.275
X10.05Y-6.2
X10.05Y-6.3
X-0.1Y-4.425
X-0.1Y-4.525
X0.0Y-4.425
X0.0Y-4.525
X0.1Y-4.425
X0.1Y-4.525
X0.2Y-4.425
X0.2Y-4.525
X0.3Y-4.425
X0.3Y-4.525
X0.4Y-4.425
X0.4Y-4.525
X0.5Y-4.425
X0.5Y-4.525
X0.6Y-4.425
X0.6Y-4.525
X0.7Y-4.425
X0.7Y-4.525
X0.8Y-4.425
X0.8Y-4.525
X0.9Y-4.425
X0.9Y-4.525
X1.0Y-4.425
X1.0Y-4.525
X1.1Y-4.425
X1.1Y-4.525
X1.2Y-4.425
X1.2Y-4.525
X1.3Y-4.425
X1.3Y-4.525
X1.4Y-4.425
X1.4Y-4.525
X-0.1Y-3.025
X-0.1Y-3.125
X0.0Y-3.025
X0.0Y-3.125
X0.1Y-3.025
X0.1Y-3.125
X0.2Y-3.025
X0.2Y-3.125
X0.3Y-3.025
X0.3Y-3.125
X0.4Y-3.025
X0.4Y-3.125
X0.5Y-3.025
X0.5Y-3.125
X0.6Y-3.025
X0.6Y-3.125
X0.7Y-3.025
X0.7Y-3.125
X0.8Y-3.025
X0.8Y-3.125
X0.9Y-3.025
X0.9Y-3.125
X1.0Y-3.025
X1.0Y-3.125
X1.1Y-3.025
X1.1Y-3.125
X1.2Y-3.025
X1.2Y-3.125
X1.3Y-3.025
X1.3Y-3.125
X1.4Y-3.025
X1.4Y-3.125
X10.25Y-6.2
X10.25Y-6.3
X1.85Y-4.275
X1.85Y-4.375
X-0.1Y-2.625
X-0.1Y-2.725
X0.0Y-2.625
X0.0Y-2.725
X0.1Y-2.625
X0.1Y-2.725
X0.2Y-2.625
X0.2Y-2.725
X0.3Y-2.625
X0.3Y-2.725
X0.4Y-2.625
X0.4Y-2.725
X0.5Y-2.625
X0.5Y-2.725
X0.6Y-2.625
X0.6Y-2.725
X0.7Y-2.625
X0.7Y-2.725
X0.8Y-2.625
X0.8Y-2.725
X0.9Y-2.625
X0.9Y-2.725
X1.0Y-2.625
X1.0Y-2.725
X1.1Y-2.625
X1.1Y-2.725
X1.2Y-2.625
X1.2Y-2.725
X1.3Y-2.625
X1.3Y-2.725
X1.4Y-2.625
X1.4Y-2.725
X11.85Y-6.3
X11.95Y-6.3
X12.05Y-6.3
X0.2Y-5.025
X0.3Y-5.025
X0.4Y-5.025
X0.5Y-5.025
X-0.1Y-3.225
X-0.1Y-3.325
X0.0Y-3.225
X0.0Y-3.325
X0.1Y-3.225
X0.1Y-3.325
X0.2Y-3.225
X0.2Y-3.325
X0.3Y-3.225
X0.3Y-3.325
X0.4Y-3.225
X0.4Y-3.325
X0.5Y-3.225
X0.5Y-3.325
X0.6Y-3.225
X0.6Y-3.325
X0.7Y-3.225
X0.7Y-3.325
X0.8Y-3.225
X0.8Y-3.325
X0.9Y-3.225
X0.9Y-3.325
X1.0Y-3.225
X1.0Y-3.325
X1.1Y-3.225
X1.1Y-3.325
X1.2Y-3.225
X1.2Y-3.325
X1.3Y-3.225
X1.3Y-3.325
X1.4Y-3.225
X1.4Y-3.325
X4.675Y-2.925
X4.675Y-3.025
X3.4Y-3.025
X3.4Y-3.125
X3.4Y-3.225
X3.4Y-3.325
X3.4Y-3.425
X3.4Y-3.525
X0.3Y-5.45
X0.4Y-5.45
X5.475Y-2.175
X5.475Y-2.275
X5.475Y-2.375
X5.475Y-2.475
X5.475Y-2.575
X5.475Y-2.675
X5.475Y-2.775
X5.475Y-2.875
X5.475Y-2.975
X5.475Y-3.075
X5.475Y-3.175
X5.475Y-3.275
X5.475Y-3.375
X5.475Y-3.475
X5.475Y-3.575
X5.475Y-3.675
X5.475Y-3.775
X5.475Y-3.875
X5.475Y-3.975
X5.475Y-4.075
X5.475Y-4.175
X5.475Y-4.275
X5.475Y-4.375
X5.475Y-4.475
X5.475Y-4.575
X5.475Y-4.675
X5.475Y-4.775
X5.475Y-4.875
X5.475Y-4.975
X5.475Y-5.075
X5.475Y-5.175
X5.475Y-5.275
X5.575Y-2.175
X5.575Y-2.275
X5.575Y-2.375
X5.575Y-2.475
X5.575Y-2.575
X5.575Y-2.675
X5.575Y-2.775
X5.575Y-2.875
X5.575Y-2.975
X5.575Y-3.075
X5.575Y-3.175
X5.575Y-3.275
X5.575Y-3.375
X5.575Y-3.475
X5.575Y-3.575
X5.575Y-3.675
X5.575Y-3.775
X5.575Y-3.875
X5.575Y-3.975
X5.575Y-4.075
X5.575Y-4.175
X5.575Y-4.275
X5.575Y-4.375
X5.575Y-4.475
X5.575Y-4.575
X5.575Y-4.675
X5.575Y-4.775
X5.575Y-4.875
X5.575Y-4.975
X5.575Y-5.075
X5.575Y-5.175
X5.575Y-5.275
X-0.1Y-3.625
X-0.1Y-3.725
X0.0Y-3.625
X0.0Y-3.725
X0.1Y-3.625
X0.1Y-3.725
X0.2Y-3.625
X0.2Y-3.725
X0.3Y-3.625
X0.3Y-3.725
X0.4Y-3.625
X0.4Y-3.725
X0.5Y-3.625
X0.5Y-3.725
X0.6Y-3.625
X0.6Y-3.725
X0.7Y-3.625
X0.7Y-3.725
X0.8Y-3.625
X0.8Y-3.725
X0.9Y-3.625
X0.9Y-3.725
X1.0Y-3.625
X1.0Y-3.725
X1.1Y-3.625
X1.1Y-3.725
X1.2Y-3.625
X1.2Y-3.725
X1.3Y-3.625
X1.3Y-3.725
X1.4Y-3.625
X1.4Y-3.725
X1.675Y-2.4
X1.675Y-2.5
X-0.1Y-4.025
X-0.1Y-4.125
X0.0Y-4.025
X0.0Y-4.125
X0.1Y-4.025
X0.1Y-4.125
X0.2Y-4.025
X0.2Y-4.125
X0.3Y-4.025
X0.3Y-4.125
X0.4Y-4.025
X0.4Y-4.125
X0.5Y-4.025
X0.5Y-4.125
X0.6Y-4.025
X0.6Y-4.125
X0.7Y-4.025
X0.7Y-4.125
X0.8Y-4.025
X0.8Y-4.125
X0.9Y-4.025
X0.9Y-4.125
X1.0Y-4.025
X1.0Y-4.125
X1.1Y-4.025
X1.1Y-4.125
X1.2Y-4.025
X1.2Y-4.125
X1.3Y-4.025
X1.3Y-4.125
X1.4Y-4.025
X1.4Y-4.125
X10.65Y-6.2
X10.65Y-6.3
X9.025Y-2.075
X9.025Y-2.175
X9.025Y-2.275
X9.025Y-2.375
X9.025Y-2.475
X9.025Y-2.575
X9.025Y-2.675
X9.025Y-2.775
X9.025Y-2.875
X9.025Y-2.975
X9.025Y-3.075
X9.025Y-3.175
X9.025Y-3.275
X9.025Y-3.375
X9.025Y-3.475
X9.025Y-3.575
X9.025Y-3.675
X9.025Y-3.775
X9.025Y-3.875
X9.025Y-3.975
X9.025Y-4.075
X9.025Y-4.175
X9.025Y-4.275
X9.025Y-4.375
X9.025Y-4.475
X9.025Y-4.575
X9.025Y-4.675
X9.025Y-4.775
X9.025Y-4.875
X9.025Y-4.975
X9.025Y-5.075
X9.025Y-5.175
X9.025Y-5.275
X9.025Y-5.375
X9.025Y-5.475
X9.025Y-5.575
X9.025Y-5.675
X9.025Y-5.775
X9.125Y-2.075
X9.125Y-2.175
X9.125Y-2.275
X9.125Y-2.375
X9.125Y-2.475
X9.125Y-2.575
X9.125Y-2.675
X9.125Y-2.775
X9.125Y-2.875
X9.125Y-2.975
X9.125Y-3.075
X9.125Y-3.175
X9.125Y-3.275
X9.125Y-3.375
X9.125Y-3.475
X9.125Y-3.575
X9.125Y-3.675
X9.125Y-3.775
X9.125Y-3.875
X9.125Y-3.975
X9.125Y-4.075
X9.125Y-4.175
X9.125Y-4.275
X9.125Y-4.375
X9.125Y-4.475
X9.125Y-4.575
X9.125Y-4.675
X9.125Y-4.775
X9.125Y-4.875
X9.125Y-4.975
X9.125Y-5.075
X9.125Y-5.175
X9.125Y-5.275
X9.125Y-5.375
X9.125Y-5.475
X9.125Y-5.575
X9.125Y-5.675
X9.125Y-5.775
T4
X7.3Y-5.7
X7.3Y-5.8
X7.3Y-5.9
T5
X4.8528Y-2.4112
T6
X4.026Y-2.4112
T7
X6.6441Y-5.8
T0
M30
