G04 #@! TF.GenerationSoftware,KiCad,Pcbnew,(5.1.5)-3*
G04 #@! TF.CreationDate,2023-07-18T22:41:28-04:00*
G04 #@! TF.ProjectId,NovaFPGA,4e6f7661-4650-4474-912e-6b696361645f,rev?*
G04 #@! TF.SameCoordinates,Original*
G04 #@! TF.FileFunction,Profile,NP*
%FSLAX46Y46*%
G04 Gerber Fmt 4.6, Leading zero omitted, Abs format (unit mm)*
G04 Created by KiCad (PCBNEW (5.1.5)-3) date 2023-07-18 22:41:28*
%MOMM*%
%LPD*%
G04 APERTURE LIST*
%ADD10C,0.050000*%
G04 APERTURE END LIST*
D10*
X71755000Y-168910000D02*
X72390000Y-168910000D01*
X242570000Y-168910000D02*
X243205000Y-168910000D01*
X241935000Y-169545000D02*
G75*
G02X242570000Y-168910000I635000J0D01*
G01*
X243205000Y-168910000D02*
G75*
G02X243840000Y-169545000I0J-635000D01*
G01*
X71120000Y-169545000D02*
G75*
G02X71755000Y-168910000I635000J0D01*
G01*
X72390000Y-168910000D02*
G75*
G02X73025000Y-169545000I0J-635000D01*
G01*
X244475000Y-178435000D02*
X343535000Y-178435000D01*
X243840000Y-169545000D02*
X243840000Y-177800000D01*
X241935000Y-177800000D02*
X241935000Y-169545000D01*
X73660000Y-178435000D02*
X153670000Y-178435000D01*
X73025000Y-169545000D02*
X73025000Y-177800000D01*
X71120000Y-177800000D02*
X71120000Y-169545000D01*
X73660000Y-178435000D02*
G75*
G02X73025000Y-177800000I0J635000D01*
G01*
X71120000Y-177800000D02*
G75*
G02X70485000Y-178435000I-635000J0D01*
G01*
X244475000Y-178435000D02*
G75*
G02X243840000Y-177800000I0J635000D01*
G01*
X241935000Y-177800000D02*
G75*
G02X241300000Y-178435000I-635000J0D01*
G01*
X186690000Y-178435000D02*
X241300000Y-178435000D01*
X154305000Y-171450000D02*
X154305000Y-177800000D01*
X185420000Y-170815000D02*
X154940000Y-170815000D01*
X186055000Y-171450000D02*
X186055000Y-177800000D01*
X185420000Y-170815000D02*
G75*
G02X186055000Y-171450000I0J-635000D01*
G01*
X-22860000Y-170815000D02*
G75*
G02X-23495000Y-170180000I0J635000D01*
G01*
X-4445000Y-170815000D02*
G75*
G02X-3810000Y-171450000I0J-635000D01*
G01*
X-3175000Y-178435000D02*
G75*
G02X-3810000Y-177800000I0J635000D01*
G01*
X-22860000Y-170815000D02*
X-4445000Y-170815000D01*
X-3810000Y-171450000D02*
X-3810000Y-177800000D01*
X-3175000Y-178435000D02*
X70485000Y-178435000D01*
X344805000Y-170815000D02*
X356870000Y-170815000D01*
X344170000Y-177800000D02*
G75*
G02X343535000Y-178435000I-635000J0D01*
G01*
X357505000Y-170180000D02*
G75*
G02X356870000Y-170815000I-635000J0D01*
G01*
X344170000Y-171450000D02*
G75*
G02X344805000Y-170815000I635000J0D01*
G01*
X344170000Y-177800000D02*
X344170000Y-171450000D01*
X154305000Y-177800000D02*
G75*
G02X153670000Y-178435000I-635000J0D01*
G01*
X186690000Y-178435000D02*
G75*
G02X186055000Y-177800000I0J635000D01*
G01*
X154305000Y-171450000D02*
G75*
G02X154940000Y-170815000I635000J0D01*
G01*
X-23495000Y-38100000D02*
X357505000Y-38100000D01*
X-23495000Y-170180000D02*
X-23495000Y-38100000D01*
X357505000Y-170180000D02*
X357505000Y-38100000D01*
M02*
