G04 #@! TF.GenerationSoftware,KiCad,Pcbnew,(5.1.5)-3*
G04 #@! TF.CreationDate,2023-07-18T22:41:28-04:00*
G04 #@! TF.ProjectId,NovaFPGA,4e6f7661-4650-4474-912e-6b696361645f,rev?*
G04 #@! TF.SameCoordinates,Original*
G04 #@! TF.FileFunction,Legend,Bot*
G04 #@! TF.FilePolarity,Positive*
%FSLAX46Y46*%
G04 Gerber Fmt 4.6, Leading zero omitted, Abs format (unit mm)*
G04 Created by KiCad (PCBNEW (5.1.5)-3) date 2023-07-18 22:41:28*
%MOMM*%
%LPD*%
G04 APERTURE LIST*
%ADD10C,0.300000*%
%ADD11C,0.150000*%
G04 APERTURE END LIST*
D10*
X-2111428Y-167596428D02*
X-2182857Y-167525000D01*
X-2325714Y-167453571D01*
X-2682857Y-167453571D01*
X-2825714Y-167525000D01*
X-2897142Y-167596428D01*
X-2968571Y-167739285D01*
X-2968571Y-167882142D01*
X-2897142Y-168096428D01*
X-2040000Y-168953571D01*
X-2968571Y-168953571D01*
X69643571Y-167953571D02*
X69643571Y-168953571D01*
X70000714Y-167382142D02*
X70357857Y-168453571D01*
X69429285Y-168453571D01*
X68643571Y-168096428D02*
X68786428Y-168025000D01*
X68857857Y-167953571D01*
X68929285Y-167810714D01*
X68929285Y-167739285D01*
X68857857Y-167596428D01*
X68786428Y-167525000D01*
X68643571Y-167453571D01*
X68357857Y-167453571D01*
X68215000Y-167525000D01*
X68143571Y-167596428D01*
X68072142Y-167739285D01*
X68072142Y-167810714D01*
X68143571Y-167953571D01*
X68215000Y-168025000D01*
X68357857Y-168096428D01*
X68643571Y-168096428D01*
X68786428Y-168167857D01*
X68857857Y-168239285D01*
X68929285Y-168382142D01*
X68929285Y-168667857D01*
X68857857Y-168810714D01*
X68786428Y-168882142D01*
X68643571Y-168953571D01*
X68357857Y-168953571D01*
X68215000Y-168882142D01*
X68143571Y-168810714D01*
X68072142Y-168667857D01*
X68072142Y-168382142D01*
X68143571Y-168239285D01*
X68215000Y-168167857D01*
X68357857Y-168096428D01*
X75287142Y-167453571D02*
X76001428Y-167453571D01*
X76072857Y-168167857D01*
X76001428Y-168096428D01*
X75858571Y-168025000D01*
X75501428Y-168025000D01*
X75358571Y-168096428D01*
X75287142Y-168167857D01*
X75215714Y-168310714D01*
X75215714Y-168667857D01*
X75287142Y-168810714D01*
X75358571Y-168882142D01*
X75501428Y-168953571D01*
X75858571Y-168953571D01*
X76001428Y-168882142D01*
X76072857Y-168810714D01*
X74287142Y-167453571D02*
X74144285Y-167453571D01*
X74001428Y-167525000D01*
X73930000Y-167596428D01*
X73858571Y-167739285D01*
X73787142Y-168025000D01*
X73787142Y-168382142D01*
X73858571Y-168667857D01*
X73930000Y-168810714D01*
X74001428Y-168882142D01*
X74144285Y-168953571D01*
X74287142Y-168953571D01*
X74430000Y-168882142D01*
X74501428Y-168810714D01*
X74572857Y-168667857D01*
X74644285Y-168382142D01*
X74644285Y-168025000D01*
X74572857Y-167739285D01*
X74501428Y-167596428D01*
X74430000Y-167525000D01*
X74287142Y-167453571D01*
X153400000Y-168953571D02*
X154257142Y-168953571D01*
X153828571Y-168953571D02*
X153828571Y-167453571D01*
X153971428Y-167667857D01*
X154114285Y-167810714D01*
X154257142Y-167882142D01*
X152471428Y-167453571D02*
X152328571Y-167453571D01*
X152185714Y-167525000D01*
X152114285Y-167596428D01*
X152042857Y-167739285D01*
X151971428Y-168025000D01*
X151971428Y-168382142D01*
X152042857Y-168667857D01*
X152114285Y-168810714D01*
X152185714Y-168882142D01*
X152328571Y-168953571D01*
X152471428Y-168953571D01*
X152614285Y-168882142D01*
X152685714Y-168810714D01*
X152757142Y-168667857D01*
X152828571Y-168382142D01*
X152828571Y-168025000D01*
X152757142Y-167739285D01*
X152685714Y-167596428D01*
X152614285Y-167525000D01*
X152471428Y-167453571D01*
X151042857Y-167453571D02*
X150900000Y-167453571D01*
X150757142Y-167525000D01*
X150685714Y-167596428D01*
X150614285Y-167739285D01*
X150542857Y-168025000D01*
X150542857Y-168382142D01*
X150614285Y-168667857D01*
X150685714Y-168810714D01*
X150757142Y-168882142D01*
X150900000Y-168953571D01*
X151042857Y-168953571D01*
X151185714Y-168882142D01*
X151257142Y-168810714D01*
X151328571Y-168667857D01*
X151400000Y-168382142D01*
X151400000Y-168025000D01*
X151328571Y-167739285D01*
X151257142Y-167596428D01*
X151185714Y-167525000D01*
X151042857Y-167453571D01*
X187753571Y-167596428D02*
X187682142Y-167525000D01*
X187539285Y-167453571D01*
X187182142Y-167453571D01*
X187039285Y-167525000D01*
X186967857Y-167596428D01*
X186896428Y-167739285D01*
X186896428Y-167882142D01*
X186967857Y-168096428D01*
X187825000Y-168953571D01*
X186896428Y-168953571D01*
X241244285Y-167453571D02*
X240315714Y-167453571D01*
X240815714Y-168025000D01*
X240601428Y-168025000D01*
X240458571Y-168096428D01*
X240387142Y-168167857D01*
X240315714Y-168310714D01*
X240315714Y-168667857D01*
X240387142Y-168810714D01*
X240458571Y-168882142D01*
X240601428Y-168953571D01*
X241030000Y-168953571D01*
X241172857Y-168882142D01*
X241244285Y-168810714D01*
X239030000Y-167453571D02*
X239315714Y-167453571D01*
X239458571Y-167525000D01*
X239530000Y-167596428D01*
X239672857Y-167810714D01*
X239744285Y-168096428D01*
X239744285Y-168667857D01*
X239672857Y-168810714D01*
X239601428Y-168882142D01*
X239458571Y-168953571D01*
X239172857Y-168953571D01*
X239030000Y-168882142D01*
X238958571Y-168810714D01*
X238887142Y-168667857D01*
X238887142Y-168310714D01*
X238958571Y-168167857D01*
X239030000Y-168096428D01*
X239172857Y-168025000D01*
X239458571Y-168025000D01*
X239601428Y-168096428D01*
X239672857Y-168167857D01*
X239744285Y-168310714D01*
X246959285Y-167453571D02*
X246030714Y-167453571D01*
X246530714Y-168025000D01*
X246316428Y-168025000D01*
X246173571Y-168096428D01*
X246102142Y-168167857D01*
X246030714Y-168310714D01*
X246030714Y-168667857D01*
X246102142Y-168810714D01*
X246173571Y-168882142D01*
X246316428Y-168953571D01*
X246745000Y-168953571D01*
X246887857Y-168882142D01*
X246959285Y-168810714D01*
X245173571Y-168096428D02*
X245316428Y-168025000D01*
X245387857Y-167953571D01*
X245459285Y-167810714D01*
X245459285Y-167739285D01*
X245387857Y-167596428D01*
X245316428Y-167525000D01*
X245173571Y-167453571D01*
X244887857Y-167453571D01*
X244745000Y-167525000D01*
X244673571Y-167596428D01*
X244602142Y-167739285D01*
X244602142Y-167810714D01*
X244673571Y-167953571D01*
X244745000Y-168025000D01*
X244887857Y-168096428D01*
X245173571Y-168096428D01*
X245316428Y-168167857D01*
X245387857Y-168239285D01*
X245459285Y-168382142D01*
X245459285Y-168667857D01*
X245387857Y-168810714D01*
X245316428Y-168882142D01*
X245173571Y-168953571D01*
X244887857Y-168953571D01*
X244745000Y-168882142D01*
X244673571Y-168810714D01*
X244602142Y-168667857D01*
X244602142Y-168382142D01*
X244673571Y-168239285D01*
X244745000Y-168167857D01*
X244887857Y-168096428D01*
X343900000Y-168953571D02*
X344757142Y-168953571D01*
X344328571Y-168953571D02*
X344328571Y-167453571D01*
X344471428Y-167667857D01*
X344614285Y-167810714D01*
X344757142Y-167882142D01*
X342971428Y-167453571D02*
X342828571Y-167453571D01*
X342685714Y-167525000D01*
X342614285Y-167596428D01*
X342542857Y-167739285D01*
X342471428Y-168025000D01*
X342471428Y-168382142D01*
X342542857Y-168667857D01*
X342614285Y-168810714D01*
X342685714Y-168882142D01*
X342828571Y-168953571D01*
X342971428Y-168953571D01*
X343114285Y-168882142D01*
X343185714Y-168810714D01*
X343257142Y-168667857D01*
X343328571Y-168382142D01*
X343328571Y-168025000D01*
X343257142Y-167739285D01*
X343185714Y-167596428D01*
X343114285Y-167525000D01*
X342971428Y-167453571D01*
X341542857Y-167453571D02*
X341400000Y-167453571D01*
X341257142Y-167525000D01*
X341185714Y-167596428D01*
X341114285Y-167739285D01*
X341042857Y-168025000D01*
X341042857Y-168382142D01*
X341114285Y-168667857D01*
X341185714Y-168810714D01*
X341257142Y-168882142D01*
X341400000Y-168953571D01*
X341542857Y-168953571D01*
X341685714Y-168882142D01*
X341757142Y-168810714D01*
X341828571Y-168667857D01*
X341900000Y-168382142D01*
X341900000Y-168025000D01*
X341828571Y-167739285D01*
X341757142Y-167596428D01*
X341685714Y-167525000D01*
X341542857Y-167453571D01*
D11*
X11350476Y-169076666D02*
X10874285Y-169076666D01*
X11445714Y-169362380D02*
X11112380Y-168362380D01*
X10779047Y-169362380D01*
X9921904Y-169362380D02*
X10493333Y-169362380D01*
X10207619Y-169362380D02*
X10207619Y-168362380D01*
X10302857Y-168505238D01*
X10398095Y-168600476D01*
X10493333Y-168648095D01*
X9302857Y-168362380D02*
X9207619Y-168362380D01*
X9112380Y-168410000D01*
X9064761Y-168457619D01*
X9017142Y-168552857D01*
X8969523Y-168743333D01*
X8969523Y-168981428D01*
X9017142Y-169171904D01*
X9064761Y-169267142D01*
X9112380Y-169314761D01*
X9207619Y-169362380D01*
X9302857Y-169362380D01*
X9398095Y-169314761D01*
X9445714Y-169267142D01*
X9493333Y-169171904D01*
X9540952Y-168981428D01*
X9540952Y-168743333D01*
X9493333Y-168552857D01*
X9445714Y-168457619D01*
X9398095Y-168410000D01*
X9302857Y-168362380D01*
X27225476Y-169076666D02*
X26749285Y-169076666D01*
X27320714Y-169362380D02*
X26987380Y-168362380D01*
X26654047Y-169362380D01*
X26368333Y-168457619D02*
X26320714Y-168410000D01*
X26225476Y-168362380D01*
X25987380Y-168362380D01*
X25892142Y-168410000D01*
X25844523Y-168457619D01*
X25796904Y-168552857D01*
X25796904Y-168648095D01*
X25844523Y-168790952D01*
X26415952Y-169362380D01*
X25796904Y-169362380D01*
X25177857Y-168362380D02*
X25082619Y-168362380D01*
X24987380Y-168410000D01*
X24939761Y-168457619D01*
X24892142Y-168552857D01*
X24844523Y-168743333D01*
X24844523Y-168981428D01*
X24892142Y-169171904D01*
X24939761Y-169267142D01*
X24987380Y-169314761D01*
X25082619Y-169362380D01*
X25177857Y-169362380D01*
X25273095Y-169314761D01*
X25320714Y-169267142D01*
X25368333Y-169171904D01*
X25415952Y-168981428D01*
X25415952Y-168743333D01*
X25368333Y-168552857D01*
X25320714Y-168457619D01*
X25273095Y-168410000D01*
X25177857Y-168362380D01*
X43100476Y-169076666D02*
X42624285Y-169076666D01*
X43195714Y-169362380D02*
X42862380Y-168362380D01*
X42529047Y-169362380D01*
X42290952Y-168362380D02*
X41671904Y-168362380D01*
X42005238Y-168743333D01*
X41862380Y-168743333D01*
X41767142Y-168790952D01*
X41719523Y-168838571D01*
X41671904Y-168933809D01*
X41671904Y-169171904D01*
X41719523Y-169267142D01*
X41767142Y-169314761D01*
X41862380Y-169362380D01*
X42148095Y-169362380D01*
X42243333Y-169314761D01*
X42290952Y-169267142D01*
X41052857Y-168362380D02*
X40957619Y-168362380D01*
X40862380Y-168410000D01*
X40814761Y-168457619D01*
X40767142Y-168552857D01*
X40719523Y-168743333D01*
X40719523Y-168981428D01*
X40767142Y-169171904D01*
X40814761Y-169267142D01*
X40862380Y-169314761D01*
X40957619Y-169362380D01*
X41052857Y-169362380D01*
X41148095Y-169314761D01*
X41195714Y-169267142D01*
X41243333Y-169171904D01*
X41290952Y-168981428D01*
X41290952Y-168743333D01*
X41243333Y-168552857D01*
X41195714Y-168457619D01*
X41148095Y-168410000D01*
X41052857Y-168362380D01*
X58975476Y-169076666D02*
X58499285Y-169076666D01*
X59070714Y-169362380D02*
X58737380Y-168362380D01*
X58404047Y-169362380D01*
X57642142Y-168695714D02*
X57642142Y-169362380D01*
X57880238Y-168314761D02*
X58118333Y-169029047D01*
X57499285Y-169029047D01*
X56927857Y-168362380D02*
X56832619Y-168362380D01*
X56737380Y-168410000D01*
X56689761Y-168457619D01*
X56642142Y-168552857D01*
X56594523Y-168743333D01*
X56594523Y-168981428D01*
X56642142Y-169171904D01*
X56689761Y-169267142D01*
X56737380Y-169314761D01*
X56832619Y-169362380D01*
X56927857Y-169362380D01*
X57023095Y-169314761D01*
X57070714Y-169267142D01*
X57118333Y-169171904D01*
X57165952Y-168981428D01*
X57165952Y-168743333D01*
X57118333Y-168552857D01*
X57070714Y-168457619D01*
X57023095Y-168410000D01*
X56927857Y-168362380D01*
X90725476Y-169076666D02*
X90249285Y-169076666D01*
X90820714Y-169362380D02*
X90487380Y-168362380D01*
X90154047Y-169362380D01*
X89392142Y-168362380D02*
X89582619Y-168362380D01*
X89677857Y-168410000D01*
X89725476Y-168457619D01*
X89820714Y-168600476D01*
X89868333Y-168790952D01*
X89868333Y-169171904D01*
X89820714Y-169267142D01*
X89773095Y-169314761D01*
X89677857Y-169362380D01*
X89487380Y-169362380D01*
X89392142Y-169314761D01*
X89344523Y-169267142D01*
X89296904Y-169171904D01*
X89296904Y-168933809D01*
X89344523Y-168838571D01*
X89392142Y-168790952D01*
X89487380Y-168743333D01*
X89677857Y-168743333D01*
X89773095Y-168790952D01*
X89820714Y-168838571D01*
X89868333Y-168933809D01*
X88677857Y-168362380D02*
X88582619Y-168362380D01*
X88487380Y-168410000D01*
X88439761Y-168457619D01*
X88392142Y-168552857D01*
X88344523Y-168743333D01*
X88344523Y-168981428D01*
X88392142Y-169171904D01*
X88439761Y-169267142D01*
X88487380Y-169314761D01*
X88582619Y-169362380D01*
X88677857Y-169362380D01*
X88773095Y-169314761D01*
X88820714Y-169267142D01*
X88868333Y-169171904D01*
X88915952Y-168981428D01*
X88915952Y-168743333D01*
X88868333Y-168552857D01*
X88820714Y-168457619D01*
X88773095Y-168410000D01*
X88677857Y-168362380D01*
X106600476Y-169076666D02*
X106124285Y-169076666D01*
X106695714Y-169362380D02*
X106362380Y-168362380D01*
X106029047Y-169362380D01*
X105790952Y-168362380D02*
X105124285Y-168362380D01*
X105552857Y-169362380D01*
X104552857Y-168362380D02*
X104457619Y-168362380D01*
X104362380Y-168410000D01*
X104314761Y-168457619D01*
X104267142Y-168552857D01*
X104219523Y-168743333D01*
X104219523Y-168981428D01*
X104267142Y-169171904D01*
X104314761Y-169267142D01*
X104362380Y-169314761D01*
X104457619Y-169362380D01*
X104552857Y-169362380D01*
X104648095Y-169314761D01*
X104695714Y-169267142D01*
X104743333Y-169171904D01*
X104790952Y-168981428D01*
X104790952Y-168743333D01*
X104743333Y-168552857D01*
X104695714Y-168457619D01*
X104648095Y-168410000D01*
X104552857Y-168362380D01*
X122475476Y-169076666D02*
X121999285Y-169076666D01*
X122570714Y-169362380D02*
X122237380Y-168362380D01*
X121904047Y-169362380D01*
X121427857Y-168790952D02*
X121523095Y-168743333D01*
X121570714Y-168695714D01*
X121618333Y-168600476D01*
X121618333Y-168552857D01*
X121570714Y-168457619D01*
X121523095Y-168410000D01*
X121427857Y-168362380D01*
X121237380Y-168362380D01*
X121142142Y-168410000D01*
X121094523Y-168457619D01*
X121046904Y-168552857D01*
X121046904Y-168600476D01*
X121094523Y-168695714D01*
X121142142Y-168743333D01*
X121237380Y-168790952D01*
X121427857Y-168790952D01*
X121523095Y-168838571D01*
X121570714Y-168886190D01*
X121618333Y-168981428D01*
X121618333Y-169171904D01*
X121570714Y-169267142D01*
X121523095Y-169314761D01*
X121427857Y-169362380D01*
X121237380Y-169362380D01*
X121142142Y-169314761D01*
X121094523Y-169267142D01*
X121046904Y-169171904D01*
X121046904Y-168981428D01*
X121094523Y-168886190D01*
X121142142Y-168838571D01*
X121237380Y-168790952D01*
X120427857Y-168362380D02*
X120332619Y-168362380D01*
X120237380Y-168410000D01*
X120189761Y-168457619D01*
X120142142Y-168552857D01*
X120094523Y-168743333D01*
X120094523Y-168981428D01*
X120142142Y-169171904D01*
X120189761Y-169267142D01*
X120237380Y-169314761D01*
X120332619Y-169362380D01*
X120427857Y-169362380D01*
X120523095Y-169314761D01*
X120570714Y-169267142D01*
X120618333Y-169171904D01*
X120665952Y-168981428D01*
X120665952Y-168743333D01*
X120618333Y-168552857D01*
X120570714Y-168457619D01*
X120523095Y-168410000D01*
X120427857Y-168362380D01*
X138350476Y-169076666D02*
X137874285Y-169076666D01*
X138445714Y-169362380D02*
X138112380Y-168362380D01*
X137779047Y-169362380D01*
X137398095Y-169362380D02*
X137207619Y-169362380D01*
X137112380Y-169314761D01*
X137064761Y-169267142D01*
X136969523Y-169124285D01*
X136921904Y-168933809D01*
X136921904Y-168552857D01*
X136969523Y-168457619D01*
X137017142Y-168410000D01*
X137112380Y-168362380D01*
X137302857Y-168362380D01*
X137398095Y-168410000D01*
X137445714Y-168457619D01*
X137493333Y-168552857D01*
X137493333Y-168790952D01*
X137445714Y-168886190D01*
X137398095Y-168933809D01*
X137302857Y-168981428D01*
X137112380Y-168981428D01*
X137017142Y-168933809D01*
X136969523Y-168886190D01*
X136921904Y-168790952D01*
X136302857Y-168362380D02*
X136207619Y-168362380D01*
X136112380Y-168410000D01*
X136064761Y-168457619D01*
X136017142Y-168552857D01*
X135969523Y-168743333D01*
X135969523Y-168981428D01*
X136017142Y-169171904D01*
X136064761Y-169267142D01*
X136112380Y-169314761D01*
X136207619Y-169362380D01*
X136302857Y-169362380D01*
X136398095Y-169314761D01*
X136445714Y-169267142D01*
X136493333Y-169171904D01*
X136540952Y-168981428D01*
X136540952Y-168743333D01*
X136493333Y-168552857D01*
X136445714Y-168457619D01*
X136398095Y-168410000D01*
X136302857Y-168362380D01*
X200905952Y-168838571D02*
X200763095Y-168886190D01*
X200715476Y-168933809D01*
X200667857Y-169029047D01*
X200667857Y-169171904D01*
X200715476Y-169267142D01*
X200763095Y-169314761D01*
X200858333Y-169362380D01*
X201239285Y-169362380D01*
X201239285Y-168362380D01*
X200905952Y-168362380D01*
X200810714Y-168410000D01*
X200763095Y-168457619D01*
X200715476Y-168552857D01*
X200715476Y-168648095D01*
X200763095Y-168743333D01*
X200810714Y-168790952D01*
X200905952Y-168838571D01*
X201239285Y-168838571D01*
X199715476Y-169362380D02*
X200286904Y-169362380D01*
X200001190Y-169362380D02*
X200001190Y-168362380D01*
X200096428Y-168505238D01*
X200191666Y-168600476D01*
X200286904Y-168648095D01*
X199096428Y-168362380D02*
X199001190Y-168362380D01*
X198905952Y-168410000D01*
X198858333Y-168457619D01*
X198810714Y-168552857D01*
X198763095Y-168743333D01*
X198763095Y-168981428D01*
X198810714Y-169171904D01*
X198858333Y-169267142D01*
X198905952Y-169314761D01*
X199001190Y-169362380D01*
X199096428Y-169362380D01*
X199191666Y-169314761D01*
X199239285Y-169267142D01*
X199286904Y-169171904D01*
X199334523Y-168981428D01*
X199334523Y-168743333D01*
X199286904Y-168552857D01*
X199239285Y-168457619D01*
X199191666Y-168410000D01*
X199096428Y-168362380D01*
X216780952Y-168838571D02*
X216638095Y-168886190D01*
X216590476Y-168933809D01*
X216542857Y-169029047D01*
X216542857Y-169171904D01*
X216590476Y-169267142D01*
X216638095Y-169314761D01*
X216733333Y-169362380D01*
X217114285Y-169362380D01*
X217114285Y-168362380D01*
X216780952Y-168362380D01*
X216685714Y-168410000D01*
X216638095Y-168457619D01*
X216590476Y-168552857D01*
X216590476Y-168648095D01*
X216638095Y-168743333D01*
X216685714Y-168790952D01*
X216780952Y-168838571D01*
X217114285Y-168838571D01*
X216161904Y-168457619D02*
X216114285Y-168410000D01*
X216019047Y-168362380D01*
X215780952Y-168362380D01*
X215685714Y-168410000D01*
X215638095Y-168457619D01*
X215590476Y-168552857D01*
X215590476Y-168648095D01*
X215638095Y-168790952D01*
X216209523Y-169362380D01*
X215590476Y-169362380D01*
X214971428Y-168362380D02*
X214876190Y-168362380D01*
X214780952Y-168410000D01*
X214733333Y-168457619D01*
X214685714Y-168552857D01*
X214638095Y-168743333D01*
X214638095Y-168981428D01*
X214685714Y-169171904D01*
X214733333Y-169267142D01*
X214780952Y-169314761D01*
X214876190Y-169362380D01*
X214971428Y-169362380D01*
X215066666Y-169314761D01*
X215114285Y-169267142D01*
X215161904Y-169171904D01*
X215209523Y-168981428D01*
X215209523Y-168743333D01*
X215161904Y-168552857D01*
X215114285Y-168457619D01*
X215066666Y-168410000D01*
X214971428Y-168362380D01*
X232655952Y-168838571D02*
X232513095Y-168886190D01*
X232465476Y-168933809D01*
X232417857Y-169029047D01*
X232417857Y-169171904D01*
X232465476Y-169267142D01*
X232513095Y-169314761D01*
X232608333Y-169362380D01*
X232989285Y-169362380D01*
X232989285Y-168362380D01*
X232655952Y-168362380D01*
X232560714Y-168410000D01*
X232513095Y-168457619D01*
X232465476Y-168552857D01*
X232465476Y-168648095D01*
X232513095Y-168743333D01*
X232560714Y-168790952D01*
X232655952Y-168838571D01*
X232989285Y-168838571D01*
X232084523Y-168362380D02*
X231465476Y-168362380D01*
X231798809Y-168743333D01*
X231655952Y-168743333D01*
X231560714Y-168790952D01*
X231513095Y-168838571D01*
X231465476Y-168933809D01*
X231465476Y-169171904D01*
X231513095Y-169267142D01*
X231560714Y-169314761D01*
X231655952Y-169362380D01*
X231941666Y-169362380D01*
X232036904Y-169314761D01*
X232084523Y-169267142D01*
X230846428Y-168362380D02*
X230751190Y-168362380D01*
X230655952Y-168410000D01*
X230608333Y-168457619D01*
X230560714Y-168552857D01*
X230513095Y-168743333D01*
X230513095Y-168981428D01*
X230560714Y-169171904D01*
X230608333Y-169267142D01*
X230655952Y-169314761D01*
X230751190Y-169362380D01*
X230846428Y-169362380D01*
X230941666Y-169314761D01*
X230989285Y-169267142D01*
X231036904Y-169171904D01*
X231084523Y-168981428D01*
X231084523Y-168743333D01*
X231036904Y-168552857D01*
X230989285Y-168457619D01*
X230941666Y-168410000D01*
X230846428Y-168362380D01*
X264405952Y-168838571D02*
X264263095Y-168886190D01*
X264215476Y-168933809D01*
X264167857Y-169029047D01*
X264167857Y-169171904D01*
X264215476Y-169267142D01*
X264263095Y-169314761D01*
X264358333Y-169362380D01*
X264739285Y-169362380D01*
X264739285Y-168362380D01*
X264405952Y-168362380D01*
X264310714Y-168410000D01*
X264263095Y-168457619D01*
X264215476Y-168552857D01*
X264215476Y-168648095D01*
X264263095Y-168743333D01*
X264310714Y-168790952D01*
X264405952Y-168838571D01*
X264739285Y-168838571D01*
X263263095Y-168362380D02*
X263739285Y-168362380D01*
X263786904Y-168838571D01*
X263739285Y-168790952D01*
X263644047Y-168743333D01*
X263405952Y-168743333D01*
X263310714Y-168790952D01*
X263263095Y-168838571D01*
X263215476Y-168933809D01*
X263215476Y-169171904D01*
X263263095Y-169267142D01*
X263310714Y-169314761D01*
X263405952Y-169362380D01*
X263644047Y-169362380D01*
X263739285Y-169314761D01*
X263786904Y-169267142D01*
X262596428Y-168362380D02*
X262501190Y-168362380D01*
X262405952Y-168410000D01*
X262358333Y-168457619D01*
X262310714Y-168552857D01*
X262263095Y-168743333D01*
X262263095Y-168981428D01*
X262310714Y-169171904D01*
X262358333Y-169267142D01*
X262405952Y-169314761D01*
X262501190Y-169362380D01*
X262596428Y-169362380D01*
X262691666Y-169314761D01*
X262739285Y-169267142D01*
X262786904Y-169171904D01*
X262834523Y-168981428D01*
X262834523Y-168743333D01*
X262786904Y-168552857D01*
X262739285Y-168457619D01*
X262691666Y-168410000D01*
X262596428Y-168362380D01*
X280280952Y-168838571D02*
X280138095Y-168886190D01*
X280090476Y-168933809D01*
X280042857Y-169029047D01*
X280042857Y-169171904D01*
X280090476Y-169267142D01*
X280138095Y-169314761D01*
X280233333Y-169362380D01*
X280614285Y-169362380D01*
X280614285Y-168362380D01*
X280280952Y-168362380D01*
X280185714Y-168410000D01*
X280138095Y-168457619D01*
X280090476Y-168552857D01*
X280090476Y-168648095D01*
X280138095Y-168743333D01*
X280185714Y-168790952D01*
X280280952Y-168838571D01*
X280614285Y-168838571D01*
X279185714Y-168362380D02*
X279376190Y-168362380D01*
X279471428Y-168410000D01*
X279519047Y-168457619D01*
X279614285Y-168600476D01*
X279661904Y-168790952D01*
X279661904Y-169171904D01*
X279614285Y-169267142D01*
X279566666Y-169314761D01*
X279471428Y-169362380D01*
X279280952Y-169362380D01*
X279185714Y-169314761D01*
X279138095Y-169267142D01*
X279090476Y-169171904D01*
X279090476Y-168933809D01*
X279138095Y-168838571D01*
X279185714Y-168790952D01*
X279280952Y-168743333D01*
X279471428Y-168743333D01*
X279566666Y-168790952D01*
X279614285Y-168838571D01*
X279661904Y-168933809D01*
X278471428Y-168362380D02*
X278376190Y-168362380D01*
X278280952Y-168410000D01*
X278233333Y-168457619D01*
X278185714Y-168552857D01*
X278138095Y-168743333D01*
X278138095Y-168981428D01*
X278185714Y-169171904D01*
X278233333Y-169267142D01*
X278280952Y-169314761D01*
X278376190Y-169362380D01*
X278471428Y-169362380D01*
X278566666Y-169314761D01*
X278614285Y-169267142D01*
X278661904Y-169171904D01*
X278709523Y-168981428D01*
X278709523Y-168743333D01*
X278661904Y-168552857D01*
X278614285Y-168457619D01*
X278566666Y-168410000D01*
X278471428Y-168362380D01*
X296155952Y-168838571D02*
X296013095Y-168886190D01*
X295965476Y-168933809D01*
X295917857Y-169029047D01*
X295917857Y-169171904D01*
X295965476Y-169267142D01*
X296013095Y-169314761D01*
X296108333Y-169362380D01*
X296489285Y-169362380D01*
X296489285Y-168362380D01*
X296155952Y-168362380D01*
X296060714Y-168410000D01*
X296013095Y-168457619D01*
X295965476Y-168552857D01*
X295965476Y-168648095D01*
X296013095Y-168743333D01*
X296060714Y-168790952D01*
X296155952Y-168838571D01*
X296489285Y-168838571D01*
X295584523Y-168362380D02*
X294917857Y-168362380D01*
X295346428Y-169362380D01*
X294346428Y-168362380D02*
X294251190Y-168362380D01*
X294155952Y-168410000D01*
X294108333Y-168457619D01*
X294060714Y-168552857D01*
X294013095Y-168743333D01*
X294013095Y-168981428D01*
X294060714Y-169171904D01*
X294108333Y-169267142D01*
X294155952Y-169314761D01*
X294251190Y-169362380D01*
X294346428Y-169362380D01*
X294441666Y-169314761D01*
X294489285Y-169267142D01*
X294536904Y-169171904D01*
X294584523Y-168981428D01*
X294584523Y-168743333D01*
X294536904Y-168552857D01*
X294489285Y-168457619D01*
X294441666Y-168410000D01*
X294346428Y-168362380D01*
X312030952Y-168838571D02*
X311888095Y-168886190D01*
X311840476Y-168933809D01*
X311792857Y-169029047D01*
X311792857Y-169171904D01*
X311840476Y-169267142D01*
X311888095Y-169314761D01*
X311983333Y-169362380D01*
X312364285Y-169362380D01*
X312364285Y-168362380D01*
X312030952Y-168362380D01*
X311935714Y-168410000D01*
X311888095Y-168457619D01*
X311840476Y-168552857D01*
X311840476Y-168648095D01*
X311888095Y-168743333D01*
X311935714Y-168790952D01*
X312030952Y-168838571D01*
X312364285Y-168838571D01*
X311221428Y-168790952D02*
X311316666Y-168743333D01*
X311364285Y-168695714D01*
X311411904Y-168600476D01*
X311411904Y-168552857D01*
X311364285Y-168457619D01*
X311316666Y-168410000D01*
X311221428Y-168362380D01*
X311030952Y-168362380D01*
X310935714Y-168410000D01*
X310888095Y-168457619D01*
X310840476Y-168552857D01*
X310840476Y-168600476D01*
X310888095Y-168695714D01*
X310935714Y-168743333D01*
X311030952Y-168790952D01*
X311221428Y-168790952D01*
X311316666Y-168838571D01*
X311364285Y-168886190D01*
X311411904Y-168981428D01*
X311411904Y-169171904D01*
X311364285Y-169267142D01*
X311316666Y-169314761D01*
X311221428Y-169362380D01*
X311030952Y-169362380D01*
X310935714Y-169314761D01*
X310888095Y-169267142D01*
X310840476Y-169171904D01*
X310840476Y-168981428D01*
X310888095Y-168886190D01*
X310935714Y-168838571D01*
X311030952Y-168790952D01*
X310221428Y-168362380D02*
X310126190Y-168362380D01*
X310030952Y-168410000D01*
X309983333Y-168457619D01*
X309935714Y-168552857D01*
X309888095Y-168743333D01*
X309888095Y-168981428D01*
X309935714Y-169171904D01*
X309983333Y-169267142D01*
X310030952Y-169314761D01*
X310126190Y-169362380D01*
X310221428Y-169362380D01*
X310316666Y-169314761D01*
X310364285Y-169267142D01*
X310411904Y-169171904D01*
X310459523Y-168981428D01*
X310459523Y-168743333D01*
X310411904Y-168552857D01*
X310364285Y-168457619D01*
X310316666Y-168410000D01*
X310221428Y-168362380D01*
X327905952Y-168838571D02*
X327763095Y-168886190D01*
X327715476Y-168933809D01*
X327667857Y-169029047D01*
X327667857Y-169171904D01*
X327715476Y-169267142D01*
X327763095Y-169314761D01*
X327858333Y-169362380D01*
X328239285Y-169362380D01*
X328239285Y-168362380D01*
X327905952Y-168362380D01*
X327810714Y-168410000D01*
X327763095Y-168457619D01*
X327715476Y-168552857D01*
X327715476Y-168648095D01*
X327763095Y-168743333D01*
X327810714Y-168790952D01*
X327905952Y-168838571D01*
X328239285Y-168838571D01*
X327191666Y-169362380D02*
X327001190Y-169362380D01*
X326905952Y-169314761D01*
X326858333Y-169267142D01*
X326763095Y-169124285D01*
X326715476Y-168933809D01*
X326715476Y-168552857D01*
X326763095Y-168457619D01*
X326810714Y-168410000D01*
X326905952Y-168362380D01*
X327096428Y-168362380D01*
X327191666Y-168410000D01*
X327239285Y-168457619D01*
X327286904Y-168552857D01*
X327286904Y-168790952D01*
X327239285Y-168886190D01*
X327191666Y-168933809D01*
X327096428Y-168981428D01*
X326905952Y-168981428D01*
X326810714Y-168933809D01*
X326763095Y-168886190D01*
X326715476Y-168790952D01*
X326096428Y-168362380D02*
X326001190Y-168362380D01*
X325905952Y-168410000D01*
X325858333Y-168457619D01*
X325810714Y-168552857D01*
X325763095Y-168743333D01*
X325763095Y-168981428D01*
X325810714Y-169171904D01*
X325858333Y-169267142D01*
X325905952Y-169314761D01*
X326001190Y-169362380D01*
X326096428Y-169362380D01*
X326191666Y-169314761D01*
X326239285Y-169267142D01*
X326286904Y-169171904D01*
X326334523Y-168981428D01*
X326334523Y-168743333D01*
X326286904Y-168552857D01*
X326239285Y-168457619D01*
X326191666Y-168410000D01*
X326096428Y-168362380D01*
M02*
