%TF.GenerationSoftware,KiCad,Pcbnew,7.0.9*%
%TF.CreationDate,2024-08-02T01:25:27-05:00*%
%TF.ProjectId,Piggyback MEM0-7,50696767-7962-4616-936b-204d454d302d,rev?*%
%TF.SameCoordinates,Original*%
%TF.FileFunction,Copper,L2,Bot*%
%TF.FilePolarity,Positive*%
%FSLAX46Y46*%
G04 Gerber Fmt 4.6, Leading zero omitted, Abs format (unit mm)*
G04 Created by KiCad (PCBNEW 7.0.9) date 2024-08-02 01:25:27*
%MOMM*%
%LPD*%
G01*
G04 APERTURE LIST*
%TA.AperFunction,ComponentPad*%
%ADD10R,1.600000X1.600000*%
%TD*%
%TA.AperFunction,ComponentPad*%
%ADD11O,1.600000X1.600000*%
%TD*%
%TA.AperFunction,ComponentPad*%
%ADD12R,1.700000X1.700000*%
%TD*%
%TA.AperFunction,ComponentPad*%
%ADD13O,1.700000X1.700000*%
%TD*%
%TA.AperFunction,ComponentPad*%
%ADD14C,1.600000*%
%TD*%
%TA.AperFunction,ViaPad*%
%ADD15C,0.800000*%
%TD*%
%TA.AperFunction,Conductor*%
%ADD16C,0.250000*%
%TD*%
G04 APERTURE END LIST*
D10*
%TO.P,U3,1*%
%TO.N,~{CON INST}*%
X70485000Y-46990000D03*
D11*
%TO.P,U3,2*%
%TO.N,A11*%
X73025000Y-46990000D03*
%TO.P,U3,3*%
%TO.N,~{MEM4}*%
X75565000Y-46990000D03*
%TO.P,U3,4*%
%TO.N,~{CON INST}*%
X78105000Y-46990000D03*
%TO.P,U3,5*%
%TO.N,A10*%
X80645000Y-46990000D03*
%TO.P,U3,6*%
%TO.N,~{MEM5}*%
X83185000Y-46990000D03*
%TO.P,U3,7,GND*%
%TO.N,GND*%
X85725000Y-46990000D03*
%TO.P,U3,8*%
%TO.N,~{MEM6}*%
X85725000Y-39370000D03*
%TO.P,U3,9*%
%TO.N,~{CON INST}*%
X83185000Y-39370000D03*
%TO.P,U3,10*%
%TO.N,A09*%
X80645000Y-39370000D03*
%TO.P,U3,11*%
%TO.N,~{MEM7}*%
X78105000Y-39370000D03*
%TO.P,U3,12*%
%TO.N,~{CON INST}*%
X75565000Y-39370000D03*
%TO.P,U3,13*%
%TO.N,A08*%
X73025000Y-39370000D03*
%TO.P,U3,14,VCC*%
%TO.N,+5V*%
X70485000Y-39370000D03*
%TD*%
D12*
%TO.P,J1,1,Pin_1*%
%TO.N,GND*%
X41119000Y-41144000D03*
D13*
%TO.P,J1,2,Pin_2*%
X43659000Y-41144000D03*
%TO.P,J1,3,Pin_3*%
%TO.N,~{POWER FAIL}*%
X41119000Y-43684000D03*
%TO.P,J1,4,Pin_4*%
%TO.N,MEM OK*%
X43659000Y-43684000D03*
%TO.P,J1,5,Pin_5*%
%TO.N,~{EXEC}*%
X41119000Y-46224000D03*
%TO.P,J1,6,Pin_6*%
%TO.N,~{DEFER}*%
X43659000Y-46224000D03*
%TO.P,J1,7,Pin_7*%
%TO.N,~{FETCH}*%
X41119000Y-48764000D03*
%TO.P,J1,8,Pin_8*%
%TO.N,~{MEM15}*%
X43659000Y-48764000D03*
%TO.P,J1,9,Pin_9*%
%TO.N,~{MEM14}*%
X41119000Y-51304000D03*
%TO.P,J1,10,Pin_10*%
%TO.N,~{MEM13}*%
X43659000Y-51304000D03*
%TO.P,J1,11,Pin_11*%
%TO.N,~{MEM12}*%
X41119000Y-53844000D03*
%TO.P,J1,12,Pin_12*%
%TO.N,~{MEM11}*%
X43659000Y-53844000D03*
%TO.P,J1,13,Pin_13*%
%TO.N,~{MEM10}*%
X41119000Y-56384000D03*
%TO.P,J1,14,Pin_14*%
%TO.N,~{MEM9}*%
X43659000Y-56384000D03*
%TO.P,J1,15,Pin_15*%
%TO.N,~{MEM8}*%
X41119000Y-58924000D03*
%TO.P,J1,16,Pin_16*%
%TO.N,~{MEM7}*%
X43659000Y-58924000D03*
%TO.P,J1,17,Pin_17*%
%TO.N,~{MEM6}*%
X41119000Y-61464000D03*
%TO.P,J1,18,Pin_18*%
%TO.N,~{MEM5}*%
X43659000Y-61464000D03*
%TO.P,J1,19,Pin_19*%
%TO.N,~{MEM4}*%
X41119000Y-64004000D03*
%TO.P,J1,20,Pin_20*%
%TO.N,~{MEM3}*%
X43659000Y-64004000D03*
%TO.P,J1,21,Pin_21*%
%TO.N,~{MEM2}*%
X41119000Y-66544000D03*
%TO.P,J1,22,Pin_22*%
%TO.N,~{MEM1}*%
X43659000Y-66544000D03*
%TO.P,J1,23,Pin_23*%
%TO.N,~{MEM0}*%
X41119000Y-69084000D03*
%TO.P,J1,24,Pin_24*%
%TO.N,~{CARRY}*%
X43659000Y-69084000D03*
%TO.P,J1,25,Pin_25*%
%TO.N,~{ION}*%
X41119000Y-71624000D03*
%TO.P,J1,26,Pin_26*%
%TO.N,~{RUN}*%
X43659000Y-71624000D03*
%TO.P,J1,27,Pin_27*%
%TO.N,~{MBO15}*%
X41119000Y-74164000D03*
%TO.P,J1,28,Pin_28*%
%TO.N,~{MBO14}*%
X43659000Y-74164000D03*
%TO.P,J1,29,Pin_29*%
%TO.N,~{MBO13}*%
X41119000Y-76704000D03*
%TO.P,J1,30,Pin_30*%
%TO.N,~{MBO12}*%
X43659000Y-76704000D03*
%TO.P,J1,31,Pin_31*%
%TO.N,~{MBO11}*%
X41119000Y-79244000D03*
%TO.P,J1,32,Pin_32*%
%TO.N,~{MBO10}*%
X43659000Y-79244000D03*
%TO.P,J1,33,Pin_33*%
%TO.N,~{MBO9}*%
X41119000Y-81784000D03*
%TO.P,J1,34,Pin_34*%
%TO.N,~{MBO8}*%
X43659000Y-81784000D03*
%TO.P,J1,35,Pin_35*%
%TO.N,+5V*%
X41119000Y-84324000D03*
%TO.P,J1,36,Pin_36*%
X43659000Y-84324000D03*
%TD*%
D14*
%TO.P,C1,1*%
%TO.N,+5V*%
X67310000Y-39497000D03*
%TO.P,C1,2*%
%TO.N,GND*%
X67310000Y-45847000D03*
%TD*%
D12*
%TO.P,J3,1,Pin_1*%
%TO.N,A15*%
X46228000Y-36068000D03*
D13*
%TO.P,J3,2,Pin_2*%
%TO.N,A14*%
X48768000Y-36068000D03*
%TO.P,J3,3,Pin_3*%
%TO.N,A13*%
X51308000Y-36068000D03*
%TO.P,J3,4,Pin_4*%
%TO.N,A12*%
X53848000Y-36068000D03*
%TO.P,J3,5,Pin_5*%
%TO.N,A11*%
X56388000Y-36068000D03*
%TO.P,J3,6,Pin_6*%
%TO.N,A10*%
X58928000Y-36068000D03*
%TO.P,J3,7,Pin_7*%
%TO.N,A09*%
X61468000Y-36068000D03*
%TO.P,J3,8,Pin_8*%
%TO.N,A08*%
X64008000Y-36068000D03*
%TO.P,J3,9,Pin_9*%
%TO.N,unconnected-(J3-Pin_9-Pad9)*%
X66548000Y-36068000D03*
%TO.P,J3,10,Pin_10*%
%TO.N,RESTART ENABLE*%
X69088000Y-36068000D03*
%TO.P,J3,11,Pin_11*%
%TO.N,~{RST}*%
X71628000Y-36068000D03*
%TO.P,J3,12,Pin_12*%
%TO.N,~{CON RQ}*%
X74168000Y-36068000D03*
%TO.P,J3,13,Pin_13*%
%TO.N,~{CON INST}*%
X76708000Y-36068000D03*
%TO.P,J3,14,Pin_14*%
%TO.N,~{PL}*%
X79248000Y-36068000D03*
%TO.P,J3,15,Pin_15*%
%TO.N,~{ISTP}*%
X81788000Y-36068000D03*
%TO.P,J3,16,Pin_16*%
%TO.N,A01*%
X84328000Y-36068000D03*
%TO.P,J3,17,Pin_17*%
%TO.N,A00*%
X86868000Y-36068000D03*
%TD*%
D14*
%TO.P,C2,1*%
%TO.N,+5V*%
X46482000Y-39370000D03*
%TO.P,C2,2*%
%TO.N,GND*%
X46482000Y-45720000D03*
%TD*%
D10*
%TO.P,U2,1*%
%TO.N,~{CON INST}*%
X48768000Y-46990000D03*
D11*
%TO.P,U2,2*%
%TO.N,A15*%
X51308000Y-46990000D03*
%TO.P,U2,3*%
%TO.N,~{MEM0}*%
X53848000Y-46990000D03*
%TO.P,U2,4*%
%TO.N,~{CON INST}*%
X56388000Y-46990000D03*
%TO.P,U2,5*%
%TO.N,A14*%
X58928000Y-46990000D03*
%TO.P,U2,6*%
%TO.N,~{MEM1}*%
X61468000Y-46990000D03*
%TO.P,U2,7,GND*%
%TO.N,GND*%
X64008000Y-46990000D03*
%TO.P,U2,8*%
%TO.N,~{MEM2}*%
X64008000Y-39370000D03*
%TO.P,U2,9*%
%TO.N,~{CON INST}*%
X61468000Y-39370000D03*
%TO.P,U2,10*%
%TO.N,A13*%
X58928000Y-39370000D03*
%TO.P,U2,11*%
%TO.N,~{MEM3}*%
X56388000Y-39370000D03*
%TO.P,U2,12*%
%TO.N,~{CON INST}*%
X53848000Y-39370000D03*
%TO.P,U2,13*%
%TO.N,A12*%
X51308000Y-39370000D03*
%TO.P,U2,14,VCC*%
%TO.N,+5V*%
X48768000Y-39370000D03*
%TD*%
D15*
%TO.N,~{MEM7}*%
X77216000Y-45466000D03*
%TO.N,~{MEM3}*%
X60198000Y-49530000D03*
X60198000Y-53721000D03*
%TO.N,~{MEM2}*%
X67945000Y-43307000D03*
X67945000Y-53340000D03*
%TO.N,+5V*%
X80391000Y-44196000D03*
X83566000Y-44196000D03*
%TD*%
D16*
%TO.N,~{MEM7}*%
X49782604Y-51054000D02*
X73381991Y-51054000D01*
X76980000Y-47455991D02*
X76980000Y-45702000D01*
X73381991Y-51054000D02*
X76980000Y-47455991D01*
X43659000Y-58924000D02*
X47175000Y-55408000D01*
X47175000Y-53661604D02*
X49782604Y-51054000D01*
X47175000Y-55408000D02*
X47175000Y-53661604D01*
X76980000Y-45702000D02*
X77216000Y-45466000D01*
%TO.N,~{MEM6}*%
X43955701Y-60289000D02*
X45073850Y-59170850D01*
X82060000Y-47455991D02*
X82060000Y-43035000D01*
X42294000Y-60289000D02*
X43955701Y-60289000D01*
X77445990Y-52070000D02*
X82060000Y-47455991D01*
X41119000Y-61464000D02*
X42294000Y-60289000D01*
X49403000Y-52070000D02*
X77445990Y-52070000D01*
X47625000Y-56642000D02*
X47625000Y-53848000D01*
X45073850Y-59170850D02*
X45096150Y-59170850D01*
X82060000Y-43035000D02*
X85725000Y-39370000D01*
X45096150Y-59170850D02*
X47625000Y-56642000D01*
X47625000Y-53848000D02*
X49403000Y-52070000D01*
%TO.N,~{MEM5}*%
X43659000Y-61464000D02*
X48133000Y-56990000D01*
X48133000Y-54102000D02*
X49715000Y-52520000D01*
X77655000Y-52520000D02*
X83185000Y-46990000D01*
X49715000Y-52520000D02*
X77655000Y-52520000D01*
X48133000Y-56990000D02*
X48133000Y-54102000D01*
%TO.N,~{MEM4}*%
X39944000Y-60977299D02*
X39944000Y-62829000D01*
X42418000Y-59528604D02*
X41657604Y-60289000D01*
X75565000Y-46990000D02*
X71951000Y-50604000D01*
X44958000Y-56769000D02*
X43978000Y-57749000D01*
X41657604Y-60289000D02*
X40632299Y-60289000D01*
X40632299Y-60289000D02*
X39944000Y-60977299D01*
X71951000Y-50604000D02*
X49596208Y-50604000D01*
X43172299Y-57749000D02*
X42418000Y-58503299D01*
X42418000Y-58503299D02*
X42418000Y-59528604D01*
X39944000Y-62829000D02*
X41119000Y-64004000D01*
X43978000Y-57749000D02*
X43172299Y-57749000D01*
X49596208Y-50604000D02*
X44958000Y-55242208D01*
X44958000Y-55242208D02*
X44958000Y-56769000D01*
%TO.N,~{MEM3}*%
X60198000Y-43180000D02*
X60198000Y-49530000D01*
X48583000Y-54922000D02*
X50419000Y-53086000D01*
X50419000Y-53086000D02*
X58547000Y-53086000D01*
X48583000Y-59080000D02*
X48583000Y-54922000D01*
X59182000Y-53721000D02*
X60198000Y-53721000D01*
X56388000Y-39370000D02*
X60198000Y-43180000D01*
X58547000Y-53086000D02*
X59182000Y-53721000D01*
X43659000Y-64004000D02*
X48583000Y-59080000D01*
%TO.N,~{MEM2}*%
X41119000Y-66544000D02*
X42484000Y-65179000D01*
X66802000Y-53476305D02*
X66938305Y-53340000D01*
X49033000Y-60291702D02*
X49033000Y-55108396D01*
X59240000Y-54483000D02*
X60461305Y-54483000D01*
X66938305Y-53340000D02*
X67945000Y-53340000D01*
X49033000Y-55108396D02*
X50605396Y-53536000D01*
X42484000Y-65179000D02*
X44145701Y-65179000D01*
X58293000Y-53536000D02*
X59240000Y-54483000D01*
X50605396Y-53536000D02*
X58293000Y-53536000D01*
X60461305Y-54483000D02*
X61468000Y-53476305D01*
X61468000Y-53476305D02*
X66802000Y-53476305D01*
X44145701Y-65179000D02*
X49033000Y-60291702D01*
X64008000Y-39370000D02*
X67945000Y-43307000D01*
%TO.N,A15*%
X46228000Y-36068000D02*
X47607000Y-37447000D01*
X47607000Y-43289000D02*
X51308000Y-46990000D01*
X47607000Y-37447000D02*
X47607000Y-43289000D01*
%TO.N,A14*%
X50165000Y-40107991D02*
X55922009Y-45865000D01*
X57803000Y-45865000D02*
X58928000Y-46990000D01*
X55922009Y-45865000D02*
X57803000Y-45865000D01*
X48768000Y-36068000D02*
X50165000Y-37465000D01*
X50165000Y-37465000D02*
X50165000Y-40107991D01*
%TO.N,A11*%
X60325000Y-40005000D02*
X60325000Y-39176009D01*
X57216991Y-36068000D02*
X56388000Y-36068000D01*
X71882000Y-45847000D02*
X69596000Y-45847000D01*
X73025000Y-46990000D02*
X71882000Y-45847000D01*
X69596000Y-45847000D02*
X68471000Y-44722000D01*
X68471000Y-44722000D02*
X65042000Y-44722000D01*
X60325000Y-39176009D02*
X57216991Y-36068000D01*
X65042000Y-44722000D02*
X60325000Y-40005000D01*
%TO.N,A10*%
X80645000Y-46990000D02*
X78290000Y-44635000D01*
X62883000Y-39835991D02*
X62883000Y-39194009D01*
X70231000Y-44635000D02*
X69868000Y-44272000D01*
X78290000Y-44635000D02*
X70231000Y-44635000D01*
X62883000Y-39194009D02*
X59756991Y-36068000D01*
X67319009Y-44272000D02*
X62883000Y-39835991D01*
X69868000Y-44272000D02*
X67319009Y-44272000D01*
X59756991Y-36068000D02*
X58928000Y-36068000D01*
%TO.N,A09*%
X63391000Y-38245000D02*
X79520000Y-38245000D01*
X61214000Y-36068000D02*
X63391000Y-38245000D01*
X61468000Y-36068000D02*
X61214000Y-36068000D01*
X79520000Y-38245000D02*
X80645000Y-39370000D01*
%TD*%
%TA.AperFunction,Conductor*%
%TO.N,+5V*%
G36*
X43199507Y-84114156D02*
G01*
X43159000Y-84252111D01*
X43159000Y-84395889D01*
X43199507Y-84533844D01*
X43225314Y-84574000D01*
X41552686Y-84574000D01*
X41578493Y-84533844D01*
X41619000Y-84395889D01*
X41619000Y-84252111D01*
X41578493Y-84114156D01*
X41552686Y-84074000D01*
X43225314Y-84074000D01*
X43199507Y-84114156D01*
G37*
%TD.AperFunction*%
%TA.AperFunction,Conductor*%
G36*
X49018000Y-40648872D02*
G01*
X49214317Y-40596269D01*
X49214331Y-40596264D01*
X49420478Y-40500136D01*
X49420480Y-40500135D01*
X49487391Y-40453283D01*
X49553597Y-40430955D01*
X49621365Y-40447964D01*
X49661881Y-40488378D01*
X49662050Y-40488248D01*
X49663074Y-40489569D01*
X49665249Y-40491738D01*
X49666827Y-40494407D01*
X49666833Y-40494415D01*
X49680990Y-40508571D01*
X49693628Y-40523367D01*
X49705405Y-40539577D01*
X49705406Y-40539578D01*
X49741309Y-40569279D01*
X49745620Y-40573201D01*
X54024843Y-44852425D01*
X55287745Y-46115327D01*
X55321230Y-46176650D01*
X55316246Y-46246342D01*
X55301640Y-46274130D01*
X55257431Y-46337267D01*
X55230382Y-46395275D01*
X55184209Y-46447714D01*
X55117016Y-46466866D01*
X55050135Y-46446650D01*
X55005618Y-46395275D01*
X54994902Y-46372295D01*
X54978568Y-46337266D01*
X54874682Y-46188900D01*
X54848045Y-46150858D01*
X54687141Y-45989954D01*
X54500734Y-45859432D01*
X54500732Y-45859431D01*
X54294497Y-45763261D01*
X54294488Y-45763258D01*
X54074697Y-45704366D01*
X54074693Y-45704365D01*
X54074692Y-45704365D01*
X54074691Y-45704364D01*
X54074686Y-45704364D01*
X53848002Y-45684532D01*
X53847998Y-45684532D01*
X53621313Y-45704364D01*
X53621302Y-45704366D01*
X53401511Y-45763258D01*
X53401502Y-45763261D01*
X53195267Y-45859431D01*
X53195265Y-45859432D01*
X53008858Y-45989954D01*
X52847954Y-46150858D01*
X52717432Y-46337265D01*
X52717431Y-46337267D01*
X52690382Y-46395275D01*
X52644209Y-46447714D01*
X52577016Y-46466866D01*
X52510135Y-46446650D01*
X52465618Y-46395275D01*
X52454902Y-46372295D01*
X52438568Y-46337266D01*
X52334682Y-46188900D01*
X52308045Y-46150858D01*
X52147141Y-45989954D01*
X51960734Y-45859432D01*
X51960732Y-45859431D01*
X51754497Y-45763261D01*
X51754488Y-45763258D01*
X51534697Y-45704366D01*
X51534693Y-45704365D01*
X51534692Y-45704365D01*
X51534691Y-45704364D01*
X51534686Y-45704364D01*
X51308002Y-45684532D01*
X51307999Y-45684532D01*
X51081313Y-45704364D01*
X51081296Y-45704367D01*
X51012949Y-45722680D01*
X50943099Y-45721016D01*
X50893177Y-45690586D01*
X48268819Y-43066228D01*
X48235334Y-43004905D01*
X48232500Y-42978547D01*
X48232500Y-40733972D01*
X48252185Y-40666933D01*
X48304989Y-40621178D01*
X48374147Y-40611234D01*
X48388594Y-40614197D01*
X48517999Y-40648871D01*
X48518000Y-40648871D01*
X48518000Y-39685686D01*
X48529955Y-39697641D01*
X48642852Y-39755165D01*
X48736519Y-39770000D01*
X48799481Y-39770000D01*
X48893148Y-39755165D01*
X49006045Y-39697641D01*
X49018000Y-39685686D01*
X49018000Y-40648872D01*
G37*
%TD.AperFunction*%
%TA.AperFunction,Conductor*%
G36*
X66040148Y-38890185D02*
G01*
X66085903Y-38942989D01*
X66095847Y-39012147D01*
X66085492Y-39046903D01*
X66083734Y-39050672D01*
X66083730Y-39050682D01*
X66024860Y-39270389D01*
X66024858Y-39270400D01*
X66005034Y-39496997D01*
X66005034Y-39497002D01*
X66024858Y-39723599D01*
X66024860Y-39723610D01*
X66083730Y-39943317D01*
X66083734Y-39943326D01*
X66179865Y-40149481D01*
X66179866Y-40149483D01*
X66230973Y-40222471D01*
X66230973Y-40222472D01*
X66912045Y-39541399D01*
X66924835Y-39622148D01*
X66982359Y-39735045D01*
X67071955Y-39824641D01*
X67184852Y-39882165D01*
X67265599Y-39894953D01*
X66584526Y-40576025D01*
X66584526Y-40576026D01*
X66657512Y-40627131D01*
X66657516Y-40627133D01*
X66863673Y-40723265D01*
X66863682Y-40723269D01*
X67083389Y-40782139D01*
X67083400Y-40782141D01*
X67309998Y-40801966D01*
X67310002Y-40801966D01*
X67536599Y-40782141D01*
X67536610Y-40782139D01*
X67756317Y-40723269D01*
X67756331Y-40723264D01*
X67962478Y-40627136D01*
X68035472Y-40576025D01*
X67354401Y-39894953D01*
X67435148Y-39882165D01*
X67548045Y-39824641D01*
X67637641Y-39735045D01*
X67695165Y-39622148D01*
X67707953Y-39541400D01*
X68389025Y-40222472D01*
X68440136Y-40149478D01*
X68536264Y-39943331D01*
X68536269Y-39943317D01*
X68595139Y-39723610D01*
X68595141Y-39723599D01*
X68614966Y-39497002D01*
X68614966Y-39496997D01*
X68595141Y-39270400D01*
X68595139Y-39270389D01*
X68536269Y-39050682D01*
X68536265Y-39050672D01*
X68534508Y-39046903D01*
X68524017Y-38977825D01*
X68552538Y-38914042D01*
X68611015Y-38875803D01*
X68646891Y-38870500D01*
X69111381Y-38870500D01*
X69178420Y-38890185D01*
X69224175Y-38942989D01*
X69234119Y-39012147D01*
X69231156Y-39026594D01*
X69206128Y-39119999D01*
X69206128Y-39120000D01*
X70169314Y-39120000D01*
X70157359Y-39131955D01*
X70099835Y-39244852D01*
X70080014Y-39370000D01*
X70099835Y-39495148D01*
X70157359Y-39608045D01*
X70169314Y-39620000D01*
X69206128Y-39620000D01*
X69258730Y-39816317D01*
X69258734Y-39816326D01*
X69354865Y-40022482D01*
X69485342Y-40208820D01*
X69646179Y-40369657D01*
X69832517Y-40500134D01*
X70038673Y-40596265D01*
X70038682Y-40596269D01*
X70234999Y-40648872D01*
X70235000Y-40648871D01*
X70235000Y-39685686D01*
X70246955Y-39697641D01*
X70359852Y-39755165D01*
X70453519Y-39770000D01*
X70516481Y-39770000D01*
X70610148Y-39755165D01*
X70723045Y-39697641D01*
X70735000Y-39685686D01*
X70735000Y-40648872D01*
X70931317Y-40596269D01*
X70931326Y-40596265D01*
X71137482Y-40500134D01*
X71323820Y-40369657D01*
X71484657Y-40208820D01*
X71615132Y-40022484D01*
X71642341Y-39964134D01*
X71688513Y-39911695D01*
X71755707Y-39892542D01*
X71822588Y-39912757D01*
X71867106Y-39964133D01*
X71894431Y-40022732D01*
X71894432Y-40022734D01*
X72024954Y-40209141D01*
X72185858Y-40370045D01*
X72232693Y-40402839D01*
X72372266Y-40500568D01*
X72578504Y-40596739D01*
X72798308Y-40655635D01*
X72955780Y-40669412D01*
X73024998Y-40675468D01*
X73025000Y-40675468D01*
X73025002Y-40675468D01*
X73094220Y-40669412D01*
X73251692Y-40655635D01*
X73471496Y-40596739D01*
X73677734Y-40500568D01*
X73864139Y-40370047D01*
X74025047Y-40209139D01*
X74155568Y-40022734D01*
X74182618Y-39964724D01*
X74228790Y-39912285D01*
X74295983Y-39893133D01*
X74362865Y-39913348D01*
X74407382Y-39964725D01*
X74434429Y-40022728D01*
X74434432Y-40022734D01*
X74564954Y-40209141D01*
X74725858Y-40370045D01*
X74772693Y-40402839D01*
X74912266Y-40500568D01*
X75118504Y-40596739D01*
X75338308Y-40655635D01*
X75495780Y-40669412D01*
X75564998Y-40675468D01*
X75565000Y-40675468D01*
X75565002Y-40675468D01*
X75634220Y-40669412D01*
X75791692Y-40655635D01*
X76011496Y-40596739D01*
X76217734Y-40500568D01*
X76404139Y-40370047D01*
X76565047Y-40209139D01*
X76695568Y-40022734D01*
X76722618Y-39964724D01*
X76768790Y-39912285D01*
X76835983Y-39893133D01*
X76902865Y-39913348D01*
X76947382Y-39964725D01*
X76974429Y-40022728D01*
X76974432Y-40022734D01*
X77104954Y-40209141D01*
X77265858Y-40370045D01*
X77312693Y-40402839D01*
X77452266Y-40500568D01*
X77658504Y-40596739D01*
X77878308Y-40655635D01*
X78035780Y-40669412D01*
X78104998Y-40675468D01*
X78105000Y-40675468D01*
X78105002Y-40675468D01*
X78174220Y-40669412D01*
X78331692Y-40655635D01*
X78551496Y-40596739D01*
X78757734Y-40500568D01*
X78944139Y-40370047D01*
X79105047Y-40209139D01*
X79235568Y-40022734D01*
X79262618Y-39964724D01*
X79308790Y-39912285D01*
X79375983Y-39893133D01*
X79442865Y-39913348D01*
X79487382Y-39964725D01*
X79514429Y-40022728D01*
X79514432Y-40022734D01*
X79644954Y-40209141D01*
X79805858Y-40370045D01*
X79852693Y-40402839D01*
X79992266Y-40500568D01*
X80198504Y-40596739D01*
X80418308Y-40655635D01*
X80575780Y-40669412D01*
X80644998Y-40675468D01*
X80645000Y-40675468D01*
X80645002Y-40675468D01*
X80714220Y-40669412D01*
X80871692Y-40655635D01*
X81091496Y-40596739D01*
X81297734Y-40500568D01*
X81484139Y-40370047D01*
X81645047Y-40209139D01*
X81775568Y-40022734D01*
X81802618Y-39964724D01*
X81848790Y-39912285D01*
X81915983Y-39893133D01*
X81982865Y-39913348D01*
X82027382Y-39964725D01*
X82054429Y-40022728D01*
X82054432Y-40022734D01*
X82184954Y-40209141D01*
X82345858Y-40370045D01*
X82392693Y-40402839D01*
X82532266Y-40500568D01*
X82738504Y-40596739D01*
X82958308Y-40655635D01*
X83115780Y-40669412D01*
X83184998Y-40675468D01*
X83184999Y-40675468D01*
X83184999Y-40675467D01*
X83185000Y-40675468D01*
X83229102Y-40671609D01*
X83297600Y-40685375D01*
X83347784Y-40733989D01*
X83363718Y-40802018D01*
X83340344Y-40867862D01*
X83327590Y-40882818D01*
X81676208Y-42534199D01*
X81663951Y-42544020D01*
X81664134Y-42544241D01*
X81658123Y-42549213D01*
X81610772Y-42599636D01*
X81589889Y-42620519D01*
X81589877Y-42620532D01*
X81585621Y-42626017D01*
X81581837Y-42630447D01*
X81549937Y-42664418D01*
X81549936Y-42664420D01*
X81540284Y-42681976D01*
X81529610Y-42698226D01*
X81517329Y-42714061D01*
X81517324Y-42714068D01*
X81498815Y-42756838D01*
X81496245Y-42762084D01*
X81473803Y-42802906D01*
X81468822Y-42822307D01*
X81462521Y-42840710D01*
X81454562Y-42859102D01*
X81454561Y-42859105D01*
X81447271Y-42905127D01*
X81446087Y-42910846D01*
X81434501Y-42955972D01*
X81434500Y-42955982D01*
X81434500Y-42976016D01*
X81432973Y-42995413D01*
X81429840Y-43015196D01*
X81430598Y-43023210D01*
X81434225Y-43061583D01*
X81434500Y-43067421D01*
X81434500Y-45728566D01*
X81414815Y-45795605D01*
X81362011Y-45841360D01*
X81292853Y-45851304D01*
X81258095Y-45840948D01*
X81160857Y-45795605D01*
X81091496Y-45763261D01*
X81091492Y-45763260D01*
X81091488Y-45763258D01*
X80871697Y-45704366D01*
X80871693Y-45704365D01*
X80871692Y-45704365D01*
X80871691Y-45704364D01*
X80871686Y-45704364D01*
X80645002Y-45684532D01*
X80644999Y-45684532D01*
X80418313Y-45704364D01*
X80418296Y-45704367D01*
X80349949Y-45722680D01*
X80280099Y-45721016D01*
X80230177Y-45690586D01*
X78790803Y-44251212D01*
X78780980Y-44238950D01*
X78780759Y-44239134D01*
X78775786Y-44233123D01*
X78725364Y-44185773D01*
X78714919Y-44175328D01*
X78704475Y-44164883D01*
X78698986Y-44160625D01*
X78694561Y-44156847D01*
X78660582Y-44124938D01*
X78660580Y-44124936D01*
X78660577Y-44124935D01*
X78643029Y-44115288D01*
X78626763Y-44104604D01*
X78610936Y-44092327D01*
X78610935Y-44092326D01*
X78610933Y-44092325D01*
X78568168Y-44073818D01*
X78562922Y-44071248D01*
X78522093Y-44048803D01*
X78522092Y-44048802D01*
X78502693Y-44043822D01*
X78484281Y-44037518D01*
X78465898Y-44029562D01*
X78465892Y-44029560D01*
X78419874Y-44022272D01*
X78414152Y-44021087D01*
X78369021Y-44009500D01*
X78369019Y-44009500D01*
X78348984Y-44009500D01*
X78329586Y-44007973D01*
X78322162Y-44006797D01*
X78309805Y-44004840D01*
X78309804Y-44004840D01*
X78263416Y-44009225D01*
X78257578Y-44009500D01*
X70541454Y-44009500D01*
X70474415Y-43989815D01*
X70453773Y-43973182D01*
X70368804Y-43888214D01*
X70358986Y-43875957D01*
X70358764Y-43876141D01*
X70353789Y-43870129D01*
X70353786Y-43870123D01*
X70330209Y-43847983D01*
X70303363Y-43822772D01*
X70282474Y-43801883D01*
X70282473Y-43801882D01*
X70282471Y-43801880D01*
X70276984Y-43797623D01*
X70272550Y-43793836D01*
X70238582Y-43761938D01*
X70238581Y-43761937D01*
X70238577Y-43761935D01*
X70221029Y-43752288D01*
X70204763Y-43741604D01*
X70188933Y-43729325D01*
X70146168Y-43710818D01*
X70140922Y-43708248D01*
X70100093Y-43685803D01*
X70100092Y-43685802D01*
X70080693Y-43680822D01*
X70062281Y-43674518D01*
X70043898Y-43666562D01*
X70043892Y-43666560D01*
X69997874Y-43659272D01*
X69992152Y-43658087D01*
X69947021Y-43646500D01*
X69947019Y-43646500D01*
X69926984Y-43646500D01*
X69907586Y-43644973D01*
X69900162Y-43643797D01*
X69887805Y-43641840D01*
X69887804Y-43641840D01*
X69841416Y-43646225D01*
X69835578Y-43646500D01*
X68951653Y-43646500D01*
X68884614Y-43626815D01*
X68838859Y-43574011D01*
X68828915Y-43504853D01*
X68830362Y-43496722D01*
X68830673Y-43495258D01*
X68830674Y-43495256D01*
X68850460Y-43307000D01*
X68830674Y-43118744D01*
X68772179Y-42938716D01*
X68677533Y-42774784D01*
X68550871Y-42634112D01*
X68542898Y-42628319D01*
X68397734Y-42522851D01*
X68397729Y-42522848D01*
X68224807Y-42445857D01*
X68224802Y-42445855D01*
X68074931Y-42414000D01*
X68039646Y-42406500D01*
X68039645Y-42406500D01*
X67980452Y-42406500D01*
X67913413Y-42386815D01*
X67892771Y-42370181D01*
X65307413Y-39784822D01*
X65273928Y-39723499D01*
X65275319Y-39665048D01*
X65278000Y-39655042D01*
X65293635Y-39596692D01*
X65313468Y-39370000D01*
X65293635Y-39143308D01*
X65268816Y-39050682D01*
X65262362Y-39026593D01*
X65264025Y-38956743D01*
X65303188Y-38898881D01*
X65367417Y-38871377D01*
X65382137Y-38870500D01*
X65973109Y-38870500D01*
X66040148Y-38890185D01*
G37*
%TD.AperFunction*%
%TA.AperFunction,Conductor*%
G36*
X48390143Y-37364894D02*
G01*
X48532592Y-37403063D01*
X48709034Y-37418500D01*
X48767999Y-37423659D01*
X48768000Y-37423659D01*
X48768001Y-37423659D01*
X48826966Y-37418500D01*
X49003408Y-37403063D01*
X49103873Y-37376143D01*
X49173722Y-37377806D01*
X49223647Y-37408237D01*
X49503181Y-37687771D01*
X49536666Y-37749094D01*
X49539500Y-37775452D01*
X49539500Y-38100723D01*
X49519815Y-38167762D01*
X49467011Y-38213517D01*
X49397853Y-38223461D01*
X49363096Y-38213105D01*
X49214330Y-38143735D01*
X49018000Y-38091127D01*
X49018000Y-39054314D01*
X49006045Y-39042359D01*
X48893148Y-38984835D01*
X48799481Y-38970000D01*
X48736519Y-38970000D01*
X48642852Y-38984835D01*
X48529955Y-39042359D01*
X48518000Y-39054314D01*
X48518000Y-38091127D01*
X48517999Y-38091126D01*
X48388594Y-38125801D01*
X48318744Y-38124138D01*
X48260881Y-38084976D01*
X48233377Y-38020747D01*
X48232500Y-38006026D01*
X48232500Y-37529742D01*
X48234224Y-37514122D01*
X48233939Y-37514095D01*
X48234672Y-37506336D01*
X48234673Y-37506333D01*
X48234114Y-37488564D01*
X48251682Y-37420942D01*
X48303022Y-37373550D01*
X48371834Y-37361438D01*
X48390143Y-37364894D01*
G37*
%TD.AperFunction*%
%TA.AperFunction,Conductor*%
G36*
X93668539Y-32659185D02*
G01*
X93714294Y-32711989D01*
X93725500Y-32763500D01*
X93725500Y-55374500D01*
X93705815Y-55441539D01*
X93653011Y-55487294D01*
X93601500Y-55498500D01*
X50062760Y-55498500D01*
X50062554Y-55498459D01*
X50038000Y-55498459D01*
X50037901Y-55498500D01*
X50037617Y-55498616D01*
X50037615Y-55498618D01*
X50037459Y-55498999D01*
X50037476Y-55523616D01*
X50037471Y-55523616D01*
X50037500Y-55523759D01*
X50037500Y-90553500D01*
X50017815Y-90620539D01*
X49965011Y-90666294D01*
X49913500Y-90677500D01*
X34287500Y-90677500D01*
X34220461Y-90657815D01*
X34174706Y-90605011D01*
X34163500Y-90553500D01*
X34163500Y-60957494D01*
X39313840Y-60957494D01*
X39318225Y-61003882D01*
X39318500Y-61009720D01*
X39318500Y-62746255D01*
X39316775Y-62761872D01*
X39317061Y-62761899D01*
X39316326Y-62769665D01*
X39318500Y-62838814D01*
X39318500Y-62868343D01*
X39318501Y-62868360D01*
X39319368Y-62875231D01*
X39319826Y-62881050D01*
X39321290Y-62927624D01*
X39321291Y-62927627D01*
X39326880Y-62946867D01*
X39330824Y-62965911D01*
X39333336Y-62985791D01*
X39350490Y-63029119D01*
X39352382Y-63034647D01*
X39365381Y-63079388D01*
X39375580Y-63096634D01*
X39384138Y-63114103D01*
X39391514Y-63132732D01*
X39418898Y-63170423D01*
X39422106Y-63175307D01*
X39445827Y-63215416D01*
X39445833Y-63215424D01*
X39459990Y-63229580D01*
X39472628Y-63244376D01*
X39484405Y-63260586D01*
X39484406Y-63260587D01*
X39520309Y-63290288D01*
X39524620Y-63294210D01*
X39762377Y-63531967D01*
X39778762Y-63548352D01*
X39812247Y-63609675D01*
X39810856Y-63668126D01*
X39783938Y-63768586D01*
X39783936Y-63768596D01*
X39763341Y-64003999D01*
X39763341Y-64004000D01*
X39783936Y-64239403D01*
X39783938Y-64239413D01*
X39845094Y-64467655D01*
X39845096Y-64467659D01*
X39845097Y-64467663D01*
X39886425Y-64556290D01*
X39944965Y-64681830D01*
X39944967Y-64681834D01*
X40080501Y-64875395D01*
X40080506Y-64875402D01*
X40247597Y-65042493D01*
X40247603Y-65042498D01*
X40433158Y-65172425D01*
X40476783Y-65227002D01*
X40483977Y-65296500D01*
X40452454Y-65358855D01*
X40433158Y-65375575D01*
X40247597Y-65505505D01*
X40080505Y-65672597D01*
X39944965Y-65866169D01*
X39944964Y-65866171D01*
X39845098Y-66080335D01*
X39845094Y-66080344D01*
X39783938Y-66308586D01*
X39783936Y-66308596D01*
X39763341Y-66543999D01*
X39763341Y-66544000D01*
X39783936Y-66779403D01*
X39783938Y-66779413D01*
X39845094Y-67007655D01*
X39845096Y-67007659D01*
X39845097Y-67007663D01*
X39849000Y-67016032D01*
X39944965Y-67221830D01*
X39944967Y-67221834D01*
X40053281Y-67376521D01*
X40080501Y-67415396D01*
X40080506Y-67415402D01*
X40247597Y-67582493D01*
X40247603Y-67582498D01*
X40433158Y-67712425D01*
X40476783Y-67767002D01*
X40483977Y-67836500D01*
X40452454Y-67898855D01*
X40433158Y-67915575D01*
X40247597Y-68045505D01*
X40080505Y-68212597D01*
X39944965Y-68406169D01*
X39944964Y-68406171D01*
X39845098Y-68620335D01*
X39845094Y-68620344D01*
X39783938Y-68848586D01*
X39783936Y-68848596D01*
X39763341Y-69083999D01*
X39763341Y-69084000D01*
X39783936Y-69319403D01*
X39783938Y-69319413D01*
X39845094Y-69547655D01*
X39845096Y-69547659D01*
X39845097Y-69547663D01*
X39849000Y-69556032D01*
X39944965Y-69761830D01*
X39944967Y-69761834D01*
X40053281Y-69916521D01*
X40080501Y-69955396D01*
X40080506Y-69955402D01*
X40247597Y-70122493D01*
X40247603Y-70122498D01*
X40433158Y-70252425D01*
X40476783Y-70307002D01*
X40483977Y-70376500D01*
X40452454Y-70438855D01*
X40433158Y-70455575D01*
X40247597Y-70585505D01*
X40080505Y-70752597D01*
X39944965Y-70946169D01*
X39944964Y-70946171D01*
X39845098Y-71160335D01*
X39845094Y-71160344D01*
X39783938Y-71388586D01*
X39783936Y-71388596D01*
X39763341Y-71623999D01*
X39763341Y-71624000D01*
X39783936Y-71859403D01*
X39783938Y-71859413D01*
X39845094Y-72087655D01*
X39845096Y-72087659D01*
X39845097Y-72087663D01*
X39849000Y-72096032D01*
X39944965Y-72301830D01*
X39944967Y-72301834D01*
X40053281Y-72456521D01*
X40080501Y-72495396D01*
X40080506Y-72495402D01*
X40247597Y-72662493D01*
X40247603Y-72662498D01*
X40433158Y-72792425D01*
X40476783Y-72847002D01*
X40483977Y-72916500D01*
X40452454Y-72978855D01*
X40433158Y-72995575D01*
X40247597Y-73125505D01*
X40080505Y-73292597D01*
X39944965Y-73486169D01*
X39944964Y-73486171D01*
X39845098Y-73700335D01*
X39845094Y-73700344D01*
X39783938Y-73928586D01*
X39783936Y-73928596D01*
X39763341Y-74163999D01*
X39763341Y-74164000D01*
X39783936Y-74399403D01*
X39783938Y-74399413D01*
X39845094Y-74627655D01*
X39845096Y-74627659D01*
X39845097Y-74627663D01*
X39849000Y-74636032D01*
X39944965Y-74841830D01*
X39944967Y-74841834D01*
X40053281Y-74996521D01*
X40080501Y-75035396D01*
X40080506Y-75035402D01*
X40247597Y-75202493D01*
X40247603Y-75202498D01*
X40433158Y-75332425D01*
X40476783Y-75387002D01*
X40483977Y-75456500D01*
X40452454Y-75518855D01*
X40433158Y-75535575D01*
X40247597Y-75665505D01*
X40080505Y-75832597D01*
X39944965Y-76026169D01*
X39944964Y-76026171D01*
X39845098Y-76240335D01*
X39845094Y-76240344D01*
X39783938Y-76468586D01*
X39783936Y-76468596D01*
X39763341Y-76703999D01*
X39763341Y-76704000D01*
X39783936Y-76939403D01*
X39783938Y-76939413D01*
X39845094Y-77167655D01*
X39845096Y-77167659D01*
X39845097Y-77167663D01*
X39849000Y-77176032D01*
X39944965Y-77381830D01*
X39944967Y-77381834D01*
X40053281Y-77536521D01*
X40080501Y-77575396D01*
X40080506Y-77575402D01*
X40247597Y-77742493D01*
X40247603Y-77742498D01*
X40433158Y-77872425D01*
X40476783Y-77927002D01*
X40483977Y-77996500D01*
X40452454Y-78058855D01*
X40433158Y-78075575D01*
X40247597Y-78205505D01*
X40080505Y-78372597D01*
X39944965Y-78566169D01*
X39944964Y-78566171D01*
X39845098Y-78780335D01*
X39845094Y-78780344D01*
X39783938Y-79008586D01*
X39783936Y-79008596D01*
X39763341Y-79243999D01*
X39763341Y-79244000D01*
X39783936Y-79479403D01*
X39783938Y-79479413D01*
X39845094Y-79707655D01*
X39845096Y-79707659D01*
X39845097Y-79707663D01*
X39849000Y-79716032D01*
X39944965Y-79921830D01*
X39944967Y-79921834D01*
X40053281Y-80076521D01*
X40080501Y-80115396D01*
X40080506Y-80115402D01*
X40247597Y-80282493D01*
X40247603Y-80282498D01*
X40433158Y-80412425D01*
X40476783Y-80467002D01*
X40483977Y-80536500D01*
X40452454Y-80598855D01*
X40433158Y-80615575D01*
X40247597Y-80745505D01*
X40080505Y-80912597D01*
X39944965Y-81106169D01*
X39944964Y-81106171D01*
X39845098Y-81320335D01*
X39845094Y-81320344D01*
X39783938Y-81548586D01*
X39783936Y-81548596D01*
X39763341Y-81783999D01*
X39763341Y-81784000D01*
X39783936Y-82019403D01*
X39783938Y-82019413D01*
X39845094Y-82247655D01*
X39845096Y-82247659D01*
X39845097Y-82247663D01*
X39849000Y-82256032D01*
X39944965Y-82461830D01*
X39944967Y-82461834D01*
X40053281Y-82616521D01*
X40080501Y-82655396D01*
X40080506Y-82655402D01*
X40247597Y-82822493D01*
X40247603Y-82822498D01*
X40433594Y-82952730D01*
X40477219Y-83007307D01*
X40484413Y-83076805D01*
X40452890Y-83139160D01*
X40433595Y-83155880D01*
X40247922Y-83285890D01*
X40247920Y-83285891D01*
X40080891Y-83452920D01*
X40080886Y-83452926D01*
X39945400Y-83646420D01*
X39945399Y-83646422D01*
X39845570Y-83860507D01*
X39845567Y-83860513D01*
X39788364Y-84073999D01*
X39788364Y-84074000D01*
X40685314Y-84074000D01*
X40659507Y-84114156D01*
X40619000Y-84252111D01*
X40619000Y-84395889D01*
X40659507Y-84533844D01*
X40685314Y-84574000D01*
X39788364Y-84574000D01*
X39845567Y-84787486D01*
X39845570Y-84787492D01*
X39945399Y-85001578D01*
X40080894Y-85195082D01*
X40247917Y-85362105D01*
X40441421Y-85497600D01*
X40655507Y-85597429D01*
X40655516Y-85597433D01*
X40869000Y-85654634D01*
X40869000Y-84759501D01*
X40976685Y-84808680D01*
X41083237Y-84824000D01*
X41154763Y-84824000D01*
X41261315Y-84808680D01*
X41369000Y-84759501D01*
X41369000Y-85654633D01*
X41582483Y-85597433D01*
X41582492Y-85597429D01*
X41796578Y-85497600D01*
X41990082Y-85362105D01*
X42157105Y-85195082D01*
X42287425Y-85008968D01*
X42342002Y-84965344D01*
X42411501Y-84958151D01*
X42473855Y-84989673D01*
X42490575Y-85008968D01*
X42620894Y-85195082D01*
X42787917Y-85362105D01*
X42981421Y-85497600D01*
X43195507Y-85597429D01*
X43195516Y-85597433D01*
X43409000Y-85654634D01*
X43409000Y-84759501D01*
X43516685Y-84808680D01*
X43623237Y-84824000D01*
X43694763Y-84824000D01*
X43801315Y-84808680D01*
X43909000Y-84759501D01*
X43909000Y-85654633D01*
X44122483Y-85597433D01*
X44122492Y-85597429D01*
X44336578Y-85497600D01*
X44530082Y-85362105D01*
X44697105Y-85195082D01*
X44832600Y-85001578D01*
X44932429Y-84787492D01*
X44932432Y-84787486D01*
X44989636Y-84574000D01*
X44092686Y-84574000D01*
X44118493Y-84533844D01*
X44159000Y-84395889D01*
X44159000Y-84252111D01*
X44118493Y-84114156D01*
X44092686Y-84074000D01*
X44989636Y-84074000D01*
X44989635Y-84073999D01*
X44932432Y-83860513D01*
X44932429Y-83860507D01*
X44832600Y-83646422D01*
X44832599Y-83646420D01*
X44697113Y-83452926D01*
X44697108Y-83452920D01*
X44530078Y-83285890D01*
X44344405Y-83155879D01*
X44300780Y-83101302D01*
X44293588Y-83031804D01*
X44325110Y-82969449D01*
X44344406Y-82952730D01*
X44530401Y-82822495D01*
X44697495Y-82655401D01*
X44833035Y-82461830D01*
X44932903Y-82247663D01*
X44994063Y-82019408D01*
X45014659Y-81784000D01*
X44994063Y-81548592D01*
X44932903Y-81320337D01*
X44833035Y-81106171D01*
X44827425Y-81098158D01*
X44697494Y-80912597D01*
X44530402Y-80745506D01*
X44530396Y-80745501D01*
X44344842Y-80615575D01*
X44301217Y-80560998D01*
X44294023Y-80491500D01*
X44325546Y-80429145D01*
X44344842Y-80412425D01*
X44367026Y-80396891D01*
X44530401Y-80282495D01*
X44697495Y-80115401D01*
X44833035Y-79921830D01*
X44932903Y-79707663D01*
X44994063Y-79479408D01*
X45014659Y-79244000D01*
X44994063Y-79008592D01*
X44932903Y-78780337D01*
X44833035Y-78566171D01*
X44827425Y-78558158D01*
X44697494Y-78372597D01*
X44530402Y-78205506D01*
X44530396Y-78205501D01*
X44344842Y-78075575D01*
X44301217Y-78020998D01*
X44294023Y-77951500D01*
X44325546Y-77889145D01*
X44344842Y-77872425D01*
X44367026Y-77856891D01*
X44530401Y-77742495D01*
X44697495Y-77575401D01*
X44833035Y-77381830D01*
X44932903Y-77167663D01*
X44994063Y-76939408D01*
X45014659Y-76704000D01*
X44994063Y-76468592D01*
X44932903Y-76240337D01*
X44833035Y-76026171D01*
X44827425Y-76018158D01*
X44697494Y-75832597D01*
X44530402Y-75665506D01*
X44530396Y-75665501D01*
X44344842Y-75535575D01*
X44301217Y-75480998D01*
X44294023Y-75411500D01*
X44325546Y-75349145D01*
X44344842Y-75332425D01*
X44367026Y-75316891D01*
X44530401Y-75202495D01*
X44697495Y-75035401D01*
X44833035Y-74841830D01*
X44932903Y-74627663D01*
X44994063Y-74399408D01*
X45014659Y-74164000D01*
X44994063Y-73928592D01*
X44932903Y-73700337D01*
X44833035Y-73486171D01*
X44827425Y-73478158D01*
X44697494Y-73292597D01*
X44530402Y-73125506D01*
X44530396Y-73125501D01*
X44344842Y-72995575D01*
X44301217Y-72940998D01*
X44294023Y-72871500D01*
X44325546Y-72809145D01*
X44344842Y-72792425D01*
X44367026Y-72776891D01*
X44530401Y-72662495D01*
X44697495Y-72495401D01*
X44833035Y-72301830D01*
X44932903Y-72087663D01*
X44994063Y-71859408D01*
X45014659Y-71624000D01*
X44994063Y-71388592D01*
X44932903Y-71160337D01*
X44833035Y-70946171D01*
X44827425Y-70938158D01*
X44697494Y-70752597D01*
X44530402Y-70585506D01*
X44530396Y-70585501D01*
X44344842Y-70455575D01*
X44301217Y-70400998D01*
X44294023Y-70331500D01*
X44325546Y-70269145D01*
X44344842Y-70252425D01*
X44367026Y-70236891D01*
X44530401Y-70122495D01*
X44697495Y-69955401D01*
X44833035Y-69761830D01*
X44932903Y-69547663D01*
X44994063Y-69319408D01*
X45014659Y-69084000D01*
X44994063Y-68848592D01*
X44932903Y-68620337D01*
X44833035Y-68406171D01*
X44827425Y-68398158D01*
X44697494Y-68212597D01*
X44530402Y-68045506D01*
X44530396Y-68045501D01*
X44344842Y-67915575D01*
X44301217Y-67860998D01*
X44294023Y-67791500D01*
X44325546Y-67729145D01*
X44344842Y-67712425D01*
X44367026Y-67696891D01*
X44530401Y-67582495D01*
X44697495Y-67415401D01*
X44833035Y-67221830D01*
X44932903Y-67007663D01*
X44994063Y-66779408D01*
X45014659Y-66544000D01*
X44994063Y-66308592D01*
X44932903Y-66080337D01*
X44833035Y-65866171D01*
X44833034Y-65866169D01*
X44697496Y-65672599D01*
X44697163Y-65672203D01*
X44697071Y-65671993D01*
X44694390Y-65668164D01*
X44695159Y-65667625D01*
X44669151Y-65608195D01*
X44680190Y-65539203D01*
X44704469Y-65504820D01*
X49416788Y-60792503D01*
X49429042Y-60782688D01*
X49428859Y-60782466D01*
X49434866Y-60777494D01*
X49434877Y-60777488D01*
X49465775Y-60744584D01*
X49482227Y-60727066D01*
X49492671Y-60716620D01*
X49503120Y-60706173D01*
X49507379Y-60700680D01*
X49511152Y-60696263D01*
X49543062Y-60662284D01*
X49552715Y-60644722D01*
X49563389Y-60628472D01*
X49575673Y-60612638D01*
X49594180Y-60569869D01*
X49596749Y-60564626D01*
X49598953Y-60560615D01*
X49619197Y-60523794D01*
X49624177Y-60504393D01*
X49630478Y-60485990D01*
X49638438Y-60467598D01*
X49645730Y-60421551D01*
X49646911Y-60415854D01*
X49658500Y-60370721D01*
X49658500Y-60350685D01*
X49660027Y-60331284D01*
X49663160Y-60311506D01*
X49658775Y-60265117D01*
X49658500Y-60259279D01*
X49658500Y-55418848D01*
X49678185Y-55351809D01*
X49694819Y-55331167D01*
X50828167Y-54197819D01*
X50889490Y-54164334D01*
X50915848Y-54161500D01*
X57982548Y-54161500D01*
X58049587Y-54181185D01*
X58070228Y-54197818D01*
X58407707Y-54535298D01*
X58739197Y-54866788D01*
X58749022Y-54879051D01*
X58749243Y-54878869D01*
X58754214Y-54884878D01*
X58775043Y-54904437D01*
X58804635Y-54932226D01*
X58825529Y-54953120D01*
X58831011Y-54957373D01*
X58835443Y-54961157D01*
X58869418Y-54993062D01*
X58886976Y-55002714D01*
X58903235Y-55013395D01*
X58919064Y-55025673D01*
X58961838Y-55044182D01*
X58967056Y-55046738D01*
X59007908Y-55069197D01*
X59027316Y-55074180D01*
X59045717Y-55080480D01*
X59064104Y-55088437D01*
X59107488Y-55095308D01*
X59110119Y-55095725D01*
X59115839Y-55096909D01*
X59160981Y-55108500D01*
X59181016Y-55108500D01*
X59200414Y-55110026D01*
X59220194Y-55113159D01*
X59220195Y-55113160D01*
X59220195Y-55113159D01*
X59220196Y-55113160D01*
X59266584Y-55108775D01*
X59272422Y-55108500D01*
X60378562Y-55108500D01*
X60394182Y-55110224D01*
X60394209Y-55109939D01*
X60401965Y-55110671D01*
X60401972Y-55110673D01*
X60471119Y-55108500D01*
X60500655Y-55108500D01*
X60507533Y-55107630D01*
X60513346Y-55107172D01*
X60559932Y-55105709D01*
X60579174Y-55100117D01*
X60598217Y-55096174D01*
X60618097Y-55093664D01*
X60661427Y-55076507D01*
X60666951Y-55074617D01*
X60670701Y-55073527D01*
X60711695Y-55061618D01*
X60728934Y-55051422D01*
X60746408Y-55042862D01*
X60765032Y-55035488D01*
X60765032Y-55035487D01*
X60765037Y-55035486D01*
X60802754Y-55008082D01*
X60807610Y-55004892D01*
X60847725Y-54981170D01*
X60861894Y-54966999D01*
X60876684Y-54954368D01*
X60892892Y-54942594D01*
X60922604Y-54906676D01*
X60926517Y-54902376D01*
X61690771Y-54138124D01*
X61752094Y-54104639D01*
X61778452Y-54101805D01*
X66719257Y-54101805D01*
X66734877Y-54103529D01*
X66734904Y-54103244D01*
X66742660Y-54103976D01*
X66742667Y-54103978D01*
X66811814Y-54101805D01*
X66841350Y-54101805D01*
X66848228Y-54100935D01*
X66854041Y-54100477D01*
X66900627Y-54099014D01*
X66919869Y-54093422D01*
X66938912Y-54089479D01*
X66958792Y-54086969D01*
X67002122Y-54069812D01*
X67007646Y-54067922D01*
X67011396Y-54066832D01*
X67052390Y-54054923D01*
X67069629Y-54044727D01*
X67087103Y-54036167D01*
X67105729Y-54028792D01*
X67105728Y-54028792D01*
X67105732Y-54028791D01*
X67143430Y-54001400D01*
X67148314Y-53998193D01*
X67174399Y-53982767D01*
X67237518Y-53965500D01*
X67241252Y-53965500D01*
X67308291Y-53985185D01*
X67333400Y-54006526D01*
X67339126Y-54012885D01*
X67339130Y-54012889D01*
X67492265Y-54124148D01*
X67492270Y-54124151D01*
X67665192Y-54201142D01*
X67665197Y-54201144D01*
X67850354Y-54240500D01*
X67850355Y-54240500D01*
X68039644Y-54240500D01*
X68039646Y-54240500D01*
X68224803Y-54201144D01*
X68397730Y-54124151D01*
X68550871Y-54012888D01*
X68677533Y-53872216D01*
X68772179Y-53708284D01*
X68830674Y-53528256D01*
X68850460Y-53340000D01*
X68844412Y-53282459D01*
X68856981Y-53213732D01*
X68904713Y-53162708D01*
X68967733Y-53145500D01*
X77572257Y-53145500D01*
X77587877Y-53147224D01*
X77587904Y-53146939D01*
X77595660Y-53147671D01*
X77595667Y-53147673D01*
X77664814Y-53145500D01*
X77694350Y-53145500D01*
X77701228Y-53144630D01*
X77707041Y-53144172D01*
X77753627Y-53142709D01*
X77772869Y-53137117D01*
X77791912Y-53133174D01*
X77811792Y-53130664D01*
X77855122Y-53113507D01*
X77860646Y-53111617D01*
X77864396Y-53110527D01*
X77905390Y-53098618D01*
X77922629Y-53088422D01*
X77940103Y-53079862D01*
X77958727Y-53072488D01*
X77958727Y-53072487D01*
X77958732Y-53072486D01*
X77996449Y-53045082D01*
X78001305Y-53041892D01*
X78041420Y-53018170D01*
X78055589Y-53003999D01*
X78070379Y-52991368D01*
X78086587Y-52979594D01*
X78116299Y-52943676D01*
X78120212Y-52939376D01*
X82770179Y-48289410D01*
X82831500Y-48255927D01*
X82889947Y-48257317D01*
X82958308Y-48275635D01*
X83115780Y-48289412D01*
X83184998Y-48295468D01*
X83185000Y-48295468D01*
X83185002Y-48295468D01*
X83254220Y-48289412D01*
X83411692Y-48275635D01*
X83631496Y-48216739D01*
X83837734Y-48120568D01*
X84024139Y-47990047D01*
X84185047Y-47829139D01*
X84315568Y-47642734D01*
X84342618Y-47584724D01*
X84388790Y-47532285D01*
X84455983Y-47513133D01*
X84522865Y-47533348D01*
X84567382Y-47584725D01*
X84594429Y-47642728D01*
X84594432Y-47642734D01*
X84724954Y-47829141D01*
X84885858Y-47990045D01*
X84885861Y-47990047D01*
X85072266Y-48120568D01*
X85278504Y-48216739D01*
X85498308Y-48275635D01*
X85655780Y-48289412D01*
X85724998Y-48295468D01*
X85725000Y-48295468D01*
X85725002Y-48295468D01*
X85794220Y-48289412D01*
X85951692Y-48275635D01*
X86171496Y-48216739D01*
X86377734Y-48120568D01*
X86564139Y-47990047D01*
X86725047Y-47829139D01*
X86855568Y-47642734D01*
X86951739Y-47436496D01*
X87010635Y-47216692D01*
X87030468Y-46990000D01*
X87010635Y-46763308D01*
X86951739Y-46543504D01*
X86855568Y-46337266D01*
X86751682Y-46188900D01*
X86725045Y-46150858D01*
X86564141Y-45989954D01*
X86377734Y-45859432D01*
X86377732Y-45859431D01*
X86171497Y-45763261D01*
X86171488Y-45763258D01*
X85951697Y-45704366D01*
X85951693Y-45704365D01*
X85951692Y-45704365D01*
X85951691Y-45704364D01*
X85951686Y-45704364D01*
X85725002Y-45684532D01*
X85724998Y-45684532D01*
X85498313Y-45704364D01*
X85498302Y-45704366D01*
X85278511Y-45763258D01*
X85278502Y-45763261D01*
X85072267Y-45859431D01*
X85072265Y-45859432D01*
X84885858Y-45989954D01*
X84724954Y-46150858D01*
X84594432Y-46337265D01*
X84594431Y-46337267D01*
X84567382Y-46395275D01*
X84521209Y-46447714D01*
X84454016Y-46466866D01*
X84387135Y-46446650D01*
X84342618Y-46395275D01*
X84331902Y-46372295D01*
X84315568Y-46337266D01*
X84211682Y-46188900D01*
X84185045Y-46150858D01*
X84024141Y-45989954D01*
X83837734Y-45859432D01*
X83837732Y-45859431D01*
X83631497Y-45763261D01*
X83631488Y-45763258D01*
X83411697Y-45704366D01*
X83411693Y-45704365D01*
X83411692Y-45704365D01*
X83411691Y-45704364D01*
X83411686Y-45704364D01*
X83185002Y-45684532D01*
X83184998Y-45684532D01*
X82958313Y-45704364D01*
X82958302Y-45704366D01*
X82841593Y-45735638D01*
X82771743Y-45733975D01*
X82713881Y-45694812D01*
X82686377Y-45630583D01*
X82685500Y-45615863D01*
X82685500Y-43345451D01*
X82705185Y-43278412D01*
X82721814Y-43257775D01*
X85310178Y-40669410D01*
X85371499Y-40635927D01*
X85429946Y-40637317D01*
X85498308Y-40655635D01*
X85655780Y-40669412D01*
X85724998Y-40675468D01*
X85725000Y-40675468D01*
X85725002Y-40675468D01*
X85794220Y-40669412D01*
X85951692Y-40655635D01*
X86171496Y-40596739D01*
X86377734Y-40500568D01*
X86564139Y-40370047D01*
X86725047Y-40209139D01*
X86855568Y-40022734D01*
X86951739Y-39816496D01*
X87010635Y-39596692D01*
X87030468Y-39370000D01*
X87010635Y-39143308D01*
X86951739Y-38923504D01*
X86855568Y-38717266D01*
X86725047Y-38530861D01*
X86725045Y-38530858D01*
X86564141Y-38369954D01*
X86377734Y-38239432D01*
X86377732Y-38239431D01*
X86171497Y-38143261D01*
X86171488Y-38143258D01*
X85951697Y-38084366D01*
X85951693Y-38084365D01*
X85951692Y-38084365D01*
X85951691Y-38084364D01*
X85951686Y-38084364D01*
X85725002Y-38064532D01*
X85724998Y-38064532D01*
X85498313Y-38084364D01*
X85498302Y-38084366D01*
X85278511Y-38143258D01*
X85278502Y-38143261D01*
X85072267Y-38239431D01*
X85072265Y-38239432D01*
X84885858Y-38369954D01*
X84724954Y-38530858D01*
X84594432Y-38717265D01*
X84594431Y-38717267D01*
X84567382Y-38775275D01*
X84521209Y-38827714D01*
X84454016Y-38846866D01*
X84387135Y-38826650D01*
X84342618Y-38775275D01*
X84315568Y-38717267D01*
X84315567Y-38717265D01*
X84185045Y-38530858D01*
X84024141Y-38369954D01*
X83837734Y-38239432D01*
X83837732Y-38239431D01*
X83631497Y-38143261D01*
X83631488Y-38143258D01*
X83411697Y-38084366D01*
X83411693Y-38084365D01*
X83411692Y-38084365D01*
X83411691Y-38084364D01*
X83411686Y-38084364D01*
X83185002Y-38064532D01*
X83184998Y-38064532D01*
X82958313Y-38084364D01*
X82958302Y-38084366D01*
X82738511Y-38143258D01*
X82738502Y-38143261D01*
X82532267Y-38239431D01*
X82532265Y-38239432D01*
X82345858Y-38369954D01*
X82184954Y-38530858D01*
X82054432Y-38717265D01*
X82054431Y-38717267D01*
X82027382Y-38775275D01*
X81981209Y-38827714D01*
X81914016Y-38846866D01*
X81847135Y-38826650D01*
X81802618Y-38775275D01*
X81775568Y-38717267D01*
X81775567Y-38717265D01*
X81645045Y-38530858D01*
X81484141Y-38369954D01*
X81297734Y-38239432D01*
X81297732Y-38239431D01*
X81091497Y-38143261D01*
X81091488Y-38143258D01*
X80871697Y-38084366D01*
X80871693Y-38084365D01*
X80871692Y-38084365D01*
X80871691Y-38084364D01*
X80871686Y-38084364D01*
X80645002Y-38064532D01*
X80644999Y-38064532D01*
X80418313Y-38084364D01*
X80418296Y-38084367D01*
X80349949Y-38102680D01*
X80280099Y-38101016D01*
X80230177Y-38070586D01*
X80020803Y-37861212D01*
X80010980Y-37848950D01*
X80010759Y-37849134D01*
X80005786Y-37843123D01*
X79955364Y-37795773D01*
X79944919Y-37785328D01*
X79934475Y-37774883D01*
X79928986Y-37770625D01*
X79924561Y-37766847D01*
X79890582Y-37734938D01*
X79890580Y-37734936D01*
X79890577Y-37734935D01*
X79873029Y-37725288D01*
X79856763Y-37714604D01*
X79840933Y-37702325D01*
X79798168Y-37683818D01*
X79792922Y-37681248D01*
X79752093Y-37658803D01*
X79752092Y-37658802D01*
X79732693Y-37653822D01*
X79714281Y-37647518D01*
X79695898Y-37639562D01*
X79695892Y-37639560D01*
X79649874Y-37632272D01*
X79644152Y-37631087D01*
X79599015Y-37619498D01*
X79598557Y-37619441D01*
X79598223Y-37619295D01*
X79591463Y-37617560D01*
X79591743Y-37616469D01*
X79534513Y-37591510D01*
X79495737Y-37533388D01*
X79494540Y-37463528D01*
X79531301Y-37404112D01*
X79582003Y-37376644D01*
X79711663Y-37341903D01*
X79925830Y-37242035D01*
X80119401Y-37106495D01*
X80286495Y-36939401D01*
X80416425Y-36753842D01*
X80471002Y-36710217D01*
X80540500Y-36703023D01*
X80602855Y-36734546D01*
X80619575Y-36753842D01*
X80749500Y-36939395D01*
X80749505Y-36939401D01*
X80916599Y-37106495D01*
X81013384Y-37174265D01*
X81110165Y-37242032D01*
X81110167Y-37242033D01*
X81110170Y-37242035D01*
X81324337Y-37341903D01*
X81324343Y-37341904D01*
X81324344Y-37341905D01*
X81379285Y-37356626D01*
X81552592Y-37403063D01*
X81729034Y-37418500D01*
X81787999Y-37423659D01*
X81788000Y-37423659D01*
X81788001Y-37423659D01*
X81846966Y-37418500D01*
X82023408Y-37403063D01*
X82251663Y-37341903D01*
X82465830Y-37242035D01*
X82659401Y-37106495D01*
X82826495Y-36939401D01*
X82956425Y-36753842D01*
X83011002Y-36710217D01*
X83080500Y-36703023D01*
X83142855Y-36734546D01*
X83159575Y-36753842D01*
X83289500Y-36939395D01*
X83289505Y-36939401D01*
X83456599Y-37106495D01*
X83553384Y-37174265D01*
X83650165Y-37242032D01*
X83650167Y-37242033D01*
X83650170Y-37242035D01*
X83864337Y-37341903D01*
X83864343Y-37341904D01*
X83864344Y-37341905D01*
X83919285Y-37356626D01*
X84092592Y-37403063D01*
X84269034Y-37418500D01*
X84327999Y-37423659D01*
X84328000Y-37423659D01*
X84328001Y-37423659D01*
X84386966Y-37418500D01*
X84563408Y-37403063D01*
X84791663Y-37341903D01*
X85005830Y-37242035D01*
X85199401Y-37106495D01*
X85366495Y-36939401D01*
X85496425Y-36753842D01*
X85551002Y-36710217D01*
X85620500Y-36703023D01*
X85682855Y-36734546D01*
X85699575Y-36753842D01*
X85829500Y-36939395D01*
X85829505Y-36939401D01*
X85996599Y-37106495D01*
X86093384Y-37174265D01*
X86190165Y-37242032D01*
X86190167Y-37242033D01*
X86190170Y-37242035D01*
X86404337Y-37341903D01*
X86404343Y-37341904D01*
X86404344Y-37341905D01*
X86459285Y-37356626D01*
X86632592Y-37403063D01*
X86809034Y-37418500D01*
X86867999Y-37423659D01*
X86868000Y-37423659D01*
X86868001Y-37423659D01*
X86926966Y-37418500D01*
X87103408Y-37403063D01*
X87331663Y-37341903D01*
X87545830Y-37242035D01*
X87739401Y-37106495D01*
X87906495Y-36939401D01*
X88042035Y-36745830D01*
X88141903Y-36531663D01*
X88203063Y-36303408D01*
X88223659Y-36068000D01*
X88203063Y-35832592D01*
X88141903Y-35604337D01*
X88042035Y-35390171D01*
X88036425Y-35382158D01*
X87906494Y-35196597D01*
X87739402Y-35029506D01*
X87739395Y-35029501D01*
X87545834Y-34893967D01*
X87545830Y-34893965D01*
X87545828Y-34893964D01*
X87331663Y-34794097D01*
X87331659Y-34794096D01*
X87331655Y-34794094D01*
X87103413Y-34732938D01*
X87103403Y-34732936D01*
X86868001Y-34712341D01*
X86867999Y-34712341D01*
X86632596Y-34732936D01*
X86632586Y-34732938D01*
X86404344Y-34794094D01*
X86404335Y-34794098D01*
X86190171Y-34893964D01*
X86190169Y-34893965D01*
X85996597Y-35029505D01*
X85829505Y-35196597D01*
X85699575Y-35382158D01*
X85644998Y-35425783D01*
X85575500Y-35432977D01*
X85513145Y-35401454D01*
X85496425Y-35382158D01*
X85366494Y-35196597D01*
X85199402Y-35029506D01*
X85199395Y-35029501D01*
X85005834Y-34893967D01*
X85005830Y-34893965D01*
X85005828Y-34893964D01*
X84791663Y-34794097D01*
X84791659Y-34794096D01*
X84791655Y-34794094D01*
X84563413Y-34732938D01*
X84563403Y-34732936D01*
X84328001Y-34712341D01*
X84327999Y-34712341D01*
X84092596Y-34732936D01*
X84092586Y-34732938D01*
X83864344Y-34794094D01*
X83864335Y-34794098D01*
X83650171Y-34893964D01*
X83650169Y-34893965D01*
X83456597Y-35029505D01*
X83289505Y-35196597D01*
X83159575Y-35382158D01*
X83104998Y-35425783D01*
X83035500Y-35432977D01*
X82973145Y-35401454D01*
X82956425Y-35382158D01*
X82826494Y-35196597D01*
X82659402Y-35029506D01*
X82659395Y-35029501D01*
X82465834Y-34893967D01*
X82465830Y-34893965D01*
X82465828Y-34893964D01*
X82251663Y-34794097D01*
X82251659Y-34794096D01*
X82251655Y-34794094D01*
X82023413Y-34732938D01*
X82023403Y-34732936D01*
X81788001Y-34712341D01*
X81787999Y-34712341D01*
X81552596Y-34732936D01*
X81552586Y-34732938D01*
X81324344Y-34794094D01*
X81324335Y-34794098D01*
X81110171Y-34893964D01*
X81110169Y-34893965D01*
X80916597Y-35029505D01*
X80749505Y-35196597D01*
X80619575Y-35382158D01*
X80564998Y-35425783D01*
X80495500Y-35432977D01*
X80433145Y-35401454D01*
X80416425Y-35382158D01*
X80286494Y-35196597D01*
X80119402Y-35029506D01*
X80119395Y-35029501D01*
X79925834Y-34893967D01*
X79925830Y-34893965D01*
X79925828Y-34893964D01*
X79711663Y-34794097D01*
X79711659Y-34794096D01*
X79711655Y-34794094D01*
X79483413Y-34732938D01*
X79483403Y-34732936D01*
X79248001Y-34712341D01*
X79247999Y-34712341D01*
X79012596Y-34732936D01*
X79012586Y-34732938D01*
X78784344Y-34794094D01*
X78784335Y-34794098D01*
X78570171Y-34893964D01*
X78570169Y-34893965D01*
X78376597Y-35029505D01*
X78209505Y-35196597D01*
X78079575Y-35382158D01*
X78024998Y-35425783D01*
X77955500Y-35432977D01*
X77893145Y-35401454D01*
X77876425Y-35382158D01*
X77746494Y-35196597D01*
X77579402Y-35029506D01*
X77579395Y-35029501D01*
X77385834Y-34893967D01*
X77385830Y-34893965D01*
X77385828Y-34893964D01*
X77171663Y-34794097D01*
X77171659Y-34794096D01*
X77171655Y-34794094D01*
X76943413Y-34732938D01*
X76943403Y-34732936D01*
X76708001Y-34712341D01*
X76707999Y-34712341D01*
X76472596Y-34732936D01*
X76472586Y-34732938D01*
X76244344Y-34794094D01*
X76244335Y-34794098D01*
X76030171Y-34893964D01*
X76030169Y-34893965D01*
X75836597Y-35029505D01*
X75669505Y-35196597D01*
X75539575Y-35382158D01*
X75484998Y-35425783D01*
X75415500Y-35432977D01*
X75353145Y-35401454D01*
X75336425Y-35382158D01*
X75206494Y-35196597D01*
X75039402Y-35029506D01*
X75039395Y-35029501D01*
X74845834Y-34893967D01*
X74845830Y-34893965D01*
X74845828Y-34893964D01*
X74631663Y-34794097D01*
X74631659Y-34794096D01*
X74631655Y-34794094D01*
X74403413Y-34732938D01*
X74403403Y-34732936D01*
X74168001Y-34712341D01*
X74167999Y-34712341D01*
X73932596Y-34732936D01*
X73932586Y-34732938D01*
X73704344Y-34794094D01*
X73704335Y-34794098D01*
X73490171Y-34893964D01*
X73490169Y-34893965D01*
X73296597Y-35029505D01*
X73129505Y-35196597D01*
X72999575Y-35382158D01*
X72944998Y-35425783D01*
X72875500Y-35432977D01*
X72813145Y-35401454D01*
X72796425Y-35382158D01*
X72666494Y-35196597D01*
X72499402Y-35029506D01*
X72499395Y-35029501D01*
X72305834Y-34893967D01*
X72305830Y-34893965D01*
X72305828Y-34893964D01*
X72091663Y-34794097D01*
X72091659Y-34794096D01*
X72091655Y-34794094D01*
X71863413Y-34732938D01*
X71863403Y-34732936D01*
X71628001Y-34712341D01*
X71627999Y-34712341D01*
X71392596Y-34732936D01*
X71392586Y-34732938D01*
X71164344Y-34794094D01*
X71164335Y-34794098D01*
X70950171Y-34893964D01*
X70950169Y-34893965D01*
X70756597Y-35029505D01*
X70589505Y-35196597D01*
X70459575Y-35382158D01*
X70404998Y-35425783D01*
X70335500Y-35432977D01*
X70273145Y-35401454D01*
X70256425Y-35382158D01*
X70126494Y-35196597D01*
X69959402Y-35029506D01*
X69959395Y-35029501D01*
X69765834Y-34893967D01*
X69765830Y-34893965D01*
X69765828Y-34893964D01*
X69551663Y-34794097D01*
X69551659Y-34794096D01*
X69551655Y-34794094D01*
X69323413Y-34732938D01*
X69323403Y-34732936D01*
X69088001Y-34712341D01*
X69087999Y-34712341D01*
X68852596Y-34732936D01*
X68852586Y-34732938D01*
X68624344Y-34794094D01*
X68624335Y-34794098D01*
X68410171Y-34893964D01*
X68410169Y-34893965D01*
X68216597Y-35029505D01*
X68049505Y-35196597D01*
X67919575Y-35382158D01*
X67864998Y-35425783D01*
X67795500Y-35432977D01*
X67733145Y-35401454D01*
X67716425Y-35382158D01*
X67586494Y-35196597D01*
X67419402Y-35029506D01*
X67419395Y-35029501D01*
X67225834Y-34893967D01*
X67225830Y-34893965D01*
X67225828Y-34893964D01*
X67011663Y-34794097D01*
X67011659Y-34794096D01*
X67011655Y-34794094D01*
X66783413Y-34732938D01*
X66783403Y-34732936D01*
X66548001Y-34712341D01*
X66547999Y-34712341D01*
X66312596Y-34732936D01*
X66312586Y-34732938D01*
X66084344Y-34794094D01*
X66084335Y-34794098D01*
X65870171Y-34893964D01*
X65870169Y-34893965D01*
X65676597Y-35029505D01*
X65509505Y-35196597D01*
X65379575Y-35382158D01*
X65324998Y-35425783D01*
X65255500Y-35432977D01*
X65193145Y-35401454D01*
X65176425Y-35382158D01*
X65046494Y-35196597D01*
X64879402Y-35029506D01*
X64879395Y-35029501D01*
X64685834Y-34893967D01*
X64685830Y-34893965D01*
X64685828Y-34893964D01*
X64471663Y-34794097D01*
X64471659Y-34794096D01*
X64471655Y-34794094D01*
X64243413Y-34732938D01*
X64243403Y-34732936D01*
X64008001Y-34712341D01*
X64007999Y-34712341D01*
X63772596Y-34732936D01*
X63772586Y-34732938D01*
X63544344Y-34794094D01*
X63544335Y-34794098D01*
X63330171Y-34893964D01*
X63330169Y-34893965D01*
X63136597Y-35029505D01*
X62969505Y-35196597D01*
X62839575Y-35382158D01*
X62784998Y-35425783D01*
X62715500Y-35432977D01*
X62653145Y-35401454D01*
X62636425Y-35382158D01*
X62506494Y-35196597D01*
X62339402Y-35029506D01*
X62339395Y-35029501D01*
X62145834Y-34893967D01*
X62145830Y-34893965D01*
X62145828Y-34893964D01*
X61931663Y-34794097D01*
X61931659Y-34794096D01*
X61931655Y-34794094D01*
X61703413Y-34732938D01*
X61703403Y-34732936D01*
X61468001Y-34712341D01*
X61467999Y-34712341D01*
X61232596Y-34732936D01*
X61232586Y-34732938D01*
X61004344Y-34794094D01*
X61004335Y-34794098D01*
X60790171Y-34893964D01*
X60790169Y-34893965D01*
X60596597Y-35029505D01*
X60429505Y-35196597D01*
X60299575Y-35382158D01*
X60244998Y-35425783D01*
X60175500Y-35432977D01*
X60113145Y-35401454D01*
X60096425Y-35382158D01*
X59966494Y-35196597D01*
X59799402Y-35029506D01*
X59799395Y-35029501D01*
X59605834Y-34893967D01*
X59605830Y-34893965D01*
X59605828Y-34893964D01*
X59391663Y-34794097D01*
X59391659Y-34794096D01*
X59391655Y-34794094D01*
X59163413Y-34732938D01*
X59163403Y-34732936D01*
X58928001Y-34712341D01*
X58927999Y-34712341D01*
X58692596Y-34732936D01*
X58692586Y-34732938D01*
X58464344Y-34794094D01*
X58464335Y-34794098D01*
X58250171Y-34893964D01*
X58250169Y-34893965D01*
X58056597Y-35029505D01*
X57889505Y-35196597D01*
X57759575Y-35382158D01*
X57704998Y-35425783D01*
X57635500Y-35432977D01*
X57573145Y-35401454D01*
X57556425Y-35382158D01*
X57426494Y-35196597D01*
X57259402Y-35029506D01*
X57259395Y-35029501D01*
X57065834Y-34893967D01*
X57065830Y-34893965D01*
X57065828Y-34893964D01*
X56851663Y-34794097D01*
X56851659Y-34794096D01*
X56851655Y-34794094D01*
X56623413Y-34732938D01*
X56623403Y-34732936D01*
X56388001Y-34712341D01*
X56387999Y-34712341D01*
X56152596Y-34732936D01*
X56152586Y-34732938D01*
X55924344Y-34794094D01*
X55924335Y-34794098D01*
X55710171Y-34893964D01*
X55710169Y-34893965D01*
X55516597Y-35029505D01*
X55349505Y-35196597D01*
X55219575Y-35382158D01*
X55164998Y-35425783D01*
X55095500Y-35432977D01*
X55033145Y-35401454D01*
X55016425Y-35382158D01*
X54886494Y-35196597D01*
X54719402Y-35029506D01*
X54719395Y-35029501D01*
X54525834Y-34893967D01*
X54525830Y-34893965D01*
X54525828Y-34893964D01*
X54311663Y-34794097D01*
X54311659Y-34794096D01*
X54311655Y-34794094D01*
X54083413Y-34732938D01*
X54083403Y-34732936D01*
X53848001Y-34712341D01*
X53847999Y-34712341D01*
X53612596Y-34732936D01*
X53612586Y-34732938D01*
X53384344Y-34794094D01*
X53384335Y-34794098D01*
X53170171Y-34893964D01*
X53170169Y-34893965D01*
X52976597Y-35029505D01*
X52809505Y-35196597D01*
X52679575Y-35382158D01*
X52624998Y-35425783D01*
X52555500Y-35432977D01*
X52493145Y-35401454D01*
X52476425Y-35382158D01*
X52346494Y-35196597D01*
X52179402Y-35029506D01*
X52179395Y-35029501D01*
X51985834Y-34893967D01*
X51985830Y-34893965D01*
X51985828Y-34893964D01*
X51771663Y-34794097D01*
X51771659Y-34794096D01*
X51771655Y-34794094D01*
X51543413Y-34732938D01*
X51543403Y-34732936D01*
X51308001Y-34712341D01*
X51307999Y-34712341D01*
X51072596Y-34732936D01*
X51072586Y-34732938D01*
X50844344Y-34794094D01*
X50844335Y-34794098D01*
X50630171Y-34893964D01*
X50630169Y-34893965D01*
X50436597Y-35029505D01*
X50269505Y-35196597D01*
X50139575Y-35382158D01*
X50084998Y-35425783D01*
X50015500Y-35432977D01*
X49953145Y-35401454D01*
X49936425Y-35382158D01*
X49806494Y-35196597D01*
X49639402Y-35029506D01*
X49639395Y-35029501D01*
X49445834Y-34893967D01*
X49445830Y-34893965D01*
X49445828Y-34893964D01*
X49231663Y-34794097D01*
X49231659Y-34794096D01*
X49231655Y-34794094D01*
X49003413Y-34732938D01*
X49003403Y-34732936D01*
X48768001Y-34712341D01*
X48767999Y-34712341D01*
X48532596Y-34732936D01*
X48532586Y-34732938D01*
X48304344Y-34794094D01*
X48304335Y-34794098D01*
X48090171Y-34893964D01*
X48090169Y-34893965D01*
X47896600Y-35029503D01*
X47774673Y-35151430D01*
X47713350Y-35184914D01*
X47643658Y-35179930D01*
X47587725Y-35138058D01*
X47570810Y-35107081D01*
X47521797Y-34975671D01*
X47521793Y-34975664D01*
X47435547Y-34860455D01*
X47435544Y-34860452D01*
X47320335Y-34774206D01*
X47320328Y-34774202D01*
X47185482Y-34723908D01*
X47185483Y-34723908D01*
X47125883Y-34717501D01*
X47125881Y-34717500D01*
X47125873Y-34717500D01*
X47125864Y-34717500D01*
X45330129Y-34717500D01*
X45330123Y-34717501D01*
X45270516Y-34723908D01*
X45135671Y-34774202D01*
X45135664Y-34774206D01*
X45020455Y-34860452D01*
X45020452Y-34860455D01*
X44934206Y-34975664D01*
X44934202Y-34975671D01*
X44883908Y-35110517D01*
X44877501Y-35170116D01*
X44877500Y-35170135D01*
X44877500Y-36965870D01*
X44877501Y-36965876D01*
X44883908Y-37025483D01*
X44934202Y-37160328D01*
X44934206Y-37160335D01*
X45020452Y-37275544D01*
X45020455Y-37275547D01*
X45135664Y-37361793D01*
X45135671Y-37361797D01*
X45270517Y-37412091D01*
X45270516Y-37412091D01*
X45277444Y-37412835D01*
X45330127Y-37418500D01*
X46642547Y-37418499D01*
X46709586Y-37438184D01*
X46730228Y-37454818D01*
X46945181Y-37669771D01*
X46978666Y-37731094D01*
X46981500Y-37757452D01*
X46981500Y-37996380D01*
X46961815Y-38063419D01*
X46909011Y-38109174D01*
X46839853Y-38119118D01*
X46825407Y-38116155D01*
X46708610Y-38084860D01*
X46708599Y-38084858D01*
X46482002Y-38065034D01*
X46481998Y-38065034D01*
X46255400Y-38084858D01*
X46255389Y-38084860D01*
X46035682Y-38143730D01*
X46035673Y-38143734D01*
X45829513Y-38239868D01*
X45756526Y-38290973D01*
X46437599Y-38972046D01*
X46356852Y-38984835D01*
X46243955Y-39042359D01*
X46154359Y-39131955D01*
X46096835Y-39244852D01*
X46084046Y-39325599D01*
X45402973Y-38644526D01*
X45402972Y-38644527D01*
X45351868Y-38717513D01*
X45255734Y-38923673D01*
X45255730Y-38923682D01*
X45196860Y-39143389D01*
X45196858Y-39143400D01*
X45177034Y-39369997D01*
X45177034Y-39370002D01*
X45196858Y-39596599D01*
X45196860Y-39596610D01*
X45255730Y-39816317D01*
X45255734Y-39816326D01*
X45351865Y-40022481D01*
X45351866Y-40022483D01*
X45402973Y-40095471D01*
X45402974Y-40095472D01*
X46084046Y-39414399D01*
X46096835Y-39495148D01*
X46154359Y-39608045D01*
X46243955Y-39697641D01*
X46356852Y-39755165D01*
X46437597Y-39767953D01*
X45756526Y-40449025D01*
X45756526Y-40449026D01*
X45829512Y-40500131D01*
X45829516Y-40500133D01*
X46035673Y-40596265D01*
X46035682Y-40596269D01*
X46255389Y-40655139D01*
X46255400Y-40655141D01*
X46481998Y-40674966D01*
X46482002Y-40674966D01*
X46708599Y-40655141D01*
X46708609Y-40655139D01*
X46825407Y-40623844D01*
X46895256Y-40625507D01*
X46953119Y-40664669D01*
X46980623Y-40728898D01*
X46981500Y-40743619D01*
X46981500Y-43206255D01*
X46979775Y-43221872D01*
X46980061Y-43221899D01*
X46979326Y-43229665D01*
X46981500Y-43298814D01*
X46981500Y-43328343D01*
X46981501Y-43328360D01*
X46982368Y-43335231D01*
X46982826Y-43341050D01*
X46984290Y-43387624D01*
X46984291Y-43387627D01*
X46989880Y-43406867D01*
X46993824Y-43425911D01*
X46996336Y-43445792D01*
X47003582Y-43464094D01*
X47013490Y-43489119D01*
X47015382Y-43494647D01*
X47028381Y-43539388D01*
X47038580Y-43556634D01*
X47047138Y-43574103D01*
X47054514Y-43592732D01*
X47081898Y-43630423D01*
X47085106Y-43635307D01*
X47108827Y-43675416D01*
X47108833Y-43675424D01*
X47122990Y-43689580D01*
X47135627Y-43704375D01*
X47147406Y-43720587D01*
X47180041Y-43747585D01*
X47183309Y-43750288D01*
X47187620Y-43754210D01*
X48483374Y-45049965D01*
X48911228Y-45477819D01*
X48944713Y-45539142D01*
X48939729Y-45608834D01*
X48897857Y-45664767D01*
X48832393Y-45689184D01*
X48823547Y-45689500D01*
X47920129Y-45689500D01*
X47920118Y-45689501D01*
X47911815Y-45690394D01*
X47843056Y-45677986D01*
X47791920Y-45630374D01*
X47775036Y-45577913D01*
X47767635Y-45493308D01*
X47708739Y-45273504D01*
X47612568Y-45067266D01*
X47482047Y-44880861D01*
X47482045Y-44880858D01*
X47321141Y-44719954D01*
X47134734Y-44589432D01*
X47134732Y-44589431D01*
X46928497Y-44493261D01*
X46928488Y-44493258D01*
X46708697Y-44434366D01*
X46708693Y-44434365D01*
X46708692Y-44434365D01*
X46708691Y-44434364D01*
X46708686Y-44434364D01*
X46482002Y-44414532D01*
X46481998Y-44414532D01*
X46255313Y-44434364D01*
X46255302Y-44434366D01*
X46035511Y-44493258D01*
X46035502Y-44493261D01*
X45829267Y-44589431D01*
X45829265Y-44589432D01*
X45642858Y-44719954D01*
X45481954Y-44880858D01*
X45351432Y-45067265D01*
X45351431Y-45067267D01*
X45255261Y-45273502D01*
X45255258Y-45273511D01*
X45196366Y-45493302D01*
X45196364Y-45493313D01*
X45176532Y-45719998D01*
X45176532Y-45725414D01*
X45174871Y-45725414D01*
X45162578Y-45786519D01*
X45113953Y-45836693D01*
X45045921Y-45852612D01*
X44980082Y-45829224D01*
X44937339Y-45773954D01*
X44933050Y-45760885D01*
X44933018Y-45760768D01*
X44932903Y-45760337D01*
X44833035Y-45546171D01*
X44828114Y-45539142D01*
X44697494Y-45352597D01*
X44530402Y-45185506D01*
X44530396Y-45185501D01*
X44344842Y-45055575D01*
X44301217Y-45000998D01*
X44294023Y-44931500D01*
X44325546Y-44869145D01*
X44344842Y-44852425D01*
X44367026Y-44836891D01*
X44530401Y-44722495D01*
X44697495Y-44555401D01*
X44833035Y-44361830D01*
X44932903Y-44147663D01*
X44994063Y-43919408D01*
X45014659Y-43684000D01*
X45012455Y-43658814D01*
X44998146Y-43495258D01*
X44994063Y-43448592D01*
X44935403Y-43229667D01*
X44932905Y-43220344D01*
X44932904Y-43220343D01*
X44932903Y-43220337D01*
X44833035Y-43006171D01*
X44827425Y-42998158D01*
X44697494Y-42812597D01*
X44530402Y-42645506D01*
X44530396Y-42645501D01*
X44344842Y-42515575D01*
X44301217Y-42460998D01*
X44294023Y-42391500D01*
X44325546Y-42329145D01*
X44344842Y-42312425D01*
X44367026Y-42296891D01*
X44530401Y-42182495D01*
X44697495Y-42015401D01*
X44833035Y-41821830D01*
X44932903Y-41607663D01*
X44994063Y-41379408D01*
X45014659Y-41144000D01*
X44994063Y-40908592D01*
X44932903Y-40680337D01*
X44833035Y-40466171D01*
X44822964Y-40451787D01*
X44697494Y-40272597D01*
X44530402Y-40105506D01*
X44530395Y-40105501D01*
X44336834Y-39969967D01*
X44336830Y-39969965D01*
X44279713Y-39943331D01*
X44122663Y-39870097D01*
X44122659Y-39870096D01*
X44122655Y-39870094D01*
X43894413Y-39808938D01*
X43894403Y-39808936D01*
X43659001Y-39788341D01*
X43658999Y-39788341D01*
X43423596Y-39808936D01*
X43423586Y-39808938D01*
X43195344Y-39870094D01*
X43195335Y-39870098D01*
X42981171Y-39969964D01*
X42981169Y-39969965D01*
X42787600Y-40105503D01*
X42665673Y-40227430D01*
X42604350Y-40260914D01*
X42534658Y-40255930D01*
X42478725Y-40214058D01*
X42461810Y-40183081D01*
X42412797Y-40051671D01*
X42412793Y-40051664D01*
X42326547Y-39936455D01*
X42326544Y-39936452D01*
X42211335Y-39850206D01*
X42211328Y-39850202D01*
X42076482Y-39799908D01*
X42076483Y-39799908D01*
X42016883Y-39793501D01*
X42016881Y-39793500D01*
X42016873Y-39793500D01*
X42016864Y-39793500D01*
X40221129Y-39793500D01*
X40221123Y-39793501D01*
X40161516Y-39799908D01*
X40026671Y-39850202D01*
X40026664Y-39850206D01*
X39911455Y-39936452D01*
X39911452Y-39936455D01*
X39825206Y-40051664D01*
X39825202Y-40051671D01*
X39774908Y-40186517D01*
X39768501Y-40246116D01*
X39768500Y-40246135D01*
X39768500Y-42041870D01*
X39768501Y-42041876D01*
X39774908Y-42101483D01*
X39825202Y-42236328D01*
X39825206Y-42236335D01*
X39911452Y-42351544D01*
X39911455Y-42351547D01*
X40026664Y-42437793D01*
X40026671Y-42437797D01*
X40158081Y-42486810D01*
X40214015Y-42528681D01*
X40238432Y-42594145D01*
X40223580Y-42662418D01*
X40202430Y-42690673D01*
X40080503Y-42812600D01*
X39944965Y-43006169D01*
X39944964Y-43006171D01*
X39845098Y-43220335D01*
X39845094Y-43220344D01*
X39783938Y-43448586D01*
X39783936Y-43448596D01*
X39763341Y-43683999D01*
X39763341Y-43684000D01*
X39783936Y-43919403D01*
X39783938Y-43919413D01*
X39845094Y-44147655D01*
X39845096Y-44147659D01*
X39845097Y-44147663D01*
X39853127Y-44164883D01*
X39944965Y-44361830D01*
X39944967Y-44361834D01*
X39995755Y-44434366D01*
X40080501Y-44555396D01*
X40080506Y-44555402D01*
X40247597Y-44722493D01*
X40247603Y-44722498D01*
X40433158Y-44852425D01*
X40476783Y-44907002D01*
X40483977Y-44976500D01*
X40452454Y-45038855D01*
X40433158Y-45055575D01*
X40247597Y-45185505D01*
X40080505Y-45352597D01*
X39944965Y-45546169D01*
X39944964Y-45546171D01*
X39845098Y-45760335D01*
X39845094Y-45760344D01*
X39783938Y-45988586D01*
X39783936Y-45988596D01*
X39763341Y-46223999D01*
X39763341Y-46224000D01*
X39783936Y-46459403D01*
X39783938Y-46459413D01*
X39845094Y-46687655D01*
X39845096Y-46687659D01*
X39845097Y-46687663D01*
X39925004Y-46859023D01*
X39944965Y-46901830D01*
X39944967Y-46901834D01*
X40017650Y-47005635D01*
X40080501Y-47095396D01*
X40080506Y-47095402D01*
X40247597Y-47262493D01*
X40247603Y-47262498D01*
X40433158Y-47392425D01*
X40476783Y-47447002D01*
X40483977Y-47516500D01*
X40452454Y-47578855D01*
X40433158Y-47595575D01*
X40247597Y-47725505D01*
X40080505Y-47892597D01*
X39944965Y-48086169D01*
X39944964Y-48086171D01*
X39876127Y-48233793D01*
X39847368Y-48295468D01*
X39845098Y-48300335D01*
X39845094Y-48300344D01*
X39783938Y-48528586D01*
X39783936Y-48528596D01*
X39763341Y-48763999D01*
X39763341Y-48764000D01*
X39783936Y-48999403D01*
X39783938Y-48999413D01*
X39845094Y-49227655D01*
X39845096Y-49227659D01*
X39845097Y-49227663D01*
X39849000Y-49236032D01*
X39944965Y-49441830D01*
X39944967Y-49441834D01*
X40006702Y-49530000D01*
X40080501Y-49635396D01*
X40080506Y-49635402D01*
X40247597Y-49802493D01*
X40247603Y-49802498D01*
X40433158Y-49932425D01*
X40476783Y-49987002D01*
X40483977Y-50056500D01*
X40452454Y-50118855D01*
X40433158Y-50135575D01*
X40247597Y-50265505D01*
X40080505Y-50432597D01*
X39944965Y-50626169D01*
X39944964Y-50626171D01*
X39845098Y-50840335D01*
X39845094Y-50840344D01*
X39783938Y-51068586D01*
X39783936Y-51068596D01*
X39763341Y-51303999D01*
X39763341Y-51304000D01*
X39783936Y-51539403D01*
X39783938Y-51539413D01*
X39845094Y-51767655D01*
X39845096Y-51767659D01*
X39845097Y-51767663D01*
X39849000Y-51776032D01*
X39944965Y-51981830D01*
X39944967Y-51981834D01*
X40053281Y-52136521D01*
X40080501Y-52175396D01*
X40080506Y-52175402D01*
X40247597Y-52342493D01*
X40247603Y-52342498D01*
X40433158Y-52472425D01*
X40476783Y-52527002D01*
X40483977Y-52596500D01*
X40452454Y-52658855D01*
X40433158Y-52675575D01*
X40247597Y-52805505D01*
X40080505Y-52972597D01*
X39944965Y-53166169D01*
X39944964Y-53166171D01*
X39845098Y-53380335D01*
X39845094Y-53380344D01*
X39783938Y-53608586D01*
X39783936Y-53608596D01*
X39763341Y-53843999D01*
X39763341Y-53844000D01*
X39783936Y-54079403D01*
X39783938Y-54079413D01*
X39845094Y-54307655D01*
X39845096Y-54307659D01*
X39845097Y-54307663D01*
X39849000Y-54316032D01*
X39944965Y-54521830D01*
X39944967Y-54521834D01*
X39954395Y-54535298D01*
X40080501Y-54715396D01*
X40080506Y-54715402D01*
X40247597Y-54882493D01*
X40247603Y-54882498D01*
X40433158Y-55012425D01*
X40476783Y-55067002D01*
X40483977Y-55136500D01*
X40452454Y-55198855D01*
X40433158Y-55215575D01*
X40247597Y-55345505D01*
X40080505Y-55512597D01*
X39944965Y-55706169D01*
X39944964Y-55706171D01*
X39845098Y-55920335D01*
X39845094Y-55920344D01*
X39783938Y-56148586D01*
X39783936Y-56148596D01*
X39763341Y-56383999D01*
X39763341Y-56384000D01*
X39783936Y-56619403D01*
X39783938Y-56619413D01*
X39845094Y-56847655D01*
X39845096Y-56847659D01*
X39845097Y-56847663D01*
X39849000Y-56856032D01*
X39944965Y-57061830D01*
X39944967Y-57061834D01*
X40053281Y-57216521D01*
X40080501Y-57255396D01*
X40080506Y-57255402D01*
X40247597Y-57422493D01*
X40247603Y-57422498D01*
X40433158Y-57552425D01*
X40476783Y-57607002D01*
X40483977Y-57676500D01*
X40452454Y-57738855D01*
X40433158Y-57755575D01*
X40247597Y-57885505D01*
X40080505Y-58052597D01*
X39944965Y-58246169D01*
X39944964Y-58246171D01*
X39845098Y-58460335D01*
X39845094Y-58460344D01*
X39783938Y-58688586D01*
X39783936Y-58688596D01*
X39763341Y-58923999D01*
X39763341Y-58924000D01*
X39783936Y-59159403D01*
X39783938Y-59159413D01*
X39845094Y-59387655D01*
X39845096Y-59387659D01*
X39845097Y-59387663D01*
X39944965Y-59601830D01*
X39944967Y-59601834D01*
X40080507Y-59795404D01*
X40080838Y-59795799D01*
X40080929Y-59796007D01*
X40083610Y-59799836D01*
X40082840Y-59800374D01*
X40108848Y-59859808D01*
X40097805Y-59928800D01*
X40073526Y-59963181D01*
X39560208Y-60476498D01*
X39547951Y-60486319D01*
X39548134Y-60486540D01*
X39542123Y-60491512D01*
X39494772Y-60541935D01*
X39473889Y-60562818D01*
X39473877Y-60562831D01*
X39469621Y-60568316D01*
X39465837Y-60572746D01*
X39433937Y-60606717D01*
X39433936Y-60606719D01*
X39424284Y-60624275D01*
X39413610Y-60640525D01*
X39401329Y-60656360D01*
X39401324Y-60656367D01*
X39382815Y-60699137D01*
X39380245Y-60704383D01*
X39357803Y-60745205D01*
X39352822Y-60764606D01*
X39346521Y-60783009D01*
X39338562Y-60801401D01*
X39338561Y-60801404D01*
X39331271Y-60847426D01*
X39330087Y-60853145D01*
X39318501Y-60898271D01*
X39318500Y-60898281D01*
X39318500Y-60918315D01*
X39316973Y-60937714D01*
X39313840Y-60957493D01*
X39313840Y-60957494D01*
X34163500Y-60957494D01*
X34163500Y-32763500D01*
X34183185Y-32696461D01*
X34235989Y-32650706D01*
X34287500Y-32639500D01*
X93601500Y-32639500D01*
X93668539Y-32659185D01*
G37*
%TD.AperFunction*%
%TD*%
M02*
