%TF.GenerationSoftware,KiCad,Pcbnew,7.0.9*%
%TF.CreationDate,2024-08-02T01:25:27-05:00*%
%TF.ProjectId,Piggyback MEM0-7,50696767-7962-4616-936b-204d454d302d,rev?*%
%TF.SameCoordinates,Original*%
%TF.FileFunction,Soldermask,Top*%
%TF.FilePolarity,Negative*%
%FSLAX46Y46*%
G04 Gerber Fmt 4.6, Leading zero omitted, Abs format (unit mm)*
G04 Created by KiCad (PCBNEW 7.0.9) date 2024-08-02 01:25:27*
%MOMM*%
%LPD*%
G01*
G04 APERTURE LIST*
%ADD10R,1.600000X1.600000*%
%ADD11O,1.600000X1.600000*%
%ADD12R,1.700000X1.700000*%
%ADD13O,1.700000X1.700000*%
%ADD14C,1.600000*%
G04 APERTURE END LIST*
D10*
%TO.C,U3*%
X70485000Y-46990000D03*
D11*
X73025000Y-46990000D03*
X75565000Y-46990000D03*
X78105000Y-46990000D03*
X80645000Y-46990000D03*
X83185000Y-46990000D03*
X85725000Y-46990000D03*
X85725000Y-39370000D03*
X83185000Y-39370000D03*
X80645000Y-39370000D03*
X78105000Y-39370000D03*
X75565000Y-39370000D03*
X73025000Y-39370000D03*
X70485000Y-39370000D03*
%TD*%
D12*
%TO.C,J1*%
X41119000Y-41144000D03*
D13*
X43659000Y-41144000D03*
X41119000Y-43684000D03*
X43659000Y-43684000D03*
X41119000Y-46224000D03*
X43659000Y-46224000D03*
X41119000Y-48764000D03*
X43659000Y-48764000D03*
X41119000Y-51304000D03*
X43659000Y-51304000D03*
X41119000Y-53844000D03*
X43659000Y-53844000D03*
X41119000Y-56384000D03*
X43659000Y-56384000D03*
X41119000Y-58924000D03*
X43659000Y-58924000D03*
X41119000Y-61464000D03*
X43659000Y-61464000D03*
X41119000Y-64004000D03*
X43659000Y-64004000D03*
X41119000Y-66544000D03*
X43659000Y-66544000D03*
X41119000Y-69084000D03*
X43659000Y-69084000D03*
X41119000Y-71624000D03*
X43659000Y-71624000D03*
X41119000Y-74164000D03*
X43659000Y-74164000D03*
X41119000Y-76704000D03*
X43659000Y-76704000D03*
X41119000Y-79244000D03*
X43659000Y-79244000D03*
X41119000Y-81784000D03*
X43659000Y-81784000D03*
X41119000Y-84324000D03*
X43659000Y-84324000D03*
%TD*%
D14*
%TO.C,C1*%
X67310000Y-39497000D03*
X67310000Y-45847000D03*
%TD*%
D12*
%TO.C,J3*%
X46228000Y-36068000D03*
D13*
X48768000Y-36068000D03*
X51308000Y-36068000D03*
X53848000Y-36068000D03*
X56388000Y-36068000D03*
X58928000Y-36068000D03*
X61468000Y-36068000D03*
X64008000Y-36068000D03*
X66548000Y-36068000D03*
X69088000Y-36068000D03*
X71628000Y-36068000D03*
X74168000Y-36068000D03*
X76708000Y-36068000D03*
X79248000Y-36068000D03*
X81788000Y-36068000D03*
X84328000Y-36068000D03*
X86868000Y-36068000D03*
%TD*%
D14*
%TO.C,C2*%
X46482000Y-39370000D03*
X46482000Y-45720000D03*
%TD*%
D10*
%TO.C,U2*%
X48768000Y-46990000D03*
D11*
X51308000Y-46990000D03*
X53848000Y-46990000D03*
X56388000Y-46990000D03*
X58928000Y-46990000D03*
X61468000Y-46990000D03*
X64008000Y-46990000D03*
X64008000Y-39370000D03*
X61468000Y-39370000D03*
X58928000Y-39370000D03*
X56388000Y-39370000D03*
X53848000Y-39370000D03*
X51308000Y-39370000D03*
X48768000Y-39370000D03*
%TD*%
M02*
