%TF.GenerationSoftware,KiCad,Pcbnew,7.0.9*%
%TF.CreationDate,2024-08-02T01:25:27-05:00*%
%TF.ProjectId,Piggyback MEM0-7,50696767-7962-4616-936b-204d454d302d,rev?*%
%TF.SameCoordinates,Original*%
%TF.FileFunction,Copper,L1,Top*%
%TF.FilePolarity,Positive*%
%FSLAX46Y46*%
G04 Gerber Fmt 4.6, Leading zero omitted, Abs format (unit mm)*
G04 Created by KiCad (PCBNEW 7.0.9) date 2024-08-02 01:25:27*
%MOMM*%
%LPD*%
G01*
G04 APERTURE LIST*
%TA.AperFunction,ComponentPad*%
%ADD10R,1.600000X1.600000*%
%TD*%
%TA.AperFunction,ComponentPad*%
%ADD11O,1.600000X1.600000*%
%TD*%
%TA.AperFunction,ComponentPad*%
%ADD12R,1.700000X1.700000*%
%TD*%
%TA.AperFunction,ComponentPad*%
%ADD13O,1.700000X1.700000*%
%TD*%
%TA.AperFunction,ComponentPad*%
%ADD14C,1.600000*%
%TD*%
%TA.AperFunction,ViaPad*%
%ADD15C,0.800000*%
%TD*%
%TA.AperFunction,Conductor*%
%ADD16C,0.250000*%
%TD*%
%TA.AperFunction,Conductor*%
%ADD17C,0.500000*%
%TD*%
G04 APERTURE END LIST*
D10*
%TO.P,U3,1*%
%TO.N,~{CON INST}*%
X70485000Y-46990000D03*
D11*
%TO.P,U3,2*%
%TO.N,A11*%
X73025000Y-46990000D03*
%TO.P,U3,3*%
%TO.N,~{MEM4}*%
X75565000Y-46990000D03*
%TO.P,U3,4*%
%TO.N,~{CON INST}*%
X78105000Y-46990000D03*
%TO.P,U3,5*%
%TO.N,A10*%
X80645000Y-46990000D03*
%TO.P,U3,6*%
%TO.N,~{MEM5}*%
X83185000Y-46990000D03*
%TO.P,U3,7,GND*%
%TO.N,GND*%
X85725000Y-46990000D03*
%TO.P,U3,8*%
%TO.N,~{MEM6}*%
X85725000Y-39370000D03*
%TO.P,U3,9*%
%TO.N,~{CON INST}*%
X83185000Y-39370000D03*
%TO.P,U3,10*%
%TO.N,A09*%
X80645000Y-39370000D03*
%TO.P,U3,11*%
%TO.N,~{MEM7}*%
X78105000Y-39370000D03*
%TO.P,U3,12*%
%TO.N,~{CON INST}*%
X75565000Y-39370000D03*
%TO.P,U3,13*%
%TO.N,A08*%
X73025000Y-39370000D03*
%TO.P,U3,14,VCC*%
%TO.N,+5V*%
X70485000Y-39370000D03*
%TD*%
D12*
%TO.P,J1,1,Pin_1*%
%TO.N,GND*%
X41119000Y-41144000D03*
D13*
%TO.P,J1,2,Pin_2*%
X43659000Y-41144000D03*
%TO.P,J1,3,Pin_3*%
%TO.N,~{POWER FAIL}*%
X41119000Y-43684000D03*
%TO.P,J1,4,Pin_4*%
%TO.N,MEM OK*%
X43659000Y-43684000D03*
%TO.P,J1,5,Pin_5*%
%TO.N,~{EXEC}*%
X41119000Y-46224000D03*
%TO.P,J1,6,Pin_6*%
%TO.N,~{DEFER}*%
X43659000Y-46224000D03*
%TO.P,J1,7,Pin_7*%
%TO.N,~{FETCH}*%
X41119000Y-48764000D03*
%TO.P,J1,8,Pin_8*%
%TO.N,~{MEM15}*%
X43659000Y-48764000D03*
%TO.P,J1,9,Pin_9*%
%TO.N,~{MEM14}*%
X41119000Y-51304000D03*
%TO.P,J1,10,Pin_10*%
%TO.N,~{MEM13}*%
X43659000Y-51304000D03*
%TO.P,J1,11,Pin_11*%
%TO.N,~{MEM12}*%
X41119000Y-53844000D03*
%TO.P,J1,12,Pin_12*%
%TO.N,~{MEM11}*%
X43659000Y-53844000D03*
%TO.P,J1,13,Pin_13*%
%TO.N,~{MEM10}*%
X41119000Y-56384000D03*
%TO.P,J1,14,Pin_14*%
%TO.N,~{MEM9}*%
X43659000Y-56384000D03*
%TO.P,J1,15,Pin_15*%
%TO.N,~{MEM8}*%
X41119000Y-58924000D03*
%TO.P,J1,16,Pin_16*%
%TO.N,~{MEM7}*%
X43659000Y-58924000D03*
%TO.P,J1,17,Pin_17*%
%TO.N,~{MEM6}*%
X41119000Y-61464000D03*
%TO.P,J1,18,Pin_18*%
%TO.N,~{MEM5}*%
X43659000Y-61464000D03*
%TO.P,J1,19,Pin_19*%
%TO.N,~{MEM4}*%
X41119000Y-64004000D03*
%TO.P,J1,20,Pin_20*%
%TO.N,~{MEM3}*%
X43659000Y-64004000D03*
%TO.P,J1,21,Pin_21*%
%TO.N,~{MEM2}*%
X41119000Y-66544000D03*
%TO.P,J1,22,Pin_22*%
%TO.N,~{MEM1}*%
X43659000Y-66544000D03*
%TO.P,J1,23,Pin_23*%
%TO.N,~{MEM0}*%
X41119000Y-69084000D03*
%TO.P,J1,24,Pin_24*%
%TO.N,~{CARRY}*%
X43659000Y-69084000D03*
%TO.P,J1,25,Pin_25*%
%TO.N,~{ION}*%
X41119000Y-71624000D03*
%TO.P,J1,26,Pin_26*%
%TO.N,~{RUN}*%
X43659000Y-71624000D03*
%TO.P,J1,27,Pin_27*%
%TO.N,~{MBO15}*%
X41119000Y-74164000D03*
%TO.P,J1,28,Pin_28*%
%TO.N,~{MBO14}*%
X43659000Y-74164000D03*
%TO.P,J1,29,Pin_29*%
%TO.N,~{MBO13}*%
X41119000Y-76704000D03*
%TO.P,J1,30,Pin_30*%
%TO.N,~{MBO12}*%
X43659000Y-76704000D03*
%TO.P,J1,31,Pin_31*%
%TO.N,~{MBO11}*%
X41119000Y-79244000D03*
%TO.P,J1,32,Pin_32*%
%TO.N,~{MBO10}*%
X43659000Y-79244000D03*
%TO.P,J1,33,Pin_33*%
%TO.N,~{MBO9}*%
X41119000Y-81784000D03*
%TO.P,J1,34,Pin_34*%
%TO.N,~{MBO8}*%
X43659000Y-81784000D03*
%TO.P,J1,35,Pin_35*%
%TO.N,+5V*%
X41119000Y-84324000D03*
%TO.P,J1,36,Pin_36*%
X43659000Y-84324000D03*
%TD*%
D14*
%TO.P,C1,1*%
%TO.N,+5V*%
X67310000Y-39497000D03*
%TO.P,C1,2*%
%TO.N,GND*%
X67310000Y-45847000D03*
%TD*%
D12*
%TO.P,J3,1,Pin_1*%
%TO.N,A15*%
X46228000Y-36068000D03*
D13*
%TO.P,J3,2,Pin_2*%
%TO.N,A14*%
X48768000Y-36068000D03*
%TO.P,J3,3,Pin_3*%
%TO.N,A13*%
X51308000Y-36068000D03*
%TO.P,J3,4,Pin_4*%
%TO.N,A12*%
X53848000Y-36068000D03*
%TO.P,J3,5,Pin_5*%
%TO.N,A11*%
X56388000Y-36068000D03*
%TO.P,J3,6,Pin_6*%
%TO.N,A10*%
X58928000Y-36068000D03*
%TO.P,J3,7,Pin_7*%
%TO.N,A09*%
X61468000Y-36068000D03*
%TO.P,J3,8,Pin_8*%
%TO.N,A08*%
X64008000Y-36068000D03*
%TO.P,J3,9,Pin_9*%
%TO.N,unconnected-(J3-Pin_9-Pad9)*%
X66548000Y-36068000D03*
%TO.P,J3,10,Pin_10*%
%TO.N,RESTART ENABLE*%
X69088000Y-36068000D03*
%TO.P,J3,11,Pin_11*%
%TO.N,~{RST}*%
X71628000Y-36068000D03*
%TO.P,J3,12,Pin_12*%
%TO.N,~{CON RQ}*%
X74168000Y-36068000D03*
%TO.P,J3,13,Pin_13*%
%TO.N,~{CON INST}*%
X76708000Y-36068000D03*
%TO.P,J3,14,Pin_14*%
%TO.N,~{PL}*%
X79248000Y-36068000D03*
%TO.P,J3,15,Pin_15*%
%TO.N,~{ISTP}*%
X81788000Y-36068000D03*
%TO.P,J3,16,Pin_16*%
%TO.N,A01*%
X84328000Y-36068000D03*
%TO.P,J3,17,Pin_17*%
%TO.N,A00*%
X86868000Y-36068000D03*
%TD*%
D14*
%TO.P,C2,1*%
%TO.N,+5V*%
X46482000Y-39370000D03*
%TO.P,C2,2*%
%TO.N,GND*%
X46482000Y-45720000D03*
%TD*%
D10*
%TO.P,U2,1*%
%TO.N,~{CON INST}*%
X48768000Y-46990000D03*
D11*
%TO.P,U2,2*%
%TO.N,A15*%
X51308000Y-46990000D03*
%TO.P,U2,3*%
%TO.N,~{MEM0}*%
X53848000Y-46990000D03*
%TO.P,U2,4*%
%TO.N,~{CON INST}*%
X56388000Y-46990000D03*
%TO.P,U2,5*%
%TO.N,A14*%
X58928000Y-46990000D03*
%TO.P,U2,6*%
%TO.N,~{MEM1}*%
X61468000Y-46990000D03*
%TO.P,U2,7,GND*%
%TO.N,GND*%
X64008000Y-46990000D03*
%TO.P,U2,8*%
%TO.N,~{MEM2}*%
X64008000Y-39370000D03*
%TO.P,U2,9*%
%TO.N,~{CON INST}*%
X61468000Y-39370000D03*
%TO.P,U2,10*%
%TO.N,A13*%
X58928000Y-39370000D03*
%TO.P,U2,11*%
%TO.N,~{MEM3}*%
X56388000Y-39370000D03*
%TO.P,U2,12*%
%TO.N,~{CON INST}*%
X53848000Y-39370000D03*
%TO.P,U2,13*%
%TO.N,A12*%
X51308000Y-39370000D03*
%TO.P,U2,14,VCC*%
%TO.N,+5V*%
X48768000Y-39370000D03*
%TD*%
D15*
%TO.N,~{MEM7}*%
X77216000Y-45466000D03*
%TO.N,~{MEM3}*%
X60198000Y-49530000D03*
X60198000Y-53721000D03*
%TO.N,~{MEM2}*%
X67945000Y-43307000D03*
X67945000Y-53340000D03*
%TO.N,+5V*%
X80391000Y-44196000D03*
X83566000Y-44196000D03*
%TD*%
D16*
%TO.N,~{MEM7}*%
X78105000Y-44577000D02*
X77216000Y-45466000D01*
X78105000Y-39370000D02*
X78105000Y-44577000D01*
%TO.N,~{MEM3}*%
X60198000Y-53721000D02*
X60198000Y-53848000D01*
X60198000Y-52959000D02*
X60198000Y-53721000D01*
X60198000Y-49530000D02*
X60198000Y-53086000D01*
%TO.N,~{MEM2}*%
X67945000Y-53340000D02*
X67945000Y-48133000D01*
X68435000Y-43797000D02*
X67945000Y-43307000D01*
X67945000Y-48133000D02*
X68435000Y-47643000D01*
X68435000Y-47643000D02*
X68435000Y-43797000D01*
%TO.N,~{MEM1}*%
X48006000Y-62197000D02*
X48006000Y-53468396D01*
X53023198Y-48451198D02*
X60006802Y-48451198D01*
X43659000Y-66544000D02*
X48006000Y-62197000D01*
X60006802Y-48451198D02*
X61468000Y-46990000D01*
X48006000Y-53468396D02*
X53023198Y-48451198D01*
%TO.N,~{MEM0}*%
X42484000Y-67719000D02*
X42484000Y-65867299D01*
X41119000Y-69084000D02*
X42484000Y-67719000D01*
X47556000Y-61791000D02*
X47556000Y-53282000D01*
X42484000Y-65867299D02*
X43172299Y-65179000D01*
X43172299Y-65179000D02*
X44168000Y-65179000D01*
X47556000Y-53282000D02*
X53848000Y-46990000D01*
X44168000Y-65179000D02*
X47556000Y-61791000D01*
D17*
%TO.N,+5V*%
X48768000Y-39370000D02*
X46482000Y-39370000D01*
X80391000Y-44196000D02*
X83566000Y-44196000D01*
D16*
%TO.N,A12*%
X51308000Y-38608000D02*
X51308000Y-39370000D01*
X53848000Y-36068000D02*
X51308000Y-38608000D01*
%TO.N,A08*%
X71900000Y-38245000D02*
X73025000Y-39370000D01*
X64008000Y-36068000D02*
X66185000Y-38245000D01*
X66185000Y-38245000D02*
X71900000Y-38245000D01*
%TO.N,~{CON INST}*%
X48768000Y-46990000D02*
X48768000Y-44450000D01*
X78867000Y-46228000D02*
X78105000Y-46990000D01*
X61468000Y-39370000D02*
X62593000Y-40495000D01*
X48768000Y-44450000D02*
X53848000Y-39370000D01*
X70485000Y-46990000D02*
X71610000Y-45865000D01*
X56388000Y-46990000D02*
X56388000Y-41910000D01*
X83185000Y-39370000D02*
X78867000Y-43688000D01*
X71610000Y-45865000D02*
X76589695Y-45865000D01*
X70485000Y-44450000D02*
X75565000Y-39370000D01*
X74440000Y-40495000D02*
X75565000Y-39370000D01*
X75565000Y-37211000D02*
X76708000Y-36068000D01*
X76589695Y-45865000D02*
X77714695Y-46990000D01*
X56388000Y-46990000D02*
X56388000Y-44450000D01*
X56388000Y-44450000D02*
X61468000Y-39370000D01*
X75565000Y-39370000D02*
X75565000Y-37211000D01*
X62593000Y-40495000D02*
X74440000Y-40495000D01*
X77714695Y-46990000D02*
X78105000Y-46990000D01*
X78867000Y-43688000D02*
X78867000Y-46228000D01*
X56388000Y-41910000D02*
X53848000Y-39370000D01*
X70485000Y-46990000D02*
X70485000Y-44450000D01*
%TD*%
%TA.AperFunction,Conductor*%
%TO.N,GND*%
G36*
X46096835Y-45845148D02*
G01*
X46154359Y-45958045D01*
X46243955Y-46047641D01*
X46356852Y-46105165D01*
X46437599Y-46117953D01*
X45756526Y-46799025D01*
X45756526Y-46799026D01*
X45829512Y-46850131D01*
X45829516Y-46850133D01*
X46035673Y-46946265D01*
X46035682Y-46946269D01*
X46255389Y-47005139D01*
X46255400Y-47005141D01*
X46481998Y-47024966D01*
X46482002Y-47024966D01*
X46708599Y-47005141D01*
X46708610Y-47005139D01*
X46928317Y-46946269D01*
X46928326Y-46946265D01*
X47134483Y-46850133D01*
X47134489Y-46850130D01*
X47272376Y-46753579D01*
X47338582Y-46731251D01*
X47406349Y-46748261D01*
X47454162Y-46799208D01*
X47467500Y-46855153D01*
X47467500Y-47837870D01*
X47467501Y-47837876D01*
X47473908Y-47897483D01*
X47524202Y-48032328D01*
X47524206Y-48032335D01*
X47610452Y-48147544D01*
X47610455Y-48147547D01*
X47725664Y-48233793D01*
X47725671Y-48233797D01*
X47860517Y-48284091D01*
X47860516Y-48284091D01*
X47867444Y-48284835D01*
X47920127Y-48290500D01*
X49615872Y-48290499D01*
X49675483Y-48284091D01*
X49810331Y-48233796D01*
X49925546Y-48147546D01*
X50011796Y-48032331D01*
X50062091Y-47897483D01*
X50065862Y-47862401D01*
X50092599Y-47797855D01*
X50149990Y-47758006D01*
X50219816Y-47755511D01*
X50279905Y-47791163D01*
X50290726Y-47804536D01*
X50307956Y-47829143D01*
X50468858Y-47990045D01*
X50487541Y-48003127D01*
X50655266Y-48120568D01*
X50861504Y-48216739D01*
X51081308Y-48275635D01*
X51238780Y-48289412D01*
X51307998Y-48295468D01*
X51307999Y-48295468D01*
X51307999Y-48295467D01*
X51308000Y-48295468D01*
X51352102Y-48291609D01*
X51420600Y-48305375D01*
X51470784Y-48353989D01*
X51486718Y-48422018D01*
X51463344Y-48487862D01*
X51450590Y-48502818D01*
X47172208Y-52781199D01*
X47159951Y-52791020D01*
X47160134Y-52791241D01*
X47154123Y-52796213D01*
X47106772Y-52846636D01*
X47085889Y-52867519D01*
X47085877Y-52867532D01*
X47081621Y-52873017D01*
X47077837Y-52877447D01*
X47045937Y-52911418D01*
X47045936Y-52911420D01*
X47036284Y-52928976D01*
X47025610Y-52945226D01*
X47013329Y-52961061D01*
X47013324Y-52961068D01*
X46994815Y-53003838D01*
X46992245Y-53009084D01*
X46969803Y-53049906D01*
X46964822Y-53069307D01*
X46958521Y-53087710D01*
X46950562Y-53106102D01*
X46950561Y-53106105D01*
X46943271Y-53152127D01*
X46942087Y-53157846D01*
X46930501Y-53202972D01*
X46930500Y-53202982D01*
X46930500Y-53223016D01*
X46928973Y-53242415D01*
X46925840Y-53262194D01*
X46925840Y-53262195D01*
X46930225Y-53308583D01*
X46930500Y-53314421D01*
X46930500Y-61480546D01*
X46910815Y-61547585D01*
X46894181Y-61568227D01*
X45054679Y-63407728D01*
X44993356Y-63441213D01*
X44923664Y-63436229D01*
X44867731Y-63394357D01*
X44854616Y-63372452D01*
X44838296Y-63337454D01*
X44833035Y-63326171D01*
X44833033Y-63326168D01*
X44833032Y-63326166D01*
X44697494Y-63132597D01*
X44530402Y-62965506D01*
X44530396Y-62965501D01*
X44344842Y-62835575D01*
X44301217Y-62780998D01*
X44294023Y-62711500D01*
X44325546Y-62649145D01*
X44344842Y-62632425D01*
X44388939Y-62601548D01*
X44530401Y-62502495D01*
X44697495Y-62335401D01*
X44833035Y-62141830D01*
X44932903Y-61927663D01*
X44994063Y-61699408D01*
X45014659Y-61464000D01*
X44994063Y-61228592D01*
X44932903Y-61000337D01*
X44833035Y-60786171D01*
X44827425Y-60778158D01*
X44697494Y-60592597D01*
X44530402Y-60425506D01*
X44530396Y-60425501D01*
X44344842Y-60295575D01*
X44301217Y-60240998D01*
X44294023Y-60171500D01*
X44325546Y-60109145D01*
X44344842Y-60092425D01*
X44367026Y-60076891D01*
X44530401Y-59962495D01*
X44697495Y-59795401D01*
X44833035Y-59601830D01*
X44932903Y-59387663D01*
X44994063Y-59159408D01*
X45014659Y-58924000D01*
X44994063Y-58688592D01*
X44932903Y-58460337D01*
X44833035Y-58246171D01*
X44827425Y-58238158D01*
X44697494Y-58052597D01*
X44530402Y-57885506D01*
X44530396Y-57885501D01*
X44344842Y-57755575D01*
X44301217Y-57700998D01*
X44294023Y-57631500D01*
X44325546Y-57569145D01*
X44344842Y-57552425D01*
X44367026Y-57536891D01*
X44530401Y-57422495D01*
X44697495Y-57255401D01*
X44833035Y-57061830D01*
X44932903Y-56847663D01*
X44994063Y-56619408D01*
X45014659Y-56384000D01*
X44994063Y-56148592D01*
X44932903Y-55920337D01*
X44833035Y-55706171D01*
X44827425Y-55698158D01*
X44697494Y-55512597D01*
X44530402Y-55345506D01*
X44530396Y-55345501D01*
X44344842Y-55215575D01*
X44301217Y-55160998D01*
X44294023Y-55091500D01*
X44325546Y-55029145D01*
X44344842Y-55012425D01*
X44367026Y-54996891D01*
X44530401Y-54882495D01*
X44697495Y-54715401D01*
X44833035Y-54521830D01*
X44932903Y-54307663D01*
X44994063Y-54079408D01*
X45014659Y-53844000D01*
X44994063Y-53608592D01*
X44932903Y-53380337D01*
X44833035Y-53166171D01*
X44827425Y-53158158D01*
X44697494Y-52972597D01*
X44530402Y-52805506D01*
X44530396Y-52805501D01*
X44344842Y-52675575D01*
X44301217Y-52620998D01*
X44294023Y-52551500D01*
X44325546Y-52489145D01*
X44344842Y-52472425D01*
X44367026Y-52456891D01*
X44530401Y-52342495D01*
X44697495Y-52175401D01*
X44833035Y-51981830D01*
X44932903Y-51767663D01*
X44994063Y-51539408D01*
X45014659Y-51304000D01*
X44994063Y-51068592D01*
X44932903Y-50840337D01*
X44833035Y-50626171D01*
X44827425Y-50618158D01*
X44697494Y-50432597D01*
X44530402Y-50265506D01*
X44530396Y-50265501D01*
X44344842Y-50135575D01*
X44301217Y-50080998D01*
X44294023Y-50011500D01*
X44325546Y-49949145D01*
X44344842Y-49932425D01*
X44393610Y-49898277D01*
X44530401Y-49802495D01*
X44697495Y-49635401D01*
X44833035Y-49441830D01*
X44932903Y-49227663D01*
X44994063Y-48999408D01*
X45014659Y-48764000D01*
X44994063Y-48528592D01*
X44932903Y-48300337D01*
X44833035Y-48086171D01*
X44827558Y-48078348D01*
X44697494Y-47892597D01*
X44530402Y-47725506D01*
X44530396Y-47725501D01*
X44344842Y-47595575D01*
X44301217Y-47540998D01*
X44294023Y-47471500D01*
X44325546Y-47409145D01*
X44344842Y-47392425D01*
X44451644Y-47317641D01*
X44530401Y-47262495D01*
X44697495Y-47095401D01*
X44833035Y-46901830D01*
X44932903Y-46687663D01*
X44994063Y-46459408D01*
X45014659Y-46224000D01*
X45013820Y-46214418D01*
X45027584Y-46145921D01*
X45076197Y-46095736D01*
X45144225Y-46079800D01*
X45210070Y-46103172D01*
X45252826Y-46158432D01*
X45253777Y-46161267D01*
X45253879Y-46161231D01*
X45255734Y-46166326D01*
X45351865Y-46372481D01*
X45351866Y-46372483D01*
X45402973Y-46445471D01*
X45402974Y-46445472D01*
X46084046Y-45764399D01*
X46096835Y-45845148D01*
G37*
%TD.AperFunction*%
%TA.AperFunction,Conductor*%
G36*
X43199507Y-40934156D02*
G01*
X43159000Y-41072111D01*
X43159000Y-41215889D01*
X43199507Y-41353844D01*
X43225314Y-41394000D01*
X41552686Y-41394000D01*
X41578493Y-41353844D01*
X41619000Y-41215889D01*
X41619000Y-41072111D01*
X41578493Y-40934156D01*
X41552686Y-40894000D01*
X43225314Y-40894000D01*
X43199507Y-40934156D01*
G37*
%TD.AperFunction*%
%TA.AperFunction,Conductor*%
G36*
X93668539Y-32659185D02*
G01*
X93714294Y-32711989D01*
X93725500Y-32763500D01*
X93725500Y-55374500D01*
X93705815Y-55441539D01*
X93653011Y-55487294D01*
X93601500Y-55498500D01*
X50062760Y-55498500D01*
X50062554Y-55498459D01*
X50038000Y-55498459D01*
X50037901Y-55498500D01*
X50037617Y-55498616D01*
X50037615Y-55498618D01*
X50037459Y-55498999D01*
X50037476Y-55523616D01*
X50037471Y-55523616D01*
X50037500Y-55523759D01*
X50037500Y-90553500D01*
X50017815Y-90620539D01*
X49965011Y-90666294D01*
X49913500Y-90677500D01*
X34287500Y-90677500D01*
X34220461Y-90657815D01*
X34174706Y-90605011D01*
X34163500Y-90553500D01*
X34163500Y-84324000D01*
X39763341Y-84324000D01*
X39783936Y-84559403D01*
X39783938Y-84559413D01*
X39845094Y-84787655D01*
X39845096Y-84787659D01*
X39845097Y-84787663D01*
X39849000Y-84796032D01*
X39944965Y-85001830D01*
X39944967Y-85001834D01*
X40053281Y-85156521D01*
X40080505Y-85195401D01*
X40247599Y-85362495D01*
X40344384Y-85430265D01*
X40441165Y-85498032D01*
X40441167Y-85498033D01*
X40441170Y-85498035D01*
X40655337Y-85597903D01*
X40883592Y-85659063D01*
X41071918Y-85675539D01*
X41118999Y-85679659D01*
X41119000Y-85679659D01*
X41119001Y-85679659D01*
X41158234Y-85676226D01*
X41354408Y-85659063D01*
X41582663Y-85597903D01*
X41796830Y-85498035D01*
X41990401Y-85362495D01*
X42157495Y-85195401D01*
X42287425Y-85009842D01*
X42342002Y-84966217D01*
X42411500Y-84959023D01*
X42473855Y-84990546D01*
X42490575Y-85009842D01*
X42620500Y-85195395D01*
X42620505Y-85195401D01*
X42787599Y-85362495D01*
X42884384Y-85430265D01*
X42981165Y-85498032D01*
X42981167Y-85498033D01*
X42981170Y-85498035D01*
X43195337Y-85597903D01*
X43423592Y-85659063D01*
X43611918Y-85675539D01*
X43658999Y-85679659D01*
X43659000Y-85679659D01*
X43659001Y-85679659D01*
X43698234Y-85676226D01*
X43894408Y-85659063D01*
X44122663Y-85597903D01*
X44336830Y-85498035D01*
X44530401Y-85362495D01*
X44697495Y-85195401D01*
X44833035Y-85001830D01*
X44932903Y-84787663D01*
X44994063Y-84559408D01*
X45014659Y-84324000D01*
X44994063Y-84088592D01*
X44932903Y-83860337D01*
X44833035Y-83646171D01*
X44827425Y-83638158D01*
X44697494Y-83452597D01*
X44530402Y-83285506D01*
X44530396Y-83285501D01*
X44344842Y-83155575D01*
X44301217Y-83100998D01*
X44294023Y-83031500D01*
X44325546Y-82969145D01*
X44344842Y-82952425D01*
X44367026Y-82936891D01*
X44530401Y-82822495D01*
X44697495Y-82655401D01*
X44833035Y-82461830D01*
X44932903Y-82247663D01*
X44994063Y-82019408D01*
X45014659Y-81784000D01*
X44994063Y-81548592D01*
X44932903Y-81320337D01*
X44833035Y-81106171D01*
X44827425Y-81098158D01*
X44697494Y-80912597D01*
X44530402Y-80745506D01*
X44530396Y-80745501D01*
X44344842Y-80615575D01*
X44301217Y-80560998D01*
X44294023Y-80491500D01*
X44325546Y-80429145D01*
X44344842Y-80412425D01*
X44367026Y-80396891D01*
X44530401Y-80282495D01*
X44697495Y-80115401D01*
X44833035Y-79921830D01*
X44932903Y-79707663D01*
X44994063Y-79479408D01*
X45014659Y-79244000D01*
X44994063Y-79008592D01*
X44932903Y-78780337D01*
X44833035Y-78566171D01*
X44827425Y-78558158D01*
X44697494Y-78372597D01*
X44530402Y-78205506D01*
X44530396Y-78205501D01*
X44344842Y-78075575D01*
X44301217Y-78020998D01*
X44294023Y-77951500D01*
X44325546Y-77889145D01*
X44344842Y-77872425D01*
X44367026Y-77856891D01*
X44530401Y-77742495D01*
X44697495Y-77575401D01*
X44833035Y-77381830D01*
X44932903Y-77167663D01*
X44994063Y-76939408D01*
X45014659Y-76704000D01*
X44994063Y-76468592D01*
X44932903Y-76240337D01*
X44833035Y-76026171D01*
X44827425Y-76018158D01*
X44697494Y-75832597D01*
X44530402Y-75665506D01*
X44530396Y-75665501D01*
X44344842Y-75535575D01*
X44301217Y-75480998D01*
X44294023Y-75411500D01*
X44325546Y-75349145D01*
X44344842Y-75332425D01*
X44367026Y-75316891D01*
X44530401Y-75202495D01*
X44697495Y-75035401D01*
X44833035Y-74841830D01*
X44932903Y-74627663D01*
X44994063Y-74399408D01*
X45014659Y-74164000D01*
X44994063Y-73928592D01*
X44932903Y-73700337D01*
X44833035Y-73486171D01*
X44827425Y-73478158D01*
X44697494Y-73292597D01*
X44530402Y-73125506D01*
X44530396Y-73125501D01*
X44344842Y-72995575D01*
X44301217Y-72940998D01*
X44294023Y-72871500D01*
X44325546Y-72809145D01*
X44344842Y-72792425D01*
X44367026Y-72776891D01*
X44530401Y-72662495D01*
X44697495Y-72495401D01*
X44833035Y-72301830D01*
X44932903Y-72087663D01*
X44994063Y-71859408D01*
X45014659Y-71624000D01*
X44994063Y-71388592D01*
X44932903Y-71160337D01*
X44833035Y-70946171D01*
X44827425Y-70938158D01*
X44697494Y-70752597D01*
X44530402Y-70585506D01*
X44530396Y-70585501D01*
X44344842Y-70455575D01*
X44301217Y-70400998D01*
X44294023Y-70331500D01*
X44325546Y-70269145D01*
X44344842Y-70252425D01*
X44367026Y-70236891D01*
X44530401Y-70122495D01*
X44697495Y-69955401D01*
X44833035Y-69761830D01*
X44932903Y-69547663D01*
X44994063Y-69319408D01*
X45014659Y-69084000D01*
X44994063Y-68848592D01*
X44932903Y-68620337D01*
X44833035Y-68406171D01*
X44697495Y-68212599D01*
X44697494Y-68212597D01*
X44530402Y-68045506D01*
X44530396Y-68045501D01*
X44344842Y-67915575D01*
X44301217Y-67860998D01*
X44294023Y-67791500D01*
X44325546Y-67729145D01*
X44344842Y-67712425D01*
X44367026Y-67696891D01*
X44530401Y-67582495D01*
X44697495Y-67415401D01*
X44833035Y-67221830D01*
X44932903Y-67007663D01*
X44994063Y-66779408D01*
X45014659Y-66544000D01*
X44994063Y-66308592D01*
X44967143Y-66208125D01*
X44968806Y-66138276D01*
X44999235Y-66088353D01*
X48389788Y-62697801D01*
X48402042Y-62687986D01*
X48401859Y-62687764D01*
X48407866Y-62682792D01*
X48407877Y-62682786D01*
X48449901Y-62638035D01*
X48455227Y-62632364D01*
X48465671Y-62621918D01*
X48476120Y-62611471D01*
X48480379Y-62605978D01*
X48484152Y-62601561D01*
X48516062Y-62567582D01*
X48525713Y-62550024D01*
X48536396Y-62533761D01*
X48548673Y-62517936D01*
X48567185Y-62475153D01*
X48569738Y-62469941D01*
X48592197Y-62429092D01*
X48597180Y-62409680D01*
X48603481Y-62391280D01*
X48611437Y-62372896D01*
X48618729Y-62326852D01*
X48619906Y-62321171D01*
X48631500Y-62276019D01*
X48631500Y-62255983D01*
X48633027Y-62236582D01*
X48636160Y-62216804D01*
X48631775Y-62170415D01*
X48631500Y-62164577D01*
X48631500Y-53778848D01*
X48651185Y-53711809D01*
X48667819Y-53691167D01*
X53245970Y-49113017D01*
X53307293Y-49079532D01*
X53333651Y-49076698D01*
X59227773Y-49076698D01*
X59294812Y-49096383D01*
X59340567Y-49149187D01*
X59350511Y-49218345D01*
X59345704Y-49239016D01*
X59312327Y-49341740D01*
X59312326Y-49341744D01*
X59292540Y-49530000D01*
X59312326Y-49718256D01*
X59312327Y-49718259D01*
X59370818Y-49898277D01*
X59370821Y-49898284D01*
X59465467Y-50062216D01*
X59482379Y-50080998D01*
X59540650Y-50145715D01*
X59570880Y-50208706D01*
X59572500Y-50228687D01*
X59572500Y-53022312D01*
X59552815Y-53089351D01*
X59540650Y-53105284D01*
X59465466Y-53188784D01*
X59370821Y-53352715D01*
X59370818Y-53352722D01*
X59313784Y-53528256D01*
X59312326Y-53532744D01*
X59292540Y-53721000D01*
X59312326Y-53909256D01*
X59312327Y-53909259D01*
X59370818Y-54089277D01*
X59370821Y-54089284D01*
X59465467Y-54253216D01*
X59522027Y-54316032D01*
X59592129Y-54393888D01*
X59745265Y-54505148D01*
X59745270Y-54505151D01*
X59918192Y-54582142D01*
X59918197Y-54582144D01*
X60103354Y-54621500D01*
X60103355Y-54621500D01*
X60292644Y-54621500D01*
X60292646Y-54621500D01*
X60477803Y-54582144D01*
X60650730Y-54505151D01*
X60803871Y-54393888D01*
X60930533Y-54253216D01*
X61025179Y-54089284D01*
X61083674Y-53909256D01*
X61103460Y-53721000D01*
X61083674Y-53532744D01*
X61025179Y-53352716D01*
X60930533Y-53188784D01*
X60855350Y-53105284D01*
X60825120Y-53042292D01*
X60823500Y-53022312D01*
X60823500Y-50228687D01*
X60843185Y-50161648D01*
X60855350Y-50145715D01*
X60873891Y-50125122D01*
X60930533Y-50062216D01*
X61025179Y-49898284D01*
X61083674Y-49718256D01*
X61103460Y-49530000D01*
X61083674Y-49341744D01*
X61025179Y-49161716D01*
X60930533Y-48997784D01*
X60803871Y-48857112D01*
X60736917Y-48808467D01*
X60694251Y-48753137D01*
X60688272Y-48683524D01*
X60720878Y-48621729D01*
X60722121Y-48620468D01*
X60854727Y-48487862D01*
X61053178Y-48289410D01*
X61114500Y-48255927D01*
X61172947Y-48257317D01*
X61241308Y-48275635D01*
X61398780Y-48289412D01*
X61467998Y-48295468D01*
X61468000Y-48295468D01*
X61468002Y-48295468D01*
X61537220Y-48289412D01*
X61694692Y-48275635D01*
X61914496Y-48216739D01*
X62120734Y-48120568D01*
X62307139Y-47990047D01*
X62468047Y-47829139D01*
X62598568Y-47642734D01*
X62625895Y-47584129D01*
X62672064Y-47531695D01*
X62739257Y-47512542D01*
X62806139Y-47532757D01*
X62850657Y-47584133D01*
X62877865Y-47642482D01*
X63008342Y-47828820D01*
X63169179Y-47989657D01*
X63355517Y-48120134D01*
X63561673Y-48216265D01*
X63561682Y-48216269D01*
X63757999Y-48268872D01*
X63758000Y-48268871D01*
X63758000Y-47305686D01*
X63769955Y-47317641D01*
X63882852Y-47375165D01*
X63976519Y-47390000D01*
X64039481Y-47390000D01*
X64133148Y-47375165D01*
X64246045Y-47317641D01*
X64258000Y-47305686D01*
X64258000Y-48268872D01*
X64454317Y-48216269D01*
X64454326Y-48216265D01*
X64660482Y-48120134D01*
X64846820Y-47989657D01*
X65007657Y-47828820D01*
X65138134Y-47642482D01*
X65234265Y-47436326D01*
X65234269Y-47436317D01*
X65286872Y-47240000D01*
X64323686Y-47240000D01*
X64335641Y-47228045D01*
X64393165Y-47115148D01*
X64412986Y-46990000D01*
X64393165Y-46864852D01*
X64335641Y-46751955D01*
X64323686Y-46740000D01*
X65286872Y-46740000D01*
X65286872Y-46739999D01*
X65234269Y-46543682D01*
X65234265Y-46543673D01*
X65138134Y-46337517D01*
X65007657Y-46151179D01*
X64846820Y-45990342D01*
X64660482Y-45859865D01*
X64454328Y-45763734D01*
X64258000Y-45711127D01*
X64258000Y-46674314D01*
X64246045Y-46662359D01*
X64133148Y-46604835D01*
X64039481Y-46590000D01*
X63976519Y-46590000D01*
X63882852Y-46604835D01*
X63769955Y-46662359D01*
X63758000Y-46674314D01*
X63758000Y-45711127D01*
X63561671Y-45763734D01*
X63355517Y-45859865D01*
X63169179Y-45990342D01*
X63008342Y-46151179D01*
X62877867Y-46337515D01*
X62850657Y-46395867D01*
X62804484Y-46448306D01*
X62737290Y-46467457D01*
X62670409Y-46447241D01*
X62625893Y-46395865D01*
X62598570Y-46337271D01*
X62598567Y-46337265D01*
X62535926Y-46247804D01*
X62468047Y-46150861D01*
X62468045Y-46150858D01*
X62307141Y-45989954D01*
X62120734Y-45859432D01*
X62120732Y-45859431D01*
X61914497Y-45763261D01*
X61914488Y-45763258D01*
X61694697Y-45704366D01*
X61694693Y-45704365D01*
X61694692Y-45704365D01*
X61694691Y-45704364D01*
X61694686Y-45704364D01*
X61468002Y-45684532D01*
X61467998Y-45684532D01*
X61241313Y-45704364D01*
X61241302Y-45704366D01*
X61021511Y-45763258D01*
X61021502Y-45763261D01*
X60815267Y-45859431D01*
X60815265Y-45859432D01*
X60628858Y-45989954D01*
X60467954Y-46150858D01*
X60337432Y-46337265D01*
X60337431Y-46337267D01*
X60310382Y-46395275D01*
X60264209Y-46447714D01*
X60197016Y-46466866D01*
X60130135Y-46446650D01*
X60085618Y-46395275D01*
X60058568Y-46337267D01*
X60058567Y-46337265D01*
X59995926Y-46247804D01*
X59928047Y-46150861D01*
X59928045Y-46150858D01*
X59767141Y-45989954D01*
X59580734Y-45859432D01*
X59580732Y-45859431D01*
X59374497Y-45763261D01*
X59374488Y-45763258D01*
X59154697Y-45704366D01*
X59154693Y-45704365D01*
X59154692Y-45704365D01*
X59154691Y-45704364D01*
X59154686Y-45704364D01*
X58928002Y-45684532D01*
X58927998Y-45684532D01*
X58701313Y-45704364D01*
X58701302Y-45704366D01*
X58481511Y-45763258D01*
X58481502Y-45763261D01*
X58275267Y-45859431D01*
X58275265Y-45859432D01*
X58088858Y-45989954D01*
X57927954Y-46150858D01*
X57797432Y-46337265D01*
X57797431Y-46337267D01*
X57770382Y-46395275D01*
X57724209Y-46447714D01*
X57657016Y-46466866D01*
X57590135Y-46446650D01*
X57545618Y-46395275D01*
X57518568Y-46337267D01*
X57518567Y-46337265D01*
X57455926Y-46247804D01*
X57388047Y-46150861D01*
X57388045Y-46150858D01*
X57227140Y-45989953D01*
X57066377Y-45877386D01*
X57022752Y-45822809D01*
X57013500Y-45775811D01*
X57013500Y-44760452D01*
X57033185Y-44693413D01*
X57049819Y-44672771D01*
X59032306Y-42690284D01*
X61053179Y-40669410D01*
X61114500Y-40635927D01*
X61172947Y-40637317D01*
X61241308Y-40655635D01*
X61398780Y-40669412D01*
X61467998Y-40675468D01*
X61468000Y-40675468D01*
X61468002Y-40675468D01*
X61524673Y-40670509D01*
X61694692Y-40655635D01*
X61763048Y-40637319D01*
X61832897Y-40638982D01*
X61882822Y-40669413D01*
X62092197Y-40878788D01*
X62102022Y-40891051D01*
X62102243Y-40890869D01*
X62107214Y-40896878D01*
X62125840Y-40914368D01*
X62157635Y-40944226D01*
X62178529Y-40965120D01*
X62184011Y-40969373D01*
X62188443Y-40973157D01*
X62222418Y-41005062D01*
X62239976Y-41014714D01*
X62256235Y-41025395D01*
X62272064Y-41037673D01*
X62314838Y-41056182D01*
X62320056Y-41058738D01*
X62360908Y-41081197D01*
X62380316Y-41086180D01*
X62398717Y-41092480D01*
X62417104Y-41100437D01*
X62460488Y-41107308D01*
X62463119Y-41107725D01*
X62468839Y-41108909D01*
X62513981Y-41120500D01*
X62534016Y-41120500D01*
X62553414Y-41122026D01*
X62573194Y-41125159D01*
X62573195Y-41125160D01*
X62573195Y-41125159D01*
X62573196Y-41125160D01*
X62619584Y-41120775D01*
X62625422Y-41120500D01*
X72630548Y-41120500D01*
X72697587Y-41140185D01*
X72743342Y-41192989D01*
X72753286Y-41262147D01*
X72724261Y-41325703D01*
X72718229Y-41332181D01*
X70101208Y-43949199D01*
X70088951Y-43959020D01*
X70089134Y-43959241D01*
X70083123Y-43964213D01*
X70035772Y-44014636D01*
X70014889Y-44035519D01*
X70014877Y-44035532D01*
X70010621Y-44041017D01*
X70006837Y-44045447D01*
X69974937Y-44079418D01*
X69974936Y-44079420D01*
X69965284Y-44096976D01*
X69954610Y-44113226D01*
X69942329Y-44129061D01*
X69942324Y-44129068D01*
X69923815Y-44171838D01*
X69921245Y-44177084D01*
X69898803Y-44217906D01*
X69893822Y-44237307D01*
X69887521Y-44255710D01*
X69879562Y-44274102D01*
X69879561Y-44274105D01*
X69872271Y-44320127D01*
X69871087Y-44325846D01*
X69859501Y-44370972D01*
X69859500Y-44370982D01*
X69859500Y-44391016D01*
X69857973Y-44410415D01*
X69854840Y-44430194D01*
X69854840Y-44430195D01*
X69859225Y-44476583D01*
X69859500Y-44482421D01*
X69859500Y-45565500D01*
X69839815Y-45632539D01*
X69787011Y-45678294D01*
X69735501Y-45689500D01*
X69637130Y-45689500D01*
X69637123Y-45689501D01*
X69577516Y-45695908D01*
X69442671Y-45746202D01*
X69442664Y-45746206D01*
X69327455Y-45832452D01*
X69283766Y-45890813D01*
X69227832Y-45932683D01*
X69158140Y-45937667D01*
X69096817Y-45904181D01*
X69063333Y-45842857D01*
X69060500Y-45816501D01*
X69060500Y-43879742D01*
X69062224Y-43864122D01*
X69061939Y-43864095D01*
X69062673Y-43856333D01*
X69060500Y-43787172D01*
X69060500Y-43757656D01*
X69060500Y-43757650D01*
X69059631Y-43750779D01*
X69059173Y-43744952D01*
X69057710Y-43698373D01*
X69052119Y-43679130D01*
X69048173Y-43660078D01*
X69045664Y-43640208D01*
X69028504Y-43596867D01*
X69026624Y-43591379D01*
X69013618Y-43546610D01*
X69003422Y-43529370D01*
X68994861Y-43511894D01*
X68987487Y-43493270D01*
X68987486Y-43493268D01*
X68960079Y-43455545D01*
X68956888Y-43450686D01*
X68955646Y-43448586D01*
X68933922Y-43411851D01*
X68933172Y-43410583D01*
X68933165Y-43410574D01*
X68919006Y-43396415D01*
X68906368Y-43381619D01*
X68894593Y-43365411D01*
X68891969Y-43363241D01*
X68890468Y-43361019D01*
X68889254Y-43359726D01*
X68889462Y-43359530D01*
X68852863Y-43305340D01*
X68847692Y-43280665D01*
X68830674Y-43118744D01*
X68772179Y-42938716D01*
X68677533Y-42774784D01*
X68550871Y-42634112D01*
X68495326Y-42593756D01*
X68397734Y-42522851D01*
X68397729Y-42522848D01*
X68224807Y-42445857D01*
X68224802Y-42445855D01*
X68079001Y-42414865D01*
X68039646Y-42406500D01*
X67850354Y-42406500D01*
X67817897Y-42413398D01*
X67665197Y-42445855D01*
X67665192Y-42445857D01*
X67492270Y-42522848D01*
X67492265Y-42522851D01*
X67339129Y-42634111D01*
X67212466Y-42774785D01*
X67117821Y-42938715D01*
X67117818Y-42938722D01*
X67068569Y-43090297D01*
X67059326Y-43118744D01*
X67039540Y-43307000D01*
X67059326Y-43495256D01*
X67059327Y-43495259D01*
X67117818Y-43675277D01*
X67117821Y-43675284D01*
X67212467Y-43839216D01*
X67320339Y-43959020D01*
X67339129Y-43979888D01*
X67492265Y-44091148D01*
X67492270Y-44091151D01*
X67619178Y-44147655D01*
X67665197Y-44168144D01*
X67711283Y-44177939D01*
X67772762Y-44211131D01*
X67806539Y-44272293D01*
X67809500Y-44299229D01*
X67809500Y-44473380D01*
X67789815Y-44540419D01*
X67737011Y-44586174D01*
X67667853Y-44596118D01*
X67653407Y-44593155D01*
X67536610Y-44561860D01*
X67536599Y-44561858D01*
X67310002Y-44542034D01*
X67309998Y-44542034D01*
X67083400Y-44561858D01*
X67083389Y-44561860D01*
X66863682Y-44620730D01*
X66863673Y-44620734D01*
X66657513Y-44716868D01*
X66584526Y-44767973D01*
X67265599Y-45449046D01*
X67184852Y-45461835D01*
X67071955Y-45519359D01*
X66982359Y-45608955D01*
X66924835Y-45721852D01*
X66912046Y-45802599D01*
X66230973Y-45121526D01*
X66230972Y-45121527D01*
X66179868Y-45194513D01*
X66083734Y-45400673D01*
X66083730Y-45400682D01*
X66024860Y-45620389D01*
X66024858Y-45620400D01*
X66005034Y-45846997D01*
X66005034Y-45847002D01*
X66024858Y-46073599D01*
X66024860Y-46073610D01*
X66083730Y-46293317D01*
X66083734Y-46293326D01*
X66179865Y-46499481D01*
X66179866Y-46499483D01*
X66230973Y-46572471D01*
X66230974Y-46572472D01*
X66912046Y-45891399D01*
X66924835Y-45972148D01*
X66982359Y-46085045D01*
X67071955Y-46174641D01*
X67184852Y-46232165D01*
X67265597Y-46244953D01*
X66584526Y-46926025D01*
X66584526Y-46926026D01*
X66657512Y-46977131D01*
X66657516Y-46977133D01*
X66863673Y-47073265D01*
X66863682Y-47073269D01*
X67083389Y-47132139D01*
X67083400Y-47132141D01*
X67309998Y-47151966D01*
X67310002Y-47151966D01*
X67536599Y-47132141D01*
X67536609Y-47132139D01*
X67653407Y-47100844D01*
X67723256Y-47102507D01*
X67781119Y-47141669D01*
X67808623Y-47205898D01*
X67809500Y-47220619D01*
X67809500Y-47332547D01*
X67789815Y-47399586D01*
X67773181Y-47420228D01*
X67561211Y-47632197D01*
X67548948Y-47642022D01*
X67549131Y-47642244D01*
X67543121Y-47647215D01*
X67495772Y-47697636D01*
X67474889Y-47718519D01*
X67474877Y-47718532D01*
X67470621Y-47724017D01*
X67466837Y-47728447D01*
X67434937Y-47762418D01*
X67434936Y-47762420D01*
X67425284Y-47779976D01*
X67414610Y-47796226D01*
X67402329Y-47812061D01*
X67402324Y-47812068D01*
X67383815Y-47854838D01*
X67381245Y-47860084D01*
X67358803Y-47900906D01*
X67353822Y-47920307D01*
X67347521Y-47938710D01*
X67339562Y-47957102D01*
X67339561Y-47957105D01*
X67332271Y-48003127D01*
X67331087Y-48008846D01*
X67319501Y-48053972D01*
X67319500Y-48053982D01*
X67319500Y-48074016D01*
X67317973Y-48093415D01*
X67314840Y-48113194D01*
X67314840Y-48113195D01*
X67319225Y-48159583D01*
X67319500Y-48165421D01*
X67319500Y-52641312D01*
X67299815Y-52708351D01*
X67287650Y-52724284D01*
X67212466Y-52807784D01*
X67117821Y-52971715D01*
X67117818Y-52971722D01*
X67074156Y-53106102D01*
X67059326Y-53151744D01*
X67039540Y-53340000D01*
X67059326Y-53528256D01*
X67059327Y-53528259D01*
X67117818Y-53708277D01*
X67117821Y-53708284D01*
X67212467Y-53872216D01*
X67245821Y-53909259D01*
X67339129Y-54012888D01*
X67492265Y-54124148D01*
X67492270Y-54124151D01*
X67665192Y-54201142D01*
X67665197Y-54201144D01*
X67850354Y-54240500D01*
X67850355Y-54240500D01*
X68039644Y-54240500D01*
X68039646Y-54240500D01*
X68224803Y-54201144D01*
X68397730Y-54124151D01*
X68550871Y-54012888D01*
X68677533Y-53872216D01*
X68772179Y-53708284D01*
X68830674Y-53528256D01*
X68850460Y-53340000D01*
X68830674Y-53151744D01*
X68772179Y-52971716D01*
X68677533Y-52807784D01*
X68667115Y-52796214D01*
X68602350Y-52724284D01*
X68572120Y-52661292D01*
X68570500Y-52641312D01*
X68570500Y-48443451D01*
X68590185Y-48376412D01*
X68606815Y-48355774D01*
X68818786Y-48143802D01*
X68831048Y-48133980D01*
X68830865Y-48133759D01*
X68836867Y-48128792D01*
X68836877Y-48128786D01*
X68884241Y-48078348D01*
X68905120Y-48057470D01*
X68909373Y-48051986D01*
X68913150Y-48047563D01*
X68945062Y-48013582D01*
X68954714Y-47996023D01*
X68965389Y-47979772D01*
X68977674Y-47963936D01*
X68983174Y-47951223D01*
X69027860Y-47897517D01*
X69094492Y-47876494D01*
X69161912Y-47894832D01*
X69208716Y-47946709D01*
X69213158Y-47957136D01*
X69241202Y-48032328D01*
X69241206Y-48032335D01*
X69327452Y-48147544D01*
X69327455Y-48147547D01*
X69442664Y-48233793D01*
X69442671Y-48233797D01*
X69577517Y-48284091D01*
X69577516Y-48284091D01*
X69584444Y-48284835D01*
X69637127Y-48290500D01*
X71332872Y-48290499D01*
X71392483Y-48284091D01*
X71527331Y-48233796D01*
X71642546Y-48147546D01*
X71728796Y-48032331D01*
X71779091Y-47897483D01*
X71782862Y-47862401D01*
X71809599Y-47797855D01*
X71866990Y-47758006D01*
X71936816Y-47755511D01*
X71996905Y-47791163D01*
X72007726Y-47804536D01*
X72024956Y-47829143D01*
X72185858Y-47990045D01*
X72204541Y-48003127D01*
X72372266Y-48120568D01*
X72578504Y-48216739D01*
X72798308Y-48275635D01*
X72955780Y-48289412D01*
X73024998Y-48295468D01*
X73025000Y-48295468D01*
X73025002Y-48295468D01*
X73094220Y-48289412D01*
X73251692Y-48275635D01*
X73471496Y-48216739D01*
X73677734Y-48120568D01*
X73864139Y-47990047D01*
X74025047Y-47829139D01*
X74155568Y-47642734D01*
X74182618Y-47584724D01*
X74228790Y-47532285D01*
X74295983Y-47513133D01*
X74362865Y-47533348D01*
X74407382Y-47584725D01*
X74434429Y-47642728D01*
X74434432Y-47642734D01*
X74564954Y-47829141D01*
X74725858Y-47990045D01*
X74744541Y-48003127D01*
X74912266Y-48120568D01*
X75118504Y-48216739D01*
X75338308Y-48275635D01*
X75495780Y-48289412D01*
X75564998Y-48295468D01*
X75565000Y-48295468D01*
X75565002Y-48295468D01*
X75634220Y-48289412D01*
X75791692Y-48275635D01*
X76011496Y-48216739D01*
X76217734Y-48120568D01*
X76404139Y-47990047D01*
X76565047Y-47829139D01*
X76695568Y-47642734D01*
X76722618Y-47584724D01*
X76768790Y-47532285D01*
X76835983Y-47513133D01*
X76902865Y-47533348D01*
X76947382Y-47584725D01*
X76974429Y-47642728D01*
X76974432Y-47642734D01*
X77104954Y-47829141D01*
X77265858Y-47990045D01*
X77284541Y-48003127D01*
X77452266Y-48120568D01*
X77658504Y-48216739D01*
X77878308Y-48275635D01*
X78035780Y-48289412D01*
X78104998Y-48295468D01*
X78105000Y-48295468D01*
X78105002Y-48295468D01*
X78174220Y-48289412D01*
X78331692Y-48275635D01*
X78551496Y-48216739D01*
X78757734Y-48120568D01*
X78944139Y-47990047D01*
X79105047Y-47829139D01*
X79235568Y-47642734D01*
X79262618Y-47584724D01*
X79308790Y-47532285D01*
X79375983Y-47513133D01*
X79442865Y-47533348D01*
X79487382Y-47584725D01*
X79514429Y-47642728D01*
X79514432Y-47642734D01*
X79644954Y-47829141D01*
X79805858Y-47990045D01*
X79824541Y-48003127D01*
X79992266Y-48120568D01*
X80198504Y-48216739D01*
X80418308Y-48275635D01*
X80575780Y-48289412D01*
X80644998Y-48295468D01*
X80645000Y-48295468D01*
X80645002Y-48295468D01*
X80714220Y-48289412D01*
X80871692Y-48275635D01*
X81091496Y-48216739D01*
X81297734Y-48120568D01*
X81484139Y-47990047D01*
X81645047Y-47829139D01*
X81775568Y-47642734D01*
X81802618Y-47584724D01*
X81848790Y-47532285D01*
X81915983Y-47513133D01*
X81982865Y-47533348D01*
X82027382Y-47584725D01*
X82054429Y-47642728D01*
X82054432Y-47642734D01*
X82184954Y-47829141D01*
X82345858Y-47990045D01*
X82364541Y-48003127D01*
X82532266Y-48120568D01*
X82738504Y-48216739D01*
X82958308Y-48275635D01*
X83115780Y-48289412D01*
X83184998Y-48295468D01*
X83185000Y-48295468D01*
X83185002Y-48295468D01*
X83254220Y-48289412D01*
X83411692Y-48275635D01*
X83631496Y-48216739D01*
X83837734Y-48120568D01*
X84024139Y-47990047D01*
X84185047Y-47829139D01*
X84315568Y-47642734D01*
X84342895Y-47584129D01*
X84389064Y-47531695D01*
X84456257Y-47512542D01*
X84523139Y-47532757D01*
X84567657Y-47584133D01*
X84594865Y-47642482D01*
X84725342Y-47828820D01*
X84886179Y-47989657D01*
X85072517Y-48120134D01*
X85278673Y-48216265D01*
X85278682Y-48216269D01*
X85474999Y-48268872D01*
X85475000Y-48268871D01*
X85475000Y-47305686D01*
X85486955Y-47317641D01*
X85599852Y-47375165D01*
X85693519Y-47390000D01*
X85756481Y-47390000D01*
X85850148Y-47375165D01*
X85963045Y-47317641D01*
X85975000Y-47305686D01*
X85975000Y-48268872D01*
X86171317Y-48216269D01*
X86171326Y-48216265D01*
X86377482Y-48120134D01*
X86563820Y-47989657D01*
X86724657Y-47828820D01*
X86855134Y-47642482D01*
X86951265Y-47436326D01*
X86951269Y-47436317D01*
X87003872Y-47240000D01*
X86040686Y-47240000D01*
X86052641Y-47228045D01*
X86110165Y-47115148D01*
X86129986Y-46990000D01*
X86110165Y-46864852D01*
X86052641Y-46751955D01*
X86040686Y-46740000D01*
X87003872Y-46740000D01*
X87003872Y-46739999D01*
X86951269Y-46543682D01*
X86951265Y-46543673D01*
X86855134Y-46337517D01*
X86724657Y-46151179D01*
X86563820Y-45990342D01*
X86377482Y-45859865D01*
X86171328Y-45763734D01*
X85975000Y-45711127D01*
X85975000Y-46674314D01*
X85963045Y-46662359D01*
X85850148Y-46604835D01*
X85756481Y-46590000D01*
X85693519Y-46590000D01*
X85599852Y-46604835D01*
X85486955Y-46662359D01*
X85475000Y-46674314D01*
X85475000Y-45711127D01*
X85278671Y-45763734D01*
X85072517Y-45859865D01*
X84886179Y-45990342D01*
X84725342Y-46151179D01*
X84594867Y-46337515D01*
X84567657Y-46395867D01*
X84521484Y-46448306D01*
X84454290Y-46467457D01*
X84387409Y-46447241D01*
X84342893Y-46395865D01*
X84315570Y-46337271D01*
X84315567Y-46337265D01*
X84252926Y-46247804D01*
X84185047Y-46150861D01*
X84185045Y-46150858D01*
X84024141Y-45989954D01*
X83837734Y-45859432D01*
X83837732Y-45859431D01*
X83631497Y-45763261D01*
X83631488Y-45763258D01*
X83411697Y-45704366D01*
X83411693Y-45704365D01*
X83411692Y-45704365D01*
X83411691Y-45704364D01*
X83411686Y-45704364D01*
X83185002Y-45684532D01*
X83184998Y-45684532D01*
X82958313Y-45704364D01*
X82958302Y-45704366D01*
X82738511Y-45763258D01*
X82738502Y-45763261D01*
X82532267Y-45859431D01*
X82532265Y-45859432D01*
X82345858Y-45989954D01*
X82184954Y-46150858D01*
X82054432Y-46337265D01*
X82054431Y-46337267D01*
X82027382Y-46395275D01*
X81981209Y-46447714D01*
X81914016Y-46466866D01*
X81847135Y-46446650D01*
X81802618Y-46395275D01*
X81775568Y-46337267D01*
X81775567Y-46337265D01*
X81712926Y-46247804D01*
X81645047Y-46150861D01*
X81645045Y-46150858D01*
X81484141Y-45989954D01*
X81297734Y-45859432D01*
X81297732Y-45859431D01*
X81091497Y-45763261D01*
X81091488Y-45763258D01*
X80871697Y-45704366D01*
X80871693Y-45704365D01*
X80871692Y-45704365D01*
X80871691Y-45704364D01*
X80871686Y-45704364D01*
X80645002Y-45684532D01*
X80644998Y-45684532D01*
X80418313Y-45704364D01*
X80418302Y-45704366D01*
X80198511Y-45763258D01*
X80198502Y-45763261D01*
X79992267Y-45859431D01*
X79992265Y-45859432D01*
X79805858Y-45989954D01*
X79704181Y-46091632D01*
X79642858Y-46125117D01*
X79573166Y-46120133D01*
X79517233Y-46078261D01*
X79492816Y-46012797D01*
X79492500Y-46003951D01*
X79492500Y-44866921D01*
X79512185Y-44799882D01*
X79564989Y-44754127D01*
X79634147Y-44744183D01*
X79697703Y-44773208D01*
X79708644Y-44783943D01*
X79716899Y-44793111D01*
X79785129Y-44868888D01*
X79938265Y-44980148D01*
X79938270Y-44980151D01*
X80111192Y-45057142D01*
X80111197Y-45057144D01*
X80296354Y-45096500D01*
X80296355Y-45096500D01*
X80485644Y-45096500D01*
X80485646Y-45096500D01*
X80670803Y-45057144D01*
X80843730Y-44980151D01*
X80848755Y-44976500D01*
X80857452Y-44970182D01*
X80923258Y-44946702D01*
X80930337Y-44946500D01*
X83026663Y-44946500D01*
X83093702Y-44966185D01*
X83099548Y-44970182D01*
X83113265Y-44980148D01*
X83113270Y-44980151D01*
X83286192Y-45057142D01*
X83286197Y-45057144D01*
X83471354Y-45096500D01*
X83471355Y-45096500D01*
X83660644Y-45096500D01*
X83660646Y-45096500D01*
X83845803Y-45057144D01*
X84018730Y-44980151D01*
X84171871Y-44868888D01*
X84298533Y-44728216D01*
X84393179Y-44564284D01*
X84451674Y-44384256D01*
X84471460Y-44196000D01*
X84451674Y-44007744D01*
X84393179Y-43827716D01*
X84298533Y-43663784D01*
X84171871Y-43523112D01*
X84156431Y-43511894D01*
X84018734Y-43411851D01*
X84018729Y-43411848D01*
X83845807Y-43334857D01*
X83845802Y-43334855D01*
X83700001Y-43303865D01*
X83660646Y-43295500D01*
X83471354Y-43295500D01*
X83438897Y-43302398D01*
X83286197Y-43334855D01*
X83286192Y-43334857D01*
X83113270Y-43411848D01*
X83113265Y-43411851D01*
X83099548Y-43421818D01*
X83033742Y-43445298D01*
X83026663Y-43445500D01*
X80930337Y-43445500D01*
X80863298Y-43425815D01*
X80857452Y-43421818D01*
X80843734Y-43411851D01*
X80843729Y-43411848D01*
X80670807Y-43334857D01*
X80670802Y-43334855D01*
X80525001Y-43303865D01*
X80485646Y-43295500D01*
X80443451Y-43295500D01*
X80376412Y-43275815D01*
X80330657Y-43223011D01*
X80320713Y-43153853D01*
X80349738Y-43090297D01*
X80355770Y-43083819D01*
X81446852Y-41992737D01*
X82770179Y-40669410D01*
X82831500Y-40635927D01*
X82889947Y-40637317D01*
X82958308Y-40655635D01*
X83115780Y-40669412D01*
X83184998Y-40675468D01*
X83185000Y-40675468D01*
X83185002Y-40675468D01*
X83241673Y-40670509D01*
X83411692Y-40655635D01*
X83631496Y-40596739D01*
X83837734Y-40500568D01*
X84024139Y-40370047D01*
X84185047Y-40209139D01*
X84315568Y-40022734D01*
X84342618Y-39964724D01*
X84388790Y-39912285D01*
X84455983Y-39893133D01*
X84522865Y-39913348D01*
X84567382Y-39964725D01*
X84594429Y-40022728D01*
X84594432Y-40022734D01*
X84724954Y-40209141D01*
X84885858Y-40370045D01*
X84885861Y-40370047D01*
X85072266Y-40500568D01*
X85278504Y-40596739D01*
X85498308Y-40655635D01*
X85655780Y-40669412D01*
X85724998Y-40675468D01*
X85725000Y-40675468D01*
X85725002Y-40675468D01*
X85781673Y-40670509D01*
X85951692Y-40655635D01*
X86171496Y-40596739D01*
X86377734Y-40500568D01*
X86564139Y-40370047D01*
X86725047Y-40209139D01*
X86855568Y-40022734D01*
X86951739Y-39816496D01*
X87010635Y-39596692D01*
X87030468Y-39370000D01*
X87010635Y-39143308D01*
X86951739Y-38923504D01*
X86855568Y-38717266D01*
X86725047Y-38530861D01*
X86725045Y-38530858D01*
X86564141Y-38369954D01*
X86377734Y-38239432D01*
X86377732Y-38239431D01*
X86171497Y-38143261D01*
X86171488Y-38143258D01*
X85951697Y-38084366D01*
X85951693Y-38084365D01*
X85951692Y-38084365D01*
X85951691Y-38084364D01*
X85951686Y-38084364D01*
X85725002Y-38064532D01*
X85724998Y-38064532D01*
X85498313Y-38084364D01*
X85498302Y-38084366D01*
X85278511Y-38143258D01*
X85278502Y-38143261D01*
X85072267Y-38239431D01*
X85072265Y-38239432D01*
X84885858Y-38369954D01*
X84724954Y-38530858D01*
X84594432Y-38717265D01*
X84594431Y-38717267D01*
X84567382Y-38775275D01*
X84521209Y-38827714D01*
X84454016Y-38846866D01*
X84387135Y-38826650D01*
X84342618Y-38775275D01*
X84337692Y-38764711D01*
X84315568Y-38717266D01*
X84185047Y-38530861D01*
X84185045Y-38530858D01*
X84024141Y-38369954D01*
X83837734Y-38239432D01*
X83837732Y-38239431D01*
X83631497Y-38143261D01*
X83631488Y-38143258D01*
X83411697Y-38084366D01*
X83411693Y-38084365D01*
X83411692Y-38084365D01*
X83411691Y-38084364D01*
X83411686Y-38084364D01*
X83185002Y-38064532D01*
X83184998Y-38064532D01*
X82958313Y-38084364D01*
X82958302Y-38084366D01*
X82738511Y-38143258D01*
X82738502Y-38143261D01*
X82532267Y-38239431D01*
X82532265Y-38239432D01*
X82345858Y-38369954D01*
X82184954Y-38530858D01*
X82054432Y-38717265D01*
X82054431Y-38717267D01*
X82027382Y-38775275D01*
X81981209Y-38827714D01*
X81914016Y-38846866D01*
X81847135Y-38826650D01*
X81802618Y-38775275D01*
X81797692Y-38764711D01*
X81775568Y-38717266D01*
X81645047Y-38530861D01*
X81645045Y-38530858D01*
X81484141Y-38369954D01*
X81297734Y-38239432D01*
X81297732Y-38239431D01*
X81091497Y-38143261D01*
X81091488Y-38143258D01*
X80871697Y-38084366D01*
X80871693Y-38084365D01*
X80871692Y-38084365D01*
X80871691Y-38084364D01*
X80871686Y-38084364D01*
X80645002Y-38064532D01*
X80644998Y-38064532D01*
X80418313Y-38084364D01*
X80418302Y-38084366D01*
X80198511Y-38143258D01*
X80198502Y-38143261D01*
X79992267Y-38239431D01*
X79992265Y-38239432D01*
X79805858Y-38369954D01*
X79644954Y-38530858D01*
X79514432Y-38717265D01*
X79514431Y-38717267D01*
X79487382Y-38775275D01*
X79441209Y-38827714D01*
X79374016Y-38846866D01*
X79307135Y-38826650D01*
X79262618Y-38775275D01*
X79257692Y-38764711D01*
X79235568Y-38717266D01*
X79105047Y-38530861D01*
X79105045Y-38530858D01*
X78944141Y-38369954D01*
X78757734Y-38239432D01*
X78757732Y-38239431D01*
X78551497Y-38143261D01*
X78551488Y-38143258D01*
X78331697Y-38084366D01*
X78331693Y-38084365D01*
X78331692Y-38084365D01*
X78331691Y-38084364D01*
X78331686Y-38084364D01*
X78105002Y-38064532D01*
X78104998Y-38064532D01*
X77878313Y-38084364D01*
X77878302Y-38084366D01*
X77658511Y-38143258D01*
X77658502Y-38143261D01*
X77452267Y-38239431D01*
X77452265Y-38239432D01*
X77265858Y-38369954D01*
X77104954Y-38530858D01*
X76974432Y-38717265D01*
X76974431Y-38717267D01*
X76947382Y-38775275D01*
X76901209Y-38827714D01*
X76834016Y-38846866D01*
X76767135Y-38826650D01*
X76722618Y-38775275D01*
X76717692Y-38764711D01*
X76695568Y-38717266D01*
X76565047Y-38530861D01*
X76565045Y-38530858D01*
X76404140Y-38369953D01*
X76243377Y-38257386D01*
X76199752Y-38202809D01*
X76190500Y-38155811D01*
X76190500Y-37521452D01*
X76210185Y-37454413D01*
X76226819Y-37433771D01*
X76252353Y-37408237D01*
X76313676Y-37374752D01*
X76372125Y-37376142D01*
X76472592Y-37403063D01*
X76649034Y-37418500D01*
X76707999Y-37423659D01*
X76708000Y-37423659D01*
X76708001Y-37423659D01*
X76766966Y-37418500D01*
X76943408Y-37403063D01*
X77171663Y-37341903D01*
X77385830Y-37242035D01*
X77579401Y-37106495D01*
X77746495Y-36939401D01*
X77876425Y-36753842D01*
X77931002Y-36710217D01*
X78000500Y-36703023D01*
X78062855Y-36734546D01*
X78079575Y-36753842D01*
X78209500Y-36939395D01*
X78209505Y-36939401D01*
X78376599Y-37106495D01*
X78473384Y-37174265D01*
X78570165Y-37242032D01*
X78570167Y-37242033D01*
X78570170Y-37242035D01*
X78784337Y-37341903D01*
X79012592Y-37403063D01*
X79189034Y-37418500D01*
X79247999Y-37423659D01*
X79248000Y-37423659D01*
X79248001Y-37423659D01*
X79306966Y-37418500D01*
X79483408Y-37403063D01*
X79711663Y-37341903D01*
X79925830Y-37242035D01*
X80119401Y-37106495D01*
X80286495Y-36939401D01*
X80416425Y-36753842D01*
X80471002Y-36710217D01*
X80540500Y-36703023D01*
X80602855Y-36734546D01*
X80619575Y-36753842D01*
X80749500Y-36939395D01*
X80749505Y-36939401D01*
X80916599Y-37106495D01*
X81013384Y-37174265D01*
X81110165Y-37242032D01*
X81110167Y-37242033D01*
X81110170Y-37242035D01*
X81324337Y-37341903D01*
X81552592Y-37403063D01*
X81729034Y-37418500D01*
X81787999Y-37423659D01*
X81788000Y-37423659D01*
X81788001Y-37423659D01*
X81846966Y-37418500D01*
X82023408Y-37403063D01*
X82251663Y-37341903D01*
X82465830Y-37242035D01*
X82659401Y-37106495D01*
X82826495Y-36939401D01*
X82956425Y-36753842D01*
X83011002Y-36710217D01*
X83080500Y-36703023D01*
X83142855Y-36734546D01*
X83159575Y-36753842D01*
X83289500Y-36939395D01*
X83289505Y-36939401D01*
X83456599Y-37106495D01*
X83553384Y-37174265D01*
X83650165Y-37242032D01*
X83650167Y-37242033D01*
X83650170Y-37242035D01*
X83864337Y-37341903D01*
X84092592Y-37403063D01*
X84269034Y-37418500D01*
X84327999Y-37423659D01*
X84328000Y-37423659D01*
X84328001Y-37423659D01*
X84386966Y-37418500D01*
X84563408Y-37403063D01*
X84791663Y-37341903D01*
X85005830Y-37242035D01*
X85199401Y-37106495D01*
X85366495Y-36939401D01*
X85496425Y-36753842D01*
X85551002Y-36710217D01*
X85620500Y-36703023D01*
X85682855Y-36734546D01*
X85699575Y-36753842D01*
X85829500Y-36939395D01*
X85829505Y-36939401D01*
X85996599Y-37106495D01*
X86093384Y-37174265D01*
X86190165Y-37242032D01*
X86190167Y-37242033D01*
X86190170Y-37242035D01*
X86404337Y-37341903D01*
X86632592Y-37403063D01*
X86809034Y-37418500D01*
X86867999Y-37423659D01*
X86868000Y-37423659D01*
X86868001Y-37423659D01*
X86926966Y-37418500D01*
X87103408Y-37403063D01*
X87331663Y-37341903D01*
X87545830Y-37242035D01*
X87739401Y-37106495D01*
X87906495Y-36939401D01*
X88042035Y-36745830D01*
X88141903Y-36531663D01*
X88203063Y-36303408D01*
X88223659Y-36068000D01*
X88203063Y-35832592D01*
X88141903Y-35604337D01*
X88042035Y-35390171D01*
X88036425Y-35382158D01*
X87906494Y-35196597D01*
X87739402Y-35029506D01*
X87739395Y-35029501D01*
X87545834Y-34893967D01*
X87545830Y-34893965D01*
X87545828Y-34893964D01*
X87331663Y-34794097D01*
X87331659Y-34794096D01*
X87331655Y-34794094D01*
X87103413Y-34732938D01*
X87103403Y-34732936D01*
X86868001Y-34712341D01*
X86867999Y-34712341D01*
X86632596Y-34732936D01*
X86632586Y-34732938D01*
X86404344Y-34794094D01*
X86404335Y-34794098D01*
X86190171Y-34893964D01*
X86190169Y-34893965D01*
X85996597Y-35029505D01*
X85829505Y-35196597D01*
X85699575Y-35382158D01*
X85644998Y-35425783D01*
X85575500Y-35432977D01*
X85513145Y-35401454D01*
X85496425Y-35382158D01*
X85366494Y-35196597D01*
X85199402Y-35029506D01*
X85199395Y-35029501D01*
X85005834Y-34893967D01*
X85005830Y-34893965D01*
X85005828Y-34893964D01*
X84791663Y-34794097D01*
X84791659Y-34794096D01*
X84791655Y-34794094D01*
X84563413Y-34732938D01*
X84563403Y-34732936D01*
X84328001Y-34712341D01*
X84327999Y-34712341D01*
X84092596Y-34732936D01*
X84092586Y-34732938D01*
X83864344Y-34794094D01*
X83864335Y-34794098D01*
X83650171Y-34893964D01*
X83650169Y-34893965D01*
X83456597Y-35029505D01*
X83289505Y-35196597D01*
X83159575Y-35382158D01*
X83104998Y-35425783D01*
X83035500Y-35432977D01*
X82973145Y-35401454D01*
X82956425Y-35382158D01*
X82826494Y-35196597D01*
X82659402Y-35029506D01*
X82659395Y-35029501D01*
X82465834Y-34893967D01*
X82465830Y-34893965D01*
X82465828Y-34893964D01*
X82251663Y-34794097D01*
X82251659Y-34794096D01*
X82251655Y-34794094D01*
X82023413Y-34732938D01*
X82023403Y-34732936D01*
X81788001Y-34712341D01*
X81787999Y-34712341D01*
X81552596Y-34732936D01*
X81552586Y-34732938D01*
X81324344Y-34794094D01*
X81324335Y-34794098D01*
X81110171Y-34893964D01*
X81110169Y-34893965D01*
X80916597Y-35029505D01*
X80749505Y-35196597D01*
X80619575Y-35382158D01*
X80564998Y-35425783D01*
X80495500Y-35432977D01*
X80433145Y-35401454D01*
X80416425Y-35382158D01*
X80286494Y-35196597D01*
X80119402Y-35029506D01*
X80119395Y-35029501D01*
X79925834Y-34893967D01*
X79925830Y-34893965D01*
X79925828Y-34893964D01*
X79711663Y-34794097D01*
X79711659Y-34794096D01*
X79711655Y-34794094D01*
X79483413Y-34732938D01*
X79483403Y-34732936D01*
X79248001Y-34712341D01*
X79247999Y-34712341D01*
X79012596Y-34732936D01*
X79012586Y-34732938D01*
X78784344Y-34794094D01*
X78784335Y-34794098D01*
X78570171Y-34893964D01*
X78570169Y-34893965D01*
X78376597Y-35029505D01*
X78209505Y-35196597D01*
X78079575Y-35382158D01*
X78024998Y-35425783D01*
X77955500Y-35432977D01*
X77893145Y-35401454D01*
X77876425Y-35382158D01*
X77746494Y-35196597D01*
X77579402Y-35029506D01*
X77579395Y-35029501D01*
X77385834Y-34893967D01*
X77385830Y-34893965D01*
X77385828Y-34893964D01*
X77171663Y-34794097D01*
X77171659Y-34794096D01*
X77171655Y-34794094D01*
X76943413Y-34732938D01*
X76943403Y-34732936D01*
X76708001Y-34712341D01*
X76707999Y-34712341D01*
X76472596Y-34732936D01*
X76472586Y-34732938D01*
X76244344Y-34794094D01*
X76244335Y-34794098D01*
X76030171Y-34893964D01*
X76030169Y-34893965D01*
X75836597Y-35029505D01*
X75669505Y-35196597D01*
X75539575Y-35382158D01*
X75484998Y-35425783D01*
X75415500Y-35432977D01*
X75353145Y-35401454D01*
X75336425Y-35382158D01*
X75206494Y-35196597D01*
X75039402Y-35029506D01*
X75039395Y-35029501D01*
X74845834Y-34893967D01*
X74845830Y-34893965D01*
X74845828Y-34893964D01*
X74631663Y-34794097D01*
X74631659Y-34794096D01*
X74631655Y-34794094D01*
X74403413Y-34732938D01*
X74403403Y-34732936D01*
X74168001Y-34712341D01*
X74167999Y-34712341D01*
X73932596Y-34732936D01*
X73932586Y-34732938D01*
X73704344Y-34794094D01*
X73704335Y-34794098D01*
X73490171Y-34893964D01*
X73490169Y-34893965D01*
X73296597Y-35029505D01*
X73129505Y-35196597D01*
X72999575Y-35382158D01*
X72944998Y-35425783D01*
X72875500Y-35432977D01*
X72813145Y-35401454D01*
X72796425Y-35382158D01*
X72666494Y-35196597D01*
X72499402Y-35029506D01*
X72499395Y-35029501D01*
X72305834Y-34893967D01*
X72305830Y-34893965D01*
X72305828Y-34893964D01*
X72091663Y-34794097D01*
X72091659Y-34794096D01*
X72091655Y-34794094D01*
X71863413Y-34732938D01*
X71863403Y-34732936D01*
X71628001Y-34712341D01*
X71627999Y-34712341D01*
X71392596Y-34732936D01*
X71392586Y-34732938D01*
X71164344Y-34794094D01*
X71164335Y-34794098D01*
X70950171Y-34893964D01*
X70950169Y-34893965D01*
X70756597Y-35029505D01*
X70589505Y-35196597D01*
X70459575Y-35382158D01*
X70404998Y-35425783D01*
X70335500Y-35432977D01*
X70273145Y-35401454D01*
X70256425Y-35382158D01*
X70126494Y-35196597D01*
X69959402Y-35029506D01*
X69959395Y-35029501D01*
X69765834Y-34893967D01*
X69765830Y-34893965D01*
X69765828Y-34893964D01*
X69551663Y-34794097D01*
X69551659Y-34794096D01*
X69551655Y-34794094D01*
X69323413Y-34732938D01*
X69323403Y-34732936D01*
X69088001Y-34712341D01*
X69087999Y-34712341D01*
X68852596Y-34732936D01*
X68852586Y-34732938D01*
X68624344Y-34794094D01*
X68624335Y-34794098D01*
X68410171Y-34893964D01*
X68410169Y-34893965D01*
X68216597Y-35029505D01*
X68049505Y-35196597D01*
X67919575Y-35382158D01*
X67864998Y-35425783D01*
X67795500Y-35432977D01*
X67733145Y-35401454D01*
X67716425Y-35382158D01*
X67586494Y-35196597D01*
X67419402Y-35029506D01*
X67419395Y-35029501D01*
X67225834Y-34893967D01*
X67225830Y-34893965D01*
X67225828Y-34893964D01*
X67011663Y-34794097D01*
X67011659Y-34794096D01*
X67011655Y-34794094D01*
X66783413Y-34732938D01*
X66783403Y-34732936D01*
X66548001Y-34712341D01*
X66547999Y-34712341D01*
X66312596Y-34732936D01*
X66312586Y-34732938D01*
X66084344Y-34794094D01*
X66084335Y-34794098D01*
X65870171Y-34893964D01*
X65870169Y-34893965D01*
X65676597Y-35029505D01*
X65509505Y-35196597D01*
X65379575Y-35382158D01*
X65324998Y-35425783D01*
X65255500Y-35432977D01*
X65193145Y-35401454D01*
X65176425Y-35382158D01*
X65046494Y-35196597D01*
X64879402Y-35029506D01*
X64879395Y-35029501D01*
X64685834Y-34893967D01*
X64685830Y-34893965D01*
X64685828Y-34893964D01*
X64471663Y-34794097D01*
X64471659Y-34794096D01*
X64471655Y-34794094D01*
X64243413Y-34732938D01*
X64243403Y-34732936D01*
X64008001Y-34712341D01*
X64007999Y-34712341D01*
X63772596Y-34732936D01*
X63772586Y-34732938D01*
X63544344Y-34794094D01*
X63544335Y-34794098D01*
X63330171Y-34893964D01*
X63330169Y-34893965D01*
X63136597Y-35029505D01*
X62969505Y-35196597D01*
X62839575Y-35382158D01*
X62784998Y-35425783D01*
X62715500Y-35432977D01*
X62653145Y-35401454D01*
X62636425Y-35382158D01*
X62506494Y-35196597D01*
X62339402Y-35029506D01*
X62339395Y-35029501D01*
X62145834Y-34893967D01*
X62145830Y-34893965D01*
X62145828Y-34893964D01*
X61931663Y-34794097D01*
X61931659Y-34794096D01*
X61931655Y-34794094D01*
X61703413Y-34732938D01*
X61703403Y-34732936D01*
X61468001Y-34712341D01*
X61467999Y-34712341D01*
X61232596Y-34732936D01*
X61232586Y-34732938D01*
X61004344Y-34794094D01*
X61004335Y-34794098D01*
X60790171Y-34893964D01*
X60790169Y-34893965D01*
X60596597Y-35029505D01*
X60429505Y-35196597D01*
X60299575Y-35382158D01*
X60244998Y-35425783D01*
X60175500Y-35432977D01*
X60113145Y-35401454D01*
X60096425Y-35382158D01*
X59966494Y-35196597D01*
X59799402Y-35029506D01*
X59799395Y-35029501D01*
X59605834Y-34893967D01*
X59605830Y-34893965D01*
X59605828Y-34893964D01*
X59391663Y-34794097D01*
X59391659Y-34794096D01*
X59391655Y-34794094D01*
X59163413Y-34732938D01*
X59163403Y-34732936D01*
X58928001Y-34712341D01*
X58927999Y-34712341D01*
X58692596Y-34732936D01*
X58692586Y-34732938D01*
X58464344Y-34794094D01*
X58464335Y-34794098D01*
X58250171Y-34893964D01*
X58250169Y-34893965D01*
X58056597Y-35029505D01*
X57889505Y-35196597D01*
X57759575Y-35382158D01*
X57704998Y-35425783D01*
X57635500Y-35432977D01*
X57573145Y-35401454D01*
X57556425Y-35382158D01*
X57426494Y-35196597D01*
X57259402Y-35029506D01*
X57259395Y-35029501D01*
X57065834Y-34893967D01*
X57065830Y-34893965D01*
X57065828Y-34893964D01*
X56851663Y-34794097D01*
X56851659Y-34794096D01*
X56851655Y-34794094D01*
X56623413Y-34732938D01*
X56623403Y-34732936D01*
X56388001Y-34712341D01*
X56387999Y-34712341D01*
X56152596Y-34732936D01*
X56152586Y-34732938D01*
X55924344Y-34794094D01*
X55924335Y-34794098D01*
X55710171Y-34893964D01*
X55710169Y-34893965D01*
X55516597Y-35029505D01*
X55349505Y-35196597D01*
X55219575Y-35382158D01*
X55164998Y-35425783D01*
X55095500Y-35432977D01*
X55033145Y-35401454D01*
X55016425Y-35382158D01*
X54886494Y-35196597D01*
X54719402Y-35029506D01*
X54719395Y-35029501D01*
X54525834Y-34893967D01*
X54525830Y-34893965D01*
X54525828Y-34893964D01*
X54311663Y-34794097D01*
X54311659Y-34794096D01*
X54311655Y-34794094D01*
X54083413Y-34732938D01*
X54083403Y-34732936D01*
X53848001Y-34712341D01*
X53847999Y-34712341D01*
X53612596Y-34732936D01*
X53612586Y-34732938D01*
X53384344Y-34794094D01*
X53384335Y-34794098D01*
X53170171Y-34893964D01*
X53170169Y-34893965D01*
X52976597Y-35029505D01*
X52809505Y-35196597D01*
X52679575Y-35382158D01*
X52624998Y-35425783D01*
X52555500Y-35432977D01*
X52493145Y-35401454D01*
X52476425Y-35382158D01*
X52346494Y-35196597D01*
X52179402Y-35029506D01*
X52179395Y-35029501D01*
X51985834Y-34893967D01*
X51985830Y-34893965D01*
X51985828Y-34893964D01*
X51771663Y-34794097D01*
X51771659Y-34794096D01*
X51771655Y-34794094D01*
X51543413Y-34732938D01*
X51543403Y-34732936D01*
X51308001Y-34712341D01*
X51307999Y-34712341D01*
X51072596Y-34732936D01*
X51072586Y-34732938D01*
X50844344Y-34794094D01*
X50844335Y-34794098D01*
X50630171Y-34893964D01*
X50630169Y-34893965D01*
X50436597Y-35029505D01*
X50269505Y-35196597D01*
X50139575Y-35382158D01*
X50084998Y-35425783D01*
X50015500Y-35432977D01*
X49953145Y-35401454D01*
X49936425Y-35382158D01*
X49806494Y-35196597D01*
X49639402Y-35029506D01*
X49639395Y-35029501D01*
X49445834Y-34893967D01*
X49445830Y-34893965D01*
X49445828Y-34893964D01*
X49231663Y-34794097D01*
X49231659Y-34794096D01*
X49231655Y-34794094D01*
X49003413Y-34732938D01*
X49003403Y-34732936D01*
X48768001Y-34712341D01*
X48767999Y-34712341D01*
X48532596Y-34732936D01*
X48532586Y-34732938D01*
X48304344Y-34794094D01*
X48304335Y-34794098D01*
X48090171Y-34893964D01*
X48090169Y-34893965D01*
X47896600Y-35029503D01*
X47774673Y-35151430D01*
X47713350Y-35184914D01*
X47643658Y-35179930D01*
X47587725Y-35138058D01*
X47570810Y-35107081D01*
X47521797Y-34975671D01*
X47521793Y-34975664D01*
X47435547Y-34860455D01*
X47435544Y-34860452D01*
X47320335Y-34774206D01*
X47320328Y-34774202D01*
X47185482Y-34723908D01*
X47185483Y-34723908D01*
X47125883Y-34717501D01*
X47125881Y-34717500D01*
X47125873Y-34717500D01*
X47125864Y-34717500D01*
X45330129Y-34717500D01*
X45330123Y-34717501D01*
X45270516Y-34723908D01*
X45135671Y-34774202D01*
X45135664Y-34774206D01*
X45020455Y-34860452D01*
X45020452Y-34860455D01*
X44934206Y-34975664D01*
X44934202Y-34975671D01*
X44883908Y-35110517D01*
X44877501Y-35170116D01*
X44877500Y-35170135D01*
X44877500Y-36965870D01*
X44877501Y-36965876D01*
X44883908Y-37025483D01*
X44934202Y-37160328D01*
X44934206Y-37160335D01*
X45020452Y-37275544D01*
X45020455Y-37275547D01*
X45135664Y-37361793D01*
X45135671Y-37361797D01*
X45270517Y-37412091D01*
X45270516Y-37412091D01*
X45277444Y-37412835D01*
X45330127Y-37418500D01*
X47125872Y-37418499D01*
X47185483Y-37412091D01*
X47320331Y-37361796D01*
X47435546Y-37275546D01*
X47521796Y-37160331D01*
X47570810Y-37028916D01*
X47612681Y-36972984D01*
X47678145Y-36948566D01*
X47746418Y-36963417D01*
X47774673Y-36984569D01*
X47896599Y-37106495D01*
X47993384Y-37174265D01*
X48090165Y-37242032D01*
X48090167Y-37242033D01*
X48090170Y-37242035D01*
X48304337Y-37341903D01*
X48532592Y-37403063D01*
X48709034Y-37418500D01*
X48767999Y-37423659D01*
X48768000Y-37423659D01*
X48768001Y-37423659D01*
X48826966Y-37418500D01*
X49003408Y-37403063D01*
X49231663Y-37341903D01*
X49445830Y-37242035D01*
X49639401Y-37106495D01*
X49806495Y-36939401D01*
X49936425Y-36753842D01*
X49991002Y-36710217D01*
X50060500Y-36703023D01*
X50122855Y-36734546D01*
X50139575Y-36753842D01*
X50269500Y-36939395D01*
X50269505Y-36939401D01*
X50436599Y-37106495D01*
X50533384Y-37174265D01*
X50630165Y-37242032D01*
X50630167Y-37242033D01*
X50630170Y-37242035D01*
X50844337Y-37341903D01*
X51072592Y-37403063D01*
X51249034Y-37418500D01*
X51307999Y-37423659D01*
X51308387Y-37423659D01*
X51308551Y-37423707D01*
X51313394Y-37424131D01*
X51313308Y-37425104D01*
X51375426Y-37443344D01*
X51421181Y-37496148D01*
X51431125Y-37565306D01*
X51402100Y-37628862D01*
X51396068Y-37635340D01*
X50924208Y-38107199D01*
X50911881Y-38117075D01*
X50912065Y-38117298D01*
X50910633Y-38118481D01*
X50909215Y-38119212D01*
X50902987Y-38124203D01*
X50899550Y-38126385D01*
X50898503Y-38124737D01*
X50866525Y-38141232D01*
X50866590Y-38141410D01*
X50865199Y-38141915D01*
X50863771Y-38142653D01*
X50861507Y-38143259D01*
X50861504Y-38143260D01*
X50655267Y-38239431D01*
X50655265Y-38239432D01*
X50468858Y-38369954D01*
X50307954Y-38530858D01*
X50177432Y-38717265D01*
X50177431Y-38717267D01*
X50150382Y-38775275D01*
X50104209Y-38827714D01*
X50037016Y-38846866D01*
X49970135Y-38826650D01*
X49925618Y-38775275D01*
X49920692Y-38764711D01*
X49898568Y-38717266D01*
X49768047Y-38530861D01*
X49768045Y-38530858D01*
X49607141Y-38369954D01*
X49420734Y-38239432D01*
X49420732Y-38239431D01*
X49214497Y-38143261D01*
X49214488Y-38143258D01*
X48994697Y-38084366D01*
X48994693Y-38084365D01*
X48994692Y-38084365D01*
X48994691Y-38084364D01*
X48994686Y-38084364D01*
X48768002Y-38064532D01*
X48767998Y-38064532D01*
X48541313Y-38084364D01*
X48541302Y-38084366D01*
X48321511Y-38143258D01*
X48321502Y-38143261D01*
X48115267Y-38239431D01*
X48115265Y-38239432D01*
X47928858Y-38369954D01*
X47767954Y-38530858D01*
X47742912Y-38566623D01*
X47688335Y-38610248D01*
X47641337Y-38619500D01*
X47608663Y-38619500D01*
X47541624Y-38599815D01*
X47507088Y-38566623D01*
X47482045Y-38530858D01*
X47321141Y-38369954D01*
X47134734Y-38239432D01*
X47134732Y-38239431D01*
X46928497Y-38143261D01*
X46928488Y-38143258D01*
X46708697Y-38084366D01*
X46708693Y-38084365D01*
X46708692Y-38084365D01*
X46708691Y-38084364D01*
X46708686Y-38084364D01*
X46482002Y-38064532D01*
X46481998Y-38064532D01*
X46255313Y-38084364D01*
X46255302Y-38084366D01*
X46035511Y-38143258D01*
X46035502Y-38143261D01*
X45829267Y-38239431D01*
X45829265Y-38239432D01*
X45642858Y-38369954D01*
X45481954Y-38530858D01*
X45351432Y-38717265D01*
X45351431Y-38717267D01*
X45255261Y-38923502D01*
X45255258Y-38923511D01*
X45196366Y-39143302D01*
X45196364Y-39143313D01*
X45176532Y-39369998D01*
X45176532Y-39370001D01*
X45196364Y-39596686D01*
X45196366Y-39596697D01*
X45255258Y-39816488D01*
X45255261Y-39816497D01*
X45351431Y-40022732D01*
X45351432Y-40022734D01*
X45481954Y-40209141D01*
X45642858Y-40370045D01*
X45642861Y-40370047D01*
X45829266Y-40500568D01*
X46035504Y-40596739D01*
X46255308Y-40655635D01*
X46412780Y-40669412D01*
X46481998Y-40675468D01*
X46482000Y-40675468D01*
X46482002Y-40675468D01*
X46538673Y-40670509D01*
X46708692Y-40655635D01*
X46928496Y-40596739D01*
X47134734Y-40500568D01*
X47321139Y-40370047D01*
X47482047Y-40209139D01*
X47507088Y-40173377D01*
X47561665Y-40129752D01*
X47608663Y-40120500D01*
X47641337Y-40120500D01*
X47708376Y-40140185D01*
X47742912Y-40173377D01*
X47767954Y-40209141D01*
X47928858Y-40370045D01*
X47928861Y-40370047D01*
X48115266Y-40500568D01*
X48321504Y-40596739D01*
X48541308Y-40655635D01*
X48698780Y-40669412D01*
X48767998Y-40675468D01*
X48768000Y-40675468D01*
X48768002Y-40675468D01*
X48824673Y-40670509D01*
X48994692Y-40655635D01*
X49214496Y-40596739D01*
X49420734Y-40500568D01*
X49607139Y-40370047D01*
X49768047Y-40209139D01*
X49898568Y-40022734D01*
X49925618Y-39964724D01*
X49971790Y-39912285D01*
X50038983Y-39893133D01*
X50105865Y-39913348D01*
X50150382Y-39964725D01*
X50177429Y-40022728D01*
X50177432Y-40022734D01*
X50307954Y-40209141D01*
X50468858Y-40370045D01*
X50468861Y-40370047D01*
X50655266Y-40500568D01*
X50861504Y-40596739D01*
X51081308Y-40655635D01*
X51238780Y-40669412D01*
X51307998Y-40675468D01*
X51307999Y-40675468D01*
X51307999Y-40675467D01*
X51308000Y-40675468D01*
X51352102Y-40671609D01*
X51420600Y-40685375D01*
X51470784Y-40733989D01*
X51486718Y-40802018D01*
X51463344Y-40867862D01*
X51450590Y-40882818D01*
X48384208Y-43949199D01*
X48371951Y-43959020D01*
X48372134Y-43959241D01*
X48366123Y-43964213D01*
X48318772Y-44014636D01*
X48297889Y-44035519D01*
X48297877Y-44035532D01*
X48293621Y-44041017D01*
X48289837Y-44045447D01*
X48257937Y-44079418D01*
X48257936Y-44079420D01*
X48248284Y-44096976D01*
X48237610Y-44113226D01*
X48225329Y-44129061D01*
X48225324Y-44129068D01*
X48206815Y-44171838D01*
X48204245Y-44177084D01*
X48181803Y-44217906D01*
X48176822Y-44237307D01*
X48170521Y-44255710D01*
X48162562Y-44274102D01*
X48162561Y-44274105D01*
X48155271Y-44320127D01*
X48154087Y-44325846D01*
X48142501Y-44370972D01*
X48142500Y-44370982D01*
X48142500Y-44391016D01*
X48140973Y-44410415D01*
X48137840Y-44430194D01*
X48137840Y-44430195D01*
X48142225Y-44476583D01*
X48142500Y-44482421D01*
X48142500Y-45565500D01*
X48122815Y-45632539D01*
X48070011Y-45678294D01*
X48018501Y-45689500D01*
X47920130Y-45689500D01*
X47920105Y-45689502D01*
X47911313Y-45690447D01*
X47842555Y-45678037D01*
X47791421Y-45630423D01*
X47774539Y-45577963D01*
X47767141Y-45493400D01*
X47767139Y-45493389D01*
X47708269Y-45273682D01*
X47708265Y-45273673D01*
X47612133Y-45067516D01*
X47612131Y-45067512D01*
X47561026Y-44994526D01*
X47561025Y-44994526D01*
X46879953Y-45675598D01*
X46867165Y-45594852D01*
X46809641Y-45481955D01*
X46720045Y-45392359D01*
X46607148Y-45334835D01*
X46526400Y-45322046D01*
X47207472Y-44640974D01*
X47207471Y-44640973D01*
X47134483Y-44589866D01*
X47134481Y-44589865D01*
X46928326Y-44493734D01*
X46928317Y-44493730D01*
X46708610Y-44434860D01*
X46708599Y-44434858D01*
X46482002Y-44415034D01*
X46481998Y-44415034D01*
X46255400Y-44434858D01*
X46255389Y-44434860D01*
X46035682Y-44493730D01*
X46035673Y-44493734D01*
X45829513Y-44589868D01*
X45756527Y-44640972D01*
X45756526Y-44640973D01*
X46437600Y-45322046D01*
X46356852Y-45334835D01*
X46243955Y-45392359D01*
X46154359Y-45481955D01*
X46096835Y-45594852D01*
X46084046Y-45675599D01*
X45402973Y-44994526D01*
X45402972Y-44994527D01*
X45351868Y-45067513D01*
X45255734Y-45273673D01*
X45255730Y-45273682D01*
X45196860Y-45493389D01*
X45196858Y-45493400D01*
X45177034Y-45719997D01*
X45177034Y-45720000D01*
X45177102Y-45720778D01*
X45177034Y-45721116D01*
X45177034Y-45725414D01*
X45176170Y-45725414D01*
X45163336Y-45789278D01*
X45114720Y-45839461D01*
X45046692Y-45855395D01*
X44980848Y-45832020D01*
X44938095Y-45776758D01*
X44933800Y-45763681D01*
X44932907Y-45760350D01*
X44932905Y-45760344D01*
X44932903Y-45760337D01*
X44833035Y-45546171D01*
X44827425Y-45538158D01*
X44697494Y-45352597D01*
X44530402Y-45185506D01*
X44530396Y-45185501D01*
X44344842Y-45055575D01*
X44301217Y-45000998D01*
X44294023Y-44931500D01*
X44325546Y-44869145D01*
X44344842Y-44852425D01*
X44419881Y-44799882D01*
X44530401Y-44722495D01*
X44697495Y-44555401D01*
X44833035Y-44361830D01*
X44932903Y-44147663D01*
X44994063Y-43919408D01*
X45014659Y-43684000D01*
X45013896Y-43675284D01*
X45006553Y-43591351D01*
X44994063Y-43448592D01*
X44947626Y-43275285D01*
X44932905Y-43220344D01*
X44932904Y-43220343D01*
X44932903Y-43220337D01*
X44833035Y-43006171D01*
X44827425Y-42998158D01*
X44697494Y-42812597D01*
X44530402Y-42645506D01*
X44530401Y-42645505D01*
X44344405Y-42515269D01*
X44300781Y-42460692D01*
X44293588Y-42391193D01*
X44325110Y-42328839D01*
X44344405Y-42312119D01*
X44530082Y-42182105D01*
X44697105Y-42015082D01*
X44832600Y-41821578D01*
X44932429Y-41607492D01*
X44932432Y-41607486D01*
X44989636Y-41394000D01*
X44092686Y-41394000D01*
X44118493Y-41353844D01*
X44159000Y-41215889D01*
X44159000Y-41072111D01*
X44118493Y-40934156D01*
X44092686Y-40894000D01*
X44989636Y-40894000D01*
X44989635Y-40893999D01*
X44932432Y-40680513D01*
X44932429Y-40680507D01*
X44832600Y-40466422D01*
X44832599Y-40466420D01*
X44697113Y-40272926D01*
X44697108Y-40272920D01*
X44530082Y-40105894D01*
X44336578Y-39970399D01*
X44122492Y-39870570D01*
X44122486Y-39870567D01*
X43909000Y-39813364D01*
X43909000Y-40708498D01*
X43801315Y-40659320D01*
X43694763Y-40644000D01*
X43623237Y-40644000D01*
X43516685Y-40659320D01*
X43409000Y-40708498D01*
X43409000Y-39813364D01*
X43408999Y-39813364D01*
X43195513Y-39870567D01*
X43195507Y-39870570D01*
X42981422Y-39970399D01*
X42981420Y-39970400D01*
X42787926Y-40105886D01*
X42665477Y-40228335D01*
X42604154Y-40261819D01*
X42534462Y-40256835D01*
X42478529Y-40214963D01*
X42461614Y-40183986D01*
X42412354Y-40051913D01*
X42412350Y-40051906D01*
X42326190Y-39936812D01*
X42326187Y-39936809D01*
X42211093Y-39850649D01*
X42211086Y-39850645D01*
X42076379Y-39800403D01*
X42076372Y-39800401D01*
X42016844Y-39794000D01*
X41369000Y-39794000D01*
X41369000Y-40708498D01*
X41261315Y-40659320D01*
X41154763Y-40644000D01*
X41083237Y-40644000D01*
X40976685Y-40659320D01*
X40869000Y-40708498D01*
X40869000Y-39794000D01*
X40221155Y-39794000D01*
X40161627Y-39800401D01*
X40161620Y-39800403D01*
X40026913Y-39850645D01*
X40026906Y-39850649D01*
X39911812Y-39936809D01*
X39911809Y-39936812D01*
X39825649Y-40051906D01*
X39825645Y-40051913D01*
X39775403Y-40186620D01*
X39775401Y-40186627D01*
X39769000Y-40246155D01*
X39769000Y-40894000D01*
X40685314Y-40894000D01*
X40659507Y-40934156D01*
X40619000Y-41072111D01*
X40619000Y-41215889D01*
X40659507Y-41353844D01*
X40685314Y-41394000D01*
X39769000Y-41394000D01*
X39769000Y-42041844D01*
X39775401Y-42101372D01*
X39775403Y-42101379D01*
X39825645Y-42236086D01*
X39825649Y-42236093D01*
X39911809Y-42351187D01*
X39911812Y-42351190D01*
X40026906Y-42437350D01*
X40026913Y-42437354D01*
X40158470Y-42486421D01*
X40214403Y-42528292D01*
X40238821Y-42593756D01*
X40223970Y-42662029D01*
X40202819Y-42690284D01*
X40080503Y-42812600D01*
X39944965Y-43006169D01*
X39944964Y-43006171D01*
X39845098Y-43220335D01*
X39845094Y-43220344D01*
X39783938Y-43448586D01*
X39783936Y-43448596D01*
X39763341Y-43683999D01*
X39763341Y-43684000D01*
X39783936Y-43919403D01*
X39783938Y-43919413D01*
X39845094Y-44147655D01*
X39845096Y-44147659D01*
X39845097Y-44147663D01*
X39900534Y-44266547D01*
X39944965Y-44361830D01*
X39944967Y-44361834D01*
X39996101Y-44434860D01*
X40080501Y-44555396D01*
X40080506Y-44555402D01*
X40247597Y-44722493D01*
X40247603Y-44722498D01*
X40433158Y-44852425D01*
X40476783Y-44907002D01*
X40483977Y-44976500D01*
X40452454Y-45038855D01*
X40433158Y-45055575D01*
X40247597Y-45185505D01*
X40080505Y-45352597D01*
X39944965Y-45546169D01*
X39944964Y-45546171D01*
X39845098Y-45760335D01*
X39845094Y-45760344D01*
X39783938Y-45988586D01*
X39783936Y-45988596D01*
X39763341Y-46223999D01*
X39763341Y-46224000D01*
X39783936Y-46459403D01*
X39783938Y-46459413D01*
X39845094Y-46687655D01*
X39845096Y-46687659D01*
X39845097Y-46687663D01*
X39920857Y-46850130D01*
X39944965Y-46901830D01*
X39944967Y-46901834D01*
X40006702Y-46990000D01*
X40080501Y-47095396D01*
X40080506Y-47095402D01*
X40247597Y-47262493D01*
X40247603Y-47262498D01*
X40433158Y-47392425D01*
X40476783Y-47447002D01*
X40483977Y-47516500D01*
X40452454Y-47578855D01*
X40433158Y-47595575D01*
X40247597Y-47725505D01*
X40080505Y-47892597D01*
X39944965Y-48086169D01*
X39944964Y-48086171D01*
X39881037Y-48223263D01*
X39847368Y-48295468D01*
X39845098Y-48300335D01*
X39845094Y-48300344D01*
X39783938Y-48528586D01*
X39783936Y-48528596D01*
X39763341Y-48763999D01*
X39763341Y-48764000D01*
X39783936Y-48999403D01*
X39783938Y-48999413D01*
X39845094Y-49227655D01*
X39845096Y-49227659D01*
X39845097Y-49227663D01*
X39898292Y-49341740D01*
X39944965Y-49441830D01*
X39944967Y-49441834D01*
X40006702Y-49530000D01*
X40080501Y-49635396D01*
X40080506Y-49635402D01*
X40247597Y-49802493D01*
X40247603Y-49802498D01*
X40433158Y-49932425D01*
X40476783Y-49987002D01*
X40483977Y-50056500D01*
X40452454Y-50118855D01*
X40433158Y-50135575D01*
X40247597Y-50265505D01*
X40080505Y-50432597D01*
X39944965Y-50626169D01*
X39944964Y-50626171D01*
X39845098Y-50840335D01*
X39845094Y-50840344D01*
X39783938Y-51068586D01*
X39783936Y-51068596D01*
X39763341Y-51303999D01*
X39763341Y-51304000D01*
X39783936Y-51539403D01*
X39783938Y-51539413D01*
X39845094Y-51767655D01*
X39845096Y-51767659D01*
X39845097Y-51767663D01*
X39849000Y-51776032D01*
X39944965Y-51981830D01*
X39944967Y-51981834D01*
X40053281Y-52136521D01*
X40080501Y-52175396D01*
X40080506Y-52175402D01*
X40247597Y-52342493D01*
X40247603Y-52342498D01*
X40433158Y-52472425D01*
X40476783Y-52527002D01*
X40483977Y-52596500D01*
X40452454Y-52658855D01*
X40433158Y-52675575D01*
X40247597Y-52805505D01*
X40080505Y-52972597D01*
X39944965Y-53166169D01*
X39944964Y-53166171D01*
X39845098Y-53380335D01*
X39845094Y-53380344D01*
X39783938Y-53608586D01*
X39783936Y-53608596D01*
X39763341Y-53843999D01*
X39763341Y-53844000D01*
X39783936Y-54079403D01*
X39783938Y-54079413D01*
X39845094Y-54307655D01*
X39845096Y-54307659D01*
X39845097Y-54307663D01*
X39925004Y-54479023D01*
X39944965Y-54521830D01*
X39944967Y-54521834D01*
X40053281Y-54676521D01*
X40080501Y-54715396D01*
X40080506Y-54715402D01*
X40247597Y-54882493D01*
X40247603Y-54882498D01*
X40433158Y-55012425D01*
X40476783Y-55067002D01*
X40483977Y-55136500D01*
X40452454Y-55198855D01*
X40433158Y-55215575D01*
X40247597Y-55345505D01*
X40080505Y-55512597D01*
X39944965Y-55706169D01*
X39944964Y-55706171D01*
X39845098Y-55920335D01*
X39845094Y-55920344D01*
X39783938Y-56148586D01*
X39783936Y-56148596D01*
X39763341Y-56383999D01*
X39763341Y-56384000D01*
X39783936Y-56619403D01*
X39783938Y-56619413D01*
X39845094Y-56847655D01*
X39845096Y-56847659D01*
X39845097Y-56847663D01*
X39849000Y-56856032D01*
X39944965Y-57061830D01*
X39944967Y-57061834D01*
X40053281Y-57216521D01*
X40080501Y-57255396D01*
X40080506Y-57255402D01*
X40247597Y-57422493D01*
X40247603Y-57422498D01*
X40433158Y-57552425D01*
X40476783Y-57607002D01*
X40483977Y-57676500D01*
X40452454Y-57738855D01*
X40433158Y-57755575D01*
X40247597Y-57885505D01*
X40080505Y-58052597D01*
X39944965Y-58246169D01*
X39944964Y-58246171D01*
X39845098Y-58460335D01*
X39845094Y-58460344D01*
X39783938Y-58688586D01*
X39783936Y-58688596D01*
X39763341Y-58923999D01*
X39763341Y-58924000D01*
X39783936Y-59159403D01*
X39783938Y-59159413D01*
X39845094Y-59387655D01*
X39845096Y-59387659D01*
X39845097Y-59387663D01*
X39849000Y-59396032D01*
X39944965Y-59601830D01*
X39944967Y-59601834D01*
X40053281Y-59756521D01*
X40080501Y-59795396D01*
X40080506Y-59795402D01*
X40247597Y-59962493D01*
X40247603Y-59962498D01*
X40433158Y-60092425D01*
X40476783Y-60147002D01*
X40483977Y-60216500D01*
X40452454Y-60278855D01*
X40433158Y-60295575D01*
X40247597Y-60425505D01*
X40080505Y-60592597D01*
X39944965Y-60786169D01*
X39944964Y-60786171D01*
X39845098Y-61000335D01*
X39845094Y-61000344D01*
X39783938Y-61228586D01*
X39783936Y-61228596D01*
X39763341Y-61463999D01*
X39763341Y-61464000D01*
X39783936Y-61699403D01*
X39783938Y-61699413D01*
X39845094Y-61927655D01*
X39845096Y-61927659D01*
X39845097Y-61927663D01*
X39849000Y-61936032D01*
X39944965Y-62141830D01*
X39944967Y-62141834D01*
X40038925Y-62276019D01*
X40080501Y-62335396D01*
X40080506Y-62335402D01*
X40247597Y-62502493D01*
X40247603Y-62502498D01*
X40433158Y-62632425D01*
X40476783Y-62687002D01*
X40483977Y-62756500D01*
X40452454Y-62818855D01*
X40433158Y-62835575D01*
X40247597Y-62965505D01*
X40080505Y-63132597D01*
X39944965Y-63326169D01*
X39944964Y-63326171D01*
X39845098Y-63540335D01*
X39845094Y-63540344D01*
X39783938Y-63768586D01*
X39783936Y-63768596D01*
X39763341Y-64003999D01*
X39763341Y-64004000D01*
X39783936Y-64239403D01*
X39783938Y-64239413D01*
X39845094Y-64467655D01*
X39845096Y-64467659D01*
X39845097Y-64467663D01*
X39849000Y-64476032D01*
X39944965Y-64681830D01*
X39944967Y-64681834D01*
X40008801Y-64772997D01*
X40080501Y-64875396D01*
X40080506Y-64875402D01*
X40247597Y-65042493D01*
X40247603Y-65042498D01*
X40433158Y-65172425D01*
X40476783Y-65227002D01*
X40483977Y-65296500D01*
X40452454Y-65358855D01*
X40433158Y-65375575D01*
X40247597Y-65505505D01*
X40080505Y-65672597D01*
X39944965Y-65866169D01*
X39944964Y-65866171D01*
X39845098Y-66080335D01*
X39845094Y-66080344D01*
X39783938Y-66308586D01*
X39783936Y-66308596D01*
X39763341Y-66543999D01*
X39763341Y-66544000D01*
X39783936Y-66779403D01*
X39783938Y-66779413D01*
X39845094Y-67007655D01*
X39845096Y-67007659D01*
X39845097Y-67007663D01*
X39944965Y-67221830D01*
X39944967Y-67221834D01*
X40080501Y-67415395D01*
X40080506Y-67415402D01*
X40247597Y-67582493D01*
X40247603Y-67582498D01*
X40433158Y-67712425D01*
X40476783Y-67767002D01*
X40483977Y-67836500D01*
X40452454Y-67898855D01*
X40433158Y-67915575D01*
X40247597Y-68045505D01*
X40080505Y-68212597D01*
X39944965Y-68406169D01*
X39944964Y-68406171D01*
X39845098Y-68620335D01*
X39845094Y-68620344D01*
X39783938Y-68848586D01*
X39783936Y-68848596D01*
X39763341Y-69083999D01*
X39763341Y-69084000D01*
X39783936Y-69319403D01*
X39783938Y-69319413D01*
X39845094Y-69547655D01*
X39845096Y-69547659D01*
X39845097Y-69547663D01*
X39849000Y-69556032D01*
X39944965Y-69761830D01*
X39944967Y-69761834D01*
X40053281Y-69916521D01*
X40080501Y-69955396D01*
X40080506Y-69955402D01*
X40247597Y-70122493D01*
X40247603Y-70122498D01*
X40433158Y-70252425D01*
X40476783Y-70307002D01*
X40483977Y-70376500D01*
X40452454Y-70438855D01*
X40433158Y-70455575D01*
X40247597Y-70585505D01*
X40080505Y-70752597D01*
X39944965Y-70946169D01*
X39944964Y-70946171D01*
X39845098Y-71160335D01*
X39845094Y-71160344D01*
X39783938Y-71388586D01*
X39783936Y-71388596D01*
X39763341Y-71623999D01*
X39763341Y-71624000D01*
X39783936Y-71859403D01*
X39783938Y-71859413D01*
X39845094Y-72087655D01*
X39845096Y-72087659D01*
X39845097Y-72087663D01*
X39849000Y-72096032D01*
X39944965Y-72301830D01*
X39944967Y-72301834D01*
X40053281Y-72456521D01*
X40080501Y-72495396D01*
X40080506Y-72495402D01*
X40247597Y-72662493D01*
X40247603Y-72662498D01*
X40433158Y-72792425D01*
X40476783Y-72847002D01*
X40483977Y-72916500D01*
X40452454Y-72978855D01*
X40433158Y-72995575D01*
X40247597Y-73125505D01*
X40080505Y-73292597D01*
X39944965Y-73486169D01*
X39944964Y-73486171D01*
X39845098Y-73700335D01*
X39845094Y-73700344D01*
X39783938Y-73928586D01*
X39783936Y-73928596D01*
X39763341Y-74163999D01*
X39763341Y-74164000D01*
X39783936Y-74399403D01*
X39783938Y-74399413D01*
X39845094Y-74627655D01*
X39845096Y-74627659D01*
X39845097Y-74627663D01*
X39849000Y-74636032D01*
X39944965Y-74841830D01*
X39944967Y-74841834D01*
X40053281Y-74996521D01*
X40080501Y-75035396D01*
X40080506Y-75035402D01*
X40247597Y-75202493D01*
X40247603Y-75202498D01*
X40433158Y-75332425D01*
X40476783Y-75387002D01*
X40483977Y-75456500D01*
X40452454Y-75518855D01*
X40433158Y-75535575D01*
X40247597Y-75665505D01*
X40080505Y-75832597D01*
X39944965Y-76026169D01*
X39944964Y-76026171D01*
X39845098Y-76240335D01*
X39845094Y-76240344D01*
X39783938Y-76468586D01*
X39783936Y-76468596D01*
X39763341Y-76703999D01*
X39763341Y-76704000D01*
X39783936Y-76939403D01*
X39783938Y-76939413D01*
X39845094Y-77167655D01*
X39845096Y-77167659D01*
X39845097Y-77167663D01*
X39849000Y-77176032D01*
X39944965Y-77381830D01*
X39944967Y-77381834D01*
X40053281Y-77536521D01*
X40080501Y-77575396D01*
X40080506Y-77575402D01*
X40247597Y-77742493D01*
X40247603Y-77742498D01*
X40433158Y-77872425D01*
X40476783Y-77927002D01*
X40483977Y-77996500D01*
X40452454Y-78058855D01*
X40433158Y-78075575D01*
X40247597Y-78205505D01*
X40080505Y-78372597D01*
X39944965Y-78566169D01*
X39944964Y-78566171D01*
X39845098Y-78780335D01*
X39845094Y-78780344D01*
X39783938Y-79008586D01*
X39783936Y-79008596D01*
X39763341Y-79243999D01*
X39763341Y-79244000D01*
X39783936Y-79479403D01*
X39783938Y-79479413D01*
X39845094Y-79707655D01*
X39845096Y-79707659D01*
X39845097Y-79707663D01*
X39849000Y-79716032D01*
X39944965Y-79921830D01*
X39944967Y-79921834D01*
X40053281Y-80076521D01*
X40080501Y-80115396D01*
X40080506Y-80115402D01*
X40247597Y-80282493D01*
X40247603Y-80282498D01*
X40433158Y-80412425D01*
X40476783Y-80467002D01*
X40483977Y-80536500D01*
X40452454Y-80598855D01*
X40433158Y-80615575D01*
X40247597Y-80745505D01*
X40080505Y-80912597D01*
X39944965Y-81106169D01*
X39944964Y-81106171D01*
X39845098Y-81320335D01*
X39845094Y-81320344D01*
X39783938Y-81548586D01*
X39783936Y-81548596D01*
X39763341Y-81783999D01*
X39763341Y-81784000D01*
X39783936Y-82019403D01*
X39783938Y-82019413D01*
X39845094Y-82247655D01*
X39845096Y-82247659D01*
X39845097Y-82247663D01*
X39849000Y-82256032D01*
X39944965Y-82461830D01*
X39944967Y-82461834D01*
X40053281Y-82616521D01*
X40080501Y-82655396D01*
X40080506Y-82655402D01*
X40247597Y-82822493D01*
X40247603Y-82822498D01*
X40433158Y-82952425D01*
X40476783Y-83007002D01*
X40483977Y-83076500D01*
X40452454Y-83138855D01*
X40433158Y-83155575D01*
X40247597Y-83285505D01*
X40080505Y-83452597D01*
X39944965Y-83646169D01*
X39944964Y-83646171D01*
X39845098Y-83860335D01*
X39845094Y-83860344D01*
X39783938Y-84088586D01*
X39783936Y-84088596D01*
X39763341Y-84323999D01*
X39763341Y-84324000D01*
X34163500Y-84324000D01*
X34163500Y-32763500D01*
X34183185Y-32696461D01*
X34235989Y-32650706D01*
X34287500Y-32639500D01*
X93601500Y-32639500D01*
X93668539Y-32659185D01*
G37*
%TD.AperFunction*%
%TD*%
M02*
