M48
; DRILL file {KiCad 7.0.9} date Fri Aug  2 01:25:25 2024
; FORMAT={-:-/ absolute / inch / decimal}
; #@! TF.CreationDate,2024-08-02T01:25:25-05:00
; #@! TF.GenerationSoftware,Kicad,Pcbnew,7.0.9
; #@! TF.FileFunction,MixedPlating,1,2
FMAT,2
INCH
; #@! TA.AperFunction,Plated,PTH,ViaDrill
T1C0.0157
; #@! TA.AperFunction,Plated,PTH,ComponentDrill
T2C0.0315
; #@! TA.AperFunction,Plated,PTH,ComponentDrill
T3C0.0394
%
G90
G05
T1
X2.37Y-1.95
X2.37Y-2.115
X2.675Y-1.705
X2.675Y-2.1
X3.04Y-1.79
X3.165Y-1.74
X3.29Y-1.74
T2
X1.83Y-1.55
X1.83Y-1.8
X1.92Y-1.55
X1.92Y-1.85
X2.02Y-1.55
X2.02Y-1.85
X2.12Y-1.55
X2.12Y-1.85
X2.22Y-1.55
X2.22Y-1.85
X2.32Y-1.55
X2.32Y-1.85
X2.42Y-1.55
X2.42Y-1.85
X2.52Y-1.55
X2.52Y-1.85
X2.65Y-1.555
X2.65Y-1.805
X2.775Y-1.55
X2.775Y-1.85
X2.875Y-1.55
X2.875Y-1.85
X2.975Y-1.55
X2.975Y-1.85
X3.075Y-1.55
X3.075Y-1.85
X3.175Y-1.55
X3.175Y-1.85
X3.275Y-1.55
X3.275Y-1.85
X3.375Y-1.55
X3.375Y-1.85
T3
X1.6189Y-1.6198
X1.6189Y-1.7198
X1.6189Y-1.8198
X1.6189Y-1.9198
X1.6189Y-2.0198
X1.6189Y-2.1198
X1.6189Y-2.2198
X1.6189Y-2.3198
X1.6189Y-2.4198
X1.6189Y-2.5198
X1.6189Y-2.6198
X1.6189Y-2.7198
X1.6189Y-2.8198
X1.6189Y-2.9198
X1.6189Y-3.0198
X1.6189Y-3.1198
X1.6189Y-3.2198
X1.6189Y-3.3198
X1.7189Y-1.6198
X1.7189Y-1.7198
X1.7189Y-1.8198
X1.7189Y-1.9198
X1.7189Y-2.0198
X1.7189Y-2.1198
X1.7189Y-2.2198
X1.7189Y-2.3198
X1.7189Y-2.4198
X1.7189Y-2.5198
X1.7189Y-2.6198
X1.7189Y-2.7198
X1.7189Y-2.8198
X1.7189Y-2.9198
X1.7189Y-3.0198
X1.7189Y-3.1198
X1.7189Y-3.2198
X1.7189Y-3.3198
X1.82Y-1.42
X1.92Y-1.42
X2.02Y-1.42
X2.12Y-1.42
X2.22Y-1.42
X2.32Y-1.42
X2.42Y-1.42
X2.52Y-1.42
X2.62Y-1.42
X2.72Y-1.42
X2.82Y-1.42
X2.92Y-1.42
X3.02Y-1.42
X3.12Y-1.42
X3.22Y-1.42
X3.32Y-1.42
X3.42Y-1.42
T0
M30
