G04 #@! TF.GenerationSoftware,KiCad,Pcbnew,5.1.4-e60b266~84~ubuntu18.04.1*
G04 #@! TF.CreationDate,2019-11-09T01:56:08-04:00*
G04 #@! TF.ProjectId,nova_modern,6e6f7661-5f6d-46f6-9465-726e2e6b6963,0.1*
G04 #@! TF.SameCoordinates,Original*
G04 #@! TF.FileFunction,Copper,L2,Bot*
G04 #@! TF.FilePolarity,Positive*
%FSLAX46Y46*%
G04 Gerber Fmt 4.6, Leading zero omitted, Abs format (unit mm)*
G04 Created by KiCad (PCBNEW 5.1.4-e60b266~84~ubuntu18.04.1) date 2019-11-09 01:56:08*
%MOMM*%
%LPD*%
G04 APERTURE LIST*
%ADD10R,1.905000X7.620000*%
%ADD11R,1.397000X7.620000*%
%ADD12C,2.000000*%
%ADD13C,1.700000*%
%ADD14C,1.600000*%
%ADD15R,1.600000X1.600000*%
%ADD16O,1.400000X1.400000*%
%ADD17C,1.400000*%
%ADD18O,1.600000X1.600000*%
%ADD19C,1.000000*%
%ADD20C,0.400000*%
%ADD21C,0.800000*%
%ADD22C,1.500000*%
%ADD23C,2.000000*%
G04 APERTURE END LIST*
D10*
X46355000Y-104775000D03*
X49530000Y-104775000D03*
X52705000Y-104775000D03*
X55880000Y-104775000D03*
X59055000Y-104775000D03*
X62230000Y-104775000D03*
X65405000Y-104775000D03*
X68580000Y-104775000D03*
X71755000Y-104775000D03*
X74930000Y-104775000D03*
X78105000Y-104775000D03*
X81280000Y-104775000D03*
X84455000Y-104775000D03*
X87630000Y-104775000D03*
X90805000Y-104775000D03*
X93980000Y-104775000D03*
X97155000Y-104775000D03*
X100330000Y-104775000D03*
X103505000Y-104775000D03*
X106680000Y-104775000D03*
X109855000Y-104775000D03*
X113030000Y-104775000D03*
X116205000Y-104775000D03*
D11*
X119126000Y-104775000D03*
X122809000Y-104775000D03*
D10*
X125730000Y-104775000D03*
X128905000Y-104775000D03*
X132080000Y-104775000D03*
X135255000Y-104775000D03*
X138430000Y-104775000D03*
X141605000Y-104775000D03*
X144780000Y-104775000D03*
X147955000Y-104775000D03*
X151130000Y-104775000D03*
X154305000Y-104775000D03*
X157480000Y-104775000D03*
X160655000Y-104775000D03*
X163830000Y-104775000D03*
X167005000Y-104775000D03*
X170180000Y-104775000D03*
X173355000Y-104775000D03*
X176530000Y-104775000D03*
X179705000Y-104775000D03*
X182880000Y-104775000D03*
X186055000Y-104775000D03*
X189230000Y-104775000D03*
X192405000Y-104775000D03*
X195580000Y-104775000D03*
X198755000Y-104775000D03*
X201930000Y-104775000D03*
X236220000Y-104775000D03*
X239395000Y-104775000D03*
X242570000Y-104775000D03*
X245745000Y-104775000D03*
X248920000Y-104775000D03*
X252095000Y-104775000D03*
X255270000Y-104775000D03*
X258445000Y-104775000D03*
X261620000Y-104775000D03*
X264795000Y-104775000D03*
X267970000Y-104775000D03*
X271145000Y-104775000D03*
X274320000Y-104775000D03*
X277495000Y-104775000D03*
X280670000Y-104775000D03*
X283845000Y-104775000D03*
X287020000Y-104775000D03*
D11*
X289941000Y-104775000D03*
X293624000Y-104775000D03*
D10*
X296545000Y-104775000D03*
X299720000Y-104775000D03*
X302895000Y-104775000D03*
X306070000Y-104775000D03*
X309245000Y-104775000D03*
X312420000Y-104775000D03*
X315595000Y-104775000D03*
X318770000Y-104775000D03*
X321945000Y-104775000D03*
X325120000Y-104775000D03*
X328295000Y-104775000D03*
X331470000Y-104775000D03*
X334645000Y-104775000D03*
X337820000Y-104775000D03*
X340995000Y-104775000D03*
X344170000Y-104775000D03*
X347345000Y-104775000D03*
X350520000Y-104775000D03*
X353695000Y-104775000D03*
X356870000Y-104775000D03*
X360045000Y-104775000D03*
X363220000Y-104775000D03*
X366395000Y-104775000D03*
X369570000Y-104775000D03*
X372745000Y-104775000D03*
X375920000Y-104775000D03*
X379095000Y-104775000D03*
X382270000Y-104775000D03*
X385445000Y-104775000D03*
X388620000Y-104775000D03*
X391795000Y-104775000D03*
D12*
X398240000Y22380000D03*
X386240000Y22380000D03*
X386240000Y28380000D03*
X398240000Y28380000D03*
D13*
X396240000Y24130000D03*
X392240000Y24130000D03*
X388240000Y24130000D03*
D14*
X365760000Y17780000D03*
X360760000Y17780000D03*
X309960000Y19050000D03*
X314960000Y19050000D03*
X264160000Y17780000D03*
X259160000Y17780000D03*
X208360000Y17780000D03*
X213360000Y17780000D03*
X383540000Y-45720000D03*
X378540000Y-45720000D03*
X353140000Y-45720000D03*
X358140000Y-45720000D03*
X332740000Y-45720000D03*
X327740000Y-45720000D03*
X302340000Y-45720000D03*
X307340000Y-45720000D03*
X281940000Y-45720000D03*
X276940000Y-45720000D03*
X256540000Y-45720000D03*
X251540000Y-45720000D03*
X226060000Y-45720000D03*
X231060000Y-45720000D03*
X205740000Y-45720000D03*
X200740000Y-45720000D03*
X162480000Y10795000D03*
X157480000Y10795000D03*
X121920000Y10795000D03*
X126920000Y10795000D03*
X126920000Y-40640000D03*
X121920000Y-40640000D03*
X157480000Y-40640000D03*
X162480000Y-40640000D03*
X88980000Y10795000D03*
X93980000Y10795000D03*
X58420000Y-20320000D03*
X53420000Y-20320000D03*
X88980000Y-40640000D03*
X93980000Y-40640000D03*
D15*
X49530000Y-83820000D03*
D14*
X46030000Y-83820000D03*
D16*
X394970000Y17780000D03*
D17*
X394970000Y10160000D03*
X389055000Y9975000D03*
D16*
X389055000Y17595000D03*
D17*
X62230000Y-25400000D03*
D16*
X62230000Y-33020000D03*
D15*
X375920000Y-50800000D03*
D18*
X383540000Y-66040000D03*
X375920000Y-53340000D03*
X383540000Y-63500000D03*
X375920000Y-55880000D03*
X383540000Y-60960000D03*
X375920000Y-58420000D03*
X383540000Y-58420000D03*
X375920000Y-60960000D03*
X383540000Y-55880000D03*
X375920000Y-63500000D03*
X383540000Y-53340000D03*
X375920000Y-66040000D03*
X383540000Y-50800000D03*
X332740000Y-50800000D03*
X325120000Y-66040000D03*
X332740000Y-53340000D03*
X325120000Y-63500000D03*
X332740000Y-55880000D03*
X325120000Y-60960000D03*
X332740000Y-58420000D03*
X325120000Y-58420000D03*
X332740000Y-60960000D03*
X325120000Y-55880000D03*
X332740000Y-63500000D03*
X325120000Y-53340000D03*
X332740000Y-66040000D03*
D15*
X325120000Y-50800000D03*
X274320000Y-50800000D03*
D18*
X281940000Y-66040000D03*
X274320000Y-53340000D03*
X281940000Y-63500000D03*
X274320000Y-55880000D03*
X281940000Y-60960000D03*
X274320000Y-58420000D03*
X281940000Y-58420000D03*
X274320000Y-60960000D03*
X281940000Y-55880000D03*
X274320000Y-63500000D03*
X281940000Y-53340000D03*
X274320000Y-66040000D03*
X281940000Y-50800000D03*
D15*
X223520000Y-50800000D03*
D18*
X231140000Y-66040000D03*
X223520000Y-53340000D03*
X231140000Y-63500000D03*
X223520000Y-55880000D03*
X231140000Y-60960000D03*
X223520000Y-58420000D03*
X231140000Y-58420000D03*
X223520000Y-60960000D03*
X231140000Y-55880000D03*
X223520000Y-63500000D03*
X231140000Y-53340000D03*
X223520000Y-66040000D03*
X231140000Y-50800000D03*
X205740000Y-50800000D03*
X198120000Y-66040000D03*
X205740000Y-53340000D03*
X198120000Y-63500000D03*
X205740000Y-55880000D03*
X198120000Y-60960000D03*
X205740000Y-58420000D03*
X198120000Y-58420000D03*
X205740000Y-60960000D03*
X198120000Y-55880000D03*
X205740000Y-63500000D03*
X198120000Y-53340000D03*
X205740000Y-66040000D03*
D15*
X198120000Y-50800000D03*
X350520000Y-50800000D03*
D18*
X358140000Y-68580000D03*
X350520000Y-53340000D03*
X358140000Y-66040000D03*
X350520000Y-55880000D03*
X358140000Y-63500000D03*
X350520000Y-58420000D03*
X358140000Y-60960000D03*
X350520000Y-60960000D03*
X358140000Y-58420000D03*
X350520000Y-63500000D03*
X358140000Y-55880000D03*
X350520000Y-66040000D03*
X358140000Y-53340000D03*
X350520000Y-68580000D03*
X358140000Y-50800000D03*
D15*
X299720000Y-50800000D03*
D18*
X307340000Y-68580000D03*
X299720000Y-53340000D03*
X307340000Y-66040000D03*
X299720000Y-55880000D03*
X307340000Y-63500000D03*
X299720000Y-58420000D03*
X307340000Y-60960000D03*
X299720000Y-60960000D03*
X307340000Y-58420000D03*
X299720000Y-63500000D03*
X307340000Y-55880000D03*
X299720000Y-66040000D03*
X307340000Y-53340000D03*
X299720000Y-68580000D03*
X307340000Y-50800000D03*
X256540000Y-50800000D03*
X248920000Y-68580000D03*
X256540000Y-53340000D03*
X248920000Y-66040000D03*
X256540000Y-55880000D03*
X248920000Y-63500000D03*
X256540000Y-58420000D03*
X248920000Y-60960000D03*
X256540000Y-60960000D03*
X248920000Y-58420000D03*
X256540000Y-63500000D03*
X248920000Y-55880000D03*
X256540000Y-66040000D03*
X248920000Y-53340000D03*
X256540000Y-68580000D03*
D15*
X248920000Y-50800000D03*
D18*
X213360000Y12700000D03*
X198120000Y-20320000D03*
X213360000Y10160000D03*
X198120000Y-17780000D03*
X213360000Y7620000D03*
X198120000Y-15240000D03*
X213360000Y5080000D03*
X198120000Y-12700000D03*
X213360000Y2540000D03*
X198120000Y-10160000D03*
X213360000Y0D03*
X198120000Y-7620000D03*
X213360000Y-2540000D03*
X198120000Y-5080000D03*
X213360000Y-5080000D03*
X198120000Y-2540000D03*
X213360000Y-7620000D03*
X198120000Y0D03*
X213360000Y-10160000D03*
X198120000Y2540000D03*
X213360000Y-12700000D03*
X198120000Y5080000D03*
X213360000Y-15240000D03*
X198120000Y7620000D03*
X213360000Y-17780000D03*
X198120000Y10160000D03*
X213360000Y-20320000D03*
D15*
X198120000Y12700000D03*
D18*
X264160000Y12700000D03*
X248920000Y-20320000D03*
X264160000Y10160000D03*
X248920000Y-17780000D03*
X264160000Y7620000D03*
X248920000Y-15240000D03*
X264160000Y5080000D03*
X248920000Y-12700000D03*
X264160000Y2540000D03*
X248920000Y-10160000D03*
X264160000Y0D03*
X248920000Y-7620000D03*
X264160000Y-2540000D03*
X248920000Y-5080000D03*
X264160000Y-5080000D03*
X248920000Y-2540000D03*
X264160000Y-7620000D03*
X248920000Y0D03*
X264160000Y-10160000D03*
X248920000Y2540000D03*
X264160000Y-12700000D03*
X248920000Y5080000D03*
X264160000Y-15240000D03*
X248920000Y7620000D03*
X264160000Y-17780000D03*
X248920000Y10160000D03*
X264160000Y-20320000D03*
D15*
X248920000Y12700000D03*
X299720000Y12700000D03*
D18*
X314960000Y-20320000D03*
X299720000Y10160000D03*
X314960000Y-17780000D03*
X299720000Y7620000D03*
X314960000Y-15240000D03*
X299720000Y5080000D03*
X314960000Y-12700000D03*
X299720000Y2540000D03*
X314960000Y-10160000D03*
X299720000Y0D03*
X314960000Y-7620000D03*
X299720000Y-2540000D03*
X314960000Y-5080000D03*
X299720000Y-5080000D03*
X314960000Y-2540000D03*
X299720000Y-7620000D03*
X314960000Y0D03*
X299720000Y-10160000D03*
X314960000Y2540000D03*
X299720000Y-12700000D03*
X314960000Y5080000D03*
X299720000Y-15240000D03*
X314960000Y7620000D03*
X299720000Y-17780000D03*
X314960000Y10160000D03*
X299720000Y-20320000D03*
X314960000Y12700000D03*
D15*
X350520000Y12700000D03*
D18*
X365760000Y-20320000D03*
X350520000Y10160000D03*
X365760000Y-17780000D03*
X350520000Y7620000D03*
X365760000Y-15240000D03*
X350520000Y5080000D03*
X365760000Y-12700000D03*
X350520000Y2540000D03*
X365760000Y-10160000D03*
X350520000Y0D03*
X365760000Y-7620000D03*
X350520000Y-2540000D03*
X365760000Y-5080000D03*
X350520000Y-5080000D03*
X365760000Y-2540000D03*
X350520000Y-7620000D03*
X365760000Y0D03*
X350520000Y-10160000D03*
X365760000Y2540000D03*
X350520000Y-12700000D03*
X365760000Y5080000D03*
X350520000Y-15240000D03*
X365760000Y7620000D03*
X350520000Y-17780000D03*
X365760000Y10160000D03*
X350520000Y-20320000D03*
X365760000Y12700000D03*
D15*
X157480000Y5080000D03*
D18*
X165100000Y-12700000D03*
X157480000Y2540000D03*
X165100000Y-10160000D03*
X157480000Y0D03*
X165100000Y-7620000D03*
X157480000Y-2540000D03*
X165100000Y-5080000D03*
X157480000Y-5080000D03*
X165100000Y-2540000D03*
X157480000Y-7620000D03*
X165100000Y0D03*
X157480000Y-10160000D03*
X165100000Y2540000D03*
X157480000Y-12700000D03*
X165100000Y5080000D03*
X129540000Y5080000D03*
X121920000Y-12700000D03*
X129540000Y2540000D03*
X121920000Y-10160000D03*
X129540000Y0D03*
X121920000Y-7620000D03*
X129540000Y-2540000D03*
X121920000Y-5080000D03*
X129540000Y-5080000D03*
X121920000Y-2540000D03*
X129540000Y-7620000D03*
X121920000Y0D03*
X129540000Y-10160000D03*
X121920000Y2540000D03*
X129540000Y-12700000D03*
D15*
X121920000Y5080000D03*
X157480000Y-45720000D03*
D18*
X165100000Y-63500000D03*
X157480000Y-48260000D03*
X165100000Y-60960000D03*
X157480000Y-50800000D03*
X165100000Y-58420000D03*
X157480000Y-53340000D03*
X165100000Y-55880000D03*
X157480000Y-55880000D03*
X165100000Y-53340000D03*
X157480000Y-58420000D03*
X165100000Y-50800000D03*
X157480000Y-60960000D03*
X165100000Y-48260000D03*
X157480000Y-63500000D03*
X165100000Y-45720000D03*
X129540000Y-45720000D03*
X121920000Y-63500000D03*
X129540000Y-48260000D03*
X121920000Y-60960000D03*
X129540000Y-50800000D03*
X121920000Y-58420000D03*
X129540000Y-53340000D03*
X121920000Y-55880000D03*
X129540000Y-55880000D03*
X121920000Y-53340000D03*
X129540000Y-58420000D03*
X121920000Y-50800000D03*
X129540000Y-60960000D03*
X121920000Y-48260000D03*
X129540000Y-63500000D03*
D15*
X121920000Y-45720000D03*
D18*
X58420000Y-25400000D03*
X50800000Y-40640000D03*
X58420000Y-27940000D03*
X50800000Y-38100000D03*
X58420000Y-30480000D03*
X50800000Y-35560000D03*
X58420000Y-33020000D03*
X50800000Y-33020000D03*
X58420000Y-35560000D03*
X50800000Y-30480000D03*
X58420000Y-38100000D03*
X50800000Y-27940000D03*
X58420000Y-40640000D03*
D15*
X50800000Y-25400000D03*
D18*
X93980000Y5080000D03*
X86360000Y-17780000D03*
X93980000Y2540000D03*
X86360000Y-15240000D03*
X93980000Y0D03*
X86360000Y-12700000D03*
X93980000Y-2540000D03*
X86360000Y-10160000D03*
X93980000Y-5080000D03*
X86360000Y-7620000D03*
X93980000Y-7620000D03*
X86360000Y-5080000D03*
X93980000Y-10160000D03*
X86360000Y-2540000D03*
X93980000Y-12700000D03*
X86360000Y0D03*
X93980000Y-15240000D03*
X86360000Y2540000D03*
X93980000Y-17780000D03*
D15*
X86360000Y5080000D03*
X86360000Y-45720000D03*
D18*
X93980000Y-68580000D03*
X86360000Y-48260000D03*
X93980000Y-66040000D03*
X86360000Y-50800000D03*
X93980000Y-63500000D03*
X86360000Y-53340000D03*
X93980000Y-60960000D03*
X86360000Y-55880000D03*
X93980000Y-58420000D03*
X86360000Y-58420000D03*
X93980000Y-55880000D03*
X86360000Y-60960000D03*
X93980000Y-53340000D03*
X86360000Y-63500000D03*
X93980000Y-50800000D03*
X86360000Y-66040000D03*
X93980000Y-48260000D03*
X86360000Y-68580000D03*
X93980000Y-45720000D03*
D19*
X355600000Y-53340000D03*
X68580000Y-97155000D03*
X71755000Y-95884990D03*
X233680000Y-99060000D03*
X203200000Y-99060000D03*
X393470028Y-97790000D03*
X55345500Y-55456700D03*
X388620000Y-96520000D03*
X198755000Y-99060000D03*
X239395000Y-99060000D03*
X295275006Y-89535000D03*
X294640000Y-88265000D03*
X375019500Y-99065508D03*
X294004990Y-86995000D03*
X74928596Y-92073596D03*
X253394436Y-80645000D03*
X283210000Y-85725000D03*
X276754000Y-70473700D03*
X372745000Y-80644998D03*
X87630000Y-95885000D03*
X263525000Y-90805000D03*
X78103596Y-88900000D03*
X265430000Y-81915000D03*
X280670000Y-99060000D03*
X276225000Y-94615000D03*
X113731800Y-92231100D03*
X264795000Y-99060008D03*
X237489996Y-95884998D03*
X305435000Y-73660000D03*
X246607376Y-52000400D03*
X81280000Y-91440000D03*
X198120000Y-84455000D03*
X84455000Y-92075000D03*
X150495000Y-85725000D03*
X233045000Y-62230000D03*
X242570014Y-59690000D03*
X267970000Y-99060000D03*
X237490000Y-93980000D03*
X196215014Y-59690014D03*
X252095000Y-73660000D03*
X97155000Y-99060000D03*
X178270100Y-44478000D03*
X96520006Y-58420000D03*
X250824994Y-72390000D03*
X347345000Y-78104994D03*
X201295000Y-64770000D03*
X340995000Y-78105008D03*
X260985004Y-7620000D03*
X346074988Y-36830000D03*
X294004996Y-36830000D03*
X260985000Y-36830000D03*
X295275000Y-34925000D03*
X348615000Y-34925000D03*
X355600000Y-46807500D03*
X295910000Y6350000D03*
X252730000Y6350000D03*
X292735010Y-52070000D03*
X210185000Y0D03*
X268604996Y3810000D03*
X320745600Y8820400D03*
X256540002Y7620002D03*
X145415006Y-14605000D03*
X135890000Y0D03*
X215265000Y-13970000D03*
X320675000Y0D03*
X127000052Y-12700000D03*
X116839994Y-8890000D03*
X187455100Y-17950000D03*
X255270000Y10160000D03*
X135107100Y-56908300D03*
X199092100Y-31115000D03*
X127635000Y-63500000D03*
X177166404Y-31113596D03*
X175895000Y-26035000D03*
X112497204Y-53875604D03*
X88245300Y-24765000D03*
X153757292Y-29584508D03*
X162663400Y-47590200D03*
X198119996Y-29845000D03*
X133685200Y-30993000D03*
X199338900Y-35297500D03*
X129540000Y-67310000D03*
X321945000Y-64770000D03*
X173355000Y-31108600D03*
X161925000Y-14605000D03*
X163195000Y-15875000D03*
X118745007Y-2540007D03*
X151765000Y-32385000D03*
X345440000Y-70485000D03*
X360044988Y-99060000D03*
X349885000Y-79375000D03*
X103505000Y-64769982D03*
X161925004Y-59690000D03*
X168275000Y-59689992D03*
X125730000Y-50384900D03*
X123825000Y-58420000D03*
X114227890Y-59690000D03*
X124235700Y-48529600D03*
X351790008Y-80645000D03*
X91961400Y-99613300D03*
X93978593Y-97790000D03*
X382270000Y-99059992D03*
X226060000Y-36195000D03*
D20*
X381635000Y-66040000D02*
X383540000Y-66040000D01*
X373380000Y-58420000D02*
X374650000Y-59690000D01*
X358140000Y-58420000D02*
X373380000Y-58420000D01*
X377190000Y-59690000D02*
X377825000Y-60325000D01*
X377825000Y-60325000D02*
X377825000Y-62230000D01*
X374650000Y-59690000D02*
X377190000Y-59690000D01*
X377825000Y-62230000D02*
X381635000Y-66040000D01*
X374049850Y-53340000D02*
X375920000Y-53340000D01*
X370203450Y-57186400D02*
X374049850Y-53340000D01*
X358140000Y-66040000D02*
X356235000Y-64135000D01*
X356833600Y-57186400D02*
X370203450Y-57186400D01*
X356235000Y-57785000D02*
X356833600Y-57186400D01*
X356235000Y-64135000D02*
X356235000Y-57785000D01*
X376367200Y-52075400D02*
X373374600Y-52075400D01*
X356870000Y-54610000D02*
X356099999Y-53839999D01*
X356099999Y-53839999D02*
X355600000Y-53340000D01*
X373374600Y-52075400D02*
X370840000Y-54610000D01*
X370840000Y-54610000D02*
X356870000Y-54610000D01*
X381635000Y-57343200D02*
X376367200Y-52075400D01*
X383540000Y-60960000D02*
X381635000Y-59055000D01*
X381635000Y-59055000D02*
X381635000Y-57343200D01*
X68580000Y-104775000D02*
X68580000Y-97155000D01*
X71755000Y-104775000D02*
X71755000Y-95884990D01*
X362585000Y-63500000D02*
X375920000Y-63500000D01*
X358140000Y-60960000D02*
X360045000Y-60960000D01*
X360045000Y-60960000D02*
X362585000Y-63500000D01*
D21*
X223520000Y-88900000D02*
X233680000Y-99060000D01*
X223520000Y-66040000D02*
X223520000Y-88900000D01*
X223520000Y-88900000D02*
X213360000Y-88900000D01*
X213360000Y-88900000D02*
X203200000Y-99060000D01*
X200740000Y-45720000D02*
X200644000Y-45720000D01*
X200644000Y-45720000D02*
X200644000Y-24444300D01*
X200644000Y-24444300D02*
X198120000Y-21920300D01*
X198120000Y-20320000D02*
X198120000Y-21920300D01*
X248920000Y-43100000D02*
X248920000Y-20320000D01*
X251540000Y-45720000D02*
X248920000Y-43100000D01*
X226060000Y-45720000D02*
X228680000Y-43100000D01*
X228680000Y-43100000D02*
X248920000Y-43100000D01*
X129540000Y-55880000D02*
X131142500Y-54277500D01*
X131142500Y-54277500D02*
X131142500Y-44862500D01*
X131142500Y-44862500D02*
X126920000Y-40640000D01*
X365760000Y-7620000D02*
X364159700Y-7620000D01*
D22*
X391795000Y-104775000D02*
X391795000Y-99465000D01*
X391795000Y-99465000D02*
X393470000Y-97790000D01*
X46355000Y-104775000D02*
X46355000Y-84145000D01*
X46355000Y-84145000D02*
X46030000Y-83820000D01*
D21*
X213360000Y-7620000D02*
X208360000Y-2620000D01*
X208360000Y-2620000D02*
X208360000Y17780000D01*
D22*
X236220000Y-104775000D02*
X236220000Y-99465000D01*
X236220000Y-99465000D02*
X235815000Y-99060000D01*
X235815000Y-99060000D02*
X233680000Y-99060000D01*
X201930000Y-104775000D02*
X201930000Y-100330000D01*
X201930000Y-100330000D02*
X203200000Y-99060000D01*
D21*
X259080000Y17700000D02*
X259160000Y17780000D01*
X264160000Y-7620000D02*
X259080000Y-2540000D01*
X259080000Y-2540000D02*
X259080000Y17700000D01*
X90170000Y-21590000D02*
X86360000Y-17780000D01*
X90170000Y-39450000D02*
X88980000Y-40640000D01*
X90170000Y-21590000D02*
X90170000Y-39450000D01*
X159385000Y-37545000D02*
X162480000Y-40640000D01*
X157480000Y-10160000D02*
X159385000Y-10160000D01*
X159385000Y-10160000D02*
X159385000Y-37545000D01*
X165100000Y-5080000D02*
X162560000Y-5080000D01*
X314960000Y-7620000D02*
X313055000Y-7620000D01*
X302260000Y-20320000D02*
X299720000Y-20320000D01*
X313055000Y-9525000D02*
X302260000Y-20320000D01*
X313055000Y-7620000D02*
X313055000Y-9525000D01*
X302260000Y-45640000D02*
X302260000Y-20320000D01*
X302340000Y-45720000D02*
X302260000Y-45640000D01*
X165735000Y-56515000D02*
X165100000Y-55880000D01*
X194310000Y-56515000D02*
X165735000Y-56515000D01*
X194310000Y-51865000D02*
X194310000Y-56515000D01*
X200644000Y-45720000D02*
X200455000Y-45720000D01*
X200455000Y-45720000D02*
X194310000Y-51865000D01*
X198120000Y-66040000D02*
X195580000Y-66040000D01*
X194310000Y-64770000D02*
X194310000Y-56515000D01*
X195580000Y-66040000D02*
X194310000Y-64770000D01*
X277495000Y-46275000D02*
X276940000Y-45720000D01*
X274320000Y-66040000D02*
X277495000Y-62865000D01*
X277495000Y-62865000D02*
X277495000Y-46275000D01*
X353140000Y-58340000D02*
X350520000Y-60960000D01*
X353140000Y-45720000D02*
X353140000Y-58340000D01*
D22*
X393470000Y-97790000D02*
X393470028Y-97790000D01*
D21*
X353140000Y-45640000D02*
X353140000Y-45720000D01*
X354965000Y-43815000D02*
X353140000Y-45640000D01*
X376635000Y-43815000D02*
X354965000Y-43815000D01*
X378540000Y-45720000D02*
X376635000Y-43815000D01*
X374015000Y-66040000D02*
X375920000Y-66040000D01*
X369836600Y-70218400D02*
X374015000Y-66040000D01*
X353758700Y-70218400D02*
X369836600Y-70218400D01*
X350520000Y-68580000D02*
X352120300Y-68580000D01*
X352120300Y-68580000D02*
X353758700Y-70218400D01*
X363220000Y-7620000D02*
X364159700Y-7620000D01*
X350520000Y-20320000D02*
X363220000Y-7620000D01*
X360760000Y-5160000D02*
X360760000Y17780000D01*
X363220000Y-7620000D02*
X360760000Y-5160000D01*
X354965000Y-24765000D02*
X350520000Y-20320000D01*
X354965000Y-43815000D02*
X354965000Y-24765000D01*
X381080000Y-48260000D02*
X378540000Y-45720000D01*
X391795000Y-48260000D02*
X381080000Y-48260000D01*
X393470000Y-97790000D02*
X393470000Y-49935000D01*
X393470000Y-49935000D02*
X391795000Y-48260000D01*
X89535000Y-65405000D02*
X86360000Y-68580000D01*
X88980000Y-40640000D02*
X89535000Y-41195000D01*
X89535000Y-41195000D02*
X89535000Y-65405000D01*
X91440000Y-20320000D02*
X90170000Y-21590000D01*
X109855000Y-20320000D02*
X91440000Y-20320000D01*
X121920000Y-10160000D02*
X120015000Y-10160000D01*
X120015000Y-10160000D02*
X109855000Y-20320000D01*
X162480000Y10795000D02*
X162480000Y10160000D01*
X162560000Y10715000D02*
X162480000Y10795000D01*
X159385000Y-10160000D02*
X162560000Y-6985000D01*
X162560000Y-6985000D02*
X162560000Y10715000D01*
X132080000Y10795000D02*
X126920000Y10795000D01*
X133985000Y8890000D02*
X132080000Y10795000D01*
X129540000Y-5080000D02*
X133985000Y-635000D01*
X133985000Y-635000D02*
X133985000Y8890000D01*
X309960000Y-4525000D02*
X313055000Y-7620000D01*
X309960000Y19050000D02*
X309960000Y-4525000D01*
X46030000Y-45410000D02*
X46030000Y-83820000D01*
X50800000Y-40640000D02*
X46030000Y-45410000D01*
X299720000Y-60960000D02*
X301625000Y-60960000D01*
X301625000Y-46435000D02*
X302340000Y-45720000D01*
X299720000Y-68580000D02*
X301625000Y-66675000D01*
X301625000Y-66675000D02*
X301625000Y-46435000D01*
X93980000Y5080000D02*
X93980000Y10160000D01*
X58420000Y-25400000D02*
X55345500Y-28474500D01*
X55345500Y-28474500D02*
X55345500Y-55456700D01*
X365760000Y12700000D02*
X365760000Y17780000D01*
X389055000Y9975000D02*
X386330000Y12700000D01*
X386330000Y12700000D02*
X365760000Y12700000D01*
X314960000Y12700000D02*
X348919700Y12700000D01*
X350520000Y12700000D02*
X348919700Y12700000D01*
X58982800Y-25400000D02*
X58420000Y-25400000D01*
X58982800Y-25400000D02*
X60020300Y-25400000D01*
X60020300Y-25400000D02*
X62230000Y-25400000D01*
X383540000Y-50800000D02*
X388620000Y-55880000D01*
X388620000Y-55880000D02*
X388620000Y-96520000D01*
X281940000Y-50800000D02*
X281940000Y-45720000D01*
X264160000Y12700000D02*
X264160000Y17780000D01*
X93980000Y-45720000D02*
X93980000Y-40640000D01*
D23*
X49530000Y-104775000D02*
X49530000Y-83820000D01*
X388620000Y-104775000D02*
X388620000Y-96520000D01*
X239395000Y-104775000D02*
X239395000Y-99060000D01*
X198755000Y-104775000D02*
X198755000Y-99060000D01*
D21*
X154940000Y-43180000D02*
X157480000Y-40640000D01*
X154940000Y-55880000D02*
X154940000Y-43180000D01*
X157480000Y-55880000D02*
X154940000Y-55880000D01*
X123825000Y-6985000D02*
X121920000Y-5080000D01*
X123825000Y-38735000D02*
X123825000Y-6985000D01*
X121920000Y-40640000D02*
X123825000Y-38735000D01*
X155575000Y-6985000D02*
X157480000Y-5080000D01*
X157480000Y-40640000D02*
X155575000Y-38735000D01*
X155575000Y-38735000D02*
X155575000Y-6985000D01*
X238125000Y-50800000D02*
X231140000Y-50800000D01*
X239395000Y-99060000D02*
X239395000Y-52070000D01*
X239395000Y-52070000D02*
X238125000Y-50800000D01*
X123190000Y-55880000D02*
X121920000Y-55880000D01*
X125546198Y-58236198D02*
X123190000Y-55880000D01*
X125546198Y-64605202D02*
X125546198Y-58236198D01*
X154940000Y-55880000D02*
X145415000Y-65405000D01*
X126345996Y-65405000D02*
X125546198Y-64605202D01*
X145415000Y-65405000D02*
X126345996Y-65405000D01*
X159096300Y9178700D02*
X157480000Y10795000D01*
X157480000Y-5080000D02*
X159096300Y-3463700D01*
X159096300Y-3463700D02*
X159096300Y9178700D01*
X314960000Y12700000D02*
X314960000Y19050000D01*
D20*
X351155000Y-71755000D02*
X332740000Y-53340000D01*
X375920000Y-71755000D02*
X351155000Y-71755000D01*
X376555000Y-72390000D02*
X375920000Y-71755000D01*
X375920000Y-104775000D02*
X375920000Y-100564700D01*
X376555000Y-99929700D02*
X376555000Y-72390000D01*
X375920000Y-100564700D02*
X376555000Y-99929700D01*
X325120000Y-60960000D02*
X323850006Y-60960000D01*
X295775005Y-89035001D02*
X295275006Y-89535000D01*
X323850006Y-60960000D02*
X295775005Y-89035001D01*
X295139999Y-87765001D02*
X294640000Y-88265000D01*
X323215000Y-59690000D02*
X295139999Y-87765001D01*
X331470000Y-59690000D02*
X323215000Y-59690000D01*
X332740000Y-58420000D02*
X331470000Y-59690000D01*
X375019500Y-96889500D02*
X375019500Y-99065508D01*
X335280000Y-57150000D02*
X351155000Y-73025000D01*
X326390000Y-57150000D02*
X335280000Y-57150000D01*
X325120000Y-55880000D02*
X326390000Y-57150000D01*
X351155000Y-73025000D02*
X374015000Y-73025000D01*
X374015000Y-73025000D02*
X375019500Y-74029500D01*
X375019500Y-74029500D02*
X375019500Y-96889500D01*
X369570000Y-100564700D02*
X369570000Y-104775000D01*
X369570000Y-92710000D02*
X369570000Y-100564700D01*
X332740000Y-63500000D02*
X340360000Y-63500000D01*
X340360000Y-63500000D02*
X369570000Y-92710000D01*
X323215000Y-57784990D02*
X294504989Y-86495001D01*
X323920000Y-50800000D02*
X323215000Y-51505000D01*
X323215000Y-51505000D02*
X323215000Y-57784990D01*
X325120000Y-50800000D02*
X323920000Y-50800000D01*
X294504989Y-86495001D02*
X294004990Y-86995000D01*
X74930000Y-92075000D02*
X74928596Y-92073596D01*
X74930000Y-104775000D02*
X74930000Y-92075000D01*
X273119700Y-59548194D02*
X253394436Y-79273458D01*
X253394436Y-79937894D02*
X253394436Y-80645000D01*
X273119700Y-50800300D02*
X273119700Y-59548194D01*
X273120000Y-50800000D02*
X273119700Y-50800300D01*
X274320000Y-50800000D02*
X273120000Y-50800000D01*
X253394436Y-79273458D02*
X253394436Y-79937894D01*
X283845000Y-85090000D02*
X283210000Y-85725000D01*
X281940000Y-63500000D02*
X283845000Y-65405000D01*
X283845000Y-65405000D02*
X283845000Y-85090000D01*
X273673700Y-70473700D02*
X276754000Y-70473700D01*
X276225000Y-57785000D02*
X276225000Y-61595000D01*
X273050000Y-62230000D02*
X272415000Y-62865000D01*
X272415000Y-69215000D02*
X273673700Y-70473700D01*
X274320000Y-55880000D02*
X276225000Y-57785000D01*
X276225000Y-61595000D02*
X275590000Y-62230000D01*
X275590000Y-62230000D02*
X273050000Y-62230000D01*
X272415000Y-62865000D02*
X272415000Y-69215000D01*
X372745000Y-104775000D02*
X372745000Y-80644998D01*
X87630000Y-104775000D02*
X87630000Y-95885000D01*
X264024999Y-90305001D02*
X263525000Y-90805000D01*
X280035000Y-60325000D02*
X280035000Y-74295000D01*
X281940000Y-58420000D02*
X280035000Y-60325000D01*
X280035000Y-74295000D02*
X264024999Y-90305001D01*
X78105000Y-88901404D02*
X78103596Y-88900000D01*
X78105000Y-104775000D02*
X78105000Y-88901404D01*
X274320000Y-60960000D02*
X273188630Y-60960000D01*
X273188630Y-60960000D02*
X265430000Y-68718630D01*
X265430000Y-68718630D02*
X265430000Y-81207894D01*
X265430000Y-81207894D02*
X265430000Y-81915000D01*
X280670000Y-104775000D02*
X280670000Y-99060000D01*
X276724999Y-94115001D02*
X276225000Y-94615000D01*
X284214999Y-86625001D02*
X276724999Y-94115001D01*
X281940000Y-53340000D02*
X285115000Y-56515000D01*
X284277001Y-86625001D02*
X284214999Y-86625001D01*
X285115000Y-56515000D02*
X285115000Y-85787002D01*
X285115000Y-85787002D02*
X284277001Y-86625001D01*
X125317900Y-80645000D02*
X113731800Y-92231100D01*
X197485000Y-80645000D02*
X125317900Y-80645000D01*
X218440000Y-59690000D02*
X197485000Y-80645000D01*
X218440000Y-53975000D02*
X218440000Y-59690000D01*
X223520000Y-50800000D02*
X221615000Y-50800000D01*
X221615000Y-50800000D02*
X218440000Y-53975000D01*
X233680000Y-66040000D02*
X231140000Y-66040000D01*
X234315000Y-56515000D02*
X234315000Y-65405000D01*
X234315000Y-65405000D02*
X233680000Y-66040000D01*
X232410000Y-54610000D02*
X234315000Y-56515000D01*
X245670400Y-53340000D02*
X241225400Y-48895000D01*
X248920000Y-53340000D02*
X245670400Y-53340000D01*
X241225400Y-48895000D02*
X230459800Y-48895000D01*
X229870000Y-54610000D02*
X232410000Y-54610000D01*
X229235000Y-50119800D02*
X229235000Y-53975000D01*
X230459800Y-48895000D02*
X229235000Y-50119800D01*
X229235000Y-53975000D02*
X229870000Y-54610000D01*
X264795000Y-104775000D02*
X264795000Y-99060008D01*
X236989997Y-95384999D02*
X237489996Y-95884998D01*
X231140000Y-63500000D02*
X229235000Y-65405000D01*
X229235000Y-65405000D02*
X229235000Y-87630002D01*
X229235000Y-87630002D02*
X236989997Y-95384999D01*
X304935001Y-74159999D02*
X305435000Y-73660000D01*
X283845000Y-104775000D02*
X283845000Y-95250000D01*
X283845000Y-95250000D02*
X304935001Y-74159999D01*
X242231976Y-47625000D02*
X246107377Y-51500401D01*
X246107377Y-51500401D02*
X246607376Y-52000400D01*
X229235000Y-47625000D02*
X242231976Y-47625000D01*
X225425000Y-51435000D02*
X229235000Y-47625000D01*
X223520000Y-58420000D02*
X225425000Y-56515000D01*
X225425000Y-56515000D02*
X225425000Y-51435000D01*
X81280000Y-104775000D02*
X81280000Y-91440000D01*
X229870000Y-59690000D02*
X222885000Y-59690000D01*
X198619999Y-83955001D02*
X198120000Y-84455000D01*
X222885000Y-59690000D02*
X198619999Y-83955001D01*
X231140000Y-58420000D02*
X229870000Y-59690000D01*
X84455000Y-104775000D02*
X84455000Y-92075000D01*
X198755000Y-85725000D02*
X151202106Y-85725000D01*
X151202106Y-85725000D02*
X150495000Y-85725000D01*
X223520000Y-60960000D02*
X198755000Y-85725000D01*
X231140000Y-55880000D02*
X233045000Y-57785000D01*
X233045000Y-61522894D02*
X233045000Y-62230000D01*
X233045000Y-57785000D02*
X233045000Y-61522894D01*
X247650014Y-54610000D02*
X243070013Y-59190001D01*
X250825000Y-53877050D02*
X250092050Y-54610000D01*
X250825000Y-51505000D02*
X250825000Y-53877050D01*
X250120000Y-50800000D02*
X250825000Y-51505000D01*
X248920000Y-50800000D02*
X250120000Y-50800000D01*
X250092050Y-54610000D02*
X247650014Y-54610000D01*
X243070013Y-59190001D02*
X242570014Y-59690000D01*
X267970000Y-104775000D02*
X267970000Y-99060000D01*
X231140000Y-53340000D02*
X232271370Y-53340000D01*
X237490000Y-58558630D02*
X237490000Y-93272894D01*
X237490000Y-93272894D02*
X237490000Y-93980000D01*
X232271370Y-53340000D02*
X237490000Y-58558630D01*
X165899999Y4280001D02*
X165100000Y5080000D01*
X178435000Y-8255000D02*
X165899999Y4280001D01*
X165100000Y-45720000D02*
X178435000Y-32385000D01*
X178435000Y-32385000D02*
X178435000Y-8255000D01*
X198120000Y-63500000D02*
X196215014Y-61595014D01*
X196215014Y-61595014D02*
X196215014Y-60397120D01*
X196215014Y-60397120D02*
X196215014Y-59690014D01*
X86360000Y5080000D02*
X87560300Y5080000D01*
X87560300Y5080000D02*
X90100300Y2540000D01*
X90100300Y2540000D02*
X93980000Y2540000D01*
X94353000Y1339700D02*
X93980000Y1339700D01*
X95885000Y-2778400D02*
X95885000Y-192300D01*
X94853400Y-3810000D02*
X95885000Y-2778400D01*
X92710000Y-3810000D02*
X94853400Y-3810000D01*
X89732300Y-6787700D02*
X92710000Y-3810000D01*
X84455000Y-43815000D02*
X84455000Y-14708300D01*
X86360000Y-45720000D02*
X84455000Y-43815000D01*
X95885000Y-192300D02*
X94353000Y1339700D01*
X84455000Y-14708300D02*
X85193300Y-13970000D01*
X93980000Y1339700D02*
X93980000Y2540000D01*
X87630000Y-13970000D02*
X89732300Y-11867700D01*
X85193300Y-13970000D02*
X87630000Y-13970000D01*
X89732300Y-11867700D02*
X89732300Y-6787700D01*
X252095000Y-74367106D02*
X252095000Y-73660000D01*
X258445000Y-104775000D02*
X258445000Y-99695000D01*
X258445000Y-99695000D02*
X252095000Y-93345000D01*
X252095000Y-93345000D02*
X252095000Y-74367106D01*
X97654999Y-98560001D02*
X97155000Y-99060000D01*
X199390000Y-76835000D02*
X119380000Y-76835000D01*
X208915000Y-67310000D02*
X199390000Y-76835000D01*
X205740000Y-58420000D02*
X208915000Y-61595000D01*
X119380000Y-76835000D02*
X97654999Y-98560001D01*
X208915000Y-61595000D02*
X208915000Y-67310000D01*
X155575000Y8185300D02*
X157480000Y6280300D01*
X179705000Y-43043100D02*
X179705000Y635000D01*
X157480000Y6280300D02*
X157480000Y6280000D01*
X179705000Y635000D02*
X167005000Y13335000D01*
X178270100Y-44478000D02*
X179705000Y-43043100D01*
X155575000Y12065000D02*
X155575000Y8185300D01*
X167005000Y13335000D02*
X156845000Y13335000D01*
X157480000Y6280000D02*
X157480000Y5080000D01*
X156845000Y13335000D02*
X155575000Y12065000D01*
X96520006Y-57712894D02*
X96520006Y-58420000D01*
X96520006Y-36194994D02*
X96520006Y-57712894D01*
X121920000Y-12700000D02*
X120015000Y-12700000D01*
X120015000Y-12700000D02*
X96520006Y-36194994D01*
X255270000Y-104775000D02*
X255270000Y-99695000D01*
X255270000Y-99695000D02*
X250824994Y-95249994D01*
X250824994Y-95249994D02*
X250824994Y-73097106D01*
X250824994Y-73097106D02*
X250824994Y-72390000D01*
X347345000Y-104775000D02*
X347345000Y-78104994D01*
X266065000Y8255000D02*
X264160000Y10160000D01*
X266065000Y7392150D02*
X266065000Y8255000D01*
X262890000Y6350000D02*
X265022850Y6350000D01*
X260985000Y8255000D02*
X262890000Y6350000D01*
X259262700Y19685000D02*
X260985000Y17962700D01*
X255270000Y19685000D02*
X259262700Y19685000D01*
X200025000Y-55245000D02*
X200025000Y-65405000D01*
X207645000Y-66675000D02*
X207645000Y-62865000D01*
X202565000Y-67945000D02*
X206375000Y-67945000D01*
X205364500Y-57080400D02*
X207079600Y-57080400D01*
X206375000Y-67945000D02*
X207645000Y-66675000D01*
X207010000Y-62230000D02*
X204362625Y-62230000D01*
X203835000Y-58609900D02*
X205364500Y-57080400D01*
X265022850Y6350000D02*
X266065000Y7392150D01*
X200025000Y-65405000D02*
X202565000Y-67945000D01*
X250190000Y-16510000D02*
X254000000Y-12700000D01*
X207645000Y-62865000D02*
X207010000Y-62230000D01*
X260985000Y17962700D02*
X260985000Y8255000D01*
X254000000Y18415000D02*
X255270000Y19685000D01*
X254000000Y-12700000D02*
X254000000Y18415000D01*
X204362625Y-62230000D02*
X203835000Y-61702375D01*
X203835000Y-61702375D02*
X203835000Y-58609900D01*
X198120000Y-53340000D02*
X200025000Y-55245000D01*
X207079600Y-57080400D02*
X247650000Y-16510000D01*
X247650000Y-16510000D02*
X250190000Y-16510000D01*
X198120000Y-50800000D02*
X199320000Y-50800000D01*
X201295000Y-52775000D02*
X201295000Y-64062894D01*
X199320000Y-50800000D02*
X201295000Y-52775000D01*
X201295000Y-64062894D02*
X201295000Y-64770000D01*
X340995000Y-104775000D02*
X340995000Y-78105008D01*
X199990150Y-7620000D02*
X198120000Y-7620000D01*
X203744950Y-11374800D02*
X199990150Y-7620000D01*
X243964900Y-11374800D02*
X203744950Y-11374800D01*
X248920000Y-7620000D02*
X247719700Y-7620000D01*
X247719700Y-7620000D02*
X243964900Y-11374800D01*
X347345000Y-66040000D02*
X350520000Y-66040000D01*
X346074988Y-64769988D02*
X347345000Y-66040000D01*
X350520000Y-7620000D02*
X351790000Y-6350000D01*
X351790000Y-6350000D02*
X351790000Y-4198750D01*
X351790000Y-4198750D02*
X351401250Y-3810000D01*
X351401250Y-3810000D02*
X349250000Y-3810000D01*
X349250000Y-3810000D02*
X346074988Y-6985012D01*
X346074988Y-6985012D02*
X346074988Y-64769988D01*
X299720000Y-7620000D02*
X294004996Y-13335004D01*
X294004996Y-13335004D02*
X294004996Y-36122894D01*
X294004996Y-36122894D02*
X294004996Y-36830000D01*
X260985004Y-36829996D02*
X260985000Y-36830000D01*
X260985004Y-7620000D02*
X260985004Y-36829996D01*
X348615000Y-63500000D02*
X350520000Y-63500000D01*
X347345000Y-62230000D02*
X348615000Y-63500000D01*
X350520000Y-5080000D02*
X347345000Y-8255000D01*
X347345000Y-8255000D02*
X347345000Y-62230000D01*
X299720000Y-10160000D02*
X295275000Y-14605000D01*
X295275000Y-14605000D02*
X295275000Y-34217894D01*
X295275000Y-34217894D02*
X295275000Y-34925000D01*
X348615000Y-34217894D02*
X348615000Y-34925000D01*
X348615000Y-12065000D02*
X348615000Y-34217894D01*
X350520000Y-10160000D02*
X348615000Y-12065000D01*
X355100001Y-47307499D02*
X355600000Y-46807500D01*
X354330000Y-48077500D02*
X355100001Y-47307499D01*
X358140000Y-68580000D02*
X354330000Y-64770000D01*
X354330000Y-64770000D02*
X354330000Y-48077500D01*
X295910000Y5642894D02*
X295910000Y6350000D01*
X295910000Y1270000D02*
X295910000Y5642894D01*
X299720000Y-2540000D02*
X295910000Y1270000D01*
X252730000Y5642894D02*
X252730000Y6350000D01*
X248920000Y-2540000D02*
X252730000Y1270000D01*
X252730000Y1270000D02*
X252730000Y5642894D01*
X299720000Y-2540000D02*
X292735010Y-9524990D01*
X292735010Y-51362894D02*
X292735010Y-52070000D01*
X292735010Y-9524990D02*
X292735010Y-51362894D01*
X348649850Y-2540000D02*
X350520000Y-2540000D01*
X312181600Y-39008250D02*
X348649850Y-2540000D01*
X307340000Y-68580000D02*
X312181600Y-63738400D01*
X312181600Y-63738400D02*
X312181600Y-39008250D01*
X299789700Y2540000D02*
X299720000Y2540000D01*
X297815000Y-61595000D02*
X297815000Y-17145000D01*
X297815000Y-17145000D02*
X298450000Y-16510000D01*
X298450000Y-16510000D02*
X300990000Y-16510000D01*
X299720000Y-63500000D02*
X297815000Y-61595000D01*
X302895000Y-565300D02*
X299789700Y2540000D01*
X302895000Y-14605000D02*
X302895000Y-565300D01*
X300990000Y-16510000D02*
X302895000Y-14605000D01*
X210185000Y-707106D02*
X210185000Y0D01*
X212053600Y-3773600D02*
X210185000Y-1905000D01*
X210185000Y-1905000D02*
X210185000Y-707106D01*
X248920000Y0D02*
X245146400Y-3773600D01*
X245146400Y-3773600D02*
X212053600Y-3773600D01*
X299720000Y-66040000D02*
X296545000Y-62865000D01*
X296545000Y-62865000D02*
X296545000Y-15875000D01*
X296545000Y-15875000D02*
X298450000Y-13970000D01*
X301625000Y-1905000D02*
X299720000Y0D01*
X298450000Y-13970000D02*
X300990000Y-13970000D01*
X300990000Y-13970000D02*
X301625000Y-13335000D01*
X301625000Y-13335000D02*
X301625000Y-1905000D01*
X268604996Y3102894D02*
X268604996Y3810000D01*
X268604996Y-56515004D02*
X268604996Y3102894D01*
X256540000Y-68580000D02*
X268604996Y-56515004D01*
X314960000Y5080000D02*
X314960000Y5114850D01*
X318665550Y8820400D02*
X320745600Y8820400D01*
X314960000Y5114850D02*
X318665550Y8820400D01*
X247015000Y-65405000D02*
X248920000Y-63500000D01*
X247015000Y-69877725D02*
X247015000Y-65405000D01*
X247622275Y-70485000D02*
X247015000Y-69877725D01*
X249627650Y-70485000D02*
X247622275Y-70485000D01*
X253365000Y-66747650D02*
X249627650Y-70485000D01*
X266065000Y3175000D02*
X266065000Y-51435000D01*
X264160000Y5080000D02*
X266065000Y3175000D01*
X266065000Y-51435000D02*
X257810000Y-59690000D01*
X257810000Y-59690000D02*
X255270000Y-59690000D01*
X253365000Y-61595000D02*
X253365000Y-66747650D01*
X255270000Y-59690000D02*
X253365000Y-61595000D01*
X256540002Y-43179998D02*
X256540002Y6912896D01*
X250190000Y-66040000D02*
X252095000Y-64135000D01*
X248920000Y-66040000D02*
X250190000Y-66040000D01*
X256540002Y6912896D02*
X256540002Y7620002D01*
X252095000Y-64135000D02*
X252095000Y-60960000D01*
X254635000Y-58420000D02*
X254635000Y-45085000D01*
X252095000Y-60960000D02*
X254635000Y-58420000D01*
X254635000Y-45085000D02*
X256540002Y-43179998D01*
X297815000Y12700000D02*
X299720000Y12700000D01*
X278906000Y-6209000D02*
X297815000Y12700000D01*
X278906000Y-73519000D02*
X278906000Y-6209000D01*
X261620000Y-104775000D02*
X261620000Y-90805000D01*
X261620000Y-90805000D02*
X278906000Y-73519000D01*
X157480000Y-2540000D02*
X145415006Y-14604994D01*
X145415006Y-14604994D02*
X145415006Y-14605000D01*
X262255000Y19685000D02*
X262255000Y9525000D01*
X260985000Y20955000D02*
X262255000Y19685000D01*
X254529600Y20955000D02*
X260985000Y20955000D01*
X262255000Y9525000D02*
X264160000Y7620000D01*
X213360000Y7620000D02*
X241194600Y7620000D01*
X241194600Y7620000D02*
X254529600Y20955000D01*
X266065000Y19685000D02*
X266700000Y19050000D01*
X262255000Y19685000D02*
X266065000Y19685000D01*
X266700000Y19050000D02*
X267335000Y18415000D01*
X252095000Y-99695000D02*
X252095000Y-104775000D01*
X247650000Y-95250000D02*
X252095000Y-99695000D01*
X267335000Y-51937700D02*
X257042700Y-62230000D01*
X267335000Y18415000D02*
X267335000Y-51937700D01*
X255270000Y-62230000D02*
X254635000Y-62865000D01*
X247650000Y-73677900D02*
X247650000Y-95250000D01*
X257042700Y-62230000D02*
X255270000Y-62230000D01*
X254635000Y-66692900D02*
X247650000Y-73677900D01*
X254635000Y-62865000D02*
X254635000Y-66692900D01*
X305435000Y18415000D02*
X267335000Y18415000D01*
X314960000Y7620000D02*
X313055000Y7620000D01*
X312460100Y8214900D02*
X312460100Y20279900D01*
X312460100Y20279900D02*
X311785000Y20955000D01*
X311785000Y20955000D02*
X307975000Y20955000D01*
X313055000Y7620000D02*
X312460100Y8214900D01*
X307975000Y20955000D02*
X305435000Y18415000D01*
X199320300Y-15240000D02*
X198120000Y-15240000D01*
X199390000Y-15240000D02*
X199320300Y-15240000D01*
X200599400Y-16449400D02*
X199390000Y-15240000D01*
X245840450Y-16449400D02*
X200599400Y-16449400D01*
X248920000Y-15240000D02*
X247049850Y-15240000D01*
X247049850Y-15240000D02*
X245840450Y-16449400D01*
X132217406Y12700000D02*
X135890000Y9027406D01*
X135890000Y9027406D02*
X135890000Y707106D01*
X135890000Y707106D02*
X135890000Y0D01*
X120615150Y12700000D02*
X132217406Y12700000D01*
X102835150Y-5080000D02*
X120615150Y12700000D01*
X93980000Y-5080000D02*
X102835150Y-5080000D01*
X156210000Y14605000D02*
X154305000Y12700000D01*
X168910000Y14605000D02*
X156210000Y14605000D01*
X154305000Y12700000D02*
X154305000Y5715000D01*
X198120000Y-12700000D02*
X196215000Y-12700000D01*
X154305000Y5715000D02*
X157480000Y2540000D01*
X196215000Y-12700000D02*
X168910000Y14605000D01*
X215764999Y-13470001D02*
X215265000Y-13970000D01*
X248920000Y-12700000D02*
X216535000Y-12700000D01*
X216535000Y-12700000D02*
X215764999Y-13470001D01*
X304800000Y-70485000D02*
X274320000Y-100965000D01*
X304800000Y-35645450D02*
X304800000Y-70485000D01*
X318135000Y-22310450D02*
X304800000Y-35645450D01*
X313055000Y635000D02*
X313055000Y-3175000D01*
X318135000Y-5715000D02*
X318135000Y-22310450D01*
X314960000Y2540000D02*
X313055000Y635000D01*
X313690000Y-3810000D02*
X316230000Y-3810000D01*
X274320000Y-100965000D02*
X274320000Y-104775000D01*
X313055000Y-3175000D02*
X313690000Y-3810000D01*
X316230000Y-3810000D02*
X318135000Y-5715000D01*
X305562000Y-43094900D02*
X320675000Y-27981900D01*
X320675000Y-707106D02*
X320675000Y0D01*
X305562000Y-71628000D02*
X305562000Y-43094900D01*
X320675000Y-27981900D02*
X320675000Y-707106D01*
X277495000Y-104775000D02*
X277495000Y-99695000D01*
X277495000Y-99695000D02*
X305562000Y-71628000D01*
X389055000Y23315000D02*
X389055000Y17595000D01*
X388240000Y24130000D02*
X389055000Y23315000D01*
X211455000Y7841650D02*
X211455000Y-635000D01*
X387852500Y17595000D02*
X383222500Y22225000D01*
X227595100Y22225000D02*
X214260100Y8890000D01*
X214260100Y8890000D02*
X212503350Y8890000D01*
X211455000Y-635000D02*
X213360000Y-2540000D01*
X389055000Y17595000D02*
X387852500Y17595000D01*
X383222500Y22225000D02*
X227595100Y22225000D01*
X212503350Y8890000D02*
X211455000Y7841650D01*
X271145000Y-99695000D02*
X271145000Y-100565000D01*
X271780000Y-99060000D02*
X271145000Y-99695000D01*
X316865000Y-6985000D02*
X316865000Y-21304425D01*
X314960000Y-5080000D02*
X316865000Y-6985000D01*
X316865000Y-21304425D02*
X304038000Y-34131425D01*
X304038000Y-34131425D02*
X304038000Y-69342000D01*
X304038000Y-69342000D02*
X274320000Y-99060000D01*
X271145000Y-100565000D02*
X271145000Y-104775000D01*
X274320000Y-99060000D02*
X271780000Y-99060000D01*
X199423100Y-8890000D02*
X203233100Y-12700000D01*
X170180000Y17145000D02*
X196215000Y-8890000D01*
X196215000Y-8890000D02*
X199423100Y-8890000D01*
X128200001Y-8820001D02*
X130879999Y-8820001D01*
X121920000Y-2540000D02*
X128200001Y-8820001D01*
X131445000Y-8255000D02*
X131445000Y-6350000D01*
X203233100Y-12700000D02*
X213360000Y-12700000D01*
X131445000Y-6350000D02*
X154940000Y17145000D01*
X130879999Y-8820001D02*
X131445000Y-8255000D01*
X154940000Y17145000D02*
X170180000Y17145000D01*
X116839994Y-8182894D02*
X116839994Y-8890000D01*
X116839994Y-635006D02*
X116839994Y-8182894D01*
X121920000Y0D02*
X117475000Y0D01*
X117475000Y0D02*
X116839994Y-635006D01*
X127500051Y-12200001D02*
X127000052Y-12700000D01*
X128270052Y-11430000D02*
X127500051Y-12200001D01*
X130810000Y-11430000D02*
X128270052Y-11430000D01*
X132715000Y-9525000D02*
X130810000Y-11430000D01*
X132715000Y-7005375D02*
X132715000Y-9525000D01*
X203200000Y-15240000D02*
X199390000Y-11430000D01*
X213360000Y-15240000D02*
X203200000Y-15240000D01*
X155595375Y15875000D02*
X132715000Y-7005375D01*
X199390000Y-11430000D02*
X196850000Y-11430000D01*
X196850000Y-11430000D02*
X169545000Y15875000D01*
X169545000Y15875000D02*
X155595375Y15875000D01*
X116205000Y2540000D02*
X121920000Y2540000D01*
X97155000Y-16510000D02*
X116205000Y2540000D01*
X86360000Y-15240000D02*
X87560300Y-15240000D01*
X88830300Y-16510000D02*
X97155000Y-16510000D01*
X87560300Y-15240000D02*
X88830300Y-16510000D01*
X200660000Y-17780000D02*
X213360000Y-17780000D01*
X199417400Y-16537400D02*
X200660000Y-17780000D01*
X187455100Y-17950000D02*
X188867700Y-16537400D01*
X188867700Y-16537400D02*
X199417400Y-16537400D01*
X255270000Y9452894D02*
X255270000Y10160000D01*
X255270000Y-43002600D02*
X255270000Y9452894D01*
X253365000Y-53907950D02*
X253365000Y-44907600D01*
X248920000Y-99695000D02*
X245745000Y-96520000D01*
X253365000Y-44907600D02*
X255270000Y-43002600D01*
X248920000Y-104775000D02*
X248920000Y-99695000D01*
X245745000Y-96520000D02*
X245745000Y-59055000D01*
X245745000Y-59055000D02*
X247650000Y-57150000D01*
X247650000Y-57150000D02*
X250122950Y-57150000D01*
X250122950Y-57150000D02*
X253365000Y-53907950D01*
X394419900Y17229900D02*
X394419900Y17780000D01*
X394335000Y17145000D02*
X394419900Y17229900D01*
X394970000Y22860000D02*
X396240000Y24130000D01*
X394419900Y17780000D02*
X394970000Y18330100D01*
X394970000Y18330100D02*
X394970000Y22860000D01*
X394970000Y17695150D02*
X394970000Y17780000D01*
X393149850Y15875000D02*
X394970000Y17695150D01*
X387645750Y15875000D02*
X393149850Y15875000D01*
X383200750Y20320000D02*
X387645750Y15875000D01*
X316437650Y-2540000D02*
X327867650Y8890000D01*
X327867650Y8890000D02*
X352425000Y8890000D01*
X352425000Y8890000D02*
X357051600Y13516600D01*
X314960000Y-2540000D02*
X316437650Y-2540000D01*
X357051600Y13516600D02*
X357051600Y18596600D01*
X358775000Y20320000D02*
X383200750Y20320000D01*
X357051600Y18596600D02*
X358775000Y20320000D01*
X161261600Y-49558400D02*
X180648700Y-49558400D01*
X198592101Y-31614999D02*
X199092100Y-31115000D01*
X180648700Y-49558400D02*
X198592101Y-31614999D01*
X157480000Y-53340000D02*
X161261600Y-49558400D01*
X128905000Y-62230000D02*
X128134999Y-63000001D01*
X130492506Y-62230000D02*
X128905000Y-62230000D01*
X128134999Y-63000001D02*
X127635000Y-63500000D01*
X135107100Y-56908300D02*
X135107100Y-57615406D01*
X135107100Y-57615406D02*
X130492506Y-62230000D01*
X157480000Y-50800000D02*
X177166404Y-31113596D01*
X175895000Y-26742106D02*
X175895000Y-26035000D01*
X157480000Y-48260000D02*
X158611370Y-48260000D01*
X175895000Y-30976370D02*
X175895000Y-26742106D01*
X158611370Y-48260000D02*
X175895000Y-30976370D01*
X121920000Y-58420000D02*
X117041600Y-58420000D01*
X117041600Y-58420000D02*
X112997203Y-54375603D01*
X112997203Y-54375603D02*
X112497204Y-53875604D01*
X88265000Y-44450000D02*
X86995000Y-43180000D01*
X86995000Y-43180000D02*
X86995000Y-26015300D01*
X88265000Y-48895000D02*
X88265000Y-44450000D01*
X86360000Y-50800000D02*
X88265000Y-48895000D01*
X86995000Y-26015300D02*
X87745301Y-25264999D01*
X87745301Y-25264999D02*
X88245300Y-24765000D01*
X153757292Y-35911508D02*
X153757292Y-30291614D01*
X123051370Y-53340000D02*
X127000000Y-57288630D01*
X121920000Y-53340000D02*
X123051370Y-53340000D01*
X153757292Y-30291614D02*
X153757292Y-29584508D01*
X127000000Y-59055000D02*
X127635000Y-59690000D01*
X127000000Y-57288630D02*
X127000000Y-59055000D01*
X127635000Y-59690000D02*
X129978800Y-59690000D01*
X129978800Y-59690000D02*
X153757292Y-35911508D01*
X162663400Y-47590200D02*
X163263500Y-46990100D01*
X180974896Y-46990100D02*
X197619997Y-30344999D01*
X197619997Y-30344999D02*
X198119996Y-29845000D01*
X163263500Y-46990100D02*
X180974896Y-46990100D01*
X83185000Y-66756950D02*
X85171950Y-64770000D01*
X83185000Y-69850000D02*
X83185000Y-66756950D01*
X87630000Y-64770000D02*
X88265000Y-64135000D01*
X85090000Y-71755000D02*
X83185000Y-69850000D01*
X90170000Y-71755000D02*
X85090000Y-71755000D01*
X109220000Y-50800000D02*
X95250000Y-64770000D01*
X88265000Y-64135000D02*
X88265000Y-62865000D01*
X121920000Y-50800000D02*
X109220000Y-50800000D01*
X85171950Y-64770000D02*
X87630000Y-64770000D01*
X95250000Y-64770000D02*
X93091999Y-64770000D01*
X93091999Y-64770000D02*
X92075000Y-65786999D01*
X92075000Y-65786999D02*
X92075000Y-69850000D01*
X88265000Y-62865000D02*
X86360000Y-60960000D01*
X92075000Y-69850000D02*
X90170000Y-71755000D01*
X133685200Y-30993000D02*
X124259900Y-40418300D01*
X124259900Y-40418300D02*
X124259900Y-45620000D01*
X124259900Y-45620000D02*
X122820200Y-47059700D01*
X122820200Y-47059700D02*
X121920000Y-47059700D01*
X121920000Y-48260000D02*
X121920000Y-47059700D01*
X84455000Y-67945000D02*
X86360000Y-66040000D01*
X84455000Y-69264800D02*
X84455000Y-67945000D01*
X85675200Y-70485000D02*
X84455000Y-69264800D01*
X87630000Y-70485000D02*
X85675200Y-70485000D01*
X109220000Y-48260000D02*
X95250000Y-62230000D01*
X121920000Y-48260000D02*
X109220000Y-48260000D01*
X90805000Y-63500000D02*
X90805000Y-67310000D01*
X92075000Y-62230000D02*
X90805000Y-63500000D01*
X95250000Y-62230000D02*
X92075000Y-62230000D01*
X90805000Y-67310000D02*
X87630000Y-70485000D01*
X182566400Y-52070000D02*
X199338900Y-35297500D01*
X157480000Y-58420000D02*
X163830000Y-52070000D01*
X163830000Y-52070000D02*
X182566400Y-52070000D01*
X157480000Y-58420000D02*
X148590000Y-67310000D01*
X130247106Y-67310000D02*
X129540000Y-67310000D01*
X148590000Y-67310000D02*
X130247106Y-67310000D01*
X321945000Y-67945000D02*
X321945000Y-64770000D01*
X323215000Y-69215000D02*
X321945000Y-67945000D01*
X342265000Y-69215000D02*
X323215000Y-69215000D01*
X356870000Y-104775000D02*
X356870000Y-83820000D01*
X356870000Y-83820000D02*
X342265000Y-69215000D01*
X173355000Y-30401494D02*
X173355000Y-31108600D01*
X173355000Y-20955000D02*
X173355000Y-30401494D01*
X165100000Y-12700000D02*
X173355000Y-20955000D01*
X161925000Y-10795000D02*
X161925000Y-13897894D01*
X165100000Y-7620000D02*
X161925000Y-10795000D01*
X161925000Y-13897894D02*
X161925000Y-14605000D01*
X61554100Y-12700000D02*
X86360000Y-12700000D01*
X56515000Y-17739100D02*
X61554100Y-12700000D01*
X56515000Y-22853950D02*
X56515000Y-17739100D01*
X50800000Y-25400000D02*
X53968950Y-25400000D01*
X53968950Y-25400000D02*
X56515000Y-22853950D01*
X167005000Y-10795000D02*
X166370000Y-11430000D01*
X166370000Y-11430000D02*
X163830000Y-11430000D01*
X167005000Y-4445000D02*
X167005000Y-10795000D01*
X165100000Y-2540000D02*
X167005000Y-4445000D01*
X163830000Y-11430000D02*
X163195000Y-12065000D01*
X163195000Y-15167894D02*
X163195000Y-15875000D01*
X163195000Y-12065000D02*
X163195000Y-15167894D01*
X97790000Y-17780000D02*
X93980000Y-17780000D01*
X116770400Y1200400D02*
X97790000Y-17780000D01*
X127000100Y1200400D02*
X116770400Y1200400D01*
X129540000Y2540000D02*
X128339700Y2540000D01*
X128339700Y2540000D02*
X127000100Y1200400D01*
X131445000Y1905000D02*
X129540000Y0D01*
X131445000Y3175000D02*
X131445000Y1905000D01*
X130810000Y3810000D02*
X131445000Y3175000D01*
X93980000Y-12700000D02*
X99060000Y-12700000D01*
X115570000Y3810000D02*
X130810000Y3810000D01*
X99060000Y-12700000D02*
X115570000Y3810000D01*
X132715000Y635000D02*
X129540000Y-2540000D01*
X132715000Y5080000D02*
X132715000Y635000D01*
X130810000Y6985000D02*
X132715000Y5080000D01*
X116840000Y6985000D02*
X130810000Y6985000D01*
X93980000Y-7620000D02*
X102235000Y-7620000D01*
X102235000Y-7620000D02*
X116840000Y6985000D01*
X119245006Y-2040008D02*
X118745007Y-2540007D01*
X120015014Y-1270000D02*
X119245006Y-2040008D01*
X129540000Y-7620000D02*
X123190000Y-1270000D01*
X123190000Y-1270000D02*
X120015014Y-1270000D01*
X48895000Y-31115000D02*
X50800000Y-33020000D01*
X48895000Y-24130000D02*
X48895000Y-31115000D01*
X49530000Y-23495000D02*
X48895000Y-24130000D01*
X53975000Y-23495000D02*
X49530000Y-23495000D01*
X92109850Y-2540000D02*
X90839850Y-3810000D01*
X90839850Y-3810000D02*
X68580000Y-3810000D01*
X93980000Y-2540000D02*
X92109850Y-2540000D01*
X55245000Y-17145000D02*
X55245000Y-22225000D01*
X68580000Y-3810000D02*
X55245000Y-17145000D01*
X55245000Y-22225000D02*
X53975000Y-23495000D01*
X132080000Y-12700000D02*
X151265001Y-31885001D01*
X129540000Y-12700000D02*
X132080000Y-12700000D01*
X151265001Y-31885001D02*
X151765000Y-32385000D01*
X345440000Y-70485000D02*
X360044988Y-85089988D01*
X360044988Y-98352894D02*
X360044988Y-99060000D01*
X360044988Y-85089988D02*
X360044988Y-98352894D01*
X350520000Y-104775000D02*
X350520000Y-80010000D01*
X350520000Y-80010000D02*
X350384999Y-79874999D01*
X350384999Y-79874999D02*
X349885000Y-79375000D01*
X163968630Y-58420000D02*
X165100000Y-58420000D01*
X160655000Y-59023991D02*
X161258991Y-58420000D01*
X161258991Y-58420000D02*
X163968630Y-58420000D01*
X160655000Y-64770000D02*
X160655000Y-59023991D01*
X81915000Y-70485000D02*
X84455000Y-73025000D01*
X86360000Y-63500000D02*
X84841815Y-63500000D01*
X81915000Y-66426815D02*
X81915000Y-70485000D01*
X84841815Y-63500000D02*
X81915000Y-66426815D01*
X84455000Y-73025000D02*
X152400000Y-73025000D01*
X152400000Y-73025000D02*
X160655000Y-64770000D01*
X107950018Y-69215000D02*
X104004999Y-65269981D01*
X104004999Y-65269981D02*
X103505000Y-64769982D01*
X154940000Y-69215000D02*
X107950018Y-69215000D01*
X159385000Y-64770000D02*
X154940000Y-69215000D01*
X159385000Y-59055000D02*
X159385000Y-64770000D01*
X165100000Y-53340000D02*
X159385000Y-59055000D01*
X161925004Y-60397106D02*
X161925004Y-59690000D01*
X80645000Y-59055000D02*
X80645000Y-70485000D01*
X86360000Y-53340000D02*
X80645000Y-59055000D01*
X80645000Y-70485000D02*
X84455000Y-74295000D01*
X84455000Y-74295000D02*
X152527800Y-74295000D01*
X152527800Y-74295000D02*
X161925004Y-64897796D01*
X161925004Y-64897796D02*
X161925004Y-60397106D01*
X163964136Y-59689992D02*
X167567894Y-59689992D01*
X163195000Y-60459128D02*
X163964136Y-59689992D01*
X79375000Y-55245000D02*
X79375000Y-71120000D01*
X86360000Y-48260000D02*
X79375000Y-55245000D01*
X153035000Y-75565000D02*
X163195000Y-65405000D01*
X167567894Y-59689992D02*
X168275000Y-59689992D01*
X79375000Y-71120000D02*
X83820000Y-75565000D01*
X83820000Y-75565000D02*
X153035000Y-75565000D01*
X163195000Y-65405000D02*
X163195000Y-60459128D01*
X110432500Y-52127500D02*
X123987400Y-52127500D01*
X125230001Y-50884899D02*
X125730000Y-50384900D01*
X123987400Y-52127500D02*
X125230001Y-50884899D01*
X93980000Y-68580000D02*
X110432500Y-52127500D01*
X109280100Y-49469900D02*
X95250000Y-63500000D01*
X129540000Y-50800000D02*
X128209900Y-49469900D01*
X95250000Y-63500000D02*
X93980000Y-63500000D01*
X128209900Y-49469900D02*
X109280100Y-49469900D01*
X119942890Y-65405000D02*
X114727889Y-60189999D01*
X122555000Y-65405000D02*
X119942890Y-65405000D01*
X114727889Y-60189999D02*
X114227890Y-59690000D01*
X123825000Y-64135000D02*
X122555000Y-65405000D01*
X123825000Y-58420000D02*
X123825000Y-64135000D01*
X129540000Y-58420000D02*
X132159400Y-55800600D01*
X132159400Y-55800600D02*
X132159400Y-43863000D01*
X132159400Y-43863000D02*
X127501700Y-39205300D01*
X127501700Y-39205300D02*
X126322000Y-39205300D01*
X126322000Y-39205300D02*
X124860300Y-40667000D01*
X124860300Y-40667000D02*
X124860300Y-47905000D01*
X124860300Y-47905000D02*
X124235700Y-48529600D01*
X353695000Y-82549992D02*
X352290007Y-81144999D01*
X352290007Y-81144999D02*
X351790008Y-80645000D01*
X353695000Y-104775000D02*
X353695000Y-82549992D01*
X91961400Y-95771400D02*
X91961400Y-99613300D01*
X53975000Y-57785000D02*
X91961400Y-95771400D01*
X50800000Y-30480000D02*
X53975000Y-33655000D01*
X53975000Y-33655000D02*
X53975000Y-57785000D01*
X90805000Y-100564700D02*
X90805000Y-104775000D01*
X90805000Y-96450425D02*
X90805000Y-100564700D01*
X50800000Y-38100000D02*
X52705000Y-40005000D01*
X52705000Y-58350425D02*
X90805000Y-96450425D01*
X52705000Y-40005000D02*
X52705000Y-58350425D01*
X93478594Y-95383594D02*
X93478594Y-97290001D01*
X58420000Y-40640000D02*
X58420000Y-60325000D01*
X93478594Y-97290001D02*
X93978593Y-97790000D01*
X58420000Y-60325000D02*
X93478594Y-95383594D01*
X95250000Y-95250000D02*
X95250000Y-98425000D01*
X93980000Y-99695000D02*
X93980000Y-104775000D01*
X60325000Y-60325000D02*
X95250000Y-95250000D01*
X58420000Y-33020000D02*
X60325000Y-34925000D01*
X95250000Y-98425000D02*
X93980000Y-99695000D01*
X60325000Y-34925000D02*
X60325000Y-60325000D01*
X385410150Y-63500000D02*
X383540000Y-63500000D01*
X386715000Y-64804850D02*
X385410150Y-63500000D01*
X386715000Y-97790000D02*
X386715000Y-64804850D01*
X385445000Y-104775000D02*
X385445000Y-99060000D01*
X385445000Y-99060000D02*
X386715000Y-97790000D01*
X382270000Y-70485000D02*
X382270000Y-99059992D01*
X385445000Y-67310000D02*
X382270000Y-70485000D01*
X379095000Y-59055000D02*
X379095000Y-61595000D01*
X375920000Y-55880000D02*
X379095000Y-59055000D01*
X384810000Y-64770000D02*
X385445000Y-65405000D01*
X382270000Y-64770000D02*
X384810000Y-64770000D01*
X379095000Y-61595000D02*
X382270000Y-64770000D01*
X385445000Y-65405000D02*
X385445000Y-67310000D01*
X62230000Y-33020000D02*
X62230000Y-31919700D01*
X58420000Y-27940000D02*
X58420000Y-29140300D01*
X58420000Y-29140300D02*
X59450600Y-29140300D01*
X59450600Y-29140300D02*
X62230000Y-31919700D01*
X205740000Y-53340000D02*
X205740000Y-53429400D01*
X202565000Y-62865000D02*
X205740000Y-66040000D01*
X202565000Y-57342200D02*
X202565000Y-62865000D01*
X205740000Y-53429400D02*
X205740000Y-54540300D01*
X205366900Y-54540300D02*
X202565000Y-57342200D01*
X205740000Y-54540300D02*
X205366900Y-54540300D01*
X205740000Y-53429400D02*
X208825600Y-53429400D01*
X208825600Y-53429400D02*
X225560001Y-36694999D01*
X225560001Y-36694999D02*
X226060000Y-36195000D01*
M02*
