G04 #@! TF.GenerationSoftware,KiCad,Pcbnew,5.1.4-e60b266~84~ubuntu18.04.1*
G04 #@! TF.CreationDate,2019-11-09T01:56:08-04:00*
G04 #@! TF.ProjectId,nova_modern,6e6f7661-5f6d-46f6-9465-726e2e6b6963,0.1*
G04 #@! TF.SameCoordinates,Original*
G04 #@! TF.FileFunction,Profile,NP*
%FSLAX46Y46*%
G04 Gerber Fmt 4.6, Leading zero omitted, Abs format (unit mm)*
G04 Created by KiCad (PCBNEW 5.1.4-e60b266~84~ubuntu18.04.1) date 2019-11-09 01:56:08*
%MOMM*%
%LPD*%
G04 APERTURE LIST*
%ADD10C,0.050000*%
G04 APERTURE END LIST*
D10*
X120650000Y-99695000D02*
X121285000Y-99695000D01*
X291465000Y-99695000D02*
X292100000Y-99695000D01*
X290830000Y-100330000D02*
G75*
G02X291465000Y-99695000I635000J0D01*
G01*
X292100000Y-99695000D02*
G75*
G02X292735000Y-100330000I0J-635000D01*
G01*
X120015000Y-100330000D02*
G75*
G02X120650000Y-99695000I635000J0D01*
G01*
X121285000Y-99695000D02*
G75*
G02X121920000Y-100330000I0J-635000D01*
G01*
X293370000Y-109220000D02*
X392430000Y-109220000D01*
X292735000Y-100330000D02*
X292735000Y-108585000D01*
X290830000Y-108585000D02*
X290830000Y-100330000D01*
X122555000Y-109220000D02*
X202565000Y-109220000D01*
X121920000Y-100330000D02*
X121920000Y-108585000D01*
X120015000Y-108585000D02*
X120015000Y-100330000D01*
X122555000Y-109220000D02*
G75*
G02X121920000Y-108585000I0J635000D01*
G01*
X120015000Y-108585000D02*
G75*
G02X119380000Y-109220000I-635000J0D01*
G01*
X293370000Y-109220000D02*
G75*
G02X292735000Y-108585000I0J635000D01*
G01*
X290830000Y-108585000D02*
G75*
G02X290195000Y-109220000I-635000J0D01*
G01*
X235585000Y-109220000D02*
X290195000Y-109220000D01*
X203200000Y-102235000D02*
X203200000Y-108585000D01*
X234315000Y-101600000D02*
X203835000Y-101600000D01*
X234950000Y-102235000D02*
X234950000Y-108585000D01*
X234315000Y-101600000D02*
G75*
G02X234950000Y-102235000I0J-635000D01*
G01*
X203200000Y-102235000D02*
G75*
G02X203835000Y-101600000I635000J0D01*
G01*
X235585000Y-109220000D02*
G75*
G02X234950000Y-108585000I0J635000D01*
G01*
X203200000Y-108585000D02*
G75*
G02X202565000Y-109220000I-635000J0D01*
G01*
X393065000Y-108585000D02*
X393065000Y-102235000D01*
X393065000Y-102235000D02*
G75*
G02X393700000Y-101600000I635000J0D01*
G01*
X405384000Y-100965000D02*
G75*
G02X404749000Y-101600000I-635000J0D01*
G01*
X393065000Y-108585000D02*
G75*
G02X392430000Y-109220000I-635000J0D01*
G01*
X393700000Y-101600000D02*
X404749000Y-101600000D01*
X405384000Y29845000D02*
X405384000Y-100965000D01*
X45720000Y-109220000D02*
X119380000Y-109220000D01*
X45085000Y-102235000D02*
X45085000Y-108585000D01*
X27051000Y-101600000D02*
X44450000Y-101600000D01*
X26416000Y29845000D02*
X26416000Y-100965000D01*
X404749000Y30480000D02*
X27051000Y30480000D01*
X404749000Y30480000D02*
G75*
G02X405384000Y29845000I0J-635000D01*
G01*
X45720000Y-109220000D02*
G75*
G02X45085000Y-108585000I0J635000D01*
G01*
X44450000Y-101600000D02*
G75*
G02X45085000Y-102235000I0J-635000D01*
G01*
X27051000Y-101600000D02*
G75*
G02X26416000Y-100965000I0J635000D01*
G01*
X26416000Y29845000D02*
G75*
G02X27051000Y30480000I635000J0D01*
G01*
M02*
