G04 #@! TF.GenerationSoftware,KiCad,Pcbnew,5.1.4-e60b266~84~ubuntu18.04.1*
G04 #@! TF.CreationDate,2019-11-09T01:56:08-04:00*
G04 #@! TF.ProjectId,nova_modern,6e6f7661-5f6d-46f6-9465-726e2e6b6963,0.1*
G04 #@! TF.SameCoordinates,Original*
G04 #@! TF.FileFunction,Copper,L1,Top*
G04 #@! TF.FilePolarity,Positive*
%FSLAX46Y46*%
G04 Gerber Fmt 4.6, Leading zero omitted, Abs format (unit mm)*
G04 Created by KiCad (PCBNEW 5.1.4-e60b266~84~ubuntu18.04.1) date 2019-11-09 01:56:08*
%MOMM*%
%LPD*%
G04 APERTURE LIST*
%ADD10R,1.905000X7.620000*%
%ADD11R,1.397000X7.620000*%
%ADD12C,2.000000*%
%ADD13C,1.700000*%
%ADD14C,1.600000*%
%ADD15R,1.600000X1.600000*%
%ADD16O,1.400000X1.400000*%
%ADD17C,1.400000*%
%ADD18O,1.600000X1.600000*%
%ADD19C,1.000000*%
%ADD20C,0.400000*%
%ADD21C,0.800000*%
%ADD22C,1.500000*%
%ADD23C,2.000000*%
G04 APERTURE END LIST*
D10*
X46355000Y-104775000D03*
X49530000Y-104775000D03*
X52705000Y-104775000D03*
X55880000Y-104775000D03*
X59055000Y-104775000D03*
X62230000Y-104775000D03*
X65405000Y-104775000D03*
X68580000Y-104775000D03*
X71755000Y-104775000D03*
X74930000Y-104775000D03*
X78105000Y-104775000D03*
X81280000Y-104775000D03*
X84455000Y-104775000D03*
X87630000Y-104775000D03*
X90805000Y-104775000D03*
X93980000Y-104775000D03*
X97155000Y-104775000D03*
X100330000Y-104775000D03*
X103505000Y-104775000D03*
X106680000Y-104775000D03*
X109855000Y-104775000D03*
X113030000Y-104775000D03*
X116205000Y-104775000D03*
D11*
X119126000Y-104775000D03*
X122809000Y-104775000D03*
D10*
X125730000Y-104775000D03*
X128905000Y-104775000D03*
X132080000Y-104775000D03*
X135255000Y-104775000D03*
X138430000Y-104775000D03*
X141605000Y-104775000D03*
X144780000Y-104775000D03*
X147955000Y-104775000D03*
X151130000Y-104775000D03*
X154305000Y-104775000D03*
X157480000Y-104775000D03*
X160655000Y-104775000D03*
X163830000Y-104775000D03*
X167005000Y-104775000D03*
X170180000Y-104775000D03*
X173355000Y-104775000D03*
X176530000Y-104775000D03*
X179705000Y-104775000D03*
X182880000Y-104775000D03*
X186055000Y-104775000D03*
X189230000Y-104775000D03*
X192405000Y-104775000D03*
X195580000Y-104775000D03*
X198755000Y-104775000D03*
X201930000Y-104775000D03*
X236220000Y-104775000D03*
X239395000Y-104775000D03*
X242570000Y-104775000D03*
X245745000Y-104775000D03*
X248920000Y-104775000D03*
X252095000Y-104775000D03*
X255270000Y-104775000D03*
X258445000Y-104775000D03*
X261620000Y-104775000D03*
X264795000Y-104775000D03*
X267970000Y-104775000D03*
X271145000Y-104775000D03*
X274320000Y-104775000D03*
X277495000Y-104775000D03*
X280670000Y-104775000D03*
X283845000Y-104775000D03*
X287020000Y-104775000D03*
D11*
X289941000Y-104775000D03*
X293624000Y-104775000D03*
D10*
X296545000Y-104775000D03*
X299720000Y-104775000D03*
X302895000Y-104775000D03*
X306070000Y-104775000D03*
X309245000Y-104775000D03*
X312420000Y-104775000D03*
X315595000Y-104775000D03*
X318770000Y-104775000D03*
X321945000Y-104775000D03*
X325120000Y-104775000D03*
X328295000Y-104775000D03*
X331470000Y-104775000D03*
X334645000Y-104775000D03*
X337820000Y-104775000D03*
X340995000Y-104775000D03*
X344170000Y-104775000D03*
X347345000Y-104775000D03*
X350520000Y-104775000D03*
X353695000Y-104775000D03*
X356870000Y-104775000D03*
X360045000Y-104775000D03*
X363220000Y-104775000D03*
X366395000Y-104775000D03*
X369570000Y-104775000D03*
X372745000Y-104775000D03*
X375920000Y-104775000D03*
X379095000Y-104775000D03*
X382270000Y-104775000D03*
X385445000Y-104775000D03*
X388620000Y-104775000D03*
X391795000Y-104775000D03*
D12*
X398240000Y22380000D03*
X386240000Y22380000D03*
X386240000Y28380000D03*
X398240000Y28380000D03*
D13*
X396240000Y24130000D03*
X392240000Y24130000D03*
X388240000Y24130000D03*
D14*
X365760000Y17780000D03*
X360760000Y17780000D03*
X309960000Y19050000D03*
X314960000Y19050000D03*
X264160000Y17780000D03*
X259160000Y17780000D03*
X208360000Y17780000D03*
X213360000Y17780000D03*
X383540000Y-45720000D03*
X378540000Y-45720000D03*
X353140000Y-45720000D03*
X358140000Y-45720000D03*
X332740000Y-45720000D03*
X327740000Y-45720000D03*
X302340000Y-45720000D03*
X307340000Y-45720000D03*
X281940000Y-45720000D03*
X276940000Y-45720000D03*
X256540000Y-45720000D03*
X251540000Y-45720000D03*
X226060000Y-45720000D03*
X231060000Y-45720000D03*
X205740000Y-45720000D03*
X200740000Y-45720000D03*
X162480000Y10795000D03*
X157480000Y10795000D03*
X121920000Y10795000D03*
X126920000Y10795000D03*
X126920000Y-40640000D03*
X121920000Y-40640000D03*
X157480000Y-40640000D03*
X162480000Y-40640000D03*
X88980000Y10795000D03*
X93980000Y10795000D03*
X58420000Y-20320000D03*
X53420000Y-20320000D03*
X88980000Y-40640000D03*
X93980000Y-40640000D03*
D15*
X49530000Y-83820000D03*
D14*
X46030000Y-83820000D03*
D16*
X394970000Y17780000D03*
D17*
X394970000Y10160000D03*
X389055000Y9975000D03*
D16*
X389055000Y17595000D03*
D17*
X62230000Y-25400000D03*
D16*
X62230000Y-33020000D03*
D15*
X375920000Y-50800000D03*
D18*
X383540000Y-66040000D03*
X375920000Y-53340000D03*
X383540000Y-63500000D03*
X375920000Y-55880000D03*
X383540000Y-60960000D03*
X375920000Y-58420000D03*
X383540000Y-58420000D03*
X375920000Y-60960000D03*
X383540000Y-55880000D03*
X375920000Y-63500000D03*
X383540000Y-53340000D03*
X375920000Y-66040000D03*
X383540000Y-50800000D03*
X332740000Y-50800000D03*
X325120000Y-66040000D03*
X332740000Y-53340000D03*
X325120000Y-63500000D03*
X332740000Y-55880000D03*
X325120000Y-60960000D03*
X332740000Y-58420000D03*
X325120000Y-58420000D03*
X332740000Y-60960000D03*
X325120000Y-55880000D03*
X332740000Y-63500000D03*
X325120000Y-53340000D03*
X332740000Y-66040000D03*
D15*
X325120000Y-50800000D03*
X274320000Y-50800000D03*
D18*
X281940000Y-66040000D03*
X274320000Y-53340000D03*
X281940000Y-63500000D03*
X274320000Y-55880000D03*
X281940000Y-60960000D03*
X274320000Y-58420000D03*
X281940000Y-58420000D03*
X274320000Y-60960000D03*
X281940000Y-55880000D03*
X274320000Y-63500000D03*
X281940000Y-53340000D03*
X274320000Y-66040000D03*
X281940000Y-50800000D03*
D15*
X223520000Y-50800000D03*
D18*
X231140000Y-66040000D03*
X223520000Y-53340000D03*
X231140000Y-63500000D03*
X223520000Y-55880000D03*
X231140000Y-60960000D03*
X223520000Y-58420000D03*
X231140000Y-58420000D03*
X223520000Y-60960000D03*
X231140000Y-55880000D03*
X223520000Y-63500000D03*
X231140000Y-53340000D03*
X223520000Y-66040000D03*
X231140000Y-50800000D03*
X205740000Y-50800000D03*
X198120000Y-66040000D03*
X205740000Y-53340000D03*
X198120000Y-63500000D03*
X205740000Y-55880000D03*
X198120000Y-60960000D03*
X205740000Y-58420000D03*
X198120000Y-58420000D03*
X205740000Y-60960000D03*
X198120000Y-55880000D03*
X205740000Y-63500000D03*
X198120000Y-53340000D03*
X205740000Y-66040000D03*
D15*
X198120000Y-50800000D03*
X350520000Y-50800000D03*
D18*
X358140000Y-68580000D03*
X350520000Y-53340000D03*
X358140000Y-66040000D03*
X350520000Y-55880000D03*
X358140000Y-63500000D03*
X350520000Y-58420000D03*
X358140000Y-60960000D03*
X350520000Y-60960000D03*
X358140000Y-58420000D03*
X350520000Y-63500000D03*
X358140000Y-55880000D03*
X350520000Y-66040000D03*
X358140000Y-53340000D03*
X350520000Y-68580000D03*
X358140000Y-50800000D03*
D15*
X299720000Y-50800000D03*
D18*
X307340000Y-68580000D03*
X299720000Y-53340000D03*
X307340000Y-66040000D03*
X299720000Y-55880000D03*
X307340000Y-63500000D03*
X299720000Y-58420000D03*
X307340000Y-60960000D03*
X299720000Y-60960000D03*
X307340000Y-58420000D03*
X299720000Y-63500000D03*
X307340000Y-55880000D03*
X299720000Y-66040000D03*
X307340000Y-53340000D03*
X299720000Y-68580000D03*
X307340000Y-50800000D03*
X256540000Y-50800000D03*
X248920000Y-68580000D03*
X256540000Y-53340000D03*
X248920000Y-66040000D03*
X256540000Y-55880000D03*
X248920000Y-63500000D03*
X256540000Y-58420000D03*
X248920000Y-60960000D03*
X256540000Y-60960000D03*
X248920000Y-58420000D03*
X256540000Y-63500000D03*
X248920000Y-55880000D03*
X256540000Y-66040000D03*
X248920000Y-53340000D03*
X256540000Y-68580000D03*
D15*
X248920000Y-50800000D03*
D18*
X213360000Y12700000D03*
X198120000Y-20320000D03*
X213360000Y10160000D03*
X198120000Y-17780000D03*
X213360000Y7620000D03*
X198120000Y-15240000D03*
X213360000Y5080000D03*
X198120000Y-12700000D03*
X213360000Y2540000D03*
X198120000Y-10160000D03*
X213360000Y0D03*
X198120000Y-7620000D03*
X213360000Y-2540000D03*
X198120000Y-5080000D03*
X213360000Y-5080000D03*
X198120000Y-2540000D03*
X213360000Y-7620000D03*
X198120000Y0D03*
X213360000Y-10160000D03*
X198120000Y2540000D03*
X213360000Y-12700000D03*
X198120000Y5080000D03*
X213360000Y-15240000D03*
X198120000Y7620000D03*
X213360000Y-17780000D03*
X198120000Y10160000D03*
X213360000Y-20320000D03*
D15*
X198120000Y12700000D03*
D18*
X264160000Y12700000D03*
X248920000Y-20320000D03*
X264160000Y10160000D03*
X248920000Y-17780000D03*
X264160000Y7620000D03*
X248920000Y-15240000D03*
X264160000Y5080000D03*
X248920000Y-12700000D03*
X264160000Y2540000D03*
X248920000Y-10160000D03*
X264160000Y0D03*
X248920000Y-7620000D03*
X264160000Y-2540000D03*
X248920000Y-5080000D03*
X264160000Y-5080000D03*
X248920000Y-2540000D03*
X264160000Y-7620000D03*
X248920000Y0D03*
X264160000Y-10160000D03*
X248920000Y2540000D03*
X264160000Y-12700000D03*
X248920000Y5080000D03*
X264160000Y-15240000D03*
X248920000Y7620000D03*
X264160000Y-17780000D03*
X248920000Y10160000D03*
X264160000Y-20320000D03*
D15*
X248920000Y12700000D03*
X299720000Y12700000D03*
D18*
X314960000Y-20320000D03*
X299720000Y10160000D03*
X314960000Y-17780000D03*
X299720000Y7620000D03*
X314960000Y-15240000D03*
X299720000Y5080000D03*
X314960000Y-12700000D03*
X299720000Y2540000D03*
X314960000Y-10160000D03*
X299720000Y0D03*
X314960000Y-7620000D03*
X299720000Y-2540000D03*
X314960000Y-5080000D03*
X299720000Y-5080000D03*
X314960000Y-2540000D03*
X299720000Y-7620000D03*
X314960000Y0D03*
X299720000Y-10160000D03*
X314960000Y2540000D03*
X299720000Y-12700000D03*
X314960000Y5080000D03*
X299720000Y-15240000D03*
X314960000Y7620000D03*
X299720000Y-17780000D03*
X314960000Y10160000D03*
X299720000Y-20320000D03*
X314960000Y12700000D03*
D15*
X350520000Y12700000D03*
D18*
X365760000Y-20320000D03*
X350520000Y10160000D03*
X365760000Y-17780000D03*
X350520000Y7620000D03*
X365760000Y-15240000D03*
X350520000Y5080000D03*
X365760000Y-12700000D03*
X350520000Y2540000D03*
X365760000Y-10160000D03*
X350520000Y0D03*
X365760000Y-7620000D03*
X350520000Y-2540000D03*
X365760000Y-5080000D03*
X350520000Y-5080000D03*
X365760000Y-2540000D03*
X350520000Y-7620000D03*
X365760000Y0D03*
X350520000Y-10160000D03*
X365760000Y2540000D03*
X350520000Y-12700000D03*
X365760000Y5080000D03*
X350520000Y-15240000D03*
X365760000Y7620000D03*
X350520000Y-17780000D03*
X365760000Y10160000D03*
X350520000Y-20320000D03*
X365760000Y12700000D03*
D15*
X157480000Y5080000D03*
D18*
X165100000Y-12700000D03*
X157480000Y2540000D03*
X165100000Y-10160000D03*
X157480000Y0D03*
X165100000Y-7620000D03*
X157480000Y-2540000D03*
X165100000Y-5080000D03*
X157480000Y-5080000D03*
X165100000Y-2540000D03*
X157480000Y-7620000D03*
X165100000Y0D03*
X157480000Y-10160000D03*
X165100000Y2540000D03*
X157480000Y-12700000D03*
X165100000Y5080000D03*
X129540000Y5080000D03*
X121920000Y-12700000D03*
X129540000Y2540000D03*
X121920000Y-10160000D03*
X129540000Y0D03*
X121920000Y-7620000D03*
X129540000Y-2540000D03*
X121920000Y-5080000D03*
X129540000Y-5080000D03*
X121920000Y-2540000D03*
X129540000Y-7620000D03*
X121920000Y0D03*
X129540000Y-10160000D03*
X121920000Y2540000D03*
X129540000Y-12700000D03*
D15*
X121920000Y5080000D03*
X157480000Y-45720000D03*
D18*
X165100000Y-63500000D03*
X157480000Y-48260000D03*
X165100000Y-60960000D03*
X157480000Y-50800000D03*
X165100000Y-58420000D03*
X157480000Y-53340000D03*
X165100000Y-55880000D03*
X157480000Y-55880000D03*
X165100000Y-53340000D03*
X157480000Y-58420000D03*
X165100000Y-50800000D03*
X157480000Y-60960000D03*
X165100000Y-48260000D03*
X157480000Y-63500000D03*
X165100000Y-45720000D03*
X129540000Y-45720000D03*
X121920000Y-63500000D03*
X129540000Y-48260000D03*
X121920000Y-60960000D03*
X129540000Y-50800000D03*
X121920000Y-58420000D03*
X129540000Y-53340000D03*
X121920000Y-55880000D03*
X129540000Y-55880000D03*
X121920000Y-53340000D03*
X129540000Y-58420000D03*
X121920000Y-50800000D03*
X129540000Y-60960000D03*
X121920000Y-48260000D03*
X129540000Y-63500000D03*
D15*
X121920000Y-45720000D03*
D18*
X58420000Y-25400000D03*
X50800000Y-40640000D03*
X58420000Y-27940000D03*
X50800000Y-38100000D03*
X58420000Y-30480000D03*
X50800000Y-35560000D03*
X58420000Y-33020000D03*
X50800000Y-33020000D03*
X58420000Y-35560000D03*
X50800000Y-30480000D03*
X58420000Y-38100000D03*
X50800000Y-27940000D03*
X58420000Y-40640000D03*
D15*
X50800000Y-25400000D03*
D18*
X93980000Y5080000D03*
X86360000Y-17780000D03*
X93980000Y2540000D03*
X86360000Y-15240000D03*
X93980000Y0D03*
X86360000Y-12700000D03*
X93980000Y-2540000D03*
X86360000Y-10160000D03*
X93980000Y-5080000D03*
X86360000Y-7620000D03*
X93980000Y-7620000D03*
X86360000Y-5080000D03*
X93980000Y-10160000D03*
X86360000Y-2540000D03*
X93980000Y-12700000D03*
X86360000Y0D03*
X93980000Y-15240000D03*
X86360000Y2540000D03*
X93980000Y-17780000D03*
D15*
X86360000Y5080000D03*
X86360000Y-45720000D03*
D18*
X93980000Y-68580000D03*
X86360000Y-48260000D03*
X93980000Y-66040000D03*
X86360000Y-50800000D03*
X93980000Y-63500000D03*
X86360000Y-53340000D03*
X93980000Y-60960000D03*
X86360000Y-55880000D03*
X93980000Y-58420000D03*
X86360000Y-58420000D03*
X93980000Y-55880000D03*
X86360000Y-60960000D03*
X93980000Y-53340000D03*
X86360000Y-63500000D03*
X93980000Y-50800000D03*
X86360000Y-66040000D03*
X93980000Y-48260000D03*
X86360000Y-68580000D03*
X93980000Y-45720000D03*
D19*
X355600000Y-53340000D03*
X68580000Y-97155000D03*
X71755000Y-95884990D03*
X233680000Y-99060000D03*
X203200000Y-99060000D03*
X393470028Y-97790000D03*
X55345500Y-55456700D03*
X388620000Y-96520000D03*
X198755000Y-99060000D03*
X239395000Y-99060000D03*
X295275006Y-89535000D03*
X294640000Y-88265000D03*
X375019500Y-99065508D03*
X294004990Y-86995000D03*
X74928596Y-92073596D03*
X253394436Y-80645000D03*
X283210000Y-85725000D03*
X276754000Y-70473700D03*
X372745000Y-80644998D03*
X87630000Y-95885000D03*
X263525000Y-90805000D03*
X78103596Y-88900000D03*
X265430000Y-81915000D03*
X280670000Y-99060000D03*
X276225000Y-94615000D03*
X113731800Y-92231100D03*
X264795000Y-99060008D03*
X237489996Y-95884998D03*
X305435000Y-73660000D03*
X246607376Y-52000400D03*
X81280000Y-91440000D03*
X198120000Y-84455000D03*
X84455000Y-92075000D03*
X150495000Y-85725000D03*
X233045000Y-62230000D03*
X242570014Y-59690000D03*
X267970000Y-99060000D03*
X237490000Y-93980000D03*
X196215014Y-59690014D03*
X252095000Y-73660000D03*
X97155000Y-99060000D03*
X178270100Y-44478000D03*
X96520006Y-58420000D03*
X250824994Y-72390000D03*
X347345000Y-78104994D03*
X201295000Y-64770000D03*
X340995000Y-78105008D03*
X260985004Y-7620000D03*
X346074988Y-36830000D03*
X294004996Y-36830000D03*
X260985000Y-36830000D03*
X295275000Y-34925000D03*
X348615000Y-34925000D03*
X355600000Y-46807500D03*
X295910000Y6350000D03*
X252730000Y6350000D03*
X292735010Y-52070000D03*
X210185000Y0D03*
X268604996Y3810000D03*
X320745600Y8820400D03*
X256540002Y7620002D03*
X145415006Y-14605000D03*
X135890000Y0D03*
X215265000Y-13970000D03*
X320675000Y0D03*
X127000052Y-12700000D03*
X116839994Y-8890000D03*
X187455100Y-17950000D03*
X255270000Y10160000D03*
X135107100Y-56908300D03*
X199092100Y-31115000D03*
X127635000Y-63500000D03*
X177166404Y-31113596D03*
X175895000Y-26035000D03*
X112497204Y-53875604D03*
X88245300Y-24765000D03*
X153757292Y-29584508D03*
X162663400Y-47590200D03*
X198119996Y-29845000D03*
X133685200Y-30993000D03*
X199338900Y-35297500D03*
X129540000Y-67310000D03*
X321945000Y-64770000D03*
X173355000Y-31108600D03*
X161925000Y-14605000D03*
X163195000Y-15875000D03*
X118745007Y-2540007D03*
X151765000Y-32385000D03*
X345440000Y-70485000D03*
X360044988Y-99060000D03*
X349885000Y-79375000D03*
X103505000Y-64769982D03*
X161925004Y-59690000D03*
X168275000Y-59689992D03*
X125730000Y-50384900D03*
X123825000Y-58420000D03*
X114227890Y-59690000D03*
X124235700Y-48529600D03*
X351790008Y-80645000D03*
X91961400Y-99613300D03*
X93978593Y-97790000D03*
X382270000Y-99059992D03*
X226060000Y-36195000D03*
D20*
X377190000Y-50800000D02*
X377120000Y-50800000D01*
X377120000Y-50800000D02*
X375920000Y-50800000D01*
X90107988Y-84455000D02*
X151130000Y-84455000D01*
X384712850Y-59690000D02*
X385347850Y-59055000D01*
X385347850Y-55560800D02*
X384397050Y-54610000D01*
X71755000Y-101917500D02*
X73107500Y-100565000D01*
X73107500Y-100565000D02*
X73997988Y-100565000D01*
X73997988Y-100565000D02*
X90107988Y-84455000D01*
X71755000Y-104775000D02*
X71755000Y-101917500D01*
X382270000Y-59690000D02*
X384712850Y-59690000D01*
X151130000Y-84455000D02*
X152400000Y-85725000D01*
X152400000Y-85725000D02*
X277543300Y-85725000D01*
X278813300Y-84455000D02*
X381000000Y-84455000D01*
X384397050Y-54610000D02*
X381000000Y-54610000D01*
X381635000Y-83820000D02*
X381635000Y-60325000D01*
X381000000Y-84455000D02*
X381635000Y-83820000D01*
X381000000Y-54610000D02*
X377190000Y-50800000D01*
X277543300Y-85725000D02*
X278813300Y-84455000D01*
X381635000Y-60325000D02*
X382270000Y-59690000D01*
X385347850Y-59055000D02*
X385347850Y-55560800D01*
X355100001Y-52840001D02*
X355600000Y-53340000D01*
X350520000Y-50800000D02*
X353060000Y-50800000D01*
X353060000Y-50800000D02*
X355100001Y-52840001D01*
X365125000Y-58420000D02*
X375920000Y-58420000D01*
X358140000Y-63500000D02*
X360045000Y-63500000D01*
X360045000Y-63500000D02*
X365125000Y-58420000D01*
X69287106Y-97155000D02*
X68580000Y-97155000D01*
X73597998Y-97155000D02*
X69287106Y-97155000D01*
X276690900Y-84455000D02*
X200025000Y-84455000D01*
X381108500Y-58420000D02*
X380365000Y-59163500D01*
X277960900Y-83185000D02*
X276690900Y-84455000D01*
X88837998Y-81915000D02*
X73597998Y-97155000D01*
X383540000Y-58420000D02*
X381108500Y-58420000D01*
X200025000Y-84455000D02*
X197485000Y-81915000D01*
X380365000Y-59163500D02*
X380365000Y-82550000D01*
X380365000Y-82550000D02*
X379730000Y-83185000D01*
X197485000Y-81915000D02*
X88837998Y-81915000D01*
X379730000Y-83185000D02*
X277960900Y-83185000D01*
X200660000Y-83185000D02*
X198120000Y-80645000D01*
X275716000Y-83185000D02*
X200660000Y-83185000D01*
X378107500Y-60960000D02*
X379095000Y-61947500D01*
X88265000Y-80645000D02*
X73025010Y-95884990D01*
X375920000Y-60960000D02*
X378107500Y-60960000D01*
X73025010Y-95884990D02*
X72462106Y-95884990D01*
X379095000Y-61947500D02*
X379095000Y-81280000D01*
X198120000Y-80645000D02*
X88265000Y-80645000D01*
X378460000Y-81915000D02*
X276986000Y-81915000D01*
X72462106Y-95884990D02*
X71755000Y-95884990D01*
X379095000Y-81280000D02*
X378460000Y-81915000D01*
X276986000Y-81915000D02*
X275716000Y-83185000D01*
X353695000Y-54610000D02*
X352425000Y-53340000D01*
X377224850Y-54610000D02*
X353695000Y-54610000D01*
X383540000Y-55880000D02*
X378494850Y-55880000D01*
X352425000Y-53340000D02*
X350520000Y-53340000D01*
X378494850Y-55880000D02*
X377224850Y-54610000D01*
D21*
X274320000Y-66040000D02*
X275920300Y-66040000D01*
X299720000Y-68580000D02*
X278460300Y-68580000D01*
X278460300Y-68580000D02*
X275920300Y-66040000D01*
X353140000Y-45720000D02*
X351539600Y-44119600D01*
X351539600Y-44119600D02*
X329340400Y-44119600D01*
X329340400Y-44119600D02*
X327740000Y-45720000D01*
X126920000Y-40640000D02*
X128565200Y-38994800D01*
X128565200Y-38994800D02*
X160834800Y-38994800D01*
X160834800Y-38994800D02*
X162480000Y-40640000D01*
X84077100Y-17780000D02*
X55960000Y-17780000D01*
X55960000Y-17780000D02*
X53420000Y-20320000D01*
X86360000Y-17780000D02*
X84077100Y-17780000D01*
X129540000Y-55880000D02*
X131140300Y-55880000D01*
X131140300Y-55880000D02*
X136220300Y-60960000D01*
X136220300Y-60960000D02*
X155879700Y-60960000D01*
X123520300Y-10160000D02*
X127939700Y-5740600D01*
X127939700Y-5740600D02*
X127939700Y-5080000D01*
X226060000Y-45720000D02*
X224458400Y-44118400D01*
X224458400Y-44118400D02*
X202341600Y-44118400D01*
X202341600Y-44118400D02*
X200740000Y-45720000D01*
X129540000Y-5080000D02*
X131140300Y-5080000D01*
X157480000Y-10160000D02*
X136220300Y-10160000D01*
X136220300Y-10160000D02*
X131140300Y-5080000D01*
X121920000Y-10160000D02*
X123520300Y-10160000D01*
X129540000Y-5080000D02*
X127939700Y-5080000D01*
X157480000Y-60960000D02*
X155879700Y-60960000D01*
D22*
X236220000Y-104775000D02*
X236220000Y-99465000D01*
X236220000Y-99465000D02*
X235815000Y-99060000D01*
X235815000Y-99060000D02*
X233680000Y-99060000D01*
X46355000Y-104775000D02*
X46355000Y-84145000D01*
X46355000Y-84145000D02*
X46030000Y-83820000D01*
X201930000Y-104775000D02*
X201930000Y-100330000D01*
X201930000Y-100330000D02*
X203200000Y-99060000D01*
D21*
X253445000Y-43815000D02*
X251540000Y-45720000D01*
X276940000Y-45720000D02*
X275035000Y-43815000D01*
X275035000Y-43815000D02*
X253445000Y-43815000D01*
X162560000Y-55880000D02*
X157480000Y-60960000D01*
X165100000Y-55880000D02*
X162560000Y-55880000D01*
X303953700Y-44106300D02*
X302340000Y-45720000D01*
X327740000Y-45720000D02*
X326126300Y-44106300D01*
X326126300Y-44106300D02*
X303953700Y-44106300D01*
X248920000Y-68580000D02*
X247595400Y-68580000D01*
X247595400Y-68580000D02*
X246670200Y-67654800D01*
X246670200Y-63209800D02*
X248920000Y-60960000D01*
X246670200Y-67654800D02*
X246670200Y-63209800D01*
X225134800Y-67654800D02*
X223520000Y-66040000D01*
X246670200Y-67654800D02*
X225134800Y-67654800D01*
D22*
X391795000Y-104775000D02*
X391795000Y-99465000D01*
X393470000Y-97790000D02*
X393470028Y-97790000D01*
X391795000Y-99465000D02*
X393470000Y-97790000D01*
D21*
X254000000Y-68580000D02*
X250051370Y-68580000D01*
X255905000Y-70485000D02*
X254000000Y-68580000D01*
X274320000Y-66040000D02*
X269875000Y-70485000D01*
X250051370Y-68580000D02*
X248920000Y-68580000D01*
X269875000Y-70485000D02*
X255905000Y-70485000D01*
X124460000Y-60960000D02*
X129540000Y-55880000D01*
X121920000Y-60960000D02*
X124460000Y-60960000D01*
X326720300Y-66040000D02*
X325120000Y-66040000D01*
X348270200Y-67654800D02*
X328335100Y-67654800D01*
X328335100Y-67654800D02*
X326720300Y-66040000D01*
X350520000Y-68580000D02*
X349195400Y-68580000D01*
X349195400Y-68580000D02*
X348270200Y-67654800D01*
X348270200Y-63209800D02*
X350520000Y-60960000D01*
X348270200Y-67654800D02*
X348270200Y-63209800D01*
X88980000Y10795000D02*
X88980000Y10160000D01*
X82550000Y9525000D02*
X83820000Y10795000D01*
X83820000Y10795000D02*
X88980000Y10795000D01*
X84077100Y-17780000D02*
X82550000Y-16252900D01*
X82550000Y-16252900D02*
X82550000Y9525000D01*
X259121200Y17780000D02*
X259160000Y17780000D01*
X308690000Y20320000D02*
X309960000Y19050000D01*
X259160000Y17780000D02*
X261700000Y20320000D01*
X261700000Y20320000D02*
X308690000Y20320000D01*
X214630000Y20320000D02*
X217170000Y17780000D01*
X217170000Y17780000D02*
X259160000Y17780000D01*
X208360000Y17780000D02*
X210900000Y20320000D01*
X210900000Y20320000D02*
X214630000Y20320000D01*
X48260000Y-38100000D02*
X50800000Y-40640000D01*
X48260000Y-21590000D02*
X48260000Y-38100000D01*
X53420000Y-20320000D02*
X49530000Y-20320000D01*
X49530000Y-20320000D02*
X48260000Y-21590000D01*
X389055000Y9975000D02*
X394785000Y9975000D01*
X394785000Y9975000D02*
X394970000Y10160000D01*
D23*
X239395000Y-100105600D02*
X239395000Y-99060000D01*
X239395000Y-104775000D02*
X239395000Y-100105600D01*
D21*
X55345500Y-55456700D02*
X55345500Y-76404200D01*
X55345500Y-76404200D02*
X49530000Y-82219700D01*
X198120000Y12700000D02*
X213360000Y12700000D01*
X121920000Y-40640000D02*
X93980000Y-40640000D01*
X49530000Y-83820000D02*
X49530000Y-82219700D01*
X307340000Y-50800000D02*
X307340000Y-49199700D01*
X62230000Y-25400000D02*
X78740000Y-25400000D01*
X78740000Y-25400000D02*
X93980000Y-40640000D01*
D23*
X49530000Y-83820000D02*
X49530000Y-104775000D01*
D21*
X58420000Y-25400000D02*
X58420000Y-20320000D01*
X350520000Y12700000D02*
X365760000Y12700000D01*
D23*
X388620000Y-104775000D02*
X388620000Y-96520000D01*
X198755000Y-99060000D02*
X198755000Y-104775000D01*
D21*
X383540000Y-48260000D02*
X383540000Y-45720000D01*
X358140000Y-45720000D02*
X358140000Y-48260000D01*
X358140000Y-48260000D02*
X383540000Y-48260000D01*
X332740000Y-48260000D02*
X332740000Y-45720000D01*
X332740000Y-48260000D02*
X332740000Y-50800000D01*
X307340000Y-48094850D02*
X307340000Y-49199700D01*
X307340000Y-48260000D02*
X332740000Y-48260000D01*
X307340000Y-49199700D02*
X307340000Y-48260000D01*
X307340000Y-48094850D02*
X307340000Y-45720000D01*
X213360000Y17780000D02*
X213360000Y16143500D01*
X213360000Y12700000D02*
X213360000Y16143500D01*
X262523500Y16143500D02*
X264160000Y17780000D01*
X213360000Y16143500D02*
X262523500Y16143500D01*
X231140000Y-50800000D02*
X231140000Y-48260000D01*
X231060000Y-45720000D02*
X231140000Y-45800000D01*
X231140000Y-45800000D02*
X231140000Y-48260000D01*
X256540000Y-50800000D02*
X256540000Y-48260000D01*
X256540000Y-48260000D02*
X256540000Y-45720000D01*
X231140000Y-48260000D02*
X256540000Y-48260000D01*
X279400000Y-50800000D02*
X281940000Y-50800000D01*
X256540000Y-48260000D02*
X276860000Y-48260000D01*
X276860000Y-48260000D02*
X279400000Y-50800000D01*
X229539700Y-50800000D02*
X231140000Y-50800000D01*
X226999700Y-48260000D02*
X229539700Y-50800000D01*
X205740000Y-50800000D02*
X205740000Y-48260000D01*
X205740000Y-48260000D02*
X226999700Y-48260000D01*
X205740000Y-48260000D02*
X205740000Y-45720000D01*
X197023800Y-48260000D02*
X205740000Y-48260000D01*
X191004100Y-42240300D02*
X197023800Y-48260000D01*
X157480000Y-40640000D02*
X159080300Y-42240300D01*
X159080300Y-42240300D02*
X191004100Y-42240300D01*
X123520400Y-42240400D02*
X121920000Y-40640000D01*
X157480000Y-40640000D02*
X155879600Y-42240400D01*
X155879600Y-42240400D02*
X123520400Y-42240400D01*
X199254999Y-98560001D02*
X198755000Y-99060000D01*
X200316100Y-97498900D02*
X199254999Y-98560001D01*
X239395000Y-99060000D02*
X237833900Y-97498900D01*
X237833900Y-97498900D02*
X200316100Y-97498900D01*
X358140000Y-48260000D02*
X358140000Y-50800000D01*
X358140000Y-48260000D02*
X332740000Y-48260000D01*
X383540000Y-48260000D02*
X383540000Y-50800000D01*
X159385000Y12700000D02*
X198120000Y12700000D01*
X157480000Y10795000D02*
X159385000Y12700000D01*
X157480000Y10795000D02*
X154305000Y13970000D01*
X125095000Y13970000D02*
X121920000Y10795000D01*
X154305000Y13970000D02*
X125095000Y13970000D01*
X121920000Y10795000D02*
X93980000Y10795000D01*
X313055000Y17145000D02*
X314960000Y19050000D01*
X264160000Y17780000D02*
X264795000Y17145000D01*
X264795000Y17145000D02*
X313055000Y17145000D01*
X299861001Y-45720000D02*
X302235851Y-48094850D01*
X302235851Y-48094850D02*
X307340000Y-48094850D01*
X281940000Y-45720000D02*
X299861001Y-45720000D01*
D20*
X322580000Y-66040000D02*
X325120000Y-63500000D01*
X307340000Y-66040000D02*
X322580000Y-66040000D01*
X308910075Y-58420000D02*
X307340000Y-58420000D01*
X310182975Y-57147100D02*
X308910075Y-58420000D01*
X330272600Y-57147100D02*
X310182975Y-57147100D01*
X332740000Y-55880000D02*
X331539700Y-55880000D01*
X331539700Y-55880000D02*
X330272600Y-57147100D01*
X81280000Y-104775000D02*
X81280000Y-100565000D01*
X92310000Y-89535000D02*
X294567900Y-89535000D01*
X294567900Y-89535000D02*
X295275006Y-89535000D01*
X81280000Y-100565000D02*
X92310000Y-89535000D01*
X78105000Y-104775000D02*
X78105000Y-101917500D01*
X78105000Y-101917500D02*
X91757500Y-88265000D01*
X91757500Y-88265000D02*
X293932894Y-88265000D01*
X293932894Y-88265000D02*
X294640000Y-88265000D01*
X347345000Y-57150000D02*
X331790900Y-57150000D01*
X350520000Y-58420000D02*
X348615000Y-58420000D01*
X330520900Y-58420000D02*
X325120000Y-58420000D01*
X331790900Y-57150000D02*
X330520900Y-58420000D01*
X348615000Y-58420000D02*
X347345000Y-57150000D01*
X331539700Y-60960000D02*
X332740000Y-60960000D01*
X330269700Y-62230000D02*
X331539700Y-60960000D01*
X310515000Y-62230000D02*
X330269700Y-62230000D01*
X307340000Y-60960000D02*
X309245000Y-60960000D01*
X309245000Y-60960000D02*
X310515000Y-62230000D01*
X375920000Y-104775000D02*
X375920000Y-99966008D01*
X375920000Y-99966008D02*
X375519499Y-99565507D01*
X375519499Y-99565507D02*
X375019500Y-99065508D01*
X327660000Y-54679700D02*
X326320300Y-53340000D01*
X347414700Y-54679700D02*
X327660000Y-54679700D01*
X350520000Y-55880000D02*
X348615000Y-55880000D01*
X326320300Y-53340000D02*
X325120000Y-53340000D01*
X348615000Y-55880000D02*
X347414700Y-54679700D01*
X334645000Y-64135000D02*
X332740000Y-66040000D01*
X305435000Y-61595000D02*
X305435000Y-60325000D01*
X307340000Y-63500000D02*
X305435000Y-61595000D01*
X334645000Y-60325000D02*
X334645000Y-64135000D01*
X305435000Y-60325000D02*
X306070000Y-59690000D01*
X306070000Y-59690000D02*
X334010000Y-59690000D01*
X334010000Y-59690000D02*
X334645000Y-60325000D01*
X74930000Y-104775000D02*
X74930000Y-101917500D01*
X74930000Y-101917500D02*
X82867500Y-93980000D01*
X82867500Y-93980000D02*
X84455000Y-93980000D01*
X84455000Y-93980000D02*
X91440000Y-86995000D01*
X293297884Y-86995000D02*
X294004990Y-86995000D01*
X91440000Y-86995000D02*
X293297884Y-86995000D01*
X199390000Y-78105000D02*
X201930000Y-80645000D01*
X201930000Y-80645000D02*
X253394436Y-80645000D01*
X86995000Y-78105000D02*
X199390000Y-78105000D01*
X74928596Y-92073596D02*
X74928596Y-90171404D01*
X74928596Y-90171404D02*
X86995000Y-78105000D01*
X299720000Y-58420000D02*
X298519700Y-58420000D01*
X298519700Y-58420000D02*
X290899700Y-66040000D01*
X290899700Y-66040000D02*
X281940000Y-66040000D01*
X275590000Y-54610000D02*
X274320000Y-53340000D01*
X285399900Y-54610000D02*
X275590000Y-54610000D01*
X299720000Y-50800000D02*
X289209900Y-50800000D01*
X289209900Y-50800000D02*
X285399900Y-54610000D01*
X353377500Y-85725000D02*
X283210000Y-85725000D01*
X369570000Y-104775000D02*
X369570000Y-101917500D01*
X369570000Y-101917500D02*
X353377500Y-85725000D01*
X277996800Y-71716500D02*
X363816502Y-71716500D01*
X276754000Y-70473700D02*
X277996800Y-71716500D01*
X372245001Y-80144999D02*
X372745000Y-80644998D01*
X363816502Y-71716500D02*
X372245001Y-80144999D01*
X257740300Y-66040000D02*
X261550300Y-62230000D01*
X261550300Y-62230000D02*
X279469700Y-62230000D01*
X279469700Y-62230000D02*
X280739700Y-60960000D01*
X281940000Y-60960000D02*
X280739700Y-60960000D01*
X256540000Y-66040000D02*
X257740300Y-66040000D01*
X299720000Y-53340000D02*
X298519700Y-53340000D01*
X298519700Y-53340000D02*
X294779300Y-57080400D01*
X294779300Y-57080400D02*
X281581900Y-57080400D01*
X281581900Y-57080400D02*
X280242300Y-58420000D01*
X280242300Y-58420000D02*
X274320000Y-58420000D01*
X92710000Y-90805000D02*
X262817894Y-90805000D01*
X87630000Y-95885000D02*
X92710000Y-90805000D01*
X262817894Y-90805000D02*
X263525000Y-90805000D01*
X78103596Y-88900000D02*
X87628596Y-79375000D01*
X201295000Y-81915000D02*
X265430000Y-81915000D01*
X198755000Y-79375000D02*
X201295000Y-81915000D01*
X87628596Y-79375000D02*
X198755000Y-79375000D01*
X280739700Y-55880000D02*
X279469700Y-57150000D01*
X279469700Y-57150000D02*
X264090300Y-57150000D01*
X264090300Y-57150000D02*
X257740300Y-63500000D01*
X281940000Y-55880000D02*
X280739700Y-55880000D01*
X256540000Y-63500000D02*
X257740300Y-63500000D01*
X299720000Y-55880000D02*
X298519700Y-55880000D01*
X298519700Y-55880000D02*
X292239300Y-62160400D01*
X292239300Y-62160400D02*
X281061600Y-62160400D01*
X281061600Y-62160400D02*
X279722000Y-63500000D01*
X279722000Y-63500000D02*
X274320000Y-63500000D01*
X280670000Y-99060000D02*
X276225000Y-94615000D01*
X87630000Y-100565000D02*
X87630000Y-104775000D01*
X87630000Y-97790000D02*
X87630000Y-100565000D01*
X113731800Y-92231100D02*
X93188900Y-92231100D01*
X93188900Y-92231100D02*
X87630000Y-97790000D01*
X226660150Y-54610000D02*
X225390150Y-53340000D01*
X225390150Y-53340000D02*
X223520000Y-53340000D01*
X249364800Y-54610000D02*
X226660150Y-54610000D01*
X255339700Y-60584900D02*
X249364800Y-54610000D01*
X256540000Y-60960000D02*
X255339700Y-60960000D01*
X255339700Y-60960000D02*
X255339700Y-60584900D01*
X238197102Y-95884998D02*
X237489996Y-95884998D01*
X261619990Y-95884998D02*
X238197102Y-95884998D01*
X264795000Y-99060008D02*
X261619990Y-95884998D01*
X257068925Y-73660000D02*
X304727894Y-73660000D01*
X304727894Y-73660000D02*
X305435000Y-73660000D01*
X221615000Y-57785000D02*
X221615000Y-67400350D01*
X253893925Y-70485000D02*
X257068925Y-73660000D01*
X223520000Y-55880000D02*
X221615000Y-57785000D01*
X224699650Y-70485000D02*
X253893925Y-70485000D01*
X221615000Y-67400350D02*
X224699650Y-70485000D01*
X243874850Y-60960000D02*
X231140000Y-60960000D01*
X248920000Y-55880000D02*
X248920000Y-55914850D01*
X248920000Y-55914850D02*
X243874850Y-60960000D01*
X247314482Y-52000400D02*
X246607376Y-52000400D01*
X250120400Y-52000400D02*
X247314482Y-52000400D01*
X256540000Y-58420000D02*
X250120400Y-52000400D01*
X197620001Y-83955001D02*
X198120000Y-84455000D01*
X196850000Y-83185000D02*
X197620001Y-83955001D01*
X81280000Y-91440000D02*
X89535000Y-83185000D01*
X89535000Y-83185000D02*
X196850000Y-83185000D01*
X149787894Y-85725000D02*
X150495000Y-85725000D01*
X84455000Y-92075000D02*
X90805000Y-85725000D01*
X90805000Y-85725000D02*
X149787894Y-85725000D01*
X248920000Y-58420000D02*
X245110000Y-62230000D01*
X245110000Y-62230000D02*
X233752106Y-62230000D01*
X233752106Y-62230000D02*
X233045000Y-62230000D01*
X241862908Y-59690000D02*
X242570014Y-59690000D01*
X223520000Y-63500000D02*
X227330000Y-59690000D01*
X227330000Y-59690000D02*
X241862908Y-59690000D01*
X267970000Y-99060000D02*
X262890000Y-93980000D01*
X262890000Y-93980000D02*
X238197106Y-93980000D01*
X238197106Y-93980000D02*
X237490000Y-93980000D01*
X130740300Y-45720000D02*
X129540000Y-45720000D01*
X131589200Y-45720000D02*
X130740300Y-45720000D01*
X132789600Y-46920400D02*
X131589200Y-45720000D01*
X159454600Y-46920400D02*
X132789600Y-46920400D01*
X165100000Y-45720000D02*
X160655000Y-45720000D01*
X160655000Y-45720000D02*
X159454600Y-46920400D01*
X195507908Y-59690014D02*
X196215014Y-59690014D01*
X179070014Y-59690014D02*
X195507908Y-59690014D01*
X165100000Y-45720000D02*
X179070014Y-59690014D01*
X163899700Y5080000D02*
X165100000Y5080000D01*
X162629700Y6350000D02*
X163899700Y5080000D01*
X132010300Y6350000D02*
X162629700Y6350000D01*
X129540000Y5080000D02*
X130740300Y5080000D01*
X130740300Y5080000D02*
X132010300Y6350000D01*
X93980000Y-48260000D02*
X95180300Y-48260000D01*
X95180300Y-48260000D02*
X99881400Y-43558900D01*
X99881400Y-43558900D02*
X184474200Y-43558900D01*
X184474200Y-43558900D02*
X195525300Y-54610000D01*
X195525300Y-54610000D02*
X203269700Y-54610000D01*
X203269700Y-54610000D02*
X204539700Y-55880000D01*
X87560300Y-45720000D02*
X90100300Y-48260000D01*
X90100300Y-48260000D02*
X93980000Y-48260000D01*
X205740000Y-55880000D02*
X204539700Y-55880000D01*
X86360000Y-45720000D02*
X87560300Y-45720000D01*
X198120000Y-60960000D02*
X199334800Y-59745200D01*
X199334800Y-59745200D02*
X207065200Y-59745200D01*
X251387894Y-73660000D02*
X252095000Y-73660000D01*
X207065200Y-59745200D02*
X220980000Y-73660000D01*
X220980000Y-73660000D02*
X251387894Y-73660000D01*
X97155000Y-104775000D02*
X97155000Y-99060000D01*
X178270100Y-44478000D02*
X182977700Y-44478000D01*
X182977700Y-44478000D02*
X196919700Y-58420000D01*
X198120000Y-58420000D02*
X196919700Y-58420000D01*
X158722000Y-44478000D02*
X178270100Y-44478000D01*
X157480000Y-45720000D02*
X158722000Y-44478000D01*
X156279700Y-44519700D02*
X157480000Y-45720000D01*
X124320600Y-44519700D02*
X156279700Y-44519700D01*
X121920000Y-45720000D02*
X123120300Y-45720000D01*
X123120300Y-45720000D02*
X124320600Y-44519700D01*
X123190000Y3810000D02*
X121920000Y5080000D01*
X154305000Y3810000D02*
X123190000Y3810000D01*
X157480000Y5080000D02*
X155575000Y5080000D01*
X155575000Y5080000D02*
X154305000Y3810000D01*
X123790150Y-63500000D02*
X121920000Y-63500000D01*
X124991550Y-62298600D02*
X123790150Y-63500000D01*
X157480000Y-63500000D02*
X156278600Y-62298600D01*
X156278600Y-62298600D02*
X124991550Y-62298600D01*
X121920000Y-63500000D02*
X116840000Y-58420000D01*
X97227112Y-58420000D02*
X96520006Y-58420000D01*
X116840000Y-58420000D02*
X97227112Y-58420000D01*
X200985850Y-62256500D02*
X158723500Y-62256500D01*
X205740000Y-60960000D02*
X202282350Y-60960000D01*
X158723500Y-62256500D02*
X157480000Y-63500000D01*
X202282350Y-60960000D02*
X200985850Y-62256500D01*
X124742650Y-11430000D02*
X130810000Y-11430000D01*
X132080000Y-12700000D02*
X157480000Y-12700000D01*
X130810000Y-11430000D02*
X132080000Y-12700000D01*
X121920000Y-12700000D02*
X123472650Y-12700000D01*
X123472650Y-12700000D02*
X124742650Y-11430000D01*
X224249100Y-72390000D02*
X250117888Y-72390000D01*
X250117888Y-72390000D02*
X250824994Y-72390000D01*
X208939400Y-57080300D02*
X224249100Y-72390000D01*
X199320300Y-57080300D02*
X208939400Y-57080300D01*
X198120000Y-55880000D02*
X199320300Y-57080300D01*
X344805006Y-75565000D02*
X346845001Y-77604995D01*
X205740000Y-63500000D02*
X217805000Y-75565000D01*
X346845001Y-77604995D02*
X347345000Y-78104994D01*
X217805000Y-75565000D02*
X344805006Y-75565000D01*
X311845600Y8950600D02*
X313055000Y10160000D01*
X313055000Y10160000D02*
X314960000Y10160000D01*
X264160000Y10160000D02*
X266209200Y10160000D01*
X267418600Y8950600D02*
X311845600Y8950600D01*
X266209200Y10160000D02*
X267418600Y8950600D01*
X340994992Y-78105000D02*
X340995000Y-78105008D01*
X256540000Y-78105000D02*
X340994992Y-78105000D01*
X201295000Y-64770000D02*
X213360000Y-76835000D01*
X255270000Y-76835000D02*
X256540000Y-78105000D01*
X213360000Y-76835000D02*
X255270000Y-76835000D01*
X248920000Y-7620000D02*
X260985004Y-7620000D01*
X346074988Y-36830000D02*
X345367882Y-36830000D01*
X345367882Y-36830000D02*
X294004996Y-36830000D01*
X294004996Y-36830000D02*
X293297890Y-36830000D01*
X293297890Y-36830000D02*
X260985000Y-36830000D01*
X299720000Y-5080000D02*
X300920300Y-5080000D01*
X248319900Y-5080000D02*
X248920000Y-5080000D01*
X248319900Y-5080000D02*
X247719700Y-5080000D01*
X199320300Y-5080000D02*
X200529400Y-3870900D01*
X200529400Y-3870900D02*
X246510600Y-3870900D01*
X246510600Y-3870900D02*
X247719700Y-5080000D01*
X198120000Y-5080000D02*
X199320300Y-5080000D01*
X249719999Y-4280001D02*
X248920000Y-5080000D01*
X250190000Y-3810000D02*
X249719999Y-4280001D01*
X266065000Y-3810000D02*
X250190000Y-3810000D01*
X300920300Y-5080000D02*
X267335000Y-5080000D01*
X267335000Y-5080000D02*
X266065000Y-3810000D01*
X301590150Y-5080000D02*
X300920300Y-5080000D01*
X302860150Y-3810000D02*
X301590150Y-5080000D01*
X348049700Y-3810000D02*
X302860150Y-3810000D01*
X350520000Y-5080000D02*
X349319700Y-5080000D01*
X349319700Y-5080000D02*
X348049700Y-3810000D01*
X248920000Y-10160000D02*
X247719700Y-10160000D01*
X262185001Y-11360001D02*
X260985000Y-10160000D01*
X265499999Y-11360001D02*
X262185001Y-11360001D01*
X260985000Y-10160000D02*
X247719700Y-10160000D01*
X299720000Y-10160000D02*
X266700000Y-10160000D01*
X266700000Y-10160000D02*
X265499999Y-11360001D01*
X295982106Y-34925000D02*
X348615000Y-34925000D01*
X295275000Y-34925000D02*
X295982106Y-34925000D01*
X355600000Y-41910000D02*
X355600000Y-46100394D01*
X355600000Y-46100394D02*
X355600000Y-46807500D01*
X348615000Y-34925000D02*
X355600000Y-41910000D01*
X246514700Y-11365000D02*
X247719700Y-10160000D01*
X198120000Y-10160000D02*
X199320300Y-10160000D01*
X200525300Y-11365000D02*
X246514700Y-11365000D01*
X199320300Y-10160000D02*
X200525300Y-11365000D01*
X199320300Y-2540000D02*
X198120000Y-2540000D01*
X200529400Y-1330900D02*
X199320300Y-2540000D01*
X248920000Y-2540000D02*
X247015000Y-2540000D01*
X245805900Y-1330900D02*
X200529400Y-1330900D01*
X247015000Y-2540000D02*
X245805900Y-1330900D01*
X295910000Y6350000D02*
X252730000Y6350000D01*
X293442116Y-52070000D02*
X292735010Y-52070000D01*
X300990000Y-52070000D02*
X293442116Y-52070000D01*
X307340000Y-68580000D02*
X306208630Y-68580000D01*
X301625000Y-52705000D02*
X300990000Y-52070000D01*
X301625000Y-63996370D02*
X301625000Y-52705000D01*
X306208630Y-68580000D02*
X301625000Y-63996370D01*
X199320300Y2540000D02*
X198120000Y2540000D01*
X200567500Y1292800D02*
X199320300Y2540000D01*
X245767800Y1292800D02*
X200567500Y1292800D01*
X248920000Y2540000D02*
X247015000Y2540000D01*
X247015000Y2540000D02*
X245767800Y1292800D01*
X250825000Y2540000D02*
X248920000Y2540000D01*
X296545000Y1331600D02*
X252033400Y1331600D01*
X299720000Y2540000D02*
X297753400Y2540000D01*
X252033400Y1331600D02*
X250825000Y2540000D01*
X297753400Y2540000D02*
X296545000Y1331600D01*
X302825001Y1339999D02*
X301625000Y2540000D01*
X350520000Y2540000D02*
X318135000Y2540000D01*
X301625000Y2540000D02*
X299720000Y2540000D01*
X316934999Y1339999D02*
X302825001Y1339999D01*
X318135000Y2540000D02*
X316934999Y1339999D01*
X298450000Y-1270000D02*
X299720000Y0D01*
X252060150Y-1270000D02*
X298450000Y-1270000D01*
X248920000Y0D02*
X250790150Y0D01*
X250790150Y0D02*
X252060150Y-1270000D01*
X198120000Y0D02*
X210185000Y0D01*
X349319700Y0D02*
X350520000Y0D01*
X348049700Y-1270000D02*
X349319700Y0D01*
X299720000Y0D02*
X300990000Y-1270000D01*
X300990000Y-1270000D02*
X348049700Y-1270000D01*
X312420000Y5080000D02*
X299720000Y5080000D01*
X313690000Y3810000D02*
X312420000Y5080000D01*
X316532000Y3810000D02*
X313690000Y3810000D01*
X350520000Y5080000D02*
X317802000Y5080000D01*
X317802000Y5080000D02*
X316532000Y3810000D01*
X200576200Y3824100D02*
X199320300Y5080000D01*
X245745000Y3824100D02*
X200576200Y3824100D01*
X248920000Y5080000D02*
X247000900Y5080000D01*
X199320300Y5080000D02*
X198120000Y5080000D01*
X247000900Y5080000D02*
X245745000Y3824100D01*
X248920000Y5080000D02*
X250825000Y5080000D01*
X269312102Y3810000D02*
X268604996Y3810000D01*
X250825000Y5080000D02*
X252095000Y3810000D01*
X297815000Y5080000D02*
X296545000Y3810000D01*
X296545000Y3810000D02*
X269312102Y3810000D01*
X267897890Y3810000D02*
X268604996Y3810000D01*
X252095000Y3810000D02*
X267897890Y3810000D01*
X299720000Y5080000D02*
X297815000Y5080000D01*
X313707300Y6332700D02*
X314960000Y5080000D01*
X297797700Y6332700D02*
X313707300Y6332700D01*
X264160000Y5080000D02*
X296545000Y5080000D01*
X296545000Y5080000D02*
X297797700Y6332700D01*
X252030800Y5080000D02*
X263559900Y5080000D01*
X250825000Y6285800D02*
X252030800Y5080000D01*
X263559900Y5080000D02*
X264160000Y5080000D01*
X246950800Y6285800D02*
X250825000Y6285800D01*
X213360000Y5080000D02*
X245745000Y5080000D01*
X245745000Y5080000D02*
X246950800Y6285800D01*
X320815200Y8890000D02*
X320745600Y8820400D01*
X367665000Y8378950D02*
X367153950Y8890000D01*
X365760000Y5080000D02*
X367665000Y6985000D01*
X367153950Y8890000D02*
X320815200Y8890000D01*
X367665000Y6985000D02*
X367665000Y8378950D01*
X312420000Y7620000D02*
X299720000Y7620000D01*
X313683400Y8883400D02*
X312420000Y7620000D01*
X316870400Y8883400D02*
X313683400Y8883400D01*
X350520000Y7620000D02*
X318133800Y7620000D01*
X318133800Y7620000D02*
X316870400Y8883400D01*
X199320300Y7620000D02*
X198120000Y7620000D01*
X200576200Y6364100D02*
X199320300Y7620000D01*
X245759100Y6364100D02*
X200576200Y6364100D01*
X248920000Y7620000D02*
X247015000Y7620000D01*
X247015000Y7620000D02*
X245759100Y6364100D01*
X299720000Y7620000D02*
X267475900Y7620000D01*
X256540000Y7620000D02*
X256540002Y7620002D01*
X257040001Y8120001D02*
X256540002Y7620002D01*
X248920000Y7620000D02*
X256540000Y7620000D01*
X257745600Y8825600D02*
X257040001Y8120001D01*
X266270300Y8825600D02*
X257745600Y8825600D01*
X267475900Y7620000D02*
X266270300Y8825600D01*
X248920000Y12700000D02*
X249120000Y12700000D01*
X299720000Y12700000D02*
X268605000Y12700000D01*
X266161511Y15143489D02*
X251563489Y15143489D01*
X251563489Y15143489D02*
X249120000Y12700000D01*
X268605000Y12700000D02*
X266161511Y15143489D01*
X244475000Y10160000D02*
X213360000Y10160000D01*
X249120000Y12700000D02*
X247015000Y12700000D01*
X247015000Y12700000D02*
X244475000Y10160000D01*
X301590150Y12700000D02*
X299720000Y12700000D01*
X367665000Y10795000D02*
X367665000Y13970000D01*
X367665000Y13970000D02*
X365760000Y15875000D01*
X367030000Y10160000D02*
X367665000Y10795000D01*
X365760000Y10160000D02*
X367030000Y10160000D01*
X365760000Y15875000D02*
X304765150Y15875000D01*
X304765150Y15875000D02*
X301590150Y12700000D01*
X199320300Y-17780000D02*
X200528200Y-16572100D01*
X200528200Y-16572100D02*
X244491600Y-16572100D01*
X244491600Y-16572100D02*
X245699500Y-17780000D01*
X245699500Y-17780000D02*
X248920000Y-17780000D01*
X198120000Y-17780000D02*
X199320300Y-17780000D01*
X196919700Y-17780000D02*
X198120000Y-17780000D01*
X188099699Y-8959999D02*
X196919700Y-17780000D01*
X157480000Y-2540000D02*
X163899999Y-8959999D01*
X163899999Y-8959999D02*
X188099699Y-8959999D01*
X145378950Y-14605000D02*
X145415006Y-14605000D01*
X93980000Y-10160000D02*
X100330000Y-16510000D01*
X143473950Y-16510000D02*
X145378950Y-14605000D01*
X100330000Y-16510000D02*
X143473950Y-16510000D01*
X318086050Y6364100D02*
X316830150Y7620000D01*
X316830150Y7620000D02*
X314960000Y7620000D01*
X362633950Y6364100D02*
X318086050Y6364100D01*
X365760000Y7620000D02*
X363889850Y7620000D01*
X363889850Y7620000D02*
X362633950Y6364100D01*
X198120000Y-15240000D02*
X196919700Y-15240000D01*
X158680300Y0D02*
X159898100Y1217800D01*
X159898100Y1217800D02*
X180461900Y1217800D01*
X180461900Y1217800D02*
X196919700Y-15240000D01*
X157480000Y0D02*
X158680300Y0D01*
X157480000Y0D02*
X135890000Y0D01*
X199390000Y-13970000D02*
X214557894Y-13970000D01*
X214557894Y-13970000D02*
X215265000Y-13970000D01*
X198120000Y-12700000D02*
X199390000Y-13970000D01*
X155665200Y2540000D02*
X157480000Y2540000D01*
X132080000Y2540000D02*
X155665200Y2540000D01*
X130740300Y1200300D02*
X132080000Y2540000D01*
X96380600Y1200300D02*
X130740300Y1200300D01*
X93980000Y0D02*
X95180300Y0D01*
X95180300Y0D02*
X96380600Y1200300D01*
X252095000Y2540000D02*
X264160000Y2540000D01*
X246946900Y3741900D02*
X250893100Y3741900D01*
X213360000Y2540000D02*
X245745000Y2540000D01*
X250893100Y3741900D02*
X252095000Y2540000D01*
X245745000Y2540000D02*
X246946900Y3741900D01*
X313055000Y2540000D02*
X314960000Y2540000D01*
X311785000Y3810000D02*
X313055000Y2540000D01*
X297815000Y3810000D02*
X311785000Y3810000D01*
X264160000Y2540000D02*
X296545000Y2540000D01*
X296545000Y2540000D02*
X297815000Y3810000D01*
X318074100Y3749100D02*
X362680750Y3749100D01*
X363889850Y2540000D02*
X365760000Y2540000D01*
X362680750Y3749100D02*
X363889850Y2540000D01*
X314960000Y2540000D02*
X316865000Y2540000D01*
X316865000Y2540000D02*
X318074100Y3749100D01*
X313828630Y0D02*
X314960000Y0D01*
X302260000Y0D02*
X313828630Y0D01*
X301059999Y1200001D02*
X302260000Y0D01*
X297745001Y1200001D02*
X301059999Y1200001D01*
X264160000Y0D02*
X296545000Y0D01*
X296545000Y0D02*
X297745001Y1200001D01*
X263559900Y0D02*
X264160000Y0D01*
X252095000Y0D02*
X263559900Y0D01*
X250889200Y1205800D02*
X252095000Y0D01*
X246950800Y1205800D02*
X250889200Y1205800D01*
X213360000Y0D02*
X245745000Y0D01*
X245745000Y0D02*
X246950800Y1205800D01*
X321875400Y1200400D02*
X321174999Y499999D01*
X321174999Y499999D02*
X320675000Y0D01*
X364559600Y1200400D02*
X321875400Y1200400D01*
X314960000Y0D02*
X320675000Y0D01*
X365760000Y0D02*
X364559600Y1200400D01*
X367665000Y760000D02*
X388240000Y21335000D01*
X388240000Y21335000D02*
X388240000Y24130000D01*
X365760000Y-2540000D02*
X367665000Y-635000D01*
X367665000Y-635000D02*
X367665000Y760000D01*
X312554900Y-6284800D02*
X267269800Y-6284800D01*
X267269800Y-6284800D02*
X266065000Y-5080000D01*
X314960000Y-5080000D02*
X313759700Y-5080000D01*
X266065000Y-5080000D02*
X264160000Y-5080000D01*
X313759700Y-5080000D02*
X312554900Y-6284800D01*
X214560300Y-5080000D02*
X213360000Y-5080000D01*
X215765100Y-6284800D02*
X214560300Y-5080000D01*
X261050200Y-6284800D02*
X215765100Y-6284800D01*
X264160000Y-5080000D02*
X262255000Y-5080000D01*
X262255000Y-5080000D02*
X261050200Y-6284800D01*
X316230000Y-5080000D02*
X314960000Y-5080000D01*
X362650250Y-6319600D02*
X317469600Y-6319600D01*
X317469600Y-6319600D02*
X316230000Y-5080000D01*
X365760000Y-5080000D02*
X363889850Y-5080000D01*
X363889850Y-5080000D02*
X362650250Y-6319600D01*
X214560300Y-10160000D02*
X213360000Y-10160000D01*
X261050200Y-8955200D02*
X215765100Y-8955200D01*
X264160000Y-10160000D02*
X262255000Y-10160000D01*
X215765100Y-8955200D02*
X214560300Y-10160000D01*
X262255000Y-10160000D02*
X261050200Y-8955200D01*
X119097250Y-6349900D02*
X120367350Y-7620000D01*
X85089900Y-6349900D02*
X119097250Y-6349900D01*
X84455000Y-5715000D02*
X85089900Y-6349900D01*
X86360000Y0D02*
X84455000Y-1905000D01*
X120367350Y-7620000D02*
X121920000Y-7620000D01*
X84455000Y-1905000D02*
X84455000Y-5715000D01*
X84455000Y1905000D02*
X86360000Y0D01*
X84455000Y3175000D02*
X84455000Y1905000D01*
X85090000Y3810000D02*
X84455000Y3175000D01*
X88265000Y3810000D02*
X85090000Y3810000D01*
X212159700Y-10160000D02*
X210889700Y-8890000D01*
X213360000Y-10160000D02*
X212159700Y-10160000D01*
X210889700Y-8890000D02*
X195342300Y-8890000D01*
X93345000Y8890000D02*
X88265000Y3810000D01*
X195342300Y-8890000D02*
X177562300Y8890000D01*
X177562300Y8890000D02*
X93345000Y8890000D01*
X120650000Y-2540000D02*
X121920000Y-2540000D01*
X119380000Y-3810000D02*
X120650000Y-2540000D01*
X88900000Y-3810000D02*
X119380000Y-3810000D01*
X86360000Y-5080000D02*
X87630000Y-5080000D01*
X87630000Y-5080000D02*
X88900000Y-3810000D01*
X214560300Y-12700000D02*
X213360000Y-12700000D01*
X215911200Y-12700000D02*
X214560300Y-12700000D01*
X217111500Y-13900300D02*
X215911200Y-12700000D01*
X261759400Y-13900300D02*
X217111500Y-13900300D01*
X264160000Y-12700000D02*
X262959700Y-12700000D01*
X262959700Y-12700000D02*
X261759400Y-13900300D01*
X116132888Y-8890000D02*
X116839994Y-8890000D01*
X87630000Y-8890000D02*
X116132888Y-8890000D01*
X86360000Y-10160000D02*
X87630000Y-8890000D01*
X124460052Y-15240000D02*
X122482888Y-15240000D01*
X127000052Y-12700000D02*
X124460052Y-15240000D01*
X116839994Y-9597106D02*
X116839994Y-8890000D01*
X122482888Y-15240000D02*
X116839994Y-9597106D01*
X246184150Y-16495900D02*
X261703800Y-16495900D01*
X262959700Y-15240000D02*
X264160000Y-15240000D01*
X213360000Y-15240000D02*
X244928250Y-15240000D01*
X261703800Y-16495900D02*
X262959700Y-15240000D01*
X244928250Y-15240000D02*
X246184150Y-16495900D01*
X215230150Y-17780000D02*
X213360000Y-17780000D01*
X219675150Y-22225000D02*
X215230150Y-17780000D01*
X264160000Y-17780000D02*
X262959700Y-17780000D01*
X258514700Y-22225000D02*
X219675150Y-22225000D01*
X262959700Y-17780000D02*
X258514700Y-22225000D01*
X183815100Y-21590000D02*
X187455100Y-17950000D01*
X93910300Y-21590000D02*
X183815100Y-21590000D01*
X86360000Y-15240000D02*
X87560300Y-15240000D01*
X87560300Y-15240000D02*
X93910300Y-21590000D01*
X199320300Y10160000D02*
X198120000Y10160000D01*
X200590300Y8890000D02*
X199320300Y10160000D01*
X245779850Y8890000D02*
X200590300Y8890000D01*
X248920000Y10160000D02*
X247049850Y10160000D01*
X247049850Y10160000D02*
X245779850Y8890000D01*
X248920000Y10160000D02*
X255270000Y10160000D01*
X255769999Y10659999D02*
X255270000Y10160000D01*
X259210001Y14100001D02*
X255769999Y10659999D01*
X265659250Y14100001D02*
X259210001Y14100001D01*
X299720000Y10160000D02*
X269599251Y10160000D01*
X269599251Y10160000D02*
X265659250Y14100001D01*
X301272650Y10160000D02*
X299720000Y10160000D01*
X305717650Y14605000D02*
X301272650Y10160000D01*
X344170000Y14605000D02*
X305717650Y14605000D01*
X350520000Y10160000D02*
X348615000Y10160000D01*
X348615000Y10160000D02*
X344170000Y14605000D01*
X215265000Y-20320000D02*
X213360000Y-20320000D01*
X218440000Y-23495000D02*
X215265000Y-20320000D01*
X259784700Y-23495000D02*
X218440000Y-23495000D01*
X264160000Y-20320000D02*
X262959700Y-20320000D01*
X262959700Y-20320000D02*
X259784700Y-23495000D01*
X159385000Y-9525000D02*
X157480000Y-7620000D01*
X159385000Y-13056400D02*
X159385000Y-9525000D01*
X212159700Y-20320000D02*
X213360000Y-20320000D01*
X210725800Y-21753900D02*
X212159700Y-20320000D01*
X194462500Y-21753900D02*
X210725800Y-21753900D01*
X189149300Y-16440700D02*
X194462500Y-21753900D01*
X159385000Y-13056400D02*
X162834000Y-13056400D01*
X166218300Y-16440700D02*
X189149300Y-16440700D01*
X162834000Y-13056400D02*
X166218300Y-16440700D01*
X99060000Y-17780000D02*
X154661400Y-17780000D01*
X93980000Y-15240000D02*
X96520000Y-15240000D01*
X154661400Y-17780000D02*
X159385000Y-13056400D01*
X96520000Y-15240000D02*
X99060000Y-17780000D01*
X313759700Y-2540000D02*
X314960000Y-2540000D01*
X301878001Y-2540000D02*
X313759700Y-2540000D01*
X300678000Y-3740001D02*
X301878001Y-2540000D01*
X267265001Y-3740001D02*
X300678000Y-3740001D01*
X264160000Y-2540000D02*
X266065000Y-2540000D01*
X266065000Y-2540000D02*
X267265001Y-3740001D01*
X157480000Y-53340000D02*
X156279700Y-53340000D01*
X135107100Y-56908300D02*
X152711400Y-56908300D01*
X152711400Y-56908300D02*
X156279700Y-53340000D01*
X199799206Y-31115000D02*
X199092100Y-31115000D01*
X286385000Y-31115000D02*
X199799206Y-31115000D01*
X299720000Y-17780000D02*
X286385000Y-31115000D01*
X121034600Y-65405000D02*
X125730000Y-65405000D01*
X127135001Y-63999999D02*
X127635000Y-63500000D01*
X125730000Y-65405000D02*
X127135001Y-63999999D01*
X93980000Y-60960000D02*
X116589600Y-60960000D01*
X116589600Y-60960000D02*
X121034600Y-65405000D01*
X347980000Y-17780000D02*
X349319700Y-17780000D01*
X349319700Y-17780000D02*
X350520000Y-17780000D01*
X313629400Y-16570600D02*
X346770600Y-16570600D01*
X346770600Y-16570600D02*
X347980000Y-17780000D01*
X299720000Y-17780000D02*
X312420000Y-17780000D01*
X312420000Y-17780000D02*
X313629400Y-16570600D01*
X156279700Y-50800000D02*
X157480000Y-50800000D01*
X154940100Y-52139600D02*
X156279700Y-50800000D01*
X119945400Y-52139600D02*
X154940100Y-52139600D01*
X93980000Y-55880000D02*
X116205000Y-55880000D01*
X116205000Y-55880000D02*
X119945400Y-52139600D01*
X348649850Y-15240000D02*
X350520000Y-15240000D01*
X313625800Y-14034200D02*
X347444050Y-14034200D01*
X347444050Y-14034200D02*
X348649850Y-15240000D01*
X299720000Y-15240000D02*
X312420000Y-15240000D01*
X312420000Y-15240000D02*
X313625800Y-14034200D01*
X177666403Y-30613597D02*
X177166404Y-31113596D01*
X179705000Y-28575000D02*
X177666403Y-30613597D01*
X299720000Y-15240000D02*
X290242900Y-15240000D01*
X290242900Y-15240000D02*
X276907900Y-28575000D01*
X276907900Y-28575000D02*
X179705000Y-28575000D01*
X93980000Y-50800000D02*
X95180300Y-50800000D01*
X95180300Y-50800000D02*
X98971900Y-47008400D01*
X98971900Y-47008400D02*
X131604300Y-47008400D01*
X131604300Y-47008400D02*
X132855900Y-48260000D01*
X132855900Y-48260000D02*
X157480000Y-48260000D01*
X349347250Y-11492400D02*
X350520000Y-12665150D01*
X302976700Y-11492400D02*
X349347250Y-11492400D01*
X350520000Y-12665150D02*
X350520000Y-12700000D01*
X299720000Y-12700000D02*
X301769100Y-12700000D01*
X301769100Y-12700000D02*
X302976700Y-11492400D01*
X299720000Y-12700000D02*
X277592100Y-12700000D01*
X277592100Y-12700000D02*
X264257100Y-26035000D01*
X176602106Y-26035000D02*
X175895000Y-26035000D01*
X264257100Y-26035000D02*
X176602106Y-26035000D01*
X347980000Y-10160000D02*
X315452100Y-10160000D01*
X349180001Y-8959999D02*
X347980000Y-10160000D01*
X351859999Y-8959999D02*
X349180001Y-8959999D01*
X315452100Y-10160000D02*
X314960000Y-10160000D01*
X365760000Y-10160000D02*
X353060000Y-10160000D01*
X353060000Y-10160000D02*
X351859999Y-8959999D01*
X86360000Y-50800000D02*
X92179800Y-50800000D01*
X111997205Y-53375605D02*
X112497204Y-53875604D01*
X110622000Y-52000400D02*
X111997205Y-53375605D01*
X93380200Y-52000400D02*
X110622000Y-52000400D01*
X92179800Y-50800000D02*
X93380200Y-52000400D01*
X264140100Y-24765000D02*
X88952406Y-24765000D01*
X88952406Y-24765000D02*
X88245300Y-24765000D01*
X314960000Y-10160000D02*
X302739200Y-10160000D01*
X302739200Y-10160000D02*
X301538800Y-11360400D01*
X277544700Y-11360400D02*
X264140100Y-24765000D01*
X301538800Y-11360400D02*
X277544700Y-11360400D01*
X120719700Y-53340000D02*
X121920000Y-53340000D01*
X116979200Y-57080500D02*
X120719700Y-53340000D01*
X86360000Y-55880000D02*
X87560300Y-55880000D01*
X88760800Y-57080500D02*
X116979200Y-57080500D01*
X87560300Y-55880000D02*
X88760800Y-57080500D01*
X154257291Y-29084509D02*
X153757292Y-29584508D01*
X313690000Y-12700000D02*
X312350400Y-14039600D01*
X312350400Y-14039600D02*
X289745500Y-14039600D01*
X289745500Y-14039600D02*
X276480100Y-27305000D01*
X276480100Y-27305000D02*
X156036800Y-27305000D01*
X314960000Y-12700000D02*
X313690000Y-12700000D01*
X156036800Y-27305000D02*
X154257291Y-29084509D01*
X347980000Y-12700000D02*
X315560200Y-12700000D01*
X349250000Y-13970000D02*
X347980000Y-12700000D01*
X362619850Y-13970000D02*
X349250000Y-13970000D01*
X365760000Y-12700000D02*
X363889850Y-12700000D01*
X315560200Y-12700000D02*
X314960000Y-12700000D01*
X363889850Y-12700000D02*
X362619850Y-13970000D01*
X121920000Y-50800000D02*
X123120300Y-50800000D01*
X123120300Y-50800000D02*
X123606600Y-51286300D01*
X123606600Y-51286300D02*
X127093500Y-51286300D01*
X127093500Y-51286300D02*
X128780200Y-49599600D01*
X128780200Y-49599600D02*
X160654000Y-49599600D01*
X160654000Y-49599600D02*
X162663400Y-47590200D01*
X198827102Y-29845000D02*
X198119996Y-29845000D01*
X284480000Y-29845000D02*
X198827102Y-29845000D01*
X297816600Y-16508400D02*
X284480000Y-29845000D01*
X312421600Y-16508400D02*
X297816600Y-16508400D01*
X314960000Y-15240000D02*
X313690000Y-15240000D01*
X313690000Y-15240000D02*
X312421600Y-16508400D01*
X363889850Y-15240000D02*
X365760000Y-15240000D01*
X362619850Y-16510000D02*
X363889850Y-15240000D01*
X348474100Y-16510000D02*
X362619850Y-16510000D01*
X314960000Y-15240000D02*
X347204100Y-15240000D01*
X347204100Y-15240000D02*
X348474100Y-16510000D01*
X319405000Y-22225000D02*
X314960000Y-17780000D01*
X359410000Y-22225000D02*
X319405000Y-22225000D01*
X365760000Y-17780000D02*
X363855000Y-17780000D01*
X363855000Y-17780000D02*
X359410000Y-22225000D01*
X134392306Y-30993000D02*
X133685200Y-30993000D01*
X171572000Y-30993000D02*
X134392306Y-30993000D01*
X172720000Y-29845000D02*
X171572000Y-30993000D01*
X173990000Y-29845000D02*
X172720000Y-29845000D01*
X314960000Y-17780000D02*
X313690000Y-19050000D01*
X292100000Y-33020000D02*
X177165000Y-33020000D01*
X313690000Y-19050000D02*
X306070000Y-19050000D01*
X306070000Y-19050000D02*
X292100000Y-33020000D01*
X177165000Y-33020000D02*
X173990000Y-29845000D01*
X93980000Y-66040000D02*
X95250000Y-67310000D01*
X128832894Y-67310000D02*
X129540000Y-67310000D01*
X95250000Y-67310000D02*
X128832894Y-67310000D01*
X318135000Y-23495000D02*
X314960000Y-20320000D01*
X361032350Y-23495000D02*
X318135000Y-23495000D01*
X365760000Y-20320000D02*
X364207350Y-20320000D01*
X364207350Y-20320000D02*
X361032350Y-23495000D01*
X292100000Y-34290000D02*
X200346400Y-34290000D01*
X306070000Y-20320000D02*
X292100000Y-34290000D01*
X200346400Y-34290000D02*
X199338900Y-35297500D01*
X314960000Y-20320000D02*
X306070000Y-20320000D01*
X173854999Y-31608599D02*
X173355000Y-31108600D01*
X321945000Y-64770000D02*
X306859500Y-64770000D01*
X280670000Y-47625000D02*
X280035000Y-46990000D01*
X304165000Y-62075500D02*
X304165000Y-51438227D01*
X306859500Y-64770000D02*
X304165000Y-62075500D01*
X300351773Y-47625000D02*
X280670000Y-47625000D01*
X279400000Y-41275000D02*
X196850000Y-41275000D01*
X304165000Y-51438227D02*
X300351773Y-47625000D01*
X280035000Y-46990000D02*
X280035000Y-41910000D01*
X196850000Y-41275000D02*
X190500000Y-34925000D01*
X280035000Y-41910000D02*
X279400000Y-41275000D01*
X190500000Y-34925000D02*
X177171400Y-34925000D01*
X177171400Y-34925000D02*
X173854999Y-31608599D01*
X95885000Y-16510000D02*
X98425000Y-19050000D01*
X161425001Y-15104999D02*
X161925000Y-14605000D01*
X87813100Y-12700000D02*
X91623100Y-16510000D01*
X86360000Y-12700000D02*
X87813100Y-12700000D01*
X91623100Y-16510000D02*
X95885000Y-16510000D01*
X98425000Y-19050000D02*
X157480000Y-19050000D01*
X157480000Y-19050000D02*
X161425001Y-15104999D01*
X162695001Y-16374999D02*
X163195000Y-15875000D01*
X158750000Y-20320000D02*
X162695001Y-16374999D01*
X85090000Y-13970000D02*
X87630000Y-13970000D01*
X86360000Y-7620000D02*
X84455000Y-9525000D01*
X84455000Y-9525000D02*
X84455000Y-13335000D01*
X84455000Y-13335000D02*
X85090000Y-13970000D01*
X93980000Y-20320000D02*
X158750000Y-20320000D01*
X87630000Y-13970000D02*
X93980000Y-20320000D01*
X87630000Y-2540000D02*
X86360000Y-2540000D01*
X88900000Y-1270000D02*
X87630000Y-2540000D01*
X162629700Y-1270000D02*
X88900000Y-1270000D01*
X165100000Y0D02*
X163899700Y0D01*
X163899700Y0D02*
X162629700Y-1270000D01*
X167005000Y4445000D02*
X165100000Y2540000D01*
X167005000Y6350000D02*
X167005000Y4445000D01*
X165735000Y7620000D02*
X167005000Y6350000D01*
X93945150Y7620000D02*
X165735000Y7620000D01*
X86360000Y2540000D02*
X88865150Y2540000D01*
X88865150Y2540000D02*
X93945150Y7620000D01*
X93980000Y-2540000D02*
X118745000Y-2540000D01*
X118745000Y-2540000D02*
X118745007Y-2540007D01*
X360045000Y-104775000D02*
X360045000Y-99060012D01*
X360045000Y-99060012D02*
X360044988Y-99060000D01*
X316138800Y-70485000D02*
X344732894Y-70485000D01*
X312958700Y-67304900D02*
X316138800Y-70485000D01*
X306871500Y-67304900D02*
X312958700Y-67304900D01*
X302895000Y-63328400D02*
X306871500Y-67304900D01*
X302895000Y-51227499D02*
X302895000Y-63328400D01*
X278765000Y-48260000D02*
X279400000Y-48895000D01*
X155575000Y-36195000D02*
X190405400Y-36195000D01*
X151765000Y-32385000D02*
X155575000Y-36195000D01*
X344732894Y-70485000D02*
X345440000Y-70485000D01*
X279400000Y-48895000D02*
X300562501Y-48895000D01*
X196755400Y-42545000D02*
X278130000Y-42545000D01*
X278130000Y-42545000D02*
X278765000Y-43180000D01*
X300562501Y-48895000D02*
X302895000Y-51227499D01*
X190405400Y-36195000D02*
X196755400Y-42545000D01*
X278765000Y-43180000D02*
X278765000Y-48260000D01*
X255905000Y-79375000D02*
X349885000Y-79375000D01*
X254635000Y-78105000D02*
X255905000Y-79375000D01*
X203200000Y-78105000D02*
X254635000Y-78105000D01*
X201295000Y-76200000D02*
X203200000Y-78105000D01*
X165100000Y-63500000D02*
X177800000Y-76200000D01*
X177800000Y-76200000D02*
X201295000Y-76200000D01*
X58420000Y-38100000D02*
X59620300Y-38100000D01*
X86360000Y-63500000D02*
X85020300Y-63500000D01*
X85020300Y-63500000D02*
X59620300Y-38100000D01*
X102797894Y-64769982D02*
X103505000Y-64769982D01*
X86360000Y-58420000D02*
X92709982Y-64769982D01*
X92709982Y-64769982D02*
X102797894Y-64769982D01*
X166370000Y-59690000D02*
X162632110Y-59690000D01*
X167005000Y-52705000D02*
X167005000Y-59055000D01*
X167005000Y-59055000D02*
X166370000Y-59690000D01*
X165100000Y-50800000D02*
X167005000Y-52705000D01*
X162632110Y-59690000D02*
X161925004Y-59690000D01*
X168275000Y-51435000D02*
X168275000Y-58982886D01*
X165100000Y-48260000D02*
X168275000Y-51435000D01*
X168275000Y-58982886D02*
X168275000Y-59689992D01*
X127854900Y-48260000D02*
X126229999Y-49884901D01*
X129540000Y-48260000D02*
X127854900Y-48260000D01*
X126229999Y-49884901D02*
X125730000Y-50384900D01*
X93980000Y-58420000D02*
X95250000Y-59690000D01*
X95250000Y-59690000D02*
X113520784Y-59690000D01*
X113520784Y-59690000D02*
X114227890Y-59690000D01*
X124324999Y-57920001D02*
X123825000Y-58420000D01*
X129540000Y-53340000D02*
X128905000Y-53340000D01*
X128905000Y-53340000D02*
X124324999Y-57920001D01*
X93379900Y-53340000D02*
X93980000Y-53340000D01*
X93379900Y-53340000D02*
X92779700Y-53340000D01*
X92779700Y-53340000D02*
X91579400Y-52139700D01*
X91579400Y-52139700D02*
X84638200Y-52139700D01*
X84638200Y-52139700D02*
X62978500Y-30480000D01*
X62978500Y-30480000D02*
X58420000Y-30480000D01*
X95415605Y-54775605D02*
X113928995Y-54775605D01*
X93980000Y-53340000D02*
X95415605Y-54775605D01*
X123735701Y-49029599D02*
X124235700Y-48529600D01*
X113928995Y-54775605D02*
X119105000Y-49599600D01*
X119105000Y-49599600D02*
X123165700Y-49599600D01*
X123165700Y-49599600D02*
X123735701Y-49029599D01*
X351082902Y-80645000D02*
X351790008Y-80645000D01*
X255270000Y-80645000D02*
X351082902Y-80645000D01*
X200290001Y-77100001D02*
X202565000Y-79375000D01*
X129540000Y-63500000D02*
X143140001Y-77100001D01*
X143140001Y-77100001D02*
X200290001Y-77100001D01*
X254000000Y-79375000D02*
X255270000Y-80645000D01*
X202565000Y-79375000D02*
X254000000Y-79375000D01*
X91961400Y-99613300D02*
X91010000Y-100564700D01*
X91010000Y-100564700D02*
X90805000Y-100564700D01*
X90805000Y-104775000D02*
X90805000Y-100564700D01*
X93980000Y-104775000D02*
X93980000Y-97791407D01*
X93980000Y-97791407D02*
X93978593Y-97790000D01*
X382270000Y-104775000D02*
X382270000Y-99059992D01*
X372745000Y-98725200D02*
X372745000Y-104775000D01*
X386715000Y-54610000D02*
X386715000Y-84755200D01*
X386715000Y-84755200D02*
X372745000Y-98725200D01*
X383540000Y-53340000D02*
X385445000Y-53340000D01*
X385445000Y-53340000D02*
X386715000Y-54610000D01*
X50800000Y-35560000D02*
X58420000Y-35560000D01*
X50800000Y-27940000D02*
X58420000Y-27940000D01*
X60325000Y-34925000D02*
X62230000Y-33020000D01*
X58420000Y-35560000D02*
X59690000Y-35560000D01*
X59690000Y-35560000D02*
X60325000Y-34925000D01*
X226695000Y-35560000D02*
X226559999Y-35695001D01*
X292414400Y-35560000D02*
X226695000Y-35560000D01*
X226559999Y-35695001D02*
X226060000Y-36195000D01*
X392240000Y24130000D02*
X369570000Y1460000D01*
X369570000Y-19280000D02*
X357480400Y-31369600D01*
X369570000Y1460000D02*
X369570000Y-19280000D01*
X296604800Y-31369600D02*
X292414400Y-35560000D01*
X357480400Y-31369600D02*
X296604800Y-31369600D01*
M02*
