M48
; DRILL file {KiCad 7.0.9} date Tue Feb 11 06:26:03 2025
; FORMAT={-:-/ absolute / inch / decimal}
; #@! TF.CreationDate,2025-02-11T06:26:03-06:00
; #@! TF.GenerationSoftware,Kicad,Pcbnew,7.0.9
; #@! TF.FileFunction,MixedPlating,1,4
FMAT,2
INCH
; #@! TA.AperFunction,Plated,PTH,ViaDrill
T1C0.0157
; #@! TA.AperFunction,Plated,PTH,ComponentDrill
T2C0.0315
; #@! TA.AperFunction,Plated,PTH,ComponentDrill
T3C0.0394
; #@! TA.AperFunction,Plated,PTH,ComponentDrill
T4C0.0433
%
G90
G05
T1
X3.085Y-3.32
X3.095Y-3.73
X3.105Y-3.155
X3.105Y-3.41
X3.135Y-3.285
X3.195Y-3.275
X3.28Y-2.585
X3.58Y-3.01
X3.59Y-3.45
X3.695Y-4.27
X3.975Y-4.125
X4.03Y-3.665
X4.045Y-4.225
X4.055Y-4.16
X4.095Y-3.635
X4.1Y-3.715
X4.16Y-3.73
X4.19Y-4.185
X4.96Y-3.7
X5.215Y-4.4
X5.36Y-3.645
T2
X2.97Y-3.975
X2.97Y-4.075
X2.975Y-2.82
X2.975Y-2.92
X2.975Y-3.02
X2.975Y-3.12
X2.975Y-3.22
X2.975Y-3.32
X2.975Y-3.42
X2.98Y-3.545
X3.08Y-3.545
X3.095Y-3.875
X3.095Y-4.175
X3.195Y-3.875
X3.195Y-4.175
X3.275Y-2.82
X3.275Y-2.92
X3.275Y-3.02
X3.275Y-3.12
X3.275Y-3.22
X3.275Y-3.32
X3.275Y-3.42
X3.295Y-3.875
X3.295Y-4.175
X3.395Y-3.875
X3.395Y-4.175
X3.4022Y-2.82
X3.4022Y-2.92
X3.4022Y-3.02
X3.4022Y-3.12
X3.4022Y-3.22
X3.4022Y-3.32
X3.4022Y-3.42
X3.495Y-3.875
X3.495Y-4.175
X3.59Y-3.545
X3.595Y-3.875
X3.595Y-4.175
X3.69Y-3.545
X3.695Y-3.875
X3.695Y-4.175
X3.7022Y-2.82
X3.7022Y-2.92
X3.7022Y-3.02
X3.7022Y-3.12
X3.7022Y-3.22
X3.7022Y-3.32
X3.7022Y-3.42
X3.795Y-3.875
X3.795Y-4.175
X3.805Y-2.82
X3.805Y-2.92
X3.805Y-3.02
X3.805Y-3.12
X3.805Y-3.22
X3.805Y-3.32
X3.805Y-3.42
X4.0Y-3.545
X4.1Y-3.545
X4.105Y-2.82
X4.105Y-2.92
X4.105Y-3.02
X4.105Y-3.12
X4.105Y-3.22
X4.105Y-3.32
X4.105Y-3.42
X4.2322Y-2.82
X4.2322Y-2.92
X4.2322Y-3.02
X4.2322Y-3.12
X4.2322Y-3.22
X4.2322Y-3.32
X4.2322Y-3.42
X4.24Y-3.545
X4.27Y-3.67
X4.27Y-3.77
X4.27Y-3.87
X4.27Y-3.97
X4.27Y-4.07
X4.27Y-4.17
X4.27Y-4.27
X4.34Y-3.545
X4.47Y-3.545
X4.5322Y-2.82
X4.5322Y-2.92
X4.5322Y-3.02
X4.5322Y-3.12
X4.5322Y-3.22
X4.5322Y-3.32
X4.5322Y-3.42
X4.57Y-3.545
X4.57Y-3.67
X4.57Y-3.77
X4.57Y-3.87
X4.57Y-3.97
X4.57Y-4.07
X4.57Y-4.17
X4.57Y-4.27
X4.68Y-2.82
X4.68Y-2.92
X4.68Y-3.02
X4.68Y-3.12
X4.68Y-3.22
X4.68Y-3.32
X4.68Y-3.42
X4.745Y-3.53
X4.745Y-3.83
X4.745Y-3.975
X4.745Y-4.275
X4.845Y-3.53
X4.845Y-3.83
X4.845Y-3.975
X4.845Y-4.275
X4.85Y-2.63
X4.945Y-3.53
X4.945Y-3.83
X4.945Y-3.975
X4.945Y-4.275
X4.95Y-2.63
X4.98Y-2.82
X4.98Y-2.92
X4.98Y-3.02
X4.98Y-3.12
X4.98Y-3.22
X4.98Y-3.32
X4.98Y-3.42
X5.045Y-3.53
X5.045Y-3.83
X5.045Y-3.975
X5.045Y-4.275
X5.12Y-2.82
X5.12Y-2.92
X5.12Y-3.02
X5.12Y-3.12
X5.12Y-3.22
X5.12Y-3.32
X5.12Y-3.42
X5.145Y-3.53
X5.145Y-3.83
X5.205Y-2.63
X5.245Y-3.53
X5.245Y-3.83
X5.305Y-2.63
X5.345Y-3.53
X5.345Y-3.83
X5.345Y-3.935
X5.42Y-2.82
X5.42Y-2.92
X5.42Y-3.02
X5.42Y-3.12
X5.42Y-3.22
X5.42Y-3.32
X5.42Y-3.42
X5.445Y-3.53
X5.445Y-3.83
X5.445Y-3.935
T3
X2.735Y-2.865
X2.735Y-2.965
X2.735Y-3.065
X2.735Y-3.165
X2.735Y-3.265
X2.735Y-3.365
X2.735Y-3.465
X2.735Y-3.565
X2.735Y-3.665
X2.735Y-3.765
X2.735Y-3.865
X2.735Y-3.965
X2.735Y-4.065
X2.735Y-4.165
X2.735Y-4.265
X2.735Y-4.365
X2.735Y-4.465
X2.735Y-4.565
X2.835Y-2.865
X2.835Y-2.965
X2.835Y-3.065
X2.835Y-3.165
X2.835Y-3.265
X2.835Y-3.365
X2.835Y-3.465
X2.835Y-3.565
X2.835Y-3.665
X2.835Y-3.765
X2.835Y-3.865
X2.835Y-3.965
X2.835Y-4.065
X2.835Y-4.165
X2.835Y-4.265
X2.835Y-4.365
X2.835Y-4.465
X2.835Y-4.565
X2.935Y-2.665
X3.035Y-2.665
X3.135Y-2.665
X3.135Y-4.565
X3.235Y-2.665
X3.235Y-4.565
X3.335Y-2.665
X3.335Y-4.565
X3.435Y-2.665
X3.435Y-4.565
X3.535Y-2.665
X3.535Y-4.565
X3.635Y-2.665
X3.635Y-4.565
X3.735Y-2.665
X3.735Y-4.565
X3.835Y-2.665
X3.835Y-4.565
X3.935Y-2.665
X4.035Y-2.665
X4.035Y-4.565
X4.135Y-2.665
X4.135Y-4.565
X4.235Y-2.665
X4.235Y-4.565
X4.335Y-2.665
X4.335Y-4.47
X4.335Y-4.565
X4.435Y-2.665
X4.435Y-4.47
X4.435Y-4.565
X4.535Y-2.665
X4.535Y-4.47
X4.535Y-4.565
X4.635Y-4.47
X4.635Y-4.565
X4.735Y-4.47
X4.735Y-4.565
X4.894Y-4.471
X4.994Y-4.471
X5.094Y-4.471
X5.194Y-4.471
X5.294Y-4.471
X5.394Y-4.471
T4
X3.215Y-3.5726
X3.215Y-3.7498
X3.4709Y-3.5726
X3.4709Y-3.7498
T0
M30
