%TF.GenerationSoftware,KiCad,Pcbnew,7.0.9*%
%TF.CreationDate,2025-02-11T06:25:59-06:00*%
%TF.ProjectId,Piggyback MEM0-7 + Addr,50696767-7962-4616-936b-204d454d302d,rev?*%
%TF.SameCoordinates,Original*%
%TF.FileFunction,Soldermask,Top*%
%TF.FilePolarity,Negative*%
%FSLAX46Y46*%
G04 Gerber Fmt 4.6, Leading zero omitted, Abs format (unit mm)*
G04 Created by KiCad (PCBNEW 7.0.9) date 2025-02-11 06:25:59*
%MOMM*%
%LPD*%
G01*
G04 APERTURE LIST*
%ADD10C,1.600000*%
%ADD11R,1.700000X1.700000*%
%ADD12O,1.700000X1.700000*%
%ADD13R,1.600000X1.600000*%
%ADD14O,1.600000X1.600000*%
%ADD15C,2.000000*%
G04 APERTURE END LIST*
D10*
%TO.C,C1*%
X75692000Y-90043000D03*
X78232000Y-90043000D03*
%TD*%
D11*
%TO.C,J1*%
X69469000Y-72771000D03*
D12*
X72009000Y-72771000D03*
X69469000Y-75311000D03*
X72009000Y-75311000D03*
X69469000Y-77851000D03*
X72009000Y-77851000D03*
X69469000Y-80391000D03*
X72009000Y-80391000D03*
X69469000Y-82931000D03*
X72009000Y-82931000D03*
X69469000Y-85471000D03*
X72009000Y-85471000D03*
X69469000Y-88011000D03*
X72009000Y-88011000D03*
X69469000Y-90551000D03*
X72009000Y-90551000D03*
X69469000Y-93091000D03*
X72009000Y-93091000D03*
X69469000Y-95631000D03*
X72009000Y-95631000D03*
X69469000Y-98171000D03*
X72009000Y-98171000D03*
X69469000Y-100711000D03*
X72009000Y-100711000D03*
X69469000Y-103251000D03*
X72009000Y-103251000D03*
X69469000Y-105791000D03*
X72009000Y-105791000D03*
X69469000Y-108331000D03*
X72009000Y-108331000D03*
X69469000Y-110871000D03*
X72009000Y-110871000D03*
X69469000Y-113411000D03*
X72009000Y-113411000D03*
X69469000Y-115951000D03*
X72009000Y-115951000D03*
%TD*%
D10*
%TO.C,C7*%
X75438000Y-100965000D03*
X75438000Y-103505000D03*
%TD*%
D13*
%TO.C,U1*%
X75565000Y-71628000D03*
D14*
X75565000Y-74168000D03*
X75565000Y-76708000D03*
X75565000Y-79248000D03*
X75565000Y-81788000D03*
X75565000Y-84328000D03*
X75565000Y-86868000D03*
X83185000Y-86868000D03*
X83185000Y-84328000D03*
X83185000Y-81788000D03*
X83185000Y-79248000D03*
X83185000Y-76708000D03*
X83185000Y-74168000D03*
X83185000Y-71628000D03*
%TD*%
D13*
%TO.C,U8*%
X118872000Y-71628000D03*
D14*
X118872000Y-74168000D03*
X118872000Y-76708000D03*
X118872000Y-79248000D03*
X118872000Y-81788000D03*
X118872000Y-84328000D03*
X118872000Y-86868000D03*
X126492000Y-86868000D03*
X126492000Y-84328000D03*
X126492000Y-81788000D03*
X126492000Y-79248000D03*
X126492000Y-76708000D03*
X126492000Y-74168000D03*
X126492000Y-71628000D03*
%TD*%
D11*
%TO.C,J3*%
X74549000Y-67691000D03*
D12*
X77089000Y-67691000D03*
X79629000Y-67691000D03*
X82169000Y-67691000D03*
X84709000Y-67691000D03*
X87249000Y-67691000D03*
X89789000Y-67691000D03*
X92329000Y-67691000D03*
X94869000Y-67691000D03*
X97409000Y-67691000D03*
X99949000Y-67691000D03*
X102489000Y-67691000D03*
X105029000Y-67691000D03*
X107569000Y-67691000D03*
X110109000Y-67691000D03*
X112649000Y-67691000D03*
X115189000Y-67691000D03*
%TD*%
D10*
%TO.C,C6*%
X135763000Y-99949000D03*
X138303000Y-99949000D03*
%TD*%
D13*
%TO.C,U5*%
X96647000Y-71628000D03*
D14*
X96647000Y-74168000D03*
X96647000Y-76708000D03*
X96647000Y-79248000D03*
X96647000Y-81788000D03*
X96647000Y-84328000D03*
X96647000Y-86868000D03*
X104267000Y-86868000D03*
X104267000Y-84328000D03*
X104267000Y-81788000D03*
X104267000Y-79248000D03*
X104267000Y-76708000D03*
X104267000Y-74168000D03*
X104267000Y-71628000D03*
%TD*%
D13*
%TO.C,U3*%
X108458000Y-93218000D03*
D14*
X108458000Y-95758000D03*
X108458000Y-98298000D03*
X108458000Y-100838000D03*
X108458000Y-103378000D03*
X108458000Y-105918000D03*
X108458000Y-108458000D03*
X116078000Y-108458000D03*
X116078000Y-105918000D03*
X116078000Y-103378000D03*
X116078000Y-100838000D03*
X116078000Y-98298000D03*
X116078000Y-95758000D03*
X116078000Y-93218000D03*
%TD*%
D13*
%TO.C,U6*%
X107497000Y-71628000D03*
D14*
X107497000Y-74168000D03*
X107497000Y-76708000D03*
X107497000Y-79248000D03*
X107497000Y-81788000D03*
X107497000Y-84328000D03*
X107497000Y-86868000D03*
X115117000Y-86868000D03*
X115117000Y-84328000D03*
X115117000Y-81788000D03*
X115117000Y-79248000D03*
X115117000Y-76708000D03*
X115117000Y-74168000D03*
X115117000Y-71628000D03*
%TD*%
D10*
%TO.C,C9*%
X91186000Y-90043000D03*
X93726000Y-90043000D03*
%TD*%
D11*
%TO.C,J6*%
X102489000Y-115951000D03*
D12*
X105029000Y-115951000D03*
X107569000Y-115951000D03*
X110109000Y-115951000D03*
X112649000Y-115951000D03*
X115189000Y-115951000D03*
X117729000Y-115951000D03*
X120269000Y-115951000D03*
%TD*%
D13*
%TO.C,U7*%
X130048000Y-71628000D03*
D14*
X130048000Y-74168000D03*
X130048000Y-76708000D03*
X130048000Y-79248000D03*
X130048000Y-81788000D03*
X130048000Y-84328000D03*
X130048000Y-86868000D03*
X137668000Y-86868000D03*
X137668000Y-84328000D03*
X137668000Y-81788000D03*
X137668000Y-79248000D03*
X137668000Y-76708000D03*
X137668000Y-74168000D03*
X137668000Y-71628000D03*
%TD*%
D10*
%TO.C,C4*%
X116078000Y-90043000D03*
X113538000Y-90043000D03*
%TD*%
D13*
%TO.C,U4*%
X78613000Y-106045000D03*
D14*
X81153000Y-106045000D03*
X83693000Y-106045000D03*
X86233000Y-106045000D03*
X88773000Y-106045000D03*
X91313000Y-106045000D03*
X93853000Y-106045000D03*
X96393000Y-106045000D03*
X96393000Y-98425000D03*
X93853000Y-98425000D03*
X91313000Y-98425000D03*
X88773000Y-98425000D03*
X86233000Y-98425000D03*
X83693000Y-98425000D03*
X81153000Y-98425000D03*
X78613000Y-98425000D03*
%TD*%
D10*
%TO.C,C5*%
X132207000Y-66802000D03*
X134747000Y-66802000D03*
%TD*%
%TO.C,C3*%
X110236000Y-90043000D03*
X107696000Y-90043000D03*
%TD*%
%TO.C,C8*%
X101600000Y-90043000D03*
X104140000Y-90043000D03*
%TD*%
D15*
%TO.C,Button*%
X81661000Y-90744000D03*
X88161000Y-90744000D03*
X81661000Y-95244000D03*
X88161000Y-95244000D03*
%TD*%
D13*
%TO.C,U9*%
X120523000Y-97282000D03*
D14*
X123063000Y-97282000D03*
X125603000Y-97282000D03*
X128143000Y-97282000D03*
X130683000Y-97282000D03*
X133223000Y-97282000D03*
X135763000Y-97282000D03*
X138303000Y-97282000D03*
X138303000Y-89662000D03*
X135763000Y-89662000D03*
X133223000Y-89662000D03*
X130683000Y-89662000D03*
X128143000Y-89662000D03*
X125603000Y-89662000D03*
X123063000Y-89662000D03*
X120523000Y-89662000D03*
%TD*%
D11*
%TO.C,J2*%
X110109000Y-113538000D03*
D12*
X112649000Y-113538000D03*
X115189000Y-113538000D03*
X117729000Y-113538000D03*
X120269000Y-113538000D03*
%TD*%
D11*
%TO.C,J4*%
X124307600Y-113563400D03*
D12*
X126847600Y-113563400D03*
X129387600Y-113563400D03*
X131927600Y-113563400D03*
X134467600Y-113563400D03*
X137007600Y-113563400D03*
%TD*%
D13*
%TO.C,U2*%
X86415000Y-71628000D03*
D14*
X86415000Y-74168000D03*
X86415000Y-76708000D03*
X86415000Y-79248000D03*
X86415000Y-81788000D03*
X86415000Y-84328000D03*
X86415000Y-86868000D03*
X94035000Y-86868000D03*
X94035000Y-84328000D03*
X94035000Y-81788000D03*
X94035000Y-79248000D03*
X94035000Y-76708000D03*
X94035000Y-74168000D03*
X94035000Y-71628000D03*
%TD*%
D10*
%TO.C,C2*%
X123190000Y-66802000D03*
X125730000Y-66802000D03*
%TD*%
D13*
%TO.C,SW2*%
X120523000Y-108585000D03*
D14*
X123063000Y-108585000D03*
X125603000Y-108585000D03*
X128143000Y-108585000D03*
X128143000Y-100965000D03*
X125603000Y-100965000D03*
X123063000Y-100965000D03*
X120523000Y-100965000D03*
%TD*%
D11*
%TO.C,J5*%
X79629000Y-115951000D03*
D12*
X82169000Y-115951000D03*
X84709000Y-115951000D03*
X87249000Y-115951000D03*
X89789000Y-115951000D03*
X92329000Y-115951000D03*
X94869000Y-115951000D03*
X97409000Y-115951000D03*
%TD*%
M02*
