%TF.GenerationSoftware,KiCad,Pcbnew,7.0.9*%
%TF.CreationDate,2025-02-11T06:25:59-06:00*%
%TF.ProjectId,Piggyback MEM0-7 + Addr,50696767-7962-4616-936b-204d454d302d,rev?*%
%TF.SameCoordinates,Original*%
%TF.FileFunction,Copper,L1,Top*%
%TF.FilePolarity,Positive*%
%FSLAX46Y46*%
G04 Gerber Fmt 4.6, Leading zero omitted, Abs format (unit mm)*
G04 Created by KiCad (PCBNEW 7.0.9) date 2025-02-11 06:25:59*
%MOMM*%
%LPD*%
G01*
G04 APERTURE LIST*
%TA.AperFunction,ComponentPad*%
%ADD10C,1.600000*%
%TD*%
%TA.AperFunction,ComponentPad*%
%ADD11R,1.700000X1.700000*%
%TD*%
%TA.AperFunction,ComponentPad*%
%ADD12O,1.700000X1.700000*%
%TD*%
%TA.AperFunction,ComponentPad*%
%ADD13R,1.600000X1.600000*%
%TD*%
%TA.AperFunction,ComponentPad*%
%ADD14O,1.600000X1.600000*%
%TD*%
%TA.AperFunction,ComponentPad*%
%ADD15C,2.000000*%
%TD*%
%TA.AperFunction,ViaPad*%
%ADD16C,0.800000*%
%TD*%
%TA.AperFunction,Conductor*%
%ADD17C,0.400000*%
%TD*%
%TA.AperFunction,Conductor*%
%ADD18C,0.500000*%
%TD*%
%TA.AperFunction,Conductor*%
%ADD19C,0.250000*%
%TD*%
G04 APERTURE END LIST*
D10*
%TO.P,C1,1*%
%TO.N,+5V*%
X75692000Y-90043000D03*
%TO.P,C1,2*%
%TO.N,GND*%
X78232000Y-90043000D03*
%TD*%
D11*
%TO.P,J1,1,Pin_1*%
%TO.N,GND*%
X69469000Y-72771000D03*
D12*
%TO.P,J1,2,Pin_2*%
X72009000Y-72771000D03*
%TO.P,J1,3,Pin_3*%
%TO.N,~{POWER FAIL}*%
X69469000Y-75311000D03*
%TO.P,J1,4,Pin_4*%
%TO.N,MEM OK*%
X72009000Y-75311000D03*
%TO.P,J1,5,Pin_5*%
%TO.N,~{EXEC}*%
X69469000Y-77851000D03*
%TO.P,J1,6,Pin_6*%
%TO.N,~{DEFER}*%
X72009000Y-77851000D03*
%TO.P,J1,7,Pin_7*%
%TO.N,~{FETCH}*%
X69469000Y-80391000D03*
%TO.P,J1,8,Pin_8*%
%TO.N,~{MEM15}*%
X72009000Y-80391000D03*
%TO.P,J1,9,Pin_9*%
%TO.N,~{MEM14}*%
X69469000Y-82931000D03*
%TO.P,J1,10,Pin_10*%
%TO.N,~{MEM13}*%
X72009000Y-82931000D03*
%TO.P,J1,11,Pin_11*%
%TO.N,~{MEM12}*%
X69469000Y-85471000D03*
%TO.P,J1,12,Pin_12*%
%TO.N,~{MEM11}*%
X72009000Y-85471000D03*
%TO.P,J1,13,Pin_13*%
%TO.N,~{MEM10}*%
X69469000Y-88011000D03*
%TO.P,J1,14,Pin_14*%
%TO.N,~{MEM9}*%
X72009000Y-88011000D03*
%TO.P,J1,15,Pin_15*%
%TO.N,~{MEM8}*%
X69469000Y-90551000D03*
%TO.P,J1,16,Pin_16*%
%TO.N,~{MEM7}*%
X72009000Y-90551000D03*
%TO.P,J1,17,Pin_17*%
%TO.N,~{MEM6}*%
X69469000Y-93091000D03*
%TO.P,J1,18,Pin_18*%
%TO.N,~{MEM5}*%
X72009000Y-93091000D03*
%TO.P,J1,19,Pin_19*%
%TO.N,~{MEM4}*%
X69469000Y-95631000D03*
%TO.P,J1,20,Pin_20*%
%TO.N,~{MEM3}*%
X72009000Y-95631000D03*
%TO.P,J1,21,Pin_21*%
%TO.N,~{MEM2}*%
X69469000Y-98171000D03*
%TO.P,J1,22,Pin_22*%
%TO.N,~{MEM1}*%
X72009000Y-98171000D03*
%TO.P,J1,23,Pin_23*%
%TO.N,~{MEM0}*%
X69469000Y-100711000D03*
%TO.P,J1,24,Pin_24*%
%TO.N,~{CARRY}*%
X72009000Y-100711000D03*
%TO.P,J1,25,Pin_25*%
%TO.N,~{ION}*%
X69469000Y-103251000D03*
%TO.P,J1,26,Pin_26*%
%TO.N,~{RUN}*%
X72009000Y-103251000D03*
%TO.P,J1,27,Pin_27*%
%TO.N,~{MBO15}*%
X69469000Y-105791000D03*
%TO.P,J1,28,Pin_28*%
%TO.N,~{MBO14}*%
X72009000Y-105791000D03*
%TO.P,J1,29,Pin_29*%
%TO.N,~{MBO13}*%
X69469000Y-108331000D03*
%TO.P,J1,30,Pin_30*%
%TO.N,~{MBO12}*%
X72009000Y-108331000D03*
%TO.P,J1,31,Pin_31*%
%TO.N,~{MBO11}*%
X69469000Y-110871000D03*
%TO.P,J1,32,Pin_32*%
%TO.N,~{MBO10}*%
X72009000Y-110871000D03*
%TO.P,J1,33,Pin_33*%
%TO.N,~{MBO9}*%
X69469000Y-113411000D03*
%TO.P,J1,34,Pin_34*%
%TO.N,~{MBO8}*%
X72009000Y-113411000D03*
%TO.P,J1,35,Pin_35*%
%TO.N,+5V*%
X69469000Y-115951000D03*
%TO.P,J1,36,Pin_36*%
X72009000Y-115951000D03*
%TD*%
D10*
%TO.P,C7,1*%
%TO.N,+5V*%
X75438000Y-100965000D03*
%TO.P,C7,2*%
%TO.N,GND*%
X75438000Y-103505000D03*
%TD*%
D13*
%TO.P,U1,1*%
%TO.N,CON INST*%
X75565000Y-71628000D03*
D14*
%TO.P,U1,2*%
%TO.N,A15*%
X75565000Y-74168000D03*
%TO.P,U1,3*%
%TO.N,~{MEM0}*%
X75565000Y-76708000D03*
%TO.P,U1,4*%
%TO.N,CON INST*%
X75565000Y-79248000D03*
%TO.P,U1,5*%
%TO.N,A14*%
X75565000Y-81788000D03*
%TO.P,U1,6*%
%TO.N,~{MEM1}*%
X75565000Y-84328000D03*
%TO.P,U1,7,GND*%
%TO.N,GND*%
X75565000Y-86868000D03*
%TO.P,U1,8*%
%TO.N,~{MEM2}*%
X83185000Y-86868000D03*
%TO.P,U1,9*%
%TO.N,CON INST*%
X83185000Y-84328000D03*
%TO.P,U1,10*%
%TO.N,A13*%
X83185000Y-81788000D03*
%TO.P,U1,11*%
%TO.N,~{MEM3}*%
X83185000Y-79248000D03*
%TO.P,U1,12*%
%TO.N,CON INST*%
X83185000Y-76708000D03*
%TO.P,U1,13*%
%TO.N,A12*%
X83185000Y-74168000D03*
%TO.P,U1,14,VCC*%
%TO.N,+5V*%
X83185000Y-71628000D03*
%TD*%
D13*
%TO.P,U8,1*%
%TO.N,CON DATA*%
X118872000Y-71628000D03*
D14*
%TO.P,U8,2*%
%TO.N,Addr08*%
X118872000Y-74168000D03*
%TO.P,U8,3*%
%TO.N,~{MEM8}*%
X118872000Y-76708000D03*
%TO.P,U8,4*%
%TO.N,CON DATA*%
X118872000Y-79248000D03*
%TO.P,U8,5*%
%TO.N,Addr09*%
X118872000Y-81788000D03*
%TO.P,U8,6*%
%TO.N,~{MEM9}*%
X118872000Y-84328000D03*
%TO.P,U8,7,GND*%
%TO.N,GND*%
X118872000Y-86868000D03*
%TO.P,U8,8*%
%TO.N,~{MEM10}*%
X126492000Y-86868000D03*
%TO.P,U8,9*%
%TO.N,CON DATA*%
X126492000Y-84328000D03*
%TO.P,U8,10*%
%TO.N,Addr10*%
X126492000Y-81788000D03*
%TO.P,U8,11*%
%TO.N,~{MEM11}*%
X126492000Y-79248000D03*
%TO.P,U8,12*%
%TO.N,CON DATA*%
X126492000Y-76708000D03*
%TO.P,U8,13*%
%TO.N,Addr11*%
X126492000Y-74168000D03*
%TO.P,U8,14,VCC*%
%TO.N,+5V*%
X126492000Y-71628000D03*
%TD*%
D11*
%TO.P,J3,1,Pin_1*%
%TO.N,A15*%
X74549000Y-67691000D03*
D12*
%TO.P,J3,2,Pin_2*%
%TO.N,A14*%
X77089000Y-67691000D03*
%TO.P,J3,3,Pin_3*%
%TO.N,A13*%
X79629000Y-67691000D03*
%TO.P,J3,4,Pin_4*%
%TO.N,A12*%
X82169000Y-67691000D03*
%TO.P,J3,5,Pin_5*%
%TO.N,A11*%
X84709000Y-67691000D03*
%TO.P,J3,6,Pin_6*%
%TO.N,A10*%
X87249000Y-67691000D03*
%TO.P,J3,7,Pin_7*%
%TO.N,A09*%
X89789000Y-67691000D03*
%TO.P,J3,8,Pin_8*%
%TO.N,A08*%
X92329000Y-67691000D03*
%TO.P,J3,9,Pin_9*%
%TO.N,unconnected-(J3-Pin_9-Pad9)*%
X94869000Y-67691000D03*
%TO.P,J3,10,Pin_10*%
%TO.N,RESTART ENABLE*%
X97409000Y-67691000D03*
%TO.P,J3,11,Pin_11*%
%TO.N,~{RST}*%
X99949000Y-67691000D03*
%TO.P,J3,12,Pin_12*%
%TO.N,~{CON RQ}*%
X102489000Y-67691000D03*
%TO.P,J3,13,Pin_13*%
%TO.N,~{CON INST}*%
X105029000Y-67691000D03*
%TO.P,J3,14,Pin_14*%
%TO.N,~{PL}*%
X107569000Y-67691000D03*
%TO.P,J3,15,Pin_15*%
%TO.N,~{ISTP}*%
X110109000Y-67691000D03*
%TO.P,J3,16,Pin_16*%
%TO.N,A01*%
X112649000Y-67691000D03*
%TO.P,J3,17,Pin_17*%
%TO.N,A00*%
X115189000Y-67691000D03*
%TD*%
D10*
%TO.P,C6,1*%
%TO.N,+5V*%
X135763000Y-99949000D03*
%TO.P,C6,2*%
%TO.N,GND*%
X138303000Y-99949000D03*
%TD*%
D13*
%TO.P,U5,1*%
%TO.N,CON DATA*%
X96647000Y-71628000D03*
D14*
%TO.P,U5,2*%
%TO.N,Addr04*%
X96647000Y-74168000D03*
%TO.P,U5,3*%
%TO.N,~{MEM4}*%
X96647000Y-76708000D03*
%TO.P,U5,4*%
%TO.N,CON DATA*%
X96647000Y-79248000D03*
%TO.P,U5,5*%
%TO.N,Addr05*%
X96647000Y-81788000D03*
%TO.P,U5,6*%
%TO.N,~{MEM5}*%
X96647000Y-84328000D03*
%TO.P,U5,7,GND*%
%TO.N,GND*%
X96647000Y-86868000D03*
%TO.P,U5,8*%
%TO.N,~{MEM6}*%
X104267000Y-86868000D03*
%TO.P,U5,9*%
%TO.N,CON DATA*%
X104267000Y-84328000D03*
%TO.P,U5,10*%
%TO.N,Addr06*%
X104267000Y-81788000D03*
%TO.P,U5,11*%
%TO.N,~{MEM7}*%
X104267000Y-79248000D03*
%TO.P,U5,12*%
%TO.N,CON DATA*%
X104267000Y-76708000D03*
%TO.P,U5,13*%
%TO.N,Addr07*%
X104267000Y-74168000D03*
%TO.P,U5,14,VCC*%
%TO.N,+5V*%
X104267000Y-71628000D03*
%TD*%
D13*
%TO.P,U3,1*%
%TO.N,~{CON INST}*%
X108458000Y-93218000D03*
D14*
%TO.P,U3,2*%
%TO.N,CON INST*%
X108458000Y-95758000D03*
%TO.P,U3,3*%
%TO.N,~{CON DATA}*%
X108458000Y-98298000D03*
%TO.P,U3,4*%
%TO.N,CON DATA*%
X108458000Y-100838000D03*
%TO.P,U3,5*%
%TO.N,N/C*%
X108458000Y-103378000D03*
%TO.P,U3,6*%
X108458000Y-105918000D03*
%TO.P,U3,7,GND*%
%TO.N,GND*%
X108458000Y-108458000D03*
%TO.P,U3,8*%
%TO.N,N/C*%
X116078000Y-108458000D03*
%TO.P,U3,9*%
X116078000Y-105918000D03*
%TO.P,U3,10*%
X116078000Y-103378000D03*
%TO.P,U3,11*%
X116078000Y-100838000D03*
%TO.P,U3,12*%
X116078000Y-98298000D03*
%TO.P,U3,13*%
X116078000Y-95758000D03*
%TO.P,U3,14,VCC*%
%TO.N,+5V*%
X116078000Y-93218000D03*
%TD*%
D13*
%TO.P,U6,1*%
%TO.N,CON DATA*%
X107497000Y-71628000D03*
D14*
%TO.P,U6,2*%
%TO.N,Addr00*%
X107497000Y-74168000D03*
%TO.P,U6,3*%
%TO.N,~{MEM0}*%
X107497000Y-76708000D03*
%TO.P,U6,4*%
%TO.N,CON DATA*%
X107497000Y-79248000D03*
%TO.P,U6,5*%
%TO.N,Addr01*%
X107497000Y-81788000D03*
%TO.P,U6,6*%
%TO.N,~{MEM1}*%
X107497000Y-84328000D03*
%TO.P,U6,7,GND*%
%TO.N,GND*%
X107497000Y-86868000D03*
%TO.P,U6,8*%
%TO.N,~{MEM2}*%
X115117000Y-86868000D03*
%TO.P,U6,9*%
%TO.N,CON DATA*%
X115117000Y-84328000D03*
%TO.P,U6,10*%
%TO.N,Addr02*%
X115117000Y-81788000D03*
%TO.P,U6,11*%
%TO.N,~{MEM3}*%
X115117000Y-79248000D03*
%TO.P,U6,12*%
%TO.N,CON DATA*%
X115117000Y-76708000D03*
%TO.P,U6,13*%
%TO.N,Addr03*%
X115117000Y-74168000D03*
%TO.P,U6,14,VCC*%
%TO.N,+5V*%
X115117000Y-71628000D03*
%TD*%
D10*
%TO.P,C9,1*%
%TO.N,+5V*%
X91186000Y-90043000D03*
%TO.P,C9,2*%
%TO.N,GND*%
X93726000Y-90043000D03*
%TD*%
D11*
%TO.P,J6,1,Pin_1*%
%TO.N,~{CON DATA}*%
X102489000Y-115951000D03*
D12*
%TO.P,J6,2,Pin_2*%
%TO.N,~{CONT+ISTP+MSTP}*%
X105029000Y-115951000D03*
%TO.P,J6,3,Pin_3*%
%TO.N,~{MSTP}*%
X107569000Y-115951000D03*
%TO.P,J6,4,Pin_4*%
%TO.N,DataPin1*%
X110109000Y-115951000D03*
%TO.P,J6,5,Pin_5*%
%TO.N,ClockPin1*%
X112649000Y-115951000D03*
%TO.P,J6,6,Pin_6*%
%TO.N,LatchPin1*%
X115189000Y-115951000D03*
%TO.P,J6,7,Pin_7*%
%TO.N,DataPin2*%
X117729000Y-115951000D03*
%TO.P,J6,8,Pin_8*%
%TO.N,DIP4*%
X120269000Y-115951000D03*
%TD*%
D13*
%TO.P,U7,1*%
%TO.N,CON DATA*%
X130048000Y-71628000D03*
D14*
%TO.P,U7,2*%
%TO.N,Addr12*%
X130048000Y-74168000D03*
%TO.P,U7,3*%
%TO.N,~{MEM12}*%
X130048000Y-76708000D03*
%TO.P,U7,4*%
%TO.N,CON DATA*%
X130048000Y-79248000D03*
%TO.P,U7,5*%
%TO.N,Addr13*%
X130048000Y-81788000D03*
%TO.P,U7,6*%
%TO.N,~{MEM13}*%
X130048000Y-84328000D03*
%TO.P,U7,7,GND*%
%TO.N,GND*%
X130048000Y-86868000D03*
%TO.P,U7,8*%
%TO.N,~{MEM14}*%
X137668000Y-86868000D03*
%TO.P,U7,9*%
%TO.N,CON DATA*%
X137668000Y-84328000D03*
%TO.P,U7,10*%
%TO.N,Addr14*%
X137668000Y-81788000D03*
%TO.P,U7,11*%
%TO.N,~{MEM15}*%
X137668000Y-79248000D03*
%TO.P,U7,12*%
%TO.N,CON DATA*%
X137668000Y-76708000D03*
%TO.P,U7,13*%
%TO.N,Addr15*%
X137668000Y-74168000D03*
%TO.P,U7,14,VCC*%
%TO.N,+5V*%
X137668000Y-71628000D03*
%TD*%
D10*
%TO.P,C4,1*%
%TO.N,+5V*%
X116078000Y-90043000D03*
%TO.P,C4,2*%
%TO.N,GND*%
X113538000Y-90043000D03*
%TD*%
D13*
%TO.P,U4,1,QB*%
%TO.N,Addr01*%
X78613000Y-106045000D03*
D14*
%TO.P,U4,2,QC*%
%TO.N,Addr02*%
X81153000Y-106045000D03*
%TO.P,U4,3,QD*%
%TO.N,Addr03*%
X83693000Y-106045000D03*
%TO.P,U4,4,QE*%
%TO.N,Addr04*%
X86233000Y-106045000D03*
%TO.P,U4,5,QF*%
%TO.N,Addr05*%
X88773000Y-106045000D03*
%TO.P,U4,6,QG*%
%TO.N,Addr06*%
X91313000Y-106045000D03*
%TO.P,U4,7,QH*%
%TO.N,Addr07*%
X93853000Y-106045000D03*
%TO.P,U4,8,GND*%
%TO.N,GND*%
X96393000Y-106045000D03*
%TO.P,U4,9,QH'*%
%TO.N,unconnected-(U4-QH'-Pad9)*%
X96393000Y-98425000D03*
%TO.P,U4,10,~{SRCLR}*%
%TO.N,+5V*%
X93853000Y-98425000D03*
%TO.P,U4,11,SRCLK*%
%TO.N,ClockPin1*%
X91313000Y-98425000D03*
%TO.P,U4,12,RCLK*%
%TO.N,LatchPin1*%
X88773000Y-98425000D03*
%TO.P,U4,13,~{OE}*%
%TO.N,unconnected-(U4-~{OE}-Pad13)*%
X86233000Y-98425000D03*
%TO.P,U4,14,SER*%
%TO.N,DataPin1*%
X83693000Y-98425000D03*
%TO.P,U4,15,QA*%
%TO.N,Addr00*%
X81153000Y-98425000D03*
%TO.P,U4,16,VCC*%
%TO.N,+5V*%
X78613000Y-98425000D03*
%TD*%
D10*
%TO.P,C5,1*%
%TO.N,+5V*%
X132207000Y-66802000D03*
%TO.P,C5,2*%
%TO.N,GND*%
X134747000Y-66802000D03*
%TD*%
%TO.P,C3,1*%
%TO.N,+5V*%
X110236000Y-90043000D03*
%TO.P,C3,2*%
%TO.N,GND*%
X107696000Y-90043000D03*
%TD*%
%TO.P,C8,1*%
%TO.N,+5V*%
X101600000Y-90043000D03*
%TO.P,C8,2*%
%TO.N,GND*%
X104140000Y-90043000D03*
%TD*%
D15*
%TO.P,Button,1,1*%
%TO.N,GND*%
X81661000Y-90744000D03*
X88161000Y-90744000D03*
%TO.P,Button,2,2*%
%TO.N,RST1*%
X81661000Y-95244000D03*
X88161000Y-95244000D03*
%TD*%
D13*
%TO.P,U9,1,QB*%
%TO.N,Addr09*%
X120523000Y-97282000D03*
D14*
%TO.P,U9,2,QC*%
%TO.N,Addr10*%
X123063000Y-97282000D03*
%TO.P,U9,3,QD*%
%TO.N,Addr11*%
X125603000Y-97282000D03*
%TO.P,U9,4,QE*%
%TO.N,Addr12*%
X128143000Y-97282000D03*
%TO.P,U9,5,QF*%
%TO.N,Addr13*%
X130683000Y-97282000D03*
%TO.P,U9,6,QG*%
%TO.N,Addr14*%
X133223000Y-97282000D03*
%TO.P,U9,7,QH*%
%TO.N,Addr15*%
X135763000Y-97282000D03*
%TO.P,U9,8,GND*%
%TO.N,GND*%
X138303000Y-97282000D03*
%TO.P,U9,9,QH'*%
%TO.N,unconnected-(U9-QH'-Pad9)*%
X138303000Y-89662000D03*
%TO.P,U9,10,~{SRCLR}*%
%TO.N,+5V*%
X135763000Y-89662000D03*
%TO.P,U9,11,SRCLK*%
%TO.N,ClockPin2*%
X133223000Y-89662000D03*
%TO.P,U9,12,RCLK*%
%TO.N,LatchPin2*%
X130683000Y-89662000D03*
%TO.P,U9,13,~{OE}*%
%TO.N,unconnected-(U9-~{OE}-Pad13)*%
X128143000Y-89662000D03*
%TO.P,U9,14,SER*%
%TO.N,DataPin2*%
X125603000Y-89662000D03*
%TO.P,U9,15,QA*%
%TO.N,Addr08*%
X123063000Y-89662000D03*
%TO.P,U9,16,VCC*%
%TO.N,+5V*%
X120523000Y-89662000D03*
%TD*%
D11*
%TO.P,J2,1,Pin_1*%
%TO.N,DataPin1*%
X110109000Y-113538000D03*
D12*
%TO.P,J2,2,Pin_2*%
%TO.N,ClockPin1*%
X112649000Y-113538000D03*
%TO.P,J2,3,Pin_3*%
%TO.N,LatchPin1*%
X115189000Y-113538000D03*
%TO.P,J2,4,Pin_4*%
%TO.N,DataPin2*%
X117729000Y-113538000D03*
%TO.P,J2,5,Pin_5*%
%TO.N,DIP4*%
X120269000Y-113538000D03*
%TD*%
D11*
%TO.P,J4,1,Pin_1*%
%TO.N,DIP3*%
X124307600Y-113563400D03*
D12*
%TO.P,J4,2,Pin_2*%
%TO.N,DIP2*%
X126847600Y-113563400D03*
%TO.P,J4,3,Pin_3*%
%TO.N,DIP1*%
X129387600Y-113563400D03*
%TO.P,J4,4,Pin_4*%
%TO.N,ClockPin2*%
X131927600Y-113563400D03*
%TO.P,J4,5,Pin_5*%
%TO.N,LatchPin2*%
X134467600Y-113563400D03*
%TO.P,J4,6,Pin_6*%
%TO.N,/+5V OK*%
X137007600Y-113563400D03*
%TD*%
D13*
%TO.P,U2,1*%
%TO.N,CON INST*%
X86415000Y-71628000D03*
D14*
%TO.P,U2,2*%
%TO.N,A11*%
X86415000Y-74168000D03*
%TO.P,U2,3*%
%TO.N,~{MEM4}*%
X86415000Y-76708000D03*
%TO.P,U2,4*%
%TO.N,CON INST*%
X86415000Y-79248000D03*
%TO.P,U2,5*%
%TO.N,A10*%
X86415000Y-81788000D03*
%TO.P,U2,6*%
%TO.N,~{MEM5}*%
X86415000Y-84328000D03*
%TO.P,U2,7,GND*%
%TO.N,GND*%
X86415000Y-86868000D03*
%TO.P,U2,8*%
%TO.N,~{MEM6}*%
X94035000Y-86868000D03*
%TO.P,U2,9*%
%TO.N,CON INST*%
X94035000Y-84328000D03*
%TO.P,U2,10*%
%TO.N,A09*%
X94035000Y-81788000D03*
%TO.P,U2,11*%
%TO.N,~{MEM7}*%
X94035000Y-79248000D03*
%TO.P,U2,12*%
%TO.N,CON INST*%
X94035000Y-76708000D03*
%TO.P,U2,13*%
%TO.N,A08*%
X94035000Y-74168000D03*
%TO.P,U2,14,VCC*%
%TO.N,+5V*%
X94035000Y-71628000D03*
%TD*%
D10*
%TO.P,C2,1*%
%TO.N,+5V*%
X123190000Y-66802000D03*
%TO.P,C2,2*%
%TO.N,GND*%
X125730000Y-66802000D03*
%TD*%
D13*
%TO.P,SW2,1*%
%TO.N,DIP4*%
X120523000Y-108585000D03*
D14*
%TO.P,SW2,2*%
%TO.N,DIP3*%
X123063000Y-108585000D03*
%TO.P,SW2,3*%
%TO.N,DIP2*%
X125603000Y-108585000D03*
%TO.P,SW2,4*%
%TO.N,DIP1*%
X128143000Y-108585000D03*
%TO.P,SW2,5*%
%TO.N,GND*%
X128143000Y-100965000D03*
%TO.P,SW2,6*%
X125603000Y-100965000D03*
%TO.P,SW2,7*%
X123063000Y-100965000D03*
%TO.P,SW2,8*%
X120523000Y-100965000D03*
%TD*%
D11*
%TO.P,J5,1,Pin_1*%
%TO.N,~{MBO7}*%
X79629000Y-115951000D03*
D12*
%TO.P,J5,2,Pin_2*%
%TO.N,~{MBO6}*%
X82169000Y-115951000D03*
%TO.P,J5,3,Pin_3*%
%TO.N,~{MBO5}*%
X84709000Y-115951000D03*
%TO.P,J5,4,Pin_4*%
%TO.N,~{MBO4}*%
X87249000Y-115951000D03*
%TO.P,J5,5,Pin_5*%
%TO.N,~{MBO3}*%
X89789000Y-115951000D03*
%TO.P,J5,6,Pin_6*%
%TO.N,~{MBO2}*%
X92329000Y-115951000D03*
%TO.P,J5,7,Pin_7*%
%TO.N,~{MBO1}*%
X94869000Y-115951000D03*
%TO.P,J5,8,Pin_8*%
%TO.N,~{STOP}*%
X97409000Y-115951000D03*
%TD*%
D16*
%TO.N,+5V*%
X83312000Y-65659000D03*
X78613000Y-94742000D03*
X93853000Y-108458000D03*
%TO.N,~{MEM11}*%
X78867000Y-80137000D03*
%TO.N,~{MEM7}*%
X78867000Y-86614000D03*
X79629000Y-83439000D03*
%TO.N,~{MEM5}*%
X91186000Y-87630000D03*
%TO.N,~{MEM4}*%
X90932000Y-76454000D03*
%TO.N,~{MEM1}*%
X81153000Y-83185000D03*
X78359000Y-84328000D03*
%TO.N,LatchPin2*%
X132461000Y-111760000D03*
%TO.N,Addr04*%
X100965000Y-104775000D03*
X104140000Y-94361000D03*
%TO.N,Addr05*%
X102997000Y-105664000D03*
X105664000Y-94742000D03*
%TO.N,Addr06*%
X102743000Y-107315000D03*
X102362000Y-93091000D03*
%TO.N,Addr07*%
X106426000Y-106299000D03*
X104013000Y-92329000D03*
%TO.N,Addr10*%
X125984000Y-93980000D03*
%TO.N,Addr14*%
X136144000Y-92583000D03*
%TD*%
D17*
%TO.N,+5V*%
X93853000Y-98425000D02*
X95053000Y-99625000D01*
D18*
X93853000Y-108458000D02*
X95103000Y-107208000D01*
X95103000Y-99675000D02*
X93853000Y-98425000D01*
X95103000Y-107208000D02*
X95103000Y-99675000D01*
D19*
%TO.N,~{MEM15}*%
X136144000Y-77724000D02*
X136144000Y-70485000D01*
X73184000Y-79216000D02*
X72009000Y-80391000D01*
X136144000Y-70485000D02*
X134620000Y-68961000D01*
X75438000Y-68961000D02*
X73184000Y-71215000D01*
X137668000Y-79248000D02*
X136144000Y-77724000D01*
X73184000Y-71215000D02*
X73184000Y-79216000D01*
X134620000Y-68961000D02*
X75438000Y-68961000D01*
%TO.N,~{MEM14}*%
X135382000Y-71501000D02*
X135382000Y-84582000D01*
X133292000Y-69411000D02*
X135382000Y-71501000D01*
X75624396Y-69411000D02*
X133292000Y-69411000D01*
X73634000Y-71401396D02*
X75624396Y-69411000D01*
X70834000Y-81566000D02*
X72495701Y-81566000D01*
X135382000Y-84582000D02*
X137668000Y-86868000D01*
X69469000Y-82931000D02*
X70834000Y-81566000D01*
X73634000Y-80427701D02*
X73634000Y-71401396D01*
X72495701Y-81566000D02*
X73634000Y-80427701D01*
%TO.N,~{MEM13}*%
X131884000Y-84328000D02*
X130048000Y-84328000D01*
X78279000Y-71211000D02*
X79629000Y-69861000D01*
X74084000Y-80856000D02*
X74084000Y-73744000D01*
X74930000Y-72898000D02*
X76545000Y-72898000D01*
X134932000Y-71687396D02*
X134932000Y-81280000D01*
X76545000Y-72898000D02*
X78232000Y-71211000D01*
X74084000Y-73744000D02*
X74930000Y-72898000D01*
X72009000Y-82931000D02*
X74084000Y-80856000D01*
X134932000Y-81280000D02*
X131884000Y-84328000D01*
X133105604Y-69861000D02*
X134932000Y-71687396D01*
X79629000Y-69861000D02*
X133105604Y-69861000D01*
X78232000Y-71211000D02*
X78279000Y-71211000D01*
%TO.N,~{MEM12}*%
X74440000Y-82278000D02*
X74440000Y-81322009D01*
X77135198Y-73486802D02*
X80311000Y-70311000D01*
X72612000Y-84106000D02*
X74440000Y-82278000D01*
X80311000Y-70311000D02*
X131525000Y-70311000D01*
X133858000Y-72644000D02*
X133858000Y-75057000D01*
X75371009Y-80391000D02*
X76012991Y-80391000D01*
X133858000Y-75057000D02*
X132207000Y-76708000D01*
X70834000Y-84106000D02*
X72612000Y-84106000D01*
X131525000Y-70311000D02*
X133858000Y-72644000D01*
X76012991Y-80391000D02*
X77135198Y-79268793D01*
X132207000Y-76708000D02*
X130048000Y-76708000D01*
X77135198Y-79268793D02*
X77135198Y-73486802D01*
X74440000Y-81322009D02*
X75371009Y-80391000D01*
X69469000Y-85471000D02*
X70834000Y-84106000D01*
%TO.N,~{MEM11}*%
X78867000Y-80137000D02*
X78867000Y-73406000D01*
X122065000Y-73043000D02*
X123444000Y-74422000D01*
X123444000Y-74422000D02*
X123444000Y-76200000D01*
X78867000Y-73406000D02*
X79230000Y-73043000D01*
X123444000Y-76200000D02*
X126492000Y-79248000D01*
X79230000Y-73043000D02*
X122065000Y-73043000D01*
%TO.N,~{MEM10}*%
X80917000Y-75293000D02*
X119047991Y-75293000D01*
X80518000Y-79511305D02*
X80518000Y-75692000D01*
X77116305Y-82913000D02*
X80518000Y-79511305D01*
X123571000Y-79816009D02*
X123571000Y-83947000D01*
X119047991Y-75293000D02*
X123571000Y-79816009D01*
X75389009Y-82913000D02*
X77116305Y-82913000D01*
X72495701Y-86646000D02*
X74422000Y-84719701D01*
X74422000Y-84719701D02*
X74422000Y-83880009D01*
X74422000Y-83880009D02*
X75389009Y-82913000D01*
X70834000Y-86646000D02*
X72495701Y-86646000D01*
X69469000Y-88011000D02*
X70834000Y-86646000D01*
X80518000Y-75692000D02*
X80917000Y-75293000D01*
X123571000Y-83947000D02*
X126492000Y-86868000D01*
%TO.N,~{MEM9}*%
X118872000Y-84328000D02*
X121602500Y-81597500D01*
X76091000Y-85453000D02*
X74567000Y-85453000D01*
X81026000Y-78867000D02*
X81026000Y-80518000D01*
X81770000Y-78123000D02*
X81026000Y-78867000D01*
X121602500Y-79946500D02*
X119779000Y-78123000D01*
X119779000Y-78123000D02*
X81770000Y-78123000D01*
X74567000Y-85453000D02*
X72009000Y-88011000D01*
X81026000Y-80518000D02*
X76091000Y-85453000D01*
X121602500Y-81597500D02*
X121602500Y-79946500D01*
%TO.N,~{MEM8}*%
X119000396Y-76708000D02*
X122052500Y-79760104D01*
X72676000Y-89376000D02*
X70644000Y-89376000D01*
X122052500Y-82816500D02*
X119126000Y-85743000D01*
X122052500Y-79760104D02*
X122052500Y-82816500D01*
X74059000Y-87993000D02*
X72676000Y-89376000D01*
X76218000Y-87993000D02*
X74059000Y-87993000D01*
X118872000Y-76708000D02*
X119000396Y-76708000D01*
X78468000Y-85743000D02*
X76218000Y-87993000D01*
X119126000Y-85743000D02*
X78468000Y-85743000D01*
X70644000Y-89376000D02*
X69469000Y-90551000D01*
%TO.N,~{MEM7}*%
X94035000Y-79248000D02*
X92620000Y-80663000D01*
X99078000Y-80373000D02*
X100203000Y-79248000D01*
X75625009Y-88519000D02*
X76581000Y-88519000D01*
X73593009Y-90551000D02*
X75625009Y-88519000D01*
X78486000Y-86614000D02*
X78867000Y-86614000D01*
X82405000Y-80663000D02*
X79629000Y-83439000D01*
X92620000Y-80663000D02*
X82405000Y-80663000D01*
X72009000Y-90551000D02*
X73593009Y-90551000D01*
X94035000Y-79248000D02*
X95160000Y-80373000D01*
X76581000Y-88519000D02*
X78486000Y-86614000D01*
X95160000Y-80373000D02*
X99078000Y-80373000D01*
X100203000Y-79248000D02*
X104267000Y-79248000D01*
%TO.N,~{MEM6}*%
X103142000Y-87993000D02*
X104267000Y-86868000D01*
X70644000Y-91916000D02*
X78137000Y-91916000D01*
X80137000Y-88011000D02*
X89535000Y-88011000D01*
X69469000Y-93091000D02*
X70644000Y-91916000D01*
X79629000Y-90424000D02*
X79629000Y-88519000D01*
X95160000Y-87993000D02*
X103142000Y-87993000D01*
X79629000Y-88519000D02*
X80137000Y-88011000D01*
X90678000Y-86868000D02*
X94035000Y-86868000D01*
X89535000Y-88011000D02*
X90678000Y-86868000D01*
X94035000Y-86868000D02*
X95160000Y-87993000D01*
X78137000Y-91916000D02*
X79629000Y-90424000D01*
%TO.N,~{MEM5}*%
X77598396Y-93091000D02*
X80336000Y-90353396D01*
X86233000Y-88773000D02*
X86487000Y-88519000D01*
X80336000Y-90353396D02*
X80336000Y-89463000D01*
X86487000Y-88519000D02*
X89663396Y-88519000D01*
X89663396Y-88519000D02*
X89985000Y-88197396D01*
X80336000Y-89463000D02*
X81026000Y-88773000D01*
X86415000Y-84328000D02*
X87540000Y-83203000D01*
X90745604Y-88197396D02*
X91186000Y-87630000D01*
X87540000Y-83203000D02*
X95522000Y-83203000D01*
X72009000Y-93091000D02*
X77598396Y-93091000D01*
X91186000Y-87630000D02*
X91186000Y-87757000D01*
X89985000Y-88197396D02*
X90745604Y-88197396D01*
X81026000Y-88773000D02*
X86233000Y-88773000D01*
X95522000Y-83203000D02*
X96647000Y-84328000D01*
%TO.N,~{MEM4}*%
X90678000Y-76708000D02*
X90932000Y-76454000D01*
X86415000Y-76708000D02*
X90678000Y-76708000D01*
%TO.N,~{MEM1}*%
X80010000Y-84328000D02*
X81153000Y-83185000D01*
X78359000Y-84328000D02*
X80010000Y-84328000D01*
%TO.N,DataPin1*%
X110109000Y-113538000D02*
X110109000Y-115951000D01*
%TO.N,ClockPin1*%
X112649000Y-113538000D02*
X112649000Y-115951000D01*
%TO.N,LatchPin1*%
X115189000Y-113538000D02*
X115189000Y-115951000D01*
%TO.N,DataPin2*%
X117729000Y-113538000D02*
X117729000Y-115951000D01*
%TO.N,DIP4*%
X120269000Y-113538000D02*
X120269000Y-115951000D01*
%TO.N,LatchPin2*%
X134467600Y-113563400D02*
X132664200Y-111760000D01*
X132664200Y-111760000D02*
X132461000Y-111760000D01*
%TO.N,RST1*%
X81661000Y-95244000D02*
X88161000Y-95244000D01*
%TO.N,Addr04*%
X104140000Y-101600000D02*
X104140000Y-100965000D01*
X104140000Y-94361000D02*
X104140000Y-100965000D01*
X100965000Y-104775000D02*
X104140000Y-101600000D01*
%TO.N,Addr05*%
X105664000Y-94742000D02*
X105664000Y-102997000D01*
X105664000Y-102997000D02*
X102997000Y-105664000D01*
%TO.N,Addr06*%
X104267000Y-105410000D02*
X104267000Y-106299000D01*
X102362000Y-93091000D02*
X105038305Y-93091000D01*
X104267000Y-106299000D02*
X103251000Y-107315000D01*
X106389000Y-94441695D02*
X106389000Y-103288000D01*
X105038305Y-93091000D02*
X106389000Y-94441695D01*
X106389000Y-103288000D02*
X104267000Y-105410000D01*
X103251000Y-107315000D02*
X102743000Y-107315000D01*
%TO.N,Addr07*%
X106553000Y-106299000D02*
X106839000Y-106013000D01*
X106426000Y-106299000D02*
X106553000Y-106299000D01*
X106839000Y-106013000D02*
X106839000Y-94255299D01*
X106426000Y-106426000D02*
X106426000Y-106299000D01*
X106839000Y-94255299D02*
X104912701Y-92329000D01*
X104912701Y-92329000D02*
X104013000Y-92329000D01*
%TO.N,Addr10*%
X125984000Y-94361000D02*
X125984000Y-93980000D01*
X123063000Y-97282000D02*
X125984000Y-94361000D01*
%TO.N,Addr13*%
X129268000Y-87739000D02*
X128524000Y-86995000D01*
X129268000Y-95867000D02*
X129268000Y-87739000D01*
X130683000Y-97282000D02*
X129268000Y-95867000D01*
X128524000Y-83312000D02*
X130048000Y-81788000D01*
X128524000Y-86995000D02*
X128524000Y-83312000D01*
%TO.N,Addr14*%
X133223000Y-95504000D02*
X136144000Y-92583000D01*
X133223000Y-97282000D02*
X133223000Y-95504000D01*
%TD*%
M02*
