%TF.GenerationSoftware,KiCad,Pcbnew,7.0.9*%
%TF.CreationDate,2025-02-11T06:26:07-06:00*%
%TF.ProjectId,Piggyback MEM0-7 + Addr,50696767-7962-4616-936b-204d454d302d,rev?*%
%TF.SameCoordinates,Original*%
%TF.FileFunction,Drillmap*%
%TF.FilePolarity,Positive*%
%FSLAX45Y45*%
G04 Gerber Fmt 4.5, Leading zero omitted, Abs format (unit mm)*
G04 Created by KiCad (PCBNEW 7.0.9) date 2025-02-11 06:26:07*
%MOMM*%
%LPD*%
G01*
G04 APERTURE LIST*
%ADD10C,0.100000*%
%ADD11C,0.200000*%
%ADD12C,0.110000*%
G04 APERTURE END LIST*
D10*
X6692900Y-6515100D02*
X14084300Y-6515100D01*
X14084300Y-11861800D01*
X6692900Y-11861800D01*
X6692900Y-6515100D01*
D11*
D10*
X7815900Y-8412800D02*
X7855900Y-8452800D01*
X7855900Y-8412800D02*
X7815900Y-8452800D01*
X7841300Y-9454200D02*
X7881300Y-9494200D01*
X7881300Y-9454200D02*
X7841300Y-9494200D01*
X7866700Y-7993700D02*
X7906700Y-8033700D01*
X7906700Y-7993700D02*
X7866700Y-8033700D01*
X7866700Y-8641400D02*
X7906700Y-8681400D01*
X7906700Y-8641400D02*
X7866700Y-8681400D01*
X7942900Y-8323900D02*
X7982900Y-8363900D01*
X7982900Y-8323900D02*
X7942900Y-8363900D01*
X8095300Y-8298500D02*
X8135300Y-8338500D01*
X8135300Y-8298500D02*
X8095300Y-8338500D01*
X8311200Y-6545900D02*
X8351200Y-6585900D01*
X8351200Y-6545900D02*
X8311200Y-6585900D01*
X9073200Y-7625400D02*
X9113200Y-7665400D01*
X9113200Y-7625400D02*
X9073200Y-7665400D01*
X9098600Y-8743000D02*
X9138600Y-8783000D01*
X9138600Y-8743000D02*
X9098600Y-8783000D01*
X9365300Y-10825800D02*
X9405300Y-10865800D01*
X9405300Y-10825800D02*
X9365300Y-10865800D01*
X10076500Y-10457500D02*
X10116500Y-10497500D01*
X10116500Y-10457500D02*
X10076500Y-10497500D01*
X10216200Y-9289100D02*
X10256200Y-9329100D01*
X10256200Y-9289100D02*
X10216200Y-9329100D01*
X10254300Y-10711500D02*
X10294300Y-10751500D01*
X10294300Y-10711500D02*
X10254300Y-10751500D01*
X10279700Y-10546400D02*
X10319700Y-10586400D01*
X10319700Y-10546400D02*
X10279700Y-10586400D01*
X10381300Y-9212900D02*
X10421300Y-9252900D01*
X10421300Y-9212900D02*
X10381300Y-9252900D01*
X10394000Y-9416100D02*
X10434000Y-9456100D01*
X10434000Y-9416100D02*
X10394000Y-9456100D01*
X10546400Y-9454200D02*
X10586400Y-9494200D01*
X10586400Y-9454200D02*
X10546400Y-9494200D01*
X10622600Y-10609900D02*
X10662600Y-10649900D01*
X10662600Y-10609900D02*
X10622600Y-10649900D01*
X12578400Y-9378000D02*
X12618400Y-9418000D01*
X12618400Y-9378000D02*
X12578400Y-9418000D01*
X13226100Y-11156000D02*
X13266100Y-11196000D01*
X13266100Y-11156000D02*
X13226100Y-11196000D01*
X13594400Y-9238300D02*
X13634400Y-9278300D01*
X13634400Y-9238300D02*
X13594400Y-9278300D01*
X7583800Y-10096500D02*
G75*
G03*
X7583800Y-10096500I-40000J0D01*
G01*
X7583800Y-10350500D02*
G75*
G03*
X7583800Y-10350500I-40000J0D01*
G01*
X7596500Y-7162800D02*
G75*
G03*
X7596500Y-7162800I-40000J0D01*
G01*
X7596500Y-7416800D02*
G75*
G03*
X7596500Y-7416800I-40000J0D01*
G01*
X7596500Y-7670800D02*
G75*
G03*
X7596500Y-7670800I-40000J0D01*
G01*
X7596500Y-7924800D02*
G75*
G03*
X7596500Y-7924800I-40000J0D01*
G01*
X7596500Y-8178800D02*
G75*
G03*
X7596500Y-8178800I-40000J0D01*
G01*
X7596500Y-8432800D02*
G75*
G03*
X7596500Y-8432800I-40000J0D01*
G01*
X7596500Y-8686800D02*
G75*
G03*
X7596500Y-8686800I-40000J0D01*
G01*
X7609200Y-9004300D02*
G75*
G03*
X7609200Y-9004300I-40000J0D01*
G01*
X7863200Y-9004300D02*
G75*
G03*
X7863200Y-9004300I-40000J0D01*
G01*
X7901300Y-9842500D02*
G75*
G03*
X7901300Y-9842500I-40000J0D01*
G01*
X7901300Y-10604500D02*
G75*
G03*
X7901300Y-10604500I-40000J0D01*
G01*
X8155300Y-9842500D02*
G75*
G03*
X8155300Y-9842500I-40000J0D01*
G01*
X8155300Y-10604500D02*
G75*
G03*
X8155300Y-10604500I-40000J0D01*
G01*
X8358500Y-7162800D02*
G75*
G03*
X8358500Y-7162800I-40000J0D01*
G01*
X8358500Y-7416800D02*
G75*
G03*
X8358500Y-7416800I-40000J0D01*
G01*
X8358500Y-7670800D02*
G75*
G03*
X8358500Y-7670800I-40000J0D01*
G01*
X8358500Y-7924800D02*
G75*
G03*
X8358500Y-7924800I-40000J0D01*
G01*
X8358500Y-8178800D02*
G75*
G03*
X8358500Y-8178800I-40000J0D01*
G01*
X8358500Y-8432800D02*
G75*
G03*
X8358500Y-8432800I-40000J0D01*
G01*
X8358500Y-8686800D02*
G75*
G03*
X8358500Y-8686800I-40000J0D01*
G01*
X8409300Y-9842500D02*
G75*
G03*
X8409300Y-9842500I-40000J0D01*
G01*
X8409300Y-10604500D02*
G75*
G03*
X8409300Y-10604500I-40000J0D01*
G01*
X8663300Y-9842500D02*
G75*
G03*
X8663300Y-9842500I-40000J0D01*
G01*
X8663300Y-10604500D02*
G75*
G03*
X8663300Y-10604500I-40000J0D01*
G01*
X8681500Y-7162800D02*
G75*
G03*
X8681500Y-7162800I-40000J0D01*
G01*
X8681500Y-7416800D02*
G75*
G03*
X8681500Y-7416800I-40000J0D01*
G01*
X8681500Y-7670800D02*
G75*
G03*
X8681500Y-7670800I-40000J0D01*
G01*
X8681500Y-7924800D02*
G75*
G03*
X8681500Y-7924800I-40000J0D01*
G01*
X8681500Y-8178800D02*
G75*
G03*
X8681500Y-8178800I-40000J0D01*
G01*
X8681500Y-8432800D02*
G75*
G03*
X8681500Y-8432800I-40000J0D01*
G01*
X8681500Y-8686800D02*
G75*
G03*
X8681500Y-8686800I-40000J0D01*
G01*
X8917300Y-9842500D02*
G75*
G03*
X8917300Y-9842500I-40000J0D01*
G01*
X8917300Y-10604500D02*
G75*
G03*
X8917300Y-10604500I-40000J0D01*
G01*
X9158600Y-9004300D02*
G75*
G03*
X9158600Y-9004300I-40000J0D01*
G01*
X9171300Y-9842500D02*
G75*
G03*
X9171300Y-9842500I-40000J0D01*
G01*
X9171300Y-10604500D02*
G75*
G03*
X9171300Y-10604500I-40000J0D01*
G01*
X9412600Y-9004300D02*
G75*
G03*
X9412600Y-9004300I-40000J0D01*
G01*
X9425300Y-9842500D02*
G75*
G03*
X9425300Y-9842500I-40000J0D01*
G01*
X9425300Y-10604500D02*
G75*
G03*
X9425300Y-10604500I-40000J0D01*
G01*
X9443500Y-7162800D02*
G75*
G03*
X9443500Y-7162800I-40000J0D01*
G01*
X9443500Y-7416800D02*
G75*
G03*
X9443500Y-7416800I-40000J0D01*
G01*
X9443500Y-7670800D02*
G75*
G03*
X9443500Y-7670800I-40000J0D01*
G01*
X9443500Y-7924800D02*
G75*
G03*
X9443500Y-7924800I-40000J0D01*
G01*
X9443500Y-8178800D02*
G75*
G03*
X9443500Y-8178800I-40000J0D01*
G01*
X9443500Y-8432800D02*
G75*
G03*
X9443500Y-8432800I-40000J0D01*
G01*
X9443500Y-8686800D02*
G75*
G03*
X9443500Y-8686800I-40000J0D01*
G01*
X9679300Y-9842500D02*
G75*
G03*
X9679300Y-9842500I-40000J0D01*
G01*
X9679300Y-10604500D02*
G75*
G03*
X9679300Y-10604500I-40000J0D01*
G01*
X9704700Y-7162800D02*
G75*
G03*
X9704700Y-7162800I-40000J0D01*
G01*
X9704700Y-7416800D02*
G75*
G03*
X9704700Y-7416800I-40000J0D01*
G01*
X9704700Y-7670800D02*
G75*
G03*
X9704700Y-7670800I-40000J0D01*
G01*
X9704700Y-7924800D02*
G75*
G03*
X9704700Y-7924800I-40000J0D01*
G01*
X9704700Y-8178800D02*
G75*
G03*
X9704700Y-8178800I-40000J0D01*
G01*
X9704700Y-8432800D02*
G75*
G03*
X9704700Y-8432800I-40000J0D01*
G01*
X9704700Y-8686800D02*
G75*
G03*
X9704700Y-8686800I-40000J0D01*
G01*
X10200000Y-9004300D02*
G75*
G03*
X10200000Y-9004300I-40000J0D01*
G01*
X10454000Y-9004300D02*
G75*
G03*
X10454000Y-9004300I-40000J0D01*
G01*
X10466700Y-7162800D02*
G75*
G03*
X10466700Y-7162800I-40000J0D01*
G01*
X10466700Y-7416800D02*
G75*
G03*
X10466700Y-7416800I-40000J0D01*
G01*
X10466700Y-7670800D02*
G75*
G03*
X10466700Y-7670800I-40000J0D01*
G01*
X10466700Y-7924800D02*
G75*
G03*
X10466700Y-7924800I-40000J0D01*
G01*
X10466700Y-8178800D02*
G75*
G03*
X10466700Y-8178800I-40000J0D01*
G01*
X10466700Y-8432800D02*
G75*
G03*
X10466700Y-8432800I-40000J0D01*
G01*
X10466700Y-8686800D02*
G75*
G03*
X10466700Y-8686800I-40000J0D01*
G01*
X10789700Y-7162800D02*
G75*
G03*
X10789700Y-7162800I-40000J0D01*
G01*
X10789700Y-7416800D02*
G75*
G03*
X10789700Y-7416800I-40000J0D01*
G01*
X10789700Y-7670800D02*
G75*
G03*
X10789700Y-7670800I-40000J0D01*
G01*
X10789700Y-7924800D02*
G75*
G03*
X10789700Y-7924800I-40000J0D01*
G01*
X10789700Y-8178800D02*
G75*
G03*
X10789700Y-8178800I-40000J0D01*
G01*
X10789700Y-8432800D02*
G75*
G03*
X10789700Y-8432800I-40000J0D01*
G01*
X10789700Y-8686800D02*
G75*
G03*
X10789700Y-8686800I-40000J0D01*
G01*
X10809600Y-9004300D02*
G75*
G03*
X10809600Y-9004300I-40000J0D01*
G01*
X10885800Y-9321800D02*
G75*
G03*
X10885800Y-9321800I-40000J0D01*
G01*
X10885800Y-9575800D02*
G75*
G03*
X10885800Y-9575800I-40000J0D01*
G01*
X10885800Y-9829800D02*
G75*
G03*
X10885800Y-9829800I-40000J0D01*
G01*
X10885800Y-10083800D02*
G75*
G03*
X10885800Y-10083800I-40000J0D01*
G01*
X10885800Y-10337800D02*
G75*
G03*
X10885800Y-10337800I-40000J0D01*
G01*
X10885800Y-10591800D02*
G75*
G03*
X10885800Y-10591800I-40000J0D01*
G01*
X10885800Y-10845800D02*
G75*
G03*
X10885800Y-10845800I-40000J0D01*
G01*
X11063600Y-9004300D02*
G75*
G03*
X11063600Y-9004300I-40000J0D01*
G01*
X11393800Y-9004300D02*
G75*
G03*
X11393800Y-9004300I-40000J0D01*
G01*
X11551700Y-7162800D02*
G75*
G03*
X11551700Y-7162800I-40000J0D01*
G01*
X11551700Y-7416800D02*
G75*
G03*
X11551700Y-7416800I-40000J0D01*
G01*
X11551700Y-7670800D02*
G75*
G03*
X11551700Y-7670800I-40000J0D01*
G01*
X11551700Y-7924800D02*
G75*
G03*
X11551700Y-7924800I-40000J0D01*
G01*
X11551700Y-8178800D02*
G75*
G03*
X11551700Y-8178800I-40000J0D01*
G01*
X11551700Y-8432800D02*
G75*
G03*
X11551700Y-8432800I-40000J0D01*
G01*
X11551700Y-8686800D02*
G75*
G03*
X11551700Y-8686800I-40000J0D01*
G01*
X11647800Y-9004300D02*
G75*
G03*
X11647800Y-9004300I-40000J0D01*
G01*
X11647800Y-9321800D02*
G75*
G03*
X11647800Y-9321800I-40000J0D01*
G01*
X11647800Y-9575800D02*
G75*
G03*
X11647800Y-9575800I-40000J0D01*
G01*
X11647800Y-9829800D02*
G75*
G03*
X11647800Y-9829800I-40000J0D01*
G01*
X11647800Y-10083800D02*
G75*
G03*
X11647800Y-10083800I-40000J0D01*
G01*
X11647800Y-10337800D02*
G75*
G03*
X11647800Y-10337800I-40000J0D01*
G01*
X11647800Y-10591800D02*
G75*
G03*
X11647800Y-10591800I-40000J0D01*
G01*
X11647800Y-10845800D02*
G75*
G03*
X11647800Y-10845800I-40000J0D01*
G01*
X11927200Y-7162800D02*
G75*
G03*
X11927200Y-7162800I-40000J0D01*
G01*
X11927200Y-7416800D02*
G75*
G03*
X11927200Y-7416800I-40000J0D01*
G01*
X11927200Y-7670800D02*
G75*
G03*
X11927200Y-7670800I-40000J0D01*
G01*
X11927200Y-7924800D02*
G75*
G03*
X11927200Y-7924800I-40000J0D01*
G01*
X11927200Y-8178800D02*
G75*
G03*
X11927200Y-8178800I-40000J0D01*
G01*
X11927200Y-8432800D02*
G75*
G03*
X11927200Y-8432800I-40000J0D01*
G01*
X11927200Y-8686800D02*
G75*
G03*
X11927200Y-8686800I-40000J0D01*
G01*
X12092300Y-8966200D02*
G75*
G03*
X12092300Y-8966200I-40000J0D01*
G01*
X12092300Y-9728200D02*
G75*
G03*
X12092300Y-9728200I-40000J0D01*
G01*
X12092300Y-10096500D02*
G75*
G03*
X12092300Y-10096500I-40000J0D01*
G01*
X12092300Y-10858500D02*
G75*
G03*
X12092300Y-10858500I-40000J0D01*
G01*
X12346300Y-8966200D02*
G75*
G03*
X12346300Y-8966200I-40000J0D01*
G01*
X12346300Y-9728200D02*
G75*
G03*
X12346300Y-9728200I-40000J0D01*
G01*
X12346300Y-10096500D02*
G75*
G03*
X12346300Y-10096500I-40000J0D01*
G01*
X12346300Y-10858500D02*
G75*
G03*
X12346300Y-10858500I-40000J0D01*
G01*
X12359000Y-6680200D02*
G75*
G03*
X12359000Y-6680200I-40000J0D01*
G01*
X12600300Y-8966200D02*
G75*
G03*
X12600300Y-8966200I-40000J0D01*
G01*
X12600300Y-9728200D02*
G75*
G03*
X12600300Y-9728200I-40000J0D01*
G01*
X12600300Y-10096500D02*
G75*
G03*
X12600300Y-10096500I-40000J0D01*
G01*
X12600300Y-10858500D02*
G75*
G03*
X12600300Y-10858500I-40000J0D01*
G01*
X12613000Y-6680200D02*
G75*
G03*
X12613000Y-6680200I-40000J0D01*
G01*
X12689200Y-7162800D02*
G75*
G03*
X12689200Y-7162800I-40000J0D01*
G01*
X12689200Y-7416800D02*
G75*
G03*
X12689200Y-7416800I-40000J0D01*
G01*
X12689200Y-7670800D02*
G75*
G03*
X12689200Y-7670800I-40000J0D01*
G01*
X12689200Y-7924800D02*
G75*
G03*
X12689200Y-7924800I-40000J0D01*
G01*
X12689200Y-8178800D02*
G75*
G03*
X12689200Y-8178800I-40000J0D01*
G01*
X12689200Y-8432800D02*
G75*
G03*
X12689200Y-8432800I-40000J0D01*
G01*
X12689200Y-8686800D02*
G75*
G03*
X12689200Y-8686800I-40000J0D01*
G01*
X12854300Y-8966200D02*
G75*
G03*
X12854300Y-8966200I-40000J0D01*
G01*
X12854300Y-9728200D02*
G75*
G03*
X12854300Y-9728200I-40000J0D01*
G01*
X12854300Y-10096500D02*
G75*
G03*
X12854300Y-10096500I-40000J0D01*
G01*
X12854300Y-10858500D02*
G75*
G03*
X12854300Y-10858500I-40000J0D01*
G01*
X13044800Y-7162800D02*
G75*
G03*
X13044800Y-7162800I-40000J0D01*
G01*
X13044800Y-7416800D02*
G75*
G03*
X13044800Y-7416800I-40000J0D01*
G01*
X13044800Y-7670800D02*
G75*
G03*
X13044800Y-7670800I-40000J0D01*
G01*
X13044800Y-7924800D02*
G75*
G03*
X13044800Y-7924800I-40000J0D01*
G01*
X13044800Y-8178800D02*
G75*
G03*
X13044800Y-8178800I-40000J0D01*
G01*
X13044800Y-8432800D02*
G75*
G03*
X13044800Y-8432800I-40000J0D01*
G01*
X13044800Y-8686800D02*
G75*
G03*
X13044800Y-8686800I-40000J0D01*
G01*
X13108300Y-8966200D02*
G75*
G03*
X13108300Y-8966200I-40000J0D01*
G01*
X13108300Y-9728200D02*
G75*
G03*
X13108300Y-9728200I-40000J0D01*
G01*
X13260700Y-6680200D02*
G75*
G03*
X13260700Y-6680200I-40000J0D01*
G01*
X13362300Y-8966200D02*
G75*
G03*
X13362300Y-8966200I-40000J0D01*
G01*
X13362300Y-9728200D02*
G75*
G03*
X13362300Y-9728200I-40000J0D01*
G01*
X13514700Y-6680200D02*
G75*
G03*
X13514700Y-6680200I-40000J0D01*
G01*
X13616300Y-8966200D02*
G75*
G03*
X13616300Y-8966200I-40000J0D01*
G01*
X13616300Y-9728200D02*
G75*
G03*
X13616300Y-9728200I-40000J0D01*
G01*
X13616300Y-9994900D02*
G75*
G03*
X13616300Y-9994900I-40000J0D01*
G01*
X13806800Y-7162800D02*
G75*
G03*
X13806800Y-7162800I-40000J0D01*
G01*
X13806800Y-7416800D02*
G75*
G03*
X13806800Y-7416800I-40000J0D01*
G01*
X13806800Y-7670800D02*
G75*
G03*
X13806800Y-7670800I-40000J0D01*
G01*
X13806800Y-7924800D02*
G75*
G03*
X13806800Y-7924800I-40000J0D01*
G01*
X13806800Y-8178800D02*
G75*
G03*
X13806800Y-8178800I-40000J0D01*
G01*
X13806800Y-8432800D02*
G75*
G03*
X13806800Y-8432800I-40000J0D01*
G01*
X13806800Y-8686800D02*
G75*
G03*
X13806800Y-8686800I-40000J0D01*
G01*
X13870300Y-8966200D02*
G75*
G03*
X13870300Y-8966200I-40000J0D01*
G01*
X13870300Y-9728200D02*
G75*
G03*
X13870300Y-9728200I-40000J0D01*
G01*
X13870300Y-9994900D02*
G75*
G03*
X13870300Y-9994900I-40000J0D01*
G01*
X6946900Y-7227100D02*
X6946900Y-7327100D01*
X6896900Y-7277100D02*
X6996900Y-7277100D01*
X6946900Y-7481100D02*
X6946900Y-7581100D01*
X6896900Y-7531100D02*
X6996900Y-7531100D01*
X6946900Y-7735100D02*
X6946900Y-7835100D01*
X6896900Y-7785100D02*
X6996900Y-7785100D01*
X6946900Y-7989100D02*
X6946900Y-8089100D01*
X6896900Y-8039100D02*
X6996900Y-8039100D01*
X6946900Y-8243100D02*
X6946900Y-8343100D01*
X6896900Y-8293100D02*
X6996900Y-8293100D01*
X6946900Y-8497100D02*
X6946900Y-8597100D01*
X6896900Y-8547100D02*
X6996900Y-8547100D01*
X6946900Y-8751100D02*
X6946900Y-8851100D01*
X6896900Y-8801100D02*
X6996900Y-8801100D01*
X6946900Y-9005100D02*
X6946900Y-9105100D01*
X6896900Y-9055100D02*
X6996900Y-9055100D01*
X6946900Y-9259100D02*
X6946900Y-9359100D01*
X6896900Y-9309100D02*
X6996900Y-9309100D01*
X6946900Y-9513100D02*
X6946900Y-9613100D01*
X6896900Y-9563100D02*
X6996900Y-9563100D01*
X6946900Y-9767100D02*
X6946900Y-9867100D01*
X6896900Y-9817100D02*
X6996900Y-9817100D01*
X6946900Y-10021100D02*
X6946900Y-10121100D01*
X6896900Y-10071100D02*
X6996900Y-10071100D01*
X6946900Y-10275100D02*
X6946900Y-10375100D01*
X6896900Y-10325100D02*
X6996900Y-10325100D01*
X6946900Y-10529100D02*
X6946900Y-10629100D01*
X6896900Y-10579100D02*
X6996900Y-10579100D01*
X6946900Y-10783100D02*
X6946900Y-10883100D01*
X6896900Y-10833100D02*
X6996900Y-10833100D01*
X6946900Y-11037100D02*
X6946900Y-11137100D01*
X6896900Y-11087100D02*
X6996900Y-11087100D01*
X6946900Y-11291100D02*
X6946900Y-11391100D01*
X6896900Y-11341100D02*
X6996900Y-11341100D01*
X6946900Y-11545100D02*
X6946900Y-11645100D01*
X6896900Y-11595100D02*
X6996900Y-11595100D01*
X7200900Y-7227100D02*
X7200900Y-7327100D01*
X7150900Y-7277100D02*
X7250900Y-7277100D01*
X7200900Y-7481100D02*
X7200900Y-7581100D01*
X7150900Y-7531100D02*
X7250900Y-7531100D01*
X7200900Y-7735100D02*
X7200900Y-7835100D01*
X7150900Y-7785100D02*
X7250900Y-7785100D01*
X7200900Y-7989100D02*
X7200900Y-8089100D01*
X7150900Y-8039100D02*
X7250900Y-8039100D01*
X7200900Y-8243100D02*
X7200900Y-8343100D01*
X7150900Y-8293100D02*
X7250900Y-8293100D01*
X7200900Y-8497100D02*
X7200900Y-8597100D01*
X7150900Y-8547100D02*
X7250900Y-8547100D01*
X7200900Y-8751100D02*
X7200900Y-8851100D01*
X7150900Y-8801100D02*
X7250900Y-8801100D01*
X7200900Y-9005100D02*
X7200900Y-9105100D01*
X7150900Y-9055100D02*
X7250900Y-9055100D01*
X7200900Y-9259100D02*
X7200900Y-9359100D01*
X7150900Y-9309100D02*
X7250900Y-9309100D01*
X7200900Y-9513100D02*
X7200900Y-9613100D01*
X7150900Y-9563100D02*
X7250900Y-9563100D01*
X7200900Y-9767100D02*
X7200900Y-9867100D01*
X7150900Y-9817100D02*
X7250900Y-9817100D01*
X7200900Y-10021100D02*
X7200900Y-10121100D01*
X7150900Y-10071100D02*
X7250900Y-10071100D01*
X7200900Y-10275100D02*
X7200900Y-10375100D01*
X7150900Y-10325100D02*
X7250900Y-10325100D01*
X7200900Y-10529100D02*
X7200900Y-10629100D01*
X7150900Y-10579100D02*
X7250900Y-10579100D01*
X7200900Y-10783100D02*
X7200900Y-10883100D01*
X7150900Y-10833100D02*
X7250900Y-10833100D01*
X7200900Y-11037100D02*
X7200900Y-11137100D01*
X7150900Y-11087100D02*
X7250900Y-11087100D01*
X7200900Y-11291100D02*
X7200900Y-11391100D01*
X7150900Y-11341100D02*
X7250900Y-11341100D01*
X7200900Y-11545100D02*
X7200900Y-11645100D01*
X7150900Y-11595100D02*
X7250900Y-11595100D01*
X7454900Y-6719100D02*
X7454900Y-6819100D01*
X7404900Y-6769100D02*
X7504900Y-6769100D01*
X7708900Y-6719100D02*
X7708900Y-6819100D01*
X7658900Y-6769100D02*
X7758900Y-6769100D01*
X7962900Y-6719100D02*
X7962900Y-6819100D01*
X7912900Y-6769100D02*
X8012900Y-6769100D01*
X7962900Y-11545100D02*
X7962900Y-11645100D01*
X7912900Y-11595100D02*
X8012900Y-11595100D01*
X8216900Y-6719100D02*
X8216900Y-6819100D01*
X8166900Y-6769100D02*
X8266900Y-6769100D01*
X8216900Y-11545100D02*
X8216900Y-11645100D01*
X8166900Y-11595100D02*
X8266900Y-11595100D01*
X8470900Y-6719100D02*
X8470900Y-6819100D01*
X8420900Y-6769100D02*
X8520900Y-6769100D01*
X8470900Y-11545100D02*
X8470900Y-11645100D01*
X8420900Y-11595100D02*
X8520900Y-11595100D01*
X8724900Y-6719100D02*
X8724900Y-6819100D01*
X8674900Y-6769100D02*
X8774900Y-6769100D01*
X8724900Y-11545100D02*
X8724900Y-11645100D01*
X8674900Y-11595100D02*
X8774900Y-11595100D01*
X8978900Y-6719100D02*
X8978900Y-6819100D01*
X8928900Y-6769100D02*
X9028900Y-6769100D01*
X8978900Y-11545100D02*
X8978900Y-11645100D01*
X8928900Y-11595100D02*
X9028900Y-11595100D01*
X9232900Y-6719100D02*
X9232900Y-6819100D01*
X9182900Y-6769100D02*
X9282900Y-6769100D01*
X9232900Y-11545100D02*
X9232900Y-11645100D01*
X9182900Y-11595100D02*
X9282900Y-11595100D01*
X9486900Y-6719100D02*
X9486900Y-6819100D01*
X9436900Y-6769100D02*
X9536900Y-6769100D01*
X9486900Y-11545100D02*
X9486900Y-11645100D01*
X9436900Y-11595100D02*
X9536900Y-11595100D01*
X9740900Y-6719100D02*
X9740900Y-6819100D01*
X9690900Y-6769100D02*
X9790900Y-6769100D01*
X9740900Y-11545100D02*
X9740900Y-11645100D01*
X9690900Y-11595100D02*
X9790900Y-11595100D01*
X9994900Y-6719100D02*
X9994900Y-6819100D01*
X9944900Y-6769100D02*
X10044900Y-6769100D01*
X10248900Y-6719100D02*
X10248900Y-6819100D01*
X10198900Y-6769100D02*
X10298900Y-6769100D01*
X10248900Y-11545100D02*
X10248900Y-11645100D01*
X10198900Y-11595100D02*
X10298900Y-11595100D01*
X10502900Y-6719100D02*
X10502900Y-6819100D01*
X10452900Y-6769100D02*
X10552900Y-6769100D01*
X10502900Y-11545100D02*
X10502900Y-11645100D01*
X10452900Y-11595100D02*
X10552900Y-11595100D01*
X10756900Y-6719100D02*
X10756900Y-6819100D01*
X10706900Y-6769100D02*
X10806900Y-6769100D01*
X10756900Y-11545100D02*
X10756900Y-11645100D01*
X10706900Y-11595100D02*
X10806900Y-11595100D01*
X11010900Y-6719100D02*
X11010900Y-6819100D01*
X10960900Y-6769100D02*
X11060900Y-6769100D01*
X11010900Y-11303800D02*
X11010900Y-11403800D01*
X10960900Y-11353800D02*
X11060900Y-11353800D01*
X11010900Y-11545100D02*
X11010900Y-11645100D01*
X10960900Y-11595100D02*
X11060900Y-11595100D01*
X11264900Y-6719100D02*
X11264900Y-6819100D01*
X11214900Y-6769100D02*
X11314900Y-6769100D01*
X11264900Y-11303800D02*
X11264900Y-11403800D01*
X11214900Y-11353800D02*
X11314900Y-11353800D01*
X11264900Y-11545100D02*
X11264900Y-11645100D01*
X11214900Y-11595100D02*
X11314900Y-11595100D01*
X11518900Y-6719100D02*
X11518900Y-6819100D01*
X11468900Y-6769100D02*
X11568900Y-6769100D01*
X11518900Y-11303800D02*
X11518900Y-11403800D01*
X11468900Y-11353800D02*
X11568900Y-11353800D01*
X11518900Y-11545100D02*
X11518900Y-11645100D01*
X11468900Y-11595100D02*
X11568900Y-11595100D01*
X11772900Y-11303800D02*
X11772900Y-11403800D01*
X11722900Y-11353800D02*
X11822900Y-11353800D01*
X11772900Y-11545100D02*
X11772900Y-11645100D01*
X11722900Y-11595100D02*
X11822900Y-11595100D01*
X12026900Y-11303800D02*
X12026900Y-11403800D01*
X11976900Y-11353800D02*
X12076900Y-11353800D01*
X12026900Y-11545100D02*
X12026900Y-11645100D01*
X11976900Y-11595100D02*
X12076900Y-11595100D01*
X12430760Y-11306340D02*
X12430760Y-11406340D01*
X12380760Y-11356340D02*
X12480760Y-11356340D01*
X12684760Y-11306340D02*
X12684760Y-11406340D01*
X12634760Y-11356340D02*
X12734760Y-11356340D01*
X12938760Y-11306340D02*
X12938760Y-11406340D01*
X12888760Y-11356340D02*
X12988760Y-11356340D01*
X13192760Y-11306340D02*
X13192760Y-11406340D01*
X13142760Y-11356340D02*
X13242760Y-11356340D01*
X13446760Y-11306340D02*
X13446760Y-11406340D01*
X13396760Y-11356340D02*
X13496760Y-11356340D01*
X13700760Y-11306340D02*
X13700760Y-11406340D01*
X13650760Y-11356340D02*
X13750760Y-11356340D01*
D12*
X8204991Y-9113291D02*
X8204991Y-9035509D01*
X8127209Y-9035509D01*
X8127209Y-9113291D01*
X8204991Y-9113291D01*
X8204991Y-9563291D02*
X8204991Y-9485509D01*
X8127209Y-9485509D01*
X8127209Y-9563291D01*
X8204991Y-9563291D01*
X8854991Y-9113291D02*
X8854991Y-9035509D01*
X8777209Y-9035509D01*
X8777209Y-9113291D01*
X8854991Y-9113291D01*
X8854991Y-9563291D02*
X8854991Y-9485509D01*
X8777209Y-9485509D01*
X8777209Y-9563291D01*
X8854991Y-9563291D01*
D11*
X6948677Y-12178284D02*
X6948677Y-11978284D01*
X6948677Y-11978284D02*
X6996296Y-11978284D01*
X6996296Y-11978284D02*
X7024867Y-11987808D01*
X7024867Y-11987808D02*
X7043915Y-12006855D01*
X7043915Y-12006855D02*
X7053439Y-12025903D01*
X7053439Y-12025903D02*
X7062962Y-12063998D01*
X7062962Y-12063998D02*
X7062962Y-12092569D01*
X7062962Y-12092569D02*
X7053439Y-12130665D01*
X7053439Y-12130665D02*
X7043915Y-12149712D01*
X7043915Y-12149712D02*
X7024867Y-12168760D01*
X7024867Y-12168760D02*
X6996296Y-12178284D01*
X6996296Y-12178284D02*
X6948677Y-12178284D01*
X7148677Y-12178284D02*
X7148677Y-12044950D01*
X7148677Y-12083046D02*
X7158201Y-12063998D01*
X7158201Y-12063998D02*
X7167724Y-12054474D01*
X7167724Y-12054474D02*
X7186772Y-12044950D01*
X7186772Y-12044950D02*
X7205820Y-12044950D01*
X7272486Y-12178284D02*
X7272486Y-12044950D01*
X7272486Y-11978284D02*
X7262962Y-11987808D01*
X7262962Y-11987808D02*
X7272486Y-11997331D01*
X7272486Y-11997331D02*
X7282010Y-11987808D01*
X7282010Y-11987808D02*
X7272486Y-11978284D01*
X7272486Y-11978284D02*
X7272486Y-11997331D01*
X7396296Y-12178284D02*
X7377248Y-12168760D01*
X7377248Y-12168760D02*
X7367724Y-12149712D01*
X7367724Y-12149712D02*
X7367724Y-11978284D01*
X7501058Y-12178284D02*
X7482010Y-12168760D01*
X7482010Y-12168760D02*
X7472486Y-12149712D01*
X7472486Y-12149712D02*
X7472486Y-11978284D01*
X7729629Y-12178284D02*
X7729629Y-11978284D01*
X7729629Y-11978284D02*
X7796296Y-12121141D01*
X7796296Y-12121141D02*
X7862962Y-11978284D01*
X7862962Y-11978284D02*
X7862962Y-12178284D01*
X8043915Y-12178284D02*
X8043915Y-12073522D01*
X8043915Y-12073522D02*
X8034391Y-12054474D01*
X8034391Y-12054474D02*
X8015343Y-12044950D01*
X8015343Y-12044950D02*
X7977248Y-12044950D01*
X7977248Y-12044950D02*
X7958201Y-12054474D01*
X8043915Y-12168760D02*
X8024867Y-12178284D01*
X8024867Y-12178284D02*
X7977248Y-12178284D01*
X7977248Y-12178284D02*
X7958201Y-12168760D01*
X7958201Y-12168760D02*
X7948677Y-12149712D01*
X7948677Y-12149712D02*
X7948677Y-12130665D01*
X7948677Y-12130665D02*
X7958201Y-12111617D01*
X7958201Y-12111617D02*
X7977248Y-12102093D01*
X7977248Y-12102093D02*
X8024867Y-12102093D01*
X8024867Y-12102093D02*
X8043915Y-12092569D01*
X8139153Y-12044950D02*
X8139153Y-12244950D01*
X8139153Y-12054474D02*
X8158201Y-12044950D01*
X8158201Y-12044950D02*
X8196296Y-12044950D01*
X8196296Y-12044950D02*
X8215343Y-12054474D01*
X8215343Y-12054474D02*
X8224867Y-12063998D01*
X8224867Y-12063998D02*
X8234391Y-12083046D01*
X8234391Y-12083046D02*
X8234391Y-12140188D01*
X8234391Y-12140188D02*
X8224867Y-12159236D01*
X8224867Y-12159236D02*
X8215343Y-12168760D01*
X8215343Y-12168760D02*
X8196296Y-12178284D01*
X8196296Y-12178284D02*
X8158201Y-12178284D01*
X8158201Y-12178284D02*
X8139153Y-12168760D01*
X8320105Y-12159236D02*
X8329629Y-12168760D01*
X8329629Y-12168760D02*
X8320105Y-12178284D01*
X8320105Y-12178284D02*
X8310582Y-12168760D01*
X8310582Y-12168760D02*
X8320105Y-12159236D01*
X8320105Y-12159236D02*
X8320105Y-12178284D01*
X8320105Y-12054474D02*
X8329629Y-12063998D01*
X8329629Y-12063998D02*
X8320105Y-12073522D01*
X8320105Y-12073522D02*
X8310582Y-12063998D01*
X8310582Y-12063998D02*
X8320105Y-12054474D01*
X8320105Y-12054474D02*
X8320105Y-12073522D01*
D10*
X6647900Y-12486800D02*
X6687900Y-12526800D01*
X6687900Y-12486800D02*
X6647900Y-12526800D01*
D11*
X6986772Y-12398284D02*
X7005820Y-12398284D01*
X7005820Y-12398284D02*
X7024867Y-12407808D01*
X7024867Y-12407808D02*
X7034391Y-12417331D01*
X7034391Y-12417331D02*
X7043915Y-12436379D01*
X7043915Y-12436379D02*
X7053439Y-12474474D01*
X7053439Y-12474474D02*
X7053439Y-12522093D01*
X7053439Y-12522093D02*
X7043915Y-12560188D01*
X7043915Y-12560188D02*
X7034391Y-12579236D01*
X7034391Y-12579236D02*
X7024867Y-12588760D01*
X7024867Y-12588760D02*
X7005820Y-12598284D01*
X7005820Y-12598284D02*
X6986772Y-12598284D01*
X6986772Y-12598284D02*
X6967724Y-12588760D01*
X6967724Y-12588760D02*
X6958201Y-12579236D01*
X6958201Y-12579236D02*
X6948677Y-12560188D01*
X6948677Y-12560188D02*
X6939153Y-12522093D01*
X6939153Y-12522093D02*
X6939153Y-12474474D01*
X6939153Y-12474474D02*
X6948677Y-12436379D01*
X6948677Y-12436379D02*
X6958201Y-12417331D01*
X6958201Y-12417331D02*
X6967724Y-12407808D01*
X6967724Y-12407808D02*
X6986772Y-12398284D01*
X7139153Y-12579236D02*
X7148677Y-12588760D01*
X7148677Y-12588760D02*
X7139153Y-12598284D01*
X7139153Y-12598284D02*
X7129629Y-12588760D01*
X7129629Y-12588760D02*
X7139153Y-12579236D01*
X7139153Y-12579236D02*
X7139153Y-12598284D01*
X7320105Y-12464950D02*
X7320105Y-12598284D01*
X7272486Y-12388760D02*
X7224867Y-12531617D01*
X7224867Y-12531617D02*
X7348677Y-12531617D01*
X7462962Y-12398284D02*
X7482010Y-12398284D01*
X7482010Y-12398284D02*
X7501058Y-12407808D01*
X7501058Y-12407808D02*
X7510582Y-12417331D01*
X7510582Y-12417331D02*
X7520105Y-12436379D01*
X7520105Y-12436379D02*
X7529629Y-12474474D01*
X7529629Y-12474474D02*
X7529629Y-12522093D01*
X7529629Y-12522093D02*
X7520105Y-12560188D01*
X7520105Y-12560188D02*
X7510582Y-12579236D01*
X7510582Y-12579236D02*
X7501058Y-12588760D01*
X7501058Y-12588760D02*
X7482010Y-12598284D01*
X7482010Y-12598284D02*
X7462962Y-12598284D01*
X7462962Y-12598284D02*
X7443915Y-12588760D01*
X7443915Y-12588760D02*
X7434391Y-12579236D01*
X7434391Y-12579236D02*
X7424867Y-12560188D01*
X7424867Y-12560188D02*
X7415343Y-12522093D01*
X7415343Y-12522093D02*
X7415343Y-12474474D01*
X7415343Y-12474474D02*
X7424867Y-12436379D01*
X7424867Y-12436379D02*
X7434391Y-12417331D01*
X7434391Y-12417331D02*
X7443915Y-12407808D01*
X7443915Y-12407808D02*
X7462962Y-12398284D01*
X7653439Y-12398284D02*
X7672486Y-12398284D01*
X7672486Y-12398284D02*
X7691534Y-12407808D01*
X7691534Y-12407808D02*
X7701058Y-12417331D01*
X7701058Y-12417331D02*
X7710582Y-12436379D01*
X7710582Y-12436379D02*
X7720105Y-12474474D01*
X7720105Y-12474474D02*
X7720105Y-12522093D01*
X7720105Y-12522093D02*
X7710582Y-12560188D01*
X7710582Y-12560188D02*
X7701058Y-12579236D01*
X7701058Y-12579236D02*
X7691534Y-12588760D01*
X7691534Y-12588760D02*
X7672486Y-12598284D01*
X7672486Y-12598284D02*
X7653439Y-12598284D01*
X7653439Y-12598284D02*
X7634391Y-12588760D01*
X7634391Y-12588760D02*
X7624867Y-12579236D01*
X7624867Y-12579236D02*
X7615343Y-12560188D01*
X7615343Y-12560188D02*
X7605820Y-12522093D01*
X7605820Y-12522093D02*
X7605820Y-12474474D01*
X7605820Y-12474474D02*
X7615343Y-12436379D01*
X7615343Y-12436379D02*
X7624867Y-12417331D01*
X7624867Y-12417331D02*
X7634391Y-12407808D01*
X7634391Y-12407808D02*
X7653439Y-12398284D01*
X7805820Y-12598284D02*
X7805820Y-12464950D01*
X7805820Y-12483998D02*
X7815343Y-12474474D01*
X7815343Y-12474474D02*
X7834391Y-12464950D01*
X7834391Y-12464950D02*
X7862963Y-12464950D01*
X7862963Y-12464950D02*
X7882010Y-12474474D01*
X7882010Y-12474474D02*
X7891534Y-12493522D01*
X7891534Y-12493522D02*
X7891534Y-12598284D01*
X7891534Y-12493522D02*
X7901058Y-12474474D01*
X7901058Y-12474474D02*
X7920105Y-12464950D01*
X7920105Y-12464950D02*
X7948677Y-12464950D01*
X7948677Y-12464950D02*
X7967724Y-12474474D01*
X7967724Y-12474474D02*
X7977248Y-12493522D01*
X7977248Y-12493522D02*
X7977248Y-12598284D01*
X8072486Y-12598284D02*
X8072486Y-12464950D01*
X8072486Y-12483998D02*
X8082010Y-12474474D01*
X8082010Y-12474474D02*
X8101058Y-12464950D01*
X8101058Y-12464950D02*
X8129629Y-12464950D01*
X8129629Y-12464950D02*
X8148677Y-12474474D01*
X8148677Y-12474474D02*
X8158201Y-12493522D01*
X8158201Y-12493522D02*
X8158201Y-12598284D01*
X8158201Y-12493522D02*
X8167724Y-12474474D01*
X8167724Y-12474474D02*
X8186772Y-12464950D01*
X8186772Y-12464950D02*
X8215343Y-12464950D01*
X8215343Y-12464950D02*
X8234391Y-12474474D01*
X8234391Y-12474474D02*
X8243915Y-12493522D01*
X8243915Y-12493522D02*
X8243915Y-12598284D01*
X8634391Y-12388760D02*
X8462963Y-12645903D01*
X8891534Y-12398284D02*
X8910582Y-12398284D01*
X8910582Y-12398284D02*
X8929629Y-12407808D01*
X8929629Y-12407808D02*
X8939153Y-12417331D01*
X8939153Y-12417331D02*
X8948677Y-12436379D01*
X8948677Y-12436379D02*
X8958201Y-12474474D01*
X8958201Y-12474474D02*
X8958201Y-12522093D01*
X8958201Y-12522093D02*
X8948677Y-12560188D01*
X8948677Y-12560188D02*
X8939153Y-12579236D01*
X8939153Y-12579236D02*
X8929629Y-12588760D01*
X8929629Y-12588760D02*
X8910582Y-12598284D01*
X8910582Y-12598284D02*
X8891534Y-12598284D01*
X8891534Y-12598284D02*
X8872487Y-12588760D01*
X8872487Y-12588760D02*
X8862963Y-12579236D01*
X8862963Y-12579236D02*
X8853439Y-12560188D01*
X8853439Y-12560188D02*
X8843915Y-12522093D01*
X8843915Y-12522093D02*
X8843915Y-12474474D01*
X8843915Y-12474474D02*
X8853439Y-12436379D01*
X8853439Y-12436379D02*
X8862963Y-12417331D01*
X8862963Y-12417331D02*
X8872487Y-12407808D01*
X8872487Y-12407808D02*
X8891534Y-12398284D01*
X9043915Y-12579236D02*
X9053439Y-12588760D01*
X9053439Y-12588760D02*
X9043915Y-12598284D01*
X9043915Y-12598284D02*
X9034391Y-12588760D01*
X9034391Y-12588760D02*
X9043915Y-12579236D01*
X9043915Y-12579236D02*
X9043915Y-12598284D01*
X9177248Y-12398284D02*
X9196296Y-12398284D01*
X9196296Y-12398284D02*
X9215344Y-12407808D01*
X9215344Y-12407808D02*
X9224868Y-12417331D01*
X9224868Y-12417331D02*
X9234391Y-12436379D01*
X9234391Y-12436379D02*
X9243915Y-12474474D01*
X9243915Y-12474474D02*
X9243915Y-12522093D01*
X9243915Y-12522093D02*
X9234391Y-12560188D01*
X9234391Y-12560188D02*
X9224868Y-12579236D01*
X9224868Y-12579236D02*
X9215344Y-12588760D01*
X9215344Y-12588760D02*
X9196296Y-12598284D01*
X9196296Y-12598284D02*
X9177248Y-12598284D01*
X9177248Y-12598284D02*
X9158201Y-12588760D01*
X9158201Y-12588760D02*
X9148677Y-12579236D01*
X9148677Y-12579236D02*
X9139153Y-12560188D01*
X9139153Y-12560188D02*
X9129629Y-12522093D01*
X9129629Y-12522093D02*
X9129629Y-12474474D01*
X9129629Y-12474474D02*
X9139153Y-12436379D01*
X9139153Y-12436379D02*
X9148677Y-12417331D01*
X9148677Y-12417331D02*
X9158201Y-12407808D01*
X9158201Y-12407808D02*
X9177248Y-12398284D01*
X9434391Y-12598284D02*
X9320106Y-12598284D01*
X9377248Y-12598284D02*
X9377248Y-12398284D01*
X9377248Y-12398284D02*
X9358201Y-12426855D01*
X9358201Y-12426855D02*
X9339153Y-12445903D01*
X9339153Y-12445903D02*
X9320106Y-12455427D01*
X9615344Y-12398284D02*
X9520106Y-12398284D01*
X9520106Y-12398284D02*
X9510582Y-12493522D01*
X9510582Y-12493522D02*
X9520106Y-12483998D01*
X9520106Y-12483998D02*
X9539153Y-12474474D01*
X9539153Y-12474474D02*
X9586772Y-12474474D01*
X9586772Y-12474474D02*
X9605820Y-12483998D01*
X9605820Y-12483998D02*
X9615344Y-12493522D01*
X9615344Y-12493522D02*
X9624868Y-12512569D01*
X9624868Y-12512569D02*
X9624868Y-12560188D01*
X9624868Y-12560188D02*
X9615344Y-12579236D01*
X9615344Y-12579236D02*
X9605820Y-12588760D01*
X9605820Y-12588760D02*
X9586772Y-12598284D01*
X9586772Y-12598284D02*
X9539153Y-12598284D01*
X9539153Y-12598284D02*
X9520106Y-12588760D01*
X9520106Y-12588760D02*
X9510582Y-12579236D01*
X9691534Y-12398284D02*
X9824868Y-12398284D01*
X9824868Y-12398284D02*
X9739153Y-12598284D01*
X9891534Y-12398284D02*
X9891534Y-12436379D01*
X9967725Y-12398284D02*
X9967725Y-12436379D01*
X10262963Y-12674474D02*
X10253439Y-12664950D01*
X10253439Y-12664950D02*
X10234391Y-12636379D01*
X10234391Y-12636379D02*
X10224868Y-12617331D01*
X10224868Y-12617331D02*
X10215344Y-12588760D01*
X10215344Y-12588760D02*
X10205820Y-12541141D01*
X10205820Y-12541141D02*
X10205820Y-12503046D01*
X10205820Y-12503046D02*
X10215344Y-12455427D01*
X10215344Y-12455427D02*
X10224868Y-12426855D01*
X10224868Y-12426855D02*
X10234391Y-12407808D01*
X10234391Y-12407808D02*
X10253439Y-12379236D01*
X10253439Y-12379236D02*
X10262963Y-12369712D01*
X10329630Y-12417331D02*
X10339153Y-12407808D01*
X10339153Y-12407808D02*
X10358201Y-12398284D01*
X10358201Y-12398284D02*
X10405820Y-12398284D01*
X10405820Y-12398284D02*
X10424868Y-12407808D01*
X10424868Y-12407808D02*
X10434391Y-12417331D01*
X10434391Y-12417331D02*
X10443915Y-12436379D01*
X10443915Y-12436379D02*
X10443915Y-12455427D01*
X10443915Y-12455427D02*
X10434391Y-12483998D01*
X10434391Y-12483998D02*
X10320106Y-12598284D01*
X10320106Y-12598284D02*
X10443915Y-12598284D01*
X10634391Y-12598284D02*
X10520106Y-12598284D01*
X10577249Y-12598284D02*
X10577249Y-12398284D01*
X10577249Y-12398284D02*
X10558201Y-12426855D01*
X10558201Y-12426855D02*
X10539153Y-12445903D01*
X10539153Y-12445903D02*
X10520106Y-12455427D01*
X10872487Y-12598284D02*
X10872487Y-12398284D01*
X10958201Y-12598284D02*
X10958201Y-12493522D01*
X10958201Y-12493522D02*
X10948677Y-12474474D01*
X10948677Y-12474474D02*
X10929630Y-12464950D01*
X10929630Y-12464950D02*
X10901058Y-12464950D01*
X10901058Y-12464950D02*
X10882011Y-12474474D01*
X10882011Y-12474474D02*
X10872487Y-12483998D01*
X11082011Y-12598284D02*
X11062963Y-12588760D01*
X11062963Y-12588760D02*
X11053439Y-12579236D01*
X11053439Y-12579236D02*
X11043915Y-12560188D01*
X11043915Y-12560188D02*
X11043915Y-12503046D01*
X11043915Y-12503046D02*
X11053439Y-12483998D01*
X11053439Y-12483998D02*
X11062963Y-12474474D01*
X11062963Y-12474474D02*
X11082011Y-12464950D01*
X11082011Y-12464950D02*
X11110582Y-12464950D01*
X11110582Y-12464950D02*
X11129630Y-12474474D01*
X11129630Y-12474474D02*
X11139153Y-12483998D01*
X11139153Y-12483998D02*
X11148677Y-12503046D01*
X11148677Y-12503046D02*
X11148677Y-12560188D01*
X11148677Y-12560188D02*
X11139153Y-12579236D01*
X11139153Y-12579236D02*
X11129630Y-12588760D01*
X11129630Y-12588760D02*
X11110582Y-12598284D01*
X11110582Y-12598284D02*
X11082011Y-12598284D01*
X11262963Y-12598284D02*
X11243915Y-12588760D01*
X11243915Y-12588760D02*
X11234391Y-12569712D01*
X11234391Y-12569712D02*
X11234391Y-12398284D01*
X11415344Y-12588760D02*
X11396296Y-12598284D01*
X11396296Y-12598284D02*
X11358201Y-12598284D01*
X11358201Y-12598284D02*
X11339153Y-12588760D01*
X11339153Y-12588760D02*
X11329630Y-12569712D01*
X11329630Y-12569712D02*
X11329630Y-12493522D01*
X11329630Y-12493522D02*
X11339153Y-12474474D01*
X11339153Y-12474474D02*
X11358201Y-12464950D01*
X11358201Y-12464950D02*
X11396296Y-12464950D01*
X11396296Y-12464950D02*
X11415344Y-12474474D01*
X11415344Y-12474474D02*
X11424868Y-12493522D01*
X11424868Y-12493522D02*
X11424868Y-12512569D01*
X11424868Y-12512569D02*
X11329630Y-12531617D01*
X11501058Y-12588760D02*
X11520106Y-12598284D01*
X11520106Y-12598284D02*
X11558201Y-12598284D01*
X11558201Y-12598284D02*
X11577249Y-12588760D01*
X11577249Y-12588760D02*
X11586772Y-12569712D01*
X11586772Y-12569712D02*
X11586772Y-12560188D01*
X11586772Y-12560188D02*
X11577249Y-12541141D01*
X11577249Y-12541141D02*
X11558201Y-12531617D01*
X11558201Y-12531617D02*
X11529630Y-12531617D01*
X11529630Y-12531617D02*
X11510582Y-12522093D01*
X11510582Y-12522093D02*
X11501058Y-12503046D01*
X11501058Y-12503046D02*
X11501058Y-12493522D01*
X11501058Y-12493522D02*
X11510582Y-12474474D01*
X11510582Y-12474474D02*
X11529630Y-12464950D01*
X11529630Y-12464950D02*
X11558201Y-12464950D01*
X11558201Y-12464950D02*
X11577249Y-12474474D01*
X11653439Y-12674474D02*
X11662963Y-12664950D01*
X11662963Y-12664950D02*
X11682011Y-12636379D01*
X11682011Y-12636379D02*
X11691534Y-12617331D01*
X11691534Y-12617331D02*
X11701058Y-12588760D01*
X11701058Y-12588760D02*
X11710582Y-12541141D01*
X11710582Y-12541141D02*
X11710582Y-12503046D01*
X11710582Y-12503046D02*
X11701058Y-12455427D01*
X11701058Y-12455427D02*
X11691534Y-12426855D01*
X11691534Y-12426855D02*
X11682011Y-12407808D01*
X11682011Y-12407808D02*
X11662963Y-12379236D01*
X11662963Y-12379236D02*
X11653439Y-12369712D01*
D10*
X6687900Y-12770800D02*
G75*
G03*
X6687900Y-12770800I-40000J0D01*
G01*
D11*
X6986772Y-12662284D02*
X7005820Y-12662284D01*
X7005820Y-12662284D02*
X7024867Y-12671808D01*
X7024867Y-12671808D02*
X7034391Y-12681331D01*
X7034391Y-12681331D02*
X7043915Y-12700379D01*
X7043915Y-12700379D02*
X7053439Y-12738474D01*
X7053439Y-12738474D02*
X7053439Y-12786093D01*
X7053439Y-12786093D02*
X7043915Y-12824188D01*
X7043915Y-12824188D02*
X7034391Y-12843236D01*
X7034391Y-12843236D02*
X7024867Y-12852760D01*
X7024867Y-12852760D02*
X7005820Y-12862284D01*
X7005820Y-12862284D02*
X6986772Y-12862284D01*
X6986772Y-12862284D02*
X6967724Y-12852760D01*
X6967724Y-12852760D02*
X6958201Y-12843236D01*
X6958201Y-12843236D02*
X6948677Y-12824188D01*
X6948677Y-12824188D02*
X6939153Y-12786093D01*
X6939153Y-12786093D02*
X6939153Y-12738474D01*
X6939153Y-12738474D02*
X6948677Y-12700379D01*
X6948677Y-12700379D02*
X6958201Y-12681331D01*
X6958201Y-12681331D02*
X6967724Y-12671808D01*
X6967724Y-12671808D02*
X6986772Y-12662284D01*
X7139153Y-12843236D02*
X7148677Y-12852760D01*
X7148677Y-12852760D02*
X7139153Y-12862284D01*
X7139153Y-12862284D02*
X7129629Y-12852760D01*
X7129629Y-12852760D02*
X7139153Y-12843236D01*
X7139153Y-12843236D02*
X7139153Y-12862284D01*
X7262962Y-12747998D02*
X7243915Y-12738474D01*
X7243915Y-12738474D02*
X7234391Y-12728950D01*
X7234391Y-12728950D02*
X7224867Y-12709903D01*
X7224867Y-12709903D02*
X7224867Y-12700379D01*
X7224867Y-12700379D02*
X7234391Y-12681331D01*
X7234391Y-12681331D02*
X7243915Y-12671808D01*
X7243915Y-12671808D02*
X7262962Y-12662284D01*
X7262962Y-12662284D02*
X7301058Y-12662284D01*
X7301058Y-12662284D02*
X7320105Y-12671808D01*
X7320105Y-12671808D02*
X7329629Y-12681331D01*
X7329629Y-12681331D02*
X7339153Y-12700379D01*
X7339153Y-12700379D02*
X7339153Y-12709903D01*
X7339153Y-12709903D02*
X7329629Y-12728950D01*
X7329629Y-12728950D02*
X7320105Y-12738474D01*
X7320105Y-12738474D02*
X7301058Y-12747998D01*
X7301058Y-12747998D02*
X7262962Y-12747998D01*
X7262962Y-12747998D02*
X7243915Y-12757522D01*
X7243915Y-12757522D02*
X7234391Y-12767046D01*
X7234391Y-12767046D02*
X7224867Y-12786093D01*
X7224867Y-12786093D02*
X7224867Y-12824188D01*
X7224867Y-12824188D02*
X7234391Y-12843236D01*
X7234391Y-12843236D02*
X7243915Y-12852760D01*
X7243915Y-12852760D02*
X7262962Y-12862284D01*
X7262962Y-12862284D02*
X7301058Y-12862284D01*
X7301058Y-12862284D02*
X7320105Y-12852760D01*
X7320105Y-12852760D02*
X7329629Y-12843236D01*
X7329629Y-12843236D02*
X7339153Y-12824188D01*
X7339153Y-12824188D02*
X7339153Y-12786093D01*
X7339153Y-12786093D02*
X7329629Y-12767046D01*
X7329629Y-12767046D02*
X7320105Y-12757522D01*
X7320105Y-12757522D02*
X7301058Y-12747998D01*
X7462962Y-12662284D02*
X7482010Y-12662284D01*
X7482010Y-12662284D02*
X7501058Y-12671808D01*
X7501058Y-12671808D02*
X7510582Y-12681331D01*
X7510582Y-12681331D02*
X7520105Y-12700379D01*
X7520105Y-12700379D02*
X7529629Y-12738474D01*
X7529629Y-12738474D02*
X7529629Y-12786093D01*
X7529629Y-12786093D02*
X7520105Y-12824188D01*
X7520105Y-12824188D02*
X7510582Y-12843236D01*
X7510582Y-12843236D02*
X7501058Y-12852760D01*
X7501058Y-12852760D02*
X7482010Y-12862284D01*
X7482010Y-12862284D02*
X7462962Y-12862284D01*
X7462962Y-12862284D02*
X7443915Y-12852760D01*
X7443915Y-12852760D02*
X7434391Y-12843236D01*
X7434391Y-12843236D02*
X7424867Y-12824188D01*
X7424867Y-12824188D02*
X7415343Y-12786093D01*
X7415343Y-12786093D02*
X7415343Y-12738474D01*
X7415343Y-12738474D02*
X7424867Y-12700379D01*
X7424867Y-12700379D02*
X7434391Y-12681331D01*
X7434391Y-12681331D02*
X7443915Y-12671808D01*
X7443915Y-12671808D02*
X7462962Y-12662284D01*
X7653439Y-12662284D02*
X7672486Y-12662284D01*
X7672486Y-12662284D02*
X7691534Y-12671808D01*
X7691534Y-12671808D02*
X7701058Y-12681331D01*
X7701058Y-12681331D02*
X7710582Y-12700379D01*
X7710582Y-12700379D02*
X7720105Y-12738474D01*
X7720105Y-12738474D02*
X7720105Y-12786093D01*
X7720105Y-12786093D02*
X7710582Y-12824188D01*
X7710582Y-12824188D02*
X7701058Y-12843236D01*
X7701058Y-12843236D02*
X7691534Y-12852760D01*
X7691534Y-12852760D02*
X7672486Y-12862284D01*
X7672486Y-12862284D02*
X7653439Y-12862284D01*
X7653439Y-12862284D02*
X7634391Y-12852760D01*
X7634391Y-12852760D02*
X7624867Y-12843236D01*
X7624867Y-12843236D02*
X7615343Y-12824188D01*
X7615343Y-12824188D02*
X7605820Y-12786093D01*
X7605820Y-12786093D02*
X7605820Y-12738474D01*
X7605820Y-12738474D02*
X7615343Y-12700379D01*
X7615343Y-12700379D02*
X7624867Y-12681331D01*
X7624867Y-12681331D02*
X7634391Y-12671808D01*
X7634391Y-12671808D02*
X7653439Y-12662284D01*
X7805820Y-12862284D02*
X7805820Y-12728950D01*
X7805820Y-12747998D02*
X7815343Y-12738474D01*
X7815343Y-12738474D02*
X7834391Y-12728950D01*
X7834391Y-12728950D02*
X7862963Y-12728950D01*
X7862963Y-12728950D02*
X7882010Y-12738474D01*
X7882010Y-12738474D02*
X7891534Y-12757522D01*
X7891534Y-12757522D02*
X7891534Y-12862284D01*
X7891534Y-12757522D02*
X7901058Y-12738474D01*
X7901058Y-12738474D02*
X7920105Y-12728950D01*
X7920105Y-12728950D02*
X7948677Y-12728950D01*
X7948677Y-12728950D02*
X7967724Y-12738474D01*
X7967724Y-12738474D02*
X7977248Y-12757522D01*
X7977248Y-12757522D02*
X7977248Y-12862284D01*
X8072486Y-12862284D02*
X8072486Y-12728950D01*
X8072486Y-12747998D02*
X8082010Y-12738474D01*
X8082010Y-12738474D02*
X8101058Y-12728950D01*
X8101058Y-12728950D02*
X8129629Y-12728950D01*
X8129629Y-12728950D02*
X8148677Y-12738474D01*
X8148677Y-12738474D02*
X8158201Y-12757522D01*
X8158201Y-12757522D02*
X8158201Y-12862284D01*
X8158201Y-12757522D02*
X8167724Y-12738474D01*
X8167724Y-12738474D02*
X8186772Y-12728950D01*
X8186772Y-12728950D02*
X8215343Y-12728950D01*
X8215343Y-12728950D02*
X8234391Y-12738474D01*
X8234391Y-12738474D02*
X8243915Y-12757522D01*
X8243915Y-12757522D02*
X8243915Y-12862284D01*
X8634391Y-12652760D02*
X8462963Y-12909903D01*
X8891534Y-12662284D02*
X8910582Y-12662284D01*
X8910582Y-12662284D02*
X8929629Y-12671808D01*
X8929629Y-12671808D02*
X8939153Y-12681331D01*
X8939153Y-12681331D02*
X8948677Y-12700379D01*
X8948677Y-12700379D02*
X8958201Y-12738474D01*
X8958201Y-12738474D02*
X8958201Y-12786093D01*
X8958201Y-12786093D02*
X8948677Y-12824188D01*
X8948677Y-12824188D02*
X8939153Y-12843236D01*
X8939153Y-12843236D02*
X8929629Y-12852760D01*
X8929629Y-12852760D02*
X8910582Y-12862284D01*
X8910582Y-12862284D02*
X8891534Y-12862284D01*
X8891534Y-12862284D02*
X8872487Y-12852760D01*
X8872487Y-12852760D02*
X8862963Y-12843236D01*
X8862963Y-12843236D02*
X8853439Y-12824188D01*
X8853439Y-12824188D02*
X8843915Y-12786093D01*
X8843915Y-12786093D02*
X8843915Y-12738474D01*
X8843915Y-12738474D02*
X8853439Y-12700379D01*
X8853439Y-12700379D02*
X8862963Y-12681331D01*
X8862963Y-12681331D02*
X8872487Y-12671808D01*
X8872487Y-12671808D02*
X8891534Y-12662284D01*
X9043915Y-12843236D02*
X9053439Y-12852760D01*
X9053439Y-12852760D02*
X9043915Y-12862284D01*
X9043915Y-12862284D02*
X9034391Y-12852760D01*
X9034391Y-12852760D02*
X9043915Y-12843236D01*
X9043915Y-12843236D02*
X9043915Y-12862284D01*
X9177248Y-12662284D02*
X9196296Y-12662284D01*
X9196296Y-12662284D02*
X9215344Y-12671808D01*
X9215344Y-12671808D02*
X9224868Y-12681331D01*
X9224868Y-12681331D02*
X9234391Y-12700379D01*
X9234391Y-12700379D02*
X9243915Y-12738474D01*
X9243915Y-12738474D02*
X9243915Y-12786093D01*
X9243915Y-12786093D02*
X9234391Y-12824188D01*
X9234391Y-12824188D02*
X9224868Y-12843236D01*
X9224868Y-12843236D02*
X9215344Y-12852760D01*
X9215344Y-12852760D02*
X9196296Y-12862284D01*
X9196296Y-12862284D02*
X9177248Y-12862284D01*
X9177248Y-12862284D02*
X9158201Y-12852760D01*
X9158201Y-12852760D02*
X9148677Y-12843236D01*
X9148677Y-12843236D02*
X9139153Y-12824188D01*
X9139153Y-12824188D02*
X9129629Y-12786093D01*
X9129629Y-12786093D02*
X9129629Y-12738474D01*
X9129629Y-12738474D02*
X9139153Y-12700379D01*
X9139153Y-12700379D02*
X9148677Y-12681331D01*
X9148677Y-12681331D02*
X9158201Y-12671808D01*
X9158201Y-12671808D02*
X9177248Y-12662284D01*
X9310582Y-12662284D02*
X9434391Y-12662284D01*
X9434391Y-12662284D02*
X9367725Y-12738474D01*
X9367725Y-12738474D02*
X9396296Y-12738474D01*
X9396296Y-12738474D02*
X9415344Y-12747998D01*
X9415344Y-12747998D02*
X9424868Y-12757522D01*
X9424868Y-12757522D02*
X9434391Y-12776569D01*
X9434391Y-12776569D02*
X9434391Y-12824188D01*
X9434391Y-12824188D02*
X9424868Y-12843236D01*
X9424868Y-12843236D02*
X9415344Y-12852760D01*
X9415344Y-12852760D02*
X9396296Y-12862284D01*
X9396296Y-12862284D02*
X9339153Y-12862284D01*
X9339153Y-12862284D02*
X9320106Y-12852760D01*
X9320106Y-12852760D02*
X9310582Y-12843236D01*
X9624868Y-12862284D02*
X9510582Y-12862284D01*
X9567725Y-12862284D02*
X9567725Y-12662284D01*
X9567725Y-12662284D02*
X9548677Y-12690855D01*
X9548677Y-12690855D02*
X9529629Y-12709903D01*
X9529629Y-12709903D02*
X9510582Y-12719427D01*
X9805820Y-12662284D02*
X9710582Y-12662284D01*
X9710582Y-12662284D02*
X9701058Y-12757522D01*
X9701058Y-12757522D02*
X9710582Y-12747998D01*
X9710582Y-12747998D02*
X9729629Y-12738474D01*
X9729629Y-12738474D02*
X9777249Y-12738474D01*
X9777249Y-12738474D02*
X9796296Y-12747998D01*
X9796296Y-12747998D02*
X9805820Y-12757522D01*
X9805820Y-12757522D02*
X9815344Y-12776569D01*
X9815344Y-12776569D02*
X9815344Y-12824188D01*
X9815344Y-12824188D02*
X9805820Y-12843236D01*
X9805820Y-12843236D02*
X9796296Y-12852760D01*
X9796296Y-12852760D02*
X9777249Y-12862284D01*
X9777249Y-12862284D02*
X9729629Y-12862284D01*
X9729629Y-12862284D02*
X9710582Y-12852760D01*
X9710582Y-12852760D02*
X9701058Y-12843236D01*
X9891534Y-12662284D02*
X9891534Y-12700379D01*
X9967725Y-12662284D02*
X9967725Y-12700379D01*
X10262963Y-12938474D02*
X10253439Y-12928950D01*
X10253439Y-12928950D02*
X10234391Y-12900379D01*
X10234391Y-12900379D02*
X10224868Y-12881331D01*
X10224868Y-12881331D02*
X10215344Y-12852760D01*
X10215344Y-12852760D02*
X10205820Y-12805141D01*
X10205820Y-12805141D02*
X10205820Y-12767046D01*
X10205820Y-12767046D02*
X10215344Y-12719427D01*
X10215344Y-12719427D02*
X10224868Y-12690855D01*
X10224868Y-12690855D02*
X10234391Y-12671808D01*
X10234391Y-12671808D02*
X10253439Y-12643236D01*
X10253439Y-12643236D02*
X10262963Y-12633712D01*
X10443915Y-12862284D02*
X10329630Y-12862284D01*
X10386772Y-12862284D02*
X10386772Y-12662284D01*
X10386772Y-12662284D02*
X10367725Y-12690855D01*
X10367725Y-12690855D02*
X10348677Y-12709903D01*
X10348677Y-12709903D02*
X10329630Y-12719427D01*
X10624868Y-12662284D02*
X10529630Y-12662284D01*
X10529630Y-12662284D02*
X10520106Y-12757522D01*
X10520106Y-12757522D02*
X10529630Y-12747998D01*
X10529630Y-12747998D02*
X10548677Y-12738474D01*
X10548677Y-12738474D02*
X10596296Y-12738474D01*
X10596296Y-12738474D02*
X10615344Y-12747998D01*
X10615344Y-12747998D02*
X10624868Y-12757522D01*
X10624868Y-12757522D02*
X10634391Y-12776569D01*
X10634391Y-12776569D02*
X10634391Y-12824188D01*
X10634391Y-12824188D02*
X10624868Y-12843236D01*
X10624868Y-12843236D02*
X10615344Y-12852760D01*
X10615344Y-12852760D02*
X10596296Y-12862284D01*
X10596296Y-12862284D02*
X10548677Y-12862284D01*
X10548677Y-12862284D02*
X10529630Y-12852760D01*
X10529630Y-12852760D02*
X10520106Y-12843236D01*
X10805820Y-12662284D02*
X10767725Y-12662284D01*
X10767725Y-12662284D02*
X10748677Y-12671808D01*
X10748677Y-12671808D02*
X10739153Y-12681331D01*
X10739153Y-12681331D02*
X10720106Y-12709903D01*
X10720106Y-12709903D02*
X10710582Y-12747998D01*
X10710582Y-12747998D02*
X10710582Y-12824188D01*
X10710582Y-12824188D02*
X10720106Y-12843236D01*
X10720106Y-12843236D02*
X10729630Y-12852760D01*
X10729630Y-12852760D02*
X10748677Y-12862284D01*
X10748677Y-12862284D02*
X10786772Y-12862284D01*
X10786772Y-12862284D02*
X10805820Y-12852760D01*
X10805820Y-12852760D02*
X10815344Y-12843236D01*
X10815344Y-12843236D02*
X10824868Y-12824188D01*
X10824868Y-12824188D02*
X10824868Y-12776569D01*
X10824868Y-12776569D02*
X10815344Y-12757522D01*
X10815344Y-12757522D02*
X10805820Y-12747998D01*
X10805820Y-12747998D02*
X10786772Y-12738474D01*
X10786772Y-12738474D02*
X10748677Y-12738474D01*
X10748677Y-12738474D02*
X10729630Y-12747998D01*
X10729630Y-12747998D02*
X10720106Y-12757522D01*
X10720106Y-12757522D02*
X10710582Y-12776569D01*
X11062963Y-12862284D02*
X11062963Y-12662284D01*
X11148677Y-12862284D02*
X11148677Y-12757522D01*
X11148677Y-12757522D02*
X11139153Y-12738474D01*
X11139153Y-12738474D02*
X11120106Y-12728950D01*
X11120106Y-12728950D02*
X11091534Y-12728950D01*
X11091534Y-12728950D02*
X11072487Y-12738474D01*
X11072487Y-12738474D02*
X11062963Y-12747998D01*
X11272487Y-12862284D02*
X11253439Y-12852760D01*
X11253439Y-12852760D02*
X11243915Y-12843236D01*
X11243915Y-12843236D02*
X11234391Y-12824188D01*
X11234391Y-12824188D02*
X11234391Y-12767046D01*
X11234391Y-12767046D02*
X11243915Y-12747998D01*
X11243915Y-12747998D02*
X11253439Y-12738474D01*
X11253439Y-12738474D02*
X11272487Y-12728950D01*
X11272487Y-12728950D02*
X11301058Y-12728950D01*
X11301058Y-12728950D02*
X11320106Y-12738474D01*
X11320106Y-12738474D02*
X11329630Y-12747998D01*
X11329630Y-12747998D02*
X11339153Y-12767046D01*
X11339153Y-12767046D02*
X11339153Y-12824188D01*
X11339153Y-12824188D02*
X11329630Y-12843236D01*
X11329630Y-12843236D02*
X11320106Y-12852760D01*
X11320106Y-12852760D02*
X11301058Y-12862284D01*
X11301058Y-12862284D02*
X11272487Y-12862284D01*
X11453439Y-12862284D02*
X11434391Y-12852760D01*
X11434391Y-12852760D02*
X11424868Y-12833712D01*
X11424868Y-12833712D02*
X11424868Y-12662284D01*
X11605820Y-12852760D02*
X11586772Y-12862284D01*
X11586772Y-12862284D02*
X11548677Y-12862284D01*
X11548677Y-12862284D02*
X11529630Y-12852760D01*
X11529630Y-12852760D02*
X11520106Y-12833712D01*
X11520106Y-12833712D02*
X11520106Y-12757522D01*
X11520106Y-12757522D02*
X11529630Y-12738474D01*
X11529630Y-12738474D02*
X11548677Y-12728950D01*
X11548677Y-12728950D02*
X11586772Y-12728950D01*
X11586772Y-12728950D02*
X11605820Y-12738474D01*
X11605820Y-12738474D02*
X11615344Y-12757522D01*
X11615344Y-12757522D02*
X11615344Y-12776569D01*
X11615344Y-12776569D02*
X11520106Y-12795617D01*
X11691534Y-12852760D02*
X11710582Y-12862284D01*
X11710582Y-12862284D02*
X11748677Y-12862284D01*
X11748677Y-12862284D02*
X11767725Y-12852760D01*
X11767725Y-12852760D02*
X11777249Y-12833712D01*
X11777249Y-12833712D02*
X11777249Y-12824188D01*
X11777249Y-12824188D02*
X11767725Y-12805141D01*
X11767725Y-12805141D02*
X11748677Y-12795617D01*
X11748677Y-12795617D02*
X11720106Y-12795617D01*
X11720106Y-12795617D02*
X11701058Y-12786093D01*
X11701058Y-12786093D02*
X11691534Y-12767046D01*
X11691534Y-12767046D02*
X11691534Y-12757522D01*
X11691534Y-12757522D02*
X11701058Y-12738474D01*
X11701058Y-12738474D02*
X11720106Y-12728950D01*
X11720106Y-12728950D02*
X11748677Y-12728950D01*
X11748677Y-12728950D02*
X11767725Y-12738474D01*
X11843915Y-12938474D02*
X11853439Y-12928950D01*
X11853439Y-12928950D02*
X11872487Y-12900379D01*
X11872487Y-12900379D02*
X11882011Y-12881331D01*
X11882011Y-12881331D02*
X11891534Y-12852760D01*
X11891534Y-12852760D02*
X11901058Y-12805141D01*
X11901058Y-12805141D02*
X11901058Y-12767046D01*
X11901058Y-12767046D02*
X11891534Y-12719427D01*
X11891534Y-12719427D02*
X11882011Y-12690855D01*
X11882011Y-12690855D02*
X11872487Y-12671808D01*
X11872487Y-12671808D02*
X11853439Y-12643236D01*
X11853439Y-12643236D02*
X11843915Y-12633712D01*
D10*
X6637900Y-12984800D02*
X6637900Y-13084800D01*
X6587900Y-13034800D02*
X6687900Y-13034800D01*
D11*
X7053439Y-13126284D02*
X6939153Y-13126284D01*
X6996296Y-13126284D02*
X6996296Y-12926284D01*
X6996296Y-12926284D02*
X6977248Y-12954855D01*
X6977248Y-12954855D02*
X6958201Y-12973903D01*
X6958201Y-12973903D02*
X6939153Y-12983427D01*
X7139153Y-13107236D02*
X7148677Y-13116760D01*
X7148677Y-13116760D02*
X7139153Y-13126284D01*
X7139153Y-13126284D02*
X7129629Y-13116760D01*
X7129629Y-13116760D02*
X7139153Y-13107236D01*
X7139153Y-13107236D02*
X7139153Y-13126284D01*
X7272486Y-12926284D02*
X7291534Y-12926284D01*
X7291534Y-12926284D02*
X7310582Y-12935808D01*
X7310582Y-12935808D02*
X7320105Y-12945331D01*
X7320105Y-12945331D02*
X7329629Y-12964379D01*
X7329629Y-12964379D02*
X7339153Y-13002474D01*
X7339153Y-13002474D02*
X7339153Y-13050093D01*
X7339153Y-13050093D02*
X7329629Y-13088188D01*
X7329629Y-13088188D02*
X7320105Y-13107236D01*
X7320105Y-13107236D02*
X7310582Y-13116760D01*
X7310582Y-13116760D02*
X7291534Y-13126284D01*
X7291534Y-13126284D02*
X7272486Y-13126284D01*
X7272486Y-13126284D02*
X7253439Y-13116760D01*
X7253439Y-13116760D02*
X7243915Y-13107236D01*
X7243915Y-13107236D02*
X7234391Y-13088188D01*
X7234391Y-13088188D02*
X7224867Y-13050093D01*
X7224867Y-13050093D02*
X7224867Y-13002474D01*
X7224867Y-13002474D02*
X7234391Y-12964379D01*
X7234391Y-12964379D02*
X7243915Y-12945331D01*
X7243915Y-12945331D02*
X7253439Y-12935808D01*
X7253439Y-12935808D02*
X7272486Y-12926284D01*
X7462962Y-12926284D02*
X7482010Y-12926284D01*
X7482010Y-12926284D02*
X7501058Y-12935808D01*
X7501058Y-12935808D02*
X7510582Y-12945331D01*
X7510582Y-12945331D02*
X7520105Y-12964379D01*
X7520105Y-12964379D02*
X7529629Y-13002474D01*
X7529629Y-13002474D02*
X7529629Y-13050093D01*
X7529629Y-13050093D02*
X7520105Y-13088188D01*
X7520105Y-13088188D02*
X7510582Y-13107236D01*
X7510582Y-13107236D02*
X7501058Y-13116760D01*
X7501058Y-13116760D02*
X7482010Y-13126284D01*
X7482010Y-13126284D02*
X7462962Y-13126284D01*
X7462962Y-13126284D02*
X7443915Y-13116760D01*
X7443915Y-13116760D02*
X7434391Y-13107236D01*
X7434391Y-13107236D02*
X7424867Y-13088188D01*
X7424867Y-13088188D02*
X7415343Y-13050093D01*
X7415343Y-13050093D02*
X7415343Y-13002474D01*
X7415343Y-13002474D02*
X7424867Y-12964379D01*
X7424867Y-12964379D02*
X7434391Y-12945331D01*
X7434391Y-12945331D02*
X7443915Y-12935808D01*
X7443915Y-12935808D02*
X7462962Y-12926284D01*
X7653439Y-12926284D02*
X7672486Y-12926284D01*
X7672486Y-12926284D02*
X7691534Y-12935808D01*
X7691534Y-12935808D02*
X7701058Y-12945331D01*
X7701058Y-12945331D02*
X7710582Y-12964379D01*
X7710582Y-12964379D02*
X7720105Y-13002474D01*
X7720105Y-13002474D02*
X7720105Y-13050093D01*
X7720105Y-13050093D02*
X7710582Y-13088188D01*
X7710582Y-13088188D02*
X7701058Y-13107236D01*
X7701058Y-13107236D02*
X7691534Y-13116760D01*
X7691534Y-13116760D02*
X7672486Y-13126284D01*
X7672486Y-13126284D02*
X7653439Y-13126284D01*
X7653439Y-13126284D02*
X7634391Y-13116760D01*
X7634391Y-13116760D02*
X7624867Y-13107236D01*
X7624867Y-13107236D02*
X7615343Y-13088188D01*
X7615343Y-13088188D02*
X7605820Y-13050093D01*
X7605820Y-13050093D02*
X7605820Y-13002474D01*
X7605820Y-13002474D02*
X7615343Y-12964379D01*
X7615343Y-12964379D02*
X7624867Y-12945331D01*
X7624867Y-12945331D02*
X7634391Y-12935808D01*
X7634391Y-12935808D02*
X7653439Y-12926284D01*
X7805820Y-13126284D02*
X7805820Y-12992950D01*
X7805820Y-13011998D02*
X7815343Y-13002474D01*
X7815343Y-13002474D02*
X7834391Y-12992950D01*
X7834391Y-12992950D02*
X7862963Y-12992950D01*
X7862963Y-12992950D02*
X7882010Y-13002474D01*
X7882010Y-13002474D02*
X7891534Y-13021522D01*
X7891534Y-13021522D02*
X7891534Y-13126284D01*
X7891534Y-13021522D02*
X7901058Y-13002474D01*
X7901058Y-13002474D02*
X7920105Y-12992950D01*
X7920105Y-12992950D02*
X7948677Y-12992950D01*
X7948677Y-12992950D02*
X7967724Y-13002474D01*
X7967724Y-13002474D02*
X7977248Y-13021522D01*
X7977248Y-13021522D02*
X7977248Y-13126284D01*
X8072486Y-13126284D02*
X8072486Y-12992950D01*
X8072486Y-13011998D02*
X8082010Y-13002474D01*
X8082010Y-13002474D02*
X8101058Y-12992950D01*
X8101058Y-12992950D02*
X8129629Y-12992950D01*
X8129629Y-12992950D02*
X8148677Y-13002474D01*
X8148677Y-13002474D02*
X8158201Y-13021522D01*
X8158201Y-13021522D02*
X8158201Y-13126284D01*
X8158201Y-13021522D02*
X8167724Y-13002474D01*
X8167724Y-13002474D02*
X8186772Y-12992950D01*
X8186772Y-12992950D02*
X8215343Y-12992950D01*
X8215343Y-12992950D02*
X8234391Y-13002474D01*
X8234391Y-13002474D02*
X8243915Y-13021522D01*
X8243915Y-13021522D02*
X8243915Y-13126284D01*
X8634391Y-12916760D02*
X8462963Y-13173903D01*
X8891534Y-12926284D02*
X8910582Y-12926284D01*
X8910582Y-12926284D02*
X8929629Y-12935808D01*
X8929629Y-12935808D02*
X8939153Y-12945331D01*
X8939153Y-12945331D02*
X8948677Y-12964379D01*
X8948677Y-12964379D02*
X8958201Y-13002474D01*
X8958201Y-13002474D02*
X8958201Y-13050093D01*
X8958201Y-13050093D02*
X8948677Y-13088188D01*
X8948677Y-13088188D02*
X8939153Y-13107236D01*
X8939153Y-13107236D02*
X8929629Y-13116760D01*
X8929629Y-13116760D02*
X8910582Y-13126284D01*
X8910582Y-13126284D02*
X8891534Y-13126284D01*
X8891534Y-13126284D02*
X8872487Y-13116760D01*
X8872487Y-13116760D02*
X8862963Y-13107236D01*
X8862963Y-13107236D02*
X8853439Y-13088188D01*
X8853439Y-13088188D02*
X8843915Y-13050093D01*
X8843915Y-13050093D02*
X8843915Y-13002474D01*
X8843915Y-13002474D02*
X8853439Y-12964379D01*
X8853439Y-12964379D02*
X8862963Y-12945331D01*
X8862963Y-12945331D02*
X8872487Y-12935808D01*
X8872487Y-12935808D02*
X8891534Y-12926284D01*
X9043915Y-13107236D02*
X9053439Y-13116760D01*
X9053439Y-13116760D02*
X9043915Y-13126284D01*
X9043915Y-13126284D02*
X9034391Y-13116760D01*
X9034391Y-13116760D02*
X9043915Y-13107236D01*
X9043915Y-13107236D02*
X9043915Y-13126284D01*
X9177248Y-12926284D02*
X9196296Y-12926284D01*
X9196296Y-12926284D02*
X9215344Y-12935808D01*
X9215344Y-12935808D02*
X9224868Y-12945331D01*
X9224868Y-12945331D02*
X9234391Y-12964379D01*
X9234391Y-12964379D02*
X9243915Y-13002474D01*
X9243915Y-13002474D02*
X9243915Y-13050093D01*
X9243915Y-13050093D02*
X9234391Y-13088188D01*
X9234391Y-13088188D02*
X9224868Y-13107236D01*
X9224868Y-13107236D02*
X9215344Y-13116760D01*
X9215344Y-13116760D02*
X9196296Y-13126284D01*
X9196296Y-13126284D02*
X9177248Y-13126284D01*
X9177248Y-13126284D02*
X9158201Y-13116760D01*
X9158201Y-13116760D02*
X9148677Y-13107236D01*
X9148677Y-13107236D02*
X9139153Y-13088188D01*
X9139153Y-13088188D02*
X9129629Y-13050093D01*
X9129629Y-13050093D02*
X9129629Y-13002474D01*
X9129629Y-13002474D02*
X9139153Y-12964379D01*
X9139153Y-12964379D02*
X9148677Y-12945331D01*
X9148677Y-12945331D02*
X9158201Y-12935808D01*
X9158201Y-12935808D02*
X9177248Y-12926284D01*
X9310582Y-12926284D02*
X9434391Y-12926284D01*
X9434391Y-12926284D02*
X9367725Y-13002474D01*
X9367725Y-13002474D02*
X9396296Y-13002474D01*
X9396296Y-13002474D02*
X9415344Y-13011998D01*
X9415344Y-13011998D02*
X9424868Y-13021522D01*
X9424868Y-13021522D02*
X9434391Y-13040569D01*
X9434391Y-13040569D02*
X9434391Y-13088188D01*
X9434391Y-13088188D02*
X9424868Y-13107236D01*
X9424868Y-13107236D02*
X9415344Y-13116760D01*
X9415344Y-13116760D02*
X9396296Y-13126284D01*
X9396296Y-13126284D02*
X9339153Y-13126284D01*
X9339153Y-13126284D02*
X9320106Y-13116760D01*
X9320106Y-13116760D02*
X9310582Y-13107236D01*
X9529629Y-13126284D02*
X9567725Y-13126284D01*
X9567725Y-13126284D02*
X9586772Y-13116760D01*
X9586772Y-13116760D02*
X9596296Y-13107236D01*
X9596296Y-13107236D02*
X9615344Y-13078665D01*
X9615344Y-13078665D02*
X9624868Y-13040569D01*
X9624868Y-13040569D02*
X9624868Y-12964379D01*
X9624868Y-12964379D02*
X9615344Y-12945331D01*
X9615344Y-12945331D02*
X9605820Y-12935808D01*
X9605820Y-12935808D02*
X9586772Y-12926284D01*
X9586772Y-12926284D02*
X9548677Y-12926284D01*
X9548677Y-12926284D02*
X9529629Y-12935808D01*
X9529629Y-12935808D02*
X9520106Y-12945331D01*
X9520106Y-12945331D02*
X9510582Y-12964379D01*
X9510582Y-12964379D02*
X9510582Y-13011998D01*
X9510582Y-13011998D02*
X9520106Y-13031046D01*
X9520106Y-13031046D02*
X9529629Y-13040569D01*
X9529629Y-13040569D02*
X9548677Y-13050093D01*
X9548677Y-13050093D02*
X9586772Y-13050093D01*
X9586772Y-13050093D02*
X9605820Y-13040569D01*
X9605820Y-13040569D02*
X9615344Y-13031046D01*
X9615344Y-13031046D02*
X9624868Y-13011998D01*
X9796296Y-12992950D02*
X9796296Y-13126284D01*
X9748677Y-12916760D02*
X9701058Y-13059617D01*
X9701058Y-13059617D02*
X9824868Y-13059617D01*
X9891534Y-12926284D02*
X9891534Y-12964379D01*
X9967725Y-12926284D02*
X9967725Y-12964379D01*
X10262963Y-13202474D02*
X10253439Y-13192950D01*
X10253439Y-13192950D02*
X10234391Y-13164379D01*
X10234391Y-13164379D02*
X10224868Y-13145331D01*
X10224868Y-13145331D02*
X10215344Y-13116760D01*
X10215344Y-13116760D02*
X10205820Y-13069141D01*
X10205820Y-13069141D02*
X10205820Y-13031046D01*
X10205820Y-13031046D02*
X10215344Y-12983427D01*
X10215344Y-12983427D02*
X10224868Y-12954855D01*
X10224868Y-12954855D02*
X10234391Y-12935808D01*
X10234391Y-12935808D02*
X10253439Y-12907236D01*
X10253439Y-12907236D02*
X10262963Y-12897712D01*
X10367725Y-13011998D02*
X10348677Y-13002474D01*
X10348677Y-13002474D02*
X10339153Y-12992950D01*
X10339153Y-12992950D02*
X10329630Y-12973903D01*
X10329630Y-12973903D02*
X10329630Y-12964379D01*
X10329630Y-12964379D02*
X10339153Y-12945331D01*
X10339153Y-12945331D02*
X10348677Y-12935808D01*
X10348677Y-12935808D02*
X10367725Y-12926284D01*
X10367725Y-12926284D02*
X10405820Y-12926284D01*
X10405820Y-12926284D02*
X10424868Y-12935808D01*
X10424868Y-12935808D02*
X10434391Y-12945331D01*
X10434391Y-12945331D02*
X10443915Y-12964379D01*
X10443915Y-12964379D02*
X10443915Y-12973903D01*
X10443915Y-12973903D02*
X10434391Y-12992950D01*
X10434391Y-12992950D02*
X10424868Y-13002474D01*
X10424868Y-13002474D02*
X10405820Y-13011998D01*
X10405820Y-13011998D02*
X10367725Y-13011998D01*
X10367725Y-13011998D02*
X10348677Y-13021522D01*
X10348677Y-13021522D02*
X10339153Y-13031046D01*
X10339153Y-13031046D02*
X10329630Y-13050093D01*
X10329630Y-13050093D02*
X10329630Y-13088188D01*
X10329630Y-13088188D02*
X10339153Y-13107236D01*
X10339153Y-13107236D02*
X10348677Y-13116760D01*
X10348677Y-13116760D02*
X10367725Y-13126284D01*
X10367725Y-13126284D02*
X10405820Y-13126284D01*
X10405820Y-13126284D02*
X10424868Y-13116760D01*
X10424868Y-13116760D02*
X10434391Y-13107236D01*
X10434391Y-13107236D02*
X10443915Y-13088188D01*
X10443915Y-13088188D02*
X10443915Y-13050093D01*
X10443915Y-13050093D02*
X10434391Y-13031046D01*
X10434391Y-13031046D02*
X10424868Y-13021522D01*
X10424868Y-13021522D02*
X10405820Y-13011998D01*
X10567725Y-12926284D02*
X10586772Y-12926284D01*
X10586772Y-12926284D02*
X10605820Y-12935808D01*
X10605820Y-12935808D02*
X10615344Y-12945331D01*
X10615344Y-12945331D02*
X10624868Y-12964379D01*
X10624868Y-12964379D02*
X10634391Y-13002474D01*
X10634391Y-13002474D02*
X10634391Y-13050093D01*
X10634391Y-13050093D02*
X10624868Y-13088188D01*
X10624868Y-13088188D02*
X10615344Y-13107236D01*
X10615344Y-13107236D02*
X10605820Y-13116760D01*
X10605820Y-13116760D02*
X10586772Y-13126284D01*
X10586772Y-13126284D02*
X10567725Y-13126284D01*
X10567725Y-13126284D02*
X10548677Y-13116760D01*
X10548677Y-13116760D02*
X10539153Y-13107236D01*
X10539153Y-13107236D02*
X10529630Y-13088188D01*
X10529630Y-13088188D02*
X10520106Y-13050093D01*
X10520106Y-13050093D02*
X10520106Y-13002474D01*
X10520106Y-13002474D02*
X10529630Y-12964379D01*
X10529630Y-12964379D02*
X10539153Y-12945331D01*
X10539153Y-12945331D02*
X10548677Y-12935808D01*
X10548677Y-12935808D02*
X10567725Y-12926284D01*
X10872487Y-13126284D02*
X10872487Y-12926284D01*
X10958201Y-13126284D02*
X10958201Y-13021522D01*
X10958201Y-13021522D02*
X10948677Y-13002474D01*
X10948677Y-13002474D02*
X10929630Y-12992950D01*
X10929630Y-12992950D02*
X10901058Y-12992950D01*
X10901058Y-12992950D02*
X10882011Y-13002474D01*
X10882011Y-13002474D02*
X10872487Y-13011998D01*
X11082011Y-13126284D02*
X11062963Y-13116760D01*
X11062963Y-13116760D02*
X11053439Y-13107236D01*
X11053439Y-13107236D02*
X11043915Y-13088188D01*
X11043915Y-13088188D02*
X11043915Y-13031046D01*
X11043915Y-13031046D02*
X11053439Y-13011998D01*
X11053439Y-13011998D02*
X11062963Y-13002474D01*
X11062963Y-13002474D02*
X11082011Y-12992950D01*
X11082011Y-12992950D02*
X11110582Y-12992950D01*
X11110582Y-12992950D02*
X11129630Y-13002474D01*
X11129630Y-13002474D02*
X11139153Y-13011998D01*
X11139153Y-13011998D02*
X11148677Y-13031046D01*
X11148677Y-13031046D02*
X11148677Y-13088188D01*
X11148677Y-13088188D02*
X11139153Y-13107236D01*
X11139153Y-13107236D02*
X11129630Y-13116760D01*
X11129630Y-13116760D02*
X11110582Y-13126284D01*
X11110582Y-13126284D02*
X11082011Y-13126284D01*
X11262963Y-13126284D02*
X11243915Y-13116760D01*
X11243915Y-13116760D02*
X11234391Y-13097712D01*
X11234391Y-13097712D02*
X11234391Y-12926284D01*
X11415344Y-13116760D02*
X11396296Y-13126284D01*
X11396296Y-13126284D02*
X11358201Y-13126284D01*
X11358201Y-13126284D02*
X11339153Y-13116760D01*
X11339153Y-13116760D02*
X11329630Y-13097712D01*
X11329630Y-13097712D02*
X11329630Y-13021522D01*
X11329630Y-13021522D02*
X11339153Y-13002474D01*
X11339153Y-13002474D02*
X11358201Y-12992950D01*
X11358201Y-12992950D02*
X11396296Y-12992950D01*
X11396296Y-12992950D02*
X11415344Y-13002474D01*
X11415344Y-13002474D02*
X11424868Y-13021522D01*
X11424868Y-13021522D02*
X11424868Y-13040569D01*
X11424868Y-13040569D02*
X11329630Y-13059617D01*
X11501058Y-13116760D02*
X11520106Y-13126284D01*
X11520106Y-13126284D02*
X11558201Y-13126284D01*
X11558201Y-13126284D02*
X11577249Y-13116760D01*
X11577249Y-13116760D02*
X11586772Y-13097712D01*
X11586772Y-13097712D02*
X11586772Y-13088188D01*
X11586772Y-13088188D02*
X11577249Y-13069141D01*
X11577249Y-13069141D02*
X11558201Y-13059617D01*
X11558201Y-13059617D02*
X11529630Y-13059617D01*
X11529630Y-13059617D02*
X11510582Y-13050093D01*
X11510582Y-13050093D02*
X11501058Y-13031046D01*
X11501058Y-13031046D02*
X11501058Y-13021522D01*
X11501058Y-13021522D02*
X11510582Y-13002474D01*
X11510582Y-13002474D02*
X11529630Y-12992950D01*
X11529630Y-12992950D02*
X11558201Y-12992950D01*
X11558201Y-12992950D02*
X11577249Y-13002474D01*
X11653439Y-13202474D02*
X11662963Y-13192950D01*
X11662963Y-13192950D02*
X11682011Y-13164379D01*
X11682011Y-13164379D02*
X11691534Y-13145331D01*
X11691534Y-13145331D02*
X11701058Y-13116760D01*
X11701058Y-13116760D02*
X11710582Y-13069141D01*
X11710582Y-13069141D02*
X11710582Y-13031046D01*
X11710582Y-13031046D02*
X11701058Y-12983427D01*
X11701058Y-12983427D02*
X11691534Y-12954855D01*
X11691534Y-12954855D02*
X11682011Y-12935808D01*
X11682011Y-12935808D02*
X11662963Y-12907236D01*
X11662963Y-12907236D02*
X11653439Y-12897712D01*
D12*
X6671791Y-13337691D02*
X6671791Y-13259909D01*
X6594009Y-13259909D01*
X6594009Y-13337691D01*
X6671791Y-13337691D01*
D11*
X7053439Y-13390284D02*
X6939153Y-13390284D01*
X6996296Y-13390284D02*
X6996296Y-13190284D01*
X6996296Y-13190284D02*
X6977248Y-13218855D01*
X6977248Y-13218855D02*
X6958201Y-13237903D01*
X6958201Y-13237903D02*
X6939153Y-13247427D01*
X7139153Y-13371236D02*
X7148677Y-13380760D01*
X7148677Y-13380760D02*
X7139153Y-13390284D01*
X7139153Y-13390284D02*
X7129629Y-13380760D01*
X7129629Y-13380760D02*
X7139153Y-13371236D01*
X7139153Y-13371236D02*
X7139153Y-13390284D01*
X7339153Y-13390284D02*
X7224867Y-13390284D01*
X7282010Y-13390284D02*
X7282010Y-13190284D01*
X7282010Y-13190284D02*
X7262962Y-13218855D01*
X7262962Y-13218855D02*
X7243915Y-13237903D01*
X7243915Y-13237903D02*
X7224867Y-13247427D01*
X7462962Y-13190284D02*
X7482010Y-13190284D01*
X7482010Y-13190284D02*
X7501058Y-13199808D01*
X7501058Y-13199808D02*
X7510582Y-13209331D01*
X7510582Y-13209331D02*
X7520105Y-13228379D01*
X7520105Y-13228379D02*
X7529629Y-13266474D01*
X7529629Y-13266474D02*
X7529629Y-13314093D01*
X7529629Y-13314093D02*
X7520105Y-13352188D01*
X7520105Y-13352188D02*
X7510582Y-13371236D01*
X7510582Y-13371236D02*
X7501058Y-13380760D01*
X7501058Y-13380760D02*
X7482010Y-13390284D01*
X7482010Y-13390284D02*
X7462962Y-13390284D01*
X7462962Y-13390284D02*
X7443915Y-13380760D01*
X7443915Y-13380760D02*
X7434391Y-13371236D01*
X7434391Y-13371236D02*
X7424867Y-13352188D01*
X7424867Y-13352188D02*
X7415343Y-13314093D01*
X7415343Y-13314093D02*
X7415343Y-13266474D01*
X7415343Y-13266474D02*
X7424867Y-13228379D01*
X7424867Y-13228379D02*
X7434391Y-13209331D01*
X7434391Y-13209331D02*
X7443915Y-13199808D01*
X7443915Y-13199808D02*
X7462962Y-13190284D01*
X7653439Y-13190284D02*
X7672486Y-13190284D01*
X7672486Y-13190284D02*
X7691534Y-13199808D01*
X7691534Y-13199808D02*
X7701058Y-13209331D01*
X7701058Y-13209331D02*
X7710582Y-13228379D01*
X7710582Y-13228379D02*
X7720105Y-13266474D01*
X7720105Y-13266474D02*
X7720105Y-13314093D01*
X7720105Y-13314093D02*
X7710582Y-13352188D01*
X7710582Y-13352188D02*
X7701058Y-13371236D01*
X7701058Y-13371236D02*
X7691534Y-13380760D01*
X7691534Y-13380760D02*
X7672486Y-13390284D01*
X7672486Y-13390284D02*
X7653439Y-13390284D01*
X7653439Y-13390284D02*
X7634391Y-13380760D01*
X7634391Y-13380760D02*
X7624867Y-13371236D01*
X7624867Y-13371236D02*
X7615343Y-13352188D01*
X7615343Y-13352188D02*
X7605820Y-13314093D01*
X7605820Y-13314093D02*
X7605820Y-13266474D01*
X7605820Y-13266474D02*
X7615343Y-13228379D01*
X7615343Y-13228379D02*
X7624867Y-13209331D01*
X7624867Y-13209331D02*
X7634391Y-13199808D01*
X7634391Y-13199808D02*
X7653439Y-13190284D01*
X7805820Y-13390284D02*
X7805820Y-13256950D01*
X7805820Y-13275998D02*
X7815343Y-13266474D01*
X7815343Y-13266474D02*
X7834391Y-13256950D01*
X7834391Y-13256950D02*
X7862963Y-13256950D01*
X7862963Y-13256950D02*
X7882010Y-13266474D01*
X7882010Y-13266474D02*
X7891534Y-13285522D01*
X7891534Y-13285522D02*
X7891534Y-13390284D01*
X7891534Y-13285522D02*
X7901058Y-13266474D01*
X7901058Y-13266474D02*
X7920105Y-13256950D01*
X7920105Y-13256950D02*
X7948677Y-13256950D01*
X7948677Y-13256950D02*
X7967724Y-13266474D01*
X7967724Y-13266474D02*
X7977248Y-13285522D01*
X7977248Y-13285522D02*
X7977248Y-13390284D01*
X8072486Y-13390284D02*
X8072486Y-13256950D01*
X8072486Y-13275998D02*
X8082010Y-13266474D01*
X8082010Y-13266474D02*
X8101058Y-13256950D01*
X8101058Y-13256950D02*
X8129629Y-13256950D01*
X8129629Y-13256950D02*
X8148677Y-13266474D01*
X8148677Y-13266474D02*
X8158201Y-13285522D01*
X8158201Y-13285522D02*
X8158201Y-13390284D01*
X8158201Y-13285522D02*
X8167724Y-13266474D01*
X8167724Y-13266474D02*
X8186772Y-13256950D01*
X8186772Y-13256950D02*
X8215343Y-13256950D01*
X8215343Y-13256950D02*
X8234391Y-13266474D01*
X8234391Y-13266474D02*
X8243915Y-13285522D01*
X8243915Y-13285522D02*
X8243915Y-13390284D01*
X8634391Y-13180760D02*
X8462963Y-13437903D01*
X8891534Y-13190284D02*
X8910582Y-13190284D01*
X8910582Y-13190284D02*
X8929629Y-13199808D01*
X8929629Y-13199808D02*
X8939153Y-13209331D01*
X8939153Y-13209331D02*
X8948677Y-13228379D01*
X8948677Y-13228379D02*
X8958201Y-13266474D01*
X8958201Y-13266474D02*
X8958201Y-13314093D01*
X8958201Y-13314093D02*
X8948677Y-13352188D01*
X8948677Y-13352188D02*
X8939153Y-13371236D01*
X8939153Y-13371236D02*
X8929629Y-13380760D01*
X8929629Y-13380760D02*
X8910582Y-13390284D01*
X8910582Y-13390284D02*
X8891534Y-13390284D01*
X8891534Y-13390284D02*
X8872487Y-13380760D01*
X8872487Y-13380760D02*
X8862963Y-13371236D01*
X8862963Y-13371236D02*
X8853439Y-13352188D01*
X8853439Y-13352188D02*
X8843915Y-13314093D01*
X8843915Y-13314093D02*
X8843915Y-13266474D01*
X8843915Y-13266474D02*
X8853439Y-13228379D01*
X8853439Y-13228379D02*
X8862963Y-13209331D01*
X8862963Y-13209331D02*
X8872487Y-13199808D01*
X8872487Y-13199808D02*
X8891534Y-13190284D01*
X9043915Y-13371236D02*
X9053439Y-13380760D01*
X9053439Y-13380760D02*
X9043915Y-13390284D01*
X9043915Y-13390284D02*
X9034391Y-13380760D01*
X9034391Y-13380760D02*
X9043915Y-13371236D01*
X9043915Y-13371236D02*
X9043915Y-13390284D01*
X9177248Y-13190284D02*
X9196296Y-13190284D01*
X9196296Y-13190284D02*
X9215344Y-13199808D01*
X9215344Y-13199808D02*
X9224868Y-13209331D01*
X9224868Y-13209331D02*
X9234391Y-13228379D01*
X9234391Y-13228379D02*
X9243915Y-13266474D01*
X9243915Y-13266474D02*
X9243915Y-13314093D01*
X9243915Y-13314093D02*
X9234391Y-13352188D01*
X9234391Y-13352188D02*
X9224868Y-13371236D01*
X9224868Y-13371236D02*
X9215344Y-13380760D01*
X9215344Y-13380760D02*
X9196296Y-13390284D01*
X9196296Y-13390284D02*
X9177248Y-13390284D01*
X9177248Y-13390284D02*
X9158201Y-13380760D01*
X9158201Y-13380760D02*
X9148677Y-13371236D01*
X9148677Y-13371236D02*
X9139153Y-13352188D01*
X9139153Y-13352188D02*
X9129629Y-13314093D01*
X9129629Y-13314093D02*
X9129629Y-13266474D01*
X9129629Y-13266474D02*
X9139153Y-13228379D01*
X9139153Y-13228379D02*
X9148677Y-13209331D01*
X9148677Y-13209331D02*
X9158201Y-13199808D01*
X9158201Y-13199808D02*
X9177248Y-13190284D01*
X9415344Y-13256950D02*
X9415344Y-13390284D01*
X9367725Y-13180760D02*
X9320106Y-13323617D01*
X9320106Y-13323617D02*
X9443915Y-13323617D01*
X9501058Y-13190284D02*
X9624868Y-13190284D01*
X9624868Y-13190284D02*
X9558201Y-13266474D01*
X9558201Y-13266474D02*
X9586772Y-13266474D01*
X9586772Y-13266474D02*
X9605820Y-13275998D01*
X9605820Y-13275998D02*
X9615344Y-13285522D01*
X9615344Y-13285522D02*
X9624868Y-13304569D01*
X9624868Y-13304569D02*
X9624868Y-13352188D01*
X9624868Y-13352188D02*
X9615344Y-13371236D01*
X9615344Y-13371236D02*
X9605820Y-13380760D01*
X9605820Y-13380760D02*
X9586772Y-13390284D01*
X9586772Y-13390284D02*
X9529629Y-13390284D01*
X9529629Y-13390284D02*
X9510582Y-13380760D01*
X9510582Y-13380760D02*
X9501058Y-13371236D01*
X9691534Y-13190284D02*
X9815344Y-13190284D01*
X9815344Y-13190284D02*
X9748677Y-13266474D01*
X9748677Y-13266474D02*
X9777249Y-13266474D01*
X9777249Y-13266474D02*
X9796296Y-13275998D01*
X9796296Y-13275998D02*
X9805820Y-13285522D01*
X9805820Y-13285522D02*
X9815344Y-13304569D01*
X9815344Y-13304569D02*
X9815344Y-13352188D01*
X9815344Y-13352188D02*
X9805820Y-13371236D01*
X9805820Y-13371236D02*
X9796296Y-13380760D01*
X9796296Y-13380760D02*
X9777249Y-13390284D01*
X9777249Y-13390284D02*
X9720106Y-13390284D01*
X9720106Y-13390284D02*
X9701058Y-13380760D01*
X9701058Y-13380760D02*
X9691534Y-13371236D01*
X9891534Y-13190284D02*
X9891534Y-13228379D01*
X9967725Y-13190284D02*
X9967725Y-13228379D01*
X10262963Y-13466474D02*
X10253439Y-13456950D01*
X10253439Y-13456950D02*
X10234391Y-13428379D01*
X10234391Y-13428379D02*
X10224868Y-13409331D01*
X10224868Y-13409331D02*
X10215344Y-13380760D01*
X10215344Y-13380760D02*
X10205820Y-13333141D01*
X10205820Y-13333141D02*
X10205820Y-13295046D01*
X10205820Y-13295046D02*
X10215344Y-13247427D01*
X10215344Y-13247427D02*
X10224868Y-13218855D01*
X10224868Y-13218855D02*
X10234391Y-13199808D01*
X10234391Y-13199808D02*
X10253439Y-13171236D01*
X10253439Y-13171236D02*
X10262963Y-13161712D01*
X10424868Y-13256950D02*
X10424868Y-13390284D01*
X10377249Y-13180760D02*
X10329630Y-13323617D01*
X10329630Y-13323617D02*
X10453439Y-13323617D01*
X10682011Y-13390284D02*
X10682011Y-13190284D01*
X10767725Y-13390284D02*
X10767725Y-13285522D01*
X10767725Y-13285522D02*
X10758201Y-13266474D01*
X10758201Y-13266474D02*
X10739153Y-13256950D01*
X10739153Y-13256950D02*
X10710582Y-13256950D01*
X10710582Y-13256950D02*
X10691534Y-13266474D01*
X10691534Y-13266474D02*
X10682011Y-13275998D01*
X10891534Y-13390284D02*
X10872487Y-13380760D01*
X10872487Y-13380760D02*
X10862963Y-13371236D01*
X10862963Y-13371236D02*
X10853439Y-13352188D01*
X10853439Y-13352188D02*
X10853439Y-13295046D01*
X10853439Y-13295046D02*
X10862963Y-13275998D01*
X10862963Y-13275998D02*
X10872487Y-13266474D01*
X10872487Y-13266474D02*
X10891534Y-13256950D01*
X10891534Y-13256950D02*
X10920106Y-13256950D01*
X10920106Y-13256950D02*
X10939153Y-13266474D01*
X10939153Y-13266474D02*
X10948677Y-13275998D01*
X10948677Y-13275998D02*
X10958201Y-13295046D01*
X10958201Y-13295046D02*
X10958201Y-13352188D01*
X10958201Y-13352188D02*
X10948677Y-13371236D01*
X10948677Y-13371236D02*
X10939153Y-13380760D01*
X10939153Y-13380760D02*
X10920106Y-13390284D01*
X10920106Y-13390284D02*
X10891534Y-13390284D01*
X11072487Y-13390284D02*
X11053439Y-13380760D01*
X11053439Y-13380760D02*
X11043915Y-13361712D01*
X11043915Y-13361712D02*
X11043915Y-13190284D01*
X11224868Y-13380760D02*
X11205820Y-13390284D01*
X11205820Y-13390284D02*
X11167725Y-13390284D01*
X11167725Y-13390284D02*
X11148677Y-13380760D01*
X11148677Y-13380760D02*
X11139153Y-13361712D01*
X11139153Y-13361712D02*
X11139153Y-13285522D01*
X11139153Y-13285522D02*
X11148677Y-13266474D01*
X11148677Y-13266474D02*
X11167725Y-13256950D01*
X11167725Y-13256950D02*
X11205820Y-13256950D01*
X11205820Y-13256950D02*
X11224868Y-13266474D01*
X11224868Y-13266474D02*
X11234391Y-13285522D01*
X11234391Y-13285522D02*
X11234391Y-13304569D01*
X11234391Y-13304569D02*
X11139153Y-13323617D01*
X11310582Y-13380760D02*
X11329630Y-13390284D01*
X11329630Y-13390284D02*
X11367725Y-13390284D01*
X11367725Y-13390284D02*
X11386772Y-13380760D01*
X11386772Y-13380760D02*
X11396296Y-13361712D01*
X11396296Y-13361712D02*
X11396296Y-13352188D01*
X11396296Y-13352188D02*
X11386772Y-13333141D01*
X11386772Y-13333141D02*
X11367725Y-13323617D01*
X11367725Y-13323617D02*
X11339153Y-13323617D01*
X11339153Y-13323617D02*
X11320106Y-13314093D01*
X11320106Y-13314093D02*
X11310582Y-13295046D01*
X11310582Y-13295046D02*
X11310582Y-13285522D01*
X11310582Y-13285522D02*
X11320106Y-13266474D01*
X11320106Y-13266474D02*
X11339153Y-13256950D01*
X11339153Y-13256950D02*
X11367725Y-13256950D01*
X11367725Y-13256950D02*
X11386772Y-13266474D01*
X11462963Y-13466474D02*
X11472487Y-13456950D01*
X11472487Y-13456950D02*
X11491534Y-13428379D01*
X11491534Y-13428379D02*
X11501058Y-13409331D01*
X11501058Y-13409331D02*
X11510582Y-13380760D01*
X11510582Y-13380760D02*
X11520106Y-13333141D01*
X11520106Y-13333141D02*
X11520106Y-13295046D01*
X11520106Y-13295046D02*
X11510582Y-13247427D01*
X11510582Y-13247427D02*
X11501058Y-13218855D01*
X11501058Y-13218855D02*
X11491534Y-13199808D01*
X11491534Y-13199808D02*
X11472487Y-13171236D01*
X11472487Y-13171236D02*
X11462963Y-13161712D01*
M02*
