G04 (created by PCBNEW (2013-07-07 BZR 4022)-stable) date 13/10/2017 14:23:44*
%MOIN*%
G04 Gerber Fmt 3.4, Leading zero omitted, Abs format*
%FSLAX34Y34*%
G01*
G70*
G90*
G04 APERTURE LIST*
%ADD10C,0.00590551*%
%ADD11C,0.06*%
%ADD12C,0.07*%
%ADD13R,0.07X0.07*%
%ADD14R,0.35X0.35*%
%ADD15R,0.055X0.055*%
%ADD16C,0.055*%
%ADD17C,0.16*%
%ADD18R,0.11X0.3*%
%ADD19R,0.07X0.3*%
%ADD20R,0.06X0.06*%
%ADD21C,0.075*%
%ADD22C,0.051*%
%ADD23C,0.017*%
%ADD24C,0.01*%
G04 APERTURE END LIST*
G54D10*
G54D11*
X90000Y-21000D03*
X90000Y-19000D03*
X93000Y-21000D03*
X93000Y-19000D03*
G54D12*
X14000Y-62500D03*
G54D13*
X12000Y-62500D03*
G54D12*
X13000Y-62500D03*
G54D14*
X13000Y-56000D03*
G54D15*
X11500Y-64500D03*
G54D16*
X12500Y-64500D03*
G54D15*
X14500Y-64500D03*
G54D16*
X13500Y-64500D03*
G54D17*
X7500Y-20500D03*
X102500Y-20500D03*
G54D18*
X21050Y-69150D03*
G54D19*
X22500Y-69150D03*
X23750Y-69150D03*
X25000Y-69150D03*
X26250Y-69150D03*
X27500Y-69150D03*
X28750Y-69150D03*
X30000Y-69150D03*
X31250Y-69150D03*
X32500Y-69150D03*
X33750Y-69150D03*
X35000Y-69150D03*
X36250Y-69150D03*
X37500Y-69150D03*
X38750Y-69150D03*
X40000Y-69150D03*
X41250Y-69150D03*
X42500Y-69150D03*
X43750Y-69150D03*
X45000Y-69150D03*
X46250Y-69150D03*
X47500Y-69150D03*
X48750Y-69150D03*
X50000Y-69150D03*
X51250Y-69150D03*
X52500Y-69150D03*
X53750Y-69150D03*
X55000Y-69150D03*
X56250Y-69150D03*
X57500Y-69150D03*
X58750Y-69150D03*
X60000Y-69150D03*
X61250Y-69150D03*
X62500Y-69150D03*
X63750Y-69150D03*
X65000Y-69150D03*
X66250Y-69150D03*
X67500Y-69150D03*
X68750Y-69150D03*
X70000Y-69150D03*
X71250Y-69150D03*
X72500Y-69150D03*
X73750Y-69150D03*
X75000Y-69150D03*
X76250Y-69150D03*
X77500Y-69150D03*
X78750Y-69150D03*
X80000Y-69150D03*
X81250Y-69150D03*
G54D18*
X82700Y-69150D03*
G54D16*
X7000Y-36000D03*
X7000Y-38000D03*
X7000Y-46000D03*
X7000Y-48000D03*
X7000Y-41000D03*
X7000Y-43000D03*
G54D18*
X21050Y-20650D03*
G54D19*
X22500Y-20650D03*
X23750Y-20650D03*
X25000Y-20650D03*
X26250Y-20650D03*
X27500Y-20650D03*
X28750Y-20650D03*
X30000Y-20650D03*
X31250Y-20650D03*
X32500Y-20650D03*
X33750Y-20650D03*
X35000Y-20650D03*
X36250Y-20650D03*
X37500Y-20650D03*
X38750Y-20650D03*
X40000Y-20650D03*
X41250Y-20650D03*
X42500Y-20650D03*
X43750Y-20650D03*
X45000Y-20650D03*
X46250Y-20650D03*
X47500Y-20650D03*
X48750Y-20650D03*
X50000Y-20650D03*
X51250Y-20650D03*
X52500Y-20650D03*
X53750Y-20650D03*
X55000Y-20650D03*
X56250Y-20650D03*
X57500Y-20650D03*
X58750Y-20650D03*
X60000Y-20650D03*
X61250Y-20650D03*
X62500Y-20650D03*
X63750Y-20650D03*
X65000Y-20650D03*
X66250Y-20650D03*
X67500Y-20650D03*
X68750Y-20650D03*
X70000Y-20650D03*
X71250Y-20650D03*
X72500Y-20650D03*
X73750Y-20650D03*
X75000Y-20650D03*
X76250Y-20650D03*
X77500Y-20650D03*
X78750Y-20650D03*
X80000Y-20650D03*
X81250Y-20650D03*
G54D18*
X82700Y-20650D03*
G54D15*
X9000Y-38500D03*
G54D16*
X10000Y-38500D03*
X11000Y-38500D03*
X12000Y-38500D03*
X13000Y-38500D03*
X14000Y-38500D03*
X15000Y-38500D03*
X15000Y-35500D03*
X14000Y-35500D03*
X13000Y-35500D03*
X12000Y-35500D03*
X11000Y-35500D03*
X10000Y-35500D03*
X9000Y-35500D03*
G54D15*
X9000Y-43500D03*
G54D16*
X10000Y-43500D03*
X11000Y-43500D03*
X12000Y-43500D03*
X13000Y-43500D03*
X14000Y-43500D03*
X15000Y-43500D03*
X16000Y-43500D03*
X16000Y-40500D03*
X15000Y-40500D03*
X14000Y-40500D03*
X13000Y-40500D03*
X12000Y-40500D03*
X11000Y-40500D03*
X10000Y-40500D03*
X9000Y-40500D03*
G54D17*
X18000Y-20000D03*
G54D15*
X18000Y-43500D03*
G54D16*
X19000Y-43500D03*
G54D15*
X18000Y-40500D03*
G54D16*
X19000Y-40500D03*
G54D15*
X8250Y-15750D03*
G54D16*
X7250Y-15750D03*
G54D15*
X10000Y-23000D03*
G54D16*
X11000Y-23000D03*
G54D15*
X12500Y-23000D03*
G54D16*
X13500Y-23000D03*
G54D15*
X15000Y-23000D03*
G54D16*
X16000Y-23000D03*
G54D15*
X10750Y-15750D03*
G54D16*
X9750Y-15750D03*
G54D15*
X15750Y-15750D03*
G54D16*
X14750Y-15750D03*
G54D15*
X13250Y-15750D03*
G54D16*
X12250Y-15750D03*
G54D20*
X18000Y-36500D03*
G54D11*
X18000Y-37500D03*
G54D20*
X17000Y-36500D03*
G54D11*
X17000Y-37500D03*
G54D16*
X15000Y-48500D03*
X15000Y-45500D03*
X13000Y-48500D03*
X13000Y-45500D03*
X14000Y-45500D03*
X14000Y-48500D03*
X12000Y-48500D03*
X12000Y-45500D03*
X11000Y-48500D03*
X11000Y-45500D03*
X10000Y-48500D03*
X10000Y-45500D03*
X9000Y-48500D03*
X9000Y-45500D03*
G54D21*
X11000Y-29500D03*
X8000Y-29500D03*
X18000Y-29500D03*
X15000Y-29500D03*
G54D16*
X88500Y-22000D03*
X88500Y-19000D03*
G54D11*
X21000Y-45500D03*
X21000Y-50500D03*
X19500Y-45500D03*
X19500Y-50500D03*
X22500Y-50500D03*
X22500Y-45500D03*
G54D16*
X86000Y-22000D03*
X86000Y-19000D03*
X91500Y-15000D03*
X88500Y-15000D03*
X95000Y-15000D03*
X98000Y-15000D03*
X17000Y-45500D03*
X17000Y-48500D03*
X16000Y-45500D03*
X16000Y-48500D03*
X11000Y-25500D03*
X8000Y-25500D03*
G54D15*
X13500Y-32500D03*
G54D16*
X12500Y-32500D03*
X12500Y-33500D03*
X6500Y-33750D03*
X9500Y-33750D03*
X16500Y-33750D03*
X19500Y-33750D03*
G54D15*
X17000Y-35000D03*
G54D16*
X18000Y-35000D03*
X19000Y-35000D03*
G54D15*
X17000Y-38750D03*
G54D16*
X18000Y-38750D03*
X19000Y-38750D03*
G54D15*
X13000Y-27500D03*
G54D16*
X13000Y-26500D03*
X14000Y-26500D03*
G54D22*
X12198Y-65198D02*
X11500Y-64500D01*
X19500Y-65198D02*
X12198Y-65198D01*
X19576Y-50500D02*
X19500Y-50500D01*
X21119Y-52043D02*
X19576Y-50500D01*
X21119Y-63579D02*
X21119Y-52043D01*
X19500Y-65198D02*
X21119Y-63579D01*
X11500Y-63573D02*
X11500Y-64500D01*
X12000Y-63073D02*
X11500Y-63573D01*
X12000Y-62500D02*
X12000Y-63073D01*
X21050Y-66748D02*
X19500Y-65198D01*
X21050Y-69150D02*
X21050Y-66748D01*
X22500Y-50500D02*
X22500Y-69150D01*
X23750Y-20650D02*
X23750Y-69150D01*
X45000Y-20650D02*
X45000Y-69150D01*
G54D23*
X56250Y-20650D02*
X56250Y-69150D01*
X57500Y-20650D02*
X57500Y-69150D01*
X66250Y-20650D02*
X66250Y-69150D01*
X63750Y-69150D02*
X63750Y-20650D01*
X65000Y-20650D02*
X65000Y-69150D01*
X31250Y-20650D02*
X31250Y-69150D01*
X58750Y-20650D02*
X58750Y-69150D01*
X33750Y-20650D02*
X33750Y-69150D01*
X35000Y-20650D02*
X35000Y-69150D01*
X36250Y-20650D02*
X36250Y-69150D01*
X37500Y-20650D02*
X37500Y-69150D01*
X60000Y-20650D02*
X60000Y-69150D01*
X61250Y-20650D02*
X61250Y-69150D01*
X62500Y-20650D02*
X62500Y-69150D01*
X76250Y-20650D02*
X76250Y-69150D01*
X75000Y-69150D02*
X75000Y-20650D01*
X71250Y-20650D02*
X71250Y-69150D01*
X72500Y-20650D02*
X72500Y-69150D01*
X73750Y-20650D02*
X73750Y-69150D01*
X67500Y-20650D02*
X67500Y-69150D01*
X68750Y-20650D02*
X68750Y-69150D01*
X70000Y-20650D02*
X70000Y-69150D01*
X80000Y-20650D02*
X80000Y-69150D01*
G54D22*
X21013Y-22508D02*
X21013Y-22502D01*
X10000Y-22367D02*
X10000Y-23000D01*
X10537Y-21830D02*
X10000Y-22367D01*
X21050Y-21830D02*
X10537Y-21830D01*
X21050Y-22508D02*
X21013Y-22508D01*
X21050Y-21830D02*
X21050Y-22508D01*
X21013Y-43987D02*
X21013Y-22508D01*
X19500Y-45500D02*
X21013Y-43987D01*
X21050Y-20650D02*
X21050Y-21830D01*
X22500Y-45500D02*
X22500Y-20650D01*
X14805Y-47695D02*
X14000Y-48500D01*
X20305Y-47695D02*
X14805Y-47695D01*
X22500Y-45500D02*
X20305Y-47695D01*
G54D23*
X50000Y-20650D02*
X50000Y-69150D01*
X48750Y-20650D02*
X48750Y-69150D01*
X42500Y-69150D02*
X42500Y-20650D01*
X38750Y-20650D02*
X38750Y-69150D01*
X40000Y-20650D02*
X40000Y-69150D01*
X41250Y-20650D02*
X41250Y-69150D01*
X81250Y-69150D02*
X81250Y-20650D01*
X47500Y-69150D02*
X47500Y-20650D01*
X93000Y-19000D02*
X90000Y-19000D01*
X51250Y-20650D02*
X51250Y-69150D01*
X89532Y-18532D02*
X90000Y-19000D01*
X51680Y-18532D02*
X89532Y-18532D01*
X51250Y-18962D02*
X51680Y-18532D01*
X51250Y-20650D02*
X51250Y-18962D01*
X43750Y-20650D02*
X43750Y-69150D01*
X46250Y-20650D02*
X46250Y-69150D01*
X32500Y-69150D02*
X32500Y-20650D01*
X25000Y-20650D02*
X25000Y-69150D01*
X26250Y-69150D02*
X26250Y-20650D01*
X27500Y-20650D02*
X27500Y-69150D01*
X28750Y-69150D02*
X28750Y-20650D01*
X55000Y-69150D02*
X55000Y-20650D01*
X52500Y-69150D02*
X52500Y-20650D01*
X53750Y-20650D02*
X53750Y-69150D01*
X77500Y-20650D02*
X77500Y-69150D01*
X78750Y-20650D02*
X78750Y-69150D01*
X30000Y-20650D02*
X30000Y-69150D01*
G54D22*
X86000Y-22000D02*
X86000Y-20650D01*
X82700Y-20650D02*
X82700Y-69150D01*
X13000Y-62500D02*
X13000Y-56000D01*
X88500Y-19000D02*
X86000Y-19000D01*
X13000Y-53892D02*
X13000Y-56000D01*
X12892Y-53892D02*
X13000Y-53892D01*
X7000Y-48000D02*
X12892Y-53892D01*
X86000Y-20650D02*
X86000Y-19000D01*
X86000Y-20650D02*
X82700Y-20650D01*
G54D23*
X15457Y-44043D02*
X16000Y-43500D01*
X14457Y-44043D02*
X15457Y-44043D01*
X13000Y-45500D02*
X14457Y-44043D01*
X16000Y-43500D02*
X16000Y-40500D01*
X16000Y-39500D02*
X15000Y-38500D01*
X16000Y-40500D02*
X16000Y-39500D01*
X7500Y-25000D02*
X7500Y-20500D01*
X8000Y-25500D02*
X7500Y-25000D01*
X7494Y-37506D02*
X7000Y-38000D01*
X7494Y-35319D02*
X7494Y-37506D01*
X7133Y-34958D02*
X7494Y-35319D01*
X7133Y-26367D02*
X7133Y-34958D01*
X8000Y-25500D02*
X7133Y-26367D01*
X7500Y-43500D02*
X9000Y-43500D01*
X7000Y-43000D02*
X7500Y-43500D01*
X15000Y-25500D02*
X14000Y-26500D01*
X15000Y-23000D02*
X15000Y-25500D01*
X13500Y-39000D02*
X12000Y-40500D01*
X13500Y-38043D02*
X13500Y-39000D01*
X13548Y-37995D02*
X13500Y-38043D01*
X15782Y-37995D02*
X13548Y-37995D01*
X16537Y-38750D02*
X15782Y-37995D01*
X17000Y-38750D02*
X16537Y-38750D01*
X16735Y-38235D02*
X14000Y-35500D01*
X17485Y-38235D02*
X16735Y-38235D01*
X18000Y-38750D02*
X17485Y-38235D01*
X9500Y-39000D02*
X10000Y-38500D01*
X9500Y-41738D02*
X9500Y-39000D01*
X10000Y-42238D02*
X9500Y-41738D01*
X10000Y-43500D02*
X10000Y-42238D01*
X16489Y-36989D02*
X15000Y-35500D01*
X17489Y-36989D02*
X16489Y-36989D01*
X18000Y-37500D02*
X17489Y-36989D01*
X9463Y-37574D02*
X9000Y-38037D01*
X9463Y-34714D02*
X9463Y-37574D01*
X9016Y-34267D02*
X9463Y-34714D01*
X9016Y-18984D02*
X9016Y-34267D01*
X12250Y-15750D02*
X9016Y-18984D01*
X9000Y-38500D02*
X9000Y-38037D01*
X13000Y-37079D02*
X13000Y-38500D01*
X13500Y-36579D02*
X13000Y-37079D01*
X13500Y-34441D02*
X13500Y-36579D01*
X14238Y-33703D02*
X13500Y-34441D01*
X14238Y-29201D02*
X14238Y-33703D01*
X13000Y-27963D02*
X14238Y-29201D01*
X13000Y-27500D02*
X13000Y-27963D01*
X11617Y-26117D02*
X11000Y-25500D01*
X11617Y-32308D02*
X11617Y-26117D01*
X12272Y-32963D02*
X11617Y-32308D01*
X11000Y-38114D02*
X11000Y-38500D01*
X11500Y-37614D02*
X11000Y-38114D01*
X11500Y-33735D02*
X11500Y-37614D01*
X12272Y-32963D02*
X11500Y-33735D01*
X12989Y-32963D02*
X12272Y-32963D01*
X13037Y-32915D02*
X12989Y-32963D01*
X13037Y-32500D02*
X13037Y-32915D01*
X13500Y-32500D02*
X13037Y-32500D01*
X15000Y-39500D02*
X15000Y-40500D01*
X14000Y-38500D02*
X15000Y-39500D01*
X15750Y-17294D02*
X15750Y-15750D01*
X17211Y-18755D02*
X15750Y-17294D01*
X21535Y-18755D02*
X17211Y-18755D01*
X21789Y-19009D02*
X21535Y-18755D01*
X21789Y-43930D02*
X21789Y-19009D01*
X19611Y-46108D02*
X21789Y-43930D01*
X15608Y-46108D02*
X19611Y-46108D01*
X15000Y-45500D02*
X15608Y-46108D01*
X10750Y-15750D02*
X10750Y-16213D01*
X8525Y-18438D02*
X10750Y-16213D01*
X8525Y-27244D02*
X8525Y-18438D01*
X7407Y-28362D02*
X8525Y-27244D01*
X7407Y-34524D02*
X7407Y-28362D01*
X7768Y-34885D02*
X7407Y-34524D01*
X7768Y-38219D02*
X7768Y-34885D01*
X6536Y-39451D02*
X7768Y-38219D01*
X6536Y-41424D02*
X6536Y-39451D01*
X8126Y-43014D02*
X6536Y-41424D01*
X9416Y-43014D02*
X8126Y-43014D01*
X9464Y-43062D02*
X9416Y-43014D01*
X9464Y-43964D02*
X9464Y-43062D01*
X11000Y-45500D02*
X9464Y-43964D01*
X14905Y-44595D02*
X14000Y-45500D01*
X15976Y-44595D02*
X14905Y-44595D01*
X16464Y-44107D02*
X15976Y-44595D01*
X16464Y-40943D02*
X16464Y-44107D01*
X18500Y-38907D02*
X16464Y-40943D01*
X18500Y-36290D02*
X18500Y-38907D01*
X19631Y-35159D02*
X18500Y-36290D01*
X19631Y-34904D02*
X19631Y-35159D01*
X19036Y-34309D02*
X19631Y-34904D01*
X19036Y-26036D02*
X19036Y-34309D01*
X16000Y-23000D02*
X19036Y-26036D01*
X12500Y-48000D02*
X13000Y-48500D01*
X12500Y-45279D02*
X12500Y-48000D01*
X11500Y-44279D02*
X12500Y-45279D01*
X11500Y-38192D02*
X11500Y-44279D01*
X12464Y-37228D02*
X11500Y-38192D01*
X12464Y-34463D02*
X12464Y-37228D01*
X13964Y-32963D02*
X12464Y-34463D01*
X13964Y-30699D02*
X13964Y-32963D01*
X12537Y-29272D02*
X13964Y-30699D01*
X12537Y-27147D02*
X12537Y-29272D01*
X12647Y-27037D02*
X12537Y-27147D01*
X13355Y-27037D02*
X12647Y-27037D01*
X13500Y-26892D02*
X13355Y-27037D01*
X13500Y-23000D02*
X13500Y-26892D01*
X10058Y-23942D02*
X11000Y-23000D01*
X10058Y-29451D02*
X10058Y-23942D01*
X10500Y-29893D02*
X10058Y-29451D01*
X10500Y-44272D02*
X10500Y-29893D01*
X11500Y-45272D02*
X10500Y-44272D01*
X11500Y-48000D02*
X11500Y-45272D01*
X12000Y-48500D02*
X11500Y-48000D01*
X9121Y-44621D02*
X10000Y-45500D01*
X7950Y-44621D02*
X9121Y-44621D01*
X6005Y-42676D02*
X7950Y-44621D01*
X6005Y-18458D02*
X6005Y-42676D01*
X8250Y-16213D02*
X6005Y-18458D01*
X8250Y-15750D02*
X8250Y-16213D01*
X18481Y-35531D02*
X18000Y-36012D01*
X18481Y-29981D02*
X18481Y-35531D01*
X18000Y-29500D02*
X18481Y-29981D01*
X18000Y-36500D02*
X18000Y-36012D01*
X12787Y-15335D02*
X12787Y-15750D01*
X12739Y-15287D02*
X12787Y-15335D01*
X7833Y-15287D02*
X12739Y-15287D01*
X7786Y-15334D02*
X7833Y-15287D01*
X7786Y-16004D02*
X7786Y-15334D01*
X5413Y-18377D02*
X7786Y-16004D01*
X5413Y-42677D02*
X5413Y-18377D01*
X8236Y-45500D02*
X5413Y-42677D01*
X9000Y-45500D02*
X8236Y-45500D01*
X13250Y-15750D02*
X12787Y-15750D01*
X17537Y-41426D02*
X18000Y-40963D01*
X17537Y-43963D02*
X17537Y-41426D01*
X16000Y-45500D02*
X17537Y-43963D01*
X18000Y-40500D02*
X18000Y-40963D01*
X11089Y-20000D02*
X18000Y-20000D01*
X9500Y-21589D02*
X11089Y-20000D01*
X9500Y-33750D02*
X9500Y-21589D01*
X12264Y-32264D02*
X12500Y-32500D01*
X12264Y-27034D02*
X12264Y-32264D01*
X12798Y-26500D02*
X12264Y-27034D01*
X13000Y-26500D02*
X12798Y-26500D01*
X89000Y-22000D02*
X90000Y-21000D01*
X88500Y-22000D02*
X89000Y-22000D01*
X15000Y-32250D02*
X15000Y-29500D01*
X16500Y-33750D02*
X15000Y-32250D01*
X7254Y-41000D02*
X7000Y-41000D01*
X8377Y-39877D02*
X7254Y-41000D01*
X9000Y-40500D02*
X8377Y-39877D01*
X10000Y-48500D02*
X9000Y-48500D01*
X8377Y-36123D02*
X9000Y-35500D01*
X8377Y-39877D02*
X8377Y-36123D01*
X8000Y-34500D02*
X9000Y-35500D01*
X8000Y-29500D02*
X8000Y-34500D01*
G54D22*
X20410Y-52910D02*
X16000Y-48500D01*
X20410Y-61782D02*
X20410Y-52910D01*
X19692Y-62500D02*
X20410Y-61782D01*
X14000Y-62500D02*
X19692Y-62500D01*
G54D23*
X7000Y-46500D02*
X7000Y-46000D01*
X9000Y-48500D02*
X7000Y-46500D01*
X15000Y-48500D02*
X16000Y-48500D01*
X11464Y-48964D02*
X11000Y-48500D01*
X14536Y-48964D02*
X11464Y-48964D01*
X15000Y-48500D02*
X14536Y-48964D01*
G54D10*
G36*
X12071Y-45500D02*
X12000Y-45571D01*
X11929Y-45500D01*
X12000Y-45429D01*
X12071Y-45500D01*
X12071Y-45500D01*
G37*
G54D24*
X12071Y-45500D02*
X12000Y-45571D01*
X11929Y-45500D01*
X12000Y-45429D01*
X12071Y-45500D01*
G54D10*
G36*
X20645Y-22338D02*
X20639Y-22347D01*
X20608Y-22502D01*
X20608Y-22508D01*
X20608Y-43819D01*
X19425Y-45002D01*
X19425Y-43585D01*
X19425Y-43416D01*
X19425Y-40585D01*
X19425Y-40416D01*
X19361Y-40260D01*
X19241Y-40140D01*
X19085Y-40075D01*
X18916Y-40075D01*
X18760Y-40139D01*
X18640Y-40259D01*
X18575Y-40415D01*
X18575Y-40584D01*
X18639Y-40740D01*
X18759Y-40860D01*
X18915Y-40925D01*
X19084Y-40925D01*
X19240Y-40861D01*
X19360Y-40741D01*
X19425Y-40585D01*
X19425Y-43416D01*
X19361Y-43260D01*
X19241Y-43140D01*
X19085Y-43075D01*
X18916Y-43075D01*
X18760Y-43139D01*
X18640Y-43259D01*
X18575Y-43415D01*
X18575Y-43584D01*
X18639Y-43740D01*
X18759Y-43860D01*
X18915Y-43925D01*
X19084Y-43925D01*
X19240Y-43861D01*
X19360Y-43741D01*
X19425Y-43585D01*
X19425Y-45002D01*
X19353Y-45074D01*
X19246Y-45119D01*
X19120Y-45245D01*
X19051Y-45410D01*
X19051Y-45589D01*
X19119Y-45754D01*
X19238Y-45873D01*
X17210Y-45873D01*
X17240Y-45861D01*
X17360Y-45741D01*
X17425Y-45585D01*
X17425Y-45416D01*
X17361Y-45260D01*
X17241Y-45140D01*
X17085Y-45075D01*
X16916Y-45075D01*
X16760Y-45139D01*
X16640Y-45259D01*
X16575Y-45415D01*
X16575Y-45584D01*
X16639Y-45740D01*
X16759Y-45860D01*
X16790Y-45873D01*
X16210Y-45873D01*
X16240Y-45861D01*
X16360Y-45741D01*
X16425Y-45585D01*
X16425Y-45416D01*
X16422Y-45409D01*
X17703Y-44130D01*
X17703Y-44129D01*
X17754Y-44053D01*
X17771Y-43963D01*
X17772Y-43963D01*
X17772Y-43924D01*
X18305Y-43924D01*
X18360Y-43901D01*
X18402Y-43859D01*
X18424Y-43804D01*
X18424Y-43745D01*
X18424Y-43195D01*
X18401Y-43140D01*
X18359Y-43098D01*
X18304Y-43076D01*
X18245Y-43076D01*
X17772Y-43076D01*
X17772Y-41523D01*
X18166Y-41130D01*
X18166Y-41129D01*
X18217Y-41053D01*
X18234Y-40964D01*
X18235Y-40963D01*
X18235Y-40924D01*
X18305Y-40924D01*
X18360Y-40901D01*
X18402Y-40859D01*
X18424Y-40804D01*
X18424Y-40745D01*
X18424Y-40195D01*
X18401Y-40140D01*
X18359Y-40098D01*
X18304Y-40076D01*
X18245Y-40076D01*
X17695Y-40076D01*
X17640Y-40099D01*
X18666Y-39073D01*
X18688Y-39039D01*
X18759Y-39110D01*
X18915Y-39175D01*
X19084Y-39175D01*
X19240Y-39111D01*
X19360Y-38991D01*
X19425Y-38835D01*
X19425Y-38666D01*
X19361Y-38510D01*
X19241Y-38390D01*
X19085Y-38325D01*
X18916Y-38325D01*
X18760Y-38389D01*
X18735Y-38414D01*
X18735Y-36387D01*
X19797Y-35326D01*
X19797Y-35325D01*
X19848Y-35249D01*
X19865Y-35159D01*
X19866Y-35159D01*
X19866Y-34904D01*
X19848Y-34814D01*
X19797Y-34738D01*
X19271Y-34212D01*
X19271Y-34115D01*
X19415Y-34175D01*
X19584Y-34175D01*
X19740Y-34111D01*
X19860Y-33991D01*
X19925Y-33835D01*
X19925Y-33666D01*
X19861Y-33510D01*
X19741Y-33390D01*
X19585Y-33325D01*
X19416Y-33325D01*
X19271Y-33384D01*
X19271Y-26036D01*
X19253Y-25946D01*
X19202Y-25870D01*
X19202Y-25869D01*
X16422Y-23090D01*
X16425Y-23085D01*
X16425Y-22916D01*
X16361Y-22760D01*
X16241Y-22640D01*
X16085Y-22575D01*
X15916Y-22575D01*
X15760Y-22639D01*
X15640Y-22759D01*
X15575Y-22915D01*
X15575Y-23084D01*
X15639Y-23240D01*
X15759Y-23360D01*
X15915Y-23425D01*
X16084Y-23425D01*
X16090Y-23422D01*
X18801Y-26133D01*
X18801Y-34309D01*
X18819Y-34399D01*
X18870Y-34475D01*
X18970Y-34575D01*
X18916Y-34575D01*
X18760Y-34639D01*
X18716Y-34683D01*
X18716Y-29981D01*
X18698Y-29891D01*
X18647Y-29815D01*
X18499Y-29667D01*
X18525Y-29605D01*
X18525Y-29396D01*
X18445Y-29203D01*
X18298Y-29055D01*
X18105Y-28975D01*
X17896Y-28975D01*
X17703Y-29055D01*
X17555Y-29202D01*
X17475Y-29395D01*
X17475Y-29604D01*
X17555Y-29797D01*
X17702Y-29945D01*
X17895Y-30025D01*
X18104Y-30025D01*
X18166Y-29998D01*
X18246Y-30078D01*
X18246Y-34645D01*
X18241Y-34640D01*
X18085Y-34575D01*
X17916Y-34575D01*
X17760Y-34639D01*
X17640Y-34759D01*
X17575Y-34915D01*
X17575Y-35084D01*
X17639Y-35240D01*
X17759Y-35360D01*
X17915Y-35425D01*
X18084Y-35425D01*
X18240Y-35361D01*
X18246Y-35355D01*
X18246Y-35434D01*
X17834Y-35846D01*
X17783Y-35922D01*
X17765Y-36012D01*
X17765Y-36051D01*
X17670Y-36051D01*
X17615Y-36074D01*
X17573Y-36116D01*
X17551Y-36171D01*
X17551Y-36230D01*
X17551Y-36766D01*
X17489Y-36754D01*
X17449Y-36754D01*
X17449Y-36170D01*
X17426Y-36115D01*
X17424Y-36113D01*
X17424Y-35304D01*
X17424Y-35245D01*
X17424Y-34695D01*
X17401Y-34640D01*
X17359Y-34598D01*
X17304Y-34576D01*
X17245Y-34576D01*
X16925Y-34576D01*
X16925Y-33835D01*
X16925Y-33666D01*
X16861Y-33510D01*
X16741Y-33390D01*
X16585Y-33325D01*
X16416Y-33325D01*
X16409Y-33327D01*
X15235Y-32153D01*
X15235Y-29970D01*
X15297Y-29945D01*
X15445Y-29798D01*
X15525Y-29605D01*
X15525Y-29396D01*
X15525Y-23112D01*
X15525Y-22888D01*
X15524Y-22774D01*
X15524Y-22675D01*
X15486Y-22584D01*
X15416Y-22514D01*
X15324Y-22476D01*
X15112Y-22475D01*
X15050Y-22537D01*
X15050Y-22950D01*
X15463Y-22950D01*
X15525Y-22888D01*
X15525Y-23112D01*
X15463Y-23050D01*
X15050Y-23050D01*
X15050Y-23463D01*
X15112Y-23525D01*
X15324Y-23524D01*
X15416Y-23486D01*
X15486Y-23416D01*
X15524Y-23325D01*
X15524Y-23226D01*
X15525Y-23112D01*
X15525Y-29396D01*
X15445Y-29203D01*
X15298Y-29055D01*
X15105Y-28975D01*
X14950Y-28975D01*
X14950Y-23463D01*
X14950Y-23050D01*
X14950Y-22950D01*
X14950Y-22537D01*
X14888Y-22475D01*
X14676Y-22476D01*
X14584Y-22514D01*
X14514Y-22584D01*
X14476Y-22675D01*
X14476Y-22774D01*
X14475Y-22888D01*
X14537Y-22950D01*
X14950Y-22950D01*
X14950Y-23050D01*
X14537Y-23050D01*
X14475Y-23112D01*
X14476Y-23226D01*
X14476Y-23325D01*
X14514Y-23416D01*
X14584Y-23486D01*
X14676Y-23524D01*
X14888Y-23525D01*
X14950Y-23463D01*
X14950Y-28975D01*
X14896Y-28975D01*
X14703Y-29055D01*
X14555Y-29202D01*
X14530Y-29262D01*
X14530Y-26576D01*
X14518Y-26368D01*
X14460Y-26228D01*
X14368Y-26203D01*
X14071Y-26500D01*
X14368Y-26797D01*
X14460Y-26772D01*
X14530Y-26576D01*
X14530Y-29262D01*
X14475Y-29395D01*
X14475Y-29604D01*
X14555Y-29797D01*
X14702Y-29945D01*
X14765Y-29971D01*
X14765Y-32250D01*
X14783Y-32340D01*
X14834Y-32416D01*
X16077Y-33659D01*
X16075Y-33665D01*
X16075Y-33834D01*
X16139Y-33990D01*
X16259Y-34110D01*
X16415Y-34175D01*
X16584Y-34175D01*
X16740Y-34111D01*
X16860Y-33991D01*
X16925Y-33835D01*
X16925Y-34576D01*
X16695Y-34576D01*
X16640Y-34599D01*
X16598Y-34641D01*
X16576Y-34696D01*
X16576Y-34755D01*
X16576Y-35305D01*
X16599Y-35360D01*
X16641Y-35402D01*
X16696Y-35424D01*
X16755Y-35424D01*
X17305Y-35424D01*
X17360Y-35401D01*
X17402Y-35359D01*
X17424Y-35304D01*
X17424Y-36113D01*
X17384Y-36073D01*
X17329Y-36051D01*
X17270Y-36051D01*
X16670Y-36051D01*
X16615Y-36074D01*
X16573Y-36116D01*
X16551Y-36171D01*
X16551Y-36230D01*
X16551Y-36718D01*
X15422Y-35590D01*
X15425Y-35585D01*
X15425Y-35416D01*
X15361Y-35260D01*
X15241Y-35140D01*
X15085Y-35075D01*
X14916Y-35075D01*
X14760Y-35139D01*
X14640Y-35259D01*
X14575Y-35415D01*
X14575Y-35584D01*
X14639Y-35740D01*
X14759Y-35860D01*
X14915Y-35925D01*
X15084Y-35925D01*
X15090Y-35922D01*
X16322Y-37155D01*
X16323Y-37155D01*
X16399Y-37206D01*
X16488Y-37223D01*
X16489Y-37224D01*
X16641Y-37224D01*
X16620Y-37245D01*
X16551Y-37410D01*
X16551Y-37589D01*
X16619Y-37754D01*
X16745Y-37880D01*
X16910Y-37949D01*
X17089Y-37949D01*
X17254Y-37881D01*
X17380Y-37755D01*
X17449Y-37590D01*
X17449Y-37411D01*
X17381Y-37246D01*
X17359Y-37224D01*
X17391Y-37224D01*
X17558Y-37391D01*
X17551Y-37410D01*
X17551Y-37589D01*
X17619Y-37754D01*
X17745Y-37880D01*
X17910Y-37949D01*
X18089Y-37949D01*
X18254Y-37881D01*
X18265Y-37870D01*
X18265Y-38414D01*
X18241Y-38390D01*
X18085Y-38325D01*
X17916Y-38325D01*
X17909Y-38327D01*
X17651Y-38069D01*
X17575Y-38018D01*
X17485Y-38000D01*
X16832Y-38000D01*
X14422Y-35590D01*
X14425Y-35585D01*
X14425Y-35416D01*
X14361Y-35260D01*
X14241Y-35140D01*
X14085Y-35075D01*
X13916Y-35075D01*
X13760Y-35139D01*
X13735Y-35164D01*
X13735Y-34538D01*
X14404Y-33870D01*
X14404Y-33869D01*
X14455Y-33793D01*
X14472Y-33703D01*
X14473Y-33703D01*
X14473Y-29201D01*
X14472Y-29200D01*
X14455Y-29111D01*
X14404Y-29035D01*
X14404Y-29034D01*
X13293Y-27924D01*
X13305Y-27924D01*
X13360Y-27901D01*
X13402Y-27859D01*
X13424Y-27804D01*
X13424Y-27745D01*
X13424Y-27258D01*
X13445Y-27254D01*
X13521Y-27203D01*
X13666Y-27058D01*
X13717Y-26982D01*
X13724Y-26946D01*
X13728Y-26960D01*
X13924Y-27030D01*
X14132Y-27018D01*
X14272Y-26960D01*
X14297Y-26868D01*
X14035Y-26606D01*
X14000Y-26571D01*
X13929Y-26500D01*
X14000Y-26429D01*
X14035Y-26394D01*
X14297Y-26132D01*
X14272Y-26040D01*
X14076Y-25970D01*
X13868Y-25982D01*
X13735Y-26037D01*
X13735Y-23363D01*
X13740Y-23361D01*
X13860Y-23241D01*
X13925Y-23085D01*
X13925Y-22916D01*
X13861Y-22760D01*
X13741Y-22640D01*
X13585Y-22575D01*
X13416Y-22575D01*
X13260Y-22639D01*
X13140Y-22759D01*
X13075Y-22915D01*
X13075Y-23084D01*
X13139Y-23240D01*
X13259Y-23360D01*
X13265Y-23362D01*
X13265Y-26164D01*
X13241Y-26140D01*
X13085Y-26075D01*
X12924Y-26075D01*
X12924Y-23304D01*
X12924Y-23245D01*
X12924Y-22695D01*
X12901Y-22640D01*
X12859Y-22598D01*
X12804Y-22576D01*
X12745Y-22576D01*
X12195Y-22576D01*
X12140Y-22599D01*
X12098Y-22641D01*
X12076Y-22696D01*
X12076Y-22755D01*
X12076Y-23305D01*
X12099Y-23360D01*
X12141Y-23402D01*
X12196Y-23424D01*
X12255Y-23424D01*
X12805Y-23424D01*
X12860Y-23401D01*
X12902Y-23359D01*
X12924Y-23304D01*
X12924Y-26075D01*
X12916Y-26075D01*
X12760Y-26139D01*
X12640Y-26259D01*
X12592Y-26373D01*
X12098Y-26868D01*
X12047Y-26944D01*
X12029Y-27034D01*
X12029Y-32264D01*
X12047Y-32354D01*
X12079Y-32403D01*
X12075Y-32415D01*
X12075Y-32434D01*
X11852Y-32211D01*
X11852Y-26117D01*
X11834Y-26027D01*
X11783Y-25951D01*
X11783Y-25950D01*
X11422Y-25590D01*
X11425Y-25585D01*
X11425Y-25416D01*
X11361Y-25260D01*
X11241Y-25140D01*
X11085Y-25075D01*
X10916Y-25075D01*
X10760Y-25139D01*
X10640Y-25259D01*
X10575Y-25415D01*
X10575Y-25584D01*
X10639Y-25740D01*
X10759Y-25860D01*
X10915Y-25925D01*
X11084Y-25925D01*
X11090Y-25922D01*
X11382Y-26214D01*
X11382Y-29139D01*
X11298Y-29055D01*
X11105Y-28975D01*
X10896Y-28975D01*
X10703Y-29055D01*
X10555Y-29202D01*
X10475Y-29395D01*
X10475Y-29536D01*
X10293Y-29354D01*
X10293Y-24039D01*
X10909Y-23422D01*
X10915Y-23425D01*
X11084Y-23425D01*
X11240Y-23361D01*
X11360Y-23241D01*
X11425Y-23085D01*
X11425Y-22916D01*
X11361Y-22760D01*
X11241Y-22640D01*
X11085Y-22575D01*
X10916Y-22575D01*
X10760Y-22639D01*
X10640Y-22759D01*
X10575Y-22915D01*
X10575Y-23084D01*
X10577Y-23090D01*
X10424Y-23244D01*
X10424Y-22695D01*
X10405Y-22649D01*
X10405Y-22534D01*
X10704Y-22235D01*
X20374Y-22235D01*
X20416Y-22277D01*
X20471Y-22299D01*
X20530Y-22299D01*
X20645Y-22299D01*
X20645Y-22338D01*
X20645Y-22338D01*
G37*
G54D24*
X20645Y-22338D02*
X20639Y-22347D01*
X20608Y-22502D01*
X20608Y-22508D01*
X20608Y-43819D01*
X19425Y-45002D01*
X19425Y-43585D01*
X19425Y-43416D01*
X19425Y-40585D01*
X19425Y-40416D01*
X19361Y-40260D01*
X19241Y-40140D01*
X19085Y-40075D01*
X18916Y-40075D01*
X18760Y-40139D01*
X18640Y-40259D01*
X18575Y-40415D01*
X18575Y-40584D01*
X18639Y-40740D01*
X18759Y-40860D01*
X18915Y-40925D01*
X19084Y-40925D01*
X19240Y-40861D01*
X19360Y-40741D01*
X19425Y-40585D01*
X19425Y-43416D01*
X19361Y-43260D01*
X19241Y-43140D01*
X19085Y-43075D01*
X18916Y-43075D01*
X18760Y-43139D01*
X18640Y-43259D01*
X18575Y-43415D01*
X18575Y-43584D01*
X18639Y-43740D01*
X18759Y-43860D01*
X18915Y-43925D01*
X19084Y-43925D01*
X19240Y-43861D01*
X19360Y-43741D01*
X19425Y-43585D01*
X19425Y-45002D01*
X19353Y-45074D01*
X19246Y-45119D01*
X19120Y-45245D01*
X19051Y-45410D01*
X19051Y-45589D01*
X19119Y-45754D01*
X19238Y-45873D01*
X17210Y-45873D01*
X17240Y-45861D01*
X17360Y-45741D01*
X17425Y-45585D01*
X17425Y-45416D01*
X17361Y-45260D01*
X17241Y-45140D01*
X17085Y-45075D01*
X16916Y-45075D01*
X16760Y-45139D01*
X16640Y-45259D01*
X16575Y-45415D01*
X16575Y-45584D01*
X16639Y-45740D01*
X16759Y-45860D01*
X16790Y-45873D01*
X16210Y-45873D01*
X16240Y-45861D01*
X16360Y-45741D01*
X16425Y-45585D01*
X16425Y-45416D01*
X16422Y-45409D01*
X17703Y-44130D01*
X17703Y-44129D01*
X17754Y-44053D01*
X17771Y-43963D01*
X17772Y-43963D01*
X17772Y-43924D01*
X18305Y-43924D01*
X18360Y-43901D01*
X18402Y-43859D01*
X18424Y-43804D01*
X18424Y-43745D01*
X18424Y-43195D01*
X18401Y-43140D01*
X18359Y-43098D01*
X18304Y-43076D01*
X18245Y-43076D01*
X17772Y-43076D01*
X17772Y-41523D01*
X18166Y-41130D01*
X18166Y-41129D01*
X18217Y-41053D01*
X18234Y-40964D01*
X18235Y-40963D01*
X18235Y-40924D01*
X18305Y-40924D01*
X18360Y-40901D01*
X18402Y-40859D01*
X18424Y-40804D01*
X18424Y-40745D01*
X18424Y-40195D01*
X18401Y-40140D01*
X18359Y-40098D01*
X18304Y-40076D01*
X18245Y-40076D01*
X17695Y-40076D01*
X17640Y-40099D01*
X18666Y-39073D01*
X18688Y-39039D01*
X18759Y-39110D01*
X18915Y-39175D01*
X19084Y-39175D01*
X19240Y-39111D01*
X19360Y-38991D01*
X19425Y-38835D01*
X19425Y-38666D01*
X19361Y-38510D01*
X19241Y-38390D01*
X19085Y-38325D01*
X18916Y-38325D01*
X18760Y-38389D01*
X18735Y-38414D01*
X18735Y-36387D01*
X19797Y-35326D01*
X19797Y-35325D01*
X19848Y-35249D01*
X19865Y-35159D01*
X19866Y-35159D01*
X19866Y-34904D01*
X19848Y-34814D01*
X19797Y-34738D01*
X19271Y-34212D01*
X19271Y-34115D01*
X19415Y-34175D01*
X19584Y-34175D01*
X19740Y-34111D01*
X19860Y-33991D01*
X19925Y-33835D01*
X19925Y-33666D01*
X19861Y-33510D01*
X19741Y-33390D01*
X19585Y-33325D01*
X19416Y-33325D01*
X19271Y-33384D01*
X19271Y-26036D01*
X19253Y-25946D01*
X19202Y-25870D01*
X19202Y-25869D01*
X16422Y-23090D01*
X16425Y-23085D01*
X16425Y-22916D01*
X16361Y-22760D01*
X16241Y-22640D01*
X16085Y-22575D01*
X15916Y-22575D01*
X15760Y-22639D01*
X15640Y-22759D01*
X15575Y-22915D01*
X15575Y-23084D01*
X15639Y-23240D01*
X15759Y-23360D01*
X15915Y-23425D01*
X16084Y-23425D01*
X16090Y-23422D01*
X18801Y-26133D01*
X18801Y-34309D01*
X18819Y-34399D01*
X18870Y-34475D01*
X18970Y-34575D01*
X18916Y-34575D01*
X18760Y-34639D01*
X18716Y-34683D01*
X18716Y-29981D01*
X18698Y-29891D01*
X18647Y-29815D01*
X18499Y-29667D01*
X18525Y-29605D01*
X18525Y-29396D01*
X18445Y-29203D01*
X18298Y-29055D01*
X18105Y-28975D01*
X17896Y-28975D01*
X17703Y-29055D01*
X17555Y-29202D01*
X17475Y-29395D01*
X17475Y-29604D01*
X17555Y-29797D01*
X17702Y-29945D01*
X17895Y-30025D01*
X18104Y-30025D01*
X18166Y-29998D01*
X18246Y-30078D01*
X18246Y-34645D01*
X18241Y-34640D01*
X18085Y-34575D01*
X17916Y-34575D01*
X17760Y-34639D01*
X17640Y-34759D01*
X17575Y-34915D01*
X17575Y-35084D01*
X17639Y-35240D01*
X17759Y-35360D01*
X17915Y-35425D01*
X18084Y-35425D01*
X18240Y-35361D01*
X18246Y-35355D01*
X18246Y-35434D01*
X17834Y-35846D01*
X17783Y-35922D01*
X17765Y-36012D01*
X17765Y-36051D01*
X17670Y-36051D01*
X17615Y-36074D01*
X17573Y-36116D01*
X17551Y-36171D01*
X17551Y-36230D01*
X17551Y-36766D01*
X17489Y-36754D01*
X17449Y-36754D01*
X17449Y-36170D01*
X17426Y-36115D01*
X17424Y-36113D01*
X17424Y-35304D01*
X17424Y-35245D01*
X17424Y-34695D01*
X17401Y-34640D01*
X17359Y-34598D01*
X17304Y-34576D01*
X17245Y-34576D01*
X16925Y-34576D01*
X16925Y-33835D01*
X16925Y-33666D01*
X16861Y-33510D01*
X16741Y-33390D01*
X16585Y-33325D01*
X16416Y-33325D01*
X16409Y-33327D01*
X15235Y-32153D01*
X15235Y-29970D01*
X15297Y-29945D01*
X15445Y-29798D01*
X15525Y-29605D01*
X15525Y-29396D01*
X15525Y-23112D01*
X15525Y-22888D01*
X15524Y-22774D01*
X15524Y-22675D01*
X15486Y-22584D01*
X15416Y-22514D01*
X15324Y-22476D01*
X15112Y-22475D01*
X15050Y-22537D01*
X15050Y-22950D01*
X15463Y-22950D01*
X15525Y-22888D01*
X15525Y-23112D01*
X15463Y-23050D01*
X15050Y-23050D01*
X15050Y-23463D01*
X15112Y-23525D01*
X15324Y-23524D01*
X15416Y-23486D01*
X15486Y-23416D01*
X15524Y-23325D01*
X15524Y-23226D01*
X15525Y-23112D01*
X15525Y-29396D01*
X15445Y-29203D01*
X15298Y-29055D01*
X15105Y-28975D01*
X14950Y-28975D01*
X14950Y-23463D01*
X14950Y-23050D01*
X14950Y-22950D01*
X14950Y-22537D01*
X14888Y-22475D01*
X14676Y-22476D01*
X14584Y-22514D01*
X14514Y-22584D01*
X14476Y-22675D01*
X14476Y-22774D01*
X14475Y-22888D01*
X14537Y-22950D01*
X14950Y-22950D01*
X14950Y-23050D01*
X14537Y-23050D01*
X14475Y-23112D01*
X14476Y-23226D01*
X14476Y-23325D01*
X14514Y-23416D01*
X14584Y-23486D01*
X14676Y-23524D01*
X14888Y-23525D01*
X14950Y-23463D01*
X14950Y-28975D01*
X14896Y-28975D01*
X14703Y-29055D01*
X14555Y-29202D01*
X14530Y-29262D01*
X14530Y-26576D01*
X14518Y-26368D01*
X14460Y-26228D01*
X14368Y-26203D01*
X14071Y-26500D01*
X14368Y-26797D01*
X14460Y-26772D01*
X14530Y-26576D01*
X14530Y-29262D01*
X14475Y-29395D01*
X14475Y-29604D01*
X14555Y-29797D01*
X14702Y-29945D01*
X14765Y-29971D01*
X14765Y-32250D01*
X14783Y-32340D01*
X14834Y-32416D01*
X16077Y-33659D01*
X16075Y-33665D01*
X16075Y-33834D01*
X16139Y-33990D01*
X16259Y-34110D01*
X16415Y-34175D01*
X16584Y-34175D01*
X16740Y-34111D01*
X16860Y-33991D01*
X16925Y-33835D01*
X16925Y-34576D01*
X16695Y-34576D01*
X16640Y-34599D01*
X16598Y-34641D01*
X16576Y-34696D01*
X16576Y-34755D01*
X16576Y-35305D01*
X16599Y-35360D01*
X16641Y-35402D01*
X16696Y-35424D01*
X16755Y-35424D01*
X17305Y-35424D01*
X17360Y-35401D01*
X17402Y-35359D01*
X17424Y-35304D01*
X17424Y-36113D01*
X17384Y-36073D01*
X17329Y-36051D01*
X17270Y-36051D01*
X16670Y-36051D01*
X16615Y-36074D01*
X16573Y-36116D01*
X16551Y-36171D01*
X16551Y-36230D01*
X16551Y-36718D01*
X15422Y-35590D01*
X15425Y-35585D01*
X15425Y-35416D01*
X15361Y-35260D01*
X15241Y-35140D01*
X15085Y-35075D01*
X14916Y-35075D01*
X14760Y-35139D01*
X14640Y-35259D01*
X14575Y-35415D01*
X14575Y-35584D01*
X14639Y-35740D01*
X14759Y-35860D01*
X14915Y-35925D01*
X15084Y-35925D01*
X15090Y-35922D01*
X16322Y-37155D01*
X16323Y-37155D01*
X16399Y-37206D01*
X16488Y-37223D01*
X16489Y-37224D01*
X16641Y-37224D01*
X16620Y-37245D01*
X16551Y-37410D01*
X16551Y-37589D01*
X16619Y-37754D01*
X16745Y-37880D01*
X16910Y-37949D01*
X17089Y-37949D01*
X17254Y-37881D01*
X17380Y-37755D01*
X17449Y-37590D01*
X17449Y-37411D01*
X17381Y-37246D01*
X17359Y-37224D01*
X17391Y-37224D01*
X17558Y-37391D01*
X17551Y-37410D01*
X17551Y-37589D01*
X17619Y-37754D01*
X17745Y-37880D01*
X17910Y-37949D01*
X18089Y-37949D01*
X18254Y-37881D01*
X18265Y-37870D01*
X18265Y-38414D01*
X18241Y-38390D01*
X18085Y-38325D01*
X17916Y-38325D01*
X17909Y-38327D01*
X17651Y-38069D01*
X17575Y-38018D01*
X17485Y-38000D01*
X16832Y-38000D01*
X14422Y-35590D01*
X14425Y-35585D01*
X14425Y-35416D01*
X14361Y-35260D01*
X14241Y-35140D01*
X14085Y-35075D01*
X13916Y-35075D01*
X13760Y-35139D01*
X13735Y-35164D01*
X13735Y-34538D01*
X14404Y-33870D01*
X14404Y-33869D01*
X14455Y-33793D01*
X14472Y-33703D01*
X14473Y-33703D01*
X14473Y-29201D01*
X14472Y-29200D01*
X14455Y-29111D01*
X14404Y-29035D01*
X14404Y-29034D01*
X13293Y-27924D01*
X13305Y-27924D01*
X13360Y-27901D01*
X13402Y-27859D01*
X13424Y-27804D01*
X13424Y-27745D01*
X13424Y-27258D01*
X13445Y-27254D01*
X13521Y-27203D01*
X13666Y-27058D01*
X13717Y-26982D01*
X13724Y-26946D01*
X13728Y-26960D01*
X13924Y-27030D01*
X14132Y-27018D01*
X14272Y-26960D01*
X14297Y-26868D01*
X14035Y-26606D01*
X14000Y-26571D01*
X13929Y-26500D01*
X14000Y-26429D01*
X14035Y-26394D01*
X14297Y-26132D01*
X14272Y-26040D01*
X14076Y-25970D01*
X13868Y-25982D01*
X13735Y-26037D01*
X13735Y-23363D01*
X13740Y-23361D01*
X13860Y-23241D01*
X13925Y-23085D01*
X13925Y-22916D01*
X13861Y-22760D01*
X13741Y-22640D01*
X13585Y-22575D01*
X13416Y-22575D01*
X13260Y-22639D01*
X13140Y-22759D01*
X13075Y-22915D01*
X13075Y-23084D01*
X13139Y-23240D01*
X13259Y-23360D01*
X13265Y-23362D01*
X13265Y-26164D01*
X13241Y-26140D01*
X13085Y-26075D01*
X12924Y-26075D01*
X12924Y-23304D01*
X12924Y-23245D01*
X12924Y-22695D01*
X12901Y-22640D01*
X12859Y-22598D01*
X12804Y-22576D01*
X12745Y-22576D01*
X12195Y-22576D01*
X12140Y-22599D01*
X12098Y-22641D01*
X12076Y-22696D01*
X12076Y-22755D01*
X12076Y-23305D01*
X12099Y-23360D01*
X12141Y-23402D01*
X12196Y-23424D01*
X12255Y-23424D01*
X12805Y-23424D01*
X12860Y-23401D01*
X12902Y-23359D01*
X12924Y-23304D01*
X12924Y-26075D01*
X12916Y-26075D01*
X12760Y-26139D01*
X12640Y-26259D01*
X12592Y-26373D01*
X12098Y-26868D01*
X12047Y-26944D01*
X12029Y-27034D01*
X12029Y-32264D01*
X12047Y-32354D01*
X12079Y-32403D01*
X12075Y-32415D01*
X12075Y-32434D01*
X11852Y-32211D01*
X11852Y-26117D01*
X11834Y-26027D01*
X11783Y-25951D01*
X11783Y-25950D01*
X11422Y-25590D01*
X11425Y-25585D01*
X11425Y-25416D01*
X11361Y-25260D01*
X11241Y-25140D01*
X11085Y-25075D01*
X10916Y-25075D01*
X10760Y-25139D01*
X10640Y-25259D01*
X10575Y-25415D01*
X10575Y-25584D01*
X10639Y-25740D01*
X10759Y-25860D01*
X10915Y-25925D01*
X11084Y-25925D01*
X11090Y-25922D01*
X11382Y-26214D01*
X11382Y-29139D01*
X11298Y-29055D01*
X11105Y-28975D01*
X10896Y-28975D01*
X10703Y-29055D01*
X10555Y-29202D01*
X10475Y-29395D01*
X10475Y-29536D01*
X10293Y-29354D01*
X10293Y-24039D01*
X10909Y-23422D01*
X10915Y-23425D01*
X11084Y-23425D01*
X11240Y-23361D01*
X11360Y-23241D01*
X11425Y-23085D01*
X11425Y-22916D01*
X11361Y-22760D01*
X11241Y-22640D01*
X11085Y-22575D01*
X10916Y-22575D01*
X10760Y-22639D01*
X10640Y-22759D01*
X10575Y-22915D01*
X10575Y-23084D01*
X10577Y-23090D01*
X10424Y-23244D01*
X10424Y-22695D01*
X10405Y-22649D01*
X10405Y-22534D01*
X10704Y-22235D01*
X20374Y-22235D01*
X20416Y-22277D01*
X20471Y-22299D01*
X20530Y-22299D01*
X20645Y-22299D01*
X20645Y-22338D01*
G54D10*
G36*
X20714Y-63411D02*
X19332Y-64793D01*
X14924Y-64793D01*
X14924Y-64745D01*
X14924Y-64195D01*
X14901Y-64140D01*
X14859Y-64098D01*
X14804Y-64076D01*
X14745Y-64076D01*
X14195Y-64076D01*
X14140Y-64099D01*
X14098Y-64141D01*
X14076Y-64196D01*
X14076Y-64255D01*
X14076Y-64793D01*
X13934Y-64793D01*
X13922Y-64781D01*
X13960Y-64772D01*
X14030Y-64576D01*
X14018Y-64368D01*
X13960Y-64228D01*
X13868Y-64203D01*
X13797Y-64274D01*
X13797Y-64132D01*
X13772Y-64040D01*
X13576Y-63970D01*
X13368Y-63982D01*
X13351Y-63989D01*
X13351Y-62921D01*
X13000Y-62571D01*
X12649Y-62921D01*
X12683Y-63021D01*
X12906Y-63103D01*
X13144Y-63093D01*
X13317Y-63021D01*
X13351Y-62921D01*
X13351Y-63989D01*
X13228Y-64040D01*
X13203Y-64132D01*
X13500Y-64429D01*
X13797Y-64132D01*
X13797Y-64274D01*
X13606Y-64465D01*
X13571Y-64500D01*
X13500Y-64571D01*
X13429Y-64500D01*
X13394Y-64465D01*
X13132Y-64203D01*
X13040Y-64228D01*
X13002Y-64331D01*
X12960Y-64228D01*
X12868Y-64203D01*
X12797Y-64274D01*
X12797Y-64132D01*
X12772Y-64040D01*
X12576Y-63970D01*
X12368Y-63982D01*
X12228Y-64040D01*
X12203Y-64132D01*
X12500Y-64429D01*
X12797Y-64132D01*
X12797Y-64274D01*
X12606Y-64465D01*
X12571Y-64500D01*
X12500Y-64571D01*
X12429Y-64500D01*
X12394Y-64465D01*
X12132Y-64203D01*
X12040Y-64228D01*
X11976Y-64404D01*
X11924Y-64352D01*
X11924Y-64195D01*
X11905Y-64149D01*
X11905Y-63740D01*
X12286Y-63359D01*
X12374Y-63228D01*
X12404Y-63073D01*
X12405Y-63073D01*
X12405Y-62988D01*
X12435Y-62976D01*
X12477Y-62934D01*
X12499Y-62879D01*
X12499Y-62823D01*
X12579Y-62851D01*
X12929Y-62500D01*
X12579Y-62149D01*
X12499Y-62176D01*
X12499Y-62120D01*
X12476Y-62065D01*
X12434Y-62023D01*
X12379Y-62001D01*
X12320Y-62001D01*
X11620Y-62001D01*
X11565Y-62024D01*
X11523Y-62066D01*
X11501Y-62121D01*
X11501Y-62180D01*
X11501Y-62880D01*
X11524Y-62935D01*
X11545Y-62956D01*
X11214Y-63287D01*
X11126Y-63418D01*
X11095Y-63573D01*
X11095Y-64148D01*
X11076Y-64196D01*
X11076Y-64255D01*
X11076Y-64805D01*
X11099Y-64860D01*
X11141Y-64902D01*
X11196Y-64924D01*
X11255Y-64924D01*
X11352Y-64924D01*
X11912Y-65484D01*
X12043Y-65572D01*
X12198Y-65603D01*
X19333Y-65603D01*
X20645Y-66915D01*
X20645Y-67501D01*
X20470Y-67501D01*
X20415Y-67524D01*
X20373Y-67566D01*
X20351Y-67621D01*
X20351Y-67680D01*
X20351Y-67950D01*
X20215Y-67950D01*
X20208Y-67914D01*
X20159Y-67841D01*
X20086Y-67792D01*
X20000Y-67775D01*
X10425Y-67775D01*
X10425Y-48585D01*
X10425Y-48416D01*
X10361Y-48260D01*
X10241Y-48140D01*
X10085Y-48075D01*
X9916Y-48075D01*
X9760Y-48139D01*
X9640Y-48259D01*
X9637Y-48265D01*
X9363Y-48265D01*
X9361Y-48260D01*
X9241Y-48140D01*
X9085Y-48075D01*
X8916Y-48075D01*
X8909Y-48077D01*
X7235Y-46403D01*
X7235Y-46363D01*
X7240Y-46361D01*
X7360Y-46241D01*
X7425Y-46085D01*
X7425Y-45916D01*
X7361Y-45760D01*
X7241Y-45640D01*
X7085Y-45575D01*
X6916Y-45575D01*
X6760Y-45639D01*
X6640Y-45759D01*
X6575Y-45915D01*
X6575Y-46084D01*
X6639Y-46240D01*
X6759Y-46360D01*
X6765Y-46362D01*
X6765Y-46500D01*
X6783Y-46590D01*
X6834Y-46666D01*
X8577Y-48409D01*
X8575Y-48415D01*
X8575Y-48584D01*
X8639Y-48740D01*
X8759Y-48860D01*
X8915Y-48925D01*
X9084Y-48925D01*
X9240Y-48861D01*
X9360Y-48741D01*
X9362Y-48735D01*
X9636Y-48735D01*
X9639Y-48740D01*
X9759Y-48860D01*
X9915Y-48925D01*
X10084Y-48925D01*
X10240Y-48861D01*
X10360Y-48741D01*
X10425Y-48585D01*
X10425Y-67775D01*
X7530Y-67775D01*
X7530Y-48076D01*
X7518Y-47868D01*
X7460Y-47728D01*
X7368Y-47703D01*
X7297Y-47774D01*
X7297Y-47632D01*
X7272Y-47540D01*
X7076Y-47470D01*
X6868Y-47482D01*
X6728Y-47540D01*
X6703Y-47632D01*
X7000Y-47929D01*
X7297Y-47632D01*
X7297Y-47774D01*
X7071Y-48000D01*
X7368Y-48297D01*
X7460Y-48272D01*
X7530Y-48076D01*
X7530Y-67775D01*
X7297Y-67775D01*
X7297Y-48368D01*
X7000Y-48071D01*
X6929Y-48142D01*
X6929Y-48000D01*
X6632Y-47703D01*
X6540Y-47728D01*
X6470Y-47924D01*
X6482Y-48132D01*
X6540Y-48272D01*
X6632Y-48297D01*
X6929Y-48000D01*
X6929Y-48142D01*
X6703Y-48368D01*
X6728Y-48460D01*
X6924Y-48530D01*
X7132Y-48518D01*
X7272Y-48460D01*
X7297Y-48368D01*
X7297Y-67775D01*
X5225Y-67775D01*
X5225Y-42810D01*
X5247Y-42843D01*
X8070Y-45666D01*
X8146Y-45717D01*
X8236Y-45735D01*
X8636Y-45735D01*
X8639Y-45740D01*
X8759Y-45860D01*
X8915Y-45925D01*
X9084Y-45925D01*
X9240Y-45861D01*
X9360Y-45741D01*
X9425Y-45585D01*
X9425Y-45416D01*
X9361Y-45260D01*
X9241Y-45140D01*
X9085Y-45075D01*
X8916Y-45075D01*
X8760Y-45139D01*
X8640Y-45259D01*
X8637Y-45265D01*
X8333Y-45265D01*
X7917Y-44849D01*
X7950Y-44856D01*
X9024Y-44856D01*
X9577Y-45409D01*
X9575Y-45415D01*
X9575Y-45584D01*
X9639Y-45740D01*
X9759Y-45860D01*
X9915Y-45925D01*
X10084Y-45925D01*
X10240Y-45861D01*
X10360Y-45741D01*
X10425Y-45585D01*
X10425Y-45416D01*
X10361Y-45260D01*
X10241Y-45140D01*
X10085Y-45075D01*
X9916Y-45075D01*
X9909Y-45077D01*
X9287Y-44455D01*
X9211Y-44404D01*
X9121Y-44386D01*
X8950Y-44386D01*
X8950Y-43963D01*
X8950Y-43550D01*
X8537Y-43550D01*
X8475Y-43612D01*
X8476Y-43726D01*
X8476Y-43825D01*
X8514Y-43916D01*
X8584Y-43986D01*
X8676Y-44024D01*
X8888Y-44025D01*
X8950Y-43963D01*
X8950Y-44386D01*
X8047Y-44386D01*
X7530Y-43869D01*
X7530Y-43076D01*
X7518Y-42868D01*
X7460Y-42728D01*
X7368Y-42703D01*
X7297Y-42774D01*
X7297Y-42632D01*
X7272Y-42540D01*
X7076Y-42470D01*
X6868Y-42482D01*
X6728Y-42540D01*
X6703Y-42632D01*
X7000Y-42929D01*
X7297Y-42632D01*
X7297Y-42774D01*
X7071Y-43000D01*
X7368Y-43297D01*
X7460Y-43272D01*
X7530Y-43076D01*
X7530Y-43869D01*
X7165Y-43504D01*
X7272Y-43460D01*
X7297Y-43368D01*
X7035Y-43106D01*
X7000Y-43071D01*
X6929Y-43000D01*
X6894Y-42965D01*
X6632Y-42703D01*
X6540Y-42728D01*
X6500Y-42839D01*
X6240Y-42578D01*
X6240Y-34091D01*
X6259Y-34110D01*
X6415Y-34175D01*
X6584Y-34175D01*
X6740Y-34111D01*
X6860Y-33991D01*
X6925Y-33835D01*
X6925Y-33666D01*
X6861Y-33510D01*
X6741Y-33390D01*
X6585Y-33325D01*
X6416Y-33325D01*
X6260Y-33389D01*
X6240Y-33409D01*
X6240Y-18555D01*
X8416Y-16380D01*
X8416Y-16379D01*
X8436Y-16349D01*
X8466Y-16303D01*
X8467Y-16303D01*
X8484Y-16214D01*
X8485Y-16213D01*
X8485Y-16174D01*
X8555Y-16174D01*
X8610Y-16151D01*
X8652Y-16109D01*
X8674Y-16054D01*
X8674Y-15995D01*
X8674Y-15522D01*
X9384Y-15522D01*
X9325Y-15665D01*
X9325Y-15834D01*
X9389Y-15990D01*
X9509Y-16110D01*
X9665Y-16175D01*
X9834Y-16175D01*
X9990Y-16111D01*
X10110Y-15991D01*
X10175Y-15835D01*
X10175Y-15666D01*
X10115Y-15522D01*
X10326Y-15522D01*
X10326Y-16055D01*
X10349Y-16110D01*
X10391Y-16152D01*
X10446Y-16174D01*
X10456Y-16174D01*
X8359Y-18272D01*
X8308Y-18348D01*
X8290Y-18438D01*
X8290Y-19849D01*
X8247Y-19824D01*
X8176Y-19895D01*
X8176Y-19753D01*
X8088Y-19607D01*
X7702Y-19450D01*
X7284Y-19453D01*
X6912Y-19607D01*
X6824Y-19753D01*
X7500Y-20429D01*
X8176Y-19753D01*
X8176Y-19895D01*
X7571Y-20500D01*
X8247Y-21176D01*
X8290Y-21150D01*
X8290Y-25069D01*
X8282Y-25076D01*
X8272Y-25040D01*
X8176Y-25005D01*
X8176Y-21247D01*
X7500Y-20571D01*
X7429Y-20642D01*
X7429Y-20500D01*
X6753Y-19824D01*
X6607Y-19912D01*
X6450Y-20298D01*
X6453Y-20716D01*
X6607Y-21088D01*
X6753Y-21176D01*
X7429Y-20500D01*
X7429Y-20642D01*
X6824Y-21247D01*
X6912Y-21393D01*
X7298Y-21550D01*
X7716Y-21547D01*
X8088Y-21393D01*
X8176Y-21247D01*
X8176Y-25005D01*
X8076Y-24970D01*
X7868Y-24982D01*
X7728Y-25040D01*
X7703Y-25132D01*
X7965Y-25394D01*
X8000Y-25429D01*
X8071Y-25500D01*
X8000Y-25571D01*
X7965Y-25606D01*
X7929Y-25642D01*
X7929Y-25500D01*
X7632Y-25203D01*
X7540Y-25228D01*
X7470Y-25424D01*
X7482Y-25632D01*
X7540Y-25772D01*
X7632Y-25797D01*
X7929Y-25500D01*
X7929Y-25642D01*
X7703Y-25868D01*
X7728Y-25960D01*
X7924Y-26030D01*
X8132Y-26018D01*
X8272Y-25960D01*
X8281Y-25922D01*
X8290Y-25931D01*
X8290Y-27147D01*
X7241Y-28196D01*
X7190Y-28272D01*
X7172Y-28362D01*
X7172Y-34524D01*
X7190Y-34614D01*
X7241Y-34690D01*
X7533Y-34982D01*
X7533Y-38122D01*
X7502Y-38152D01*
X7530Y-38076D01*
X7518Y-37868D01*
X7460Y-37728D01*
X7425Y-37718D01*
X7425Y-36085D01*
X7425Y-35916D01*
X7361Y-35760D01*
X7241Y-35640D01*
X7085Y-35575D01*
X6916Y-35575D01*
X6760Y-35639D01*
X6640Y-35759D01*
X6575Y-35915D01*
X6575Y-36084D01*
X6639Y-36240D01*
X6759Y-36360D01*
X6915Y-36425D01*
X7084Y-36425D01*
X7240Y-36361D01*
X7360Y-36241D01*
X7425Y-36085D01*
X7425Y-37718D01*
X7368Y-37703D01*
X7297Y-37774D01*
X7297Y-37632D01*
X7272Y-37540D01*
X7076Y-37470D01*
X6868Y-37482D01*
X6728Y-37540D01*
X6703Y-37632D01*
X7000Y-37929D01*
X7297Y-37632D01*
X7297Y-37774D01*
X7106Y-37965D01*
X7071Y-38000D01*
X7000Y-38071D01*
X6965Y-38106D01*
X6929Y-38142D01*
X6929Y-38000D01*
X6632Y-37703D01*
X6540Y-37728D01*
X6470Y-37924D01*
X6482Y-38132D01*
X6540Y-38272D01*
X6632Y-38297D01*
X6929Y-38000D01*
X6929Y-38142D01*
X6703Y-38368D01*
X6728Y-38460D01*
X6924Y-38530D01*
X7132Y-38518D01*
X7140Y-38514D01*
X6370Y-39285D01*
X6319Y-39361D01*
X6301Y-39451D01*
X6301Y-41424D01*
X6319Y-41514D01*
X6370Y-41590D01*
X7959Y-43180D01*
X7960Y-43180D01*
X8036Y-43231D01*
X8126Y-43249D01*
X8476Y-43249D01*
X8476Y-43274D01*
X8475Y-43388D01*
X8537Y-43450D01*
X8900Y-43450D01*
X8950Y-43450D01*
X9050Y-43450D01*
X9050Y-43550D01*
X9050Y-43600D01*
X9050Y-43963D01*
X9112Y-44025D01*
X9241Y-44024D01*
X9247Y-44054D01*
X9298Y-44130D01*
X10577Y-45409D01*
X10575Y-45415D01*
X10575Y-45584D01*
X10639Y-45740D01*
X10759Y-45860D01*
X10915Y-45925D01*
X11084Y-45925D01*
X11240Y-45861D01*
X11265Y-45836D01*
X11265Y-48000D01*
X11283Y-48090D01*
X11334Y-48166D01*
X11577Y-48409D01*
X11575Y-48415D01*
X11575Y-48584D01*
X11634Y-48729D01*
X11561Y-48729D01*
X11422Y-48590D01*
X11425Y-48585D01*
X11425Y-48416D01*
X11361Y-48260D01*
X11241Y-48140D01*
X11085Y-48075D01*
X10916Y-48075D01*
X10760Y-48139D01*
X10640Y-48259D01*
X10575Y-48415D01*
X10575Y-48584D01*
X10639Y-48740D01*
X10759Y-48860D01*
X10915Y-48925D01*
X11084Y-48925D01*
X11090Y-48922D01*
X11298Y-49130D01*
X11374Y-49181D01*
X11464Y-49199D01*
X14536Y-49199D01*
X14626Y-49181D01*
X14702Y-49130D01*
X14909Y-48922D01*
X14915Y-48925D01*
X15084Y-48925D01*
X15240Y-48861D01*
X15360Y-48741D01*
X15362Y-48735D01*
X15636Y-48735D01*
X15639Y-48740D01*
X15759Y-48860D01*
X15808Y-48880D01*
X20005Y-53077D01*
X20005Y-61614D01*
X19524Y-62095D01*
X15000Y-62095D01*
X15000Y-56112D01*
X15000Y-55888D01*
X14999Y-54201D01*
X14961Y-54109D01*
X14891Y-54039D01*
X14800Y-54001D01*
X14701Y-54001D01*
X13112Y-54000D01*
X13050Y-54062D01*
X13050Y-55950D01*
X14938Y-55950D01*
X15000Y-55888D01*
X15000Y-56112D01*
X14938Y-56050D01*
X13050Y-56050D01*
X13050Y-57938D01*
X13112Y-58000D01*
X14701Y-57999D01*
X14800Y-57999D01*
X14891Y-57961D01*
X14961Y-57891D01*
X14999Y-57799D01*
X15000Y-56112D01*
X15000Y-62095D01*
X14300Y-62095D01*
X14283Y-62077D01*
X14099Y-62001D01*
X13901Y-62001D01*
X13718Y-62077D01*
X13577Y-62217D01*
X13556Y-62267D01*
X13521Y-62183D01*
X13421Y-62149D01*
X13351Y-62219D01*
X13351Y-62079D01*
X13317Y-61979D01*
X13094Y-61897D01*
X12950Y-61903D01*
X12950Y-57938D01*
X12950Y-56050D01*
X12950Y-55950D01*
X12950Y-54062D01*
X12888Y-54000D01*
X11299Y-54001D01*
X11200Y-54001D01*
X11109Y-54039D01*
X11039Y-54109D01*
X11001Y-54201D01*
X11000Y-55888D01*
X11062Y-55950D01*
X12950Y-55950D01*
X12950Y-56050D01*
X11062Y-56050D01*
X11000Y-56112D01*
X11001Y-57799D01*
X11039Y-57891D01*
X11109Y-57961D01*
X11200Y-57999D01*
X11299Y-57999D01*
X12888Y-58000D01*
X12950Y-57938D01*
X12950Y-61903D01*
X12856Y-61907D01*
X12683Y-61979D01*
X12649Y-62079D01*
X13000Y-62429D01*
X13351Y-62079D01*
X13351Y-62219D01*
X13071Y-62500D01*
X13421Y-62851D01*
X13521Y-62817D01*
X13554Y-62726D01*
X13577Y-62782D01*
X13717Y-62923D01*
X13901Y-62999D01*
X14099Y-62999D01*
X14282Y-62923D01*
X14300Y-62905D01*
X19692Y-62905D01*
X19692Y-62904D01*
X19847Y-62874D01*
X19978Y-62786D01*
X20696Y-62069D01*
X20696Y-62068D01*
X20714Y-62042D01*
X20714Y-63411D01*
X20714Y-63411D01*
G37*
G54D24*
X20714Y-63411D02*
X19332Y-64793D01*
X14924Y-64793D01*
X14924Y-64745D01*
X14924Y-64195D01*
X14901Y-64140D01*
X14859Y-64098D01*
X14804Y-64076D01*
X14745Y-64076D01*
X14195Y-64076D01*
X14140Y-64099D01*
X14098Y-64141D01*
X14076Y-64196D01*
X14076Y-64255D01*
X14076Y-64793D01*
X13934Y-64793D01*
X13922Y-64781D01*
X13960Y-64772D01*
X14030Y-64576D01*
X14018Y-64368D01*
X13960Y-64228D01*
X13868Y-64203D01*
X13797Y-64274D01*
X13797Y-64132D01*
X13772Y-64040D01*
X13576Y-63970D01*
X13368Y-63982D01*
X13351Y-63989D01*
X13351Y-62921D01*
X13000Y-62571D01*
X12649Y-62921D01*
X12683Y-63021D01*
X12906Y-63103D01*
X13144Y-63093D01*
X13317Y-63021D01*
X13351Y-62921D01*
X13351Y-63989D01*
X13228Y-64040D01*
X13203Y-64132D01*
X13500Y-64429D01*
X13797Y-64132D01*
X13797Y-64274D01*
X13606Y-64465D01*
X13571Y-64500D01*
X13500Y-64571D01*
X13429Y-64500D01*
X13394Y-64465D01*
X13132Y-64203D01*
X13040Y-64228D01*
X13002Y-64331D01*
X12960Y-64228D01*
X12868Y-64203D01*
X12797Y-64274D01*
X12797Y-64132D01*
X12772Y-64040D01*
X12576Y-63970D01*
X12368Y-63982D01*
X12228Y-64040D01*
X12203Y-64132D01*
X12500Y-64429D01*
X12797Y-64132D01*
X12797Y-64274D01*
X12606Y-64465D01*
X12571Y-64500D01*
X12500Y-64571D01*
X12429Y-64500D01*
X12394Y-64465D01*
X12132Y-64203D01*
X12040Y-64228D01*
X11976Y-64404D01*
X11924Y-64352D01*
X11924Y-64195D01*
X11905Y-64149D01*
X11905Y-63740D01*
X12286Y-63359D01*
X12374Y-63228D01*
X12404Y-63073D01*
X12405Y-63073D01*
X12405Y-62988D01*
X12435Y-62976D01*
X12477Y-62934D01*
X12499Y-62879D01*
X12499Y-62823D01*
X12579Y-62851D01*
X12929Y-62500D01*
X12579Y-62149D01*
X12499Y-62176D01*
X12499Y-62120D01*
X12476Y-62065D01*
X12434Y-62023D01*
X12379Y-62001D01*
X12320Y-62001D01*
X11620Y-62001D01*
X11565Y-62024D01*
X11523Y-62066D01*
X11501Y-62121D01*
X11501Y-62180D01*
X11501Y-62880D01*
X11524Y-62935D01*
X11545Y-62956D01*
X11214Y-63287D01*
X11126Y-63418D01*
X11095Y-63573D01*
X11095Y-64148D01*
X11076Y-64196D01*
X11076Y-64255D01*
X11076Y-64805D01*
X11099Y-64860D01*
X11141Y-64902D01*
X11196Y-64924D01*
X11255Y-64924D01*
X11352Y-64924D01*
X11912Y-65484D01*
X12043Y-65572D01*
X12198Y-65603D01*
X19333Y-65603D01*
X20645Y-66915D01*
X20645Y-67501D01*
X20470Y-67501D01*
X20415Y-67524D01*
X20373Y-67566D01*
X20351Y-67621D01*
X20351Y-67680D01*
X20351Y-67950D01*
X20215Y-67950D01*
X20208Y-67914D01*
X20159Y-67841D01*
X20086Y-67792D01*
X20000Y-67775D01*
X10425Y-67775D01*
X10425Y-48585D01*
X10425Y-48416D01*
X10361Y-48260D01*
X10241Y-48140D01*
X10085Y-48075D01*
X9916Y-48075D01*
X9760Y-48139D01*
X9640Y-48259D01*
X9637Y-48265D01*
X9363Y-48265D01*
X9361Y-48260D01*
X9241Y-48140D01*
X9085Y-48075D01*
X8916Y-48075D01*
X8909Y-48077D01*
X7235Y-46403D01*
X7235Y-46363D01*
X7240Y-46361D01*
X7360Y-46241D01*
X7425Y-46085D01*
X7425Y-45916D01*
X7361Y-45760D01*
X7241Y-45640D01*
X7085Y-45575D01*
X6916Y-45575D01*
X6760Y-45639D01*
X6640Y-45759D01*
X6575Y-45915D01*
X6575Y-46084D01*
X6639Y-46240D01*
X6759Y-46360D01*
X6765Y-46362D01*
X6765Y-46500D01*
X6783Y-46590D01*
X6834Y-46666D01*
X8577Y-48409D01*
X8575Y-48415D01*
X8575Y-48584D01*
X8639Y-48740D01*
X8759Y-48860D01*
X8915Y-48925D01*
X9084Y-48925D01*
X9240Y-48861D01*
X9360Y-48741D01*
X9362Y-48735D01*
X9636Y-48735D01*
X9639Y-48740D01*
X9759Y-48860D01*
X9915Y-48925D01*
X10084Y-48925D01*
X10240Y-48861D01*
X10360Y-48741D01*
X10425Y-48585D01*
X10425Y-67775D01*
X7530Y-67775D01*
X7530Y-48076D01*
X7518Y-47868D01*
X7460Y-47728D01*
X7368Y-47703D01*
X7297Y-47774D01*
X7297Y-47632D01*
X7272Y-47540D01*
X7076Y-47470D01*
X6868Y-47482D01*
X6728Y-47540D01*
X6703Y-47632D01*
X7000Y-47929D01*
X7297Y-47632D01*
X7297Y-47774D01*
X7071Y-48000D01*
X7368Y-48297D01*
X7460Y-48272D01*
X7530Y-48076D01*
X7530Y-67775D01*
X7297Y-67775D01*
X7297Y-48368D01*
X7000Y-48071D01*
X6929Y-48142D01*
X6929Y-48000D01*
X6632Y-47703D01*
X6540Y-47728D01*
X6470Y-47924D01*
X6482Y-48132D01*
X6540Y-48272D01*
X6632Y-48297D01*
X6929Y-48000D01*
X6929Y-48142D01*
X6703Y-48368D01*
X6728Y-48460D01*
X6924Y-48530D01*
X7132Y-48518D01*
X7272Y-48460D01*
X7297Y-48368D01*
X7297Y-67775D01*
X5225Y-67775D01*
X5225Y-42810D01*
X5247Y-42843D01*
X8070Y-45666D01*
X8146Y-45717D01*
X8236Y-45735D01*
X8636Y-45735D01*
X8639Y-45740D01*
X8759Y-45860D01*
X8915Y-45925D01*
X9084Y-45925D01*
X9240Y-45861D01*
X9360Y-45741D01*
X9425Y-45585D01*
X9425Y-45416D01*
X9361Y-45260D01*
X9241Y-45140D01*
X9085Y-45075D01*
X8916Y-45075D01*
X8760Y-45139D01*
X8640Y-45259D01*
X8637Y-45265D01*
X8333Y-45265D01*
X7917Y-44849D01*
X7950Y-44856D01*
X9024Y-44856D01*
X9577Y-45409D01*
X9575Y-45415D01*
X9575Y-45584D01*
X9639Y-45740D01*
X9759Y-45860D01*
X9915Y-45925D01*
X10084Y-45925D01*
X10240Y-45861D01*
X10360Y-45741D01*
X10425Y-45585D01*
X10425Y-45416D01*
X10361Y-45260D01*
X10241Y-45140D01*
X10085Y-45075D01*
X9916Y-45075D01*
X9909Y-45077D01*
X9287Y-44455D01*
X9211Y-44404D01*
X9121Y-44386D01*
X8950Y-44386D01*
X8950Y-43963D01*
X8950Y-43550D01*
X8537Y-43550D01*
X8475Y-43612D01*
X8476Y-43726D01*
X8476Y-43825D01*
X8514Y-43916D01*
X8584Y-43986D01*
X8676Y-44024D01*
X8888Y-44025D01*
X8950Y-43963D01*
X8950Y-44386D01*
X8047Y-44386D01*
X7530Y-43869D01*
X7530Y-43076D01*
X7518Y-42868D01*
X7460Y-42728D01*
X7368Y-42703D01*
X7297Y-42774D01*
X7297Y-42632D01*
X7272Y-42540D01*
X7076Y-42470D01*
X6868Y-42482D01*
X6728Y-42540D01*
X6703Y-42632D01*
X7000Y-42929D01*
X7297Y-42632D01*
X7297Y-42774D01*
X7071Y-43000D01*
X7368Y-43297D01*
X7460Y-43272D01*
X7530Y-43076D01*
X7530Y-43869D01*
X7165Y-43504D01*
X7272Y-43460D01*
X7297Y-43368D01*
X7035Y-43106D01*
X7000Y-43071D01*
X6929Y-43000D01*
X6894Y-42965D01*
X6632Y-42703D01*
X6540Y-42728D01*
X6500Y-42839D01*
X6240Y-42578D01*
X6240Y-34091D01*
X6259Y-34110D01*
X6415Y-34175D01*
X6584Y-34175D01*
X6740Y-34111D01*
X6860Y-33991D01*
X6925Y-33835D01*
X6925Y-33666D01*
X6861Y-33510D01*
X6741Y-33390D01*
X6585Y-33325D01*
X6416Y-33325D01*
X6260Y-33389D01*
X6240Y-33409D01*
X6240Y-18555D01*
X8416Y-16380D01*
X8416Y-16379D01*
X8436Y-16349D01*
X8466Y-16303D01*
X8467Y-16303D01*
X8484Y-16214D01*
X8485Y-16213D01*
X8485Y-16174D01*
X8555Y-16174D01*
X8610Y-16151D01*
X8652Y-16109D01*
X8674Y-16054D01*
X8674Y-15995D01*
X8674Y-15522D01*
X9384Y-15522D01*
X9325Y-15665D01*
X9325Y-15834D01*
X9389Y-15990D01*
X9509Y-16110D01*
X9665Y-16175D01*
X9834Y-16175D01*
X9990Y-16111D01*
X10110Y-15991D01*
X10175Y-15835D01*
X10175Y-15666D01*
X10115Y-15522D01*
X10326Y-15522D01*
X10326Y-16055D01*
X10349Y-16110D01*
X10391Y-16152D01*
X10446Y-16174D01*
X10456Y-16174D01*
X8359Y-18272D01*
X8308Y-18348D01*
X8290Y-18438D01*
X8290Y-19849D01*
X8247Y-19824D01*
X8176Y-19895D01*
X8176Y-19753D01*
X8088Y-19607D01*
X7702Y-19450D01*
X7284Y-19453D01*
X6912Y-19607D01*
X6824Y-19753D01*
X7500Y-20429D01*
X8176Y-19753D01*
X8176Y-19895D01*
X7571Y-20500D01*
X8247Y-21176D01*
X8290Y-21150D01*
X8290Y-25069D01*
X8282Y-25076D01*
X8272Y-25040D01*
X8176Y-25005D01*
X8176Y-21247D01*
X7500Y-20571D01*
X7429Y-20642D01*
X7429Y-20500D01*
X6753Y-19824D01*
X6607Y-19912D01*
X6450Y-20298D01*
X6453Y-20716D01*
X6607Y-21088D01*
X6753Y-21176D01*
X7429Y-20500D01*
X7429Y-20642D01*
X6824Y-21247D01*
X6912Y-21393D01*
X7298Y-21550D01*
X7716Y-21547D01*
X8088Y-21393D01*
X8176Y-21247D01*
X8176Y-25005D01*
X8076Y-24970D01*
X7868Y-24982D01*
X7728Y-25040D01*
X7703Y-25132D01*
X7965Y-25394D01*
X8000Y-25429D01*
X8071Y-25500D01*
X8000Y-25571D01*
X7965Y-25606D01*
X7929Y-25642D01*
X7929Y-25500D01*
X7632Y-25203D01*
X7540Y-25228D01*
X7470Y-25424D01*
X7482Y-25632D01*
X7540Y-25772D01*
X7632Y-25797D01*
X7929Y-25500D01*
X7929Y-25642D01*
X7703Y-25868D01*
X7728Y-25960D01*
X7924Y-26030D01*
X8132Y-26018D01*
X8272Y-25960D01*
X8281Y-25922D01*
X8290Y-25931D01*
X8290Y-27147D01*
X7241Y-28196D01*
X7190Y-28272D01*
X7172Y-28362D01*
X7172Y-34524D01*
X7190Y-34614D01*
X7241Y-34690D01*
X7533Y-34982D01*
X7533Y-38122D01*
X7502Y-38152D01*
X7530Y-38076D01*
X7518Y-37868D01*
X7460Y-37728D01*
X7425Y-37718D01*
X7425Y-36085D01*
X7425Y-35916D01*
X7361Y-35760D01*
X7241Y-35640D01*
X7085Y-35575D01*
X6916Y-35575D01*
X6760Y-35639D01*
X6640Y-35759D01*
X6575Y-35915D01*
X6575Y-36084D01*
X6639Y-36240D01*
X6759Y-36360D01*
X6915Y-36425D01*
X7084Y-36425D01*
X7240Y-36361D01*
X7360Y-36241D01*
X7425Y-36085D01*
X7425Y-37718D01*
X7368Y-37703D01*
X7297Y-37774D01*
X7297Y-37632D01*
X7272Y-37540D01*
X7076Y-37470D01*
X6868Y-37482D01*
X6728Y-37540D01*
X6703Y-37632D01*
X7000Y-37929D01*
X7297Y-37632D01*
X7297Y-37774D01*
X7106Y-37965D01*
X7071Y-38000D01*
X7000Y-38071D01*
X6965Y-38106D01*
X6929Y-38142D01*
X6929Y-38000D01*
X6632Y-37703D01*
X6540Y-37728D01*
X6470Y-37924D01*
X6482Y-38132D01*
X6540Y-38272D01*
X6632Y-38297D01*
X6929Y-38000D01*
X6929Y-38142D01*
X6703Y-38368D01*
X6728Y-38460D01*
X6924Y-38530D01*
X7132Y-38518D01*
X7140Y-38514D01*
X6370Y-39285D01*
X6319Y-39361D01*
X6301Y-39451D01*
X6301Y-41424D01*
X6319Y-41514D01*
X6370Y-41590D01*
X7959Y-43180D01*
X7960Y-43180D01*
X8036Y-43231D01*
X8126Y-43249D01*
X8476Y-43249D01*
X8476Y-43274D01*
X8475Y-43388D01*
X8537Y-43450D01*
X8900Y-43450D01*
X8950Y-43450D01*
X9050Y-43450D01*
X9050Y-43550D01*
X9050Y-43600D01*
X9050Y-43963D01*
X9112Y-44025D01*
X9241Y-44024D01*
X9247Y-44054D01*
X9298Y-44130D01*
X10577Y-45409D01*
X10575Y-45415D01*
X10575Y-45584D01*
X10639Y-45740D01*
X10759Y-45860D01*
X10915Y-45925D01*
X11084Y-45925D01*
X11240Y-45861D01*
X11265Y-45836D01*
X11265Y-48000D01*
X11283Y-48090D01*
X11334Y-48166D01*
X11577Y-48409D01*
X11575Y-48415D01*
X11575Y-48584D01*
X11634Y-48729D01*
X11561Y-48729D01*
X11422Y-48590D01*
X11425Y-48585D01*
X11425Y-48416D01*
X11361Y-48260D01*
X11241Y-48140D01*
X11085Y-48075D01*
X10916Y-48075D01*
X10760Y-48139D01*
X10640Y-48259D01*
X10575Y-48415D01*
X10575Y-48584D01*
X10639Y-48740D01*
X10759Y-48860D01*
X10915Y-48925D01*
X11084Y-48925D01*
X11090Y-48922D01*
X11298Y-49130D01*
X11374Y-49181D01*
X11464Y-49199D01*
X14536Y-49199D01*
X14626Y-49181D01*
X14702Y-49130D01*
X14909Y-48922D01*
X14915Y-48925D01*
X15084Y-48925D01*
X15240Y-48861D01*
X15360Y-48741D01*
X15362Y-48735D01*
X15636Y-48735D01*
X15639Y-48740D01*
X15759Y-48860D01*
X15808Y-48880D01*
X20005Y-53077D01*
X20005Y-61614D01*
X19524Y-62095D01*
X15000Y-62095D01*
X15000Y-56112D01*
X15000Y-55888D01*
X14999Y-54201D01*
X14961Y-54109D01*
X14891Y-54039D01*
X14800Y-54001D01*
X14701Y-54001D01*
X13112Y-54000D01*
X13050Y-54062D01*
X13050Y-55950D01*
X14938Y-55950D01*
X15000Y-55888D01*
X15000Y-56112D01*
X14938Y-56050D01*
X13050Y-56050D01*
X13050Y-57938D01*
X13112Y-58000D01*
X14701Y-57999D01*
X14800Y-57999D01*
X14891Y-57961D01*
X14961Y-57891D01*
X14999Y-57799D01*
X15000Y-56112D01*
X15000Y-62095D01*
X14300Y-62095D01*
X14283Y-62077D01*
X14099Y-62001D01*
X13901Y-62001D01*
X13718Y-62077D01*
X13577Y-62217D01*
X13556Y-62267D01*
X13521Y-62183D01*
X13421Y-62149D01*
X13351Y-62219D01*
X13351Y-62079D01*
X13317Y-61979D01*
X13094Y-61897D01*
X12950Y-61903D01*
X12950Y-57938D01*
X12950Y-56050D01*
X12950Y-55950D01*
X12950Y-54062D01*
X12888Y-54000D01*
X11299Y-54001D01*
X11200Y-54001D01*
X11109Y-54039D01*
X11039Y-54109D01*
X11001Y-54201D01*
X11000Y-55888D01*
X11062Y-55950D01*
X12950Y-55950D01*
X12950Y-56050D01*
X11062Y-56050D01*
X11000Y-56112D01*
X11001Y-57799D01*
X11039Y-57891D01*
X11109Y-57961D01*
X11200Y-57999D01*
X11299Y-57999D01*
X12888Y-58000D01*
X12950Y-57938D01*
X12950Y-61903D01*
X12856Y-61907D01*
X12683Y-61979D01*
X12649Y-62079D01*
X13000Y-62429D01*
X13351Y-62079D01*
X13351Y-62219D01*
X13071Y-62500D01*
X13421Y-62851D01*
X13521Y-62817D01*
X13554Y-62726D01*
X13577Y-62782D01*
X13717Y-62923D01*
X13901Y-62999D01*
X14099Y-62999D01*
X14282Y-62923D01*
X14300Y-62905D01*
X19692Y-62905D01*
X19692Y-62904D01*
X19847Y-62874D01*
X19978Y-62786D01*
X20696Y-62069D01*
X20696Y-62068D01*
X20714Y-62042D01*
X20714Y-63411D01*
G54D10*
G36*
X22095Y-45304D02*
X22075Y-45351D01*
X20137Y-47290D01*
X14805Y-47290D01*
X14650Y-47321D01*
X14518Y-47409D01*
X13808Y-48118D01*
X13760Y-48139D01*
X13640Y-48259D01*
X13575Y-48415D01*
X13575Y-48584D01*
X13634Y-48729D01*
X13530Y-48729D01*
X13530Y-45576D01*
X13518Y-45368D01*
X13460Y-45228D01*
X13425Y-45218D01*
X13425Y-43585D01*
X13425Y-43416D01*
X13425Y-40585D01*
X13425Y-40416D01*
X13361Y-40260D01*
X13241Y-40140D01*
X13085Y-40075D01*
X12916Y-40075D01*
X12760Y-40139D01*
X12640Y-40259D01*
X12575Y-40415D01*
X12575Y-40584D01*
X12639Y-40740D01*
X12759Y-40860D01*
X12915Y-40925D01*
X13084Y-40925D01*
X13240Y-40861D01*
X13360Y-40741D01*
X13425Y-40585D01*
X13425Y-43416D01*
X13361Y-43260D01*
X13241Y-43140D01*
X13085Y-43075D01*
X12916Y-43075D01*
X12760Y-43139D01*
X12640Y-43259D01*
X12575Y-43415D01*
X12575Y-43584D01*
X12639Y-43740D01*
X12759Y-43860D01*
X12915Y-43925D01*
X13084Y-43925D01*
X13240Y-43861D01*
X13360Y-43741D01*
X13425Y-43585D01*
X13425Y-45218D01*
X13368Y-45203D01*
X13297Y-45274D01*
X13071Y-45500D01*
X13368Y-45797D01*
X13460Y-45772D01*
X13530Y-45576D01*
X13530Y-48729D01*
X13365Y-48729D01*
X13425Y-48585D01*
X13425Y-48416D01*
X13361Y-48260D01*
X13241Y-48140D01*
X13085Y-48075D01*
X12916Y-48075D01*
X12909Y-48077D01*
X12735Y-47903D01*
X12735Y-45962D01*
X12924Y-46030D01*
X13132Y-46018D01*
X13272Y-45960D01*
X13297Y-45868D01*
X13035Y-45606D01*
X13000Y-45571D01*
X12929Y-45500D01*
X13000Y-45429D01*
X13035Y-45394D01*
X13297Y-45132D01*
X13272Y-45040D01*
X13076Y-44970D01*
X12868Y-44982D01*
X12728Y-45040D01*
X12717Y-45076D01*
X12693Y-45052D01*
X12649Y-45096D01*
X11735Y-44182D01*
X11735Y-43836D01*
X11759Y-43860D01*
X11915Y-43925D01*
X12084Y-43925D01*
X12240Y-43861D01*
X12360Y-43741D01*
X12425Y-43585D01*
X12425Y-43416D01*
X12361Y-43260D01*
X12241Y-43140D01*
X12085Y-43075D01*
X11916Y-43075D01*
X11760Y-43139D01*
X11735Y-43164D01*
X11735Y-40836D01*
X11759Y-40860D01*
X11915Y-40925D01*
X12084Y-40925D01*
X12240Y-40861D01*
X12360Y-40741D01*
X12425Y-40585D01*
X12425Y-40416D01*
X12422Y-40409D01*
X13666Y-39166D01*
X13717Y-39090D01*
X13735Y-39000D01*
X13735Y-38836D01*
X13759Y-38860D01*
X13915Y-38925D01*
X14084Y-38925D01*
X14090Y-38922D01*
X14765Y-39597D01*
X14765Y-40136D01*
X14760Y-40139D01*
X14640Y-40259D01*
X14575Y-40415D01*
X14575Y-40584D01*
X14639Y-40740D01*
X14759Y-40860D01*
X14915Y-40925D01*
X15084Y-40925D01*
X15240Y-40861D01*
X15360Y-40741D01*
X15425Y-40585D01*
X15425Y-40416D01*
X15361Y-40260D01*
X15241Y-40140D01*
X15235Y-40137D01*
X15235Y-39500D01*
X15217Y-39410D01*
X15166Y-39334D01*
X14827Y-38995D01*
X14924Y-39030D01*
X15132Y-39018D01*
X15272Y-38960D01*
X15297Y-38868D01*
X15035Y-38606D01*
X15000Y-38571D01*
X14929Y-38500D01*
X15000Y-38429D01*
X15071Y-38500D01*
X15106Y-38535D01*
X15368Y-38797D01*
X15460Y-38772D01*
X15530Y-38576D01*
X15518Y-38368D01*
X15460Y-38230D01*
X15684Y-38230D01*
X16370Y-38916D01*
X16371Y-38916D01*
X16447Y-38967D01*
X16536Y-38984D01*
X16537Y-38985D01*
X16576Y-38985D01*
X16576Y-39055D01*
X16599Y-39110D01*
X16641Y-39152D01*
X16696Y-39174D01*
X16755Y-39174D01*
X17305Y-39174D01*
X17360Y-39151D01*
X17402Y-39109D01*
X17424Y-39054D01*
X17424Y-38995D01*
X17424Y-38506D01*
X17577Y-38659D01*
X17575Y-38665D01*
X17575Y-38834D01*
X17639Y-38990D01*
X17759Y-39110D01*
X17904Y-39170D01*
X16528Y-40546D01*
X16518Y-40368D01*
X16460Y-40228D01*
X16368Y-40203D01*
X16297Y-40274D01*
X16297Y-40132D01*
X16272Y-40040D01*
X16076Y-39970D01*
X15868Y-39982D01*
X15728Y-40040D01*
X15703Y-40132D01*
X16000Y-40429D01*
X16297Y-40132D01*
X16297Y-40274D01*
X16106Y-40465D01*
X16071Y-40500D01*
X16000Y-40571D01*
X15965Y-40606D01*
X15929Y-40642D01*
X15929Y-40500D01*
X15632Y-40203D01*
X15540Y-40228D01*
X15470Y-40424D01*
X15482Y-40632D01*
X15540Y-40772D01*
X15632Y-40797D01*
X15929Y-40500D01*
X15929Y-40642D01*
X15703Y-40868D01*
X15728Y-40960D01*
X15924Y-41030D01*
X16132Y-41018D01*
X16229Y-40977D01*
X16229Y-43024D01*
X16076Y-42970D01*
X15868Y-42982D01*
X15728Y-43040D01*
X15703Y-43132D01*
X15965Y-43394D01*
X16000Y-43429D01*
X16071Y-43500D01*
X16000Y-43571D01*
X15965Y-43606D01*
X15929Y-43642D01*
X15929Y-43500D01*
X15632Y-43203D01*
X15540Y-43228D01*
X15470Y-43424D01*
X15482Y-43632D01*
X15540Y-43772D01*
X15632Y-43797D01*
X15929Y-43500D01*
X15929Y-43642D01*
X15703Y-43868D01*
X15728Y-43960D01*
X15924Y-44030D01*
X16132Y-44018D01*
X16229Y-43977D01*
X16229Y-44010D01*
X15879Y-44360D01*
X15425Y-44360D01*
X15425Y-43585D01*
X15425Y-43416D01*
X15361Y-43260D01*
X15241Y-43140D01*
X15085Y-43075D01*
X14916Y-43075D01*
X14760Y-43139D01*
X14640Y-43259D01*
X14575Y-43415D01*
X14575Y-43584D01*
X14639Y-43740D01*
X14759Y-43860D01*
X14915Y-43925D01*
X15084Y-43925D01*
X15240Y-43861D01*
X15360Y-43741D01*
X15425Y-43585D01*
X15425Y-44360D01*
X14905Y-44360D01*
X14815Y-44378D01*
X14768Y-44408D01*
X14738Y-44429D01*
X14425Y-44742D01*
X14425Y-43585D01*
X14425Y-43416D01*
X14425Y-40585D01*
X14425Y-40416D01*
X14361Y-40260D01*
X14241Y-40140D01*
X14085Y-40075D01*
X13916Y-40075D01*
X13760Y-40139D01*
X13640Y-40259D01*
X13575Y-40415D01*
X13575Y-40584D01*
X13639Y-40740D01*
X13759Y-40860D01*
X13915Y-40925D01*
X14084Y-40925D01*
X14240Y-40861D01*
X14360Y-40741D01*
X14425Y-40585D01*
X14425Y-43416D01*
X14361Y-43260D01*
X14241Y-43140D01*
X14085Y-43075D01*
X13916Y-43075D01*
X13760Y-43139D01*
X13640Y-43259D01*
X13575Y-43415D01*
X13575Y-43584D01*
X13639Y-43740D01*
X13759Y-43860D01*
X13915Y-43925D01*
X14084Y-43925D01*
X14240Y-43861D01*
X14360Y-43741D01*
X14425Y-43585D01*
X14425Y-44742D01*
X14090Y-45077D01*
X14085Y-45075D01*
X13916Y-45075D01*
X13760Y-45139D01*
X13640Y-45259D01*
X13575Y-45415D01*
X13575Y-45584D01*
X13639Y-45740D01*
X13759Y-45860D01*
X13915Y-45925D01*
X14084Y-45925D01*
X14240Y-45861D01*
X14360Y-45741D01*
X14425Y-45585D01*
X14425Y-45416D01*
X14422Y-45409D01*
X15002Y-44830D01*
X15976Y-44830D01*
X16066Y-44812D01*
X16142Y-44761D01*
X16630Y-44273D01*
X16681Y-44197D01*
X16699Y-44107D01*
X16699Y-41040D01*
X17598Y-40141D01*
X17576Y-40196D01*
X17576Y-40255D01*
X17576Y-40805D01*
X17599Y-40860D01*
X17641Y-40902D01*
X17696Y-40924D01*
X17706Y-40924D01*
X17371Y-41260D01*
X17320Y-41336D01*
X17302Y-41426D01*
X17302Y-43865D01*
X16090Y-45077D01*
X16085Y-45075D01*
X15916Y-45075D01*
X15760Y-45139D01*
X15640Y-45259D01*
X15575Y-45415D01*
X15575Y-45584D01*
X15639Y-45740D01*
X15759Y-45860D01*
X15790Y-45873D01*
X15705Y-45873D01*
X15422Y-45590D01*
X15425Y-45585D01*
X15425Y-45416D01*
X15361Y-45260D01*
X15241Y-45140D01*
X15085Y-45075D01*
X14916Y-45075D01*
X14760Y-45139D01*
X14640Y-45259D01*
X14575Y-45415D01*
X14575Y-45584D01*
X14639Y-45740D01*
X14759Y-45860D01*
X14915Y-45925D01*
X15084Y-45925D01*
X15090Y-45922D01*
X15441Y-46274D01*
X15442Y-46274D01*
X15471Y-46294D01*
X15518Y-46325D01*
X15607Y-46342D01*
X15608Y-46343D01*
X19611Y-46343D01*
X19701Y-46325D01*
X19777Y-46274D01*
X20551Y-45500D01*
X20551Y-45589D01*
X20619Y-45754D01*
X20745Y-45880D01*
X20910Y-45949D01*
X21089Y-45949D01*
X21254Y-45881D01*
X21380Y-45755D01*
X21449Y-45590D01*
X21449Y-45411D01*
X21381Y-45246D01*
X21255Y-45120D01*
X21090Y-45051D01*
X21000Y-45051D01*
X21955Y-44096D01*
X22006Y-44020D01*
X22024Y-43930D01*
X22024Y-22235D01*
X22066Y-22277D01*
X22095Y-22288D01*
X22095Y-45304D01*
X22095Y-45304D01*
G37*
G54D24*
X22095Y-45304D02*
X22075Y-45351D01*
X20137Y-47290D01*
X14805Y-47290D01*
X14650Y-47321D01*
X14518Y-47409D01*
X13808Y-48118D01*
X13760Y-48139D01*
X13640Y-48259D01*
X13575Y-48415D01*
X13575Y-48584D01*
X13634Y-48729D01*
X13530Y-48729D01*
X13530Y-45576D01*
X13518Y-45368D01*
X13460Y-45228D01*
X13425Y-45218D01*
X13425Y-43585D01*
X13425Y-43416D01*
X13425Y-40585D01*
X13425Y-40416D01*
X13361Y-40260D01*
X13241Y-40140D01*
X13085Y-40075D01*
X12916Y-40075D01*
X12760Y-40139D01*
X12640Y-40259D01*
X12575Y-40415D01*
X12575Y-40584D01*
X12639Y-40740D01*
X12759Y-40860D01*
X12915Y-40925D01*
X13084Y-40925D01*
X13240Y-40861D01*
X13360Y-40741D01*
X13425Y-40585D01*
X13425Y-43416D01*
X13361Y-43260D01*
X13241Y-43140D01*
X13085Y-43075D01*
X12916Y-43075D01*
X12760Y-43139D01*
X12640Y-43259D01*
X12575Y-43415D01*
X12575Y-43584D01*
X12639Y-43740D01*
X12759Y-43860D01*
X12915Y-43925D01*
X13084Y-43925D01*
X13240Y-43861D01*
X13360Y-43741D01*
X13425Y-43585D01*
X13425Y-45218D01*
X13368Y-45203D01*
X13297Y-45274D01*
X13071Y-45500D01*
X13368Y-45797D01*
X13460Y-45772D01*
X13530Y-45576D01*
X13530Y-48729D01*
X13365Y-48729D01*
X13425Y-48585D01*
X13425Y-48416D01*
X13361Y-48260D01*
X13241Y-48140D01*
X13085Y-48075D01*
X12916Y-48075D01*
X12909Y-48077D01*
X12735Y-47903D01*
X12735Y-45962D01*
X12924Y-46030D01*
X13132Y-46018D01*
X13272Y-45960D01*
X13297Y-45868D01*
X13035Y-45606D01*
X13000Y-45571D01*
X12929Y-45500D01*
X13000Y-45429D01*
X13035Y-45394D01*
X13297Y-45132D01*
X13272Y-45040D01*
X13076Y-44970D01*
X12868Y-44982D01*
X12728Y-45040D01*
X12717Y-45076D01*
X12693Y-45052D01*
X12649Y-45096D01*
X11735Y-44182D01*
X11735Y-43836D01*
X11759Y-43860D01*
X11915Y-43925D01*
X12084Y-43925D01*
X12240Y-43861D01*
X12360Y-43741D01*
X12425Y-43585D01*
X12425Y-43416D01*
X12361Y-43260D01*
X12241Y-43140D01*
X12085Y-43075D01*
X11916Y-43075D01*
X11760Y-43139D01*
X11735Y-43164D01*
X11735Y-40836D01*
X11759Y-40860D01*
X11915Y-40925D01*
X12084Y-40925D01*
X12240Y-40861D01*
X12360Y-40741D01*
X12425Y-40585D01*
X12425Y-40416D01*
X12422Y-40409D01*
X13666Y-39166D01*
X13717Y-39090D01*
X13735Y-39000D01*
X13735Y-38836D01*
X13759Y-38860D01*
X13915Y-38925D01*
X14084Y-38925D01*
X14090Y-38922D01*
X14765Y-39597D01*
X14765Y-40136D01*
X14760Y-40139D01*
X14640Y-40259D01*
X14575Y-40415D01*
X14575Y-40584D01*
X14639Y-40740D01*
X14759Y-40860D01*
X14915Y-40925D01*
X15084Y-40925D01*
X15240Y-40861D01*
X15360Y-40741D01*
X15425Y-40585D01*
X15425Y-40416D01*
X15361Y-40260D01*
X15241Y-40140D01*
X15235Y-40137D01*
X15235Y-39500D01*
X15217Y-39410D01*
X15166Y-39334D01*
X14827Y-38995D01*
X14924Y-39030D01*
X15132Y-39018D01*
X15272Y-38960D01*
X15297Y-38868D01*
X15035Y-38606D01*
X15000Y-38571D01*
X14929Y-38500D01*
X15000Y-38429D01*
X15071Y-38500D01*
X15106Y-38535D01*
X15368Y-38797D01*
X15460Y-38772D01*
X15530Y-38576D01*
X15518Y-38368D01*
X15460Y-38230D01*
X15684Y-38230D01*
X16370Y-38916D01*
X16371Y-38916D01*
X16447Y-38967D01*
X16536Y-38984D01*
X16537Y-38985D01*
X16576Y-38985D01*
X16576Y-39055D01*
X16599Y-39110D01*
X16641Y-39152D01*
X16696Y-39174D01*
X16755Y-39174D01*
X17305Y-39174D01*
X17360Y-39151D01*
X17402Y-39109D01*
X17424Y-39054D01*
X17424Y-38995D01*
X17424Y-38506D01*
X17577Y-38659D01*
X17575Y-38665D01*
X17575Y-38834D01*
X17639Y-38990D01*
X17759Y-39110D01*
X17904Y-39170D01*
X16528Y-40546D01*
X16518Y-40368D01*
X16460Y-40228D01*
X16368Y-40203D01*
X16297Y-40274D01*
X16297Y-40132D01*
X16272Y-40040D01*
X16076Y-39970D01*
X15868Y-39982D01*
X15728Y-40040D01*
X15703Y-40132D01*
X16000Y-40429D01*
X16297Y-40132D01*
X16297Y-40274D01*
X16106Y-40465D01*
X16071Y-40500D01*
X16000Y-40571D01*
X15965Y-40606D01*
X15929Y-40642D01*
X15929Y-40500D01*
X15632Y-40203D01*
X15540Y-40228D01*
X15470Y-40424D01*
X15482Y-40632D01*
X15540Y-40772D01*
X15632Y-40797D01*
X15929Y-40500D01*
X15929Y-40642D01*
X15703Y-40868D01*
X15728Y-40960D01*
X15924Y-41030D01*
X16132Y-41018D01*
X16229Y-40977D01*
X16229Y-43024D01*
X16076Y-42970D01*
X15868Y-42982D01*
X15728Y-43040D01*
X15703Y-43132D01*
X15965Y-43394D01*
X16000Y-43429D01*
X16071Y-43500D01*
X16000Y-43571D01*
X15965Y-43606D01*
X15929Y-43642D01*
X15929Y-43500D01*
X15632Y-43203D01*
X15540Y-43228D01*
X15470Y-43424D01*
X15482Y-43632D01*
X15540Y-43772D01*
X15632Y-43797D01*
X15929Y-43500D01*
X15929Y-43642D01*
X15703Y-43868D01*
X15728Y-43960D01*
X15924Y-44030D01*
X16132Y-44018D01*
X16229Y-43977D01*
X16229Y-44010D01*
X15879Y-44360D01*
X15425Y-44360D01*
X15425Y-43585D01*
X15425Y-43416D01*
X15361Y-43260D01*
X15241Y-43140D01*
X15085Y-43075D01*
X14916Y-43075D01*
X14760Y-43139D01*
X14640Y-43259D01*
X14575Y-43415D01*
X14575Y-43584D01*
X14639Y-43740D01*
X14759Y-43860D01*
X14915Y-43925D01*
X15084Y-43925D01*
X15240Y-43861D01*
X15360Y-43741D01*
X15425Y-43585D01*
X15425Y-44360D01*
X14905Y-44360D01*
X14815Y-44378D01*
X14768Y-44408D01*
X14738Y-44429D01*
X14425Y-44742D01*
X14425Y-43585D01*
X14425Y-43416D01*
X14425Y-40585D01*
X14425Y-40416D01*
X14361Y-40260D01*
X14241Y-40140D01*
X14085Y-40075D01*
X13916Y-40075D01*
X13760Y-40139D01*
X13640Y-40259D01*
X13575Y-40415D01*
X13575Y-40584D01*
X13639Y-40740D01*
X13759Y-40860D01*
X13915Y-40925D01*
X14084Y-40925D01*
X14240Y-40861D01*
X14360Y-40741D01*
X14425Y-40585D01*
X14425Y-43416D01*
X14361Y-43260D01*
X14241Y-43140D01*
X14085Y-43075D01*
X13916Y-43075D01*
X13760Y-43139D01*
X13640Y-43259D01*
X13575Y-43415D01*
X13575Y-43584D01*
X13639Y-43740D01*
X13759Y-43860D01*
X13915Y-43925D01*
X14084Y-43925D01*
X14240Y-43861D01*
X14360Y-43741D01*
X14425Y-43585D01*
X14425Y-44742D01*
X14090Y-45077D01*
X14085Y-45075D01*
X13916Y-45075D01*
X13760Y-45139D01*
X13640Y-45259D01*
X13575Y-45415D01*
X13575Y-45584D01*
X13639Y-45740D01*
X13759Y-45860D01*
X13915Y-45925D01*
X14084Y-45925D01*
X14240Y-45861D01*
X14360Y-45741D01*
X14425Y-45585D01*
X14425Y-45416D01*
X14422Y-45409D01*
X15002Y-44830D01*
X15976Y-44830D01*
X16066Y-44812D01*
X16142Y-44761D01*
X16630Y-44273D01*
X16681Y-44197D01*
X16699Y-44107D01*
X16699Y-41040D01*
X17598Y-40141D01*
X17576Y-40196D01*
X17576Y-40255D01*
X17576Y-40805D01*
X17599Y-40860D01*
X17641Y-40902D01*
X17696Y-40924D01*
X17706Y-40924D01*
X17371Y-41260D01*
X17320Y-41336D01*
X17302Y-41426D01*
X17302Y-43865D01*
X16090Y-45077D01*
X16085Y-45075D01*
X15916Y-45075D01*
X15760Y-45139D01*
X15640Y-45259D01*
X15575Y-45415D01*
X15575Y-45584D01*
X15639Y-45740D01*
X15759Y-45860D01*
X15790Y-45873D01*
X15705Y-45873D01*
X15422Y-45590D01*
X15425Y-45585D01*
X15425Y-45416D01*
X15361Y-45260D01*
X15241Y-45140D01*
X15085Y-45075D01*
X14916Y-45075D01*
X14760Y-45139D01*
X14640Y-45259D01*
X14575Y-45415D01*
X14575Y-45584D01*
X14639Y-45740D01*
X14759Y-45860D01*
X14915Y-45925D01*
X15084Y-45925D01*
X15090Y-45922D01*
X15441Y-46274D01*
X15442Y-46274D01*
X15471Y-46294D01*
X15518Y-46325D01*
X15607Y-46342D01*
X15608Y-46343D01*
X19611Y-46343D01*
X19701Y-46325D01*
X19777Y-46274D01*
X20551Y-45500D01*
X20551Y-45589D01*
X20619Y-45754D01*
X20745Y-45880D01*
X20910Y-45949D01*
X21089Y-45949D01*
X21254Y-45881D01*
X21380Y-45755D01*
X21449Y-45590D01*
X21449Y-45411D01*
X21381Y-45246D01*
X21255Y-45120D01*
X21090Y-45051D01*
X21000Y-45051D01*
X21955Y-44096D01*
X22006Y-44020D01*
X22024Y-43930D01*
X22024Y-22235D01*
X22066Y-22277D01*
X22095Y-22288D01*
X22095Y-45304D01*
G54D10*
G36*
X104775Y-67775D02*
X103550Y-67775D01*
X103550Y-20702D01*
X103547Y-20284D01*
X103393Y-19912D01*
X103247Y-19824D01*
X103176Y-19895D01*
X103176Y-19753D01*
X103088Y-19607D01*
X102702Y-19450D01*
X102284Y-19453D01*
X101912Y-19607D01*
X101824Y-19753D01*
X102500Y-20429D01*
X103176Y-19753D01*
X103176Y-19895D01*
X102571Y-20500D01*
X103247Y-21176D01*
X103393Y-21088D01*
X103550Y-20702D01*
X103550Y-67775D01*
X103176Y-67775D01*
X103176Y-21247D01*
X102500Y-20571D01*
X102429Y-20642D01*
X102429Y-20500D01*
X101753Y-19824D01*
X101607Y-19912D01*
X101450Y-20298D01*
X101453Y-20716D01*
X101607Y-21088D01*
X101753Y-21176D01*
X102429Y-20500D01*
X102429Y-20642D01*
X101824Y-21247D01*
X101912Y-21393D01*
X102298Y-21550D01*
X102716Y-21547D01*
X103088Y-21393D01*
X103176Y-21247D01*
X103176Y-67775D01*
X98530Y-67775D01*
X98530Y-15076D01*
X98518Y-14868D01*
X98460Y-14728D01*
X98368Y-14703D01*
X98297Y-14774D01*
X98297Y-14632D01*
X98272Y-14540D01*
X98076Y-14470D01*
X97868Y-14482D01*
X97728Y-14540D01*
X97703Y-14632D01*
X98000Y-14929D01*
X98297Y-14632D01*
X98297Y-14774D01*
X98071Y-15000D01*
X98368Y-15297D01*
X98460Y-15272D01*
X98530Y-15076D01*
X98530Y-67775D01*
X98297Y-67775D01*
X98297Y-15368D01*
X98000Y-15071D01*
X97929Y-15142D01*
X97929Y-15000D01*
X97632Y-14703D01*
X97540Y-14728D01*
X97470Y-14924D01*
X97482Y-15132D01*
X97540Y-15272D01*
X97632Y-15297D01*
X97929Y-15000D01*
X97929Y-15142D01*
X97703Y-15368D01*
X97728Y-15460D01*
X97924Y-15530D01*
X98132Y-15518D01*
X98272Y-15460D01*
X98297Y-15368D01*
X98297Y-67775D01*
X95530Y-67775D01*
X95530Y-15076D01*
X95518Y-14868D01*
X95460Y-14728D01*
X95368Y-14703D01*
X95297Y-14774D01*
X95297Y-14632D01*
X95272Y-14540D01*
X95076Y-14470D01*
X94868Y-14482D01*
X94728Y-14540D01*
X94703Y-14632D01*
X95000Y-14929D01*
X95297Y-14632D01*
X95297Y-14774D01*
X95071Y-15000D01*
X95368Y-15297D01*
X95460Y-15272D01*
X95530Y-15076D01*
X95530Y-67775D01*
X95297Y-67775D01*
X95297Y-15368D01*
X95000Y-15071D01*
X94929Y-15142D01*
X94929Y-15000D01*
X94632Y-14703D01*
X94540Y-14728D01*
X94470Y-14924D01*
X94482Y-15132D01*
X94540Y-15272D01*
X94632Y-15297D01*
X94929Y-15000D01*
X94929Y-15142D01*
X94703Y-15368D01*
X94728Y-15460D01*
X94924Y-15530D01*
X95132Y-15518D01*
X95272Y-15460D01*
X95297Y-15368D01*
X95297Y-67775D01*
X93449Y-67775D01*
X93449Y-21090D01*
X93449Y-20911D01*
X93381Y-20746D01*
X93255Y-20620D01*
X93090Y-20551D01*
X92911Y-20551D01*
X92746Y-20619D01*
X92620Y-20745D01*
X92551Y-20910D01*
X92551Y-21089D01*
X92619Y-21254D01*
X92745Y-21380D01*
X92910Y-21449D01*
X93089Y-21449D01*
X93254Y-21381D01*
X93380Y-21255D01*
X93449Y-21090D01*
X93449Y-67775D01*
X90449Y-67775D01*
X90449Y-21090D01*
X90449Y-20911D01*
X90381Y-20746D01*
X90255Y-20620D01*
X90090Y-20551D01*
X89911Y-20551D01*
X89746Y-20619D01*
X89620Y-20745D01*
X89551Y-20910D01*
X89551Y-21089D01*
X89559Y-21108D01*
X88903Y-21765D01*
X88863Y-21765D01*
X88861Y-21760D01*
X88797Y-21696D01*
X88797Y-19368D01*
X88500Y-19071D01*
X88203Y-19368D01*
X88228Y-19460D01*
X88424Y-19530D01*
X88632Y-19518D01*
X88772Y-19460D01*
X88797Y-19368D01*
X88797Y-21696D01*
X88741Y-21640D01*
X88585Y-21575D01*
X88416Y-21575D01*
X88260Y-21639D01*
X88140Y-21759D01*
X88075Y-21915D01*
X88075Y-22084D01*
X88139Y-22240D01*
X88259Y-22360D01*
X88415Y-22425D01*
X88584Y-22425D01*
X88740Y-22361D01*
X88860Y-22241D01*
X88862Y-22235D01*
X89000Y-22235D01*
X89090Y-22217D01*
X89166Y-22166D01*
X89890Y-21441D01*
X89910Y-21449D01*
X90089Y-21449D01*
X90254Y-21381D01*
X90380Y-21255D01*
X90449Y-21090D01*
X90449Y-67775D01*
X86530Y-67775D01*
X86530Y-22076D01*
X86518Y-21868D01*
X86460Y-21728D01*
X86368Y-21703D01*
X86297Y-21774D01*
X86297Y-21632D01*
X86297Y-19368D01*
X86000Y-19071D01*
X85703Y-19368D01*
X85728Y-19460D01*
X85924Y-19530D01*
X86132Y-19518D01*
X86272Y-19460D01*
X86297Y-19368D01*
X86297Y-21632D01*
X86272Y-21540D01*
X86076Y-21470D01*
X85868Y-21482D01*
X85728Y-21540D01*
X85703Y-21632D01*
X86000Y-21929D01*
X86297Y-21632D01*
X86297Y-21774D01*
X86071Y-22000D01*
X86368Y-22297D01*
X86460Y-22272D01*
X86530Y-22076D01*
X86530Y-67775D01*
X86297Y-67775D01*
X86297Y-22368D01*
X86000Y-22071D01*
X85929Y-22142D01*
X85929Y-22000D01*
X85632Y-21703D01*
X85540Y-21728D01*
X85470Y-21924D01*
X85482Y-22132D01*
X85540Y-22272D01*
X85632Y-22297D01*
X85929Y-22000D01*
X85929Y-22142D01*
X85703Y-22368D01*
X85728Y-22460D01*
X85924Y-22530D01*
X86132Y-22518D01*
X86272Y-22460D01*
X86297Y-22368D01*
X86297Y-67775D01*
X83750Y-67775D01*
X83664Y-67792D01*
X83591Y-67841D01*
X83542Y-67914D01*
X83534Y-67950D01*
X83500Y-67950D01*
X83500Y-20762D01*
X83500Y-20538D01*
X83499Y-19199D01*
X83499Y-19100D01*
X83461Y-19009D01*
X83391Y-18939D01*
X83299Y-18901D01*
X82812Y-18900D01*
X82750Y-18962D01*
X82750Y-20600D01*
X83438Y-20600D01*
X83500Y-20538D01*
X83500Y-20762D01*
X83438Y-20700D01*
X82750Y-20700D01*
X82750Y-22338D01*
X82812Y-22400D01*
X83299Y-22399D01*
X83391Y-22361D01*
X83461Y-22291D01*
X83499Y-22200D01*
X83499Y-22101D01*
X83500Y-20762D01*
X83500Y-67950D01*
X83499Y-67950D01*
X83499Y-67699D01*
X83499Y-67600D01*
X83461Y-67509D01*
X83391Y-67439D01*
X83299Y-67401D01*
X82812Y-67400D01*
X82750Y-67462D01*
X82750Y-67950D01*
X82650Y-67950D01*
X82650Y-67462D01*
X82650Y-22338D01*
X82650Y-20700D01*
X82650Y-20600D01*
X82650Y-18962D01*
X82588Y-18900D01*
X82101Y-18901D01*
X82009Y-18939D01*
X81939Y-19009D01*
X81901Y-19100D01*
X81901Y-19199D01*
X81900Y-20538D01*
X81962Y-20600D01*
X82650Y-20600D01*
X82650Y-20700D01*
X81962Y-20700D01*
X81900Y-20762D01*
X81901Y-22101D01*
X81901Y-22200D01*
X81939Y-22291D01*
X82009Y-22361D01*
X82101Y-22399D01*
X82588Y-22400D01*
X82650Y-22338D01*
X82650Y-67462D01*
X82588Y-67400D01*
X82101Y-67401D01*
X82009Y-67439D01*
X81939Y-67509D01*
X81901Y-67600D01*
X81901Y-67699D01*
X81900Y-67950D01*
X81749Y-67950D01*
X81749Y-67620D01*
X81726Y-67565D01*
X81684Y-67523D01*
X81629Y-67501D01*
X81570Y-67501D01*
X81485Y-67501D01*
X81485Y-22299D01*
X81630Y-22299D01*
X81685Y-22276D01*
X81727Y-22234D01*
X81749Y-22179D01*
X81749Y-22120D01*
X81749Y-19120D01*
X81726Y-19065D01*
X81684Y-19023D01*
X81629Y-19001D01*
X81570Y-19001D01*
X80870Y-19001D01*
X80815Y-19024D01*
X80773Y-19066D01*
X80751Y-19121D01*
X80751Y-19180D01*
X80751Y-22180D01*
X80774Y-22235D01*
X80816Y-22277D01*
X80871Y-22299D01*
X80930Y-22299D01*
X81015Y-22299D01*
X81015Y-67501D01*
X80870Y-67501D01*
X80815Y-67524D01*
X80773Y-67566D01*
X80751Y-67621D01*
X80751Y-67680D01*
X80751Y-67950D01*
X80499Y-67950D01*
X80499Y-67620D01*
X80476Y-67565D01*
X80434Y-67523D01*
X80379Y-67501D01*
X80320Y-67501D01*
X80235Y-67501D01*
X80235Y-22299D01*
X80380Y-22299D01*
X80435Y-22276D01*
X80477Y-22234D01*
X80499Y-22179D01*
X80499Y-22120D01*
X80499Y-19120D01*
X80476Y-19065D01*
X80434Y-19023D01*
X80379Y-19001D01*
X80320Y-19001D01*
X79620Y-19001D01*
X79565Y-19024D01*
X79523Y-19066D01*
X79501Y-19121D01*
X79501Y-19180D01*
X79501Y-22180D01*
X79524Y-22235D01*
X79566Y-22277D01*
X79621Y-22299D01*
X79680Y-22299D01*
X79765Y-22299D01*
X79765Y-67501D01*
X79620Y-67501D01*
X79565Y-67524D01*
X79523Y-67566D01*
X79501Y-67621D01*
X79501Y-67680D01*
X79501Y-67950D01*
X79249Y-67950D01*
X79249Y-67620D01*
X79226Y-67565D01*
X79184Y-67523D01*
X79129Y-67501D01*
X79070Y-67501D01*
X78985Y-67501D01*
X78985Y-22299D01*
X79130Y-22299D01*
X79185Y-22276D01*
X79227Y-22234D01*
X79249Y-22179D01*
X79249Y-22120D01*
X79249Y-19120D01*
X79226Y-19065D01*
X79184Y-19023D01*
X79129Y-19001D01*
X79070Y-19001D01*
X78370Y-19001D01*
X78315Y-19024D01*
X78273Y-19066D01*
X78251Y-19121D01*
X78251Y-19180D01*
X78251Y-22180D01*
X78274Y-22235D01*
X78316Y-22277D01*
X78371Y-22299D01*
X78430Y-22299D01*
X78515Y-22299D01*
X78515Y-67501D01*
X78370Y-67501D01*
X78315Y-67524D01*
X78273Y-67566D01*
X78251Y-67621D01*
X78251Y-67680D01*
X78251Y-67950D01*
X77999Y-67950D01*
X77999Y-67620D01*
X77976Y-67565D01*
X77934Y-67523D01*
X77879Y-67501D01*
X77820Y-67501D01*
X77735Y-67501D01*
X77735Y-22299D01*
X77880Y-22299D01*
X77935Y-22276D01*
X77977Y-22234D01*
X77999Y-22179D01*
X77999Y-22120D01*
X77999Y-19120D01*
X77976Y-19065D01*
X77934Y-19023D01*
X77879Y-19001D01*
X77820Y-19001D01*
X77120Y-19001D01*
X77065Y-19024D01*
X77023Y-19066D01*
X77001Y-19121D01*
X77001Y-19180D01*
X77001Y-22180D01*
X77024Y-22235D01*
X77066Y-22277D01*
X77121Y-22299D01*
X77180Y-22299D01*
X77265Y-22299D01*
X77265Y-67501D01*
X77120Y-67501D01*
X77065Y-67524D01*
X77023Y-67566D01*
X77001Y-67621D01*
X77001Y-67680D01*
X77001Y-67950D01*
X76749Y-67950D01*
X76749Y-67620D01*
X76726Y-67565D01*
X76684Y-67523D01*
X76629Y-67501D01*
X76570Y-67501D01*
X76485Y-67501D01*
X76485Y-22299D01*
X76630Y-22299D01*
X76685Y-22276D01*
X76727Y-22234D01*
X76749Y-22179D01*
X76749Y-22120D01*
X76749Y-19120D01*
X76726Y-19065D01*
X76684Y-19023D01*
X76629Y-19001D01*
X76570Y-19001D01*
X75870Y-19001D01*
X75815Y-19024D01*
X75773Y-19066D01*
X75751Y-19121D01*
X75751Y-19180D01*
X75751Y-22180D01*
X75774Y-22235D01*
X75816Y-22277D01*
X75871Y-22299D01*
X75930Y-22299D01*
X76015Y-22299D01*
X76015Y-67501D01*
X75870Y-67501D01*
X75815Y-67524D01*
X75773Y-67566D01*
X75751Y-67621D01*
X75751Y-67680D01*
X75751Y-67950D01*
X75499Y-67950D01*
X75499Y-67620D01*
X75476Y-67565D01*
X75434Y-67523D01*
X75379Y-67501D01*
X75320Y-67501D01*
X75235Y-67501D01*
X75235Y-22299D01*
X75380Y-22299D01*
X75435Y-22276D01*
X75477Y-22234D01*
X75499Y-22179D01*
X75499Y-22120D01*
X75499Y-19120D01*
X75476Y-19065D01*
X75434Y-19023D01*
X75379Y-19001D01*
X75320Y-19001D01*
X74620Y-19001D01*
X74565Y-19024D01*
X74523Y-19066D01*
X74501Y-19121D01*
X74501Y-19180D01*
X74501Y-22180D01*
X74524Y-22235D01*
X74566Y-22277D01*
X74621Y-22299D01*
X74680Y-22299D01*
X74765Y-22299D01*
X74765Y-67501D01*
X74620Y-67501D01*
X74565Y-67524D01*
X74523Y-67566D01*
X74501Y-67621D01*
X74501Y-67680D01*
X74501Y-67950D01*
X74249Y-67950D01*
X74249Y-67620D01*
X74226Y-67565D01*
X74184Y-67523D01*
X74129Y-67501D01*
X74070Y-67501D01*
X73985Y-67501D01*
X73985Y-22299D01*
X74130Y-22299D01*
X74185Y-22276D01*
X74227Y-22234D01*
X74249Y-22179D01*
X74249Y-22120D01*
X74249Y-19120D01*
X74226Y-19065D01*
X74184Y-19023D01*
X74129Y-19001D01*
X74070Y-19001D01*
X73370Y-19001D01*
X73315Y-19024D01*
X73273Y-19066D01*
X73251Y-19121D01*
X73251Y-19180D01*
X73251Y-22180D01*
X73274Y-22235D01*
X73316Y-22277D01*
X73371Y-22299D01*
X73430Y-22299D01*
X73515Y-22299D01*
X73515Y-67501D01*
X73370Y-67501D01*
X73315Y-67524D01*
X73273Y-67566D01*
X73251Y-67621D01*
X73251Y-67680D01*
X73251Y-67950D01*
X72999Y-67950D01*
X72999Y-67620D01*
X72976Y-67565D01*
X72934Y-67523D01*
X72879Y-67501D01*
X72820Y-67501D01*
X72735Y-67501D01*
X72735Y-22299D01*
X72880Y-22299D01*
X72935Y-22276D01*
X72977Y-22234D01*
X72999Y-22179D01*
X72999Y-22120D01*
X72999Y-19120D01*
X72976Y-19065D01*
X72934Y-19023D01*
X72879Y-19001D01*
X72820Y-19001D01*
X72120Y-19001D01*
X72065Y-19024D01*
X72023Y-19066D01*
X72001Y-19121D01*
X72001Y-19180D01*
X72001Y-22180D01*
X72024Y-22235D01*
X72066Y-22277D01*
X72121Y-22299D01*
X72180Y-22299D01*
X72265Y-22299D01*
X72265Y-67501D01*
X72120Y-67501D01*
X72065Y-67524D01*
X72023Y-67566D01*
X72001Y-67621D01*
X72001Y-67680D01*
X72001Y-67950D01*
X71749Y-67950D01*
X71749Y-67620D01*
X71726Y-67565D01*
X71684Y-67523D01*
X71629Y-67501D01*
X71570Y-67501D01*
X71485Y-67501D01*
X71485Y-22299D01*
X71630Y-22299D01*
X71685Y-22276D01*
X71727Y-22234D01*
X71749Y-22179D01*
X71749Y-22120D01*
X71749Y-19120D01*
X71726Y-19065D01*
X71684Y-19023D01*
X71629Y-19001D01*
X71570Y-19001D01*
X70870Y-19001D01*
X70815Y-19024D01*
X70773Y-19066D01*
X70751Y-19121D01*
X70751Y-19180D01*
X70751Y-22180D01*
X70774Y-22235D01*
X70816Y-22277D01*
X70871Y-22299D01*
X70930Y-22299D01*
X71015Y-22299D01*
X71015Y-67501D01*
X70870Y-67501D01*
X70815Y-67524D01*
X70773Y-67566D01*
X70751Y-67621D01*
X70751Y-67680D01*
X70751Y-67950D01*
X70499Y-67950D01*
X70499Y-67620D01*
X70476Y-67565D01*
X70434Y-67523D01*
X70379Y-67501D01*
X70320Y-67501D01*
X70235Y-67501D01*
X70235Y-22299D01*
X70380Y-22299D01*
X70435Y-22276D01*
X70477Y-22234D01*
X70499Y-22179D01*
X70499Y-22120D01*
X70499Y-19120D01*
X70476Y-19065D01*
X70434Y-19023D01*
X70379Y-19001D01*
X70320Y-19001D01*
X69620Y-19001D01*
X69565Y-19024D01*
X69523Y-19066D01*
X69501Y-19121D01*
X69501Y-19180D01*
X69501Y-22180D01*
X69524Y-22235D01*
X69566Y-22277D01*
X69621Y-22299D01*
X69680Y-22299D01*
X69765Y-22299D01*
X69765Y-67501D01*
X69620Y-67501D01*
X69565Y-67524D01*
X69523Y-67566D01*
X69501Y-67621D01*
X69501Y-67680D01*
X69501Y-67950D01*
X69249Y-67950D01*
X69249Y-67620D01*
X69226Y-67565D01*
X69184Y-67523D01*
X69129Y-67501D01*
X69070Y-67501D01*
X68985Y-67501D01*
X68985Y-22299D01*
X69130Y-22299D01*
X69185Y-22276D01*
X69227Y-22234D01*
X69249Y-22179D01*
X69249Y-22120D01*
X69249Y-19120D01*
X69226Y-19065D01*
X69184Y-19023D01*
X69129Y-19001D01*
X69070Y-19001D01*
X68370Y-19001D01*
X68315Y-19024D01*
X68273Y-19066D01*
X68251Y-19121D01*
X68251Y-19180D01*
X68251Y-22180D01*
X68274Y-22235D01*
X68316Y-22277D01*
X68371Y-22299D01*
X68430Y-22299D01*
X68515Y-22299D01*
X68515Y-67501D01*
X68370Y-67501D01*
X68315Y-67524D01*
X68273Y-67566D01*
X68251Y-67621D01*
X68251Y-67680D01*
X68251Y-67950D01*
X67999Y-67950D01*
X67999Y-67620D01*
X67976Y-67565D01*
X67934Y-67523D01*
X67879Y-67501D01*
X67820Y-67501D01*
X67735Y-67501D01*
X67735Y-22299D01*
X67880Y-22299D01*
X67935Y-22276D01*
X67977Y-22234D01*
X67999Y-22179D01*
X67999Y-22120D01*
X67999Y-19120D01*
X67976Y-19065D01*
X67934Y-19023D01*
X67879Y-19001D01*
X67820Y-19001D01*
X67120Y-19001D01*
X67065Y-19024D01*
X67023Y-19066D01*
X67001Y-19121D01*
X67001Y-19180D01*
X67001Y-22180D01*
X67024Y-22235D01*
X67066Y-22277D01*
X67121Y-22299D01*
X67180Y-22299D01*
X67265Y-22299D01*
X67265Y-67501D01*
X67120Y-67501D01*
X67065Y-67524D01*
X67023Y-67566D01*
X67001Y-67621D01*
X67001Y-67680D01*
X67001Y-67950D01*
X66749Y-67950D01*
X66749Y-67620D01*
X66726Y-67565D01*
X66684Y-67523D01*
X66629Y-67501D01*
X66570Y-67501D01*
X66485Y-67501D01*
X66485Y-22299D01*
X66630Y-22299D01*
X66685Y-22276D01*
X66727Y-22234D01*
X66749Y-22179D01*
X66749Y-22120D01*
X66749Y-19120D01*
X66726Y-19065D01*
X66684Y-19023D01*
X66629Y-19001D01*
X66570Y-19001D01*
X65870Y-19001D01*
X65815Y-19024D01*
X65773Y-19066D01*
X65751Y-19121D01*
X65751Y-19180D01*
X65751Y-22180D01*
X65774Y-22235D01*
X65816Y-22277D01*
X65871Y-22299D01*
X65930Y-22299D01*
X66015Y-22299D01*
X66015Y-67501D01*
X65870Y-67501D01*
X65815Y-67524D01*
X65773Y-67566D01*
X65751Y-67621D01*
X65751Y-67680D01*
X65751Y-67950D01*
X65499Y-67950D01*
X65499Y-67620D01*
X65476Y-67565D01*
X65434Y-67523D01*
X65379Y-67501D01*
X65320Y-67501D01*
X65235Y-67501D01*
X65235Y-22299D01*
X65380Y-22299D01*
X65435Y-22276D01*
X65477Y-22234D01*
X65499Y-22179D01*
X65499Y-22120D01*
X65499Y-19120D01*
X65476Y-19065D01*
X65434Y-19023D01*
X65379Y-19001D01*
X65320Y-19001D01*
X64620Y-19001D01*
X64565Y-19024D01*
X64523Y-19066D01*
X64501Y-19121D01*
X64501Y-19180D01*
X64501Y-22180D01*
X64524Y-22235D01*
X64566Y-22277D01*
X64621Y-22299D01*
X64680Y-22299D01*
X64765Y-22299D01*
X64765Y-67501D01*
X64620Y-67501D01*
X64565Y-67524D01*
X64523Y-67566D01*
X64501Y-67621D01*
X64501Y-67680D01*
X64501Y-67950D01*
X64249Y-67950D01*
X64249Y-67620D01*
X64226Y-67565D01*
X64184Y-67523D01*
X64129Y-67501D01*
X64070Y-67501D01*
X63985Y-67501D01*
X63985Y-22299D01*
X64130Y-22299D01*
X64185Y-22276D01*
X64227Y-22234D01*
X64249Y-22179D01*
X64249Y-22120D01*
X64249Y-19120D01*
X64226Y-19065D01*
X64184Y-19023D01*
X64129Y-19001D01*
X64070Y-19001D01*
X63370Y-19001D01*
X63315Y-19024D01*
X63273Y-19066D01*
X63251Y-19121D01*
X63251Y-19180D01*
X63251Y-22180D01*
X63274Y-22235D01*
X63316Y-22277D01*
X63371Y-22299D01*
X63430Y-22299D01*
X63515Y-22299D01*
X63515Y-67501D01*
X63370Y-67501D01*
X63315Y-67524D01*
X63273Y-67566D01*
X63251Y-67621D01*
X63251Y-67680D01*
X63251Y-67950D01*
X62999Y-67950D01*
X62999Y-67620D01*
X62976Y-67565D01*
X62934Y-67523D01*
X62879Y-67501D01*
X62820Y-67501D01*
X62735Y-67501D01*
X62735Y-22299D01*
X62880Y-22299D01*
X62935Y-22276D01*
X62977Y-22234D01*
X62999Y-22179D01*
X62999Y-22120D01*
X62999Y-19120D01*
X62976Y-19065D01*
X62934Y-19023D01*
X62879Y-19001D01*
X62820Y-19001D01*
X62120Y-19001D01*
X62065Y-19024D01*
X62023Y-19066D01*
X62001Y-19121D01*
X62001Y-19180D01*
X62001Y-22180D01*
X62024Y-22235D01*
X62066Y-22277D01*
X62121Y-22299D01*
X62180Y-22299D01*
X62265Y-22299D01*
X62265Y-67501D01*
X62120Y-67501D01*
X62065Y-67524D01*
X62023Y-67566D01*
X62001Y-67621D01*
X62001Y-67680D01*
X62001Y-67950D01*
X61749Y-67950D01*
X61749Y-67620D01*
X61726Y-67565D01*
X61684Y-67523D01*
X61629Y-67501D01*
X61570Y-67501D01*
X61485Y-67501D01*
X61485Y-22299D01*
X61630Y-22299D01*
X61685Y-22276D01*
X61727Y-22234D01*
X61749Y-22179D01*
X61749Y-22120D01*
X61749Y-19120D01*
X61726Y-19065D01*
X61684Y-19023D01*
X61629Y-19001D01*
X61570Y-19001D01*
X60870Y-19001D01*
X60815Y-19024D01*
X60773Y-19066D01*
X60751Y-19121D01*
X60751Y-19180D01*
X60751Y-22180D01*
X60774Y-22235D01*
X60816Y-22277D01*
X60871Y-22299D01*
X60930Y-22299D01*
X61015Y-22299D01*
X61015Y-67501D01*
X60870Y-67501D01*
X60815Y-67524D01*
X60773Y-67566D01*
X60751Y-67621D01*
X60751Y-67680D01*
X60751Y-67950D01*
X60499Y-67950D01*
X60499Y-67620D01*
X60476Y-67565D01*
X60434Y-67523D01*
X60379Y-67501D01*
X60320Y-67501D01*
X60235Y-67501D01*
X60235Y-22299D01*
X60380Y-22299D01*
X60435Y-22276D01*
X60477Y-22234D01*
X60499Y-22179D01*
X60499Y-22120D01*
X60499Y-19120D01*
X60476Y-19065D01*
X60434Y-19023D01*
X60379Y-19001D01*
X60320Y-19001D01*
X59620Y-19001D01*
X59565Y-19024D01*
X59523Y-19066D01*
X59501Y-19121D01*
X59501Y-19180D01*
X59501Y-22180D01*
X59524Y-22235D01*
X59566Y-22277D01*
X59621Y-22299D01*
X59680Y-22299D01*
X59765Y-22299D01*
X59765Y-67501D01*
X59620Y-67501D01*
X59565Y-67524D01*
X59523Y-67566D01*
X59501Y-67621D01*
X59501Y-67680D01*
X59501Y-67950D01*
X59249Y-67950D01*
X59249Y-67620D01*
X59226Y-67565D01*
X59184Y-67523D01*
X59129Y-67501D01*
X59070Y-67501D01*
X58985Y-67501D01*
X58985Y-22299D01*
X59130Y-22299D01*
X59185Y-22276D01*
X59227Y-22234D01*
X59249Y-22179D01*
X59249Y-22120D01*
X59249Y-19120D01*
X59226Y-19065D01*
X59184Y-19023D01*
X59129Y-19001D01*
X59070Y-19001D01*
X58370Y-19001D01*
X58315Y-19024D01*
X58273Y-19066D01*
X58251Y-19121D01*
X58251Y-19180D01*
X58251Y-22180D01*
X58274Y-22235D01*
X58316Y-22277D01*
X58371Y-22299D01*
X58430Y-22299D01*
X58515Y-22299D01*
X58515Y-67501D01*
X58370Y-67501D01*
X58315Y-67524D01*
X58273Y-67566D01*
X58251Y-67621D01*
X58251Y-67680D01*
X58251Y-67950D01*
X57999Y-67950D01*
X57999Y-67620D01*
X57976Y-67565D01*
X57934Y-67523D01*
X57879Y-67501D01*
X57820Y-67501D01*
X57735Y-67501D01*
X57735Y-22299D01*
X57880Y-22299D01*
X57935Y-22276D01*
X57977Y-22234D01*
X57999Y-22179D01*
X57999Y-22120D01*
X57999Y-19120D01*
X57976Y-19065D01*
X57934Y-19023D01*
X57879Y-19001D01*
X57820Y-19001D01*
X57120Y-19001D01*
X57065Y-19024D01*
X57023Y-19066D01*
X57001Y-19121D01*
X57001Y-19180D01*
X57001Y-22180D01*
X57024Y-22235D01*
X57066Y-22277D01*
X57121Y-22299D01*
X57180Y-22299D01*
X57265Y-22299D01*
X57265Y-67501D01*
X57120Y-67501D01*
X57065Y-67524D01*
X57023Y-67566D01*
X57001Y-67621D01*
X57001Y-67680D01*
X57001Y-67950D01*
X56749Y-67950D01*
X56749Y-67620D01*
X56726Y-67565D01*
X56684Y-67523D01*
X56629Y-67501D01*
X56570Y-67501D01*
X56485Y-67501D01*
X56485Y-22299D01*
X56630Y-22299D01*
X56685Y-22276D01*
X56727Y-22234D01*
X56749Y-22179D01*
X56749Y-22120D01*
X56749Y-19120D01*
X56726Y-19065D01*
X56684Y-19023D01*
X56629Y-19001D01*
X56570Y-19001D01*
X55870Y-19001D01*
X55815Y-19024D01*
X55773Y-19066D01*
X55751Y-19121D01*
X55751Y-19180D01*
X55751Y-22180D01*
X55774Y-22235D01*
X55816Y-22277D01*
X55871Y-22299D01*
X55930Y-22299D01*
X56015Y-22299D01*
X56015Y-67501D01*
X55870Y-67501D01*
X55815Y-67524D01*
X55773Y-67566D01*
X55751Y-67621D01*
X55751Y-67680D01*
X55751Y-67950D01*
X55499Y-67950D01*
X55499Y-67620D01*
X55476Y-67565D01*
X55434Y-67523D01*
X55379Y-67501D01*
X55320Y-67501D01*
X55235Y-67501D01*
X55235Y-22299D01*
X55380Y-22299D01*
X55435Y-22276D01*
X55477Y-22234D01*
X55499Y-22179D01*
X55499Y-22120D01*
X55499Y-19120D01*
X55476Y-19065D01*
X55434Y-19023D01*
X55379Y-19001D01*
X55320Y-19001D01*
X54620Y-19001D01*
X54565Y-19024D01*
X54523Y-19066D01*
X54501Y-19121D01*
X54501Y-19180D01*
X54501Y-22180D01*
X54524Y-22235D01*
X54566Y-22277D01*
X54621Y-22299D01*
X54680Y-22299D01*
X54765Y-22299D01*
X54765Y-67501D01*
X54620Y-67501D01*
X54565Y-67524D01*
X54523Y-67566D01*
X54501Y-67621D01*
X54501Y-67680D01*
X54501Y-67950D01*
X54249Y-67950D01*
X54249Y-67620D01*
X54226Y-67565D01*
X54184Y-67523D01*
X54129Y-67501D01*
X54070Y-67501D01*
X53985Y-67501D01*
X53985Y-22299D01*
X54130Y-22299D01*
X54185Y-22276D01*
X54227Y-22234D01*
X54249Y-22179D01*
X54249Y-22120D01*
X54249Y-19120D01*
X54226Y-19065D01*
X54184Y-19023D01*
X54129Y-19001D01*
X54070Y-19001D01*
X53370Y-19001D01*
X53315Y-19024D01*
X53273Y-19066D01*
X53251Y-19121D01*
X53251Y-19180D01*
X53251Y-22180D01*
X53274Y-22235D01*
X53316Y-22277D01*
X53371Y-22299D01*
X53430Y-22299D01*
X53515Y-22299D01*
X53515Y-67501D01*
X53370Y-67501D01*
X53315Y-67524D01*
X53273Y-67566D01*
X53251Y-67621D01*
X53251Y-67680D01*
X53251Y-67950D01*
X52999Y-67950D01*
X52999Y-67620D01*
X52976Y-67565D01*
X52934Y-67523D01*
X52879Y-67501D01*
X52820Y-67501D01*
X52735Y-67501D01*
X52735Y-22299D01*
X52880Y-22299D01*
X52935Y-22276D01*
X52977Y-22234D01*
X52999Y-22179D01*
X52999Y-22120D01*
X52999Y-19120D01*
X52976Y-19065D01*
X52934Y-19023D01*
X52879Y-19001D01*
X52820Y-19001D01*
X52120Y-19001D01*
X52065Y-19024D01*
X52023Y-19066D01*
X52001Y-19121D01*
X52001Y-19180D01*
X52001Y-22180D01*
X52024Y-22235D01*
X52066Y-22277D01*
X52121Y-22299D01*
X52180Y-22299D01*
X52265Y-22299D01*
X52265Y-67501D01*
X52120Y-67501D01*
X52065Y-67524D01*
X52023Y-67566D01*
X52001Y-67621D01*
X52001Y-67680D01*
X52001Y-67950D01*
X51749Y-67950D01*
X51749Y-67620D01*
X51726Y-67565D01*
X51684Y-67523D01*
X51629Y-67501D01*
X51570Y-67501D01*
X51485Y-67501D01*
X51485Y-22299D01*
X51630Y-22299D01*
X51685Y-22276D01*
X51727Y-22234D01*
X51749Y-22179D01*
X51749Y-22120D01*
X51749Y-19120D01*
X51726Y-19065D01*
X51684Y-19023D01*
X51629Y-19001D01*
X51570Y-19001D01*
X51543Y-19001D01*
X51777Y-18767D01*
X85526Y-18767D01*
X85470Y-18924D01*
X85482Y-19132D01*
X85540Y-19272D01*
X85632Y-19297D01*
X85894Y-19035D01*
X85929Y-19000D01*
X86000Y-18929D01*
X86071Y-19000D01*
X86106Y-19035D01*
X86368Y-19297D01*
X86460Y-19272D01*
X86530Y-19076D01*
X86518Y-18868D01*
X86476Y-18767D01*
X88026Y-18767D01*
X87970Y-18924D01*
X87982Y-19132D01*
X88040Y-19272D01*
X88132Y-19297D01*
X88394Y-19035D01*
X88429Y-19000D01*
X88500Y-18929D01*
X88571Y-19000D01*
X88606Y-19035D01*
X88868Y-19297D01*
X88960Y-19272D01*
X89030Y-19076D01*
X89018Y-18868D01*
X88976Y-18767D01*
X89434Y-18767D01*
X89558Y-18891D01*
X89551Y-18910D01*
X89551Y-19089D01*
X89619Y-19254D01*
X89745Y-19380D01*
X89910Y-19449D01*
X90089Y-19449D01*
X90254Y-19381D01*
X90380Y-19255D01*
X90388Y-19235D01*
X92611Y-19235D01*
X92619Y-19254D01*
X92745Y-19380D01*
X92910Y-19449D01*
X93089Y-19449D01*
X93254Y-19381D01*
X93380Y-19255D01*
X93449Y-19090D01*
X93449Y-18911D01*
X93381Y-18746D01*
X93255Y-18620D01*
X93090Y-18551D01*
X92911Y-18551D01*
X92746Y-18619D01*
X92620Y-18745D01*
X92611Y-18765D01*
X91925Y-18765D01*
X91925Y-15085D01*
X91925Y-14916D01*
X91861Y-14760D01*
X91741Y-14640D01*
X91585Y-14575D01*
X91416Y-14575D01*
X91260Y-14639D01*
X91140Y-14759D01*
X91075Y-14915D01*
X91075Y-15084D01*
X91139Y-15240D01*
X91259Y-15360D01*
X91415Y-15425D01*
X91584Y-15425D01*
X91740Y-15361D01*
X91860Y-15241D01*
X91925Y-15085D01*
X91925Y-18765D01*
X90388Y-18765D01*
X90381Y-18746D01*
X90255Y-18620D01*
X90090Y-18551D01*
X89911Y-18551D01*
X89891Y-18559D01*
X89698Y-18366D01*
X89622Y-18315D01*
X89532Y-18297D01*
X88925Y-18297D01*
X88925Y-15085D01*
X88925Y-14916D01*
X88861Y-14760D01*
X88741Y-14640D01*
X88585Y-14575D01*
X88416Y-14575D01*
X88260Y-14639D01*
X88140Y-14759D01*
X88075Y-14915D01*
X88075Y-15084D01*
X88139Y-15240D01*
X88259Y-15360D01*
X88415Y-15425D01*
X88584Y-15425D01*
X88740Y-15361D01*
X88860Y-15241D01*
X88925Y-15085D01*
X88925Y-18297D01*
X51680Y-18297D01*
X51590Y-18315D01*
X51514Y-18366D01*
X51084Y-18796D01*
X51033Y-18872D01*
X51015Y-18962D01*
X51015Y-19001D01*
X50870Y-19001D01*
X50815Y-19024D01*
X50773Y-19066D01*
X50751Y-19121D01*
X50751Y-19180D01*
X50751Y-22180D01*
X50774Y-22235D01*
X50816Y-22277D01*
X50871Y-22299D01*
X50930Y-22299D01*
X51015Y-22299D01*
X51015Y-67501D01*
X50870Y-67501D01*
X50815Y-67524D01*
X50773Y-67566D01*
X50751Y-67621D01*
X50751Y-67680D01*
X50751Y-67950D01*
X50499Y-67950D01*
X50499Y-67620D01*
X50476Y-67565D01*
X50434Y-67523D01*
X50379Y-67501D01*
X50320Y-67501D01*
X50235Y-67501D01*
X50235Y-22299D01*
X50380Y-22299D01*
X50435Y-22276D01*
X50477Y-22234D01*
X50499Y-22179D01*
X50499Y-22120D01*
X50499Y-19120D01*
X50476Y-19065D01*
X50434Y-19023D01*
X50379Y-19001D01*
X50320Y-19001D01*
X49620Y-19001D01*
X49565Y-19024D01*
X49523Y-19066D01*
X49501Y-19121D01*
X49501Y-19180D01*
X49501Y-22180D01*
X49524Y-22235D01*
X49566Y-22277D01*
X49621Y-22299D01*
X49680Y-22299D01*
X49765Y-22299D01*
X49765Y-67501D01*
X49620Y-67501D01*
X49565Y-67524D01*
X49523Y-67566D01*
X49501Y-67621D01*
X49501Y-67680D01*
X49501Y-67950D01*
X49249Y-67950D01*
X49249Y-67620D01*
X49226Y-67565D01*
X49184Y-67523D01*
X49129Y-67501D01*
X49070Y-67501D01*
X48985Y-67501D01*
X48985Y-22299D01*
X49130Y-22299D01*
X49185Y-22276D01*
X49227Y-22234D01*
X49249Y-22179D01*
X49249Y-22120D01*
X49249Y-19120D01*
X49226Y-19065D01*
X49184Y-19023D01*
X49129Y-19001D01*
X49070Y-19001D01*
X48370Y-19001D01*
X48315Y-19024D01*
X48273Y-19066D01*
X48251Y-19121D01*
X48251Y-19180D01*
X48251Y-22180D01*
X48274Y-22235D01*
X48316Y-22277D01*
X48371Y-22299D01*
X48430Y-22299D01*
X48515Y-22299D01*
X48515Y-67501D01*
X48370Y-67501D01*
X48315Y-67524D01*
X48273Y-67566D01*
X48251Y-67621D01*
X48251Y-67680D01*
X48251Y-67950D01*
X47999Y-67950D01*
X47999Y-67620D01*
X47976Y-67565D01*
X47934Y-67523D01*
X47879Y-67501D01*
X47820Y-67501D01*
X47735Y-67501D01*
X47735Y-22299D01*
X47880Y-22299D01*
X47935Y-22276D01*
X47977Y-22234D01*
X47999Y-22179D01*
X47999Y-22120D01*
X47999Y-19120D01*
X47976Y-19065D01*
X47934Y-19023D01*
X47879Y-19001D01*
X47820Y-19001D01*
X47120Y-19001D01*
X47065Y-19024D01*
X47023Y-19066D01*
X47001Y-19121D01*
X47001Y-19180D01*
X47001Y-22180D01*
X47024Y-22235D01*
X47066Y-22277D01*
X47121Y-22299D01*
X47180Y-22299D01*
X47265Y-22299D01*
X47265Y-67501D01*
X47120Y-67501D01*
X47065Y-67524D01*
X47023Y-67566D01*
X47001Y-67621D01*
X47001Y-67680D01*
X47001Y-67950D01*
X46749Y-67950D01*
X46749Y-67620D01*
X46726Y-67565D01*
X46684Y-67523D01*
X46629Y-67501D01*
X46570Y-67501D01*
X46485Y-67501D01*
X46485Y-22299D01*
X46630Y-22299D01*
X46685Y-22276D01*
X46727Y-22234D01*
X46749Y-22179D01*
X46749Y-22120D01*
X46749Y-19120D01*
X46726Y-19065D01*
X46684Y-19023D01*
X46629Y-19001D01*
X46570Y-19001D01*
X45870Y-19001D01*
X45815Y-19024D01*
X45773Y-19066D01*
X45751Y-19121D01*
X45751Y-19180D01*
X45751Y-22180D01*
X45774Y-22235D01*
X45816Y-22277D01*
X45871Y-22299D01*
X45930Y-22299D01*
X46015Y-22299D01*
X46015Y-67501D01*
X45870Y-67501D01*
X45815Y-67524D01*
X45773Y-67566D01*
X45751Y-67621D01*
X45751Y-67680D01*
X45751Y-67950D01*
X45499Y-67950D01*
X45499Y-67620D01*
X45476Y-67565D01*
X45434Y-67523D01*
X45405Y-67511D01*
X45405Y-22288D01*
X45435Y-22276D01*
X45477Y-22234D01*
X45499Y-22179D01*
X45499Y-22120D01*
X45499Y-19120D01*
X45476Y-19065D01*
X45434Y-19023D01*
X45379Y-19001D01*
X45320Y-19001D01*
X44620Y-19001D01*
X44565Y-19024D01*
X44523Y-19066D01*
X44501Y-19121D01*
X44501Y-19180D01*
X44501Y-22180D01*
X44524Y-22235D01*
X44566Y-22277D01*
X44595Y-22288D01*
X44595Y-67511D01*
X44565Y-67524D01*
X44523Y-67566D01*
X44501Y-67621D01*
X44501Y-67680D01*
X44501Y-67950D01*
X44249Y-67950D01*
X44249Y-67620D01*
X44226Y-67565D01*
X44184Y-67523D01*
X44129Y-67501D01*
X44070Y-67501D01*
X43985Y-67501D01*
X43985Y-22299D01*
X44130Y-22299D01*
X44185Y-22276D01*
X44227Y-22234D01*
X44249Y-22179D01*
X44249Y-22120D01*
X44249Y-19120D01*
X44226Y-19065D01*
X44184Y-19023D01*
X44129Y-19001D01*
X44070Y-19001D01*
X43370Y-19001D01*
X43315Y-19024D01*
X43273Y-19066D01*
X43251Y-19121D01*
X43251Y-19180D01*
X43251Y-22180D01*
X43274Y-22235D01*
X43316Y-22277D01*
X43371Y-22299D01*
X43430Y-22299D01*
X43515Y-22299D01*
X43515Y-67501D01*
X43370Y-67501D01*
X43315Y-67524D01*
X43273Y-67566D01*
X43251Y-67621D01*
X43251Y-67680D01*
X43251Y-67950D01*
X42999Y-67950D01*
X42999Y-67620D01*
X42976Y-67565D01*
X42934Y-67523D01*
X42879Y-67501D01*
X42820Y-67501D01*
X42735Y-67501D01*
X42735Y-22299D01*
X42880Y-22299D01*
X42935Y-22276D01*
X42977Y-22234D01*
X42999Y-22179D01*
X42999Y-22120D01*
X42999Y-19120D01*
X42976Y-19065D01*
X42934Y-19023D01*
X42879Y-19001D01*
X42820Y-19001D01*
X42120Y-19001D01*
X42065Y-19024D01*
X42023Y-19066D01*
X42001Y-19121D01*
X42001Y-19180D01*
X42001Y-22180D01*
X42024Y-22235D01*
X42066Y-22277D01*
X42121Y-22299D01*
X42180Y-22299D01*
X42265Y-22299D01*
X42265Y-67501D01*
X42120Y-67501D01*
X42065Y-67524D01*
X42023Y-67566D01*
X42001Y-67621D01*
X42001Y-67680D01*
X42001Y-67950D01*
X41749Y-67950D01*
X41749Y-67620D01*
X41726Y-67565D01*
X41684Y-67523D01*
X41629Y-67501D01*
X41570Y-67501D01*
X41485Y-67501D01*
X41485Y-22299D01*
X41630Y-22299D01*
X41685Y-22276D01*
X41727Y-22234D01*
X41749Y-22179D01*
X41749Y-22120D01*
X41749Y-19120D01*
X41726Y-19065D01*
X41684Y-19023D01*
X41629Y-19001D01*
X41570Y-19001D01*
X40870Y-19001D01*
X40815Y-19024D01*
X40773Y-19066D01*
X40751Y-19121D01*
X40751Y-19180D01*
X40751Y-22180D01*
X40774Y-22235D01*
X40816Y-22277D01*
X40871Y-22299D01*
X40930Y-22299D01*
X41015Y-22299D01*
X41015Y-67501D01*
X40870Y-67501D01*
X40815Y-67524D01*
X40773Y-67566D01*
X40751Y-67621D01*
X40751Y-67680D01*
X40751Y-67950D01*
X40499Y-67950D01*
X40499Y-67620D01*
X40476Y-67565D01*
X40434Y-67523D01*
X40379Y-67501D01*
X40320Y-67501D01*
X40235Y-67501D01*
X40235Y-22299D01*
X40380Y-22299D01*
X40435Y-22276D01*
X40477Y-22234D01*
X40499Y-22179D01*
X40499Y-22120D01*
X40499Y-19120D01*
X40476Y-19065D01*
X40434Y-19023D01*
X40379Y-19001D01*
X40320Y-19001D01*
X39620Y-19001D01*
X39565Y-19024D01*
X39523Y-19066D01*
X39501Y-19121D01*
X39501Y-19180D01*
X39501Y-22180D01*
X39524Y-22235D01*
X39566Y-22277D01*
X39621Y-22299D01*
X39680Y-22299D01*
X39765Y-22299D01*
X39765Y-67501D01*
X39620Y-67501D01*
X39565Y-67524D01*
X39523Y-67566D01*
X39501Y-67621D01*
X39501Y-67680D01*
X39501Y-67950D01*
X39249Y-67950D01*
X39249Y-67620D01*
X39226Y-67565D01*
X39184Y-67523D01*
X39129Y-67501D01*
X39070Y-67501D01*
X38985Y-67501D01*
X38985Y-22299D01*
X39130Y-22299D01*
X39185Y-22276D01*
X39227Y-22234D01*
X39249Y-22179D01*
X39249Y-22120D01*
X39249Y-19120D01*
X39226Y-19065D01*
X39184Y-19023D01*
X39129Y-19001D01*
X39070Y-19001D01*
X38370Y-19001D01*
X38315Y-19024D01*
X38273Y-19066D01*
X38251Y-19121D01*
X38251Y-19180D01*
X38251Y-22180D01*
X38274Y-22235D01*
X38316Y-22277D01*
X38371Y-22299D01*
X38430Y-22299D01*
X38515Y-22299D01*
X38515Y-67501D01*
X38370Y-67501D01*
X38315Y-67524D01*
X38273Y-67566D01*
X38251Y-67621D01*
X38251Y-67680D01*
X38251Y-67950D01*
X37999Y-67950D01*
X37999Y-67620D01*
X37976Y-67565D01*
X37934Y-67523D01*
X37879Y-67501D01*
X37820Y-67501D01*
X37735Y-67501D01*
X37735Y-22299D01*
X37880Y-22299D01*
X37935Y-22276D01*
X37977Y-22234D01*
X37999Y-22179D01*
X37999Y-22120D01*
X37999Y-19120D01*
X37976Y-19065D01*
X37934Y-19023D01*
X37879Y-19001D01*
X37820Y-19001D01*
X37120Y-19001D01*
X37065Y-19024D01*
X37023Y-19066D01*
X37001Y-19121D01*
X37001Y-19180D01*
X37001Y-22180D01*
X37024Y-22235D01*
X37066Y-22277D01*
X37121Y-22299D01*
X37180Y-22299D01*
X37265Y-22299D01*
X37265Y-67501D01*
X37120Y-67501D01*
X37065Y-67524D01*
X37023Y-67566D01*
X37001Y-67621D01*
X37001Y-67680D01*
X37001Y-67950D01*
X36749Y-67950D01*
X36749Y-67620D01*
X36726Y-67565D01*
X36684Y-67523D01*
X36629Y-67501D01*
X36570Y-67501D01*
X36485Y-67501D01*
X36485Y-22299D01*
X36630Y-22299D01*
X36685Y-22276D01*
X36727Y-22234D01*
X36749Y-22179D01*
X36749Y-22120D01*
X36749Y-19120D01*
X36726Y-19065D01*
X36684Y-19023D01*
X36629Y-19001D01*
X36570Y-19001D01*
X35870Y-19001D01*
X35815Y-19024D01*
X35773Y-19066D01*
X35751Y-19121D01*
X35751Y-19180D01*
X35751Y-22180D01*
X35774Y-22235D01*
X35816Y-22277D01*
X35871Y-22299D01*
X35930Y-22299D01*
X36015Y-22299D01*
X36015Y-67501D01*
X35870Y-67501D01*
X35815Y-67524D01*
X35773Y-67566D01*
X35751Y-67621D01*
X35751Y-67680D01*
X35751Y-67950D01*
X35499Y-67950D01*
X35499Y-67620D01*
X35476Y-67565D01*
X35434Y-67523D01*
X35379Y-67501D01*
X35320Y-67501D01*
X35235Y-67501D01*
X35235Y-22299D01*
X35380Y-22299D01*
X35435Y-22276D01*
X35477Y-22234D01*
X35499Y-22179D01*
X35499Y-22120D01*
X35499Y-19120D01*
X35476Y-19065D01*
X35434Y-19023D01*
X35379Y-19001D01*
X35320Y-19001D01*
X34620Y-19001D01*
X34565Y-19024D01*
X34523Y-19066D01*
X34501Y-19121D01*
X34501Y-19180D01*
X34501Y-22180D01*
X34524Y-22235D01*
X34566Y-22277D01*
X34621Y-22299D01*
X34680Y-22299D01*
X34765Y-22299D01*
X34765Y-67501D01*
X34620Y-67501D01*
X34565Y-67524D01*
X34523Y-67566D01*
X34501Y-67621D01*
X34501Y-67680D01*
X34501Y-67950D01*
X34249Y-67950D01*
X34249Y-67620D01*
X34226Y-67565D01*
X34184Y-67523D01*
X34129Y-67501D01*
X34070Y-67501D01*
X33985Y-67501D01*
X33985Y-22299D01*
X34130Y-22299D01*
X34185Y-22276D01*
X34227Y-22234D01*
X34249Y-22179D01*
X34249Y-22120D01*
X34249Y-19120D01*
X34226Y-19065D01*
X34184Y-19023D01*
X34129Y-19001D01*
X34070Y-19001D01*
X33370Y-19001D01*
X33315Y-19024D01*
X33273Y-19066D01*
X33251Y-19121D01*
X33251Y-19180D01*
X33251Y-22180D01*
X33274Y-22235D01*
X33316Y-22277D01*
X33371Y-22299D01*
X33430Y-22299D01*
X33515Y-22299D01*
X33515Y-67501D01*
X33370Y-67501D01*
X33315Y-67524D01*
X33273Y-67566D01*
X33251Y-67621D01*
X33251Y-67680D01*
X33251Y-67950D01*
X32999Y-67950D01*
X32999Y-67620D01*
X32976Y-67565D01*
X32934Y-67523D01*
X32879Y-67501D01*
X32820Y-67501D01*
X32735Y-67501D01*
X32735Y-22299D01*
X32880Y-22299D01*
X32935Y-22276D01*
X32977Y-22234D01*
X32999Y-22179D01*
X32999Y-22120D01*
X32999Y-19120D01*
X32976Y-19065D01*
X32934Y-19023D01*
X32879Y-19001D01*
X32820Y-19001D01*
X32120Y-19001D01*
X32065Y-19024D01*
X32023Y-19066D01*
X32001Y-19121D01*
X32001Y-19180D01*
X32001Y-22180D01*
X32024Y-22235D01*
X32066Y-22277D01*
X32121Y-22299D01*
X32180Y-22299D01*
X32265Y-22299D01*
X32265Y-67501D01*
X32120Y-67501D01*
X32065Y-67524D01*
X32023Y-67566D01*
X32001Y-67621D01*
X32001Y-67680D01*
X32001Y-67950D01*
X31749Y-67950D01*
X31749Y-67620D01*
X31726Y-67565D01*
X31684Y-67523D01*
X31629Y-67501D01*
X31570Y-67501D01*
X31485Y-67501D01*
X31485Y-22299D01*
X31630Y-22299D01*
X31685Y-22276D01*
X31727Y-22234D01*
X31749Y-22179D01*
X31749Y-22120D01*
X31749Y-19120D01*
X31726Y-19065D01*
X31684Y-19023D01*
X31629Y-19001D01*
X31570Y-19001D01*
X30870Y-19001D01*
X30815Y-19024D01*
X30773Y-19066D01*
X30751Y-19121D01*
X30751Y-19180D01*
X30751Y-22180D01*
X30774Y-22235D01*
X30816Y-22277D01*
X30871Y-22299D01*
X30930Y-22299D01*
X31015Y-22299D01*
X31015Y-67501D01*
X30870Y-67501D01*
X30815Y-67524D01*
X30773Y-67566D01*
X30751Y-67621D01*
X30751Y-67680D01*
X30751Y-67950D01*
X30499Y-67950D01*
X30499Y-67620D01*
X30476Y-67565D01*
X30434Y-67523D01*
X30379Y-67501D01*
X30320Y-67501D01*
X30235Y-67501D01*
X30235Y-22299D01*
X30380Y-22299D01*
X30435Y-22276D01*
X30477Y-22234D01*
X30499Y-22179D01*
X30499Y-22120D01*
X30499Y-19120D01*
X30476Y-19065D01*
X30434Y-19023D01*
X30379Y-19001D01*
X30320Y-19001D01*
X29620Y-19001D01*
X29565Y-19024D01*
X29523Y-19066D01*
X29501Y-19121D01*
X29501Y-19180D01*
X29501Y-22180D01*
X29524Y-22235D01*
X29566Y-22277D01*
X29621Y-22299D01*
X29680Y-22299D01*
X29765Y-22299D01*
X29765Y-67501D01*
X29620Y-67501D01*
X29565Y-67524D01*
X29523Y-67566D01*
X29501Y-67621D01*
X29501Y-67680D01*
X29501Y-67950D01*
X29249Y-67950D01*
X29249Y-67620D01*
X29226Y-67565D01*
X29184Y-67523D01*
X29129Y-67501D01*
X29070Y-67501D01*
X28985Y-67501D01*
X28985Y-22299D01*
X29130Y-22299D01*
X29185Y-22276D01*
X29227Y-22234D01*
X29249Y-22179D01*
X29249Y-22120D01*
X29249Y-19120D01*
X29226Y-19065D01*
X29184Y-19023D01*
X29129Y-19001D01*
X29070Y-19001D01*
X28370Y-19001D01*
X28315Y-19024D01*
X28273Y-19066D01*
X28251Y-19121D01*
X28251Y-19180D01*
X28251Y-22180D01*
X28274Y-22235D01*
X28316Y-22277D01*
X28371Y-22299D01*
X28430Y-22299D01*
X28515Y-22299D01*
X28515Y-67501D01*
X28370Y-67501D01*
X28315Y-67524D01*
X28273Y-67566D01*
X28251Y-67621D01*
X28251Y-67680D01*
X28251Y-67950D01*
X27999Y-67950D01*
X27999Y-67620D01*
X27976Y-67565D01*
X27934Y-67523D01*
X27879Y-67501D01*
X27820Y-67501D01*
X27735Y-67501D01*
X27735Y-22299D01*
X27880Y-22299D01*
X27935Y-22276D01*
X27977Y-22234D01*
X27999Y-22179D01*
X27999Y-22120D01*
X27999Y-19120D01*
X27976Y-19065D01*
X27934Y-19023D01*
X27879Y-19001D01*
X27820Y-19001D01*
X27120Y-19001D01*
X27065Y-19024D01*
X27023Y-19066D01*
X27001Y-19121D01*
X27001Y-19180D01*
X27001Y-22180D01*
X27024Y-22235D01*
X27066Y-22277D01*
X27121Y-22299D01*
X27180Y-22299D01*
X27265Y-22299D01*
X27265Y-67501D01*
X27120Y-67501D01*
X27065Y-67524D01*
X27023Y-67566D01*
X27001Y-67621D01*
X27001Y-67680D01*
X27001Y-67950D01*
X26749Y-67950D01*
X26749Y-67620D01*
X26726Y-67565D01*
X26684Y-67523D01*
X26629Y-67501D01*
X26570Y-67501D01*
X26485Y-67501D01*
X26485Y-22299D01*
X26630Y-22299D01*
X26685Y-22276D01*
X26727Y-22234D01*
X26749Y-22179D01*
X26749Y-22120D01*
X26749Y-19120D01*
X26726Y-19065D01*
X26684Y-19023D01*
X26629Y-19001D01*
X26570Y-19001D01*
X25870Y-19001D01*
X25815Y-19024D01*
X25773Y-19066D01*
X25751Y-19121D01*
X25751Y-19180D01*
X25751Y-22180D01*
X25774Y-22235D01*
X25816Y-22277D01*
X25871Y-22299D01*
X25930Y-22299D01*
X26015Y-22299D01*
X26015Y-67501D01*
X25870Y-67501D01*
X25815Y-67524D01*
X25773Y-67566D01*
X25751Y-67621D01*
X25751Y-67680D01*
X25751Y-67950D01*
X25499Y-67950D01*
X25499Y-67620D01*
X25476Y-67565D01*
X25434Y-67523D01*
X25379Y-67501D01*
X25320Y-67501D01*
X25235Y-67501D01*
X25235Y-22299D01*
X25380Y-22299D01*
X25435Y-22276D01*
X25477Y-22234D01*
X25499Y-22179D01*
X25499Y-22120D01*
X25499Y-19120D01*
X25476Y-19065D01*
X25434Y-19023D01*
X25379Y-19001D01*
X25320Y-19001D01*
X24620Y-19001D01*
X24565Y-19024D01*
X24523Y-19066D01*
X24501Y-19121D01*
X24501Y-19180D01*
X24501Y-22180D01*
X24524Y-22235D01*
X24566Y-22277D01*
X24621Y-22299D01*
X24680Y-22299D01*
X24765Y-22299D01*
X24765Y-67501D01*
X24620Y-67501D01*
X24565Y-67524D01*
X24523Y-67566D01*
X24501Y-67621D01*
X24501Y-67680D01*
X24501Y-67950D01*
X24249Y-67950D01*
X24249Y-67620D01*
X24226Y-67565D01*
X24184Y-67523D01*
X24155Y-67511D01*
X24155Y-22288D01*
X24185Y-22276D01*
X24227Y-22234D01*
X24249Y-22179D01*
X24249Y-22120D01*
X24249Y-19120D01*
X24226Y-19065D01*
X24184Y-19023D01*
X24129Y-19001D01*
X24070Y-19001D01*
X23370Y-19001D01*
X23315Y-19024D01*
X23273Y-19066D01*
X23251Y-19121D01*
X23251Y-19180D01*
X23251Y-22180D01*
X23274Y-22235D01*
X23316Y-22277D01*
X23345Y-22288D01*
X23345Y-67511D01*
X23315Y-67524D01*
X23273Y-67566D01*
X23251Y-67621D01*
X23251Y-67680D01*
X23251Y-67950D01*
X22999Y-67950D01*
X22999Y-67620D01*
X22976Y-67565D01*
X22934Y-67523D01*
X22905Y-67511D01*
X22905Y-50695D01*
X22949Y-50590D01*
X22949Y-50411D01*
X22881Y-50246D01*
X22755Y-50120D01*
X22590Y-50051D01*
X22411Y-50051D01*
X22246Y-50119D01*
X22120Y-50245D01*
X22051Y-50410D01*
X22051Y-50589D01*
X22095Y-50695D01*
X22095Y-67511D01*
X22065Y-67524D01*
X22023Y-67566D01*
X22001Y-67621D01*
X22001Y-67680D01*
X22001Y-67950D01*
X21749Y-67950D01*
X21749Y-67620D01*
X21726Y-67565D01*
X21684Y-67523D01*
X21629Y-67501D01*
X21570Y-67501D01*
X21455Y-67501D01*
X21455Y-66748D01*
X21424Y-66593D01*
X21336Y-66462D01*
X20072Y-65198D01*
X21405Y-63866D01*
X21405Y-63865D01*
X21493Y-63734D01*
X21523Y-63579D01*
X21524Y-63579D01*
X21524Y-52043D01*
X21493Y-51888D01*
X21449Y-51822D01*
X21449Y-50590D01*
X21449Y-50411D01*
X21381Y-50246D01*
X21255Y-50120D01*
X21090Y-50051D01*
X20911Y-50051D01*
X20746Y-50119D01*
X20620Y-50245D01*
X20551Y-50410D01*
X20551Y-50589D01*
X20619Y-50754D01*
X20745Y-50880D01*
X20910Y-50949D01*
X21089Y-50949D01*
X21254Y-50881D01*
X21380Y-50755D01*
X21449Y-50590D01*
X21449Y-51822D01*
X21405Y-51757D01*
X19862Y-50214D01*
X19822Y-50187D01*
X19755Y-50120D01*
X19590Y-50051D01*
X19411Y-50051D01*
X19246Y-50119D01*
X19120Y-50245D01*
X19051Y-50410D01*
X19051Y-50589D01*
X19119Y-50754D01*
X19245Y-50880D01*
X19410Y-50949D01*
X19453Y-50949D01*
X20714Y-52210D01*
X20714Y-52650D01*
X20696Y-52624D01*
X20696Y-52623D01*
X16997Y-48925D01*
X17084Y-48925D01*
X17240Y-48861D01*
X17360Y-48741D01*
X17425Y-48585D01*
X17425Y-48416D01*
X17361Y-48260D01*
X17241Y-48140D01*
X17145Y-48100D01*
X20305Y-48100D01*
X20305Y-48099D01*
X20460Y-48069D01*
X20591Y-47981D01*
X22648Y-45924D01*
X22754Y-45881D01*
X22880Y-45755D01*
X22949Y-45590D01*
X22949Y-45411D01*
X22905Y-45304D01*
X22905Y-22288D01*
X22935Y-22276D01*
X22977Y-22234D01*
X22999Y-22179D01*
X22999Y-22120D01*
X22999Y-19120D01*
X22976Y-19065D01*
X22934Y-19023D01*
X22879Y-19001D01*
X22820Y-19001D01*
X22120Y-19001D01*
X22065Y-19024D01*
X22024Y-19065D01*
X22024Y-19009D01*
X22006Y-18919D01*
X21955Y-18843D01*
X21701Y-18589D01*
X21625Y-18538D01*
X21535Y-18520D01*
X17308Y-18520D01*
X15985Y-17197D01*
X15985Y-16174D01*
X16055Y-16174D01*
X16110Y-16151D01*
X16152Y-16109D01*
X16174Y-16054D01*
X16174Y-15995D01*
X16174Y-15445D01*
X16151Y-15390D01*
X16109Y-15348D01*
X16054Y-15326D01*
X15995Y-15326D01*
X15445Y-15326D01*
X15390Y-15349D01*
X15348Y-15391D01*
X15326Y-15446D01*
X15326Y-15505D01*
X15326Y-16055D01*
X15349Y-16110D01*
X15391Y-16152D01*
X15446Y-16174D01*
X15505Y-16174D01*
X15515Y-16174D01*
X15515Y-17294D01*
X15533Y-17384D01*
X15584Y-17460D01*
X17045Y-18921D01*
X17121Y-18972D01*
X17211Y-18990D01*
X21438Y-18990D01*
X21449Y-19001D01*
X20470Y-19001D01*
X20415Y-19024D01*
X20373Y-19066D01*
X20351Y-19121D01*
X20351Y-19180D01*
X20351Y-21425D01*
X10537Y-21425D01*
X10382Y-21456D01*
X10250Y-21544D01*
X9735Y-22059D01*
X9735Y-21686D01*
X11186Y-20235D01*
X17069Y-20235D01*
X17194Y-20537D01*
X17461Y-20805D01*
X17810Y-20950D01*
X18188Y-20950D01*
X18537Y-20806D01*
X18805Y-20539D01*
X18950Y-20190D01*
X18950Y-19812D01*
X18806Y-19463D01*
X18539Y-19195D01*
X18190Y-19050D01*
X17812Y-19050D01*
X17463Y-19194D01*
X17195Y-19461D01*
X17068Y-19765D01*
X15175Y-19765D01*
X15175Y-15835D01*
X15175Y-15666D01*
X15111Y-15510D01*
X14991Y-15390D01*
X14835Y-15325D01*
X14666Y-15325D01*
X14510Y-15389D01*
X14390Y-15509D01*
X14325Y-15665D01*
X14325Y-15834D01*
X14389Y-15990D01*
X14509Y-16110D01*
X14665Y-16175D01*
X14834Y-16175D01*
X14990Y-16111D01*
X15110Y-15991D01*
X15175Y-15835D01*
X15175Y-19765D01*
X11089Y-19765D01*
X10999Y-19783D01*
X10923Y-19834D01*
X9334Y-21423D01*
X9283Y-21499D01*
X9265Y-21589D01*
X9265Y-33386D01*
X9260Y-33389D01*
X9251Y-33398D01*
X9251Y-19081D01*
X12160Y-16172D01*
X12165Y-16175D01*
X12334Y-16175D01*
X12490Y-16111D01*
X12610Y-15991D01*
X12636Y-15926D01*
X12697Y-15967D01*
X12787Y-15985D01*
X12826Y-15985D01*
X12826Y-16055D01*
X12849Y-16110D01*
X12891Y-16152D01*
X12946Y-16174D01*
X13005Y-16174D01*
X13555Y-16174D01*
X13610Y-16151D01*
X13652Y-16109D01*
X13674Y-16054D01*
X13674Y-15995D01*
X13674Y-15445D01*
X13651Y-15390D01*
X13609Y-15348D01*
X13554Y-15326D01*
X13495Y-15326D01*
X13020Y-15326D01*
X13004Y-15245D01*
X12973Y-15198D01*
X12953Y-15169D01*
X12953Y-15168D01*
X12905Y-15121D01*
X12829Y-15070D01*
X12739Y-15052D01*
X7833Y-15052D01*
X7743Y-15070D01*
X7666Y-15121D01*
X7620Y-15168D01*
X7569Y-15244D01*
X7551Y-15334D01*
X7551Y-15450D01*
X7491Y-15390D01*
X7335Y-15325D01*
X7166Y-15325D01*
X7010Y-15389D01*
X6890Y-15509D01*
X6825Y-15665D01*
X6825Y-15834D01*
X6889Y-15990D01*
X7009Y-16110D01*
X7165Y-16175D01*
X7282Y-16175D01*
X5247Y-18211D01*
X5225Y-18243D01*
X5225Y-13225D01*
X17275Y-13225D01*
X17275Y-18000D01*
X17292Y-18086D01*
X17341Y-18159D01*
X17414Y-18208D01*
X17500Y-18225D01*
X85500Y-18225D01*
X86250Y-18225D01*
X86336Y-18208D01*
X86409Y-18159D01*
X86458Y-18086D01*
X86475Y-18000D01*
X86475Y-13225D01*
X104775Y-13225D01*
X104775Y-20500D01*
X104775Y-67775D01*
X104775Y-67775D01*
G37*
G54D24*
X104775Y-67775D02*
X103550Y-67775D01*
X103550Y-20702D01*
X103547Y-20284D01*
X103393Y-19912D01*
X103247Y-19824D01*
X103176Y-19895D01*
X103176Y-19753D01*
X103088Y-19607D01*
X102702Y-19450D01*
X102284Y-19453D01*
X101912Y-19607D01*
X101824Y-19753D01*
X102500Y-20429D01*
X103176Y-19753D01*
X103176Y-19895D01*
X102571Y-20500D01*
X103247Y-21176D01*
X103393Y-21088D01*
X103550Y-20702D01*
X103550Y-67775D01*
X103176Y-67775D01*
X103176Y-21247D01*
X102500Y-20571D01*
X102429Y-20642D01*
X102429Y-20500D01*
X101753Y-19824D01*
X101607Y-19912D01*
X101450Y-20298D01*
X101453Y-20716D01*
X101607Y-21088D01*
X101753Y-21176D01*
X102429Y-20500D01*
X102429Y-20642D01*
X101824Y-21247D01*
X101912Y-21393D01*
X102298Y-21550D01*
X102716Y-21547D01*
X103088Y-21393D01*
X103176Y-21247D01*
X103176Y-67775D01*
X98530Y-67775D01*
X98530Y-15076D01*
X98518Y-14868D01*
X98460Y-14728D01*
X98368Y-14703D01*
X98297Y-14774D01*
X98297Y-14632D01*
X98272Y-14540D01*
X98076Y-14470D01*
X97868Y-14482D01*
X97728Y-14540D01*
X97703Y-14632D01*
X98000Y-14929D01*
X98297Y-14632D01*
X98297Y-14774D01*
X98071Y-15000D01*
X98368Y-15297D01*
X98460Y-15272D01*
X98530Y-15076D01*
X98530Y-67775D01*
X98297Y-67775D01*
X98297Y-15368D01*
X98000Y-15071D01*
X97929Y-15142D01*
X97929Y-15000D01*
X97632Y-14703D01*
X97540Y-14728D01*
X97470Y-14924D01*
X97482Y-15132D01*
X97540Y-15272D01*
X97632Y-15297D01*
X97929Y-15000D01*
X97929Y-15142D01*
X97703Y-15368D01*
X97728Y-15460D01*
X97924Y-15530D01*
X98132Y-15518D01*
X98272Y-15460D01*
X98297Y-15368D01*
X98297Y-67775D01*
X95530Y-67775D01*
X95530Y-15076D01*
X95518Y-14868D01*
X95460Y-14728D01*
X95368Y-14703D01*
X95297Y-14774D01*
X95297Y-14632D01*
X95272Y-14540D01*
X95076Y-14470D01*
X94868Y-14482D01*
X94728Y-14540D01*
X94703Y-14632D01*
X95000Y-14929D01*
X95297Y-14632D01*
X95297Y-14774D01*
X95071Y-15000D01*
X95368Y-15297D01*
X95460Y-15272D01*
X95530Y-15076D01*
X95530Y-67775D01*
X95297Y-67775D01*
X95297Y-15368D01*
X95000Y-15071D01*
X94929Y-15142D01*
X94929Y-15000D01*
X94632Y-14703D01*
X94540Y-14728D01*
X94470Y-14924D01*
X94482Y-15132D01*
X94540Y-15272D01*
X94632Y-15297D01*
X94929Y-15000D01*
X94929Y-15142D01*
X94703Y-15368D01*
X94728Y-15460D01*
X94924Y-15530D01*
X95132Y-15518D01*
X95272Y-15460D01*
X95297Y-15368D01*
X95297Y-67775D01*
X93449Y-67775D01*
X93449Y-21090D01*
X93449Y-20911D01*
X93381Y-20746D01*
X93255Y-20620D01*
X93090Y-20551D01*
X92911Y-20551D01*
X92746Y-20619D01*
X92620Y-20745D01*
X92551Y-20910D01*
X92551Y-21089D01*
X92619Y-21254D01*
X92745Y-21380D01*
X92910Y-21449D01*
X93089Y-21449D01*
X93254Y-21381D01*
X93380Y-21255D01*
X93449Y-21090D01*
X93449Y-67775D01*
X90449Y-67775D01*
X90449Y-21090D01*
X90449Y-20911D01*
X90381Y-20746D01*
X90255Y-20620D01*
X90090Y-20551D01*
X89911Y-20551D01*
X89746Y-20619D01*
X89620Y-20745D01*
X89551Y-20910D01*
X89551Y-21089D01*
X89559Y-21108D01*
X88903Y-21765D01*
X88863Y-21765D01*
X88861Y-21760D01*
X88797Y-21696D01*
X88797Y-19368D01*
X88500Y-19071D01*
X88203Y-19368D01*
X88228Y-19460D01*
X88424Y-19530D01*
X88632Y-19518D01*
X88772Y-19460D01*
X88797Y-19368D01*
X88797Y-21696D01*
X88741Y-21640D01*
X88585Y-21575D01*
X88416Y-21575D01*
X88260Y-21639D01*
X88140Y-21759D01*
X88075Y-21915D01*
X88075Y-22084D01*
X88139Y-22240D01*
X88259Y-22360D01*
X88415Y-22425D01*
X88584Y-22425D01*
X88740Y-22361D01*
X88860Y-22241D01*
X88862Y-22235D01*
X89000Y-22235D01*
X89090Y-22217D01*
X89166Y-22166D01*
X89890Y-21441D01*
X89910Y-21449D01*
X90089Y-21449D01*
X90254Y-21381D01*
X90380Y-21255D01*
X90449Y-21090D01*
X90449Y-67775D01*
X86530Y-67775D01*
X86530Y-22076D01*
X86518Y-21868D01*
X86460Y-21728D01*
X86368Y-21703D01*
X86297Y-21774D01*
X86297Y-21632D01*
X86297Y-19368D01*
X86000Y-19071D01*
X85703Y-19368D01*
X85728Y-19460D01*
X85924Y-19530D01*
X86132Y-19518D01*
X86272Y-19460D01*
X86297Y-19368D01*
X86297Y-21632D01*
X86272Y-21540D01*
X86076Y-21470D01*
X85868Y-21482D01*
X85728Y-21540D01*
X85703Y-21632D01*
X86000Y-21929D01*
X86297Y-21632D01*
X86297Y-21774D01*
X86071Y-22000D01*
X86368Y-22297D01*
X86460Y-22272D01*
X86530Y-22076D01*
X86530Y-67775D01*
X86297Y-67775D01*
X86297Y-22368D01*
X86000Y-22071D01*
X85929Y-22142D01*
X85929Y-22000D01*
X85632Y-21703D01*
X85540Y-21728D01*
X85470Y-21924D01*
X85482Y-22132D01*
X85540Y-22272D01*
X85632Y-22297D01*
X85929Y-22000D01*
X85929Y-22142D01*
X85703Y-22368D01*
X85728Y-22460D01*
X85924Y-22530D01*
X86132Y-22518D01*
X86272Y-22460D01*
X86297Y-22368D01*
X86297Y-67775D01*
X83750Y-67775D01*
X83664Y-67792D01*
X83591Y-67841D01*
X83542Y-67914D01*
X83534Y-67950D01*
X83500Y-67950D01*
X83500Y-20762D01*
X83500Y-20538D01*
X83499Y-19199D01*
X83499Y-19100D01*
X83461Y-19009D01*
X83391Y-18939D01*
X83299Y-18901D01*
X82812Y-18900D01*
X82750Y-18962D01*
X82750Y-20600D01*
X83438Y-20600D01*
X83500Y-20538D01*
X83500Y-20762D01*
X83438Y-20700D01*
X82750Y-20700D01*
X82750Y-22338D01*
X82812Y-22400D01*
X83299Y-22399D01*
X83391Y-22361D01*
X83461Y-22291D01*
X83499Y-22200D01*
X83499Y-22101D01*
X83500Y-20762D01*
X83500Y-67950D01*
X83499Y-67950D01*
X83499Y-67699D01*
X83499Y-67600D01*
X83461Y-67509D01*
X83391Y-67439D01*
X83299Y-67401D01*
X82812Y-67400D01*
X82750Y-67462D01*
X82750Y-67950D01*
X82650Y-67950D01*
X82650Y-67462D01*
X82650Y-22338D01*
X82650Y-20700D01*
X82650Y-20600D01*
X82650Y-18962D01*
X82588Y-18900D01*
X82101Y-18901D01*
X82009Y-18939D01*
X81939Y-19009D01*
X81901Y-19100D01*
X81901Y-19199D01*
X81900Y-20538D01*
X81962Y-20600D01*
X82650Y-20600D01*
X82650Y-20700D01*
X81962Y-20700D01*
X81900Y-20762D01*
X81901Y-22101D01*
X81901Y-22200D01*
X81939Y-22291D01*
X82009Y-22361D01*
X82101Y-22399D01*
X82588Y-22400D01*
X82650Y-22338D01*
X82650Y-67462D01*
X82588Y-67400D01*
X82101Y-67401D01*
X82009Y-67439D01*
X81939Y-67509D01*
X81901Y-67600D01*
X81901Y-67699D01*
X81900Y-67950D01*
X81749Y-67950D01*
X81749Y-67620D01*
X81726Y-67565D01*
X81684Y-67523D01*
X81629Y-67501D01*
X81570Y-67501D01*
X81485Y-67501D01*
X81485Y-22299D01*
X81630Y-22299D01*
X81685Y-22276D01*
X81727Y-22234D01*
X81749Y-22179D01*
X81749Y-22120D01*
X81749Y-19120D01*
X81726Y-19065D01*
X81684Y-19023D01*
X81629Y-19001D01*
X81570Y-19001D01*
X80870Y-19001D01*
X80815Y-19024D01*
X80773Y-19066D01*
X80751Y-19121D01*
X80751Y-19180D01*
X80751Y-22180D01*
X80774Y-22235D01*
X80816Y-22277D01*
X80871Y-22299D01*
X80930Y-22299D01*
X81015Y-22299D01*
X81015Y-67501D01*
X80870Y-67501D01*
X80815Y-67524D01*
X80773Y-67566D01*
X80751Y-67621D01*
X80751Y-67680D01*
X80751Y-67950D01*
X80499Y-67950D01*
X80499Y-67620D01*
X80476Y-67565D01*
X80434Y-67523D01*
X80379Y-67501D01*
X80320Y-67501D01*
X80235Y-67501D01*
X80235Y-22299D01*
X80380Y-22299D01*
X80435Y-22276D01*
X80477Y-22234D01*
X80499Y-22179D01*
X80499Y-22120D01*
X80499Y-19120D01*
X80476Y-19065D01*
X80434Y-19023D01*
X80379Y-19001D01*
X80320Y-19001D01*
X79620Y-19001D01*
X79565Y-19024D01*
X79523Y-19066D01*
X79501Y-19121D01*
X79501Y-19180D01*
X79501Y-22180D01*
X79524Y-22235D01*
X79566Y-22277D01*
X79621Y-22299D01*
X79680Y-22299D01*
X79765Y-22299D01*
X79765Y-67501D01*
X79620Y-67501D01*
X79565Y-67524D01*
X79523Y-67566D01*
X79501Y-67621D01*
X79501Y-67680D01*
X79501Y-67950D01*
X79249Y-67950D01*
X79249Y-67620D01*
X79226Y-67565D01*
X79184Y-67523D01*
X79129Y-67501D01*
X79070Y-67501D01*
X78985Y-67501D01*
X78985Y-22299D01*
X79130Y-22299D01*
X79185Y-22276D01*
X79227Y-22234D01*
X79249Y-22179D01*
X79249Y-22120D01*
X79249Y-19120D01*
X79226Y-19065D01*
X79184Y-19023D01*
X79129Y-19001D01*
X79070Y-19001D01*
X78370Y-19001D01*
X78315Y-19024D01*
X78273Y-19066D01*
X78251Y-19121D01*
X78251Y-19180D01*
X78251Y-22180D01*
X78274Y-22235D01*
X78316Y-22277D01*
X78371Y-22299D01*
X78430Y-22299D01*
X78515Y-22299D01*
X78515Y-67501D01*
X78370Y-67501D01*
X78315Y-67524D01*
X78273Y-67566D01*
X78251Y-67621D01*
X78251Y-67680D01*
X78251Y-67950D01*
X77999Y-67950D01*
X77999Y-67620D01*
X77976Y-67565D01*
X77934Y-67523D01*
X77879Y-67501D01*
X77820Y-67501D01*
X77735Y-67501D01*
X77735Y-22299D01*
X77880Y-22299D01*
X77935Y-22276D01*
X77977Y-22234D01*
X77999Y-22179D01*
X77999Y-22120D01*
X77999Y-19120D01*
X77976Y-19065D01*
X77934Y-19023D01*
X77879Y-19001D01*
X77820Y-19001D01*
X77120Y-19001D01*
X77065Y-19024D01*
X77023Y-19066D01*
X77001Y-19121D01*
X77001Y-19180D01*
X77001Y-22180D01*
X77024Y-22235D01*
X77066Y-22277D01*
X77121Y-22299D01*
X77180Y-22299D01*
X77265Y-22299D01*
X77265Y-67501D01*
X77120Y-67501D01*
X77065Y-67524D01*
X77023Y-67566D01*
X77001Y-67621D01*
X77001Y-67680D01*
X77001Y-67950D01*
X76749Y-67950D01*
X76749Y-67620D01*
X76726Y-67565D01*
X76684Y-67523D01*
X76629Y-67501D01*
X76570Y-67501D01*
X76485Y-67501D01*
X76485Y-22299D01*
X76630Y-22299D01*
X76685Y-22276D01*
X76727Y-22234D01*
X76749Y-22179D01*
X76749Y-22120D01*
X76749Y-19120D01*
X76726Y-19065D01*
X76684Y-19023D01*
X76629Y-19001D01*
X76570Y-19001D01*
X75870Y-19001D01*
X75815Y-19024D01*
X75773Y-19066D01*
X75751Y-19121D01*
X75751Y-19180D01*
X75751Y-22180D01*
X75774Y-22235D01*
X75816Y-22277D01*
X75871Y-22299D01*
X75930Y-22299D01*
X76015Y-22299D01*
X76015Y-67501D01*
X75870Y-67501D01*
X75815Y-67524D01*
X75773Y-67566D01*
X75751Y-67621D01*
X75751Y-67680D01*
X75751Y-67950D01*
X75499Y-67950D01*
X75499Y-67620D01*
X75476Y-67565D01*
X75434Y-67523D01*
X75379Y-67501D01*
X75320Y-67501D01*
X75235Y-67501D01*
X75235Y-22299D01*
X75380Y-22299D01*
X75435Y-22276D01*
X75477Y-22234D01*
X75499Y-22179D01*
X75499Y-22120D01*
X75499Y-19120D01*
X75476Y-19065D01*
X75434Y-19023D01*
X75379Y-19001D01*
X75320Y-19001D01*
X74620Y-19001D01*
X74565Y-19024D01*
X74523Y-19066D01*
X74501Y-19121D01*
X74501Y-19180D01*
X74501Y-22180D01*
X74524Y-22235D01*
X74566Y-22277D01*
X74621Y-22299D01*
X74680Y-22299D01*
X74765Y-22299D01*
X74765Y-67501D01*
X74620Y-67501D01*
X74565Y-67524D01*
X74523Y-67566D01*
X74501Y-67621D01*
X74501Y-67680D01*
X74501Y-67950D01*
X74249Y-67950D01*
X74249Y-67620D01*
X74226Y-67565D01*
X74184Y-67523D01*
X74129Y-67501D01*
X74070Y-67501D01*
X73985Y-67501D01*
X73985Y-22299D01*
X74130Y-22299D01*
X74185Y-22276D01*
X74227Y-22234D01*
X74249Y-22179D01*
X74249Y-22120D01*
X74249Y-19120D01*
X74226Y-19065D01*
X74184Y-19023D01*
X74129Y-19001D01*
X74070Y-19001D01*
X73370Y-19001D01*
X73315Y-19024D01*
X73273Y-19066D01*
X73251Y-19121D01*
X73251Y-19180D01*
X73251Y-22180D01*
X73274Y-22235D01*
X73316Y-22277D01*
X73371Y-22299D01*
X73430Y-22299D01*
X73515Y-22299D01*
X73515Y-67501D01*
X73370Y-67501D01*
X73315Y-67524D01*
X73273Y-67566D01*
X73251Y-67621D01*
X73251Y-67680D01*
X73251Y-67950D01*
X72999Y-67950D01*
X72999Y-67620D01*
X72976Y-67565D01*
X72934Y-67523D01*
X72879Y-67501D01*
X72820Y-67501D01*
X72735Y-67501D01*
X72735Y-22299D01*
X72880Y-22299D01*
X72935Y-22276D01*
X72977Y-22234D01*
X72999Y-22179D01*
X72999Y-22120D01*
X72999Y-19120D01*
X72976Y-19065D01*
X72934Y-19023D01*
X72879Y-19001D01*
X72820Y-19001D01*
X72120Y-19001D01*
X72065Y-19024D01*
X72023Y-19066D01*
X72001Y-19121D01*
X72001Y-19180D01*
X72001Y-22180D01*
X72024Y-22235D01*
X72066Y-22277D01*
X72121Y-22299D01*
X72180Y-22299D01*
X72265Y-22299D01*
X72265Y-67501D01*
X72120Y-67501D01*
X72065Y-67524D01*
X72023Y-67566D01*
X72001Y-67621D01*
X72001Y-67680D01*
X72001Y-67950D01*
X71749Y-67950D01*
X71749Y-67620D01*
X71726Y-67565D01*
X71684Y-67523D01*
X71629Y-67501D01*
X71570Y-67501D01*
X71485Y-67501D01*
X71485Y-22299D01*
X71630Y-22299D01*
X71685Y-22276D01*
X71727Y-22234D01*
X71749Y-22179D01*
X71749Y-22120D01*
X71749Y-19120D01*
X71726Y-19065D01*
X71684Y-19023D01*
X71629Y-19001D01*
X71570Y-19001D01*
X70870Y-19001D01*
X70815Y-19024D01*
X70773Y-19066D01*
X70751Y-19121D01*
X70751Y-19180D01*
X70751Y-22180D01*
X70774Y-22235D01*
X70816Y-22277D01*
X70871Y-22299D01*
X70930Y-22299D01*
X71015Y-22299D01*
X71015Y-67501D01*
X70870Y-67501D01*
X70815Y-67524D01*
X70773Y-67566D01*
X70751Y-67621D01*
X70751Y-67680D01*
X70751Y-67950D01*
X70499Y-67950D01*
X70499Y-67620D01*
X70476Y-67565D01*
X70434Y-67523D01*
X70379Y-67501D01*
X70320Y-67501D01*
X70235Y-67501D01*
X70235Y-22299D01*
X70380Y-22299D01*
X70435Y-22276D01*
X70477Y-22234D01*
X70499Y-22179D01*
X70499Y-22120D01*
X70499Y-19120D01*
X70476Y-19065D01*
X70434Y-19023D01*
X70379Y-19001D01*
X70320Y-19001D01*
X69620Y-19001D01*
X69565Y-19024D01*
X69523Y-19066D01*
X69501Y-19121D01*
X69501Y-19180D01*
X69501Y-22180D01*
X69524Y-22235D01*
X69566Y-22277D01*
X69621Y-22299D01*
X69680Y-22299D01*
X69765Y-22299D01*
X69765Y-67501D01*
X69620Y-67501D01*
X69565Y-67524D01*
X69523Y-67566D01*
X69501Y-67621D01*
X69501Y-67680D01*
X69501Y-67950D01*
X69249Y-67950D01*
X69249Y-67620D01*
X69226Y-67565D01*
X69184Y-67523D01*
X69129Y-67501D01*
X69070Y-67501D01*
X68985Y-67501D01*
X68985Y-22299D01*
X69130Y-22299D01*
X69185Y-22276D01*
X69227Y-22234D01*
X69249Y-22179D01*
X69249Y-22120D01*
X69249Y-19120D01*
X69226Y-19065D01*
X69184Y-19023D01*
X69129Y-19001D01*
X69070Y-19001D01*
X68370Y-19001D01*
X68315Y-19024D01*
X68273Y-19066D01*
X68251Y-19121D01*
X68251Y-19180D01*
X68251Y-22180D01*
X68274Y-22235D01*
X68316Y-22277D01*
X68371Y-22299D01*
X68430Y-22299D01*
X68515Y-22299D01*
X68515Y-67501D01*
X68370Y-67501D01*
X68315Y-67524D01*
X68273Y-67566D01*
X68251Y-67621D01*
X68251Y-67680D01*
X68251Y-67950D01*
X67999Y-67950D01*
X67999Y-67620D01*
X67976Y-67565D01*
X67934Y-67523D01*
X67879Y-67501D01*
X67820Y-67501D01*
X67735Y-67501D01*
X67735Y-22299D01*
X67880Y-22299D01*
X67935Y-22276D01*
X67977Y-22234D01*
X67999Y-22179D01*
X67999Y-22120D01*
X67999Y-19120D01*
X67976Y-19065D01*
X67934Y-19023D01*
X67879Y-19001D01*
X67820Y-19001D01*
X67120Y-19001D01*
X67065Y-19024D01*
X67023Y-19066D01*
X67001Y-19121D01*
X67001Y-19180D01*
X67001Y-22180D01*
X67024Y-22235D01*
X67066Y-22277D01*
X67121Y-22299D01*
X67180Y-22299D01*
X67265Y-22299D01*
X67265Y-67501D01*
X67120Y-67501D01*
X67065Y-67524D01*
X67023Y-67566D01*
X67001Y-67621D01*
X67001Y-67680D01*
X67001Y-67950D01*
X66749Y-67950D01*
X66749Y-67620D01*
X66726Y-67565D01*
X66684Y-67523D01*
X66629Y-67501D01*
X66570Y-67501D01*
X66485Y-67501D01*
X66485Y-22299D01*
X66630Y-22299D01*
X66685Y-22276D01*
X66727Y-22234D01*
X66749Y-22179D01*
X66749Y-22120D01*
X66749Y-19120D01*
X66726Y-19065D01*
X66684Y-19023D01*
X66629Y-19001D01*
X66570Y-19001D01*
X65870Y-19001D01*
X65815Y-19024D01*
X65773Y-19066D01*
X65751Y-19121D01*
X65751Y-19180D01*
X65751Y-22180D01*
X65774Y-22235D01*
X65816Y-22277D01*
X65871Y-22299D01*
X65930Y-22299D01*
X66015Y-22299D01*
X66015Y-67501D01*
X65870Y-67501D01*
X65815Y-67524D01*
X65773Y-67566D01*
X65751Y-67621D01*
X65751Y-67680D01*
X65751Y-67950D01*
X65499Y-67950D01*
X65499Y-67620D01*
X65476Y-67565D01*
X65434Y-67523D01*
X65379Y-67501D01*
X65320Y-67501D01*
X65235Y-67501D01*
X65235Y-22299D01*
X65380Y-22299D01*
X65435Y-22276D01*
X65477Y-22234D01*
X65499Y-22179D01*
X65499Y-22120D01*
X65499Y-19120D01*
X65476Y-19065D01*
X65434Y-19023D01*
X65379Y-19001D01*
X65320Y-19001D01*
X64620Y-19001D01*
X64565Y-19024D01*
X64523Y-19066D01*
X64501Y-19121D01*
X64501Y-19180D01*
X64501Y-22180D01*
X64524Y-22235D01*
X64566Y-22277D01*
X64621Y-22299D01*
X64680Y-22299D01*
X64765Y-22299D01*
X64765Y-67501D01*
X64620Y-67501D01*
X64565Y-67524D01*
X64523Y-67566D01*
X64501Y-67621D01*
X64501Y-67680D01*
X64501Y-67950D01*
X64249Y-67950D01*
X64249Y-67620D01*
X64226Y-67565D01*
X64184Y-67523D01*
X64129Y-67501D01*
X64070Y-67501D01*
X63985Y-67501D01*
X63985Y-22299D01*
X64130Y-22299D01*
X64185Y-22276D01*
X64227Y-22234D01*
X64249Y-22179D01*
X64249Y-22120D01*
X64249Y-19120D01*
X64226Y-19065D01*
X64184Y-19023D01*
X64129Y-19001D01*
X64070Y-19001D01*
X63370Y-19001D01*
X63315Y-19024D01*
X63273Y-19066D01*
X63251Y-19121D01*
X63251Y-19180D01*
X63251Y-22180D01*
X63274Y-22235D01*
X63316Y-22277D01*
X63371Y-22299D01*
X63430Y-22299D01*
X63515Y-22299D01*
X63515Y-67501D01*
X63370Y-67501D01*
X63315Y-67524D01*
X63273Y-67566D01*
X63251Y-67621D01*
X63251Y-67680D01*
X63251Y-67950D01*
X62999Y-67950D01*
X62999Y-67620D01*
X62976Y-67565D01*
X62934Y-67523D01*
X62879Y-67501D01*
X62820Y-67501D01*
X62735Y-67501D01*
X62735Y-22299D01*
X62880Y-22299D01*
X62935Y-22276D01*
X62977Y-22234D01*
X62999Y-22179D01*
X62999Y-22120D01*
X62999Y-19120D01*
X62976Y-19065D01*
X62934Y-19023D01*
X62879Y-19001D01*
X62820Y-19001D01*
X62120Y-19001D01*
X62065Y-19024D01*
X62023Y-19066D01*
X62001Y-19121D01*
X62001Y-19180D01*
X62001Y-22180D01*
X62024Y-22235D01*
X62066Y-22277D01*
X62121Y-22299D01*
X62180Y-22299D01*
X62265Y-22299D01*
X62265Y-67501D01*
X62120Y-67501D01*
X62065Y-67524D01*
X62023Y-67566D01*
X62001Y-67621D01*
X62001Y-67680D01*
X62001Y-67950D01*
X61749Y-67950D01*
X61749Y-67620D01*
X61726Y-67565D01*
X61684Y-67523D01*
X61629Y-67501D01*
X61570Y-67501D01*
X61485Y-67501D01*
X61485Y-22299D01*
X61630Y-22299D01*
X61685Y-22276D01*
X61727Y-22234D01*
X61749Y-22179D01*
X61749Y-22120D01*
X61749Y-19120D01*
X61726Y-19065D01*
X61684Y-19023D01*
X61629Y-19001D01*
X61570Y-19001D01*
X60870Y-19001D01*
X60815Y-19024D01*
X60773Y-19066D01*
X60751Y-19121D01*
X60751Y-19180D01*
X60751Y-22180D01*
X60774Y-22235D01*
X60816Y-22277D01*
X60871Y-22299D01*
X60930Y-22299D01*
X61015Y-22299D01*
X61015Y-67501D01*
X60870Y-67501D01*
X60815Y-67524D01*
X60773Y-67566D01*
X60751Y-67621D01*
X60751Y-67680D01*
X60751Y-67950D01*
X60499Y-67950D01*
X60499Y-67620D01*
X60476Y-67565D01*
X60434Y-67523D01*
X60379Y-67501D01*
X60320Y-67501D01*
X60235Y-67501D01*
X60235Y-22299D01*
X60380Y-22299D01*
X60435Y-22276D01*
X60477Y-22234D01*
X60499Y-22179D01*
X60499Y-22120D01*
X60499Y-19120D01*
X60476Y-19065D01*
X60434Y-19023D01*
X60379Y-19001D01*
X60320Y-19001D01*
X59620Y-19001D01*
X59565Y-19024D01*
X59523Y-19066D01*
X59501Y-19121D01*
X59501Y-19180D01*
X59501Y-22180D01*
X59524Y-22235D01*
X59566Y-22277D01*
X59621Y-22299D01*
X59680Y-22299D01*
X59765Y-22299D01*
X59765Y-67501D01*
X59620Y-67501D01*
X59565Y-67524D01*
X59523Y-67566D01*
X59501Y-67621D01*
X59501Y-67680D01*
X59501Y-67950D01*
X59249Y-67950D01*
X59249Y-67620D01*
X59226Y-67565D01*
X59184Y-67523D01*
X59129Y-67501D01*
X59070Y-67501D01*
X58985Y-67501D01*
X58985Y-22299D01*
X59130Y-22299D01*
X59185Y-22276D01*
X59227Y-22234D01*
X59249Y-22179D01*
X59249Y-22120D01*
X59249Y-19120D01*
X59226Y-19065D01*
X59184Y-19023D01*
X59129Y-19001D01*
X59070Y-19001D01*
X58370Y-19001D01*
X58315Y-19024D01*
X58273Y-19066D01*
X58251Y-19121D01*
X58251Y-19180D01*
X58251Y-22180D01*
X58274Y-22235D01*
X58316Y-22277D01*
X58371Y-22299D01*
X58430Y-22299D01*
X58515Y-22299D01*
X58515Y-67501D01*
X58370Y-67501D01*
X58315Y-67524D01*
X58273Y-67566D01*
X58251Y-67621D01*
X58251Y-67680D01*
X58251Y-67950D01*
X57999Y-67950D01*
X57999Y-67620D01*
X57976Y-67565D01*
X57934Y-67523D01*
X57879Y-67501D01*
X57820Y-67501D01*
X57735Y-67501D01*
X57735Y-22299D01*
X57880Y-22299D01*
X57935Y-22276D01*
X57977Y-22234D01*
X57999Y-22179D01*
X57999Y-22120D01*
X57999Y-19120D01*
X57976Y-19065D01*
X57934Y-19023D01*
X57879Y-19001D01*
X57820Y-19001D01*
X57120Y-19001D01*
X57065Y-19024D01*
X57023Y-19066D01*
X57001Y-19121D01*
X57001Y-19180D01*
X57001Y-22180D01*
X57024Y-22235D01*
X57066Y-22277D01*
X57121Y-22299D01*
X57180Y-22299D01*
X57265Y-22299D01*
X57265Y-67501D01*
X57120Y-67501D01*
X57065Y-67524D01*
X57023Y-67566D01*
X57001Y-67621D01*
X57001Y-67680D01*
X57001Y-67950D01*
X56749Y-67950D01*
X56749Y-67620D01*
X56726Y-67565D01*
X56684Y-67523D01*
X56629Y-67501D01*
X56570Y-67501D01*
X56485Y-67501D01*
X56485Y-22299D01*
X56630Y-22299D01*
X56685Y-22276D01*
X56727Y-22234D01*
X56749Y-22179D01*
X56749Y-22120D01*
X56749Y-19120D01*
X56726Y-19065D01*
X56684Y-19023D01*
X56629Y-19001D01*
X56570Y-19001D01*
X55870Y-19001D01*
X55815Y-19024D01*
X55773Y-19066D01*
X55751Y-19121D01*
X55751Y-19180D01*
X55751Y-22180D01*
X55774Y-22235D01*
X55816Y-22277D01*
X55871Y-22299D01*
X55930Y-22299D01*
X56015Y-22299D01*
X56015Y-67501D01*
X55870Y-67501D01*
X55815Y-67524D01*
X55773Y-67566D01*
X55751Y-67621D01*
X55751Y-67680D01*
X55751Y-67950D01*
X55499Y-67950D01*
X55499Y-67620D01*
X55476Y-67565D01*
X55434Y-67523D01*
X55379Y-67501D01*
X55320Y-67501D01*
X55235Y-67501D01*
X55235Y-22299D01*
X55380Y-22299D01*
X55435Y-22276D01*
X55477Y-22234D01*
X55499Y-22179D01*
X55499Y-22120D01*
X55499Y-19120D01*
X55476Y-19065D01*
X55434Y-19023D01*
X55379Y-19001D01*
X55320Y-19001D01*
X54620Y-19001D01*
X54565Y-19024D01*
X54523Y-19066D01*
X54501Y-19121D01*
X54501Y-19180D01*
X54501Y-22180D01*
X54524Y-22235D01*
X54566Y-22277D01*
X54621Y-22299D01*
X54680Y-22299D01*
X54765Y-22299D01*
X54765Y-67501D01*
X54620Y-67501D01*
X54565Y-67524D01*
X54523Y-67566D01*
X54501Y-67621D01*
X54501Y-67680D01*
X54501Y-67950D01*
X54249Y-67950D01*
X54249Y-67620D01*
X54226Y-67565D01*
X54184Y-67523D01*
X54129Y-67501D01*
X54070Y-67501D01*
X53985Y-67501D01*
X53985Y-22299D01*
X54130Y-22299D01*
X54185Y-22276D01*
X54227Y-22234D01*
X54249Y-22179D01*
X54249Y-22120D01*
X54249Y-19120D01*
X54226Y-19065D01*
X54184Y-19023D01*
X54129Y-19001D01*
X54070Y-19001D01*
X53370Y-19001D01*
X53315Y-19024D01*
X53273Y-19066D01*
X53251Y-19121D01*
X53251Y-19180D01*
X53251Y-22180D01*
X53274Y-22235D01*
X53316Y-22277D01*
X53371Y-22299D01*
X53430Y-22299D01*
X53515Y-22299D01*
X53515Y-67501D01*
X53370Y-67501D01*
X53315Y-67524D01*
X53273Y-67566D01*
X53251Y-67621D01*
X53251Y-67680D01*
X53251Y-67950D01*
X52999Y-67950D01*
X52999Y-67620D01*
X52976Y-67565D01*
X52934Y-67523D01*
X52879Y-67501D01*
X52820Y-67501D01*
X52735Y-67501D01*
X52735Y-22299D01*
X52880Y-22299D01*
X52935Y-22276D01*
X52977Y-22234D01*
X52999Y-22179D01*
X52999Y-22120D01*
X52999Y-19120D01*
X52976Y-19065D01*
X52934Y-19023D01*
X52879Y-19001D01*
X52820Y-19001D01*
X52120Y-19001D01*
X52065Y-19024D01*
X52023Y-19066D01*
X52001Y-19121D01*
X52001Y-19180D01*
X52001Y-22180D01*
X52024Y-22235D01*
X52066Y-22277D01*
X52121Y-22299D01*
X52180Y-22299D01*
X52265Y-22299D01*
X52265Y-67501D01*
X52120Y-67501D01*
X52065Y-67524D01*
X52023Y-67566D01*
X52001Y-67621D01*
X52001Y-67680D01*
X52001Y-67950D01*
X51749Y-67950D01*
X51749Y-67620D01*
X51726Y-67565D01*
X51684Y-67523D01*
X51629Y-67501D01*
X51570Y-67501D01*
X51485Y-67501D01*
X51485Y-22299D01*
X51630Y-22299D01*
X51685Y-22276D01*
X51727Y-22234D01*
X51749Y-22179D01*
X51749Y-22120D01*
X51749Y-19120D01*
X51726Y-19065D01*
X51684Y-19023D01*
X51629Y-19001D01*
X51570Y-19001D01*
X51543Y-19001D01*
X51777Y-18767D01*
X85526Y-18767D01*
X85470Y-18924D01*
X85482Y-19132D01*
X85540Y-19272D01*
X85632Y-19297D01*
X85894Y-19035D01*
X85929Y-19000D01*
X86000Y-18929D01*
X86071Y-19000D01*
X86106Y-19035D01*
X86368Y-19297D01*
X86460Y-19272D01*
X86530Y-19076D01*
X86518Y-18868D01*
X86476Y-18767D01*
X88026Y-18767D01*
X87970Y-18924D01*
X87982Y-19132D01*
X88040Y-19272D01*
X88132Y-19297D01*
X88394Y-19035D01*
X88429Y-19000D01*
X88500Y-18929D01*
X88571Y-19000D01*
X88606Y-19035D01*
X88868Y-19297D01*
X88960Y-19272D01*
X89030Y-19076D01*
X89018Y-18868D01*
X88976Y-18767D01*
X89434Y-18767D01*
X89558Y-18891D01*
X89551Y-18910D01*
X89551Y-19089D01*
X89619Y-19254D01*
X89745Y-19380D01*
X89910Y-19449D01*
X90089Y-19449D01*
X90254Y-19381D01*
X90380Y-19255D01*
X90388Y-19235D01*
X92611Y-19235D01*
X92619Y-19254D01*
X92745Y-19380D01*
X92910Y-19449D01*
X93089Y-19449D01*
X93254Y-19381D01*
X93380Y-19255D01*
X93449Y-19090D01*
X93449Y-18911D01*
X93381Y-18746D01*
X93255Y-18620D01*
X93090Y-18551D01*
X92911Y-18551D01*
X92746Y-18619D01*
X92620Y-18745D01*
X92611Y-18765D01*
X91925Y-18765D01*
X91925Y-15085D01*
X91925Y-14916D01*
X91861Y-14760D01*
X91741Y-14640D01*
X91585Y-14575D01*
X91416Y-14575D01*
X91260Y-14639D01*
X91140Y-14759D01*
X91075Y-14915D01*
X91075Y-15084D01*
X91139Y-15240D01*
X91259Y-15360D01*
X91415Y-15425D01*
X91584Y-15425D01*
X91740Y-15361D01*
X91860Y-15241D01*
X91925Y-15085D01*
X91925Y-18765D01*
X90388Y-18765D01*
X90381Y-18746D01*
X90255Y-18620D01*
X90090Y-18551D01*
X89911Y-18551D01*
X89891Y-18559D01*
X89698Y-18366D01*
X89622Y-18315D01*
X89532Y-18297D01*
X88925Y-18297D01*
X88925Y-15085D01*
X88925Y-14916D01*
X88861Y-14760D01*
X88741Y-14640D01*
X88585Y-14575D01*
X88416Y-14575D01*
X88260Y-14639D01*
X88140Y-14759D01*
X88075Y-14915D01*
X88075Y-15084D01*
X88139Y-15240D01*
X88259Y-15360D01*
X88415Y-15425D01*
X88584Y-15425D01*
X88740Y-15361D01*
X88860Y-15241D01*
X88925Y-15085D01*
X88925Y-18297D01*
X51680Y-18297D01*
X51590Y-18315D01*
X51514Y-18366D01*
X51084Y-18796D01*
X51033Y-18872D01*
X51015Y-18962D01*
X51015Y-19001D01*
X50870Y-19001D01*
X50815Y-19024D01*
X50773Y-19066D01*
X50751Y-19121D01*
X50751Y-19180D01*
X50751Y-22180D01*
X50774Y-22235D01*
X50816Y-22277D01*
X50871Y-22299D01*
X50930Y-22299D01*
X51015Y-22299D01*
X51015Y-67501D01*
X50870Y-67501D01*
X50815Y-67524D01*
X50773Y-67566D01*
X50751Y-67621D01*
X50751Y-67680D01*
X50751Y-67950D01*
X50499Y-67950D01*
X50499Y-67620D01*
X50476Y-67565D01*
X50434Y-67523D01*
X50379Y-67501D01*
X50320Y-67501D01*
X50235Y-67501D01*
X50235Y-22299D01*
X50380Y-22299D01*
X50435Y-22276D01*
X50477Y-22234D01*
X50499Y-22179D01*
X50499Y-22120D01*
X50499Y-19120D01*
X50476Y-19065D01*
X50434Y-19023D01*
X50379Y-19001D01*
X50320Y-19001D01*
X49620Y-19001D01*
X49565Y-19024D01*
X49523Y-19066D01*
X49501Y-19121D01*
X49501Y-19180D01*
X49501Y-22180D01*
X49524Y-22235D01*
X49566Y-22277D01*
X49621Y-22299D01*
X49680Y-22299D01*
X49765Y-22299D01*
X49765Y-67501D01*
X49620Y-67501D01*
X49565Y-67524D01*
X49523Y-67566D01*
X49501Y-67621D01*
X49501Y-67680D01*
X49501Y-67950D01*
X49249Y-67950D01*
X49249Y-67620D01*
X49226Y-67565D01*
X49184Y-67523D01*
X49129Y-67501D01*
X49070Y-67501D01*
X48985Y-67501D01*
X48985Y-22299D01*
X49130Y-22299D01*
X49185Y-22276D01*
X49227Y-22234D01*
X49249Y-22179D01*
X49249Y-22120D01*
X49249Y-19120D01*
X49226Y-19065D01*
X49184Y-19023D01*
X49129Y-19001D01*
X49070Y-19001D01*
X48370Y-19001D01*
X48315Y-19024D01*
X48273Y-19066D01*
X48251Y-19121D01*
X48251Y-19180D01*
X48251Y-22180D01*
X48274Y-22235D01*
X48316Y-22277D01*
X48371Y-22299D01*
X48430Y-22299D01*
X48515Y-22299D01*
X48515Y-67501D01*
X48370Y-67501D01*
X48315Y-67524D01*
X48273Y-67566D01*
X48251Y-67621D01*
X48251Y-67680D01*
X48251Y-67950D01*
X47999Y-67950D01*
X47999Y-67620D01*
X47976Y-67565D01*
X47934Y-67523D01*
X47879Y-67501D01*
X47820Y-67501D01*
X47735Y-67501D01*
X47735Y-22299D01*
X47880Y-22299D01*
X47935Y-22276D01*
X47977Y-22234D01*
X47999Y-22179D01*
X47999Y-22120D01*
X47999Y-19120D01*
X47976Y-19065D01*
X47934Y-19023D01*
X47879Y-19001D01*
X47820Y-19001D01*
X47120Y-19001D01*
X47065Y-19024D01*
X47023Y-19066D01*
X47001Y-19121D01*
X47001Y-19180D01*
X47001Y-22180D01*
X47024Y-22235D01*
X47066Y-22277D01*
X47121Y-22299D01*
X47180Y-22299D01*
X47265Y-22299D01*
X47265Y-67501D01*
X47120Y-67501D01*
X47065Y-67524D01*
X47023Y-67566D01*
X47001Y-67621D01*
X47001Y-67680D01*
X47001Y-67950D01*
X46749Y-67950D01*
X46749Y-67620D01*
X46726Y-67565D01*
X46684Y-67523D01*
X46629Y-67501D01*
X46570Y-67501D01*
X46485Y-67501D01*
X46485Y-22299D01*
X46630Y-22299D01*
X46685Y-22276D01*
X46727Y-22234D01*
X46749Y-22179D01*
X46749Y-22120D01*
X46749Y-19120D01*
X46726Y-19065D01*
X46684Y-19023D01*
X46629Y-19001D01*
X46570Y-19001D01*
X45870Y-19001D01*
X45815Y-19024D01*
X45773Y-19066D01*
X45751Y-19121D01*
X45751Y-19180D01*
X45751Y-22180D01*
X45774Y-22235D01*
X45816Y-22277D01*
X45871Y-22299D01*
X45930Y-22299D01*
X46015Y-22299D01*
X46015Y-67501D01*
X45870Y-67501D01*
X45815Y-67524D01*
X45773Y-67566D01*
X45751Y-67621D01*
X45751Y-67680D01*
X45751Y-67950D01*
X45499Y-67950D01*
X45499Y-67620D01*
X45476Y-67565D01*
X45434Y-67523D01*
X45405Y-67511D01*
X45405Y-22288D01*
X45435Y-22276D01*
X45477Y-22234D01*
X45499Y-22179D01*
X45499Y-22120D01*
X45499Y-19120D01*
X45476Y-19065D01*
X45434Y-19023D01*
X45379Y-19001D01*
X45320Y-19001D01*
X44620Y-19001D01*
X44565Y-19024D01*
X44523Y-19066D01*
X44501Y-19121D01*
X44501Y-19180D01*
X44501Y-22180D01*
X44524Y-22235D01*
X44566Y-22277D01*
X44595Y-22288D01*
X44595Y-67511D01*
X44565Y-67524D01*
X44523Y-67566D01*
X44501Y-67621D01*
X44501Y-67680D01*
X44501Y-67950D01*
X44249Y-67950D01*
X44249Y-67620D01*
X44226Y-67565D01*
X44184Y-67523D01*
X44129Y-67501D01*
X44070Y-67501D01*
X43985Y-67501D01*
X43985Y-22299D01*
X44130Y-22299D01*
X44185Y-22276D01*
X44227Y-22234D01*
X44249Y-22179D01*
X44249Y-22120D01*
X44249Y-19120D01*
X44226Y-19065D01*
X44184Y-19023D01*
X44129Y-19001D01*
X44070Y-19001D01*
X43370Y-19001D01*
X43315Y-19024D01*
X43273Y-19066D01*
X43251Y-19121D01*
X43251Y-19180D01*
X43251Y-22180D01*
X43274Y-22235D01*
X43316Y-22277D01*
X43371Y-22299D01*
X43430Y-22299D01*
X43515Y-22299D01*
X43515Y-67501D01*
X43370Y-67501D01*
X43315Y-67524D01*
X43273Y-67566D01*
X43251Y-67621D01*
X43251Y-67680D01*
X43251Y-67950D01*
X42999Y-67950D01*
X42999Y-67620D01*
X42976Y-67565D01*
X42934Y-67523D01*
X42879Y-67501D01*
X42820Y-67501D01*
X42735Y-67501D01*
X42735Y-22299D01*
X42880Y-22299D01*
X42935Y-22276D01*
X42977Y-22234D01*
X42999Y-22179D01*
X42999Y-22120D01*
X42999Y-19120D01*
X42976Y-19065D01*
X42934Y-19023D01*
X42879Y-19001D01*
X42820Y-19001D01*
X42120Y-19001D01*
X42065Y-19024D01*
X42023Y-19066D01*
X42001Y-19121D01*
X42001Y-19180D01*
X42001Y-22180D01*
X42024Y-22235D01*
X42066Y-22277D01*
X42121Y-22299D01*
X42180Y-22299D01*
X42265Y-22299D01*
X42265Y-67501D01*
X42120Y-67501D01*
X42065Y-67524D01*
X42023Y-67566D01*
X42001Y-67621D01*
X42001Y-67680D01*
X42001Y-67950D01*
X41749Y-67950D01*
X41749Y-67620D01*
X41726Y-67565D01*
X41684Y-67523D01*
X41629Y-67501D01*
X41570Y-67501D01*
X41485Y-67501D01*
X41485Y-22299D01*
X41630Y-22299D01*
X41685Y-22276D01*
X41727Y-22234D01*
X41749Y-22179D01*
X41749Y-22120D01*
X41749Y-19120D01*
X41726Y-19065D01*
X41684Y-19023D01*
X41629Y-19001D01*
X41570Y-19001D01*
X40870Y-19001D01*
X40815Y-19024D01*
X40773Y-19066D01*
X40751Y-19121D01*
X40751Y-19180D01*
X40751Y-22180D01*
X40774Y-22235D01*
X40816Y-22277D01*
X40871Y-22299D01*
X40930Y-22299D01*
X41015Y-22299D01*
X41015Y-67501D01*
X40870Y-67501D01*
X40815Y-67524D01*
X40773Y-67566D01*
X40751Y-67621D01*
X40751Y-67680D01*
X40751Y-67950D01*
X40499Y-67950D01*
X40499Y-67620D01*
X40476Y-67565D01*
X40434Y-67523D01*
X40379Y-67501D01*
X40320Y-67501D01*
X40235Y-67501D01*
X40235Y-22299D01*
X40380Y-22299D01*
X40435Y-22276D01*
X40477Y-22234D01*
X40499Y-22179D01*
X40499Y-22120D01*
X40499Y-19120D01*
X40476Y-19065D01*
X40434Y-19023D01*
X40379Y-19001D01*
X40320Y-19001D01*
X39620Y-19001D01*
X39565Y-19024D01*
X39523Y-19066D01*
X39501Y-19121D01*
X39501Y-19180D01*
X39501Y-22180D01*
X39524Y-22235D01*
X39566Y-22277D01*
X39621Y-22299D01*
X39680Y-22299D01*
X39765Y-22299D01*
X39765Y-67501D01*
X39620Y-67501D01*
X39565Y-67524D01*
X39523Y-67566D01*
X39501Y-67621D01*
X39501Y-67680D01*
X39501Y-67950D01*
X39249Y-67950D01*
X39249Y-67620D01*
X39226Y-67565D01*
X39184Y-67523D01*
X39129Y-67501D01*
X39070Y-67501D01*
X38985Y-67501D01*
X38985Y-22299D01*
X39130Y-22299D01*
X39185Y-22276D01*
X39227Y-22234D01*
X39249Y-22179D01*
X39249Y-22120D01*
X39249Y-19120D01*
X39226Y-19065D01*
X39184Y-19023D01*
X39129Y-19001D01*
X39070Y-19001D01*
X38370Y-19001D01*
X38315Y-19024D01*
X38273Y-19066D01*
X38251Y-19121D01*
X38251Y-19180D01*
X38251Y-22180D01*
X38274Y-22235D01*
X38316Y-22277D01*
X38371Y-22299D01*
X38430Y-22299D01*
X38515Y-22299D01*
X38515Y-67501D01*
X38370Y-67501D01*
X38315Y-67524D01*
X38273Y-67566D01*
X38251Y-67621D01*
X38251Y-67680D01*
X38251Y-67950D01*
X37999Y-67950D01*
X37999Y-67620D01*
X37976Y-67565D01*
X37934Y-67523D01*
X37879Y-67501D01*
X37820Y-67501D01*
X37735Y-67501D01*
X37735Y-22299D01*
X37880Y-22299D01*
X37935Y-22276D01*
X37977Y-22234D01*
X37999Y-22179D01*
X37999Y-22120D01*
X37999Y-19120D01*
X37976Y-19065D01*
X37934Y-19023D01*
X37879Y-19001D01*
X37820Y-19001D01*
X37120Y-19001D01*
X37065Y-19024D01*
X37023Y-19066D01*
X37001Y-19121D01*
X37001Y-19180D01*
X37001Y-22180D01*
X37024Y-22235D01*
X37066Y-22277D01*
X37121Y-22299D01*
X37180Y-22299D01*
X37265Y-22299D01*
X37265Y-67501D01*
X37120Y-67501D01*
X37065Y-67524D01*
X37023Y-67566D01*
X37001Y-67621D01*
X37001Y-67680D01*
X37001Y-67950D01*
X36749Y-67950D01*
X36749Y-67620D01*
X36726Y-67565D01*
X36684Y-67523D01*
X36629Y-67501D01*
X36570Y-67501D01*
X36485Y-67501D01*
X36485Y-22299D01*
X36630Y-22299D01*
X36685Y-22276D01*
X36727Y-22234D01*
X36749Y-22179D01*
X36749Y-22120D01*
X36749Y-19120D01*
X36726Y-19065D01*
X36684Y-19023D01*
X36629Y-19001D01*
X36570Y-19001D01*
X35870Y-19001D01*
X35815Y-19024D01*
X35773Y-19066D01*
X35751Y-19121D01*
X35751Y-19180D01*
X35751Y-22180D01*
X35774Y-22235D01*
X35816Y-22277D01*
X35871Y-22299D01*
X35930Y-22299D01*
X36015Y-22299D01*
X36015Y-67501D01*
X35870Y-67501D01*
X35815Y-67524D01*
X35773Y-67566D01*
X35751Y-67621D01*
X35751Y-67680D01*
X35751Y-67950D01*
X35499Y-67950D01*
X35499Y-67620D01*
X35476Y-67565D01*
X35434Y-67523D01*
X35379Y-67501D01*
X35320Y-67501D01*
X35235Y-67501D01*
X35235Y-22299D01*
X35380Y-22299D01*
X35435Y-22276D01*
X35477Y-22234D01*
X35499Y-22179D01*
X35499Y-22120D01*
X35499Y-19120D01*
X35476Y-19065D01*
X35434Y-19023D01*
X35379Y-19001D01*
X35320Y-19001D01*
X34620Y-19001D01*
X34565Y-19024D01*
X34523Y-19066D01*
X34501Y-19121D01*
X34501Y-19180D01*
X34501Y-22180D01*
X34524Y-22235D01*
X34566Y-22277D01*
X34621Y-22299D01*
X34680Y-22299D01*
X34765Y-22299D01*
X34765Y-67501D01*
X34620Y-67501D01*
X34565Y-67524D01*
X34523Y-67566D01*
X34501Y-67621D01*
X34501Y-67680D01*
X34501Y-67950D01*
X34249Y-67950D01*
X34249Y-67620D01*
X34226Y-67565D01*
X34184Y-67523D01*
X34129Y-67501D01*
X34070Y-67501D01*
X33985Y-67501D01*
X33985Y-22299D01*
X34130Y-22299D01*
X34185Y-22276D01*
X34227Y-22234D01*
X34249Y-22179D01*
X34249Y-22120D01*
X34249Y-19120D01*
X34226Y-19065D01*
X34184Y-19023D01*
X34129Y-19001D01*
X34070Y-19001D01*
X33370Y-19001D01*
X33315Y-19024D01*
X33273Y-19066D01*
X33251Y-19121D01*
X33251Y-19180D01*
X33251Y-22180D01*
X33274Y-22235D01*
X33316Y-22277D01*
X33371Y-22299D01*
X33430Y-22299D01*
X33515Y-22299D01*
X33515Y-67501D01*
X33370Y-67501D01*
X33315Y-67524D01*
X33273Y-67566D01*
X33251Y-67621D01*
X33251Y-67680D01*
X33251Y-67950D01*
X32999Y-67950D01*
X32999Y-67620D01*
X32976Y-67565D01*
X32934Y-67523D01*
X32879Y-67501D01*
X32820Y-67501D01*
X32735Y-67501D01*
X32735Y-22299D01*
X32880Y-22299D01*
X32935Y-22276D01*
X32977Y-22234D01*
X32999Y-22179D01*
X32999Y-22120D01*
X32999Y-19120D01*
X32976Y-19065D01*
X32934Y-19023D01*
X32879Y-19001D01*
X32820Y-19001D01*
X32120Y-19001D01*
X32065Y-19024D01*
X32023Y-19066D01*
X32001Y-19121D01*
X32001Y-19180D01*
X32001Y-22180D01*
X32024Y-22235D01*
X32066Y-22277D01*
X32121Y-22299D01*
X32180Y-22299D01*
X32265Y-22299D01*
X32265Y-67501D01*
X32120Y-67501D01*
X32065Y-67524D01*
X32023Y-67566D01*
X32001Y-67621D01*
X32001Y-67680D01*
X32001Y-67950D01*
X31749Y-67950D01*
X31749Y-67620D01*
X31726Y-67565D01*
X31684Y-67523D01*
X31629Y-67501D01*
X31570Y-67501D01*
X31485Y-67501D01*
X31485Y-22299D01*
X31630Y-22299D01*
X31685Y-22276D01*
X31727Y-22234D01*
X31749Y-22179D01*
X31749Y-22120D01*
X31749Y-19120D01*
X31726Y-19065D01*
X31684Y-19023D01*
X31629Y-19001D01*
X31570Y-19001D01*
X30870Y-19001D01*
X30815Y-19024D01*
X30773Y-19066D01*
X30751Y-19121D01*
X30751Y-19180D01*
X30751Y-22180D01*
X30774Y-22235D01*
X30816Y-22277D01*
X30871Y-22299D01*
X30930Y-22299D01*
X31015Y-22299D01*
X31015Y-67501D01*
X30870Y-67501D01*
X30815Y-67524D01*
X30773Y-67566D01*
X30751Y-67621D01*
X30751Y-67680D01*
X30751Y-67950D01*
X30499Y-67950D01*
X30499Y-67620D01*
X30476Y-67565D01*
X30434Y-67523D01*
X30379Y-67501D01*
X30320Y-67501D01*
X30235Y-67501D01*
X30235Y-22299D01*
X30380Y-22299D01*
X30435Y-22276D01*
X30477Y-22234D01*
X30499Y-22179D01*
X30499Y-22120D01*
X30499Y-19120D01*
X30476Y-19065D01*
X30434Y-19023D01*
X30379Y-19001D01*
X30320Y-19001D01*
X29620Y-19001D01*
X29565Y-19024D01*
X29523Y-19066D01*
X29501Y-19121D01*
X29501Y-19180D01*
X29501Y-22180D01*
X29524Y-22235D01*
X29566Y-22277D01*
X29621Y-22299D01*
X29680Y-22299D01*
X29765Y-22299D01*
X29765Y-67501D01*
X29620Y-67501D01*
X29565Y-67524D01*
X29523Y-67566D01*
X29501Y-67621D01*
X29501Y-67680D01*
X29501Y-67950D01*
X29249Y-67950D01*
X29249Y-67620D01*
X29226Y-67565D01*
X29184Y-67523D01*
X29129Y-67501D01*
X29070Y-67501D01*
X28985Y-67501D01*
X28985Y-22299D01*
X29130Y-22299D01*
X29185Y-22276D01*
X29227Y-22234D01*
X29249Y-22179D01*
X29249Y-22120D01*
X29249Y-19120D01*
X29226Y-19065D01*
X29184Y-19023D01*
X29129Y-19001D01*
X29070Y-19001D01*
X28370Y-19001D01*
X28315Y-19024D01*
X28273Y-19066D01*
X28251Y-19121D01*
X28251Y-19180D01*
X28251Y-22180D01*
X28274Y-22235D01*
X28316Y-22277D01*
X28371Y-22299D01*
X28430Y-22299D01*
X28515Y-22299D01*
X28515Y-67501D01*
X28370Y-67501D01*
X28315Y-67524D01*
X28273Y-67566D01*
X28251Y-67621D01*
X28251Y-67680D01*
X28251Y-67950D01*
X27999Y-67950D01*
X27999Y-67620D01*
X27976Y-67565D01*
X27934Y-67523D01*
X27879Y-67501D01*
X27820Y-67501D01*
X27735Y-67501D01*
X27735Y-22299D01*
X27880Y-22299D01*
X27935Y-22276D01*
X27977Y-22234D01*
X27999Y-22179D01*
X27999Y-22120D01*
X27999Y-19120D01*
X27976Y-19065D01*
X27934Y-19023D01*
X27879Y-19001D01*
X27820Y-19001D01*
X27120Y-19001D01*
X27065Y-19024D01*
X27023Y-19066D01*
X27001Y-19121D01*
X27001Y-19180D01*
X27001Y-22180D01*
X27024Y-22235D01*
X27066Y-22277D01*
X27121Y-22299D01*
X27180Y-22299D01*
X27265Y-22299D01*
X27265Y-67501D01*
X27120Y-67501D01*
X27065Y-67524D01*
X27023Y-67566D01*
X27001Y-67621D01*
X27001Y-67680D01*
X27001Y-67950D01*
X26749Y-67950D01*
X26749Y-67620D01*
X26726Y-67565D01*
X26684Y-67523D01*
X26629Y-67501D01*
X26570Y-67501D01*
X26485Y-67501D01*
X26485Y-22299D01*
X26630Y-22299D01*
X26685Y-22276D01*
X26727Y-22234D01*
X26749Y-22179D01*
X26749Y-22120D01*
X26749Y-19120D01*
X26726Y-19065D01*
X26684Y-19023D01*
X26629Y-19001D01*
X26570Y-19001D01*
X25870Y-19001D01*
X25815Y-19024D01*
X25773Y-19066D01*
X25751Y-19121D01*
X25751Y-19180D01*
X25751Y-22180D01*
X25774Y-22235D01*
X25816Y-22277D01*
X25871Y-22299D01*
X25930Y-22299D01*
X26015Y-22299D01*
X26015Y-67501D01*
X25870Y-67501D01*
X25815Y-67524D01*
X25773Y-67566D01*
X25751Y-67621D01*
X25751Y-67680D01*
X25751Y-67950D01*
X25499Y-67950D01*
X25499Y-67620D01*
X25476Y-67565D01*
X25434Y-67523D01*
X25379Y-67501D01*
X25320Y-67501D01*
X25235Y-67501D01*
X25235Y-22299D01*
X25380Y-22299D01*
X25435Y-22276D01*
X25477Y-22234D01*
X25499Y-22179D01*
X25499Y-22120D01*
X25499Y-19120D01*
X25476Y-19065D01*
X25434Y-19023D01*
X25379Y-19001D01*
X25320Y-19001D01*
X24620Y-19001D01*
X24565Y-19024D01*
X24523Y-19066D01*
X24501Y-19121D01*
X24501Y-19180D01*
X24501Y-22180D01*
X24524Y-22235D01*
X24566Y-22277D01*
X24621Y-22299D01*
X24680Y-22299D01*
X24765Y-22299D01*
X24765Y-67501D01*
X24620Y-67501D01*
X24565Y-67524D01*
X24523Y-67566D01*
X24501Y-67621D01*
X24501Y-67680D01*
X24501Y-67950D01*
X24249Y-67950D01*
X24249Y-67620D01*
X24226Y-67565D01*
X24184Y-67523D01*
X24155Y-67511D01*
X24155Y-22288D01*
X24185Y-22276D01*
X24227Y-22234D01*
X24249Y-22179D01*
X24249Y-22120D01*
X24249Y-19120D01*
X24226Y-19065D01*
X24184Y-19023D01*
X24129Y-19001D01*
X24070Y-19001D01*
X23370Y-19001D01*
X23315Y-19024D01*
X23273Y-19066D01*
X23251Y-19121D01*
X23251Y-19180D01*
X23251Y-22180D01*
X23274Y-22235D01*
X23316Y-22277D01*
X23345Y-22288D01*
X23345Y-67511D01*
X23315Y-67524D01*
X23273Y-67566D01*
X23251Y-67621D01*
X23251Y-67680D01*
X23251Y-67950D01*
X22999Y-67950D01*
X22999Y-67620D01*
X22976Y-67565D01*
X22934Y-67523D01*
X22905Y-67511D01*
X22905Y-50695D01*
X22949Y-50590D01*
X22949Y-50411D01*
X22881Y-50246D01*
X22755Y-50120D01*
X22590Y-50051D01*
X22411Y-50051D01*
X22246Y-50119D01*
X22120Y-50245D01*
X22051Y-50410D01*
X22051Y-50589D01*
X22095Y-50695D01*
X22095Y-67511D01*
X22065Y-67524D01*
X22023Y-67566D01*
X22001Y-67621D01*
X22001Y-67680D01*
X22001Y-67950D01*
X21749Y-67950D01*
X21749Y-67620D01*
X21726Y-67565D01*
X21684Y-67523D01*
X21629Y-67501D01*
X21570Y-67501D01*
X21455Y-67501D01*
X21455Y-66748D01*
X21424Y-66593D01*
X21336Y-66462D01*
X20072Y-65198D01*
X21405Y-63866D01*
X21405Y-63865D01*
X21493Y-63734D01*
X21523Y-63579D01*
X21524Y-63579D01*
X21524Y-52043D01*
X21493Y-51888D01*
X21449Y-51822D01*
X21449Y-50590D01*
X21449Y-50411D01*
X21381Y-50246D01*
X21255Y-50120D01*
X21090Y-50051D01*
X20911Y-50051D01*
X20746Y-50119D01*
X20620Y-50245D01*
X20551Y-50410D01*
X20551Y-50589D01*
X20619Y-50754D01*
X20745Y-50880D01*
X20910Y-50949D01*
X21089Y-50949D01*
X21254Y-50881D01*
X21380Y-50755D01*
X21449Y-50590D01*
X21449Y-51822D01*
X21405Y-51757D01*
X19862Y-50214D01*
X19822Y-50187D01*
X19755Y-50120D01*
X19590Y-50051D01*
X19411Y-50051D01*
X19246Y-50119D01*
X19120Y-50245D01*
X19051Y-50410D01*
X19051Y-50589D01*
X19119Y-50754D01*
X19245Y-50880D01*
X19410Y-50949D01*
X19453Y-50949D01*
X20714Y-52210D01*
X20714Y-52650D01*
X20696Y-52624D01*
X20696Y-52623D01*
X16997Y-48925D01*
X17084Y-48925D01*
X17240Y-48861D01*
X17360Y-48741D01*
X17425Y-48585D01*
X17425Y-48416D01*
X17361Y-48260D01*
X17241Y-48140D01*
X17145Y-48100D01*
X20305Y-48100D01*
X20305Y-48099D01*
X20460Y-48069D01*
X20591Y-47981D01*
X22648Y-45924D01*
X22754Y-45881D01*
X22880Y-45755D01*
X22949Y-45590D01*
X22949Y-45411D01*
X22905Y-45304D01*
X22905Y-22288D01*
X22935Y-22276D01*
X22977Y-22234D01*
X22999Y-22179D01*
X22999Y-22120D01*
X22999Y-19120D01*
X22976Y-19065D01*
X22934Y-19023D01*
X22879Y-19001D01*
X22820Y-19001D01*
X22120Y-19001D01*
X22065Y-19024D01*
X22024Y-19065D01*
X22024Y-19009D01*
X22006Y-18919D01*
X21955Y-18843D01*
X21701Y-18589D01*
X21625Y-18538D01*
X21535Y-18520D01*
X17308Y-18520D01*
X15985Y-17197D01*
X15985Y-16174D01*
X16055Y-16174D01*
X16110Y-16151D01*
X16152Y-16109D01*
X16174Y-16054D01*
X16174Y-15995D01*
X16174Y-15445D01*
X16151Y-15390D01*
X16109Y-15348D01*
X16054Y-15326D01*
X15995Y-15326D01*
X15445Y-15326D01*
X15390Y-15349D01*
X15348Y-15391D01*
X15326Y-15446D01*
X15326Y-15505D01*
X15326Y-16055D01*
X15349Y-16110D01*
X15391Y-16152D01*
X15446Y-16174D01*
X15505Y-16174D01*
X15515Y-16174D01*
X15515Y-17294D01*
X15533Y-17384D01*
X15584Y-17460D01*
X17045Y-18921D01*
X17121Y-18972D01*
X17211Y-18990D01*
X21438Y-18990D01*
X21449Y-19001D01*
X20470Y-19001D01*
X20415Y-19024D01*
X20373Y-19066D01*
X20351Y-19121D01*
X20351Y-19180D01*
X20351Y-21425D01*
X10537Y-21425D01*
X10382Y-21456D01*
X10250Y-21544D01*
X9735Y-22059D01*
X9735Y-21686D01*
X11186Y-20235D01*
X17069Y-20235D01*
X17194Y-20537D01*
X17461Y-20805D01*
X17810Y-20950D01*
X18188Y-20950D01*
X18537Y-20806D01*
X18805Y-20539D01*
X18950Y-20190D01*
X18950Y-19812D01*
X18806Y-19463D01*
X18539Y-19195D01*
X18190Y-19050D01*
X17812Y-19050D01*
X17463Y-19194D01*
X17195Y-19461D01*
X17068Y-19765D01*
X15175Y-19765D01*
X15175Y-15835D01*
X15175Y-15666D01*
X15111Y-15510D01*
X14991Y-15390D01*
X14835Y-15325D01*
X14666Y-15325D01*
X14510Y-15389D01*
X14390Y-15509D01*
X14325Y-15665D01*
X14325Y-15834D01*
X14389Y-15990D01*
X14509Y-16110D01*
X14665Y-16175D01*
X14834Y-16175D01*
X14990Y-16111D01*
X15110Y-15991D01*
X15175Y-15835D01*
X15175Y-19765D01*
X11089Y-19765D01*
X10999Y-19783D01*
X10923Y-19834D01*
X9334Y-21423D01*
X9283Y-21499D01*
X9265Y-21589D01*
X9265Y-33386D01*
X9260Y-33389D01*
X9251Y-33398D01*
X9251Y-19081D01*
X12160Y-16172D01*
X12165Y-16175D01*
X12334Y-16175D01*
X12490Y-16111D01*
X12610Y-15991D01*
X12636Y-15926D01*
X12697Y-15967D01*
X12787Y-15985D01*
X12826Y-15985D01*
X12826Y-16055D01*
X12849Y-16110D01*
X12891Y-16152D01*
X12946Y-16174D01*
X13005Y-16174D01*
X13555Y-16174D01*
X13610Y-16151D01*
X13652Y-16109D01*
X13674Y-16054D01*
X13674Y-15995D01*
X13674Y-15445D01*
X13651Y-15390D01*
X13609Y-15348D01*
X13554Y-15326D01*
X13495Y-15326D01*
X13020Y-15326D01*
X13004Y-15245D01*
X12973Y-15198D01*
X12953Y-15169D01*
X12953Y-15168D01*
X12905Y-15121D01*
X12829Y-15070D01*
X12739Y-15052D01*
X7833Y-15052D01*
X7743Y-15070D01*
X7666Y-15121D01*
X7620Y-15168D01*
X7569Y-15244D01*
X7551Y-15334D01*
X7551Y-15450D01*
X7491Y-15390D01*
X7335Y-15325D01*
X7166Y-15325D01*
X7010Y-15389D01*
X6890Y-15509D01*
X6825Y-15665D01*
X6825Y-15834D01*
X6889Y-15990D01*
X7009Y-16110D01*
X7165Y-16175D01*
X7282Y-16175D01*
X5247Y-18211D01*
X5225Y-18243D01*
X5225Y-13225D01*
X17275Y-13225D01*
X17275Y-18000D01*
X17292Y-18086D01*
X17341Y-18159D01*
X17414Y-18208D01*
X17500Y-18225D01*
X85500Y-18225D01*
X86250Y-18225D01*
X86336Y-18208D01*
X86409Y-18159D01*
X86458Y-18086D01*
X86475Y-18000D01*
X86475Y-13225D01*
X104775Y-13225D01*
X104775Y-20500D01*
X104775Y-67775D01*
M02*
