M48
; DRILL file {KiCad 7.0.9} date Wed Apr  3 04:21:11 2024
; FORMAT={-:-/ absolute / inch / decimal}
; #@! TF.CreationDate,2024-04-03T04:21:11-05:00
; #@! TF.GenerationSoftware,Kicad,Pcbnew,7.0.9
; #@! TF.FileFunction,MixedPlating,1,2
FMAT,2
INCH
; #@! TA.AperFunction,Plated,PTH,ViaDrill
T1C0.0118
; #@! TA.AperFunction,Plated,PTH,ViaDrill
T2C0.0157
; #@! TA.AperFunction,Plated,PTH,ComponentDrill
T3C0.0276
; #@! TA.AperFunction,Plated,PTH,ComponentDrill
T4C0.0315
; #@! TA.AperFunction,Plated,PTH,ComponentDrill
T5C0.0354
; #@! TA.AperFunction,Plated,PTH,ComponentDrill
T6C0.0360
; #@! TA.AperFunction,Plated,PTH,ComponentDrill
T7C0.0394
; #@! TA.AperFunction,Plated,PTH,ComponentDrill
T8C0.0400
; #@! TA.AperFunction,Plated,PTH,ComponentDrill
T9C0.0402
; #@! TA.AperFunction,Plated,PTH,ComponentDrill
T10C0.0433
; #@! TA.AperFunction,Plated,PTH,ComponentDrill
T11C0.0709
; #@! TA.AperFunction,NonPlated,NPTH,ComponentDrill
T12C0.0591
; #@! TA.AperFunction,NonPlated,NPTH,ComponentDrill
T13C0.0709
%
G90
G05
T1
X4.7362Y-4.3829
X4.8061Y-4.3317
X5.09Y-3.615
X5.095Y-4.3209
X9.126Y-5.9293
X9.5374Y-5.9258
X9.9951Y-5.9258
T2
X1.155Y-2.085
X1.19Y-2.085
X1.23Y-2.085
X1.275Y-2.085
X1.315Y-2.085
X1.345Y-1.535
X1.365Y-2.085
X1.385Y-1.565
X1.4Y-1.505
X1.48Y-1.97
X1.495Y-2.93
X1.495Y-4.065
X1.61Y-1.98
X1.62Y-2.065
X1.645Y-2.215
X1.72Y-3.835
X1.755Y-3.705
X1.79Y-2.15
X1.79Y-2.855
X1.79Y-3.225
X1.795Y-4.51
X1.8Y-3.075
X1.805Y-3.42
X1.805Y-4.275
X1.815Y-3.355
X1.83Y-3.655
X1.84Y-3.91
X1.84Y-4.735
X1.85Y-2.975
X1.875Y-2.65
X1.88Y-2.365
X1.905Y-4.225
X1.915Y-2.4
X1.92Y-4.005
X1.94Y-4.045
X1.945Y-3.92
X1.945Y-4.175
X1.96Y-3.61
X1.965Y-2.125
X1.97Y-4.39
X1.975Y-2.895
X1.985Y-3.865
X1.995Y-2.775
X1.995Y-3.205
X2.005Y-4.345
X2.015Y-3.15
X2.02Y-3.46
X2.025Y-2.65
X2.025Y-3.32
X2.025Y-3.405
X2.025Y-3.895
X2.035Y-3.105
X2.05Y-3.555
X2.05Y-3.74
X2.05Y-3.8
X2.055Y-1.985
X2.055Y-2.575
X2.055Y-3.055
X2.07Y-4.97
X2.08Y-3.985
X2.08Y-4.255
X2.08Y-4.505
X2.085Y-2.525
X2.085Y-3.005
X2.085Y-3.455
X2.11Y-3.955
X2.115Y-2.33
X2.115Y-2.955
X2.115Y-3.255
X2.15Y-1.36
X2.15Y-4.42
X2.175Y-2.705
X2.1788Y-2.805
X2.185Y-4.94
X2.19Y-2.26
X2.2093Y-2.7474
X2.235Y-5.205
X2.25Y-1.32
X2.26Y-2.9
X2.265Y-4.255
X2.33Y-1.965
X2.33Y-2.35
X2.345Y-1.365
X2.385Y-1.935
X2.435Y-4.545
X2.49Y-4.235
X2.505Y-1.935
X2.505Y-2.075
X2.555Y-2.045
X2.6Y-1.515
X2.65Y-2.54
X2.65Y-2.66
X2.69Y-2.635
X2.7Y-1.56
X2.755Y-1.925
X2.795Y-2.55
X2.84Y-2.49
X2.845Y-2.075
X2.855Y-1.96
X2.855Y-2.45
X2.905Y-2.045
X2.915Y-2.655
X2.955Y-2.04
X3.01Y-2.71
X3.055Y-2.04
X3.055Y-2.1
X3.055Y-2.82
X3.06Y-2.745
X3.075Y-2.86
X3.095Y-1.615
X3.135Y-3.66
X3.26Y-2.695
X3.35Y-3.66
X3.39Y-2.26
X3.405Y-2.07
X3.425Y-2.205
X3.46Y-3.915
X3.47Y-3.97
X3.475Y-4.305
X3.505Y-2.04
X3.585Y-3.865
X3.6Y-2.01
X3.635Y-4.44
X3.7Y-1.92
X3.72Y-3.835
X3.735Y-4.445
X3.745Y-3.8
X3.78Y-3.305
X3.8Y-1.98
X3.835Y-2.55
X3.835Y-4.705
X3.885Y-3.7468
X3.92Y-1.935
X3.92Y-2.71
X3.95Y-3.73
X4.025Y-3.7113
X4.025Y-4.285
X4.035Y-2.86
X4.04Y-2.705
X4.105Y-3.69
X4.155Y-2.95
X4.195Y-3.85
X4.205Y-1.995
X4.21Y-3.66
X4.29Y-2.04
X4.4Y-3.435
X4.435Y-3.64
X4.47Y-3.595
X4.515Y-3.355
X4.56Y-3.85
X4.585Y-3.57
X4.65Y-3.195
X4.72Y-2.16
X4.72Y-3.54
X4.78Y-2.06
X4.795Y-2.82
X4.84Y-2.82
X4.84Y-2.965
X4.87Y-3.435
X4.8779Y-4.2629
X4.895Y-4.045
X4.936Y-4.2707
X4.94Y-4.045
X4.95Y-3.395
X4.965Y-3.435
X4.98Y-3.355
X4.985Y-3.6
X5.03Y-2.235
X5.08Y-3.26
X5.085Y-2.23
X5.12Y-2.985
X5.12Y-4.645
X5.145Y-2.165
X5.18Y-2.105
X5.21Y-3.195
X5.245Y-3.155
X5.245Y-3.54
X5.28Y-5.495
X5.285Y-2.135
X5.315Y-2.25
X5.335Y-3.575
X5.355Y-3.135
X5.39Y-2.115
X5.41Y-5.47
X5.415Y-2.225
X5.46Y-3.18
X5.49Y-3.02
X5.565Y-3.18
X5.575Y-4.005
X5.62Y-2.48
X5.645Y-3.99
X5.685Y-4.235
X5.705Y-1.955
X5.755Y-3.04
X5.81Y-3.02
X5.85Y-2.99
X5.9Y-2.04
X5.94Y-3.26
X5.955Y-3.005
X5.995Y-3.035
X6.01Y-2.14
X6.06Y-2.985
X6.1Y-2.48
X6.1Y-3.055
X6.14Y-3.905
X6.15Y-2.82
X6.155Y-5.47
X6.17Y-3.875
X6.265Y-2.955
X6.275Y-3.895
X6.275Y-5.215
X6.315Y-5.25
X6.345Y-2.92
X6.415Y-5.14
X6.535Y-5.145
X6.6Y-2.605
X6.66Y-5.145
X6.755Y-2.685
X6.785Y-5.135
X6.815Y-3.31
X6.85Y-4.01
X6.89Y-2.33
X6.9Y-3.82
X6.91Y-5.135
X6.955Y-2.685
X7.02Y-5.145
X7.025Y-3.015
X7.06Y-4.06
X7.065Y-5.145
X7.115Y-2.975
X7.15Y-5.135
X7.155Y-3.14
X7.185Y-2.955
X7.185Y-4.145
X7.185Y-4.735
X7.245Y-2.705
X7.245Y-4.2
X7.255Y-2.055
X7.28Y-3.105
X7.285Y-5.13
X7.305Y-2.685
X7.315Y-4.235
X7.345Y-2.745
X7.4Y-3.18
X7.405Y-3.04
X7.41Y-5.14
X7.455Y-2.745
X7.495Y-5.135
X7.525Y-3.2
X7.53Y-3.07
X7.555Y-3.025
X7.59Y-5.005
X7.63Y-4.89
X7.655Y-2.745
X7.68Y-4.88
X7.745Y-2.145
X7.765Y-4.885
X7.775Y-2.92
X7.81Y-4.885
X7.9Y-3.795
X7.905Y-4.875
X7.945Y-2.305
X8.03Y-3.765
X8.04Y-4.87
X8.055Y-2.33
X8.15Y-4.88
X8.155Y-2.955
X8.155Y-3.735
X8.26Y-2.69
X8.275Y-3.705
X8.285Y-4.855
X8.3Y-0.965
X8.345Y-2.32
X8.39Y-3.675
X8.42Y-2.96
X8.44Y-4.88
X8.455Y-2.285
X8.52Y-2.02
X8.56Y-3.645
X8.59Y-4.01
X8.655Y-2.33
X8.724Y-3.4138
X8.745Y-2.33
X8.825Y-2.935
X8.945Y-2.7
X9.05Y-2.205
X9.155Y-2.125
X9.255Y-2.925
X9.345Y-2.205
X9.455Y-2.115
X9.655Y-2.715
X9.6571Y-3.5874
X9.855Y-2.82
X9.945Y-2.33
X10.045Y-2.685
X10.2Y-2.195
X10.295Y-2.935
X10.4Y-2.75
X10.45Y-3.435
X10.48Y-3.64
X10.4843Y-1.9961
X10.51Y-3.675
X10.52Y-1.955
X10.58Y-1.47
X10.625Y-1.335
X10.6443Y-2.2972
X10.73Y-1.905
X10.76Y-2.92
X10.805Y-2.0
X10.84Y-4.88
X10.855Y-2.265
X10.9331Y-3.437
X10.955Y-2.235
X10.965Y-4.89
X11.005Y-1.525
X11.015Y-1.93
X11.055Y-2.215
X11.085Y-3.015
X11.085Y-3.16
X11.095Y-4.88
X11.105Y-1.525
X11.185Y-2.325
X11.2008Y-1.626
X11.215Y-4.91
X11.245Y-3.0
X11.26Y-4.9
X11.285Y-2.225
X11.315Y-2.98
X11.34Y-3.03
X11.38Y-4.89
X11.395Y-2.185
X11.425Y-2.685
X11.46Y-3.02
X11.505Y-1.96
X11.53Y-4.665
X11.545Y-2.195
X11.655Y-2.18
X11.71Y-3.035
X11.755Y-2.165
X11.8Y-1.99
X11.855Y-2.14
X11.87Y-2.33
X11.87Y-5.005
X11.925Y-3.07
X11.955Y-2.13
X11.965Y-3.09
X12.0Y-4.995
X12.05Y-3.035
X12.085Y-3.06
X12.125Y-2.92
X12.125Y-4.895
X12.175Y-2.92
X12.215Y-2.33
X12.235Y-4.895
X12.245Y-2.105
X12.3Y-2.715
X12.3248Y-1.626
X12.345Y-2.285
X12.36Y-4.885
X12.3681Y-1.626
X12.415Y-2.275
X12.43Y-3.09
X12.485Y-4.885
X12.49Y-2.31
X12.515Y-3.045
X12.55Y-2.735
X12.6Y-2.82
X12.605Y-4.875
X12.675Y-3.09
X12.725Y-2.31
X12.73Y-4.87
X12.77Y-2.705
X12.84Y-4.88
X12.85Y-2.31
X12.885Y-4.89
X12.89Y-3.6
X12.8927Y-3.4203
X12.965Y-4.89
X12.975Y-3.025
X13.01Y-4.89
X13.055Y-3.075
X13.09Y-4.885
X13.1Y-2.29
X13.13Y-4.885
X13.165Y-3.045
X13.215Y-4.885
X13.22Y-2.29
X13.255Y-1.555
X13.26Y-2.74
X13.26Y-2.895
X13.3Y-2.955
X13.34Y-4.885
X13.35Y-2.31
X13.39Y-4.29
X13.405Y-2.105
X13.43Y-3.035
X13.44Y-2.585
X13.465Y-4.885
X13.475Y-2.325
X13.51Y-4.885
X13.59Y-4.885
X13.6Y-2.91
X13.635Y-4.885
X13.655Y-2.29
X13.68Y-3.595
X13.715Y-4.885
X13.725Y-2.97
X13.76Y-4.885
X13.835Y-4.885
X13.845Y-1.94
X13.85Y-2.695
X13.885Y-4.885
X13.95Y-2.295
X13.965Y-4.885
X13.98Y-2.975
X14.005Y-4.885
X14.045Y-1.945
X14.09Y-4.885
X14.135Y-4.885
X14.15Y-2.51
X14.24Y-2.64
X14.285Y-3.805
X14.29Y-2.67
X14.2943Y-3.5994
X14.35Y-2.46
X14.39Y-4.505
X14.4114Y-3.6
X14.425Y-2.5
X14.465Y-2.445
X14.4941Y-2.1791
X14.59Y-4.52
X14.5915Y-2.1885
X14.62Y-2.425
X14.745Y-2.325
X14.75Y-4.535
X14.855Y-1.94
X14.955Y-1.945
X14.975Y-2.41
X15.09Y-2.55
X15.12Y-2.39
X15.155Y-2.325
X15.1693Y-2.3622
X15.175Y-4.47
X15.245Y-1.895
X15.335Y-3.08
X15.375Y-3.07
X15.415Y-3.07
X15.495Y-2.735
X15.59Y-2.865
X15.635Y-2.85
X15.65Y-3.75
X15.66Y-3.01
X15.74Y-2.91
X15.745Y-2.61
X15.745Y-2.86
X15.81Y-1.325
X15.835Y-1.375
X15.865Y-1.405
X15.905Y-1.425
X15.905Y-3.82
X15.945Y-1.425
X15.985Y-1.405
X16.015Y-1.375
X16.04Y-1.325
X16.115Y-0.905
X16.585Y-4.105
X16.73Y-2.785
X16.775Y-3.62
X16.945Y-2.49
T3
X3.025Y-1.525
X3.025Y-1.725
X6.65Y-1.525
X6.65Y-1.725
X12.0Y-1.825
X12.2Y-1.825
X12.3Y-1.825
X12.3Y-2.025
X12.9Y-1.275
X12.9Y-1.475
X13.0Y-1.275
X13.0Y-1.475
X13.5Y-1.275
X13.5Y-1.475
X14.7Y-1.275
X14.7Y-1.475
X15.405Y-1.085
X15.405Y-1.285
T4
X1.2Y-1.85
X1.3Y-1.425
X1.3Y-1.85
X1.4Y-1.425
X1.4Y-1.725
X1.4Y-1.85
X1.5Y-1.425
X1.5Y-1.725
X1.5Y-1.85
X1.6Y-1.425
X1.6Y-1.725
X1.6Y-1.85
X1.7Y-1.425
X1.7Y-1.725
X1.7Y-1.85
X1.799Y-1.4242
X1.8Y-1.725
X1.8Y-1.85
X1.9Y-1.425
X1.9Y-1.725
X1.9Y-1.85
X2.0Y-1.425
X2.0Y-1.725
X2.0Y-1.85
X2.1Y-1.425
X2.1Y-1.725
X2.1Y-1.85
X2.2Y-1.425
X2.2Y-1.725
X2.2Y-1.85
X2.3Y-1.425
X2.3Y-1.85
X2.4Y-1.425
X2.4Y-1.725
X2.4Y-1.85
X2.5Y-1.425
X2.5Y-1.725
X2.5Y-1.85
X2.6Y-1.425
X2.6Y-1.725
X2.6Y-1.85
X2.7Y-1.425
X2.7Y-1.725
X2.7Y-1.85
X2.799Y-1.4242
X2.8Y-1.725
X2.8Y-1.85
X2.9Y-1.425
X2.9Y-1.725
X2.9Y-1.85
X3.0Y-1.85
X3.1Y-1.85
X3.2Y-1.425
X3.2Y-1.85
X3.3Y-1.425
X3.3Y-1.725
X3.3Y-1.85
X3.4Y-1.425
X3.4Y-1.725
X3.4Y-1.85
X3.5Y-1.425
X3.5Y-1.725
X3.5Y-1.85
X3.6Y-1.425
X3.6Y-1.725
X3.6Y-1.85
X3.699Y-1.4242
X3.7Y-1.725
X3.7Y-1.85
X3.8Y-1.425
X3.8Y-1.725
X3.8Y-1.85
X3.9Y-1.425
X3.9Y-1.725
X3.9Y-1.85
X4.0Y-1.425
X4.0Y-1.725
X4.0Y-1.85
X4.1Y-1.425
X4.1Y-1.725
X4.1Y-1.85
X4.2Y-1.4208
X4.2Y-1.85
X4.3Y-1.4208
X4.3Y-1.7208
X4.3Y-1.85
X4.4Y-1.4208
X4.4Y-1.7208
X4.4Y-1.85
X4.5Y-1.4208
X4.5Y-1.7208
X4.5Y-1.85
X4.6Y-1.4208
X4.6Y-1.7208
X4.6Y-1.85
X4.7Y-1.85
X4.8Y-1.85
X4.8Y-1.85
X4.9Y-1.425
X4.9Y-1.85
X5.0Y-1.425
X5.0Y-1.725
X5.0Y-1.85
X5.0716Y-0.845
X5.0716Y-0.971
X5.1Y-1.425
X5.1Y-1.725
X5.1Y-1.85
X5.17Y-0.845
X5.17Y-0.971
X5.2Y-1.425
X5.2Y-1.725
X5.2Y-1.85
X5.2684Y-0.845
X5.2684Y-0.971
X5.3Y-1.425
X5.3Y-1.725
X5.3Y-1.85
X5.399Y-1.4242
X5.4Y-1.725
X5.4Y-1.85
X5.5Y-1.425
X5.5Y-1.725
X5.5Y-1.85
X5.6Y-1.425
X5.6Y-1.725
X5.6Y-1.85
X5.7Y-1.425
X5.7Y-1.725
X5.7Y-1.85
X5.8Y-1.425
X5.8Y-1.725
X5.8Y-1.85
X5.9Y-1.425
X5.9Y-1.85
X6.0Y-1.425
X6.0Y-1.725
X6.0Y-1.85
X6.1Y-1.425
X6.1Y-1.725
X6.1Y-1.85
X6.2Y-1.425
X6.2Y-1.725
X6.2Y-1.85
X6.3Y-1.425
X6.3Y-1.725
X6.3Y-1.85
X6.399Y-1.4242
X6.4Y-1.725
X6.4Y-1.85
X6.5Y-1.85
X6.7Y-1.85
X6.8Y-1.425
X6.8Y-1.85
X6.9Y-1.425
X6.9Y-1.725
X6.9Y-1.85
X7.0Y-1.425
X7.0Y-1.725
X7.0Y-1.85
X7.1Y-1.425
X7.1Y-1.725
X7.1Y-1.85
X7.2Y-1.425
X7.2Y-1.725
X7.2Y-1.85
X7.299Y-1.4242
X7.3Y-1.725
X7.3Y-1.85
X7.4Y-1.425
X7.4Y-1.725
X7.4Y-1.85
X7.5Y-1.425
X7.5Y-1.725
X7.5Y-1.85
X7.6Y-1.425
X7.6Y-1.725
X7.6Y-1.85
X7.7Y-1.425
X7.7Y-1.725
X7.9Y-1.85
X8.0Y-1.425
X8.0Y-1.85
X8.1Y-1.425
X8.1Y-1.725
X8.1Y-1.85
X8.2Y-1.425
X8.2Y-1.725
X8.2Y-1.85
X8.3Y-1.425
X8.3Y-1.725
X8.3Y-1.85
X8.3002Y-1.095
X8.3469Y-3.422
X8.3469Y-3.822
X8.4Y-1.425
X8.4Y-1.725
X8.4Y-1.85
X8.4002Y-1.095
X8.499Y-1.4242
X8.5Y-1.725
X8.5Y-1.85
X8.5002Y-1.095
X8.6Y-1.425
X8.6Y-1.725
X8.6Y-1.85
X8.6002Y-1.095
X8.7Y-1.425
X8.7Y-1.725
X8.7Y-1.85
X8.7002Y-1.095
X8.8Y-1.425
X8.8Y-1.725
X8.8Y-1.85
X8.8002Y-1.095
X8.9Y-1.425
X8.9Y-1.725
X8.9Y-1.85
X8.9002Y-1.095
X9.0Y-1.425
X9.0Y-1.85
X9.0002Y-1.095
X9.1Y-1.425
X9.1Y-1.725
X9.1Y-1.85
X9.1002Y-1.095
X9.2Y-1.425
X9.2Y-1.725
X9.2Y-1.85
X9.2002Y-1.095
X9.3Y-1.425
X9.3Y-1.725
X9.3Y-1.85
X9.4Y-1.425
X9.4Y-1.725
X9.4Y-1.85
X9.499Y-1.4242
X9.5Y-1.725
X9.5Y-1.85
X9.6Y-1.85
X9.6Y-1.85
X9.7Y-1.425
X9.7Y-1.85
X9.8Y-1.425
X9.8Y-1.725
X9.8Y-1.85
X9.9Y-1.425
X9.9Y-1.725
X9.9Y-1.85
X10.0Y-1.425
X10.0Y-1.725
X10.0Y-1.85
X10.1Y-1.425
X10.1Y-1.725
X10.1Y-1.85
X10.6Y-1.85
X10.7Y-1.425
X10.7Y-1.85
X10.8Y-1.425
X10.8Y-1.725
X10.8Y-1.85
X10.9Y-1.425
X10.9Y-1.725
X10.9Y-1.85
X11.0Y-1.425
X11.0Y-1.725
X11.0Y-1.85
X11.1Y-1.425
X11.1Y-1.725
X11.1Y-1.85
X11.199Y-1.4242
X11.2Y-1.525
X11.2Y-1.725
X11.2Y-1.85
X11.3Y-1.525
X11.4Y-1.525
X11.5Y-1.525
X11.6Y-1.525
X11.7Y-1.525
X11.8Y-1.525
X11.9Y-1.525
X12.0Y-1.525
X12.1Y-1.525
X12.2Y-1.425
X12.3Y-1.425
X12.3Y-1.725
X12.4Y-1.85
X12.5Y-1.425
X12.5Y-1.85
X12.6Y-1.425
X12.6Y-1.725
X12.6Y-1.85
X12.7Y-1.425
X12.7Y-1.725
X12.7Y-1.85
X12.8Y-1.425
X12.8Y-1.725
X12.8Y-1.85
X12.9Y-1.85
X13.0Y-1.85
X13.1Y-1.425
X13.1Y-1.85
X13.2Y-1.425
X13.2Y-1.725
X13.2Y-1.85
X13.3Y-1.425
X13.3Y-1.725
X13.3Y-1.85
X13.4Y-1.425
X13.4Y-1.725
X13.6Y-1.85
X13.7Y-1.425
X13.7Y-1.85
X13.7006Y-3.6465
X13.7006Y-3.7253
X13.7006Y-3.804
X13.7794Y-3.6465
X13.7794Y-3.7253
X13.7794Y-3.804
X13.8Y-1.425
X13.8Y-1.725
X13.8Y-1.85
X13.9Y-1.425
X13.9Y-1.725
X13.9Y-1.85
X14.0Y-1.425
X14.0Y-1.725
X14.0Y-1.85
X14.1Y-1.425
X14.1Y-1.725
X14.1Y-1.85
X14.199Y-1.4242
X14.2Y-1.725
X14.2Y-1.85
X14.2613Y-3.55
X14.2613Y-3.65
X14.3Y-1.425
X14.3Y-1.725
X14.3Y-1.85
X14.4Y-1.425
X14.4Y-1.725
X14.4Y-1.85
X14.5Y-1.425
X14.5Y-1.725
X14.5Y-1.85
X14.6Y-1.425
X14.6Y-1.725
X14.7Y-1.85
X14.8Y-1.425
X14.8Y-1.85
X14.9Y-1.425
X14.9Y-1.725
X14.9Y-1.85
X15.0Y-1.425
X15.0Y-1.725
X15.0Y-1.85
X15.1Y-1.425
X15.1Y-1.725
X15.1Y-1.85
X15.2Y-1.425
X15.2Y-1.725
X15.2Y-1.85
X15.299Y-1.4242
X15.3Y-1.725
X15.575Y-4.48
X15.64Y-3.95
X15.64Y-4.35
X15.649Y-3.241
X15.649Y-3.4379
X15.649Y-3.6342
X15.649Y-3.831
X15.67Y-4.6
X15.7521Y-3.106
X15.754Y-3.236
X15.754Y-3.336
X15.754Y-3.436
X15.754Y-3.536
X15.754Y-3.636
X15.754Y-3.736
X15.754Y-3.836
X15.7633Y-3.955
X15.7633Y-4.355
X15.949Y-3.106
X15.975Y-4.48
X16.054Y-3.236
X16.054Y-3.336
X16.054Y-3.436
X16.054Y-3.536
X16.054Y-3.636
X16.054Y-3.736
X16.054Y-3.836
X16.07Y-4.6
X16.1483Y-3.955
X16.1483Y-4.355
X16.2683Y-3.955
X16.2683Y-4.355
X16.685Y-4.99
X16.69Y-5.2965
X16.935Y-4.99
X16.94Y-5.2965
T5
X2.8Y-1.075
X2.8Y-1.175
X6.6Y-1.075
X6.6Y-1.175
X7.3Y-1.075
X7.3Y-1.175
X7.5Y-1.075
X7.5Y-1.175
X7.6Y-1.075
X7.6Y-1.175
X10.2Y-1.075
X10.2Y-1.175
X10.3Y-1.075
X10.3Y-1.175
X10.4Y-1.075
X10.4Y-1.175
X11.3Y-1.075
X11.3Y-1.175
X11.4Y-1.075
X11.4Y-1.175
X11.5Y-1.075
X11.5Y-1.175
X11.6Y-1.075
X11.6Y-1.175
X11.7Y-1.075
X11.7Y-1.175
X11.8Y-1.075
X11.8Y-1.175
X11.9Y-1.075
X11.9Y-1.175
X12.0Y-1.075
X12.0Y-1.175
X12.1Y-1.075
X12.1Y-1.175
X12.8Y-1.075
X12.8Y-1.175
X13.1Y-1.075
X13.1Y-1.175
X13.3Y-1.075
X13.3Y-1.175
X14.8Y-1.075
X14.8Y-1.175
X15.0Y-1.075
X15.0Y-1.175
T6
X1.3Y-1.725
X2.3Y-1.725
X3.2Y-1.725
X4.2Y-1.7208
X4.9Y-1.725
X5.9Y-1.725
X6.8Y-1.725
X8.0Y-1.725
X9.0Y-1.725
X9.7Y-1.725
X10.7Y-1.725
X12.2Y-1.725
X12.5Y-1.725
X13.1Y-1.725
X13.7Y-1.725
X14.8Y-1.725
T7
X1.3Y-1.29
X1.4Y-1.29
X1.425Y-2.025
X1.425Y-2.15
X1.425Y-2.275
X1.425Y-2.4
X1.425Y-2.525
X1.425Y-2.65
X1.425Y-2.775
X1.425Y-2.9
X1.425Y-3.025
X1.425Y-3.15
X1.425Y-3.275
X1.425Y-3.4
X1.425Y-3.525
X1.425Y-3.65
X1.425Y-3.775
X1.425Y-3.9
X1.425Y-4.025
X1.425Y-4.15
X1.425Y-4.275
X1.425Y-4.4
X1.425Y-4.525
X1.425Y-4.65
X1.425Y-4.775
X1.425Y-4.9
X1.425Y-5.025
X1.425Y-5.15
X1.5Y-1.29
X1.6Y-1.29
X1.6719Y-2.025
X1.6719Y-2.15
X1.6719Y-2.275
X1.6719Y-2.4
X1.6719Y-2.525
X1.6719Y-2.65
X1.6719Y-2.775
X1.6719Y-2.9
X1.6719Y-3.025
X1.6719Y-3.15
X1.6719Y-3.275
X1.6719Y-3.4
X1.6719Y-3.525
X1.6719Y-3.65
X1.6719Y-3.775
X1.6719Y-3.9
X1.6719Y-4.025
X1.6719Y-4.15
X1.6719Y-4.275
X1.6719Y-4.4
X1.6719Y-4.525
X1.6719Y-4.65
X1.6719Y-4.775
X1.6719Y-4.9
X1.6719Y-5.025
X1.6719Y-5.15
X1.7Y-1.29
X1.8Y-1.29
X1.9Y-1.29
X2.0Y-1.29
X2.1Y-1.29
X2.2Y-1.29
X2.3Y-1.29
X2.4Y-1.29
X2.5Y-1.29
X2.535Y-2.395
X2.6Y-1.29
X2.635Y-2.395
X2.7Y-1.29
X2.725Y-4.825
X2.725Y-5.0719
X2.725Y-5.425
X2.725Y-5.6719
X2.735Y-2.395
X2.8Y-1.29
X2.835Y-2.395
X2.85Y-4.825
X2.85Y-5.0719
X2.85Y-5.425
X2.85Y-5.6719
X2.9Y-1.29
X2.935Y-2.395
X2.975Y-4.825
X2.975Y-5.0719
X2.975Y-5.425
X2.975Y-5.6719
X3.035Y-2.395
X3.1Y-4.825
X3.1Y-5.0719
X3.1Y-5.425
X3.1Y-5.6719
X3.135Y-2.395
X3.2Y-1.29
X3.225Y-4.825
X3.225Y-5.0719
X3.225Y-5.425
X3.225Y-5.6719
X3.235Y-2.395
X3.3Y-1.29
X3.335Y-2.395
X3.35Y-4.825
X3.35Y-5.0719
X3.35Y-5.425
X3.35Y-5.6719
X3.4Y-1.29
X3.435Y-2.395
X3.475Y-4.825
X3.475Y-5.0719
X3.475Y-5.425
X3.475Y-5.6719
X3.5Y-1.29
X3.6Y-1.29
X3.6Y-4.825
X3.6Y-5.0719
X3.6Y-5.425
X3.6Y-5.6719
X3.7Y-1.29
X3.725Y-4.825
X3.725Y-5.0719
X3.725Y-5.425
X3.725Y-5.6719
X3.8Y-1.29
X3.85Y-4.825
X3.85Y-5.0719
X3.85Y-5.425
X3.85Y-5.6719
X3.9Y-1.29
X3.935Y-4.11
X3.975Y-4.825
X3.975Y-5.0719
X3.975Y-5.425
X3.975Y-5.6719
X4.0Y-1.29
X4.035Y-4.11
X4.1Y-1.29
X4.1Y-4.825
X4.1Y-5.0719
X4.1Y-5.425
X4.1Y-5.6719
X4.135Y-4.11
X4.2Y-1.29
X4.225Y-4.825
X4.225Y-5.0719
X4.225Y-5.425
X4.225Y-5.6719
X4.235Y-4.11
X4.3Y-1.29
X4.335Y-4.11
X4.35Y-4.825
X4.35Y-5.0719
X4.35Y-5.425
X4.35Y-5.6719
X4.4Y-1.29
X4.475Y-4.825
X4.475Y-5.0719
X4.475Y-5.425
X4.475Y-5.6719
X4.493Y-4.111
X4.5Y-1.29
X4.593Y-4.111
X4.6Y-1.29
X4.6Y-4.825
X4.6Y-5.0719
X4.6Y-5.425
X4.6Y-5.6719
X4.693Y-4.111
X4.7Y-1.29
X4.725Y-4.825
X4.725Y-5.0719
X4.725Y-5.425
X4.725Y-5.6719
X4.793Y-4.111
X4.85Y-4.825
X4.85Y-5.0719
X4.85Y-5.425
X4.85Y-5.6719
X4.893Y-4.111
X4.9Y-1.29
X4.975Y-4.825
X4.975Y-5.0719
X4.975Y-5.425
X4.975Y-5.6719
X4.993Y-4.111
X5.0Y-1.29
X5.1Y-1.29
X5.1Y-4.825
X5.1Y-5.0719
X5.1Y-5.425
X5.1Y-5.6719
X5.2Y-1.29
X5.225Y-4.825
X5.225Y-5.0719
X5.225Y-5.425
X5.225Y-5.6719
X5.3Y-1.29
X5.35Y-4.825
X5.35Y-5.0719
X5.35Y-5.425
X5.35Y-5.6719
X5.4Y-1.29
X5.475Y-4.825
X5.475Y-5.0719
X5.475Y-5.425
X5.475Y-5.6719
X5.5Y-1.29
X5.58Y-3.575
X5.6Y-1.29
X5.6Y-4.825
X5.6Y-5.0719
X5.6Y-5.425
X5.6Y-5.6719
X5.7Y-1.29
X5.725Y-4.825
X5.725Y-5.0719
X5.725Y-5.425
X5.725Y-5.6719
X5.8Y-1.29
X5.85Y-4.825
X5.85Y-5.0719
X5.85Y-5.425
X5.85Y-5.6719
X5.9Y-1.29
X5.975Y-4.825
X5.975Y-5.0719
X5.975Y-5.425
X5.975Y-5.6719
X6.0Y-1.29
X6.1Y-1.29
X6.1Y-4.825
X6.1Y-5.0719
X6.1Y-5.425
X6.1Y-5.6719
X6.2Y-1.29
X6.225Y-4.825
X6.225Y-5.0719
X6.225Y-5.425
X6.225Y-5.6719
X6.3Y-1.29
X6.35Y-4.825
X6.35Y-5.0719
X6.35Y-5.425
X6.35Y-5.6719
X6.4Y-1.29
X6.475Y-4.825
X6.475Y-5.0719
X6.475Y-5.425
X6.475Y-5.6719
X6.5Y-1.29
X6.6Y-1.29
X6.6Y-4.825
X6.6Y-5.0719
X6.6Y-5.425
X6.6Y-5.6719
X6.725Y-4.825
X6.725Y-5.0719
X6.725Y-5.425
X6.725Y-5.6719
X6.8Y-1.29
X6.85Y-4.825
X6.85Y-5.0719
X6.85Y-5.425
X6.85Y-5.6719
X6.9Y-1.29
X6.975Y-4.825
X6.975Y-5.0719
X6.975Y-5.425
X6.975Y-5.6719
X7.0Y-1.29
X7.1Y-1.29
X7.1Y-4.825
X7.1Y-5.0719
X7.1Y-5.425
X7.1Y-5.6719
X7.2Y-1.29
X7.225Y-4.825
X7.225Y-5.0719
X7.225Y-5.425
X7.225Y-5.6719
X7.3Y-1.29
X7.35Y-4.825
X7.35Y-5.0719
X7.35Y-5.425
X7.35Y-5.6719
X7.4Y-1.29
X7.475Y-4.825
X7.475Y-5.0719
X7.475Y-5.425
X7.475Y-5.6719
X7.5Y-1.29
X7.6Y-1.29
X7.6Y-4.825
X7.6Y-5.0719
X7.6Y-5.425
X7.6Y-5.6719
X7.7Y-1.29
X7.725Y-4.825
X7.725Y-5.0719
X7.725Y-5.425
X7.725Y-5.6719
X7.735Y-3.11
X7.825Y-3.255
X7.825Y-3.355
X7.835Y-3.11
X7.85Y-4.825
X7.85Y-5.0719
X7.85Y-5.425
X7.85Y-5.6719
X7.925Y-3.255
X7.925Y-3.355
X7.935Y-3.11
X7.975Y-4.825
X7.975Y-5.0719
X7.975Y-5.425
X7.975Y-5.6719
X8.0Y-1.29
X8.025Y-3.255
X8.025Y-3.355
X8.035Y-3.11
X8.1Y-1.29
X8.1Y-4.825
X8.1Y-5.0719
X8.1Y-5.425
X8.1Y-5.6719
X8.125Y-3.255
X8.125Y-3.355
X8.135Y-3.11
X8.2Y-1.29
X8.225Y-3.255
X8.225Y-3.355
X8.225Y-4.825
X8.225Y-5.0719
X8.225Y-5.425
X8.225Y-5.6719
X8.235Y-3.11
X8.3Y-1.29
X8.335Y-3.11
X8.35Y-4.825
X8.35Y-5.0719
X8.35Y-5.425
X8.35Y-5.6719
X8.4Y-1.29
X8.435Y-3.11
X8.475Y-4.825
X8.475Y-5.0719
X8.475Y-5.425
X8.475Y-5.6719
X8.5Y-1.29
X8.6Y-1.29
X8.6Y-4.825
X8.6Y-5.0719
X8.6Y-5.425
X8.6Y-5.6719
X8.7Y-1.29
X8.725Y-4.825
X8.725Y-5.0719
X8.725Y-5.425
X8.725Y-5.6719
X8.8Y-1.29
X8.85Y-4.825
X8.85Y-5.0719
X8.85Y-5.425
X8.85Y-5.6719
X8.9Y-1.29
X9.0Y-1.29
X9.1Y-1.29
X9.2Y-1.29
X9.3Y-1.29
X9.4Y-1.29
X9.5Y-1.29
X9.7Y-1.29
X9.8Y-1.29
X9.9Y-1.29
X10.0Y-1.29
X10.1Y-1.29
X10.175Y-4.8281
X10.175Y-5.075
X10.175Y-5.4254
X10.175Y-5.6722
X10.2Y-1.29
X10.3Y-1.29
X10.3Y-4.8281
X10.3Y-5.075
X10.3Y-5.4254
X10.3Y-5.6722
X10.4Y-1.29
X10.425Y-4.8281
X10.425Y-5.075
X10.425Y-5.4254
X10.425Y-5.6722
X10.55Y-4.8281
X10.55Y-5.075
X10.55Y-5.4254
X10.55Y-5.6722
X10.675Y-4.8281
X10.675Y-5.075
X10.675Y-5.4254
X10.675Y-5.6722
X10.7Y-1.29
X10.8Y-1.29
X10.8Y-4.8281
X10.8Y-5.075
X10.8Y-5.4254
X10.8Y-5.6722
X10.9Y-1.29
X10.925Y-4.8281
X10.925Y-5.075
X10.925Y-5.4254
X10.925Y-5.6722
X11.0Y-1.29
X11.05Y-4.8281
X11.05Y-5.075
X11.05Y-5.4254
X11.05Y-5.6722
X11.1Y-1.29
X11.175Y-4.8281
X11.175Y-5.075
X11.175Y-5.4254
X11.175Y-5.6722
X11.2Y-1.29
X11.3Y-1.29
X11.3Y-4.8281
X11.3Y-5.075
X11.3Y-5.4254
X11.3Y-5.6722
X11.4Y-1.29
X11.425Y-4.8281
X11.425Y-5.075
X11.425Y-5.4254
X11.425Y-5.6722
X11.5Y-1.29
X11.55Y-4.8281
X11.55Y-5.075
X11.55Y-5.4254
X11.55Y-5.6722
X11.6Y-1.29
X11.65Y-3.3
X11.65Y-3.4
X11.65Y-3.5
X11.65Y-3.6
X11.675Y-4.8281
X11.675Y-5.075
X11.675Y-5.4254
X11.675Y-5.6722
X11.7Y-1.29
X11.8Y-1.29
X11.8Y-4.8281
X11.8Y-5.075
X11.8Y-5.4254
X11.8Y-5.6722
X11.9Y-1.29
X11.925Y-4.8281
X11.925Y-5.075
X11.925Y-5.4254
X11.925Y-5.6722
X12.0Y-1.29
X12.05Y-4.8281
X12.05Y-5.075
X12.05Y-5.4254
X12.05Y-5.6722
X12.1Y-1.29
X12.175Y-4.8281
X12.175Y-5.075
X12.175Y-5.4254
X12.175Y-5.6722
X12.2Y-1.29
X12.3Y-1.29
X12.3Y-4.8281
X12.3Y-5.075
X12.3Y-5.4254
X12.3Y-5.6722
X12.425Y-4.8281
X12.425Y-5.075
X12.425Y-5.4254
X12.425Y-5.6722
X12.5Y-1.29
X12.55Y-4.8281
X12.55Y-5.075
X12.55Y-5.4254
X12.55Y-5.6722
X12.6Y-1.29
X12.675Y-4.8281
X12.675Y-5.075
X12.675Y-5.4254
X12.675Y-5.6722
X12.7Y-1.29
X12.8Y-1.29
X12.8Y-4.8281
X12.8Y-5.075
X12.8Y-5.4254
X12.8Y-5.6722
X12.925Y-4.8281
X12.925Y-5.075
X12.925Y-5.4254
X12.925Y-5.6722
X13.05Y-4.8281
X13.05Y-5.075
X13.05Y-5.4254
X13.05Y-5.6722
X13.1Y-1.285
X13.175Y-4.8281
X13.175Y-5.075
X13.175Y-5.4254
X13.175Y-5.6722
X13.2Y-1.285
X13.3Y-1.285
X13.3Y-4.8281
X13.3Y-5.075
X13.3Y-5.4254
X13.3Y-5.6722
X13.4Y-1.285
X13.425Y-4.8281
X13.425Y-5.075
X13.425Y-5.4254
X13.425Y-5.6722
X13.55Y-4.8281
X13.55Y-5.075
X13.55Y-5.4254
X13.55Y-5.6722
X13.675Y-4.8281
X13.675Y-5.075
X13.675Y-5.4254
X13.675Y-5.6722
X13.7Y-1.285
X13.8Y-1.285
X13.8Y-4.8281
X13.8Y-5.075
X13.8Y-5.4254
X13.8Y-5.6722
X13.9Y-1.285
X13.925Y-4.8281
X13.925Y-5.075
X13.925Y-5.4254
X13.925Y-5.6722
X14.0Y-1.285
X14.05Y-4.8281
X14.05Y-5.075
X14.05Y-5.4254
X14.05Y-5.6722
X14.1Y-1.285
X14.175Y-4.8281
X14.175Y-5.075
X14.175Y-5.4254
X14.175Y-5.6722
X14.2Y-1.285
X14.3Y-1.285
X14.3Y-4.8281
X14.3Y-5.075
X14.3Y-5.4254
X14.3Y-5.6722
X14.4Y-1.285
X14.425Y-4.8281
X14.425Y-5.075
X14.425Y-5.4254
X14.425Y-5.6722
X14.5Y-1.285
X14.55Y-4.8281
X14.55Y-5.075
X14.55Y-5.4254
X14.55Y-5.6722
X14.6Y-1.285
X14.675Y-4.8281
X14.675Y-5.075
X14.675Y-5.4254
X14.675Y-5.6722
X14.8Y-1.285
X14.8Y-2.185
X14.8Y-2.185
X14.8Y-4.8281
X14.8Y-5.075
X14.8Y-5.4254
X14.8Y-5.6722
X14.805Y-2.46
X14.805Y-2.46
X14.9Y-1.285
X14.9Y-2.185
X14.9Y-2.185
X14.905Y-2.46
X14.905Y-2.46
X14.925Y-4.8281
X14.925Y-5.075
X14.925Y-5.4254
X14.925Y-5.6722
X15.0Y-1.285
X15.05Y-4.8281
X15.05Y-5.075
X15.05Y-5.4254
X15.05Y-5.6722
X15.1Y-1.285
X15.175Y-4.8281
X15.175Y-5.075
X15.175Y-5.4254
X15.175Y-5.6722
X15.2Y-1.285
X15.3Y-1.285
X15.3Y-2.0472
X15.3Y-2.1472
X15.3Y-2.2472
X15.3Y-2.3472
X15.3Y-4.8281
X15.3Y-5.075
X15.3Y-5.4254
X15.3Y-5.6722
X15.425Y-4.8281
X15.425Y-5.075
X15.425Y-5.4254
X15.425Y-5.6722
X15.55Y-4.8281
X15.55Y-5.075
X15.55Y-5.4254
X15.55Y-5.6722
X15.675Y-4.8281
X15.675Y-5.075
X15.675Y-5.4254
X15.675Y-5.6722
X15.8Y-4.8281
X15.8Y-5.075
X15.8Y-5.4254
X15.8Y-5.6722
X15.8246Y-2.2
X15.825Y-1.55
X15.825Y-2.055
X15.8252Y-2.345
X15.9246Y-2.2
X15.925Y-1.55
X15.925Y-2.055
X15.925Y-4.8281
X15.925Y-5.075
X15.925Y-5.4254
X15.925Y-5.6722
X15.9252Y-2.345
X16.025Y-1.55
X16.05Y-4.8281
X16.05Y-5.075
X16.05Y-5.4254
X16.05Y-5.6722
X16.175Y-4.8281
X16.175Y-5.075
X16.175Y-5.4254
X16.175Y-5.6722
X16.3Y-4.8281
X16.3Y-5.075
X16.3Y-5.4254
X16.3Y-5.6722
X16.455Y-0.875
X16.455Y-0.975
X16.455Y-1.075
X16.455Y-1.175
X16.455Y-1.275
X16.455Y-1.375
X16.455Y-1.475
X16.455Y-1.575
X16.455Y-1.675
X16.455Y-1.775
X16.455Y-1.875
X16.455Y-1.975
X16.545Y-2.3
X16.555Y-0.875
X16.555Y-0.975
X16.555Y-1.075
X16.555Y-1.175
X16.555Y-1.275
X16.555Y-1.375
X16.555Y-1.475
X16.555Y-1.575
X16.555Y-1.675
X16.555Y-1.775
X16.555Y-1.875
X16.555Y-1.975
X16.645Y-2.3
X16.655Y-0.875
X16.655Y-0.975
X16.655Y-1.075
X16.655Y-1.175
X16.655Y-1.275
X16.655Y-1.375
X16.655Y-1.475
X16.655Y-1.575
X16.655Y-1.675
X16.655Y-1.775
X16.655Y-1.875
X16.655Y-1.975
X16.745Y-2.3
X16.755Y-0.875
X16.755Y-0.975
X16.755Y-1.075
X16.755Y-1.175
X16.755Y-1.275
X16.755Y-1.375
X16.755Y-1.475
X16.755Y-1.575
X16.755Y-1.675
X16.755Y-1.775
X16.755Y-1.875
X16.755Y-1.975
X16.845Y-2.3
X16.855Y-0.875
X16.855Y-0.975
X16.855Y-1.075
X16.855Y-1.175
X16.855Y-1.275
X16.855Y-1.375
X16.855Y-1.475
X16.855Y-1.575
X16.855Y-1.675
X16.855Y-1.775
X16.855Y-1.875
X16.855Y-1.975
X16.955Y-0.875
X16.955Y-0.975
X16.955Y-1.075
X16.955Y-1.175
X16.955Y-1.275
X16.955Y-1.375
X16.955Y-1.475
X16.955Y-1.575
X16.955Y-1.675
X16.955Y-1.775
X16.955Y-1.875
X16.955Y-1.975
X17.055Y-0.875
X17.055Y-0.975
X17.055Y-1.075
X17.055Y-1.175
X17.055Y-1.275
X17.055Y-1.375
X17.055Y-1.475
X17.055Y-1.575
X17.055Y-1.675
X17.055Y-1.775
X17.055Y-1.875
X17.055Y-1.975
X17.155Y-0.875
X17.155Y-0.975
X17.155Y-1.075
X17.155Y-1.175
X17.155Y-1.275
X17.155Y-1.375
X17.155Y-1.475
X17.155Y-1.575
X17.155Y-1.675
X17.155Y-1.775
X17.155Y-1.875
X17.155Y-1.975
X17.165Y-2.305
X17.255Y-0.875
X17.255Y-0.975
X17.255Y-1.075
X17.255Y-1.175
X17.255Y-1.275
X17.255Y-1.375
X17.255Y-1.475
X17.255Y-1.575
X17.255Y-1.675
X17.255Y-1.775
X17.255Y-1.875
X17.255Y-1.975
X17.355Y-0.875
X17.355Y-0.975
X17.355Y-1.075
X17.355Y-1.175
X17.355Y-1.275
X17.355Y-1.375
X17.355Y-1.475
X17.355Y-1.575
X17.355Y-1.675
X17.355Y-1.775
X17.355Y-1.875
X17.355Y-1.975
T8
X2.335Y-2.505
X2.335Y-2.605
X2.335Y-2.705
X2.335Y-2.805
X2.335Y-2.905
X2.335Y-3.005
X2.335Y-3.105
X2.335Y-3.205
X2.335Y-3.305
X2.335Y-3.405
X2.335Y-3.505
X2.335Y-3.605
X2.335Y-3.705
X2.335Y-3.805
X2.335Y-3.905
X2.335Y-4.005
X2.335Y-4.105
X2.335Y-4.205
X2.435Y-2.505
X2.435Y-2.605
X2.435Y-2.705
X2.435Y-2.805
X2.435Y-2.905
X2.435Y-3.005
X2.435Y-3.105
X2.435Y-3.205
X2.435Y-3.305
X2.435Y-3.405
X2.435Y-3.505
X2.435Y-3.605
X2.435Y-3.705
X2.435Y-3.805
X2.435Y-3.905
X2.435Y-4.005
X2.435Y-4.105
X2.435Y-4.205
X2.535Y-2.305
X2.635Y-2.305
X2.735Y-2.305
X2.735Y-4.205
X2.835Y-2.305
X2.835Y-4.205
X2.935Y-2.305
X2.935Y-4.205
X3.035Y-2.305
X3.035Y-4.205
X3.135Y-2.305
X3.135Y-4.205
X3.235Y-2.305
X3.235Y-4.205
X3.335Y-4.205
X3.435Y-2.305
X3.435Y-4.205
X3.53Y-3.205
X3.53Y-3.305
X3.53Y-3.405
X3.535Y-2.305
X3.63Y-3.205
X3.63Y-3.305
X3.63Y-3.405
X3.635Y-2.305
X3.635Y-4.205
X3.735Y-2.305
X3.735Y-4.205
X3.835Y-2.305
X3.835Y-4.205
X3.935Y-2.305
X3.935Y-4.205
X4.035Y-2.305
X4.035Y-4.205
X4.135Y-2.305
X4.135Y-4.205
X4.235Y-4.205
X4.335Y-2.305
X4.335Y-4.205
X4.435Y-2.305
X4.495Y-4.205
X4.535Y-2.305
X4.595Y-4.205
X4.635Y-2.305
X4.695Y-4.205
X4.735Y-2.305
X4.795Y-4.205
X4.835Y-2.305
X4.895Y-4.205
X4.935Y-2.305
X4.995Y-4.205
X5.035Y-2.305
X5.095Y-4.205
X5.195Y-4.205
X5.295Y-4.205
X5.395Y-4.205
T9
X8.6556Y-3.0845
X8.6556Y-3.7845
X8.7556Y-3.0845
X8.7556Y-3.7845
X8.8556Y-3.0845
X8.8556Y-3.7845
X8.9556Y-3.0845
X8.9556Y-3.7845
X9.0556Y-3.0845
X9.0556Y-3.7845
X9.1556Y-3.0845
X9.1556Y-3.7845
X9.2556Y-3.0845
X9.2556Y-3.7845
X9.3556Y-3.0845
X9.3556Y-3.7845
X9.4556Y-3.0845
X9.4556Y-3.7845
X9.5556Y-3.0845
X9.5556Y-3.7845
X9.6556Y-3.0845
X9.6556Y-3.7845
X9.7556Y-3.0845
X9.7556Y-3.7845
X9.8556Y-3.0845
X9.8556Y-3.7845
X9.9556Y-3.0845
X9.9556Y-3.7845
X10.0556Y-3.0845
X10.0556Y-3.7845
X10.1556Y-3.0845
X10.1556Y-3.7845
X10.2556Y-3.0845
X10.2556Y-3.7845
X10.3556Y-3.0845
X10.3556Y-3.7845
X10.4556Y-3.0845
X10.4556Y-3.7845
X10.5465Y-3.3345
X10.5465Y-3.4345
X10.5465Y-3.5345
X10.5556Y-3.0845
X10.5556Y-3.7845
T10
X2.815Y-3.2126
X2.815Y-3.3898
X3.0709Y-3.2126
X3.0709Y-3.3898
X10.9496Y-3.6555
X10.9496Y-3.8327
X11.2055Y-3.6555
X11.2055Y-3.8327
X11.99Y-3.3
X11.99Y-3.9
X12.09Y-3.3
X12.09Y-3.9
X12.19Y-3.3
X12.19Y-3.9
X12.29Y-3.3
X12.29Y-3.9
X12.39Y-3.3
X12.39Y-3.9
X12.49Y-3.3
X12.49Y-3.4
X12.49Y-3.5
X12.49Y-3.6
X12.49Y-3.7
X12.49Y-3.8
X12.49Y-3.9
X12.59Y-3.3
X12.59Y-3.9
X12.69Y-3.3
X12.69Y-3.9
X12.79Y-3.3
X12.79Y-3.9
X12.89Y-3.3
X12.89Y-3.9
X12.99Y-3.3
X12.99Y-3.9
X13.09Y-3.3
X13.09Y-3.9
X13.19Y-3.3
X13.19Y-3.9
X13.29Y-3.3
X13.29Y-3.9
X13.39Y-3.3
X13.39Y-3.9
X13.49Y-3.3
X13.49Y-3.9
X13.59Y-3.3
X13.59Y-3.9
X13.642Y-3.4201
X13.69Y-3.3
X13.69Y-3.9
X13.742Y-3.4201
X13.79Y-3.3
X13.79Y-3.9
X13.842Y-3.4201
X13.89Y-3.3
X13.89Y-3.9
X13.942Y-3.4201
X13.99Y-3.3
X13.99Y-3.9
X14.042Y-3.4201
X14.09Y-3.3
X14.09Y-3.9
X14.19Y-3.3
X14.19Y-3.8
X14.19Y-3.9
X14.29Y-3.3
X14.29Y-3.9
X15.5133Y-3.955
X15.5133Y-4.355
X15.515Y-3.42
X15.515Y-3.82
X15.89Y-3.955
X15.89Y-4.355
X16.02Y-3.955
X16.02Y-4.355
X16.165Y-3.45
X16.165Y-3.85
X16.295Y-3.45
X16.295Y-3.85
T11
X15.9246Y-1.1781
X15.9246Y-1.3341
X16.6343Y-2.5358
X16.6343Y-2.7012
X16.6343Y-2.8665
X16.6343Y-3.0319
X16.6343Y-3.1972
X16.6343Y-3.3626
X16.6343Y-3.528
X16.6343Y-3.6933
X16.6343Y-3.8587
X16.6343Y-4.024
X16.6343Y-4.1894
X16.6343Y-4.3547
X16.8508Y-2.5358
X16.8508Y-2.7012
X16.8508Y-2.8665
X16.8508Y-3.0319
X16.8508Y-3.1972
X16.8508Y-3.3626
X16.8508Y-3.528
X16.8508Y-3.6933
X16.8508Y-3.8587
X16.8508Y-4.024
X16.8508Y-4.1894
X16.8508Y-4.3547
T12
X8.78Y-3.3391
X8.78Y-3.53
T13
X8.6607Y-3.3272
X8.6607Y-3.5418
T0
M30
