G04 #@! TF.GenerationSoftware,KiCad,Pcbnew,7.0.9*
G04 #@! TF.CreationDate,2024-04-03T04:21:05-05:00*
G04 #@! TF.ProjectId,DG Nova CPU Tester,4447204e-6f76-4612-9043-505520546573,Rev 0*
G04 #@! TF.SameCoordinates,Original*
G04 #@! TF.FileFunction,AssemblyDrawing,Bot*
%FSLAX46Y46*%
G04 Gerber Fmt 4.6, Leading zero omitted, Abs format (unit mm)*
G04 Created by KiCad (PCBNEW 7.0.9) date 2024-04-03 04:21:05*
%MOMM*%
%LPD*%
G01*
G04 APERTURE LIST*
%ADD10C,0.150000*%
%ADD11C,0.100000*%
G04 APERTURE END LIST*
D10*
X223421666Y-28267819D02*
X223754999Y-27791628D01*
X223993094Y-28267819D02*
X223993094Y-27267819D01*
X223993094Y-27267819D02*
X223612142Y-27267819D01*
X223612142Y-27267819D02*
X223516904Y-27315438D01*
X223516904Y-27315438D02*
X223469285Y-27363057D01*
X223469285Y-27363057D02*
X223421666Y-27458295D01*
X223421666Y-27458295D02*
X223421666Y-27601152D01*
X223421666Y-27601152D02*
X223469285Y-27696390D01*
X223469285Y-27696390D02*
X223516904Y-27744009D01*
X223516904Y-27744009D02*
X223612142Y-27791628D01*
X223612142Y-27791628D02*
X223993094Y-27791628D01*
X222993094Y-28267819D02*
X222993094Y-27267819D01*
X222993094Y-27267819D02*
X222421666Y-28267819D01*
X222421666Y-28267819D02*
X222421666Y-27267819D01*
X221421666Y-28267819D02*
X221993094Y-28267819D01*
X221707380Y-28267819D02*
X221707380Y-27267819D01*
X221707380Y-27267819D02*
X221802618Y-27410676D01*
X221802618Y-27410676D02*
X221897856Y-27505914D01*
X221897856Y-27505914D02*
X221993094Y-27553533D01*
X220469285Y-28267819D02*
X221040713Y-28267819D01*
X220754999Y-28267819D02*
X220754999Y-27267819D01*
X220754999Y-27267819D02*
X220850237Y-27410676D01*
X220850237Y-27410676D02*
X220945475Y-27505914D01*
X220945475Y-27505914D02*
X221040713Y-27553533D01*
X297076666Y-39189819D02*
X297409999Y-38713628D01*
X297648094Y-39189819D02*
X297648094Y-38189819D01*
X297648094Y-38189819D02*
X297267142Y-38189819D01*
X297267142Y-38189819D02*
X297171904Y-38237438D01*
X297171904Y-38237438D02*
X297124285Y-38285057D01*
X297124285Y-38285057D02*
X297076666Y-38380295D01*
X297076666Y-38380295D02*
X297076666Y-38523152D01*
X297076666Y-38523152D02*
X297124285Y-38618390D01*
X297124285Y-38618390D02*
X297171904Y-38666009D01*
X297171904Y-38666009D02*
X297267142Y-38713628D01*
X297267142Y-38713628D02*
X297648094Y-38713628D01*
X296648094Y-39189819D02*
X296648094Y-38189819D01*
X296648094Y-38189819D02*
X296076666Y-39189819D01*
X296076666Y-39189819D02*
X296076666Y-38189819D01*
X295076666Y-39189819D02*
X295648094Y-39189819D01*
X295362380Y-39189819D02*
X295362380Y-38189819D01*
X295362380Y-38189819D02*
X295457618Y-38332676D01*
X295457618Y-38332676D02*
X295552856Y-38427914D01*
X295552856Y-38427914D02*
X295648094Y-38475533D01*
X294219523Y-38523152D02*
X294219523Y-39189819D01*
X294457618Y-38142200D02*
X294695713Y-38856485D01*
X294695713Y-38856485D02*
X294076666Y-38856485D01*
D11*
X209535000Y-26563000D02*
X234975000Y-26563000D01*
X209535000Y-29063000D02*
X209535000Y-26563000D01*
X212095000Y-29063000D02*
X212095000Y-26563000D01*
X234975000Y-26563000D02*
X234975000Y-29063000D01*
X234975000Y-29063000D02*
X209535000Y-29063000D01*
X283190000Y-37485000D02*
X308630000Y-37485000D01*
X283190000Y-39985000D02*
X283190000Y-37485000D01*
X285750000Y-39985000D02*
X285750000Y-37485000D01*
X308630000Y-37485000D02*
X308630000Y-39985000D01*
X308630000Y-39985000D02*
X283190000Y-39985000D01*
M02*
