G04 #@! TF.GenerationSoftware,KiCad,Pcbnew,7.0.9*
G04 #@! TF.CreationDate,2024-04-03T04:21:05-05:00*
G04 #@! TF.ProjectId,DG Nova CPU Tester,4447204e-6f76-4612-9043-505520546573,Rev 0*
G04 #@! TF.SameCoordinates,Original*
G04 #@! TF.FileFunction,Other,User*
%FSLAX46Y46*%
G04 Gerber Fmt 4.6, Leading zero omitted, Abs format (unit mm)*
G04 Created by KiCad (PCBNEW 7.0.9) date 2024-04-03 04:21:05*
%MOMM*%
%LPD*%
G01*
G04 APERTURE LIST*
%ADD10C,0.050000*%
%ADD11C,0.120000*%
G04 APERTURE END LIST*
D10*
X28780000Y-45340000D02*
X28780000Y-48640000D01*
X28780000Y-48640000D02*
X55030000Y-48640000D01*
X55030000Y-45340000D02*
X28780000Y-45340000D01*
X55030000Y-48640000D02*
X55030000Y-45340000D01*
X406300000Y-57763000D02*
X400150000Y-57763000D01*
X400150000Y-57763000D02*
X400150000Y-61363000D01*
X406300000Y-61363000D02*
X406300000Y-57763000D01*
X400150000Y-61363000D02*
X406300000Y-61363000D01*
X374120000Y-57299000D02*
X380270000Y-57299000D01*
X380270000Y-57299000D02*
X380270000Y-53699000D01*
X374120000Y-53699000D02*
X374120000Y-57299000D01*
X380270000Y-53699000D02*
X374120000Y-53699000D01*
X98149000Y-106194000D02*
X111899000Y-106194000D01*
X111899000Y-106194000D02*
X111899000Y-102594000D01*
X98149000Y-102594000D02*
X98149000Y-106194000D01*
X111899000Y-102594000D02*
X98149000Y-102594000D01*
X401889000Y-99407000D02*
X398889000Y-99407000D01*
X398889000Y-99407000D02*
X398889000Y-111667000D01*
X401889000Y-111667000D02*
X401889000Y-99407000D01*
X398889000Y-111667000D02*
X401889000Y-111667000D01*
X168480000Y-45340000D02*
X168480000Y-48640000D01*
X168480000Y-48640000D02*
X194730000Y-48640000D01*
X194730000Y-45340000D02*
X168480000Y-45340000D01*
X194730000Y-48640000D02*
X194730000Y-45340000D01*
X198960000Y-45340000D02*
X198960000Y-48640000D01*
X198960000Y-48640000D02*
X225210000Y-48640000D01*
X225210000Y-45340000D02*
X198960000Y-45340000D01*
X225210000Y-48640000D02*
X225210000Y-45340000D01*
X390237000Y-33589000D02*
X392337000Y-33589000D01*
X392337000Y-33589000D02*
X392337000Y-26609000D01*
X390237000Y-26609000D02*
X390237000Y-33589000D01*
X392337000Y-26609000D02*
X390237000Y-26609000D01*
X399054500Y-77392500D02*
X399054500Y-80392500D01*
X399054500Y-80392500D02*
X406154500Y-80392500D01*
X406154500Y-77392500D02*
X399054500Y-77392500D01*
X406154500Y-80392500D02*
X406154500Y-77392500D01*
X112322200Y-106219400D02*
X128622200Y-106219400D01*
X128622200Y-106219400D02*
X128622200Y-102619400D01*
X112322200Y-102619400D02*
X112322200Y-106219400D01*
X128622200Y-102619400D02*
X112322200Y-102619400D01*
X409228000Y-118340000D02*
X409228000Y-115340000D01*
X409228000Y-115340000D02*
X396968000Y-115340000D01*
X396968000Y-118340000D02*
X409228000Y-118340000D01*
X396968000Y-115340000D02*
X396968000Y-118340000D01*
X380387000Y-60684000D02*
X374237000Y-60684000D01*
X374237000Y-60684000D02*
X374237000Y-64284000D01*
X380387000Y-64284000D02*
X380387000Y-60684000D01*
X374237000Y-64284000D02*
X380387000Y-64284000D01*
X186970000Y-26155000D02*
X183870000Y-26155000D01*
X183870000Y-26155000D02*
X183870000Y-31005000D01*
X186970000Y-31005000D02*
X186970000Y-26155000D01*
X183870000Y-31005000D02*
X186970000Y-31005000D01*
X303810000Y-26155000D02*
X300710000Y-26155000D01*
X300710000Y-26155000D02*
X300710000Y-31005000D01*
X303810000Y-31005000D02*
X303810000Y-26155000D01*
X300710000Y-31005000D02*
X303810000Y-31005000D01*
X79760000Y-45335000D02*
X79760000Y-34675000D01*
X79760000Y-45335000D02*
X105660000Y-45335000D01*
X105660000Y-34675000D02*
X79760000Y-34675000D01*
X105660000Y-45335000D02*
X105660000Y-34675000D01*
X294110000Y-82020000D02*
X294110000Y-93220000D01*
X294110000Y-93220000D02*
X297710000Y-93220000D01*
X297710000Y-82020000D02*
X294110000Y-82020000D01*
X297710000Y-93220000D02*
X297710000Y-82020000D01*
X326670000Y-26155000D02*
X323570000Y-26155000D01*
X323570000Y-26155000D02*
X323570000Y-31005000D01*
X326670000Y-31005000D02*
X326670000Y-26155000D01*
X323570000Y-31005000D02*
X326670000Y-31005000D01*
X296190000Y-26155000D02*
X293090000Y-26155000D01*
X293090000Y-26155000D02*
X293090000Y-31005000D01*
X296190000Y-31005000D02*
X296190000Y-26155000D01*
X293090000Y-31005000D02*
X296190000Y-31005000D01*
X334290000Y-26155000D02*
X331190000Y-26155000D01*
X331190000Y-26155000D02*
X331190000Y-31005000D01*
X334290000Y-31005000D02*
X334290000Y-26155000D01*
X331190000Y-31005000D02*
X334290000Y-31005000D01*
X326610000Y-38415000D02*
X328710000Y-38415000D01*
X328710000Y-38415000D02*
X328710000Y-31435000D01*
X326610000Y-31435000D02*
X326610000Y-38415000D01*
X328710000Y-31435000D02*
X326610000Y-31435000D01*
X346180000Y-34439000D02*
X372630000Y-34439000D01*
X372630000Y-34439000D02*
X372630000Y-30839000D01*
X346180000Y-30839000D02*
X346180000Y-34439000D01*
X372630000Y-30839000D02*
X346180000Y-30839000D01*
X288570000Y-26155000D02*
X285470000Y-26155000D01*
X285470000Y-26155000D02*
X285470000Y-31005000D01*
X288570000Y-31005000D02*
X288570000Y-26155000D01*
X285470000Y-31005000D02*
X288570000Y-31005000D01*
X395639000Y-99107000D02*
X392439000Y-99107000D01*
X392439000Y-99107000D02*
X392439000Y-111967000D01*
X395639000Y-111967000D02*
X395639000Y-99107000D01*
X392439000Y-111967000D02*
X395639000Y-111967000D01*
X315980000Y-45335000D02*
X315980000Y-34675000D01*
X315980000Y-45335000D02*
X326640000Y-45335000D01*
X326640000Y-34675000D02*
X315980000Y-34675000D01*
X326640000Y-45335000D02*
X326640000Y-34675000D01*
X77900000Y-48640000D02*
X77900000Y-45340000D01*
X77900000Y-45340000D02*
X54150000Y-45340000D01*
X54150000Y-48640000D02*
X77900000Y-48640000D01*
X54150000Y-45340000D02*
X54150000Y-48640000D01*
X308360000Y-45335000D02*
X308360000Y-34675000D01*
X308360000Y-45335000D02*
X314325000Y-45335000D01*
X314325000Y-34675000D02*
X308360000Y-34675000D01*
X314325000Y-45335000D02*
X314325000Y-34675000D01*
X77040000Y-45340000D02*
X77040000Y-48640000D01*
X77040000Y-48640000D02*
X103290000Y-48640000D01*
X103290000Y-45340000D02*
X77040000Y-45340000D01*
X103290000Y-48640000D02*
X103290000Y-45340000D01*
X395756000Y-111540000D02*
X398756000Y-111540000D01*
X398756000Y-111540000D02*
X398756000Y-99280000D01*
X395756000Y-99280000D02*
X395756000Y-111540000D01*
X398756000Y-99280000D02*
X395756000Y-99280000D01*
X313260000Y-45340000D02*
X313260000Y-48640000D01*
X313260000Y-48640000D02*
X339510000Y-48640000D01*
X339510000Y-45340000D02*
X313260000Y-45340000D01*
X339510000Y-48640000D02*
X339510000Y-45340000D01*
X371680000Y-45340000D02*
X371680000Y-48640000D01*
X371680000Y-48640000D02*
X387780000Y-48640000D01*
X387780000Y-45340000D02*
X371680000Y-45340000D01*
X387780000Y-48640000D02*
X387780000Y-45340000D01*
X31220000Y-34566000D02*
X75470000Y-34566000D01*
X75470000Y-34566000D02*
X75470000Y-30966000D01*
X31220000Y-30966000D02*
X31220000Y-34566000D01*
X75470000Y-30966000D02*
X31220000Y-30966000D01*
D11*
X217982000Y-98237000D02*
X217982000Y-76237000D01*
X269982000Y-98237000D02*
X217982000Y-98237000D01*
X217982000Y-76237000D02*
X269982000Y-76237000D01*
X269982000Y-76237000D02*
X269982000Y-98237000D01*
D10*
X196955000Y-87027000D02*
X196955000Y-80877000D01*
X210705000Y-87027000D02*
X196955000Y-87027000D01*
X196955000Y-80877000D02*
X210705000Y-80877000D01*
X210705000Y-80877000D02*
X210705000Y-87027000D01*
X122940000Y-45335000D02*
X122940000Y-34675000D01*
X122940000Y-45335000D02*
X148840000Y-45335000D01*
X148840000Y-34675000D02*
X122940000Y-34675000D01*
X148840000Y-45335000D02*
X148840000Y-34675000D01*
X331220000Y-45335000D02*
X331220000Y-34675000D01*
X331220000Y-45335000D02*
X341880000Y-45335000D01*
X341880000Y-34675000D02*
X331220000Y-34675000D01*
X341880000Y-45335000D02*
X341880000Y-34675000D01*
X301270000Y-26155000D02*
X298170000Y-26155000D01*
X298170000Y-26155000D02*
X298170000Y-31005000D01*
X301270000Y-31005000D02*
X301270000Y-26155000D01*
X298170000Y-31005000D02*
X301270000Y-31005000D01*
X120220000Y-45340000D02*
X120220000Y-48640000D01*
X120220000Y-48640000D02*
X146470000Y-48640000D01*
X146470000Y-45340000D02*
X120220000Y-45340000D01*
X146470000Y-48640000D02*
X146470000Y-45340000D01*
X263170000Y-26155000D02*
X260070000Y-26155000D01*
X260070000Y-26155000D02*
X260070000Y-31005000D01*
X263170000Y-31005000D02*
X263170000Y-26155000D01*
X260070000Y-31005000D02*
X263170000Y-31005000D01*
X411668000Y-99407000D02*
X408668000Y-99407000D01*
X408668000Y-99407000D02*
X408668000Y-111667000D01*
X411668000Y-111667000D02*
X411668000Y-99407000D01*
X408668000Y-111667000D02*
X411668000Y-111667000D01*
X402006000Y-111967000D02*
X405206000Y-111967000D01*
X405206000Y-111967000D02*
X405206000Y-99107000D01*
X402006000Y-99107000D02*
X402006000Y-111967000D01*
X405206000Y-99107000D02*
X402006000Y-99107000D01*
X431546000Y-136032000D02*
X431546000Y-133032000D01*
X431546000Y-133032000D02*
X422656000Y-133032000D01*
X422656000Y-136032000D02*
X431546000Y-136032000D01*
X422656000Y-133032000D02*
X422656000Y-136032000D01*
X434191000Y-56747000D02*
X434191000Y-60347000D01*
X434191000Y-60347000D02*
X437791000Y-60347000D01*
X437791000Y-56747000D02*
X434191000Y-56747000D01*
X437791000Y-60347000D02*
X437791000Y-56747000D01*
X56900000Y-45335000D02*
X56900000Y-34675000D01*
X56900000Y-45335000D02*
X75180000Y-45335000D01*
X75180000Y-34675000D02*
X56900000Y-34675000D01*
X75180000Y-45335000D02*
X75180000Y-34675000D01*
X406295000Y-50397000D02*
X400145000Y-50397000D01*
X400145000Y-50397000D02*
X400145000Y-53997000D01*
X406295000Y-53997000D02*
X406295000Y-50397000D01*
X400145000Y-53997000D02*
X406295000Y-53997000D01*
X405308000Y-111967000D02*
X408508000Y-111967000D01*
X408508000Y-111967000D02*
X408508000Y-99107000D01*
X405308000Y-99107000D02*
X405308000Y-111967000D01*
X408508000Y-99107000D02*
X405308000Y-99107000D01*
X265710000Y-26155000D02*
X262610000Y-26155000D01*
X262610000Y-26155000D02*
X262610000Y-31005000D01*
X265710000Y-31005000D02*
X265710000Y-26155000D01*
X262610000Y-31005000D02*
X265710000Y-31005000D01*
X308890000Y-26155000D02*
X305790000Y-26155000D01*
X305790000Y-26155000D02*
X305790000Y-31005000D01*
X308890000Y-31005000D02*
X308890000Y-26155000D01*
X305790000Y-31005000D02*
X308890000Y-31005000D01*
X166800000Y-48640000D02*
X166800000Y-45340000D01*
X166800000Y-45340000D02*
X145600000Y-45340000D01*
X145600000Y-48640000D02*
X166800000Y-48640000D01*
X145600000Y-45340000D02*
X145600000Y-48640000D01*
X170920000Y-34566000D02*
X197370000Y-34566000D01*
X197370000Y-34566000D02*
X197370000Y-30966000D01*
X170920000Y-30966000D02*
X170920000Y-34566000D01*
X197370000Y-30966000D02*
X170920000Y-30966000D01*
X169190000Y-26155000D02*
X166090000Y-26155000D01*
X166090000Y-26155000D02*
X166090000Y-31005000D01*
X169190000Y-31005000D02*
X169190000Y-26155000D01*
X166090000Y-31005000D02*
X169190000Y-31005000D01*
X418443000Y-60220000D02*
X429643000Y-60220000D01*
X429643000Y-60220000D02*
X429643000Y-56620000D01*
X418443000Y-56620000D02*
X418443000Y-60220000D01*
X429643000Y-56620000D02*
X418443000Y-56620000D01*
X192050000Y-26155000D02*
X188950000Y-26155000D01*
X188950000Y-26155000D02*
X188950000Y-31005000D01*
X192050000Y-31005000D02*
X192050000Y-26155000D01*
X188950000Y-31005000D02*
X192050000Y-31005000D01*
X267540000Y-45340000D02*
X267540000Y-48640000D01*
X267540000Y-48640000D02*
X286190000Y-48640000D01*
X286190000Y-45340000D02*
X267540000Y-45340000D01*
X286190000Y-48640000D02*
X286190000Y-45340000D01*
X244860000Y-45335000D02*
X244860000Y-34675000D01*
X244860000Y-45335000D02*
X257730000Y-45335000D01*
X257730000Y-34675000D02*
X244860000Y-34675000D01*
X257730000Y-45335000D02*
X257730000Y-34675000D01*
X339370000Y-26155000D02*
X336270000Y-26155000D01*
X336270000Y-26155000D02*
X336270000Y-31005000D01*
X339370000Y-31005000D02*
X339370000Y-26155000D01*
X336270000Y-31005000D02*
X339370000Y-31005000D01*
X431419000Y-128246000D02*
X431419000Y-125246000D01*
X431419000Y-125246000D02*
X422529000Y-125246000D01*
X422529000Y-128246000D02*
X431419000Y-128246000D01*
X422529000Y-125246000D02*
X422529000Y-128246000D01*
X392481000Y-98378000D02*
X395681000Y-98378000D01*
X395681000Y-98378000D02*
X395681000Y-85518000D01*
X392481000Y-85518000D02*
X392481000Y-98378000D01*
X395681000Y-85518000D02*
X392481000Y-85518000D01*
X79480000Y-34566000D02*
X121180000Y-34566000D01*
X121180000Y-34566000D02*
X121180000Y-30966000D01*
X79480000Y-30966000D02*
X79480000Y-34566000D01*
X121180000Y-30966000D02*
X79480000Y-30966000D01*
X148340000Y-45335000D02*
X148340000Y-34675000D01*
X148340000Y-45335000D02*
X163860000Y-45335000D01*
X163860000Y-34675000D02*
X148340000Y-34675000D01*
X163860000Y-45335000D02*
X163860000Y-34675000D01*
X341850000Y-38415000D02*
X343950000Y-38415000D01*
X343950000Y-38415000D02*
X343950000Y-31435000D01*
X341850000Y-31435000D02*
X341850000Y-38415000D01*
X343950000Y-31435000D02*
X341850000Y-31435000D01*
X245540000Y-48640000D02*
X245540000Y-45340000D01*
X245540000Y-45340000D02*
X224340000Y-45340000D01*
X224340000Y-48640000D02*
X245540000Y-48640000D01*
X224340000Y-45340000D02*
X224340000Y-48640000D01*
X122660000Y-34566000D02*
X169410000Y-34566000D01*
X169410000Y-34566000D02*
X169410000Y-30966000D01*
X122660000Y-30966000D02*
X122660000Y-34566000D01*
X169410000Y-30966000D02*
X122660000Y-30966000D01*
X227080000Y-45335000D02*
X227080000Y-34675000D01*
X227080000Y-45335000D02*
X242600000Y-45335000D01*
X242600000Y-34675000D02*
X227080000Y-34675000D01*
X242600000Y-45335000D02*
X242600000Y-34675000D01*
X293650000Y-26155000D02*
X290550000Y-26155000D01*
X290550000Y-26155000D02*
X290550000Y-31005000D01*
X293650000Y-31005000D02*
X293650000Y-26155000D01*
X290550000Y-31005000D02*
X293650000Y-31005000D01*
X270260000Y-45335000D02*
X270260000Y-34675000D01*
X270260000Y-45335000D02*
X285780000Y-45335000D01*
X285780000Y-34675000D02*
X270260000Y-34675000D01*
X285780000Y-45335000D02*
X285780000Y-34675000D01*
X167860000Y-44765000D02*
X169960000Y-44765000D01*
X169960000Y-44765000D02*
X169960000Y-37785000D01*
X167860000Y-37785000D02*
X167860000Y-44765000D01*
X169960000Y-37785000D02*
X167860000Y-37785000D01*
X306350000Y-26155000D02*
X303250000Y-26155000D01*
X303250000Y-26155000D02*
X303250000Y-31005000D01*
X306350000Y-31005000D02*
X306350000Y-26155000D01*
X303250000Y-31005000D02*
X306350000Y-31005000D01*
X394555000Y-112292000D02*
X394555000Y-115292000D01*
X394555000Y-115292000D02*
X406815000Y-115292000D01*
X406815000Y-112292000D02*
X394555000Y-112292000D01*
X406815000Y-115292000D02*
X406815000Y-112292000D01*
X260630000Y-26155000D02*
X257530000Y-26155000D01*
X257530000Y-26155000D02*
X257530000Y-31005000D01*
X260630000Y-31005000D02*
X260630000Y-26155000D01*
X257530000Y-31005000D02*
X260630000Y-31005000D01*
X372330000Y-38415000D02*
X374430000Y-38415000D01*
X374430000Y-38415000D02*
X374430000Y-31435000D01*
X372330000Y-31435000D02*
X372330000Y-38415000D01*
X374430000Y-31435000D02*
X372330000Y-31435000D01*
X343740000Y-45340000D02*
X343740000Y-48640000D01*
X343740000Y-48640000D02*
X369990000Y-48640000D01*
X369990000Y-45340000D02*
X343740000Y-45340000D01*
X369990000Y-48640000D02*
X369990000Y-45340000D01*
X382550000Y-26155000D02*
X379450000Y-26155000D01*
X379450000Y-26155000D02*
X379450000Y-31005000D01*
X382550000Y-31005000D02*
X382550000Y-26155000D01*
X379450000Y-31005000D02*
X382550000Y-31005000D01*
X123620000Y-48640000D02*
X123620000Y-45340000D01*
X123620000Y-45340000D02*
X102420000Y-45340000D01*
X102420000Y-48640000D02*
X123620000Y-48640000D01*
X102420000Y-45340000D02*
X102420000Y-48640000D01*
X201400000Y-34566000D02*
X243100000Y-34566000D01*
X243100000Y-34566000D02*
X243100000Y-30966000D01*
X201400000Y-30966000D02*
X201400000Y-34566000D01*
X243100000Y-30966000D02*
X201400000Y-30966000D01*
X269980000Y-34566000D02*
X314230000Y-34566000D01*
X314230000Y-34566000D02*
X314230000Y-30966000D01*
X269980000Y-30966000D02*
X269980000Y-34566000D01*
X314230000Y-30966000D02*
X269980000Y-30966000D01*
X79501000Y-87600000D02*
X79251000Y-87600000D01*
X79501000Y-87350000D02*
X79501000Y-87600000D01*
X79501000Y-80350000D02*
X79501000Y-87350000D01*
X79501000Y-80350000D02*
X79501000Y-80100000D01*
X79501000Y-80100000D02*
X79251000Y-80100000D01*
X79251000Y-87600000D02*
X70251000Y-87600000D01*
X70251000Y-87600000D02*
X70001000Y-87600000D01*
X70251000Y-80100000D02*
X79251000Y-80100000D01*
X70251000Y-80100000D02*
X70001000Y-80100000D01*
X70001000Y-87600000D02*
X70001000Y-87350000D01*
X70001000Y-87350000D02*
X70001000Y-80350000D01*
X70001000Y-80100000D02*
X70001000Y-80350000D01*
X244580000Y-34566000D02*
X265930000Y-34566000D01*
X265930000Y-34566000D02*
X265930000Y-30966000D01*
X244580000Y-30966000D02*
X244580000Y-34566000D01*
X265930000Y-30966000D02*
X244580000Y-30966000D01*
X75785000Y-44765000D02*
X77885000Y-44765000D01*
X77885000Y-44765000D02*
X77885000Y-37785000D01*
X75785000Y-37785000D02*
X75785000Y-44765000D01*
X77885000Y-37785000D02*
X75785000Y-37785000D01*
X374400000Y-45335000D02*
X374400000Y-34675000D01*
X374400000Y-45335000D02*
X389920000Y-45335000D01*
X389920000Y-34675000D02*
X374400000Y-34675000D01*
X389920000Y-45335000D02*
X389920000Y-34675000D01*
X291110000Y-26155000D02*
X288010000Y-26155000D01*
X288010000Y-26155000D02*
X288010000Y-31005000D01*
X291110000Y-31005000D02*
X291110000Y-26155000D01*
X288010000Y-31005000D02*
X291110000Y-31005000D01*
X346460000Y-45335000D02*
X346460000Y-34675000D01*
X346460000Y-45335000D02*
X372360000Y-45335000D01*
X372360000Y-34675000D02*
X346460000Y-34675000D01*
X372360000Y-45335000D02*
X372360000Y-34675000D01*
X411716000Y-111667000D02*
X414716000Y-111667000D01*
X414716000Y-111667000D02*
X414716000Y-99407000D01*
X411716000Y-99407000D02*
X411716000Y-111667000D01*
X414716000Y-99407000D02*
X411716000Y-99407000D01*
X213260000Y-85870000D02*
X210760000Y-85870000D01*
X210760000Y-85870000D02*
X210760000Y-98130000D01*
X213260000Y-98130000D02*
X213260000Y-85870000D01*
X210760000Y-98130000D02*
X213260000Y-98130000D01*
X126818000Y-20413000D02*
X135818000Y-20413000D01*
X126818000Y-25713000D02*
X126818000Y-20413000D01*
X135818000Y-20413000D02*
X135818000Y-25713000D01*
X135818000Y-25713000D02*
X126818000Y-25713000D01*
X311370000Y-52385000D02*
X313470000Y-52385000D01*
X313470000Y-52385000D02*
X313470000Y-45405000D01*
X311370000Y-45405000D02*
X311370000Y-52385000D01*
X313470000Y-45405000D02*
X311370000Y-45405000D01*
X62589000Y-62633000D02*
X89039000Y-62633000D01*
X89039000Y-62633000D02*
X89039000Y-59033000D01*
X62589000Y-59033000D02*
X62589000Y-62633000D01*
X89039000Y-59033000D02*
X62589000Y-59033000D01*
X380387000Y-60684000D02*
X374237000Y-60684000D01*
X374237000Y-60684000D02*
X374237000Y-64284000D01*
X380387000Y-64284000D02*
X380387000Y-60684000D01*
X374237000Y-64284000D02*
X380387000Y-64284000D01*
X374120000Y-34439000D02*
X390420000Y-34439000D01*
X390420000Y-34439000D02*
X390420000Y-30839000D01*
X374120000Y-30839000D02*
X374120000Y-34439000D01*
X390420000Y-30839000D02*
X374120000Y-30839000D01*
X303850000Y-45305000D02*
X303850000Y-47405000D01*
X303850000Y-47405000D02*
X310830000Y-47405000D01*
X310830000Y-45305000D02*
X303850000Y-45305000D01*
X310830000Y-47405000D02*
X310830000Y-45305000D01*
X374120000Y-57299000D02*
X380270000Y-57299000D01*
X380270000Y-57299000D02*
X380270000Y-53699000D01*
X374120000Y-53699000D02*
X374120000Y-57299000D01*
X380270000Y-53699000D02*
X374120000Y-53699000D01*
X242140000Y-45340000D02*
X242140000Y-48640000D01*
X242140000Y-48640000D02*
X258240000Y-48640000D01*
X258240000Y-45340000D02*
X242140000Y-45340000D01*
X258240000Y-48640000D02*
X258240000Y-45340000D01*
X201680000Y-45335000D02*
X201680000Y-34675000D01*
X201680000Y-45335000D02*
X227580000Y-45335000D01*
X227580000Y-34675000D02*
X201680000Y-34675000D01*
X227580000Y-45335000D02*
X227580000Y-34675000D01*
X377470000Y-26155000D02*
X374370000Y-26155000D01*
X374370000Y-26155000D02*
X374370000Y-31005000D01*
X377470000Y-31005000D02*
X377470000Y-26155000D01*
X374370000Y-31005000D02*
X377470000Y-31005000D01*
X194590000Y-26155000D02*
X191490000Y-26155000D01*
X191490000Y-26155000D02*
X191490000Y-31005000D01*
X194590000Y-31005000D02*
X194590000Y-26155000D01*
X191490000Y-31005000D02*
X194590000Y-31005000D01*
X72670000Y-26155000D02*
X69570000Y-26155000D01*
X69570000Y-26155000D02*
X69570000Y-31005000D01*
X72670000Y-31005000D02*
X72670000Y-26155000D01*
X69570000Y-31005000D02*
X72670000Y-31005000D01*
X194669000Y-80794000D02*
X216019000Y-80794000D01*
X216019000Y-80794000D02*
X216019000Y-77194000D01*
X194669000Y-77194000D02*
X194669000Y-80794000D01*
X216019000Y-77194000D02*
X194669000Y-77194000D01*
X139932000Y-89005000D02*
X139932000Y-92605000D01*
X139932000Y-92605000D02*
X143532000Y-92605000D01*
X143532000Y-89005000D02*
X139932000Y-89005000D01*
X143532000Y-92605000D02*
X143532000Y-89005000D01*
X31500000Y-45335000D02*
X31500000Y-34675000D01*
X31500000Y-45335000D02*
X57400000Y-45335000D01*
X57400000Y-34675000D02*
X31500000Y-34675000D01*
X57400000Y-45335000D02*
X57400000Y-34675000D01*
X315700000Y-34566000D02*
X326900000Y-34566000D01*
X326900000Y-34566000D02*
X326900000Y-30966000D01*
X315700000Y-30966000D02*
X315700000Y-34566000D01*
X326900000Y-30966000D02*
X315700000Y-30966000D01*
X390420000Y-61420000D02*
X390420000Y-50220000D01*
X390420000Y-50220000D02*
X386820000Y-50220000D01*
X386820000Y-61420000D02*
X390420000Y-61420000D01*
X386820000Y-50220000D02*
X386820000Y-61420000D01*
X329150000Y-38415000D02*
X331250000Y-38415000D01*
X331250000Y-38415000D02*
X331250000Y-31435000D01*
X329150000Y-31435000D02*
X329150000Y-38415000D01*
X331250000Y-31435000D02*
X329150000Y-31435000D01*
X286120000Y-98850000D02*
X285870000Y-98850000D01*
X286120000Y-98600000D02*
X286120000Y-98850000D01*
X286120000Y-91600000D02*
X286120000Y-98600000D01*
X286120000Y-91600000D02*
X286120000Y-91350000D01*
X286120000Y-91350000D02*
X285870000Y-91350000D01*
X285870000Y-98850000D02*
X276870000Y-98850000D01*
X276870000Y-98850000D02*
X276620000Y-98850000D01*
X276870000Y-91350000D02*
X285870000Y-91350000D01*
X276870000Y-91350000D02*
X276620000Y-91350000D01*
X276620000Y-98850000D02*
X276620000Y-98600000D01*
X276620000Y-98600000D02*
X276620000Y-91600000D01*
X276620000Y-91350000D02*
X276620000Y-91600000D01*
X105160000Y-45227500D02*
X105160000Y-34567500D01*
X105160000Y-45227500D02*
X118030000Y-45227500D01*
X118030000Y-34567500D02*
X105160000Y-34567500D01*
X118030000Y-45227500D02*
X118030000Y-34567500D01*
X399051500Y-80644500D02*
X399051500Y-98994500D01*
X399051500Y-98994500D02*
X408851500Y-98994500D01*
X408851500Y-80644500D02*
X399051500Y-80644500D01*
X408851500Y-98994500D02*
X408851500Y-80644500D01*
X408991000Y-99140000D02*
X412191000Y-99140000D01*
X412191000Y-99140000D02*
X412191000Y-86280000D01*
X408991000Y-86280000D02*
X408991000Y-99140000D01*
X412191000Y-86280000D02*
X408991000Y-86280000D01*
X330940000Y-34439000D02*
X342140000Y-34439000D01*
X342140000Y-34439000D02*
X342140000Y-30839000D01*
X330940000Y-30839000D02*
X330940000Y-34439000D01*
X342140000Y-30839000D02*
X330940000Y-30839000D01*
X398984500Y-91257500D02*
X395984500Y-91257500D01*
X395984500Y-91257500D02*
X395984500Y-98357500D01*
X398984500Y-98357500D02*
X398984500Y-91257500D01*
X395984500Y-98357500D02*
X398984500Y-98357500D01*
X298730000Y-26155000D02*
X295630000Y-26155000D01*
X295630000Y-26155000D02*
X295630000Y-31005000D01*
X298730000Y-31005000D02*
X298730000Y-26155000D01*
X295630000Y-31005000D02*
X298730000Y-31005000D01*
X412293000Y-99140000D02*
X415493000Y-99140000D01*
X415493000Y-99140000D02*
X415493000Y-86280000D01*
X412293000Y-86280000D02*
X412293000Y-99140000D01*
X415493000Y-86280000D02*
X412293000Y-86280000D01*
X395984500Y-88371500D02*
X398984500Y-88371500D01*
X398984500Y-88371500D02*
X398984500Y-81271500D01*
X395984500Y-81271500D02*
X395984500Y-88371500D01*
X398984500Y-81271500D02*
X395984500Y-81271500D01*
X171200000Y-45335000D02*
X171200000Y-34675000D01*
X171200000Y-45335000D02*
X197100000Y-45335000D01*
X197100000Y-34675000D02*
X171200000Y-34675000D01*
X197100000Y-45335000D02*
X197100000Y-34675000D01*
X406285000Y-54080000D02*
X400135000Y-54080000D01*
X400135000Y-54080000D02*
X400135000Y-57680000D01*
X406285000Y-57680000D02*
X406285000Y-54080000D01*
X400135000Y-57680000D02*
X406285000Y-57680000D01*
M02*
